<svg viewBox="0 0 24 24" xmlns="http://www.w3.org/2000/svg"><path fill-rule="evenodd" clip-rule="evenodd" d="M12 22C6.477 22 2 17.523 2 12C2 6.477 6.477 2 12 2C17.523 2 22 6.477 22 12C22 17.523 17.523 22 12 22ZM12 6C10.8954 6 9.99999 6.89543 9.99999 8C9.99999 9.10457 10.8954 10 12 10C13.1046 10 14 9.10457 14 8C14 6.89543 13.1046 6 12 6ZM7.02985 10.7575C7.1638 10.2217 7.70673 9.89591 8.24253 10.0299L12 10.9692L15.7575 10.0299C16.2933 9.89591 16.8362 10.2217 16.9701 10.7575C17.1041 11.2933 16.7783 11.8362 16.2425 11.9701L13.0721 12.7628L15.8 16.4C16.1314 16.8418 16.0418 17.4686 15.6 17.8C15.1582 18.1314 14.5314 18.0418 14.2 17.6L12 14.6667L9.79999 17.6C9.46862 18.0418 8.84182 18.1314 8.39999 17.8C7.95816 17.4686 7.86862 16.8418 8.19999 16.4L10.9279 12.7628L7.75746 11.9701C7.22166 11.8362 6.8959 11.2933 7.02985 10.7575Z"/></svg>