<svg viewBox="0 0 24 24" xmlns="http://www.w3.org/2000/svg"><path fill-rule="evenodd" clip-rule="evenodd" d="M2 12C2 17.523 6.477 22 12 22C17.523 22 22 17.523 22 12C22 6.477 17.523 2 12 2C6.477 2 2 6.477 2 12ZM20 12C20 16.4183 16.4183 20 12 20C7.58172 20 4 16.4183 4 12C4 7.58172 7.58172 4 12 4C16.4183 4 20 7.58172 20 12ZM10 8C10 6.89543 10.8954 6 12 6C13.1046 6 14 6.89543 14 8C14 9.10457 13.1046 10 12 10C10.8954 10 10 9.10457 10 8ZM8.24254 10.0299C7.70674 9.89591 7.16381 10.2217 7.02986 10.7575C6.89591 11.2933 7.22167 11.8362 7.75746 11.9701L10.9279 12.7628L8.2 16.4C7.86863 16.8418 7.95817 17.4686 8.4 17.8C8.84183 18.1314 9.46863 18.0418 9.8 17.6L12 14.6667L14.2 17.6C14.5314 18.0418 15.1582 18.1314 15.6 17.8C16.0418 17.4686 16.1314 16.8418 15.8 16.4L13.0721 12.7628L16.2425 11.9701C16.7783 11.8362 17.1041 11.2933 16.9701 10.7575C16.8362 10.2217 16.2933 9.89591 15.7575 10.0299L12 10.9692L8.24254 10.0299Z"/></svg>