<svg viewBox="0 0 24 24" xmlns="http://www.w3.org/2000/svg"><path fill-rule="evenodd" clip-rule="evenodd" d="M21.918 20L12.392 3.49996C12.2133 3.19058 11.8832 3 11.526 3C11.1687 3 10.8386 3.19058 10.66 3.49996L1.13397 20C0.955344 20.3094 0.955342 20.6905 1.13397 20.9999C1.31259 21.3093 1.64271 21.4999 1.99997 21.5H21.052C21.4092 21.4999 21.7394 21.3093 21.918 20.9999C22.0966 20.6905 22.0966 20.3094 21.918 20ZM19.32 19.5H3.73197L11.526 5.99996L19.32 19.5ZM12.526 16.5V18.5H10.526V16.5H12.526ZM12.526 9.49996H10.526V14.5H12.526V9.49996Z"/></svg>