<svg viewBox="0 0 24 24" xmlns="http://www.w3.org/2000/svg"><path d="M19 13H5V20H19V13ZM19 11C19 9.1435 18.2625 7.36302 16.9497 6.05026C15.637 4.73751 13.8565 4.00001 12 4.00001C10.1435 4.00001 8.36301 4.73751 7.05025 6.05026C5.7375 7.36302 5 9.1435 5 11H19ZM6.382 3.96801C7.97574 2.69108 9.9578 1.99676 12 2.00001C14.125 2.00001 16.078 2.73601 17.618 3.96801L19.071 2.51501L20.485 3.92901L19.032 5.38201C20.3089 6.97575 21.0033 8.95782 21 11V21C21 21.2652 20.8946 21.5196 20.7071 21.7071C20.5196 21.8947 20.2652 22 20 22H4C3.73478 22 3.48043 21.8947 3.29289 21.7071C3.10536 21.5196 3 21.2652 3 21V11C3 8.87501 3.736 6.92201 4.968 5.38201L3.515 3.93001L4.929 2.51601L6.382 3.96901V3.96801ZM9 9.00001C8.73478 9.00001 8.48043 8.89465 8.29289 8.70712C8.10536 8.51958 8 8.26523 8 8.00001C8 7.7348 8.10536 7.48044 8.29289 7.2929C8.48043 7.10537 8.73478 7.00001 9 7.00001C9.26522 7.00001 9.51957 7.10537 9.70711 7.2929C9.89464 7.48044 10 7.7348 10 8.00001C10 8.26523 9.89464 8.51958 9.70711 8.70712C9.51957 8.89465 9.26522 9.00001 9 9.00001ZM15 9.00001C14.7348 9.00001 14.4804 8.89465 14.2929 8.70712C14.1054 8.51958 14 8.26523 14 8.00001C14 7.7348 14.1054 7.48044 14.2929 7.2929C14.4804 7.10537 14.7348 7.00001 15 7.00001C15.2652 7.00001 15.5196 7.10537 15.7071 7.2929C15.8946 7.48044 16 7.7348 16 8.00001C16 8.26523 15.8946 8.51958 15.7071 8.70712C15.5196 8.89465 15.2652 9.00001 15 9.00001Z"/></svg>