<svg viewBox="0 0 24 24" xmlns="http://www.w3.org/2000/svg"><path d="M14.828 7.75699L9.17202 13.414C8.91206 13.6651 8.80781 14.0369 8.89932 14.3865C8.99084 14.7361 9.26388 15.0092 9.61351 15.1007C9.96314 15.1922 10.3349 15.088 10.586 14.828L16.243 9.17199C17.4147 8.00032 17.4147 6.10067 16.243 4.92899C15.0713 3.75732 13.1717 3.75732 12 4.92899L6.34302 10.586C5.05327 11.8436 4.53974 13.6979 4.99876 15.4398C5.45777 17.1818 6.81835 18.5422 8.56038 19.0009C10.3024 19.4597 12.1566 18.9459 13.414 17.656L19.071 12L20.485 13.414L14.828 19.071C13.0596 20.8395 10.482 21.5301 8.06619 20.8828C5.65043 20.2355 3.7635 18.3486 3.11619 15.9328C2.46889 13.5171 3.15955 10.9395 4.92802 9.17099L10.586 3.51499C12.5479 1.62013 15.6664 1.64723 17.5951 3.5759C19.5238 5.50457 19.5509 8.6231 17.656 10.585L12 16.244C11.2419 17.0019 10.137 17.2978 9.10156 17.0203C8.06611 16.7427 7.2574 15.9338 6.98006 14.8983C6.70273 13.8627 6.9989 12.7579 7.75702 12L13.414 6.34299L14.828 7.75699Z"/></svg>