<svg viewBox="0 0 24 24" xmlns="http://www.w3.org/2000/svg"><path fill-rule="evenodd" clip-rule="evenodd" d="M17 15.246V22.117C17 22.2971 16.9032 22.4633 16.7465 22.5521C16.5898 22.6409 16.3975 22.6386 16.243 22.546L12 20L7.75696 22.546C7.60232 22.6387 7.40976 22.6409 7.25301 22.5519C7.09625 22.4628 6.99956 22.2963 6.99996 22.116V15.246C4.34823 13.1229 3.32642 9.55669 4.45145 6.35147C5.57649 3.14625 8.60303 1.001 12 1.001C15.3969 1.001 18.4234 3.14625 19.5485 6.35147C20.6735 9.55669 19.6517 13.1229 17 15.246ZM12 15C15.3137 15 18 12.3137 18 9C18 5.68629 15.3137 3 12 3C8.68625 3 5.99996 5.68629 5.99996 9C5.99996 12.3137 8.68625 15 12 15ZM7.99996 9C7.99996 11.2091 9.79082 13 12 13C14.2091 13 16 11.2091 16 9C16 6.79086 14.2091 5 12 5C9.79082 5 7.99996 6.79086 7.99996 9Z"/></svg>