<svg viewBox="0 0 24 24" xmlns="http://www.w3.org/2000/svg"><path d="M12 2C17.523 2 22 6.477 22 12C22 17.523 17.523 22 12 22C6.477 22 2 17.523 2 12C2 6.477 6.477 2 12 2ZM16.596 7.404C16.392 7.199 16.07 7.171 15.833 7.337C12.943 9.365 11.313 10.567 10.939 10.939C10.354 11.525 10.354 12.475 10.939 13.061C11.525 13.646 12.475 13.646 13.061 13.061C13.28 12.841 14.479 11.21 16.659 8.164C16.827 7.93 16.8 7.608 16.596 7.404ZM17.5 11C16.948 11 16.5 11.448 16.5 12C16.5 12.552 16.948 13 17.5 13C18.052 13 18.5 12.552 18.5 12C18.5 11.448 18.052 11 17.5 11ZM6.5 11C5.948 11 5.5 11.448 5.5 12C5.5 12.552 5.948 13 6.5 13C7.052 13 7.5 12.552 7.5 12C7.5 11.448 7.052 11 6.5 11ZM8.818 7.404C8.428 7.014 7.794 7.014 7.404 7.404C7.014 7.794 7.014 8.427 7.404 8.818C7.794 9.208 8.427 9.208 8.818 8.818C9.208 8.428 9.208 7.794 8.818 7.404ZM12 5.5C11.448 5.5 11 5.948 11 6.5C11 7.052 11.448 7.5 12 7.5C12.552 7.5 13 7.052 13 6.5C13 5.948 12.552 5.5 12 5.5Z"/></svg>