<svg viewBox="0 0 24 24" xmlns="http://www.w3.org/2000/svg"><path d="M12 2C17.523 2 22 6.477 22 12C22 17.523 17.523 22 12 22C6.477 22 2 17.523 2 12C2 6.477 6.477 2 12 2ZM12 11C10 11 8.333 11.333 7 12C7 13.3261 7.52678 14.5979 8.46447 15.5355C9.40215 16.4732 10.6739 17 12 17C13.3261 17 14.5979 16.4732 15.5355 15.5355C16.4732 14.5979 17 13.3261 17 12C15.667 11.333 14 11 12 11ZM8.5 7C7.348 7 6.378 7.78 6.088 8.84L6.05 9H10.95C10.8347 8.43532 10.5279 7.9278 10.0815 7.56335C9.63499 7.19889 9.07633 6.99988 8.5 7ZM15.5 7C14.348 7 13.378 7.78 13.088 8.84L13.05 9H17.95C17.8347 8.43532 17.5279 7.9278 17.0815 7.56335C16.635 7.19889 16.0763 6.99988 15.5 7Z"/></svg>