<svg viewBox="0 0 24 24" xmlns="http://www.w3.org/2000/svg"><path d="M12 11H20.533C20.577 11.385 20.6 11.78 20.6 12.184C20.6 14.918 19.62 17.22 17.922 18.784C16.437 20.155 14.404 20.959 11.98 20.959C9.5982 20.9601 7.31364 20.0144 5.62936 18.3303C3.94509 16.6463 2.9992 14.3618 3 11.98C2.99894 9.59803 3.9447 7.31332 5.62901 5.62901C7.31332 3.9447 9.59803 2.99894 11.98 3C14.4 3 16.433 3.89 17.988 5.339L16.526 6.8C15.368 5.681 13.803 5 12 5C9.49914 5 7.18825 6.33419 5.93782 8.5C4.68739 10.6658 4.68739 13.3342 5.93782 15.5C7.18825 17.6658 9.49914 19 12 19C15.526 19 18.144 16.392 18.577 13H12V11Z"/></svg>