<svg viewBox="0 0 24 24" xmlns="http://www.w3.org/2000/svg"><path d="M16.4499 3.90855C15.0677 2.69208 13.2674 2 11.4639 2C7.68116 2 3.98529 4.98883 3.98529 9.45457H5.98529C5.98529 6.21394 8.66121 4 11.4639 4C12.7573 4 14.0361 4.48247 15.0325 5.32594L16.4499 3.90855Z"/><path d="M13.6404 6.71803C13.0463 6.25312 12.2982 5.97601 11.4853 5.97601C9.55229 5.97601 7.98529 7.54302 7.98529 9.47601H9.98529C9.98529 8.64759 10.6569 7.97601 11.4853 7.97601C11.7445 7.97601 11.9883 8.04175 12.201 8.15745L13.6404 6.71803Z"/><path d="M18.6519 7.36284L22 4.01474L20.5858 2.60053L2.60052 20.5858L4.01474 22L16.9303 9.08447C16.9382 9.20627 16.9422 9.32966 16.9422 9.45457C16.9422 9.97468 16.7746 10.4612 16.4585 10.9958C16.1751 11.4751 15.8104 11.9351 15.3815 12.476C15.3106 12.5655 15.2379 12.6572 15.1635 12.7515C14.1573 14.028 12.9555 15.6529 12.9555 18.0249C12.9555 18.5548 12.9365 19.0177 12.7274 19.366C12.5853 19.6029 12.2296 20 10.9725 20V22C12.7139 22 13.8391 21.4004 14.4423 20.3952C14.9583 19.5354 14.9564 18.5546 14.9556 18.079L14.9555 18.0249C14.9555 16.3919 15.7471 15.2419 16.7342 13.9896C16.8 13.9061 16.8674 13.8213 16.9359 13.7351C17.359 13.2026 17.8209 12.6212 18.1801 12.0137C18.6115 11.284 18.9422 10.4447 18.9422 9.45457C18.9422 8.71436 18.8398 8.01484 18.6519 7.36284Z"/></svg>