<svg viewBox="0 0 24 24" xmlns="http://www.w3.org/2000/svg"><path d="M18.652 7.36284L22.0001 4.01474L20.5859 2.60052L2.60059 20.5858L4.0148 22L16.9304 9.08447C16.9383 9.20627 16.9423 9.32966 16.9423 9.45457C16.9423 9.97468 16.7747 10.4612 16.4586 10.9958C16.1752 11.4751 15.8104 11.9351 15.3816 12.476C15.3106 12.5655 15.2379 12.6572 15.1636 12.7515C14.1573 14.028 12.9555 15.6529 12.9555 18.0249C12.9555 18.5548 12.9365 19.0177 12.7275 19.366C12.5853 19.6029 12.2296 20 10.9725 20V22C12.7139 22 13.8391 21.4004 14.4424 20.3952C14.9583 19.5354 14.9565 18.5546 14.9556 18.079L14.9555 18.0249C14.9555 16.3919 15.7471 15.2419 16.7343 13.9896C16.8001 13.9061 16.8675 13.8213 16.9359 13.7351C17.3591 13.2026 17.821 12.6212 18.1802 12.0137C18.6116 11.284 18.9423 10.4447 18.9423 9.45457C18.9423 8.71436 18.8399 8.01484 18.652 7.36284Z"/><path d="M11.464 2C13.2674 2 15.0678 2.69208 16.45 3.90855L15.0326 5.32594L13.64 6.71793C13.0459 6.25302 12.2977 5.97591 11.4848 5.97591C9.55184 5.97591 7.98484 7.54291 7.98484 9.4759L5.48559 9.45457H3.98535C3.98535 4.98883 7.68122 2 11.464 2Z"/></svg>