<svg viewBox="0 0 24 24" xmlns="http://www.w3.org/2000/svg"><path d="M12 3C17.799 3 22.5 6.664 22.5 11.185C22.5 15.705 17.799 19.369 12 19.369C11.4226 19.3693 10.8457 19.3326 10.273 19.259L5.865 22.142C5.364 22.407 5.187 22.378 5.393 21.729L6.285 18.051C3.405 16.591 1.5 14.061 1.5 11.185C1.5 6.665 6.201 3 12 3ZM17.907 11.06L19.377 9.636C19.4618 9.54791 19.5091 9.43033 19.509 9.30804C19.5088 9.18575 19.4612 9.0683 19.3762 8.98041C19.2912 8.89252 19.1753 8.84107 19.0531 8.83689C18.9309 8.83271 18.8118 8.87613 18.721 8.958L16.793 10.824V9.282C16.793 9.15682 16.7433 9.03676 16.6548 8.94825C16.5662 8.85973 16.4462 8.81 16.321 8.81C16.1958 8.81 16.0758 8.85973 15.9872 8.94825C15.8987 9.03676 15.849 9.15682 15.849 9.282V11.839C15.8313 11.9119 15.8313 11.9881 15.849 12.061V13.5C15.849 13.6252 15.8987 13.7452 15.9872 13.8338C16.0758 13.9223 16.1958 13.972 16.321 13.972C16.4462 13.972 16.5662 13.9223 16.6548 13.8338C16.7433 13.7452 16.793 13.6252 16.793 13.5V12.137L17.22 11.724L18.648 13.757C18.6837 13.8078 18.729 13.851 18.7813 13.8842C18.8337 13.9175 18.8921 13.9401 18.9532 13.9508C19.0143 13.9615 19.0769 13.96 19.1374 13.9465C19.198 13.933 19.2552 13.9077 19.306 13.872C19.3568 13.8363 19.4 13.791 19.4332 13.7387C19.4665 13.6863 19.4891 13.6279 19.4998 13.5668C19.5105 13.5057 19.509 13.4431 19.4955 13.3826C19.482 13.322 19.4567 13.2648 19.421 13.214L17.907 11.059V11.06ZM14.949 12.984H13.489V9.297C13.4834 9.17571 13.4313 9.06123 13.3435 8.97737C13.2557 8.89351 13.1389 8.84672 13.0175 8.84672C12.8961 8.84672 12.7793 8.89351 12.6915 8.97737C12.6037 9.06123 12.5516 9.17571 12.546 9.297V13.456C12.546 13.716 12.756 13.928 13.017 13.928H14.949C15.0742 13.928 15.1942 13.8783 15.2828 13.7898C15.3713 13.7012 15.421 13.5812 15.421 13.456C15.421 13.3308 15.3713 13.2108 15.2828 13.1222C15.1942 13.0337 15.0742 12.984 14.949 12.984ZM9.092 11.892L9.788 10.185L10.426 11.892H9.092ZM11.615 12.38L11.617 12.364C11.6168 12.2451 11.5714 12.1307 11.49 12.044L10.444 9.244C10.4002 9.11057 10.3166 8.99369 10.2046 8.90899C10.0926 8.8243 9.95733 8.7758 9.817 8.77C9.67564 8.76938 9.53744 8.81182 9.42079 8.89167C9.30414 8.97152 9.21457 9.08499 9.164 9.217L7.503 13.292C7.47956 13.3494 7.46765 13.4108 7.46796 13.4728C7.46826 13.5348 7.48077 13.5961 7.50478 13.6533C7.52878 13.7104 7.56381 13.7623 7.60785 13.8059C7.6519 13.8495 7.70411 13.8841 7.7615 13.9075C7.81889 13.9309 7.88033 13.9428 7.94232 13.9425C8.00431 13.9422 8.06563 13.9297 8.12279 13.9057C8.17994 13.8817 8.23181 13.8467 8.27543 13.8026C8.31904 13.7586 8.35356 13.7064 8.377 13.649L8.707 12.836H10.777L11.076 13.636C11.0963 13.6958 11.1285 13.7509 11.1705 13.7981C11.2125 13.8452 11.2635 13.8835 11.3206 13.9105C11.3777 13.9376 11.4396 13.9529 11.5027 13.9557C11.5658 13.9584 11.6288 13.9484 11.688 13.9263C11.7471 13.9042 11.8013 13.8704 11.8472 13.8271C11.8931 13.7837 11.9298 13.7315 11.9551 13.6737C11.9805 13.6158 11.994 13.5535 11.9948 13.4903C11.9957 13.4272 11.9838 13.3645 11.96 13.306L11.615 12.38ZM8.293 9.302C8.293 9.17699 8.24341 9.05709 8.15511 8.9686C8.06681 8.88011 7.94701 8.83026 7.822 8.83H4.577C4.45182 8.83 4.33176 8.87973 4.24325 8.96825C4.15473 9.05676 4.105 9.17682 4.105 9.302C4.105 9.42718 4.15473 9.54724 4.24325 9.63575C4.33176 9.72427 4.45182 9.774 4.577 9.774H5.737V13.51C5.737 13.6352 5.78673 13.7552 5.87525 13.8438C5.96376 13.9323 6.08382 13.982 6.209 13.982C6.33418 13.982 6.45424 13.9323 6.54275 13.8438C6.63127 13.7552 6.681 13.6352 6.681 13.51V9.774H7.821C8.082 9.774 8.293 9.562 8.293 9.302Z"/></svg>