<svg viewBox="0 0 24 24" xmlns="http://www.w3.org/2000/svg"><path d="M9.97302 18H11V13H13V18H14.027C14.159 16.798 14.772 15.806 15.767 14.723C15.88 14.601 16.599 13.856 16.684 13.75C17.3903 12.8676 17.833 11.8037 17.9611 10.6807C18.0893 9.55781 17.8976 8.42151 17.4083 7.40271C16.9189 6.38392 16.1518 5.52406 15.1951 4.92215C14.2385 4.32025 13.1313 4.00078 12.0011 4.00054C10.8709 4.0003 9.76356 4.31929 8.80668 4.92079C7.8498 5.52228 7.08227 6.38182 6.59248 7.4004C6.10269 8.41899 5.91056 9.55521 6.03821 10.6782C6.16587 11.8012 6.60811 12.8653 7.31402 13.748C7.40002 13.855 8.12102 14.601 8.23202 14.722C9.22802 15.806 9.84102 16.798 9.97302 18ZM10 20V21H14V20H10ZM5.75402 15C4.81221 13.8233 4.22197 12.4044 4.05129 10.9069C3.8806 9.40944 4.13642 7.89418 4.78927 6.53572C5.44213 5.17725 6.46546 4.03085 7.74138 3.22856C9.0173 2.42627 10.4939 2.00074 12.0011 2.00098C13.5083 2.00122 14.9848 2.42722 16.2604 3.22992C17.5361 4.03262 18.5591 5.17935 19.2115 6.53803C19.8639 7.8967 20.1192 9.41204 19.9481 10.9095C19.7769 12.4069 19.1862 13.8256 18.244 15.002C17.624 15.774 16 17 16 18.5V21C16 21.5304 15.7893 22.0391 15.4142 22.4142C15.0392 22.7893 14.5305 23 14 23H10C9.46959 23 8.96088 22.7893 8.58581 22.4142C8.21073 22.0391 8.00002 21.5304 8.00002 21V18.5C8.00002 17 6.37502 15.774 5.75402 15Z"/></svg>