<svg viewBox="0 0 24 24" xmlns="http://www.w3.org/2000/svg"><path fill-rule="evenodd" clip-rule="evenodd" d="M3 3H21C21.5523 3 22 3.44772 22 4V20C22 20.5523 21.5523 21 21 21H3C2.44772 21 2 20.5523 2 20V4C2 3.44772 2.44772 3 3 3ZM4 5V19H20V5H4ZM15 11H10.05C10.2262 10.1347 10.8459 9.42652 11.6803 9.13706C12.5146 8.84759 13.4397 9.01977 14.114 9.59L15.815 8.457C14.6222 7.15694 12.7796 6.67391 11.1024 7.22157C9.4252 7.76923 8.22276 9.24652 8.027 11H7V13H8.028C8.22443 14.7526 9.42649 16.2289 11.1029 16.7764C12.7793 17.3239 14.621 16.8417 15.814 15.543L14.114 14.41C13.4397 14.9802 12.5146 15.1524 11.6803 14.8629C10.8459 14.5735 10.2262 13.8653 10.05 13H15V11Z"/></svg>