<svg viewBox="0 0 24 24" xmlns="http://www.w3.org/2000/svg"><path d="M8.66996 5.00706C9.32627 3.61869 10.4209 2.48467 11.7852 1.77974C13.1496 1.07481 14.7078 0.838091 16.22 1.10606C15.9622 1.89594 15.9282 2.74176 16.1216 3.5498C16.3151 4.35784 16.7284 5.09654 17.316 5.68406C17.9035 6.27157 18.6422 6.68496 19.4502 6.87841C20.2583 7.07186 21.1041 7.03782 21.894 6.78006C21.964 7.17606 22 7.58406 22 8.00006C22.0017 9.17948 21.7041 10.34 21.135 11.3731C21.9734 12.1117 22.567 13.0881 22.8367 14.1725C23.1064 15.2568 23.0394 16.3976 22.6447 17.4429C22.25 18.4882 21.5463 19.3886 20.6272 20.024C19.7082 20.6595 18.6173 20.9999 17.5 21.0001H8.99996C6.9076 20.9989 4.89898 20.178 3.40469 18.7134C1.9104 17.2488 1.04939 15.257 1.00622 13.1651C0.963056 11.0732 1.74118 9.04761 3.17378 7.52261C4.60638 5.99761 6.57943 5.09456 8.66996 5.00706ZM10.847 5.21406C12.1072 5.51436 13.2759 6.11565 14.2529 6.96641C15.2299 7.81718 15.9862 8.89208 16.457 10.0991C17.4475 9.90922 18.4711 9.99395 19.417 10.3441C19.643 9.91906 19.81 9.45906 19.905 8.97406C18.3927 8.83468 16.977 8.17035 15.9033 7.09633C14.8297 6.02231 14.1658 4.60634 14.027 3.09406C12.7282 3.35205 11.5846 4.11441 10.847 5.21406ZM17.5 19.0001C18.077 19 18.6451 18.8572 19.1536 18.5845C19.6621 18.3118 20.0953 17.9176 20.4147 17.437C20.734 16.9563 20.9295 16.4042 20.9839 15.8297C21.0382 15.2553 20.9497 14.6763 20.7262 14.1443C20.5027 13.6123 20.1511 13.1438 19.7027 12.7806C19.2544 12.4173 18.7232 12.1706 18.1564 12.0623C17.5896 11.954 17.0048 11.9875 16.4541 12.1598C15.9034 12.3321 15.4039 12.638 15 13.0501V13.0001C15 11.8134 14.6481 10.6533 13.9888 9.66664C13.3295 8.67994 12.3924 7.91091 11.2961 7.45678C10.1997 7.00266 8.9933 6.88384 7.82942 7.11535C6.66553 7.34686 5.59643 7.9183 4.75732 8.75742C3.9182 9.59653 3.34676 10.6656 3.11525 11.8295C2.88374 12.9934 3.00256 14.1998 3.45668 15.2962C3.91081 16.3925 4.67984 17.3296 5.66654 17.9889C6.65323 18.6482 7.81327 19.0001 8.99996 19.0001H17.5Z"/></svg>