<svg viewBox="0 0 24 24" xmlns="http://www.w3.org/2000/svg"><path d="M13.3699 2.094C8.4222 1.41338 3.73058 4.48647 2.37772 9.29406C1.02486 14.1017 3.42534 19.1705 8.00192 21.17C7.94206 20.4018 7.997 19.629 8.16492 18.877C8.34992 18.038 9.46092 13.414 9.46092 13.414C9.23968 12.9181 9.12912 12.38 9.13692 11.837C9.13692 10.352 9.99392 9.244 11.0599 9.244C11.4474 9.23835 11.8182 9.40151 12.0759 9.69102C12.3335 9.98053 12.4525 10.3678 12.4019 10.752C12.4019 11.652 11.8239 13.014 11.5219 14.292C11.4009 14.7673 11.5129 15.2719 11.8237 15.6513C12.1345 16.0308 12.6071 16.24 13.0969 16.215C14.9949 16.215 16.2669 13.784 16.2669 10.914C16.2669 8.71399 14.8099 7.066 12.1239 7.066C10.8253 7.01553 9.56271 7.49984 8.63097 8.40588C7.69922 9.31193 7.17979 10.5604 7.19392 11.86C7.16528 12.5733 7.39542 13.273 7.84192 13.83C8.01332 13.9579 8.07938 14.1839 8.00392 14.384C7.95792 14.568 7.84192 15.007 7.79592 15.168C7.77651 15.2787 7.70567 15.3736 7.60505 15.4238C7.50442 15.4739 7.38598 15.4732 7.28592 15.422C5.90192 14.868 5.24992 13.345 5.24992 11.606C5.24992 8.759 7.63392 5.351 12.4039 5.351C16.1999 5.351 18.7239 8.12799 18.7239 11.098C18.7239 15.007 16.5469 17.946 13.3299 17.946C12.3528 17.9772 11.4273 17.5073 10.8759 16.7C10.8759 16.7 10.2979 19.016 10.1839 19.454C9.95121 20.2107 9.60782 20.9288 9.16492 21.585C10.0879 21.865 11.0469 22.005 12.0109 22.001C14.6639 22.0031 17.2087 20.9497 19.084 19.0731C20.9593 17.1965 22.0109 14.651 22.0069 11.998C22.0043 7.00423 18.3188 2.77751 13.3719 2.095L13.3699 2.094Z"/></svg>