<svg viewBox="0 0 24 24" xmlns="http://www.w3.org/2000/svg"><path d="M15.8601 18L12.7071 14.847C12.5196 14.6596 12.2653 14.5543 12.0001 14.5543C11.7349 14.5543 11.4806 14.6596 11.2931 14.847L8.18009 17.96C6.81358 17.8189 5.50642 17.3283 4.3845 16.5355C3.26258 15.7427 2.3637 14.6743 1.77442 13.4333C1.18515 12.1924 0.925332 10.8206 1.02 9.45004C1.11466 8.07952 1.56062 6.75646 2.31492 5.60828C3.06921 4.4601 4.10644 3.52549 5.32671 2.89444C6.54698 2.26339 7.90918 1.95717 9.28212 2.00527C10.6551 2.05337 11.9925 2.45417 13.1656 3.16907C14.3387 3.88397 15.308 4.88889 15.9801 6.08704C16.799 5.94606 17.6382 5.97669 18.4446 6.177C19.251 6.37731 20.007 6.74293 20.6647 7.25069C21.3224 7.75846 21.8675 8.3973 22.2654 9.12674C22.6633 9.85617 22.9054 10.6603 22.9763 11.4882C23.0472 12.3161 22.9453 13.1497 22.6772 13.9361C22.4091 14.7226 21.9805 15.4448 21.4187 16.057C20.8569 16.6691 20.174 17.158 19.4134 17.4924C18.6528 17.8269 17.831 17.9998 17.0001 18H15.8611H15.8601ZM10.2321 18.732L12.0001 16.964L13.7681 18.732C14.1177 19.0817 14.3557 19.5272 14.4521 20.0121C14.5485 20.497 14.499 20.9997 14.3097 21.4564C14.1205 21.9132 13.8001 22.3036 13.3889 22.5783C12.9778 22.853 12.4945 22.9996 12.0001 22.9996C11.5057 22.9996 11.0223 22.853 10.6112 22.5783C10.2001 22.3036 9.87969 21.9132 9.69046 21.4564C9.50122 20.9997 9.45167 20.497 9.54808 20.0121C9.64449 19.5272 9.88253 19.0817 10.2321 18.732Z"/></svg>