<svg viewBox="0 0 24 24" xmlns="http://www.w3.org/2000/svg"><path d="M10.2929 5.29289L6.58579 9L10.2929 12.7071L11.7071 11.2929L10.4142 10H13C13.7847 10 14.5372 10.2645 15.0814 10.7539C15.6079 11.2273 16 11.9638 16 13.0513C16 14.1361 15.6106 14.8394 15.0958 15.2847C14.5587 15.7493 13.8044 16 13 16H8V18H13C14.1956 18 15.4413 17.6302 16.4042 16.7974C17.3894 15.9452 18 14.6742 18 13.0513C18 11.4311 17.3921 10.1419 16.4186 9.26665C15.4628 8.40725 14.2153 8 13 8H10.4142L11.7071 6.70711L10.2929 5.29289Z"/><path d="M2 3C2 2.44772 2.44772 2 3 2H21C21.5523 2 22 2.44772 22 3V21C22 21.5523 21.5523 22 21 22H3C2.44772 22 2 21.5523 2 21V3ZM4 4V20H20V4H4Z"/></svg>