<svg viewBox="0 0 24 24" xmlns="http://www.w3.org/2000/svg"><path d="M13.12 17.023L8.92102 14.733C8.37282 15.3191 7.66101 15.7267 6.8781 15.9029C6.09518 16.0791 5.27737 16.0157 4.53094 15.7211C3.78452 15.4264 3.14398 14.914 2.69259 14.2505C2.2412 13.587 1.99982 12.803 1.99982 12.0005C1.99982 11.198 2.2412 10.4141 2.69259 9.75058C3.14398 9.08707 3.78452 8.57467 4.53094 8.27998C5.27737 7.98529 6.09518 7.92193 6.8781 8.09813C7.66101 8.27434 8.37282 8.68196 8.92102 9.26802L13.121 6.97802C12.8826 6.03409 12.9966 5.03561 13.4417 4.16972C13.8867 3.30384 14.6323 2.63 15.5387 2.27452C16.445 1.91904 17.4499 1.90633 18.365 2.23875C19.2801 2.57118 20.0425 3.22594 20.5093 4.08028C20.9762 4.93463 21.1154 5.92991 20.9009 6.87957C20.6864 7.82922 20.133 8.66806 19.3443 9.23883C18.5555 9.8096 17.5857 10.0731 16.6166 9.98001C15.6475 9.8869 14.7456 9.44353 14.08 8.73302L9.88002 11.023C10.0412 11.6644 10.0412 12.3357 9.88002 12.977L14.079 15.267C14.7446 14.5565 15.6465 14.1131 16.6156 14.02C17.5847 13.9269 18.5545 14.1904 19.3433 14.7612C20.132 15.332 20.6854 16.1708 20.8999 17.1205C21.1144 18.0701 20.9752 19.0654 20.5083 19.9198C20.0415 20.7741 19.2791 21.4289 18.364 21.7613C17.4489 22.0937 16.444 22.081 15.5377 21.7255C14.6313 21.37 13.8857 20.6962 13.4407 19.8303C12.9956 18.9644 12.8816 17.9659 13.12 17.022V17.023ZM6.00002 14C6.53046 14 7.03916 13.7893 7.41424 13.4142C7.78931 13.0392 8.00002 12.5305 8.00002 12C8.00002 11.4696 7.78931 10.9609 7.41424 10.5858C7.03916 10.2107 6.53046 10 6.00002 10C5.46959 10 4.96088 10.2107 4.58581 10.5858C4.21074 10.9609 4.00002 11.4696 4.00002 12C4.00002 12.5305 4.21074 13.0392 4.58581 13.4142C4.96088 13.7893 5.46959 14 6.00002 14ZM17 8.00002C17.5305 8.00002 18.0392 7.78931 18.4142 7.41423C18.7893 7.03916 19 6.53045 19 6.00002C19 5.46959 18.7893 4.96088 18.4142 4.58581C18.0392 4.21073 17.5305 4.00002 17 4.00002C16.4696 4.00002 15.9609 4.21073 15.5858 4.58581C15.2107 4.96088 15 5.46959 15 6.00002C15 6.53045 15.2107 7.03916 15.5858 7.41423C15.9609 7.78931 16.4696 8.00002 17 8.00002ZM17 20C17.5305 20 18.0392 19.7893 18.4142 19.4142C18.7893 19.0392 19 18.5305 19 18C19 17.4696 18.7893 16.9609 18.4142 16.5858C18.0392 16.2107 17.5305 16 17 16C16.4696 16 15.9609 16.2107 15.5858 16.5858C15.2107 16.9609 15 17.4696 15 18C15 18.5305 15.2107 19.0392 15.5858 19.4142C15.9609 19.7893 16.4696 20 17 20Z"/></svg>