<svg viewBox="0 0 24 24" xmlns="http://www.w3.org/2000/svg"><path d="M12 5C10.3431 5 9 3.65685 9 2H3C2.44772 2 2 2.44772 2 3V10C2 10.5523 2.44772 11 3 11L4.999 10.999L5 19C5 19.5523 5.44772 20 6 20H9V18H6.999V8.999L4 9V4H7.416L7.434 4.04C8.23904 5.84082 10.0274 7.00017 12 7L12.216 6.995C14.1086 6.91318 15.7925 5.76924 16.566 4.04L16.583 3.999H20V8.999L22 9V3C22 2.44772 21.5523 2 21 2H15C15 3.65685 13.6569 5 12 5Z"/><path fill-rule="evenodd" clip-rule="evenodd" d="M16.2482 21.4185C16.8188 21.801 17.4988 22 18.25 22C18.3512 21.9908 18.4459 21.9862 18.5388 21.9817C18.9404 21.9623 19.3094 21.9444 20.0251 21.5646C20.4246 21.289 21.3049 20.5205 21.6293 19.6511C21.6366 19.6209 21.6518 19.5775 21.672 19.5198C21.7715 19.2354 21.9927 18.6027 22 17.4853V15.0147C22 14.1426 21.8496 13.3538 21.5556 12.6847C21.1035 11.648 20.3585 11.0984 20.0425 10.9531C19.5174 10.655 18.9115 10.5 18.25 10.5C17.4988 10.5 16.8188 10.699 16.2482 11.0815C15.6785 11.4634 15.2391 12.0137 14.9444 12.6847C14.6504 13.3538 14.5 14.1425 14.5 15.0147V17.4853C14.5 18.3574 14.6504 19.1461 14.9444 19.8153C15.0998 20.1788 15.5781 21.0084 16.2482 21.4185ZM17.3618 19.7572C17.1345 19.6048 16.9307 19.3643 16.7755 19.011C16.6031 18.6184 16.5 18.1058 16.5 17.4853V15.0147C16.5 14.3942 16.6031 13.8816 16.7755 13.4891C16.9307 13.1357 17.1345 12.8952 17.3618 12.7428C17.5882 12.591 17.8773 12.5 18.25 12.5C18.6227 12.5 18.9118 12.591 19.1382 12.7428C19.3655 12.8952 19.5693 13.1357 19.7245 13.4891C19.8969 13.8816 20 14.3942 20 15.0147V17.4853C20 18.1059 19.8969 18.6184 19.7245 19.011C19.5693 19.3643 19.3655 19.6048 19.1382 19.7572C18.9118 19.909 18.6227 20 18.25 20C17.8773 20 17.5882 19.909 17.3618 19.7572Z"/><path d="M13 22.0034V10.7534H11.6842L8.75 11.5392V13.6101L11 13.0071V22.0034H13Z"/></svg>