<svg viewBox="0 0 24 24" xmlns="http://www.w3.org/2000/svg"><path d="M8 10.255V5C8 3.93913 8.42143 2.92172 9.17157 2.17157C9.92172 1.42143 10.9391 1 12 1C13.0609 1 14.0783 1.42143 14.8284 2.17157C15.5786 2.92172 16 3.93913 16 5V10.255C17.223 11.1066 18.1423 12.3262 18.6241 13.7365C19.1059 15.1467 19.125 16.6739 18.6788 18.0958C18.2325 19.5176 17.3441 20.76 16.1429 21.642C14.9416 22.524 13.4903 22.9996 12 22.9996C10.5097 22.9996 9.05837 22.524 7.85714 21.642C6.6559 20.76 5.7675 19.5176 5.32123 18.0958C4.87496 16.6739 4.89412 15.1467 5.37592 13.7365C5.85772 12.3262 6.77702 11.1066 8 10.255ZM11 12.126C10.0595 12.3717 9.24061 12.9514 8.6962 13.7567C8.15179 14.562 7.9191 15.5379 8.04156 16.5022C8.16403 17.4665 8.63329 18.3533 9.36172 18.997C10.0901 19.6406 11.0279 19.9972 12 20C12.9743 20.001 13.9154 19.6463 14.6467 19.0026C15.3781 18.3589 15.8493 17.4705 15.9721 16.504C16.0948 15.5375 15.8606 14.5594 15.3134 13.7533C14.7662 12.9472 13.9436 12.3686 13 12.126V5H11V12.126Z"/></svg>