<svg viewBox="0 0 24 24" xmlns="http://www.w3.org/2000/svg"><g clip-path="url(#clip0_12256_1638)"><path fill-rule="evenodd" clip-rule="evenodd" d="M6.08122 3L11.9469 11.6244L13.7692 3.06788L19.6274 4.31065C21.2452 4.65384 22.2778 6.24088 21.9339 7.85541C21.7744 8.60455 21.3465 9.22798 20.7721 9.64679C21.1267 10.2618 21.2633 11.0046 21.1038 11.7532C20.7599 13.3678 19.1698 14.3984 17.5521 14.0552L12.1657 12.9126L10.5968 13.2454L8.77979 10.5754L4.71211 11.4383L4.14225 14.6147L2 15.0691L4.09213 3.42197L6.08122 3ZM5.6853 6.02251L5.09153 9.32085L7.56994 8.79508L5.6853 6.02251ZM18.3822 10.1574L14.4767 9.32889L14.0617 11.2778L17.9672 12.1063C18.5064 12.2207 19.0364 11.8772 19.1511 11.339C19.2652 10.803 18.9192 10.2713 18.3822 10.1574ZM19.2124 6.25957L15.3069 5.43106L14.8918 7.37997L18.7973 8.20848C19.3365 8.32288 19.8666 7.97933 19.9812 7.44115C20.0953 6.9052 19.7494 6.37349 19.2124 6.25957Z"/><path d="M5.24637 19.2588C9.09806 16.2626 14.8657 16.2715 18.7169 19.2594L16.9728 21H21.9638V16.0189L20.1377 17.8413C15.5046 14.0904 8.46521 14.0759 3.8257 17.8409L2.00008 16.0189V21H6.991L5.24637 19.2588Z"/></g><defs><clipPath id="clip0_12256_1638"><rect width="24" height="24"/></clipPath></defs></svg>