<svg viewBox="0 0 24 24" xmlns="http://www.w3.org/2000/svg"><path d="M5.91005 11.69C5.39737 12.1626 4.97099 12.721 4.65005 13.34C4.23883 14.1604 4.01671 15.0625 4.00005 15.98C3.99726 16.6891 4.10523 17.3942 4.32005 18.07V18.13C4.51481 18.6532 4.77344 19.1502 5.09005 19.61L5.45005 20.05V19.96L6.45005 20.96C7.29618 21.537 8.2959 21.8471 9.32005 21.85C10.1012 21.8515 10.8717 21.67 11.5701 21.32C12.2554 20.9664 12.8638 20.4804 13.3601 19.89C13.7867 19.3615 14.1244 18.767 14.3601 18.13C14.5701 17.4831 14.6879 16.8098 14.7101 16.13V8.05L15.5701 8.61L16.1501 9.02C16.6946 9.35467 17.2838 9.61055 17.9001 9.78C18.307 9.88544 18.7216 9.959 19.1401 10V7.77C18.5391 7.67658 17.9579 7.48396 17.4201 7.2C17.2757 7.12063 17.1355 7.03385 17.0001 6.94C16.608 6.66945 16.2518 6.35024 15.9401 5.99C15.3123 5.23242 14.8981 4.32108 14.7401 3.35L14.6801 3H12.5701V16.31C12.5399 16.8924 12.3683 17.4588 12.0701 17.96C11.7845 18.4387 11.3863 18.8404 10.9101 19.13C10.4228 19.4299 9.86215 19.5891 9.29005 19.59C8.38908 19.5612 7.53614 19.1769 6.91774 18.521C6.29934 17.8652 5.9658 16.9911 5.99005 16.09C5.98124 15.6225 6.06867 15.1582 6.2469 14.7259C6.42514 14.2936 6.69037 13.9026 7.02612 13.5772C7.36187 13.2517 7.76097 12.9988 8.1986 12.8342C8.63623 12.6695 9.10305 12.5966 9.57005 12.62V10.35C8.99103 10.327 8.41242 10.4048 7.86005 10.58C7.13715 10.804 6.47172 11.1828 5.91005 11.69Z"/></svg>