<svg viewBox="0 0 24 24" xmlns="http://www.w3.org/2000/svg"><path d="M22.1621 5.65601C21.3986 5.9937 20.589 6.21548 19.7601 6.31401C20.6338 5.79144 21.2878 4.96902 21.6001 4.00001C20.7801 4.48801 19.8811 4.83001 18.9441 5.01501C17.6499 3.63033 15.5863 3.2891 13.9153 4.18346C12.2443 5.07782 11.3837 6.98415 11.8181 8.82901C8.45507 8.66045 5.3218 7.072 3.19805 4.45901C2.82634 5.09746 2.63101 5.82323 2.63205 6.56201C2.63205 8.01201 3.37005 9.29301 4.49205 10.043C3.82806 10.0221 3.17869 9.84279 2.59805 9.52001V9.57201C2.59847 11.563 4.00157 13.2781 5.95305 13.673C5.33667 13.84 4.69036 13.8647 4.06305 13.745C4.61018 15.4492 6.1805 16.6168 7.97005 16.65C6.21799 18.026 3.99079 18.6491 1.77905 18.382C3.69075 19.6114 5.91615 20.2641 8.18905 20.262C15.8821 20.262 20.0891 13.889 20.0891 8.36201C20.0891 8.18201 20.0841 8.00001 20.0761 7.82201C20.8949 7.23017 21.6017 6.49703 22.1631 5.65701L22.1621 5.65601Z"/></svg>