<svg viewBox="0 0 24 24" xmlns="http://www.w3.org/2000/svg"><path d="M15.2063 14.3062C15.375 13.8 15.375 13.4062 15.3188 13.2937C15.2813 13.2187 15.2188 13.1937 15.1146 13.1521C15.0625 13.1312 15 13.1062 14.925 13.0687C14.7 12.9562 13.6875 12.45 13.5188 12.3937C13.35 12.3375 13.125 12.3375 13.0125 12.5625C12.9202 12.678 12.8373 12.7934 12.76 12.9011C12.649 13.0557 12.5495 13.1943 12.45 13.2937C12.3375 13.4062 12.1125 13.4625 11.9438 13.35C11.905 13.3306 11.8527 13.3078 11.7888 13.28C11.4825 13.1464 10.9079 12.896 10.2563 12.3375C9.76663 11.8924 9.41788 11.3768 9.21004 11.0695C9.15524 10.9885 9.11024 10.9219 9.07504 10.875C8.96254 10.65 9.07504 10.5375 9.18754 10.425L9.52504 10.0875C9.63754 9.975 9.69379 9.91875 9.75004 9.75C9.80629 9.6375 9.75004 9.46875 9.69379 9.35625C9.66566 9.3 9.55316 9.01876 9.42661 8.70236C9.30005 8.38598 9.1594 8.03435 9.07504 7.8375C8.96254 7.55625 8.85004 7.55625 8.62504 7.55625C8.56879 7.5 8.45629 7.5 8.40004 7.5C8.11879 7.5 7.83754 7.55625 7.66879 7.78125C7.44379 8.00625 6.93754 8.5125 6.93754 9.525C6.93754 10.5375 7.66879 11.55 7.78129 11.6625C7.79564 11.6768 7.83014 11.7242 7.88373 11.7977C8.25017 12.3003 9.50932 14.0273 11.325 14.8125C12.9563 15.4875 13.4625 15.4312 13.8 15.375C14.3625 15.2062 15.0375 14.8125 15.2063 14.3062Z"/><path d="M11.7188 8.81785C11.4525 8.81785 11.2366 9.03372 11.2366 9.3C11.2366 9.56628 11.4525 9.78214 11.7188 9.78214C12.1838 9.78214 12.5304 10.1288 12.5304 10.5937C12.5304 10.86 12.7463 11.0759 13.0125 11.0759C13.2788 11.0759 13.4947 10.86 13.4947 10.5937C13.4947 9.59622 12.7163 8.81785 11.7188 8.81785Z"/><path d="M11.2366 5.8125C11.2366 5.54622 11.4525 5.33035 11.7188 5.33035C14.6288 5.33035 16.9822 7.68372 16.9822 10.5937C16.9822 10.86 16.7663 11.0759 16.5 11.0759C16.2338 11.0759 16.0179 10.86 16.0179 10.5937C16.0179 8.21628 14.0963 6.29464 11.7188 6.29464C11.4525 6.29464 11.2366 6.07878 11.2366 5.8125Z"/><path d="M11.7188 7.07411C11.4525 7.07411 11.2366 7.28997 11.2366 7.55625C11.2366 7.82253 11.4525 8.03839 11.7188 8.03839C13.14 8.03839 14.2741 9.17253 14.2741 10.5937C14.2741 10.86 14.49 11.0759 14.7563 11.0759C15.0226 11.0759 15.2384 10.86 15.2384 10.5937C15.2384 8.63997 13.6726 7.07411 11.7188 7.07411Z"/><path d="M5.53928 4.1619C7.29821 2.95416 9.64279 2.69464 12.0001 2.69464C14.3573 2.69464 16.7019 2.95416 18.4608 4.1619C20.2961 5.42205 21.3054 7.57004 21.3054 10.875C21.3054 14.18 20.2961 16.3279 18.4608 17.5881C16.7019 18.7958 14.3573 19.0554 12.0001 19.0554H10.7283L8.75474 21.0289L8.71721 21.0589L8.70625 21.0681C8.69891 21.0743 8.68948 21.0825 8.67787 21.0927C8.65453 21.1131 8.62585 21.1388 8.59293 21.1686C8.52714 21.2282 8.45031 21.2991 8.37599 21.3682C8.302 21.437 8.23208 21.5026 8.18057 21.5511L8.11925 21.6089L6.6322 23.0176V18.2117C5.55121 17.7287 4.60789 17.0029 3.91457 15.9204C3.10868 14.6622 2.6947 13.0067 2.6947 10.875C2.6947 7.57004 3.70403 5.42205 5.53928 4.1619ZM6.52177 5.59278C5.30546 6.42795 4.43042 7.9362 4.43042 10.875C4.43042 12.7933 4.80394 14.0909 5.37617 14.9842C5.94039 15.8651 6.7507 16.4358 7.79195 16.8077L8.36792 17.0134V18.9611L10.0093 17.3196H12.0001C14.3115 17.3196 16.1857 17.0448 17.4783 16.1572C18.6947 15.322 19.5697 13.8138 19.5697 10.875C19.5697 7.9362 18.6947 6.42795 17.4783 5.59278C16.1857 4.70521 14.3115 4.43036 12.0001 4.43036C9.68858 4.43036 7.81441 4.70521 6.52177 5.59278Z"/></svg>