<svg viewBox="0 0 24 24" xmlns="http://www.w3.org/2000/svg"><path d="M12 18C12.714 18 13.37 18.25 13.886 18.666L12 21L10.114 18.666C10.6474 18.2339 11.3134 17.9987 12 18ZM2.80796 1.393L20.485 19.071L19.071 20.485L15.389 16.805L15.142 17.111C14.2533 16.3908 13.1438 15.9985 12 16C10.8566 15.9984 9.74749 16.3904 8.85896 17.11L6.97396 14.776C8.28802 13.7115 9.90686 13.0929 11.596 13.01L9.82296 11.238C8.3195 11.5724 6.91403 12.2508 5.71696 13.22L3.82996 10.887C4.90777 10.0142 6.11844 9.31975 7.41596 8.83L5.88496 7.3C4.69829 7.83071 3.58563 8.51343 2.57496 9.331L0.688965 6.997C1.60396 6.257 2.59196 5.606 3.64096 5.055L1.39296 2.808L2.80796 1.393ZM16.084 11.87L12.216 8.003L12 8C15.095 8 17.937 9.081 20.17 10.887L18.284 13.221C17.6121 12.6771 16.8726 12.2237 16.084 11.87ZM12 3C16.285 3 20.22 4.497 23.31 6.997L21.426 9.33C18.7597 7.17031 15.4312 5.99442 12 6C11.428 6 10.864 6.032 10.31 6.094L7.72296 3.511C9.09396 3.177 10.527 3 12 3Z"/></svg>