<svg viewBox="0 0 24 24" xmlns="http://www.w3.org/2000/svg"><path d="M12 18C12.714 18 13.37 18.25 13.886 18.666L12 21L10.114 18.666C10.6474 18.2339 11.3134 17.9987 12 18ZM2.80796 1.393L20.485 19.071L19.071 20.485L13.891 15.305C13.2811 15.1026 12.6426 14.9996 12 15C10.572 15 9.25996 15.499 8.22996 16.332L6.97396 14.776C8.28802 13.7115 9.90686 13.0929 11.596 13.01L8.99996 10.414C7.57213 10.8187 6.24128 11.509 5.08796 12.443L3.82996 10.887C4.90777 10.0142 6.11844 9.31975 7.41596 8.83L5.13196 6.545C3.99506 7.08641 2.926 7.76006 1.94696 8.552L0.688965 6.997C1.60396 6.257 2.59196 5.606 3.64096 5.055L1.39296 2.808L2.80796 1.393ZM14.5 10.285L12.216 8.002L12 8C15.095 8 17.937 9.081 20.17 10.887L18.912 12.443C17.6235 11.3992 16.1149 10.6613 14.5 10.285ZM12 3C16.285 3 20.22 4.497 23.31 6.997L22.053 8.552C19.2093 6.24865 15.6594 4.99438 12 5C11.122 5 10.26 5.07 9.41996 5.207L7.72496 3.51C9.09396 3.177 10.527 3 12 3Z"/></svg>