<svg viewBox="0 0 24 24" xmlns="http://www.w3.org/2000/svg"><path d="M0.689941 6.997C3.88903 4.40532 7.88279 2.99391 11.9999 3C16.2849 3 20.2199 4.497 23.3099 6.997L21.4249 9.33C18.7589 7.17053 15.4308 5.99464 11.9999 6C8.42994 6 5.14994 7.248 2.57494 9.33L0.689941 6.997ZM3.83094 10.887C6.14154 9.01499 9.02618 7.99554 11.9999 8C15.0939 8 17.9359 9.081 20.1689 10.886L18.2839 13.22C16.5064 11.7802 14.2874 10.9963 11.9999 11C9.61994 11 7.43394 11.832 5.71594 13.22L3.83094 10.886V10.887ZM6.97294 14.777C8.39479 13.6249 10.1699 12.9974 11.9999 13C13.9039 13 15.6529 13.665 17.0269 14.776L15.1419 17.11C14.2531 16.3902 13.1437 15.9982 11.9999 16C10.8562 15.9982 9.74674 16.3902 8.85794 17.11L6.97294 14.776V14.777ZM10.1149 18.667C10.648 18.2347 11.3136 17.9992 11.9999 18C12.7139 18 13.3699 18.25 13.8849 18.666L11.9999 21L10.1149 18.667Z"/></svg>