<svg viewBox="0 0 24 24" xmlns="http://www.w3.org/2000/svg"><path d="M0.689941 6.997C3.88903 4.40532 7.88279 2.99391 11.9999 3C16.2849 3 20.2199 4.497 23.3099 6.997L22.0539 8.553C19.2102 6.24907 15.6599 4.99443 11.9999 5C8.19094 5 4.69394 6.33 1.94594 8.553L0.689941 6.997ZM3.83094 10.887C6.14154 9.01499 9.02618 7.99554 11.9999 8C15.0939 8 17.9359 9.081 20.1689 10.886L18.9119 12.442C16.9568 10.8583 14.516 9.99601 11.9999 10C9.38194 10 6.97694 10.915 5.08794 12.442L3.83094 10.886V10.887ZM6.97294 14.777C8.39479 13.6249 10.1699 12.9974 11.9999 13C13.9039 13 15.6529 13.665 17.0269 14.776L15.7699 16.332C14.7035 15.4682 13.3723 14.9979 11.9999 15C10.5719 15 9.25994 15.499 8.22994 16.332L6.97294 14.776V14.777ZM10.1149 18.667C10.648 18.2347 11.3136 17.9992 11.9999 18C12.7139 18 13.3699 18.25 13.8849 18.666L11.9999 21L10.1149 18.667Z"/></svg>