<svg viewBox="0 0 24 24" xmlns="http://www.w3.org/2000/svg"><path d="M10.5 17H4V15H10.5C11.1387 15.0003 11.7653 15.1753 12.3116 15.5061C12.858 15.837 13.3035 16.311 13.5997 16.877C13.8959 17.4429 14.0316 18.0791 13.992 18.7166C13.9525 19.3541 13.7393 19.9687 13.3755 20.4937C13.0116 21.0187 12.5111 21.4341 11.928 21.6949C11.3449 21.9557 10.7016 22.052 10.0677 21.9734C9.43383 21.8947 8.83356 21.6441 8.33194 21.2486C7.83032 20.8532 7.44647 20.328 7.222 19.73L9.095 19.027C9.19118 19.2833 9.35566 19.5084 9.57063 19.6779C9.78559 19.8474 10.0428 19.9549 10.3145 19.9886C10.5862 20.0223 10.8619 19.9811 11.1118 19.8693C11.3617 19.7575 11.5762 19.5795 11.7322 19.3545C11.8881 19.1295 11.9795 18.8662 11.9965 18.5929C12.0135 18.3197 11.9553 18.0471 11.8284 17.8045C11.7015 17.562 11.5106 17.3588 11.2764 17.217C11.0423 17.0752 10.7738 17.0001 10.5 17ZM5 11H18.5C19.1387 11.0003 19.7653 11.1753 20.3116 11.5061C20.858 11.837 21.3035 12.311 21.5997 12.877C21.8959 13.4429 22.0316 14.0791 21.992 14.7166C21.9525 15.3541 21.7393 15.9687 21.3755 16.4937C21.0116 17.0186 20.5111 17.4341 19.928 17.6949C19.3449 17.9557 18.7016 18.052 18.0677 17.9734C17.4338 17.8947 16.8336 17.6441 16.3319 17.2486C15.8303 16.8532 15.4465 16.328 15.222 15.73L17.095 15.027C17.1912 15.2833 17.3557 15.5084 17.5706 15.6779C17.7856 15.8474 18.0428 15.9549 18.3145 15.9886C18.5862 16.0223 18.8619 15.9811 19.1118 15.8693C19.3617 15.7575 19.5762 15.5795 19.7322 15.3545C19.8881 15.1295 19.9795 14.8662 19.9965 14.5929C20.0135 14.3197 19.9553 14.0471 19.8284 13.8045C19.7015 13.562 19.5106 13.3588 19.2764 13.217C19.0423 13.0752 18.7738 13.0001 18.5 13H5C4.20435 13 3.44129 12.684 2.87868 12.1213C2.31607 11.5587 2 10.7957 2 10C2 9.20438 2.31607 8.44131 2.87868 7.87871C3.44129 7.3161 4.20435 7.00003 5 7.00003H13.5C13.7738 6.99991 14.0423 6.92489 14.2764 6.78308C14.5106 6.64127 14.7015 6.43808 14.8284 6.19553C14.9553 5.95299 15.0135 5.68033 14.9965 5.40711C14.9795 5.13388 14.8881 4.8705 14.7322 4.64552C14.5762 4.42053 14.3617 4.2425 14.1118 4.13074C13.8619 4.01897 13.5862 3.97772 13.3145 4.01146C13.0428 4.0452 12.7856 4.15264 12.5706 4.32214C12.3557 4.49163 12.1912 4.71673 12.095 4.97303L10.222 4.27103C10.5105 3.50383 11.059 2.86217 11.7719 2.45784C12.4849 2.05351 13.3171 1.91214 14.1236 2.05837C14.9301 2.20461 15.6597 2.62917 16.1853 3.25808C16.711 3.88699 16.9993 4.68039 17 5.50003C17 6.42828 16.6313 7.31852 15.9749 7.9749C15.3185 8.63128 14.4283 9.00003 13.5 9.00003H5C4.73478 9.00003 4.48043 9.10538 4.29289 9.29292C4.10536 9.48046 4 9.73481 4 10C4 10.2652 4.10536 10.5196 4.29289 10.7071C4.48043 10.8947 4.73478 11 5 11Z"/></svg>