<svg width="58" height="40" fill="none" xmlns="http://www.w3.org/2000/svg"><rect x=".5" y=".5" width="57" height="39" rx="3.5" fill="#fff" stroke="#F3F3F3"/><path fill-rule="evenodd" clip-rule="evenodd" d="M32.537 21.54h-.968a.183.183 0 0 1-.172-.183v-5.084a.184.184 0 0 1 .187-.166h.9c.082.003.153.06.172.142v.777h.02c.27-.695.651-1.026 1.322-1.026.434 0 .859.16 1.133.599.254.406.254 1.09.254 1.583v3.198a.186.186 0 0 1-.187.16h-.976a.183.183 0 0 1-.172-.16v-2.894c.006-.543.012-1.235-.607-1.235a.638.638 0 0 0-.563.406c-.135.31-.153.621-.153.965v2.735a.187.187 0 0 1-.19.183Zm-4.1-5.533c1.442 0 2.221 1.262 2.221 2.866 0 1.55-.859 2.78-2.22 2.78-1.414 0-2.184-1.262-2.184-2.833 0-1.572.78-2.813 2.184-2.813Zm.01 1.038c-.716 0-.761.994-.761 1.614v.02c0 .63 0 1.926.752 1.926.76 0 .789-1.07.789-1.721 0-.428-.018-.942-.146-1.348-.109-.35-.326-.491-.634-.491ZM10.498 21.55h-.97a.184.184 0 0 1-.172-.167v-5.084a.185.185 0 0 1 .186-.181h.905c.092.005.167.08.172.175v.663h.018c.235-.642.68-.941 1.277-.941.599 0 .988.299 1.26.941a1.44 1.44 0 0 1 1.123-.931 1.42 1.42 0 0 1 1.346.541c.264.366.256.876.248 1.355l-.003.239v3.207c0 .05-.021.097-.056.131a.182.182 0 0 1-.131.052h-.97a.184.184 0 0 1-.172-.182v-2.695l.001-.153c.003-.253.008-.634-.029-.799-.072-.341-.29-.438-.57-.438a.645.645 0 0 0-.58.417c-.093.239-.092.624-.092.91v2.757c0 .05-.02.097-.056.13a.181.181 0 0 1-.13.053h-.973a.184.184 0 0 1-.172-.182v-2.695l.002-.172c.008-.55.017-1.23-.603-1.23-.671 0-.67.775-.67 1.36v2.736a.188.188 0 0 1-.057.131.182.182 0 0 1-.13.052h-.002Zm-2.888.062a.197.197 0 0 0 .23-.023l.007.002c.194-.177.546-.489.744-.658.076-.066.062-.175 0-.263a7.588 7.588 0 0 0-.056-.078c-.16-.218-.31-.424-.31-.84v-1.689c.003-.596.006-1.141-.43-1.557-.371-.365-.988-.493-1.461-.493-.924 0-1.955.352-2.17 1.516a.178.178 0 0 0 .028.135.17.17 0 0 0 .116.071l.933.105a.206.206 0 0 0 .172-.183c.08-.4.41-.594.78-.594.202 0 .427.075.546.257.121.183.12.426.118.644v.203l-.277.03c-.512.053-1.105.114-1.549.313C4.43 18.78 4 19.325 4 20.128c0 1.03.636 1.544 1.453 1.544.69 0 1.067-.166 1.601-.72l.07.107c.128.194.211.32.486.553Zm-.75-2.39v-.26c-.701 0-1.443.153-1.443.996 0 .43.217.72.59.72.273 0 .518-.173.672-.451.182-.33.182-.64.182-1.004Zm14.455 1.445-.057-.079c-.16-.217-.31-.424-.31-.838v-1.7c.004-.593.007-1.134-.43-1.548-.372-.364-.989-.492-1.46-.492-.924 0-1.956.35-2.172 1.515a.178.178 0 0 0 .028.136c.028.04.07.065.117.072l.94.103a.207.207 0 0 0 .173-.182c.081-.4.41-.594.78-.594.2 0 .43.075.545.257.122.183.12.426.119.644v.2l-.27.028c-.515.053-1.11.115-1.556.314-.608.269-1.035.815-1.035 1.62 0 1.027.636 1.542 1.453 1.542.687 0 1.067-.166 1.6-.72l.07.105c.129.197.21.321.487.555a.199.199 0 0 0 .23-.022c.193-.176.545-.489.743-.658.084-.06.07-.167.005-.258Zm-1.908-.445c-.154.278-.4.45-.672.45-.372 0-.59-.29-.59-.718 0-.844.742-.997 1.444-.997v.254c0 .369 0 .68-.182 1.011Zm2.73-3.217v-.724a.177.177 0 0 1 .05-.132.17.17 0 0 1 .13-.05h3.191a.176.176 0 0 1 .13.05.183.183 0 0 1 .054.132v.624c0 .104-.086.24-.24.456L23.8 19.768c.614-.015 1.262.08 1.82.399a.332.332 0 0 1 .172.283v.779c0 .106-.114.23-.235.166a3.61 3.61 0 0 0-3.372.006c-.11.06-.227-.061-.227-.168v-.74a.891.891 0 0 1 .12-.5l1.915-2.804H22.32a.176.176 0 0 1-.13-.052.184.184 0 0 1-.055-.132ZM39 16.745c.244-.22.522-.396.824-.52.285-.116.589-.175.895-.175.305-.006.607.056.886.182.263.123.493.308.671.54.194.257.338.55.423.863.103.37.153.754.148 1.14.005.393-.049.784-.158 1.162-.092.32-.242.619-.443.882-.186.24-.423.433-.692.566-.283.134-.593.2-.905.194a2.245 2.245 0 0 1-1.577-.614V23.4a.185.185 0 0 1-.05.156.178.178 0 0 1-.154.052h-.601a.178.178 0 0 1-.153-.052.185.185 0 0 1-.051-.156v-6.987a.186.186 0 0 1 .051-.156c.04-.04.097-.06.153-.052h.447a.213.213 0 0 1 .161.053.22.22 0 0 1 .074.155l.05.332Zm1.435.134a2.243 2.243 0 0 0-1.364.478v2.892c.434.334.882.5 1.343.5.936 0 1.404-.644 1.404-1.93 0-1.285-.46-1.932-1.383-1.94Zm3.683.256.076-.026a5.147 5.147 0 0 1 1.494-.237c.407 0 .692.077.855.229.163.152.244.415.244.789v.682c-.42-.11-.85-.169-1.282-.176-.597 0-1.072.15-1.425.452-.353.301-.53.704-.53 1.21.002.47.145.845.43 1.126.286.28.672.42 1.16.42.302 0 .601-.06.881-.175.296-.117.57-.286.809-.498l.051.343a.21.21 0 0 0 .07.148.201.201 0 0 0 .154.05h.438a.178.178 0 0 0 .153-.053.186.186 0 0 0 .05-.155v-3.547c0-.568-.153-.987-.458-1.256-.305-.27-.78-.404-1.425-.404-.32 0-.64.03-.956.088a3.619 3.619 0 0 0-.804.228.38.38 0 0 0-.162.11.356.356 0 0 0-.041.202v.278c0 .126.046.188.132.188.03 0 .058-.006.086-.016Zm1.97 3.558a2.046 2.046 0 0 1-.703.134c-.264 0-.468-.07-.61-.212-.143-.142-.215-.345-.215-.607 0-.603.383-.904 1.151-.904a4.882 4.882 0 0 1 1.079.135v1.06c-.214.166-.45.3-.702.394Zm4.334 2.726c.24-.208.453-.55.637-1.028l2.24-5.813a.81.81 0 0 0 .07-.25c0-.083-.047-.125-.142-.125h-.57a.362.362 0 0 0-.224.052.561.561 0 0 0-.121.229l-1.375 4.027-1.426-4.027a.561.561 0 0 0-.121-.229.361.361 0 0 0-.224-.052h-.611c-.095 0-.142.042-.142.125a.81.81 0 0 0 .07.25l1.961 4.944-.193.526c-.115.333-.244.561-.387.685a.884.884 0 0 1-.601.187 1.4 1.4 0 0 1-.274-.02.916.916 0 0 0-.153-.021c-.103 0-.153.066-.153.197v.27a.356.356 0 0 0 .05.212c.043.05.1.085.164.1.189.05.384.075.58.072.39 0 .704-.103.945-.311Z" fill="#232F3E"/><path fill-rule="evenodd" clip-rule="evenodd" d="M23.732 24.783c.22-.56.712-1.816.479-2.12h.001c-.232-.305-1.538-.145-2.126-.073h-.001c-.179.023-.207-.136-.046-.251 1.043-.748 2.753-.534 2.951-.281.199.252-.054 2-1.031 2.834-.15.128-.294.06-.227-.11Zm-7.02.864c2.272 0 4.918-.732 6.74-2.104v.003c.302-.231.044-.572-.264-.438a16.123 16.123 0 0 1-6.284 1.314c-2.996 0-5.893-.837-8.238-2.229-.205-.121-.358.093-.186.25a12.062 12.062 0 0 0 8.232 3.204Z" fill="#F90"/></svg>