<svg width="58" height="40" fill="none" xmlns="http://www.w3.org/2000/svg"><rect x=".5" y=".5" width="57" height="39" rx="3.5" fill="#fff" stroke="#F3F3F3"/><path fill-rule="evenodd" clip-rule="evenodd" d="M17.577 14.927c-.422.504-1.097.902-1.772.846-.084-.683.246-1.408.633-1.856.422-.519 1.16-.889 1.758-.917.07.71-.204 1.408-.619 1.927Zm.612.98c-.595-.034-1.137.181-1.576.355-.282.112-.52.207-.702.207-.204 0-.453-.1-.732-.212-.366-.147-.784-.315-1.223-.307-1.005.014-1.94.59-2.454 1.507-1.055 1.834-.274 4.55.745 6.043.5.74 1.097 1.55 1.885 1.521.346-.013.595-.12.853-.23.297-.128.606-.26 1.087-.26.465 0 .76.129 1.044.252.269.118.527.231.911.224.816-.014 1.329-.74 1.828-1.479a6.522 6.522 0 0 0 .812-1.685l.004-.014-.02-.009c-.18-.083-1.556-.72-1.57-2.429-.012-1.434 1.093-2.16 1.267-2.275a.608.608 0 0 0 .02-.014c-.703-1.052-1.8-1.166-2.18-1.194Zm5.646 9.022V13.846h4.113c2.124 0 3.607 1.479 3.607 3.64 0 2.16-1.511 3.654-3.663 3.654h-2.355v3.789h-1.702Zm1.701-9.633h1.962c1.477 0 2.32.796 2.32 2.197 0 1.4-.843 2.204-2.327 2.204h-1.954v-4.4ZM37.174 23.6c-.45.868-1.441 1.415-2.51 1.415-1.582 0-2.686-.952-2.686-2.388 0-1.422 1.069-2.24 3.045-2.36l2.123-.129v-.61c0-.904-.584-1.394-1.624-1.394-.858 0-1.484.448-1.61 1.13h-1.533c.05-1.436 1.385-2.481 3.192-2.481 1.948 0 3.213 1.03 3.213 2.63v5.517h-1.575V23.6h-.035Zm-2.053.1c-.907 0-1.483-.44-1.483-1.116 0-.697.555-1.102 1.617-1.166l1.891-.12v.625c0 1.038-.872 1.777-2.025 1.777Zm8.888 1.664c-.682 1.94-1.463 2.58-3.122 2.58-.127 0-.549-.014-.647-.043v-1.329c.105.014.366.028.5.028.751 0 1.173-.32 1.433-1.151l.155-.49-2.883-8.07h1.78l2.003 6.548h.035l2.004-6.547h1.73l-2.988 8.474Z" fill="#000"/></svg>