<svg width="58" height="40" viewBox="0 0 58 40" fill="none" xmlns="http://www.w3.org/2000/svg">
<rect x="0.5" y="0.5" width="57" height="39" rx="3.5" fill="white" stroke="#F3F3F3"/>
<path d="M41.2048 21.4231H31.4056L30.409 22.5452L27.175 26.1861V26.1862L26.1784 27.3082H16.5088L17.49 26.1719L17.9544 25.6341L18.9356 24.4979H14.48C13.6661 24.4979 13 25.1809 13 26.0155V29.2177C13 30.0525 13.6661 30.7354 14.48 30.7354H31.5377C32.3517 30.7354 33.4636 30.2282 34.0087 29.6082L36.5889 26.6734L41.2048 21.4231Z" fill="#005697"/>
<path d="M43.1736 18C43.9876 18 44.6536 18.683 44.6536 19.5177V22.7198C44.6536 23.5544 43.9876 24.2375 43.1736 24.2375H38.7326L39.7231 23.1098H39.7232L40.2143 22.5507L41.2047 21.4231H31.4057L26.1785 27.3125H16.4489L23.4265 19.4228L23.6905 19.1242C24.2375 18.5059 25.3509 18 26.1649 18H43.1736V18Z" fill="#FBD500"/>
<path fill-rule="evenodd" clip-rule="evenodd" d="M16.3355 36.179C16.3355 35.9699 16.2862 35.7889 16.1877 35.6361C16.0891 35.4833 15.9595 35.3667 15.7987 35.2863C15.9595 35.2059 16.0841 35.0872 16.1727 34.9304C16.2611 34.7736 16.3053 34.5967 16.3053 34.3997V34.2911C16.3053 34.0498 16.2591 33.8489 16.1667 33.6879C16.0741 33.5271 15.9444 33.3984 15.7775 33.3019C15.6107 33.2054 15.4106 33.1361 15.1775 33.0938C14.9441 33.0516 14.6849 33.0305 14.3993 33.0305C14.3029 33.0305 14.2023 33.0325 14.0978 33.0365C13.9931 33.0405 13.8917 33.0455 13.7932 33.0516C13.6947 33.0576 13.6041 33.0647 13.5218 33.0727C13.4393 33.0809 13.3719 33.0889 13.3197 33.0968C13.2031 33.1171 13.1207 33.1531 13.0725 33.2054C13.0242 33.2577 13.0001 33.3523 13.0001 33.4889V37.1561C13.0001 37.2929 13.0251 37.3873 13.0755 37.4396C13.1257 37.4919 13.2111 37.528 13.3318 37.5482C13.3921 37.5602 13.4645 37.5702 13.5489 37.5783C13.6333 37.5864 13.7247 37.5934 13.8233 37.5994C13.9219 37.6054 14.0233 37.6104 14.1279 37.6145C14.2325 37.6184 14.3349 37.6206 14.4355 37.6206C14.6969 37.6206 14.9431 37.6004 15.1745 37.5602C15.4055 37.5201 15.6066 37.4486 15.7775 37.346C15.9485 37.2436 16.0841 37.1048 16.1847 36.9299C16.2852 36.755 16.3355 36.5348 16.3355 36.2694V36.179ZM15.3101 34.4479C15.3101 34.5123 15.3001 34.5737 15.2799 34.6319C15.2598 34.6902 15.2267 34.7404 15.1805 34.7828C15.1341 34.8249 15.0719 34.8591 14.9935 34.8852C14.9151 34.9113 14.8155 34.9244 14.6949 34.9244H14.0194V33.8809C14.0395 33.8809 14.0707 33.8801 14.1129 33.8779C14.1551 33.8759 14.1993 33.8749 14.2455 33.8749H14.4777C14.7873 33.8749 15.0035 33.9141 15.1261 33.9925C15.2487 34.0709 15.3101 34.1926 15.3101 34.3574V34.4479ZM15.1563 36.6374C15.2749 36.5449 15.3343 36.4142 15.3343 36.2453V36.179C15.3343 36.0342 15.2879 35.9086 15.1955 35.802C15.1029 35.6955 14.9361 35.6422 14.6949 35.6422H14.0194V36.77H14.1249C14.1711 36.77 14.2193 36.7713 14.2697 36.7731C14.3199 36.7751 14.3681 36.7763 14.4145 36.7763H14.5139C14.8235 36.7763 15.0377 36.7299 15.1563 36.6374ZM19.6408 35.2923C19.6408 35.0713 19.6076 34.8832 19.5412 34.7284C19.4749 34.5737 19.3814 34.4469 19.2608 34.3484C19.1401 34.2499 18.9924 34.1777 18.8174 34.1313C18.6425 34.0851 18.4465 34.0619 18.2294 34.0619C18.0282 34.0619 17.8322 34.0761 17.6413 34.1043C17.4502 34.1323 17.2984 34.1605 17.1859 34.1885C17.1095 34.2088 17.0713 34.2529 17.0713 34.3212V34.8098C17.0713 34.8501 17.0813 34.8783 17.1015 34.8942C17.1215 34.9103 17.1476 34.9185 17.1799 34.9185H17.21L17.391 34.9033C17.4633 34.8973 17.5448 34.8924 17.6353 34.8882C17.7257 34.8843 17.8202 34.8813 17.9187 34.8792C18.0172 34.8772 18.1148 34.8762 18.2113 34.8762C18.352 34.8762 18.4626 34.9023 18.543 34.9546C18.6234 35.0069 18.6636 35.1195 18.6636 35.2923V35.5095H18.3379C17.8192 35.5095 17.4422 35.5909 17.207 35.7538C16.9718 35.9166 16.8541 36.175 16.8541 36.5288V36.5833C16.8541 36.7801 16.8833 36.945 16.9416 37.0776C16.9998 37.2104 17.0773 37.317 17.1738 37.3975C17.2703 37.4778 17.3798 37.5351 17.5025 37.5692C17.6252 37.6034 17.7529 37.6206 17.8856 37.6206C18.0665 37.6206 18.2223 37.5964 18.353 37.5482C18.4836 37.4999 18.6072 37.4336 18.724 37.3491V37.4456C18.724 37.4778 18.736 37.506 18.7601 37.53C18.7843 37.5542 18.8124 37.5662 18.8446 37.5662H19.5201C19.5522 37.5662 19.5804 37.5542 19.6046 37.53C19.6287 37.506 19.6408 37.4778 19.6408 37.4456V35.2923ZM18.4495 36.8454C18.5318 36.8193 18.6094 36.7882 18.6817 36.752V36.0885H18.3379C18.2334 36.0885 18.1469 36.0976 18.0786 36.1156C18.0102 36.1338 17.9558 36.1609 17.9157 36.1971C17.8755 36.2332 17.8474 36.2795 17.8313 36.3358C17.8152 36.3921 17.8071 36.4564 17.8071 36.5288V36.5833C17.8071 36.7118 17.8382 36.7942 17.9006 36.8304C17.963 36.8666 18.0584 36.8846 18.1871 36.8846C18.2796 36.8846 18.367 36.8717 18.4495 36.8454ZM23.332 37.4396V35.431C23.332 35.2422 23.317 35.0641 23.2868 34.8973C23.2566 34.7306 23.2024 34.5857 23.124 34.463C23.0456 34.3403 22.937 34.2428 22.7982 34.1705C22.6596 34.0981 22.4816 34.0619 22.2644 34.0619C22.0714 34.0619 21.9005 34.0852 21.7518 34.1318C21.603 34.1784 21.4462 34.2604 21.2814 34.3779V34.2318C21.2814 34.1994 21.2692 34.171 21.2452 34.1467C21.221 34.1224 21.1928 34.1101 21.1606 34.1101H20.4852C20.4529 34.1101 20.4248 34.1222 20.4008 34.1463C20.3766 34.1705 20.3646 34.1987 20.3646 34.2308V37.4396C20.3646 37.4718 20.3775 37.5009 20.4038 37.527C20.4298 37.5532 20.459 37.5662 20.4912 37.5662H21.221C21.2532 37.5662 21.2814 37.5532 21.3054 37.5271C21.3296 37.5011 21.3416 37.472 21.3416 37.4398V35.0687C21.4462 35.0125 21.5446 34.9665 21.6372 34.9304C21.7296 34.8942 21.82 34.8762 21.9086 34.8762C22.001 34.8762 22.0764 34.8852 22.1348 34.9033C22.193 34.9214 22.2382 34.9524 22.2704 34.9968C22.3026 35.0407 22.3248 35.0988 22.3368 35.171C22.3488 35.2432 22.355 35.3315 22.355 35.4359V37.4398C22.355 37.472 22.367 37.5011 22.3912 37.5271C22.4152 37.5532 22.4433 37.5662 22.4756 37.5662H23.2054C23.2375 37.5662 23.2666 37.5532 23.2928 37.527C23.319 37.5009 23.332 37.4718 23.332 37.4396ZM26.2996 36.8547V37.3914C26.2996 37.4356 26.2895 37.4667 26.2694 37.4848C26.2493 37.5029 26.2171 37.518 26.1729 37.53C26.0884 37.5502 25.9789 37.5702 25.8442 37.5905C25.7094 37.6104 25.5516 37.6206 25.3707 37.6206C24.9444 37.6206 24.6036 37.4899 24.3484 37.2284C24.093 36.9671 23.9654 36.5891 23.9654 36.0945V35.5879C23.9654 35.0933 24.093 34.7153 24.3484 34.4541C24.6036 34.1926 24.9444 34.0619 25.3707 34.0619C25.5516 34.0619 25.7094 34.0719 25.8442 34.092C25.9789 34.1123 26.0884 34.1323 26.1729 34.1524C26.2171 34.1644 26.2493 34.1795 26.2694 34.1976C26.2895 34.2157 26.2996 34.2469 26.2996 34.2911V34.8279C26.2996 34.8601 26.2885 34.8852 26.2664 34.9033C26.2443 34.9214 26.2171 34.9304 26.185 34.9304H26.1729C26.0603 34.9185 25.9528 34.9083 25.8502 34.9003C25.7477 34.8924 25.6099 34.8882 25.437 34.8882C25.3687 34.8882 25.3044 34.8993 25.244 34.9214C25.1837 34.9435 25.1314 34.9817 25.0872 35.036C25.0429 35.0903 25.0078 35.1626 24.9816 35.2531C24.9555 35.3436 24.9424 35.4552 24.9424 35.5879V36.0945C24.9424 36.2272 24.9555 36.3388 24.9816 36.4293C25.0078 36.5198 25.0429 36.5922 25.0872 36.6464C25.1314 36.7007 25.1837 36.7389 25.244 36.761C25.3044 36.7832 25.3687 36.7942 25.437 36.7942C25.6099 36.7942 25.7477 36.7902 25.8502 36.7822C25.9528 36.7741 26.0603 36.764 26.1729 36.752H26.185C26.2171 36.752 26.2443 36.761 26.2664 36.7791C26.2885 36.7973 26.2996 36.8224 26.2996 36.8547ZM29.6472 35.6301C29.6472 35.3888 29.6139 35.1717 29.5474 34.9787C29.4809 34.7857 29.3842 34.6219 29.2573 34.4871C29.1304 34.3525 28.9732 34.2479 28.786 34.1735C28.5986 34.0992 28.382 34.0619 28.1362 34.0619C27.8905 34.0619 27.6739 34.0992 27.4866 34.1735C27.2992 34.2479 27.141 34.3525 27.0121 34.4871C26.8831 34.6219 26.7854 34.7857 26.7191 34.9787C26.6524 35.1717 26.6192 35.3888 26.6192 35.6301V36.0523C26.6192 36.2936 26.6524 36.5107 26.7191 36.7037C26.7854 36.8968 26.8831 37.0606 27.0121 37.1953C27.141 37.3301 27.2992 37.4346 27.4866 37.509C27.6739 37.5832 27.8905 37.6206 28.1362 37.6206C28.382 37.6206 28.5986 37.5832 28.786 37.509C28.9732 37.4346 29.1304 37.3301 29.2573 37.1953C29.3842 37.0606 29.4809 36.8968 29.5474 36.7037C29.6139 36.5107 29.6472 36.2936 29.6472 36.0523V35.6301ZM28.1362 36.7942C28.4921 36.7942 28.67 36.5469 28.67 36.0523V35.6301C28.67 35.1395 28.4921 34.8942 28.1362 34.8942C27.9603 34.8942 27.8264 34.9556 27.7344 35.0782C27.6424 35.2009 27.5964 35.3849 27.5964 35.6301V36.0523C27.5964 36.2976 27.6424 36.4826 27.7344 36.6072C27.8264 36.7319 27.9603 36.7942 28.1362 36.7942ZM33.2359 37.4396V35.431C33.2359 35.2422 33.2206 35.0641 33.1907 34.8973C33.1605 34.7306 33.1061 34.5857 33.0276 34.463C32.9492 34.3403 32.8407 34.2428 32.7021 34.1705C32.5633 34.0981 32.3853 34.0619 32.1683 34.0619C31.9753 34.0619 31.8043 34.0852 31.6555 34.1318C31.5067 34.1784 31.3499 34.2604 31.1851 34.3779V34.2318C31.1851 34.1994 31.1731 34.171 31.1488 34.1467C31.1249 34.1224 31.0966 34.1101 31.0645 34.1101H30.3889C30.3567 34.1101 30.3287 34.1222 30.3045 34.1463C30.2804 34.1705 30.2683 34.1987 30.2683 34.2308V37.4396C30.2683 37.4718 30.2813 37.5009 30.3075 37.527C30.3337 37.5532 30.3627 37.5662 30.395 37.5662H31.1249C31.1569 37.5662 31.1851 37.5532 31.2093 37.5271C31.2333 37.5011 31.2455 37.472 31.2455 37.4398V35.0687C31.3499 35.0125 31.4485 34.9665 31.5409 34.9304C31.6335 34.8942 31.7239 34.8762 31.8125 34.8762C31.9049 34.8762 31.9803 34.8852 32.0385 34.9033C32.0968 34.9214 32.1421 34.9524 32.1743 34.9968C32.2065 35.0407 32.2285 35.0988 32.2407 35.171C32.2527 35.2432 32.2587 35.3315 32.2587 35.4359V37.4398C32.2587 37.472 32.2707 37.5011 32.2949 37.5271C32.3191 37.5532 32.3471 37.5662 32.3793 37.5662H33.1091C33.1413 37.5662 33.1705 37.5532 33.1967 37.527C33.2227 37.5009 33.2359 37.4718 33.2359 37.4396ZM35.8657 36.9863V37.4531C35.8657 37.5209 35.8275 37.5608 35.7511 37.5726C35.6585 37.5886 35.5781 37.6005 35.5099 37.6085C35.4415 37.6165 35.3629 37.6206 35.2747 37.6206C35.1106 37.6206 34.9657 37.6074 34.8398 37.5813C34.7139 37.5552 34.6088 37.5039 34.5249 37.4275C34.4411 37.3511 34.3771 37.2456 34.3332 37.1108C34.2893 36.9762 34.2673 36.8024 34.2673 36.5891V34.8401L33.7848 34.7615C33.7525 34.7535 33.7235 34.7385 33.6973 34.7163C33.6711 34.6943 33.6581 34.6671 33.6581 34.6349V34.2368C33.6581 34.2047 33.6711 34.1755 33.6973 34.1493C33.7235 34.1233 33.7525 34.1101 33.7848 34.1101H34.2673V33.6155C34.2673 33.5834 34.2793 33.5573 34.3032 33.5371C34.327 33.5171 34.3552 33.5031 34.3873 33.4949L35.1186 33.3684H35.1365C35.1684 33.3684 35.1945 33.3773 35.2145 33.3954C35.2344 33.4135 35.2445 33.4387 35.2445 33.4708V34.1101H35.7391C35.7711 34.1101 35.7993 34.1223 35.8235 34.1466C35.8477 34.1709 35.8597 34.1994 35.8597 34.2318V34.7244C35.8597 34.7569 35.8477 34.7852 35.8235 34.8095C35.7993 34.8338 35.7711 34.846 35.7391 34.846H35.2445V36.6012C35.2445 36.7218 35.2545 36.7993 35.2747 36.8334C35.2947 36.8676 35.3509 36.8846 35.4434 36.8846H35.7391C35.8235 36.8846 35.8657 36.9185 35.8657 36.9863ZM39.0864 35.2923C39.0864 35.0713 39.0533 34.8832 38.9868 34.7284C38.9206 34.5737 38.8271 34.4469 38.7065 34.3484C38.5859 34.2499 38.4381 34.1777 38.2632 34.1313C38.0883 34.0851 37.8923 34.0619 37.6751 34.0619C37.4739 34.0619 37.278 34.0761 37.0871 34.1043C36.896 34.1323 36.7442 34.1605 36.6317 34.1885C36.555 34.2088 36.5171 34.2529 36.5171 34.3212V34.8098C36.5171 34.8501 36.527 34.8783 36.5472 34.8942C36.5673 34.9103 36.5934 34.9185 36.6256 34.9185H36.6557L36.8367 34.9033C36.9091 34.8973 36.9905 34.8924 37.081 34.8882C37.1715 34.8843 37.2659 34.8813 37.3645 34.8792C37.463 34.8772 37.5605 34.8762 37.657 34.8762C37.7977 34.8762 37.9083 34.9023 37.9887 34.9546C38.0692 35.0069 38.1094 35.1195 38.1094 35.2923V35.5095H37.7837C37.2648 35.5095 36.888 35.5909 36.6527 35.7538C36.4175 35.9166 36.2999 36.175 36.2999 36.5288V36.5833C36.2999 36.7801 36.329 36.945 36.3873 37.0776C36.4455 37.2104 36.5231 37.317 36.6195 37.3975C36.7161 37.4778 36.8256 37.5351 36.9483 37.5692C37.0709 37.6034 37.1986 37.6206 37.3313 37.6206C37.5123 37.6206 37.668 37.5964 37.7987 37.5482C37.9294 37.4999 38.0529 37.4336 38.1697 37.3491V37.4456C38.1697 37.4778 38.1817 37.506 38.2059 37.53C38.23 37.5542 38.2581 37.5662 38.2903 37.5662H38.9659C38.998 37.5662 39.0262 37.5542 39.0503 37.53C39.0744 37.506 39.0864 37.4778 39.0864 37.4456V35.2923ZM37.8953 36.8454C37.9776 36.8193 38.0551 36.7882 38.1275 36.752V36.0885H37.7837C37.6791 36.0885 37.5927 36.0976 37.5243 36.1156C37.4559 36.1338 37.4016 36.1609 37.3615 36.1971C37.3212 36.2332 37.293 36.2795 37.2771 36.3358C37.2609 36.3921 37.2529 36.4564 37.2529 36.5288V36.5833C37.2529 36.7118 37.284 36.7942 37.3464 36.8304C37.4087 36.8666 37.5042 36.8846 37.6329 36.8846C37.7253 36.8846 37.8126 36.8717 37.8953 36.8454ZM42.054 37.3914V36.8547C42.054 36.8224 42.0428 36.7973 42.0208 36.7791C41.9986 36.761 41.9716 36.752 41.9394 36.752H41.9274C41.8148 36.764 41.7072 36.7741 41.6046 36.7822C41.5022 36.7902 41.3644 36.7942 41.1915 36.7942C41.123 36.7942 41.0587 36.7832 40.9985 36.761C40.9382 36.7389 40.8858 36.7007 40.8416 36.6464C40.7974 36.5922 40.7622 36.5198 40.7361 36.4293C40.7098 36.3388 40.6969 36.2272 40.6969 36.0945V35.5879C40.6969 35.4552 40.7098 35.3436 40.7361 35.2531C40.7622 35.1626 40.7974 35.0903 40.8416 35.036C40.8858 34.9817 40.9382 34.9435 40.9985 34.9214C41.0587 34.8993 41.123 34.8882 41.1915 34.8882C41.3644 34.8882 41.5022 34.8924 41.6046 34.9003C41.7072 34.9083 41.8148 34.9185 41.9274 34.9304H41.9394C41.9716 34.9304 41.9986 34.9214 42.0208 34.9033C42.0428 34.8852 42.054 34.8601 42.054 34.8279V34.2911C42.054 34.2469 42.044 34.2157 42.0238 34.1976C42.0035 34.1795 41.9716 34.1644 41.9274 34.1524C41.843 34.1323 41.7332 34.1123 41.5986 34.092C41.4638 34.0719 41.3061 34.0619 41.1252 34.0619C40.6987 34.0619 40.3582 34.1926 40.1028 34.4541C39.8474 34.7153 39.7198 35.0933 39.7198 35.5879V36.0945C39.7198 36.5891 39.8474 36.9671 40.1028 37.2284C40.3582 37.4899 40.6987 37.6206 41.1252 37.6206C41.3061 37.6206 41.4638 37.6104 41.5986 37.5905C41.7332 37.5702 41.843 37.5502 41.9274 37.53C41.9716 37.518 42.0035 37.5029 42.0238 37.4848C42.044 37.4667 42.054 37.4356 42.054 37.3914ZM44.6536 36.9863V37.4531C44.6536 37.5209 44.6153 37.5608 44.539 37.5726C44.4465 37.5886 44.366 37.6005 44.2978 37.6085C44.2293 37.6165 44.1509 37.6206 44.0626 37.6206C43.8985 37.6206 43.7536 37.6074 43.6277 37.5813C43.5017 37.5552 43.3968 37.5039 43.313 37.4275C43.2291 37.3511 43.1651 37.2456 43.1211 37.1108C43.0773 36.9762 43.0552 36.8024 43.0552 36.5891V34.8401L42.5728 34.7615C42.5405 34.7535 42.5114 34.7385 42.4852 34.7163C42.459 34.6943 42.446 34.6671 42.446 34.6349V34.2368C42.446 34.2047 42.459 34.1755 42.4852 34.1493C42.5114 34.1233 42.5405 34.1101 42.5728 34.1101H43.0552V33.6155C43.0552 33.5834 43.0672 33.5573 43.0912 33.5371C43.115 33.5171 43.143 33.5031 43.1751 33.4949L43.9064 33.3684H43.9244C43.9564 33.3684 43.9824 33.3773 44.0022 33.3954C44.0224 33.4135 44.0324 33.4387 44.0324 33.4708V34.1101H44.527C44.559 34.1101 44.5872 34.1223 44.6114 34.1466C44.6354 34.1709 44.6476 34.1994 44.6476 34.2318V34.7244C44.6476 34.7569 44.6354 34.7852 44.6114 34.8095C44.5872 34.8338 44.559 34.846 44.527 34.846H44.0324V36.6012C44.0324 36.7218 44.0424 36.7993 44.0626 36.8334C44.0826 36.8676 44.1388 36.8846 44.2314 36.8846H44.527C44.6114 36.8846 44.6536 36.9185 44.6536 36.9863Z" fill="#005697"/>
<path d="M1 4C1 2.34315 2.34315 1 4 1H54C55.6569 1 57 2.34315 57 4V16H1V4Z" fill="#FF4785"/>
<path fill-rule="evenodd" clip-rule="evenodd" d="M41.8752 7.80305C41.8749 8.24694 42.2447 8.60713 42.7013 8.60753C43.1579 8.60793 43.5284 8.24837 43.5289 7.80444C43.5292 7.36059 43.1594 7.00037 42.7028 7C42.2462 6.9996 41.8757 7.35916 41.8752 7.80305ZM43.4131 9.11971H41.9945V13.8914H43.4131V9.11971ZM33.3894 13.9074C32.0247 13.9074 30.9145 12.8281 30.9145 11.5014C30.9145 10.6034 31.4232 9.78615 32.2425 9.36907C32.2622 9.35902 32.2823 9.34996 32.3025 9.34188C32.6349 9.18316 33.0055 9.09542 33.3895 9.09542C34.7542 9.09542 35.8643 10.1747 35.8643 11.5014C35.8643 12.4928 35.2522 13.3705 34.305 13.7374C34.2918 13.7425 34.2786 13.7472 34.2654 13.7514C33.9901 13.8529 33.6941 13.9074 33.3894 13.9074ZM32.3329 11.5014C32.3329 11.3803 32.3546 11.2627 32.3953 11.1527L32.3996 11.1419C32.5528 10.7426 32.9506 10.4744 33.3895 10.4744C33.9719 10.4744 34.446 10.9352 34.446 11.5014C34.446 11.643 34.4168 11.7791 34.3628 11.9035L34.3555 11.9188C34.1857 12.2891 33.8066 12.5285 33.3894 12.5285C32.8069 12.5285 32.3329 12.0677 32.3329 11.5014ZM28.4378 13.9074C27.0731 13.9074 25.9628 12.8281 25.9628 11.5014C25.9628 10.1747 27.0731 9.09542 28.4378 9.09542C29.2721 9.09542 30.0448 9.50072 30.5048 10.1794L29.3202 10.938C29.1234 10.6477 28.7935 10.4743 28.4378 10.4743C27.8553 10.4743 27.3812 10.9352 27.3812 11.5014C27.3812 12.0677 27.8553 12.5285 28.4378 12.5285C28.7906 12.5285 29.1189 12.3581 29.316 12.0721L30.4942 12.8402C30.0331 13.5086 29.2644 13.9074 28.4378 13.9074ZM11.4185 14.9851H10V9.12877H11.4185V9.33601C11.7446 9.18191 12.1105 9.09543 12.4969 9.09543C13.8615 9.09543 14.9717 10.1747 14.9717 11.5014C14.9717 12.8281 13.8615 13.9074 12.4969 13.9074C12.1105 13.9074 11.7446 13.8209 11.4185 13.6668V14.9851ZM49 14.9851H47.5815V13.672C47.2582 13.8229 46.8961 13.9074 46.5142 13.9074C45.1495 13.9074 44.0393 12.8281 44.0393 11.5014C44.0393 10.1747 45.1495 9.09543 46.5142 9.09543C46.8961 9.09543 47.2582 9.17997 47.5815 9.33082V9.12877H49V14.9851ZM36.4789 13.8914H37.8974V11.2516C37.9785 10.536 38.7053 10.5142 38.7924 10.5142C39.0297 10.5142 39.2445 10.5893 39.3971 10.7256C39.5712 10.8809 39.6593 11.1134 39.6593 11.4163V13.8601H41.0777V11.4163C41.0777 9.9189 39.928 9.13529 38.7924 9.13529C38.491 9.13529 38.1846 9.19191 37.8974 9.30292V9.12877H36.4789V11.1926C36.4741 11.2559 36.4717 11.3205 36.4717 11.3865H36.4789V13.8914ZM20.3472 13.8914H18.9287V13.6806C18.6101 13.8261 18.2546 13.9074 17.88 13.9074C16.5153 13.9074 15.405 12.8281 15.405 11.5014C15.405 10.1747 16.5153 9.09543 17.88 9.09543C18.2546 9.09543 18.6101 9.17677 18.9287 9.32224V9.12877H20.3472V11.311C20.3523 11.3739 20.3549 11.4374 20.3549 11.5014C20.3549 11.5655 20.3523 11.629 20.3472 11.6918V13.8914ZM18.9287 11.6268V11.376C18.8648 10.8687 18.4188 10.4744 17.88 10.4744C17.2975 10.4744 16.8234 10.9352 16.8234 11.5014C16.8234 12.0677 17.2975 12.5285 17.88 12.5285C18.4188 12.5285 18.8648 12.1342 18.9287 11.6268ZM12.4969 10.4744C11.9144 10.4744 11.4403 10.9352 11.4403 11.5014C11.4403 12.0677 11.9144 12.5285 12.4969 12.5285C13.0793 12.5285 13.5534 12.0677 13.5534 11.5014C13.5534 10.9352 13.0793 10.4744 12.4969 10.4744ZM45.4577 11.5014C45.4577 10.9352 45.9317 10.4744 46.5142 10.4744C47.0967 10.4744 47.5707 10.9352 47.5707 11.5014C47.5707 12.0677 47.0967 12.5285 46.5142 12.5285C45.9317 12.5285 45.4577 12.0677 45.4577 11.5014ZM23.5829 14.9914L23.5831 14.9918L23.717 14.6614L25.9602 9.13964H24.5207L23.498 11.657L22.3971 9.13964H20.8621L22.8147 13.3391L22.1399 15H23.5794L23.5829 14.9914Z" fill="white"/>
</svg>
