<svg width="58" height="40" fill="none" xmlns="http://www.w3.org/2000/svg"><rect x=".5" y=".5" width="57" height="39" rx="3.5" fill="#fff" stroke="#F3F3F3"/><path d="M46.173 10.754h-13.61l-1.384 1.559-4.491 5.056-1.385 1.559h-13.43l1.363-1.578.645-.747 1.363-1.578H9.056c-1.13 0-2.056.948-2.056 2.108v4.447c0 1.16.925 2.108 2.056 2.108h23.69c1.131 0 2.676-.704 3.433-1.566l3.583-4.076 6.411-7.292Z" fill="#005697"/><path d="M48.908 6c1.13 0 2.055.949 2.055 2.108v4.447c0 1.16-.925 2.108-2.055 2.108H42.74l1.375-1.566.683-.777 1.375-1.566h-13.61l-7.26 8.18H11.79l9.691-10.958.367-.415C22.608 6.703 24.154 6 25.285 6h23.623Z" fill="#FBD500"/><path fill-rule="evenodd" clip-rule="evenodd" d="M11.633 31.248c0-.29-.069-.541-.206-.754a1.353 1.353 0 0 0-.54-.485c.223-.112.396-.277.52-.495a1.48 1.48 0 0 0 .184-.737v-.15c0-.336-.064-.615-.193-.838a1.444 1.444 0 0 0-.54-.536 2.57 2.57 0 0 0-.834-.29 6.087 6.087 0 0 0-1.08-.087c-.134 0-.274.002-.42.008a24.54 24.54 0 0 0-.422.02l-.377.03a5.754 5.754 0 0 0-.281.034c-.162.028-.276.078-.343.15-.067.073-.1.205-.1.394v5.094c0 .19.034.32.104.393.07.073.188.123.356.151.084.017.184.03.301.042.118.011.245.02.381.03a17.554 17.554 0 0 0 .851.029 5.97 5.97 0 0 0 1.026-.084c.321-.056.6-.155.838-.298.237-.142.425-.335.565-.578.14-.242.21-.548.21-.917v-.125Zm-1.424-2.404c0 .09-.014.175-.042.256a.505.505 0 0 1-.139.21.719.719 0 0 1-.26.142 1.33 1.33 0 0 1-.414.054h-.938v-1.45c.028 0 .071 0 .13-.003a3.57 3.57 0 0 1 .184-.005h.322c.43 0 .73.055.9.164.171.109.257.278.257.506v.126Zm-.214 3.041c.165-.128.247-.31.247-.544v-.093a.773.773 0 0 0-.193-.523c-.128-.148-.36-.222-.695-.222h-.938v1.566h.146c.065 0 .132.002.201.005.07.003.137.004.202.004h.138c.43 0 .727-.064.892-.193Zm6.228-1.868c0-.307-.046-.568-.138-.783a1.36 1.36 0 0 0-.39-.528 1.613 1.613 0 0 0-.615-.302 3.197 3.197 0 0 0-.817-.096c-.28 0-.552.02-.817.059a6.827 6.827 0 0 0-.632.117c-.106.028-.16.09-.16.184v.679c0 .056.014.095.043.117a.168.168 0 0 0 .108.034h.042l.252-.021c.1-.009.213-.015.339-.021a18.093 18.093 0 0 1 .8-.017c.195 0 .349.036.46.109.112.073.168.229.168.469v.302h-.452c-.72 0-1.244.113-1.571.339-.327.226-.49.585-.49 1.076v.076c0 .273.04.502.121.687.081.184.189.332.323.444.134.111.286.191.457.238.17.048.347.072.532.072.25 0 .467-.034.649-.1.181-.068.353-.16.515-.277v.134a.16.16 0 0 0 .05.117.16.16 0 0 0 .117.05h.939a.16.16 0 0 0 .117-.05.16.16 0 0 0 .05-.117v-2.991Zm-1.654 2.157c.114-.036.222-.08.322-.13v-.921h-.477c-.145 0-.265.012-.36.037a.539.539 0 0 0-.227.114.4.4 0 0 0-.117.192.972.972 0 0 0-.033.268v.076c0 .178.043.293.13.343.086.05.219.075.397.075.129 0 .25-.017.365-.054ZM21.35 33v-2.79c0-.261-.02-.509-.063-.74a1.658 1.658 0 0 0-.226-.604 1.16 1.16 0 0 0-.452-.406c-.193-.1-.44-.15-.742-.15-.268 0-.505.031-.712.096a2.358 2.358 0 0 0-.653.342v-.203a.163.163 0 0 0-.05-.118.16.16 0 0 0-.118-.05h-.938a.16.16 0 0 0-.117.05.16.16 0 0 0-.05.117V33a.17.17 0 0 0 .054.122.168.168 0 0 0 .121.054h1.014a.155.155 0 0 0 .117-.054.174.174 0 0 0 .05-.121v-3.294a3.77 3.77 0 0 1 .411-.192c.129-.05.254-.075.377-.075.128 0 .233.012.314.038a.354.354 0 0 1 .189.13.562.562 0 0 1 .092.242c.017.1.025.223.025.367V33c0 .044.017.085.05.12a.155.155 0 0 0 .117.055h1.014a.168.168 0 0 0 .122-.054.168.168 0 0 0 .054-.122Zm4.122-.812v.745c0 .062-.014.105-.042.13a.332.332 0 0 1-.134.063 4.549 4.549 0 0 1-1.114.126c-.592 0-1.066-.182-1.42-.545-.355-.363-.532-.888-.532-1.575v-.703c0-.687.177-1.212.532-1.575.354-.363.828-.545 1.42-.545.25 0 .47.014.657.042.187.028.34.056.457.084a.335.335 0 0 1 .134.063c.028.025.042.068.042.13v.745a.13.13 0 0 1-.046.105.173.173 0 0 1-.113.037h-.017a7.795 7.795 0 0 0-1.022-.059.776.776 0 0 0-.268.047.502.502 0 0 0-.218.159.84.84 0 0 0-.147.302c-.036.125-.054.28-.054.465v.703c0 .184.018.34.054.465a.84.84 0 0 0 .147.302.5.5 0 0 0 .218.159.79.79 0 0 0 .268.046 7.758 7.758 0 0 0 1.022-.059h.017c.044 0 .082.013.113.038a.13.13 0 0 1 .046.105Zm4.65-1.7c0-.336-.047-.637-.14-.905a1.87 1.87 0 0 0-.402-.683 1.795 1.795 0 0 0-.655-.436 2.439 2.439 0 0 0-.902-.155c-.342 0-.642.052-.903.155-.26.103-.48.249-.659.436a1.843 1.843 0 0 0-.407.682 2.76 2.76 0 0 0-.138.905v.587c0 .335.046.636.138.904.093.268.228.496.407.683.18.187.399.332.66.436.26.103.56.155.902.155.34 0 .642-.052.902-.155.26-.104.478-.249.655-.436a1.87 1.87 0 0 0 .403-.683c.092-.268.138-.57.138-.904v-.587Zm-2.1 1.616c.495 0 .742-.344.742-1.03v-.587c0-.681-.247-1.022-.741-1.022-.245 0-.43.085-.558.256-.128.17-.192.426-.192.766v.587c0 .34.064.597.192.77.127.174.313.26.558.26Zm7.083.896v-2.79c0-.261-.02-.509-.062-.74a1.654 1.654 0 0 0-.227-.604 1.16 1.16 0 0 0-.452-.406c-.193-.1-.44-.15-.741-.15-.268 0-.506.031-.712.096a2.358 2.358 0 0 0-.654.342v-.203a.162.162 0 0 0-.05-.118.16.16 0 0 0-.117-.05h-.939a.16.16 0 0 0-.117.05.161.161 0 0 0-.05.117V33a.17.17 0 0 0 .054.122.168.168 0 0 0 .122.054h1.013a.156.156 0 0 0 .118-.054.175.175 0 0 0 .05-.121v-3.294a3.76 3.76 0 0 1 .41-.192 1.03 1.03 0 0 1 .377-.075c.129 0 .233.012.314.038a.354.354 0 0 1 .189.13.565.565 0 0 1 .092.242c.017.1.025.223.025.367V33c0 .044.017.085.05.12a.155.155 0 0 0 .118.055h1.013a.168.168 0 0 0 .122-.054.169.169 0 0 0 .054-.122Zm3.653-.63v.65c0 .093-.053.149-.16.165-.128.022-.24.039-.334.05a2.845 2.845 0 0 1-.327.017c-.228 0-.43-.019-.604-.055a.91.91 0 0 1-.437-.213 1.002 1.002 0 0 1-.267-.44 2.387 2.387 0 0 1-.091-.725v-2.43l-.67-.108a.295.295 0 0 1-.122-.063.142.142 0 0 1-.054-.113v-.553c0-.045.018-.085.054-.121a.169.169 0 0 1 .122-.055h.67v-.687c0-.045.017-.08.05-.109a.289.289 0 0 1 .117-.058l1.015-.176h.025c.044 0 .08.012.108.037.028.026.042.06.042.105v.888h.687a.16.16 0 0 1 .117.05c.034.034.05.074.05.119v.684a.162.162 0 0 1-.05.118.16.16 0 0 1-.117.051h-.687v2.438c0 .167.014.275.042.322.028.048.106.072.234.072h.411c.117 0 .176.047.176.14Zm4.473-2.352c0-.307-.046-.568-.138-.783a1.36 1.36 0 0 0-.39-.528 1.613 1.613 0 0 0-.615-.302 3.197 3.197 0 0 0-.817-.096c-.28 0-.552.02-.817.059a6.833 6.833 0 0 0-.632.117c-.107.028-.16.09-.16.184v.679c0 .056.014.095.042.117a.168.168 0 0 0 .11.034h.041l.252-.021c.1-.009.213-.015.339-.021a18.123 18.123 0 0 1 .8-.017c.195 0 .349.036.46.109.112.073.168.229.168.469v.302h-.452c-.72 0-1.244.113-1.571.339-.327.226-.49.585-.49 1.076v.076c0 .273.04.502.121.687.081.184.189.332.323.444.134.111.286.191.457.238.17.048.347.072.532.072.25 0 .467-.034.649-.1a2.15 2.15 0 0 0 .515-.277v.134a.16.16 0 0 0 .05.117.16.16 0 0 0 .117.05h.939a.16.16 0 0 0 .117-.05.16.16 0 0 0 .05-.117v-2.991Zm-1.654 2.157c.114-.036.222-.08.322-.13v-.921h-.477c-.145 0-.265.012-.36.037a.539.539 0 0 0-.227.114.397.397 0 0 0-.117.192.976.976 0 0 0-.033.268v.076c0 .178.043.293.13.343.086.05.219.075.397.075.129 0 .25-.017.365-.054Zm5.776.758v-.745a.129.129 0 0 0-.046-.105.173.173 0 0 0-.113-.038h-.017a7.751 7.751 0 0 1-1.022.059.769.769 0 0 1-.268-.046.5.5 0 0 1-.218-.16.842.842 0 0 1-.147-.3 1.693 1.693 0 0 1-.054-.466v-.703c0-.185.018-.34.054-.465a.842.842 0 0 1 .147-.302.502.502 0 0 1 .218-.16.773.773 0 0 1 .268-.045 7.788 7.788 0 0 1 1.022.058h.017a.173.173 0 0 0 .113-.037.128.128 0 0 0 .046-.105v-.745c0-.062-.014-.105-.042-.13a.336.336 0 0 0-.134-.063 5.768 5.768 0 0 0-.457-.084 4.518 4.518 0 0 0-.657-.042c-.593 0-1.066.182-1.42.545-.355.363-.532.888-.532 1.575v.703c0 .687.177 1.212.532 1.575.354.363.827.545 1.42.545a4.546 4.546 0 0 0 1.114-.126.333.333 0 0 0 .134-.063c.028-.025.042-.068.042-.13Zm3.61-.562v.648c0 .094-.053.15-.159.166a6.33 6.33 0 0 1-.335.05 2.849 2.849 0 0 1-.327.017 3 3 0 0 1-.604-.055.907.907 0 0 1-.437-.213.998.998 0 0 1-.266-.44 2.387 2.387 0 0 1-.092-.725v-2.43l-.67-.108a.296.296 0 0 1-.121-.063.142.142 0 0 1-.055-.113v-.553c0-.045.018-.085.055-.121a.169.169 0 0 1 .121-.055h.67v-.687c0-.045.017-.08.05-.109a.287.287 0 0 1 .117-.058l1.016-.176h.025c.044 0 .08.012.108.037.028.026.041.06.041.105v.888h.688a.16.16 0 0 1 .117.05c.033.034.05.074.05.119v.684a.163.163 0 0 1-.05.118.16.16 0 0 1-.117.051H50.1v2.438c0 .167.014.275.042.322.028.048.106.072.235.072h.41c.118 0 .176.047.176.14Z" fill="#005697"/></svg>