<svg width="58" height="40" fill="none" xmlns="http://www.w3.org/2000/svg"><rect x=".5" y=".5" width="57" height="39" rx="3.5" fill="#fff" stroke="#F3F3F3"/><path d="M41.205 21.423h-9.8l-.996 1.122-3.234 3.641-.997 1.122h-9.67l.982-1.136.464-.538.982-1.136H14.48c-.814 0-1.48.683-1.48 1.517v3.203c0 .834.666 1.517 1.48 1.517h17.058c.814 0 1.926-.507 2.47-1.127l2.58-2.935 4.617-5.25Z" fill="#005697"/><path d="M43.174 18c.814 0 1.48.683 1.48 1.518v3.202c0 .834-.666 1.518-1.48 1.518h-4.441l.99-1.128.491-.56.99-1.127h-9.798l-5.227 5.89h-9.73l6.977-7.89.265-.299c.547-.618 1.66-1.124 2.474-1.124h17.009Z" fill="#FBD500"/><path fill-rule="evenodd" clip-rule="evenodd" d="M16.335 36.179a.98.98 0 0 0-.147-.543.974.974 0 0 0-.39-.35.86.86 0 0 0 .375-.356 1.06 1.06 0 0 0 .132-.53v-.109a1.2 1.2 0 0 0-.138-.603 1.04 1.04 0 0 0-.39-.386 1.852 1.852 0 0 0-.6-.208 4.389 4.389 0 0 0-.778-.063c-.096 0-.197.002-.301.005a12.892 12.892 0 0 0-.576.037c-.083.008-.15.016-.202.024-.117.02-.2.056-.248.108-.048.053-.072.147-.072.284v3.667c0 .137.025.231.075.284.05.052.136.088.257.108.06.012.132.022.217.03a14.123 14.123 0 0 0 .887.042c.26 0 .507-.02.739-.06a1.74 1.74 0 0 0 .602-.214c.171-.102.307-.241.408-.416.1-.175.15-.395.15-.66v-.091Zm-1.025-1.731c0 .064-.01.126-.03.184a.362.362 0 0 1-.1.15.518.518 0 0 1-.187.103.96.96 0 0 1-.298.04h-.676V33.88c.02 0 .052 0 .094-.003.042-.002.086-.003.133-.003h.232c.31 0 .526.04.648.117.123.079.184.2.184.365v.09Zm-.154 2.19a.469.469 0 0 0 .178-.393v-.066a.557.557 0 0 0-.139-.377c-.092-.106-.259-.16-.5-.16h-.676v1.128h.106l.145.003.145.003h.099c.31 0 .524-.046.642-.139Zm4.485-1.346c0-.22-.033-.409-.1-.564a.979.979 0 0 0-.28-.38 1.161 1.161 0 0 0-.444-.217 2.304 2.304 0 0 0-.588-.07 4.927 4.927 0 0 0-1.043.127c-.076.02-.115.065-.115.133v.489c0 .04.01.068.03.084.02.016.047.025.079.025h.03l.181-.016a6.82 6.82 0 0 1 .528-.024l.292-.003c.141 0 .252.026.332.079.08.052.12.165.12.337v.218h-.325c-.519 0-.896.08-1.131.244-.235.163-.353.421-.353.775v.054c0 .197.03.362.088.495a.857.857 0 0 0 .232.32.87.87 0 0 0 .329.171c.122.034.25.052.383.052.18 0 .336-.025.467-.073.13-.048.254-.114.371-.199v.097c0 .032.012.06.036.084a.116.116 0 0 0 .085.036h.675c.032 0 .06-.012.085-.036a.115.115 0 0 0 .036-.084v-2.154Zm-1.191 1.553c.082-.026.16-.057.232-.093v-.663h-.344c-.105 0-.191.009-.26.027a.388.388 0 0 0-.162.081.288.288 0 0 0-.085.139.703.703 0 0 0-.024.193v.054c0 .129.031.211.094.247a.588.588 0 0 0 .286.055.83.83 0 0 0 .262-.04Zm4.882.595v-2.01a3.02 3.02 0 0 0-.045-.534 1.193 1.193 0 0 0-.163-.434.835.835 0 0 0-.326-.293 1.15 1.15 0 0 0-.534-.108 1.7 1.7 0 0 0-.512.07 1.699 1.699 0 0 0-.47.246v-.146a.118.118 0 0 0-.037-.085.116.116 0 0 0-.084-.037h-.676a.115.115 0 0 0-.084.036.116.116 0 0 0-.036.085v3.209a.12.12 0 0 0 .039.087.12.12 0 0 0 .087.04h.73c.032 0 .06-.014.084-.04a.125.125 0 0 0 .037-.087v-2.371c.104-.056.203-.102.295-.139a.782.782 0 0 1 .498-.027c.058.018.103.05.135.094a.403.403 0 0 1 .067.174c.012.072.018.16.018.265v2.004c0 .032.012.061.036.087.024.026.052.04.085.04h.73a.121.121 0 0 0 .087-.04.12.12 0 0 0 .039-.087Zm2.968-.585v.536c0 .045-.01.076-.03.094a.239.239 0 0 1-.097.045 3.281 3.281 0 0 1-.802.09c-.427 0-.767-.13-1.023-.392-.255-.26-.383-.639-.383-1.134v-.506c0-.495.128-.873.383-1.134.256-.261.596-.392 1.023-.392a3.253 3.253 0 0 1 .802.09.239.239 0 0 1 .096.046c.02.018.03.049.03.093v.537a.092.092 0 0 1-.033.075.124.124 0 0 1-.081.027h-.012c-.113-.011-.22-.022-.323-.03a5.63 5.63 0 0 0-.413-.012.557.557 0 0 0-.193.033.36.36 0 0 0-.157.115.608.608 0 0 0-.105.217c-.026.09-.04.202-.04.335v.506c0 .133.014.245.04.335.026.09.06.163.105.217a.36.36 0 0 0 .157.115c.06.022.125.033.193.033a5.583 5.583 0 0 0 .736-.042h.012c.032 0 .06.009.081.027a.092.092 0 0 1 .034.076Zm3.347-1.225c0-.241-.033-.458-.1-.651a1.346 1.346 0 0 0-.29-.492 1.294 1.294 0 0 0-.471-.314 1.754 1.754 0 0 0-.65-.111c-.245 0-.462.037-.65.111a1.322 1.322 0 0 0-.474.314 1.32 1.32 0 0 0-.293.492c-.067.193-.1.41-.1.651v.422c0 .242.033.459.1.652.066.193.164.357.293.491.129.135.287.24.475.314.187.074.404.112.65.112.245 0 .462-.038.649-.112.187-.074.344-.179.471-.314.127-.134.224-.298.29-.491.067-.193.1-.41.1-.652v-.422Zm-1.51 1.164c.355 0 .533-.247.533-.742v-.422c0-.49-.178-.736-.534-.736a.471.471 0 0 0-.402.184c-.092.123-.138.307-.138.552v.422c0 .246.046.43.138.555a.468.468 0 0 0 .402.187Zm5.099.646v-2.01a3.02 3.02 0 0 0-.045-.534 1.192 1.192 0 0 0-.163-.434.836.836 0 0 0-.326-.293 1.151 1.151 0 0 0-.534-.108c-.193 0-.364.023-.512.07a1.699 1.699 0 0 0-.47.246v-.146a.117.117 0 0 0-.037-.085.115.115 0 0 0-.085-.037h-.675a.116.116 0 0 0-.084.036.116.116 0 0 0-.037.085v3.209a.12.12 0 0 0 .04.087.12.12 0 0 0 .087.04h.73c.032 0 .06-.014.084-.04a.126.126 0 0 0 .037-.087v-2.371a2.7 2.7 0 0 1 .295-.139.78.78 0 0 1 .498-.027c.058.018.103.05.135.094a.406.406 0 0 1 .067.174c.012.072.018.16.018.265v2.004c0 .032.012.061.036.087.024.026.052.04.084.04h.73a.121.121 0 0 0 .088-.04.121.121 0 0 0 .039-.087Zm2.63-.454v.467c0 .068-.038.108-.115.12a4.56 4.56 0 0 1-.241.035 2.047 2.047 0 0 1-.235.013c-.164 0-.31-.014-.435-.04a.655.655 0 0 1-.315-.154.72.72 0 0 1-.192-.316 1.717 1.717 0 0 1-.066-.522V34.84l-.482-.079a.213.213 0 0 1-.088-.045.102.102 0 0 1-.039-.081v-.398a.12.12 0 0 1 .04-.088.122.122 0 0 1 .087-.039h.482v-.495c0-.032.012-.058.036-.078a.21.21 0 0 1 .084-.042l.732-.127h.017c.032 0 .058.01.078.027.02.018.03.044.03.076v.64h.495c.032 0 .06.011.085.036a.117.117 0 0 1 .036.085v.492a.12.12 0 0 1-.036.086.116.116 0 0 1-.085.036h-.494v1.755c0 .12.01.198.03.232.02.035.076.052.168.052h.296c.085 0 .127.034.127.101Zm3.22-1.694c0-.22-.033-.409-.1-.564a.978.978 0 0 0-.28-.38 1.16 1.16 0 0 0-.443-.217 2.304 2.304 0 0 0-.588-.07 4.927 4.927 0 0 0-1.043.127c-.077.02-.115.065-.115.133v.489c0 .04.01.068.03.084.02.016.046.025.079.025h.03l.18-.016a6.835 6.835 0 0 1 .529-.024l.292-.003c.14 0 .251.026.332.079.08.052.12.165.12.337v.218h-.325c-.52 0-.896.08-1.131.244-.236.163-.353.421-.353.775v.054c0 .197.029.362.087.495a.87.87 0 0 0 .233.32c.096.08.206.137.328.171.123.034.25.052.383.052.181 0 .337-.025.468-.073.13-.048.254-.114.37-.199v.097c0 .032.013.06.037.084a.115.115 0 0 0 .084.036h.676c.032 0 .06-.012.084-.036a.115.115 0 0 0 .036-.084v-2.154Zm-1.19 1.553a1.6 1.6 0 0 0 .231-.093v-.663h-.343c-.105 0-.191.009-.26.027a.388.388 0 0 0-.163.081.286.286 0 0 0-.084.139.699.699 0 0 0-.024.193v.054c0 .129.031.211.093.247a.587.587 0 0 0 .287.055.86.86 0 0 0 .262-.04Zm4.158.546v-.536a.093.093 0 0 0-.033-.076.124.124 0 0 0-.082-.027h-.012a5.578 5.578 0 0 1-.736.042.553.553 0 0 1-.192-.033.361.361 0 0 1-.157-.115.607.607 0 0 1-.106-.217 1.217 1.217 0 0 1-.04-.335v-.506c0-.133.014-.244.04-.335a.608.608 0 0 1 .106-.217.361.361 0 0 1 .157-.115.556.556 0 0 1 .192-.033 5.625 5.625 0 0 1 .736.042h.012c.033 0 .06-.009.082-.027a.092.092 0 0 0 .033-.075v-.537c0-.044-.01-.075-.03-.093a.24.24 0 0 0-.097-.046 3.251 3.251 0 0 0-.802-.09c-.426 0-.767.13-1.022.392-.256.261-.383.64-.383 1.134v.506c0 .495.127.873.383 1.134.255.262.596.393 1.022.393a3.28 3.28 0 0 0 .802-.091.24.24 0 0 0 .097-.045c.02-.018.03-.05.03-.094Zm2.6-.405v.467c0 .068-.039.108-.115.12a4.545 4.545 0 0 1-.241.035 2.047 2.047 0 0 1-.235.013c-.165 0-.31-.014-.435-.04a.653.653 0 0 1-.315-.154.72.72 0 0 1-.192-.316 1.72 1.72 0 0 1-.066-.522V34.84l-.482-.079a.213.213 0 0 1-.088-.045.102.102 0 0 1-.039-.081v-.398a.12.12 0 0 1 .04-.088.122.122 0 0 1 .087-.039h.482v-.495c0-.032.012-.058.036-.078a.209.209 0 0 1 .084-.042l.731-.127h.018a.11.11 0 0 1 .078.027c.02.018.03.044.03.076v.64h.495c.032 0 .06.011.084.036a.118.118 0 0 1 .037.085v.492a.12.12 0 0 1-.037.086.116.116 0 0 1-.084.036h-.495v1.755c0 .12.01.198.03.232.02.035.077.052.17.052h.295c.084 0 .127.034.127.101Z" fill="#005697"/><path d="M1 4a3 3 0 0 1 3-3h50a3 3 0 0 1 3 3v12H1V4Z" fill="#FF4785"/><path fill-rule="evenodd" clip-rule="evenodd" d="M41.875 7.803c0 .444.37.804.826.805.457 0 .827-.36.828-.804A.816.816 0 0 0 42.703 7a.816.816 0 0 0-.828.803Zm1.538 1.317h-1.418v4.771h1.418V9.12ZM33.39 13.907c-1.364 0-2.475-1.079-2.475-2.406a2.393 2.393 0 0 1 1.389-2.16 2.522 2.522 0 0 1 1.087-.246c1.364 0 2.474 1.08 2.474 2.406 0 .992-.612 1.87-1.559 2.236a2.53 2.53 0 0 1-.916.17Zm-1.056-2.406c0-.12.022-.238.062-.348l.005-.011c.153-.4.55-.668.99-.668.582 0 1.056.461 1.056 1.027 0 .142-.03.278-.083.402l-.008.016c-.17.37-.548.61-.966.61-.582 0-1.056-.461-1.056-1.028Zm-3.895 2.406c-1.365 0-2.475-1.079-2.475-2.406 0-1.326 1.11-2.406 2.475-2.406a2.49 2.49 0 0 1 2.067 1.084l-1.185.759a1.063 1.063 0 0 0-.882-.464c-.583 0-1.057.461-1.057 1.027 0 .567.474 1.027 1.057 1.027.353 0 .68-.17.878-.456l1.178.768a2.492 2.492 0 0 1-2.056 1.067Zm-17.02 1.078H10V9.13h1.418v.207c.327-.154.693-.24 1.079-.24 1.364 0 2.475 1.079 2.475 2.405 0 1.327-1.11 2.406-2.475 2.406-.386 0-.752-.086-1.079-.24v1.318Zm37.582 0h-1.419v-1.313c-.323.15-.685.235-1.067.235-1.364 0-2.475-1.079-2.475-2.406 0-1.326 1.11-2.406 2.475-2.406.382 0 .744.085 1.067.236v-.202H49v5.856ZM36.48 13.891h1.418v-2.64c.081-.715.808-.737.895-.737.238 0 .453.075.605.212.174.155.262.387.262.69v2.444h1.419v-2.444c0-1.497-1.15-2.28-2.286-2.28-.301 0-.607.056-.895.167v-.174H36.48v2.064a2.563 2.563 0 0 0-.007.194h.007v2.504Zm-16.132 0H18.93v-.21a2.52 2.52 0 0 1-1.049.226c-1.365 0-2.475-1.079-2.475-2.406 0-1.326 1.11-2.406 2.475-2.406.375 0 .73.082 1.049.227V9.13h1.418v2.182a2.356 2.356 0 0 1 0 .38v2.2Zm-1.418-2.264v-.251a1.048 1.048 0 0 0-1.049-.902c-.582 0-1.057.461-1.057 1.027 0 .567.474 1.027 1.057 1.027.539 0 .985-.394 1.049-.901Zm-6.432-1.153c-.583 0-1.057.461-1.057 1.027 0 .567.474 1.027 1.057 1.027.582 0 1.056-.46 1.056-1.027 0-.566-.474-1.027-1.056-1.027Zm32.96 1.027c0-.566.475-1.027 1.057-1.027.583 0 1.057.461 1.057 1.027 0 .567-.474 1.027-1.057 1.027-.582 0-1.056-.46-1.056-1.027Zm-21.874 3.49.134-.33L25.96 9.14h-1.44l-1.022 2.517-1.1-2.517h-1.536l1.953 4.2L22.14 15h1.44l.003-.009Z" fill="#fff"/></svg>