<svg width="58" height="40" fill="none" xmlns="http://www.w3.org/2000/svg"><rect x=".5" y=".5" width="57" height="39" rx="3.5" fill="#fff" stroke="#F3F3F3"/><path fill-rule="evenodd" clip-rule="evenodd" d="M10.049 15c-1.049 0-2.1.007-3.148.018-1.153.012-1.89.791-1.895 1.95a807.551 807.551 0 0 0 0 6.204c.005 1.19.75 1.924 1.946 1.93a680.8 680.8 0 0 0 2.858.002h.952c.375 0 .75 0 1.125-.002h.001c.939-.002 1.879-.004 2.817.008.305.004.4-.072.4-.389-.008-1.414-.008-2.829-.008-4.243 0-1.172 0-2.343-.004-3.513 0-1.16-.738-1.936-1.89-1.948a309.1 309.1 0 0 0-3.15-.017h-.004Zm.005 2.934c.635 0 1.267.002 1.901.005.57.004.817.226.821.7.005.474-.285.73-.849.735-.422.003-.845.002-1.268 0H9.517c-.451.001-.902.002-1.352-.003-.537-.007-.816-.26-.819-.718-.003-.476.246-.71.805-.714a301.59 301.59 0 0 1 1.903-.005Zm.17 2.795h-.175c-.643 0-1.285 0-1.927.003-.516.002-.799.281-.79.748.007.445.274.693.787.7.45.007.901.006 1.352.005l.552-.002h.003l.562.002c.463 0 .926.002 1.387-.005.513-.007.78-.254.788-.697.009-.467-.274-.748-.788-.75-.584-.004-1.167-.004-1.751-.004Z" fill="#AA0024"/><path fill-rule="evenodd" clip-rule="evenodd" d="M36.297 22.753v-.69l.001-.683c.002-.614.004-1.228-.007-1.841-.004-.236.068-.308.3-.297.286.015.573.011.86.007h.001l.201-.002c.566-.007.807-.221.803-.707-.003-.463-.271-.692-.826-.699a36.865 36.865 0 0 0-.576-.001l-.487-.001-.056.002c-.069.005-.139.01-.19-.055-.206-.255.05-1.159.358-1.286.361-.148.685-.036 1.02.11.53.23.965-.092.916-.66-.036-.406-.365-.724-.889-.866-1.303-.354-2.942.423-2.845 2.217l.008.1c.022.244.043.486-.404.451-.517-.04-.839.272-.838.697.002.442.296.712.836.689.34-.015.413.09.409.416-.016 1.375-.012 2.752-.008 4.13l.001.607c.001.545.245.821.704.824.476.002.706-.256.707-.806.002-.552.002-1.104.001-1.656ZM19.01 15.137a106.1 106.1 0 0 1 2.086-.002c1.221.005 2.155.53 2.652 1.648.478 1.073.307 2.105-.48 3-.156.178-.093.254.036.389.927.966 1.134 2.11.605 3.305-.516 1.162-1.476 1.763-2.782 1.746-.401-.005-.802-.004-1.203-.003-.382.001-.764.002-1.145-.002-.557-.007-.774-.225-.776-.788-.004-.944-.003-1.889-.002-2.834l.002-1.416v-.003l-.001-1.388v-2.774c.002-.65.225-.873.88-.878h.128Zm1.37 1.378a17.14 17.14 0 0 1-.68-.004c-.243-.008-.303.092-.295.312.009.247.006.494.004.74a34.67 34.67 0 0 0 0 .633c.003.251.006.502-.007.753-.013.247.062.34.32.329.286-.012.572-.01.858-.008.187.001.373.002.56 0 .855-.012 1.408-.54 1.426-1.353.017-.755-.55-1.35-1.361-1.392-.275-.015-.55-.012-.824-.01Zm-.052 4.17c.316-.002.632-.005.948.014.853.05 1.51.74 1.51 1.544 0 .793-.628 1.475-1.468 1.541-.334.026-.67.024-1.006.022a19.408 19.408 0 0 0-.625.003c-.21.006-.287-.07-.281-.28.008-.3.006-.599.005-.898l-.002-.383.001-.38c.002-.301.004-.602-.004-.902-.005-.21.07-.286.281-.281.213.005.427.003.64 0h.001Zm7.256-2.972c-1.317.027-2.671 1.193-2.585 2.81.036.663.021 1.33 0 1.994-.031.989.394 1.731 1.168 2.304 1.11.822 2.992.622 3.794-.4.308-.392.303-.72-.014-1.02-.31-.296-.663-.276-1.015.053-.543.508-1.157.621-1.738.323-.616-.316-.86-.82-.802-1.58.02-.242.141-.25.318-.248.315.003.63.002.945.001h1.272c1.413 0 1.537-.13 1.47-1.545-.074-1.585-1.27-2.724-2.813-2.692Zm.14 1.415c.674.011 1.198.5 1.244 1.136.015.215-.054.291-.268.284a17.331 17.331 0 0 0-.713-.005 38.405 38.405 0 0 1-.6 0 13.283 13.283 0 0 0-.677.005c-.227.009-.315-.053-.29-.301.064-.66.6-1.132 1.305-1.12v.001Zm19.697 1.604c0 .205.002.41.004.616.005.46.01.919-.01 1.377-.048 1.098-.58 1.926-1.579 2.37-1.047.467-2.052.31-2.924-.46-.546-.482-.853-1.099-.862-1.827a236.494 236.494 0 0 1-.007-4.254c.002-.438.278-.714.672-.724.407-.011.704.278.708.734.004.595.003 1.19.002 1.785-.002.734-.003 1.468.006 2.203.012.986.82 1.6 1.691 1.313.562-.185.865-.601.869-1.244.005-.784.004-1.568.004-2.353v-1.43c0-.141 0-.285.026-.423.073-.395.347-.59.723-.575.375.015.657.227.667.632.014.532.01 1.064.008 1.596l-.002.663h.004Zm3.437-3.03c.616.025 1.29.34 1.82.953.271.314.269.801.003 1.04-.34.302-.74.293-1.049-.081-.351-.425-.778-.56-1.298-.465-.284.052-.495.21-.559.5-.063.284.095.474.324.62.325.209.68.352 1.04.482.333.122.649.276.953.459.773.463 1.12 1.146 1.053 2.039-.066.888-.57 1.47-1.347 1.821-1.043.474-2.416.253-3.146-.473-.379-.378-.442-.781-.172-1.098.315-.369.722-.364 1.113.012.492.474 1.257.553 1.78.183.512-.362.516-.92-.002-1.27-.307-.207-.65-.341-.993-.475-.11-.043-.22-.086-.328-.13-.75-.314-1.44-.694-1.638-1.59-.305-1.381.72-2.539 2.446-2.527ZM32.86 21.334a1485.333 1485.333 0 0 1 0-2.477c.001-1.006.002-2.012-.005-3.018-.004-.454-.306-.734-.718-.722-.392.011-.664.268-.665.669-.005 2.923-.005 5.844.001 8.766.001.407.23.619.633.642.49.028.749-.24.752-.81.004-1.017.003-2.034.002-3.05Zm7.87.174.001.84c0 .68.001 1.36-.002 2.04-.002.57-.216.819-.69.82-.47 0-.702-.255-.703-.819-.006-1.905-.006-3.81 0-5.713 0-.532.268-.84.7-.84.438 0 .692.3.694.838.002.67.002 1.339.001 2.008v.827-.001Zm-.814-4.496c.562.068.816-.233.815-1.01.025-.367-.03-.737-.51-.859-.443-.112-.8.127-.876.575-.125.738.095 1.235.572 1.294Z" fill="#2D3C49"/></svg>