<svg width="58" height="40" fill="none" xmlns="http://www.w3.org/2000/svg"><rect x=".5" y=".5" width="57" height="39" rx="3.5" fill="#fff" stroke="#F3F3F3"/><path fill-rule="evenodd" clip-rule="evenodd" d="M53.69 15.202h-2.527l-1.47 6.246h.003l-.202.86a5.59 5.59 0 0 1-.42.104 4.09 4.09 0 0 1-.812.079c-.325 0-.581-.047-.767-.141a.807.807 0 0 1-.393-.396 1.253 1.253 0 0 1-.087-.608c.018-.235.061-.487.131-.758l.767-3.242.506-2.149h-2.581l-1.169 4.986a9.302 9.302 0 0 0-.244 1.709c-.023.54.058 1.02.244 1.436.186.417.5.746.942.986.442.241 1.064.362 1.866.362.558 0 1.04-.047 1.448-.141l.048-.012v.005c-.114.514-.343.931-.71 1.257-.369.326-.915.489-1.639.489-.309 0-.59-.019-.845-.054l-.497 2.113c.337.044.71.067 1.121.067.77 0 1.444-.089 2.02-.266a4.024 4.024 0 0 0 1.486-.806 4.47 4.47 0 0 0 1.035-1.354c.278-.544.501-1.186.671-1.93l1.748-7.425-.006-.002.333-1.415m-12.394 2.147c-1.179 0-1.404 0-1.886.252-.343.18-.627.45-.876.765a3.61 3.61 0 0 0-.586 1.09 3.928 3.928 0 0 0-.213 1.288c0 .549.09.984.272 1.305.181.32.516.48 1.003.48.26 0 .496-.051.706-.154.209-.103.433-.275.67-.515.023-.286.06-.587.111-.902.051-.314.116-.606.173-.87l.626-2.74Zm1.794 3.189a5.752 5.752 0 0 0-.136 1.965c.068.659.317 1.668.56 2.173H41.07c-.299-.51-.286-.75-.342-.91-.317.263-.669.48-1.054.652a3.143 3.143 0 0 1-1.292.258c-.567 0-1.051-.1-1.453-.3a2.748 2.748 0 0 1-.986-.808 3.246 3.246 0 0 1-.553-1.185 5.944 5.944 0 0 1-.17-1.45c0-.79.139-1.535.417-2.233a5.687 5.687 0 0 1 1.156-1.828c.493-.521 1.682-1.67 3.635-1.67h3.92l-1.257 5.336Zm-14.785 1.959c.194.046.433.07.718.07.445 0 .85-.084 1.215-.252.365-.167.676-.4.933-.7.257-.3.456-.66.599-1.08.143-.42.214-.884.214-1.392 0-.495-.109-.916-.325-1.261-.217-.346-.597-.53-1.133-.532-.375-.002-.998-.002-.998-.002l-1.223 5.149Zm6.212-3.544c0 .842-.137 1.61-.411 2.308a5.474 5.474 0 0 1-1.138 1.806 5.085 5.085 0 0 1-1.746 1.185 5.719 5.719 0 0 1-2.216.423c-.388 0-.776-.035-1.163-.104l-.77 3.129H24.54l2.94-12.498h3.375c.638 0 1.189.098 1.65.294.463.196.842.464 1.139.804.296.34.516.738.659 1.193.142.455.214.942.214 1.46Zm-11.532 3.54c-.325 0-.581-.047-.767-.141a.807.807 0 0 1-.392-.396 1.252 1.252 0 0 1-.088-.608c.018-.235.061-.488.131-.758l.768-3.241h2.878l.523-2.15h-2.896l.663-2.73-2.703.422-1.71 7.294a9.303 9.303 0 0 0-.244 1.709c-.023.54.058 1.019.245 1.436.185.417.5.746.941.986.442.241 1.064.361 1.867.361a6.51 6.51 0 0 0 1.595-.176l.526-2.224a4.154 4.154 0 0 1-.525.137 4.09 4.09 0 0 1-.812.079m-6.445-7.296-2.23 9.48h2.526l2.231-9.48H16.54m2.789-1.097.387-1.647H17.19l-.387 1.647h2.527M8.727 22.561a2.28 2.28 0 0 0 1.123-.292c.352-.195.655-.456.91-.782a3.943 3.943 0 0 0 .826-2.398c0-.55-.09-.98-.272-1.29-.182-.31-.56-.45-1.047-.45-.159 0-.323.015-.578.072a1.484 1.484 0 0 0-.68.36l-1.11 4.716c.328.058.442.064.522.064h.306Zm2.212-7.357c.545 0 1.016.097 1.413.292.397.195.726.458.987.79.26.333.454.723.579 1.17.124.447.187.928.187 1.444a5.85 5.85 0 0 1-.434 2.243 5.835 5.835 0 0 1-1.183 1.84c-.5.521-1.09.934-1.77 1.237a5.37 5.37 0 0 1-2.212.456c-.102 0-.281-.003-.536-.009a7.779 7.779 0 0 1-.877-.077 10.19 10.19 0 0 1-1.046-.207A5.275 5.275 0 0 1 5 24.005l2.944-12.497 2.638-.413-1.042 4.43c.227-.104.44-.178.668-.236.226-.057.47-.085.731-.085Z" fill="#002855"/></svg>