<svg width="58" height="40" fill="none" xmlns="http://www.w3.org/2000/svg"><rect x=".5" y=".5" width="57" height="39" rx="3.5" fill="#FAD6D7" stroke="#F3F3F3"/><path fill-rule="evenodd" clip-rule="evenodd" d="M24.192 17.8h14.112v1H24.192v-1Zm0 3H53.76v1H24.192v-1Zm29.568 3H24.192v1H53.76v-1Z" fill="#D17272"/><path fill-rule="evenodd" clip-rule="evenodd" d="M21.504 2.344h1V3h8.408v1h-8.408v1h11.768v1H22.504v1h6.392v1h-6.392v1h6.392v1h-6.392v1.752h21.848V10h-.848V9h.848V7h-.848V6h.848V4h-.848V3h.848v-.656h1V3h12.264v1H45.352v2h6.888v1h-6.888v2h4.2v1h-4.2v1.752h10.424v1H22.504V17h16v1h-16v12h2v1h-2v1.584h-1V2.344Z" fill="#666"/><path fill="#fff" d="M2 21h17v3H2z"/><path fill-rule="evenodd" clip-rule="evenodd" d="M55 7a4 4 0 1 0-8 0 4 4 0 0 0 8 0Zm-7.333 0a3.333 3.333 0 1 1 6.666 0 3.333 3.333 0 0 1-6.666 0Z" fill="#D17272"/><path d="M1 34h56v2a3 3 0 0 1-3 3H4a3 3 0 0 1-3-3v-2Z" fill="#fff"/></svg>