<svg width="58" height="40" fill="none" xmlns="http://www.w3.org/2000/svg"><rect x=".5" y=".5" width="57" height="39" rx="3.5" fill="#fff" stroke="#F3F3F3"/><path d="M3.286 24.785h8.485v-8.54H3.286v8.54Z" fill="#F39301"/><path fill-rule="evenodd" clip-rule="evenodd" d="M20.372 24.661c-.359.211-1.002.323-1.385.323-2.621 0-4.364-1.978-4.364-4.466 0-2.464 1.78-4.467 4.315-4.467.408 0 1.026.1 1.372.31l.272 1.98a2.67 2.67 0 0 0-1.719-.61c-1.496 0-2.534 1.343-2.534 2.787 0 1.592 1.187 2.787 2.608 2.787.68 0 1.212-.349 1.657-.71l-.222 2.066Zm3.598-.995c.556 0 1.15-.336 1.15-.909 0-.56-.594-.908-1.15-.908-.557 0-1.15.348-1.15.908 0 .573.593.909 1.15.909Zm.296-5.4a9.88 9.88 0 0 0-1.817.174l-.433 1.518c.569-.224 1.162-.374 1.78-.374.73 0 1.348.162 1.348 1.02 0 .11-.011.202-.022.293a2.717 2.717 0 0 0-.015.13c-.606-.31-1.051-.422-1.731-.422-1.174 0-2.126 1.008-2.126 2.152 0 1.444 1.038 2.227 2.373 2.227.581 0 1.138-.223 1.57-.597v.548l1.434-.15v-4.74c0-1.282-1.236-1.78-2.36-1.78Zm6.528 5.275c1.051 0 1.817-.883 1.817-1.916s-.766-1.916-1.817-1.916c-1.05 0-1.817.883-1.817 1.916s.766 1.916 1.817 1.916Zm-.198 1.443c.866 0 1.298-.224 1.954-.883v.834l1.483-.15v-8.734l-1.57.199v2.687a2.855 2.855 0 0 0-1.867-.671c-1.792 0-3.103 1.605-3.103 3.359s1.31 3.36 3.103 3.36Zm4.649-8.734 1.57-.2v3.012h.025c.445-.597.964-.796 1.842-.796 1.298 0 2.163.833 2.163 2.177v4.342l-1.57.1v-4.019c0-.672-.309-1.232-1.014-1.232-.989 0-1.446.76-1.446 1.555v3.596l-1.57.1V16.25Zm11.943 5.375c0 1.082-.94 1.916-2.003 1.916-1.063 0-2.003-.834-2.003-1.916 0-1.082.94-1.916 2.003-1.916 1.063 0 2.003.834 2.003 1.916Zm-2.003-3.36c1.854 0 3.485 1.456 3.485 3.36s-1.63 3.36-3.485 3.36-3.486-1.456-3.486-3.36 1.631-3.36 3.486-3.36Zm7.593 1.444c.48 0 .924.224 1.334.473L54.94 19c-.692-.448-1.397-.735-2.311-.735-1.832 0-3.452 1.394-3.452 3.31 0 2.128 1.782 3.41 3.402 3.41.801 0 1.742-.187 2.348-.797l-.864-1.132c-.507.336-.868.485-1.51.485-.815 0-1.806-.821-1.806-1.916 0-1.145.868-1.916 2.03-1.916Z" fill="#495654"/><path fill-rule="evenodd" clip-rule="evenodd" d="M6.655 20.504c0 .44-.096.778-.587.778-.55 0-.608-.397-.608-.719v-2.524l-.704.156v2.47c0 .94.65 1.3 1.28 1.3.822 0 1.323-.532 1.323-1.198V18.04l-.704.156v2.309Zm2.437.838c-.453 0-.784-.382-.784-.827 0-.446.33-.827.784-.827.453 0 .784.381.784.827 0 .445-.33.827-.784.827Zm-.718-2.034c.219-.154.478-.24.761-.24.763 0 1.383.648 1.383 1.448 0 .8-.62 1.448-1.383 1.448-.282 0-.544-.089-.763-.241v.965l-.678.157v-3.773l.68-.166v.402Z" fill="#FEFEFE"/></svg>