<svg width="58" height="40" fill="none" xmlns="http://www.w3.org/2000/svg"><rect x=".5" y=".5" width="57" height="39" rx="3.5" fill="#fff" stroke="#F1F1F1"/><path fill="#D7F0F4" d="M18 9h30v21H18z"/><path d="M29.81 12.76c5.494 3.846 7.314 14.466 7.314 14.466s-2.66-1.285-4.566.497c-2.627-1.508-4.951-.126-4.951-.126s-1.969-1.985-4.493-.86c0 0 .155-7.836 6.697-13.978Z" fill="#E9F3F4"/><path stroke="#D5D5D5" stroke-width="1.17" d="M6.585 8.585h44.83v21.83H6.585z"/><path fill="#73859D" d="M48 9h3v21h-3z"/><path fill-rule="evenodd" clip-rule="evenodd" d="m21.606 18.813.004-.806-3.677-.017c.083-.335.282-.64.597-.913.176-.154.418-.316.726-.485l.646-.357c.569-.317.963-.587 1.184-.81.381-.384.573-.848.575-1.392.003-.515-.173-.984-.527-1.406-.354-.423-.916-.635-1.687-.639-.928-.004-1.576.321-1.946.977-.209.372-.32.854-.331 1.445l.86.004c.014-.42.082-.749.202-.985.225-.442.627-.661 1.207-.659.392.002.704.12.938.353.234.234.35.548.349.944a1.252 1.252 0 0 1-.39.899c-.164.167-.448.368-.854.603l-.905.522c-.607.351-1.015.743-1.226 1.175-.21.432-.332.94-.366 1.526l4.621.021Zm3.031.2c.897.004 1.545-.427 1.944-1.291.275-.603.415-1.366.42-2.289.004-.973-.143-1.74-.441-2.302-.385-.726-1.014-1.09-1.885-1.095-.969-.004-1.64.508-2.015 1.537-.2.552-.302 1.214-.305 1.986-.005.996.156 1.79.482 2.383.392.71.992 1.067 1.8 1.07Zm-1.152-1.747c.222.643.606.966 1.152.969.438.002.789-.193 1.05-.584.263-.39.396-1.12.401-2.189.004-.771-.087-1.406-.273-1.905-.186-.5-.55-.75-1.092-.752-.498-.003-.864.232-1.096.704-.233.471-.351 1.167-.356 2.087-.003.692.068 1.25.213 1.67Z" fill="#000"/><path fill-rule="evenodd" clip-rule="evenodd" d="m21.606 18.813.004-.806-3.677-.017c.083-.335.282-.64.597-.913.176-.154.418-.316.726-.485l.646-.357c.569-.317.963-.587 1.184-.81.381-.384.573-.848.575-1.392.003-.515-.173-.984-.527-1.406-.354-.423-.916-.635-1.687-.639-.928-.004-1.576.321-1.946.977-.209.372-.32.854-.331 1.445l.86.004c.014-.42.082-.749.202-.985.225-.442.627-.661 1.207-.659.392.002.704.12.938.353.234.234.35.548.349.944a1.252 1.252 0 0 1-.39.899c-.164.167-.448.368-.854.603l-.905.522c-.607.351-1.015.743-1.226 1.175-.21.432-.332.94-.366 1.526l4.621.021Zm3.031.2c.897.004 1.545-.427 1.944-1.291.275-.603.415-1.366.42-2.289.004-.973-.143-1.74-.441-2.302-.385-.726-1.014-1.09-1.885-1.095-.969-.004-1.64.508-2.015 1.537-.2.552-.302 1.214-.305 1.986-.005.996.156 1.79.482 2.383.392.71.992 1.067 1.8 1.07Zm-1.152-1.747c.222.643.606.966 1.152.969.438.002.789-.193 1.05-.584.263-.39.396-1.12.401-2.189.004-.771-.087-1.406-.273-1.905-.186-.5-.55-.75-1.092-.752-.498-.003-.864.232-1.096.704-.233.471-.351 1.167-.356 2.087-.003.692.068 1.25.213 1.67Z" fill="#3D4C64"/><path fill-rule="evenodd" clip-rule="evenodd" d="m9.842 28.92.002-.346-1.471-.007a.771.771 0 0 1 .239-.39 1.62 1.62 0 0 1 .29-.209l.259-.153c.227-.136.385-.251.473-.347a.853.853 0 0 0 .23-.597.947.947 0 0 0-.21-.602c-.141-.181-.366-.272-.675-.274-.37-.002-.63.138-.778.42-.084.159-.128.365-.133.619l.344.001a1.09 1.09 0 0 1 .081-.422c.09-.19.25-.284.483-.282.157 0 .282.05.375.15.094.1.14.235.14.405a.556.556 0 0 1-.157.385 1.678 1.678 0 0 1-.341.259l-.362.224c-.243.15-.406.318-.49.503a1.811 1.811 0 0 0-.148.654l1.849.009Zm1.213.085c.358.002.617-.183.777-.553.11-.259.166-.586.168-.981.002-.418-.056-.747-.176-.987a.788.788 0 0 0-.754-.469c-.387-.002-.656.218-.806.659-.08.237-.12.52-.122.851-.002.427.062.767.193 1.021.156.305.396.457.72.459Zm-.461-.748c.088.275.242.414.46.415.176 0 .316-.083.42-.25.106-.168.16-.48.161-.939.002-.33-.034-.603-.109-.816-.074-.214-.22-.322-.436-.323-.2 0-.346.1-.439.302-.093.202-.14.5-.143.895 0 .297.028.535.086.716Z" fill="#000"/><path fill-rule="evenodd" clip-rule="evenodd" d="m9.842 28.92.002-.346-1.471-.007a.771.771 0 0 1 .239-.39 1.62 1.62 0 0 1 .29-.209l.259-.153c.227-.136.385-.251.473-.347a.853.853 0 0 0 .23-.597.947.947 0 0 0-.21-.602c-.141-.181-.366-.272-.675-.274-.37-.002-.63.138-.778.42-.084.159-.128.365-.133.619l.344.001a1.09 1.09 0 0 1 .081-.422c.09-.19.25-.284.483-.282.157 0 .282.05.375.15.094.1.14.235.14.405a.556.556 0 0 1-.157.385 1.678 1.678 0 0 1-.341.259l-.362.224c-.243.15-.406.318-.49.503a1.811 1.811 0 0 0-.148.654l1.849.009Zm1.213.085c.358.002.617-.183.777-.553.11-.259.166-.586.168-.981.002-.418-.056-.747-.176-.987a.788.788 0 0 0-.754-.469c-.387-.002-.656.218-.806.659-.08.237-.12.52-.122.851-.002.427.062.767.193 1.021.156.305.396.457.72.459Zm-.461-.748c.088.275.242.414.46.415.176 0 .316-.083.42-.25.106-.168.16-.48.161-.939.002-.33-.034-.603-.109-.816-.074-.214-.22-.322-.436-.323-.2 0-.346.1-.439.302-.093.202-.14.5-.143.895 0 .297.028.535.086.716Z" fill="#3D4C64"/><path d="M8.03 13.069h4.592v-3.038H8.03v3.038Z" fill="#6B70C0"/><path fill-rule="evenodd" clip-rule="evenodd" d="m10.257 10.594-.032.1.085-.062.085.062-.033-.1.085-.062h-.105l-.033-.1-.032.1h-.105l.085.062Zm.477.244.033-.1-.086-.062h.106l.032-.1.033.1h.105l-.085.062.032.1-.085-.062-.085.062Zm-.98-.091-.032.1.085-.062.085.062-.033-.1.085-.062H9.84l-.032-.1-.033.1H9.67l.085.062Zm-.369.355-.032.1.085-.061.085.062-.033-.1.085-.062H9.47l-.032-.1-.033.1H9.3l.085.061Zm-.123.5-.033.101.085-.062.085.062-.032-.1.085-.062h-.105l-.033-.1-.032.1h-.105l.085.062Zm.978 1.067.032-.1-.085-.062h.106l.032-.1.033.1h.104l-.085.062.033.1-.085-.062-.085.062Zm-.88-.492.032-.1-.085-.062h.105l.033-.1.032.1h.105l-.085.062.033.1-.085-.061-.085.062Zm.403.261-.033.1.085-.061.085.062-.032-.1.085-.063h-.105l-.033-.1-.032.1h-.105l.085.063Zm.978.09.032-.1-.085-.062h.105l.033-.1.032.1h.105l-.084.062.032.1-.085-.062-.085.062Zm.39-.454-.033.1.085-.062.085.062-.033-.1.085-.062h-.105l-.032-.1-.033.1h-.105l.085.062Zm.121-.393.033-.1-.085-.063h.105l.032-.1.033.1h.105l-.085.063.032.1-.085-.062-.085.062Zm-.117-.594-.032.1.085-.062.085.062-.032-.1.085-.062h-.106l-.032-.1-.033.1h-.105l.085.062Z" fill="#FCFC02"/></svg>