<svg width="58" height="40" viewBox="0 0 58 40" fill="none" xmlns="http://www.w3.org/2000/svg">
<g clip-path="url(#clip0_1503_2376)">
<g clip-path="url(#clip1_1503_2376)">
<path d="M3.5614 0.5H54.4386C56.1256 0.5 57.5 1.87958 57.5 3.58974V36.4103C57.5 38.1204 56.1256 39.5 54.4386 39.5H3.5614C1.87437 39.5 0.5 38.1204 0.5 36.4103V3.58974C0.5 1.87958 1.87437 0.5 3.5614 0.5Z" stroke="#F3F3F3"/>
<path d="M49.5 8.5H8.5V31.5H49.5V8.5Z" fill="#D9DDE1"/>
<path d="M46 16H36V19H46V16Z" fill="white"/>
<path fill-rule="evenodd" clip-rule="evenodd" d="M32 16H12V17H32V16ZM24 27H12V28H24V27ZM12 24H20V25H12V24ZM28 19H12V20H28V19Z" fill="#001018"/>
<path d="M50 8H8V12H50V8Z" fill="white"/>
<path fill-rule="evenodd" clip-rule="evenodd" d="M36.7051 24.5019C36.7041 24.5028 36.7032 24.5037 36.7022 24.5047C36.6753 24.5317 36.6403 24.5774 36.6049 24.6407C36.5702 24.7027 36.5419 24.7697 36.523 24.8304C36.5137 24.8603 36.5076 24.8859 36.5039 24.9061C36.5021 24.9161 36.5011 24.9239 36.5006 24.9296C36.5 24.9348 36.5 24.9374 36.5 24.9374V24.9373C36.5 25.2135 36.2761 25.4373 36 25.4373C35.7239 25.4373 35.5 25.2135 35.5 24.9373C35.5 24.6778 35.6043 24.3812 35.7321 24.1527C35.7998 24.0316 35.8869 23.9061 35.9941 23.7986C36.0979 23.6945 36.2475 23.5803 36.4425 23.5316C37.1017 23.3668 37.5808 23.8553 37.8258 24.176C38.0855 24.516 38.2812 24.9256 38.3881 25.1494C38.3944 25.1625 38.4003 25.1749 38.406 25.1867C38.4856 25.3527 38.5367 25.5599 38.5756 25.7292C38.5901 25.7925 38.6036 25.8534 38.6167 25.913C38.6434 26.0343 38.6689 26.15 38.7001 26.2688C38.7458 26.4431 38.7924 26.5761 38.8422 26.6679C38.8718 26.7225 38.8925 26.7438 38.8995 26.7501C38.9607 26.7725 38.9804 26.7621 38.9881 26.7581C38.9886 26.7578 38.989 26.7576 38.9894 26.7574C39.0157 26.7445 39.0705 26.7027 39.138 26.5943C39.2755 26.3734 39.3637 26.0409 39.3935 25.8055C39.3982 25.7687 39.3956 25.7 39.3777 25.5681C39.3742 25.5425 39.37 25.5131 39.3653 25.4812C39.3505 25.3794 39.3319 25.2516 39.3237 25.1368C39.3129 24.9843 39.3117 24.7717 39.3933 24.5653C39.4865 24.3293 39.6705 24.1447 39.9364 24.0516C40.6483 23.8025 41.1902 24.2474 41.5063 24.5797C41.6474 24.7281 41.7816 24.8944 41.8957 25.036C41.9167 25.0621 41.9371 25.0873 41.9567 25.1115C42.0952 25.2821 42.1935 25.3942 42.2743 25.46C42.3875 25.5523 42.4453 25.5537 42.4639 25.5535C42.4964 25.553 42.5564 25.5401 42.6687 25.4724C42.7553 25.4202 42.8349 25.3607 42.9359 25.2852C42.9765 25.2549 43.0206 25.2219 43.07 25.1858C43.2227 25.0742 43.4204 24.938 43.6501 24.8519C43.9092 24.7548 44.3436 24.6412 44.7726 24.6191C44.9875 24.608 45.2274 24.6182 45.4531 24.6814C45.6803 24.7449 45.9306 24.8736 46.0985 25.1255C46.2517 25.3552 46.1896 25.6657 45.9598 25.8189C45.7305 25.9717 45.4208 25.9102 45.2674 25.6815C45.2671 25.6811 45.2668 25.6806 45.2664 25.6802C45.2669 25.6808 45.2673 25.6813 45.2676 25.6817C45.2675 25.6817 45.2674 25.6816 45.2674 25.6815C45.2627 25.6771 45.2421 25.6607 45.1837 25.6444C45.0998 25.6209 44.9782 25.6098 44.8242 25.6177C44.5153 25.6337 44.1823 25.7203 44.0012 25.7882C43.9076 25.8233 43.8026 25.889 43.6601 25.9932C43.6322 26.0135 43.6014 26.0366 43.5685 26.0612C43.4559 26.1455 43.318 26.2487 43.1848 26.3289C43.0035 26.4381 42.7642 26.5493 42.4783 26.5534C42.1786 26.5577 41.899 26.4441 41.6426 26.2353C41.47 26.0946 41.3108 25.9025 41.1803 25.7417C41.1566 25.7126 41.1335 25.6839 41.1108 25.6558C40.9962 25.5139 40.8921 25.385 40.7817 25.2689C40.5452 25.0203 40.4135 24.9721 40.3188 24.9831C40.3196 24.9516 40.3226 24.9368 40.3233 24.9332C40.3236 24.9322 40.3236 24.9321 40.3233 24.9328C40.32 24.9412 40.3108 24.9588 40.2928 24.9761C40.2802 24.9882 40.2699 24.9937 40.2667 24.9953C40.2661 24.9957 40.2657 24.9958 40.2657 24.9959C40.2657 24.9959 40.266 24.9957 40.2668 24.9955C40.283 24.9898 40.3002 24.9853 40.3188 24.9831C40.3183 25.0034 40.3187 25.0305 40.3212 25.066C40.3265 25.1411 40.337 25.213 40.35 25.3023C40.3558 25.3421 40.3621 25.3854 40.3687 25.4339C40.3866 25.5665 40.4084 25.7515 40.3856 25.9312C40.3459 26.2441 40.2292 26.7336 39.9869 27.1228C39.8644 27.3196 39.6856 27.5298 39.4295 27.6554C39.154 27.7904 38.8423 27.8009 38.529 27.6791C38.2435 27.5681 38.0698 27.341 37.9634 27.145C37.8556 26.9465 37.7849 26.7212 37.7328 26.5226C37.6966 26.3843 37.6637 26.2352 37.6348 26.1044C37.6228 26.0501 37.6115 25.999 37.601 25.9531C37.5598 25.7736 37.5291 25.6709 37.5043 25.619C37.5009 25.612 37.4975 25.605 37.4941 25.5978C37.3822 25.3643 37.2259 25.038 37.0311 24.783C36.8523 24.549 36.7465 24.5078 36.7051 24.5019Z" fill="#001018"/>
<path d="M49.5 8.5H8.5V31.5H49.5V8.5Z" stroke="#EFF1F3"/>
</g>
</g>
<defs>
<clipPath id="clip0_1503_2376">
<rect width="58" height="40" fill="white"/>
</clipPath>
<clipPath id="clip1_1503_2376">
<rect width="58" height="40" fill="white"/>
</clipPath>
</defs>
</svg>
