<svg width="58" height="40" fill="none" xmlns="http://www.w3.org/2000/svg"><rect x=".5" y=".5" width="57" height="39" rx="3.5" fill="#fff" stroke="#F3F3F3"/><path fill-rule="evenodd" clip-rule="evenodd" d="m40.22 11.775-6.03-5.997S33.41 5 32.306 5c0 0-1.103 0-1.884.778 0 0-.781.778-.781 1.876 0 0 0 1.099.781 1.876l1.466 1.454h-5.625s-1.117 0-1.898.784c0 0-.787.778-.787 1.883 0 0 0 1.106.787 1.89 0 0 .781.778 1.898.778h5.625l-1.466 1.46s-.781.778-.781 1.876c0 0 0 1.099.781 1.877 0 0 .781.77 1.884.77 0 0 1.103 0 1.884-.77l6.023-6.004s.781-.778.781-1.877c0 0 0-1.098-.774-1.876m-21.7-1.822s1.474 0 2.515 1.037c0 0 1.042 1.037 1.042 2.504 0 0 0 1.467-1.042 2.504 0 0-1.041 1.037-2.514 1.037 0 0-1.473 0-2.515-1.037 0 0-1.041-1.037-1.041-2.504 0 0 0-1.467 1.041-2.504 0 0 1.042-1.037 2.515-1.037M8.969 32.438s-.495.096-.936.096C6.731 32.534 6 31.827 6 30.5V29c0-1.328.72-2.035 2.033-2.035.484 0 .936.097.936.097.14.021.204.096.204.214v.653c0 .118-.075.183-.204.172 0 0-.463-.065-.86-.065-.7 0-.926.407-.926.986v1.446c0 .6.248.996.936.996.42 0 .86-.064.86-.064.119-.01.194.043.194.16v.654c0 .118-.053.193-.204.225m1.936-.012h-.774a.197.197 0 0 1-.205-.203v-7.198c0-.119.086-.204.205-.204h.774c.119 0 .205.085.205.204v7.198a.197.197 0 0 1-.205.203m2.097 0h-.774a.197.197 0 0 1-.204-.203v-4.949c0-.118.086-.204.204-.204h.774c.119 0 .205.086.205.204v4.949a.197.197 0 0 1-.205.203Zm0-6.427h-.774a.197.197 0 0 1-.204-.203v-.771c0-.119.086-.204.204-.204h.774c.119 0 .205.085.205.204v.771a.197.197 0 0 1-.205.203Zm4.088 6.438s-.495.096-.936.096c-1.301 0-2.033-.707-2.033-2.035v-1.5c0-1.328.721-2.035 2.033-2.035.484 0 .936.097.936.097.14.021.204.096.204.214v.653c0 .118-.075.183-.204.172 0 0-.462-.065-.86-.065-.7 0-.926.407-.926.986v1.446c0 .6.248.996.936.996.42 0 .86-.064.86-.064.12-.01.194.043.194.16v.654c0 .118-.053.193-.204.225m4.808-.011h-.871c-.118 0-.215-.096-.269-.203l-1.463-2.796 1.334-2.153c.064-.097.161-.204.28-.204h.871c.118 0 .183.107.118.204l-1.334 2.132 1.474 2.817c.054.096-.021.203-.14.203Zm-2.872 0h-.774a.198.198 0 0 1-.205-.203v-7.198c0-.119.087-.204.205-.204h.774c.119 0 .205.085.205.204v7.198a.198.198 0 0 1-.205.203Z" fill="#FF8000"/><path fill-rule="evenodd" clip-rule="evenodd" d="M25.093 30.188h-.903c-.581 0-.818.247-.818.707 0 .407.237.643.71.643.334 0 .7-.128 1.011-.29v-1.06Zm.979 2.24h-.72a.197.197 0 0 1-.205-.204v-.097c-.344.214-.796.407-1.302.407-1.043 0-1.656-.525-1.656-1.606 0-1.104.677-1.65 1.871-1.65.366 0 .893.043 1.033.064v-.428c0-.557-.247-.857-.882-.857-.634 0-1.441.182-1.441.182-.13.032-.205-.053-.205-.171v-.654c0-.118.076-.192.204-.225 0 0 .7-.224 1.603-.224 1.431 0 1.904.664 1.904 1.949v3.31a.197.197 0 0 1-.204.203Zm5.002-.001H30.3a.197.197 0 0 1-.205-.203v-3.332c0-.503-.15-.825-.72-.825-.334 0-.7.15-1 .311v3.846a.197.197 0 0 1-.205.203h-.775a.197.197 0 0 1-.204-.203v-4.949c0-.118.086-.204.204-.204h.721c.118 0 .204.086.204.204v.16a2.27 2.27 0 0 1 1.388-.47c1.172 0 1.57.706 1.57 1.82v3.439a.197.197 0 0 1-.204.203m3.808-4.22c-.29-.118-.613-.204-.904-.204-.591 0-.817.375-.817.91v1.661c0 .536.226.91.817.91.29 0 .614-.107.904-.246v-3.031Zm.979 4.22h-.721a.197.197 0 0 1-.204-.203v-.064c-.334.203-.742.374-1.205.374-1.194 0-1.753-.728-1.753-1.874v-1.821c0-1.146.559-1.875 1.753-1.875.441 0 .828.129 1.151.29v-2.228c0-.119.086-.204.205-.204h.774c.118 0 .204.085.204.204v7.198a.198.198 0 0 1-.204.203Z" fill="gray"/><path fill-rule="evenodd" clip-rule="evenodd" d="M39.884 28.914c0-.536-.215-.91-.807-.91-.29 0-.624.107-.914.246v3.16h.828c.645 0 .893-.354.893-.89v-1.606Zm-.785 3.513h-1.915a.197.197 0 0 1-.204-.203v-7.198c0-.119.086-.204.204-.204h.774c.119 0 .205.085.205.204v2.27c.323-.192.72-.332 1.162-.332 1.193 0 1.742.729 1.742 1.875v1.714c0 1.167-.635 1.874-1.968 1.874Zm6.766 0h-.721a.197.197 0 0 1-.204-.203v-.161a2.27 2.27 0 0 1-1.388.471c-1.172 0-1.57-.707-1.57-1.82v-3.439c0-.118.086-.204.204-.204h.775c.118 0 .204.086.204.204v3.331c0 .504.15.825.72.825.334 0 .7-.15 1-.31v-3.846c0-.118.087-.204.205-.204h.775c.118 0 .204.086.204.204v4.949a.197.197 0 0 1-.204.203m3.087 1.843c-.043.107-.108.192-.226.192h-.871c-.119 0-.204-.096-.162-.203l.613-1.789-1.71-5.195c-.032-.107.033-.203.162-.203h.85c.118 0 .204.075.236.192l1.097 3.396 1.151-3.396c.043-.107.119-.192.237-.192h.85c.129 0 .204.107.161.214l-2.388 6.984Z" fill="#FF8000"/></svg>