<svg width="58" height="40" fill="none" xmlns="http://www.w3.org/2000/svg"><rect x=".5" y=".5" width="57" height="39" rx="3.5" fill="#fff" stroke="#F3F3F3"/><path fill-rule="evenodd" clip-rule="evenodd" d="M8.832 24.205c0-.785-.41-.733-.802-.741v-.227c.34.016.689.016 1.03.016.366 0 .863-.016 1.509-.016 2.259 0 3.489 1.508 3.489 3.053 0 .864-.506 3.036-3.594 3.036-.445 0-.855-.018-1.265-.018-.392 0-.777.008-1.169.018v-.227c.523-.053.777-.07.802-.663v-4.231Zm.855 4.09c0 .673.48.75.908.75 1.884 0 2.503-1.42 2.503-2.72 0-1.631-1.047-2.809-2.73-2.809-.359 0-.524.026-.681.035v4.745Zm4.677.804h.165c.244 0 .419 0 .419-.289v-2.363c0-.384-.13-.437-.454-.61v-.14c.41-.123.899-.288.933-.314a.308.308 0 0 1 .158-.044c.042 0 .06.052.06.123v3.348c0 .289.193.289.437.289h.148v.227c-.297 0-.603-.018-.916-.018a33.7 33.7 0 0 0-.95.018v-.227Zm.933-5.103a.447.447 0 0 1-.428-.436c0-.219.21-.42.428-.42.226 0 .427.184.427.42a.436.436 0 0 1-.427.436Zm1.762 2.503c0-.322-.097-.41-.506-.575v-.166c.375-.122.732-.236 1.151-.42.027 0 .052.018.052.088v.567c.498-.357.925-.654 1.51-.654.741 0 1.003.54 1.003 1.221v2.25c0 .289.192.289.436.289h.158v.227c-.307 0-.612-.018-.925-.018-.315 0-.629.008-.943.018v-.227h.157c.245 0 .418 0 .418-.289v-2.258c0-.498-.303-.742-.801-.742-.28 0-.724.226-1.013.42v2.58c0 .289.193.289.437.289h.157v.227c-.305 0-.61-.018-.925-.018-.314 0-.628.008-.942.018v-.227h.157c.244 0 .419 0 .419-.289V26.5m4.467.418c-.018.079-.018.21 0 .506.05.829.584 1.509 1.281 1.509.48 0 .856-.262 1.178-.584l.122.122c-.401.532-.898.986-1.613.986-1.387 0-1.666-1.344-1.666-1.902 0-1.71 1.15-2.216 1.76-2.216.708 0 1.467.445 1.476 1.37 0 .052 0 .104-.009.157l-.078.052h-2.451Zm1.544-.28c.218 0 .243-.113.243-.218 0-.444-.27-.802-.759-.802-.531 0-.898.392-1.002 1.02h1.518Zm1.195 2.461h.235c.244 0 .418 0 .418-.289v-2.45c0-.27-.322-.324-.453-.393v-.13c.636-.271.986-.498 1.065-.498.051 0 .078.026.078.114v.785h.018c.217-.34.584-.9 1.116-.9.218 0 .497.149.497.463 0 .235-.165.446-.41.446-.27 0-.27-.21-.576-.21-.148 0-.637.2-.637.724v2.05c0 .288.175.288.419.288h.488v.227c-.48-.01-.845-.018-1.22-.018-.358 0-.725.008-1.038.018v-.227m3.357-.986c.114.575.462 1.064 1.1 1.064.514 0 .706-.314.706-.619 0-1.03-1.901-.698-1.901-2.102 0-.49.393-1.117 1.352-1.117a2.3 2.3 0 0 1 .994.253l.061.89h-.2c-.088-.55-.393-.864-.951-.864-.35 0-.68.2-.68.576 0 1.021 2.023.706 2.023 2.076 0 .575-.462 1.187-1.5 1.187-.349 0-.76-.123-1.064-.297l-.097-1.003.157-.044m10.38-3.298h-.217c-.166-1.02-.89-1.43-1.866-1.43-1.005 0-2.46.671-2.46 2.765 0 1.763 1.256 3.027 2.599 3.027.862 0 1.58-.593 1.753-1.51l.201.053-.2 1.274c-.367.227-1.353.463-1.93.463-2.04 0-3.33-1.318-3.33-3.28 0-1.789 1.596-3.072 3.306-3.072.706 0 1.386.228 2.058.463l.087 1.247m.315 4.284h.165c.245 0 .419 0 .419-.289v-4.857c0-.568-.13-.585-.463-.681v-.14c.35-.113.716-.27.9-.375.094-.052.165-.097.19-.097.053 0 .07.053.07.124v6.026c0 .289.193.289.437.289h.148v.227c-.296 0-.601-.018-.916-.018-.314 0-.627.009-.95.018v-.227m5.6-.254c0 .158.096.166.244.166.105 0 .235-.008.35-.008v.183c-.376.035-1.092.218-1.258.27l-.043-.026v-.706c-.523.427-.925.733-1.545.733-.47 0-.959-.306-.959-1.038v-2.234c0-.227-.035-.445-.522-.488v-.166c.314-.009 1.01-.06 1.124-.06.097 0 .097.06.097.252v2.25c0 .262 0 1.012.759 1.012.296 0 .688-.226 1.054-.531v-2.348c0-.174-.418-.27-.732-.357v-.156c.785-.054 1.274-.123 1.36-.123.071 0 .071.06.071.157v3.218m1.736-2.878c.348-.296.82-.628 1.3-.628 1.011 0 1.622.882 1.622 1.832 0 1.143-.838 2.286-2.086 2.286-.645 0-.985-.21-1.212-.306l-.26.2-.184-.095c.078-.515.122-1.02.122-1.553v-3.75c0-.568-.131-.585-.463-.681v-.14c.35-.113.716-.27.899-.375.096-.052.165-.097.192-.097.052 0 .07.054.07.124v3.183Zm0 2.373c0 .33.314.89.898.89.933 0 1.326-.916 1.326-1.693 0-.942-.715-1.727-1.395-1.727-.324 0-.594.21-.83.41v2.12ZM12.73 33.605l.009-.01v-1.779c0-.39-.271-.447-.414-.447h-.104v-.142c.223 0 .442.019.665.019.194 0 .39-.019.583-.019v.142h-.07c-.2 0-.423.038-.423.603v2.16c0 .166.004.332.028.48h-.18l-2.445-2.725v1.956c0 .413.08.555.446.555h.08v.142c-.203 0-.407-.018-.611-.018-.213 0-.432.018-.646.018v-.142h.067c.327 0 .427-.224.427-.602v-2a.426.426 0 0 0-.432-.427h-.062v-.142c.18 0 .366.019.546.019.143 0 .28-.019.422-.019l2.113 2.378" fill="#1A1919"/><path fill-rule="evenodd" clip-rule="evenodd" d="m13.004 34.632-.196-.007L10.4 31.94v1.902c.006.413.069.53.426.535h.102v.183h-.021c-.205 0-.41-.019-.612-.019-.213 0-.43.02-.646.02h-.02v-.184h.087c.314-.002.403-.203.407-.581v-2a.406.406 0 0 0-.412-.406h-.083v-.184h.021c.182 0 .367.019.545.019.142 0 .28-.019.44-.011l2.085 2.348v-1.746c-.002-.377-.254-.423-.392-.426H12.2v-.184h.021c.224 0 .443.019.665.019.193 0 .387-.019.583-.019h.021v.184h-.09c-.196.005-.397.022-.403.582v2.16c0 .166.005.332.028.476l.004.024h-.024Zm-.18-.042h.157a3.196 3.196 0 0 1-.025-.458v-2.16c0-.57.238-.623.443-.624h.05v-.1c-.187 0-.375.018-.563.018-.218 0-.43-.017-.644-.019v.101h.084c.146 0 .433.066.433.468l-.006 1.794-.01.01-.016.015-2.11-2.388c-.142 0-.279.02-.424.02-.173 0-.352-.018-.524-.02v.101h.041c.223 0 .452.17.452.449v1.999c0 .38-.106.622-.447.623l-.046-.001v.102c.206-.002.417-.02.625-.02.198 0 .395.018.591.02v-.1h-.06c-.373-.002-.466-.165-.466-.578v-2.009l2.464 2.757Zm-.095-.985.015-.014-.015.014Zm-.01-.01v-.002l-.005-.003.004.005Zm1.461-2.131c-.356 0-.37.086-.44.432h-.143c.019-.133.042-.265.057-.403.019-.134.028-.266.028-.403h.114c.038.142.157.137.286.137h2.448c.129 0 .247-.005.257-.147l.113.02c-.018.127-.038.255-.051.384-.01.128-.01.256-.01.384l-.142.053c-.01-.176-.034-.457-.352-.457h-.778v2.526c0 .366.166.408.394.408h.09v.142c-.185 0-.517-.018-.773-.018-.285 0-.618.018-.803.018v-.142h.09c.262 0 .394-.024.394-.399v-2.535h-.778" fill="#1A1919"/><path fill-rule="evenodd" clip-rule="evenodd" d="M16.052 34.56c-.188 0-.52-.018-.774-.018-.285 0-.617.018-.803.018h-.02v-.183h.11c.262-.006.367-.01.373-.378v-2.514h-.757v-.042h.798V34c0 .381-.153.42-.414.42h-.07v.1c.187 0 .507-.018.783-.018.247 0 .564.017.752.019v-.1h-.07c-.229-.001-.414-.057-.414-.43v-2.547h.8c.318.001.36.272.37.449l.103-.038c0-.124 0-.248.009-.373.014-.123.03-.243.049-.365l-.072-.012c-.023.138-.156.146-.275.144h-2.473c-.112 0-.234-.006-.276-.138h-.079c0 .131-.01.259-.027.385-.014.13-.036.256-.053.381h.1c.063-.33.104-.438.459-.433v.042c-.352.007-.344.065-.422.416l-.003.016h-.183l.003-.024c.019-.133.043-.266.057-.404.02-.132.029-.263.029-.4v-.02h.15l.004.015c.032.12.12.12.24.122h2.474c.132-.002.228-.004.236-.128l.002-.022.021.004.135.021-.004.021c-.019.128-.037.255-.052.383-.008.127-.008.254-.008.383v.014l-.014.006-.168.061-.001-.027c-.013-.179-.032-.437-.332-.437h-.757v2.505c.004.357.146.383.373.387h.11v.183h-.02m1.001-.163h.067c.17 0 .35-.024.35-.27V31.64c0-.248-.18-.271-.35-.271h-.067v-.143c.288 0 .783.019 1.181.019.4 0 .892-.019 1.215-.019a8.04 8.04 0 0 0 .01.727l-.143.037c-.022-.308-.08-.555-.578-.555h-.659v1.243h.564c.285 0 .347-.16.375-.417h.142a10.851 10.851 0 0 0 0 1.096l-.142.029c-.028-.285-.043-.47-.37-.47h-.569v1.105c0 .31.274.31.578.31.57 0 .821-.039.964-.58l.132.033a10.71 10.71 0 0 0-.16.755c-.305 0-.85-.018-1.277-.018-.428 0-.992.018-1.263.018v-.142" fill="#1A1919"/><path fill-rule="evenodd" clip-rule="evenodd" d="M19.591 34.56c-.305 0-.85-.02-1.277-.02-.427 0-.991.02-1.262.02h-.02v-.183h.087c.171-.003.328-.018.33-.25v-2.486c-.003-.232-.159-.248-.33-.25h-.087v-.185h.02c.29 0 .783.019 1.181.019.4 0 .892-.019 1.215-.019h.021v.022a7.52 7.52 0 0 0 .01.724v.017l-.016.005-.167.043v-.024c-.029-.308-.07-.532-.559-.537h-.64v1.202h.545c.273-.002.322-.142.355-.398v-.02h.183v.022a10.611 10.611 0 0 0 0 1.095v.017l-.017.005-.165.032-.002-.022c-.032-.29-.034-.449-.35-.452h-.549v1.085c.001.289.25.287.559.289.572-.004.8-.032.944-.564l.004-.02.02.004.152.04-.004.02c-.061.25-.118.501-.161.753l-.004.017h-.016Zm-.018-.04c.042-.24.096-.48.154-.72l-.093-.023c-.142.531-.418.579-.978.575-.3 0-.598 0-.6-.33v-1.126h.59c.332-.003.365.197.39.467l.102-.021a10.015 10.015 0 0 1 0-1.06h-.103c-.027.248-.104.42-.393.418h-.586v-1.285h.681c.494-.004.575.252.597.55l.102-.028a7.96 7.96 0 0 1-.009-.69c-.322.002-.804.02-1.194.02-.39 0-.87-.018-1.16-.02v.101h.046c.168 0 .37.03.371.293v2.486c0 .262-.203.291-.371.292h-.046v.1c.276 0 .825-.018 1.241-.018.42 0 .953.018 1.26.019Zm.82-2.79c0-.346-.19-.36-.337-.36h-.086v-.143c.152 0 .446.019.736.019.284 0 .513-.019.764-.019.597 0 1.13.161 1.13.836 0 .427-.285.687-.66.835l.811 1.215c.134.2.228.257.461.285v.142c-.157 0-.309-.018-.465-.018-.147 0-.3.018-.446.018-.366-.479-.68-.991-.987-1.538H21v1.016c0 .366.17.38.388.38h.086v.142c-.271 0-.546-.018-.817-.018-.227 0-.45.018-.688.018v-.142h.086c.176 0 .337-.08.337-.256V31.73Zm.608 1.1h.232c.475 0 .73-.18.73-.74 0-.422-.27-.692-.693-.692-.142 0-.203.015-.27.02v1.413Z" fill="#1A1919"/><path fill-rule="evenodd" clip-rule="evenodd" d="M23.212 34.56c-.159 0-.31-.019-.466-.019-.145 0-.296.02-.462.012a13.272 13.272 0 0 1-.982-1.53h-.281v.994c.005.358.148.355.368.36h.106v.183h-.02c-.272 0-.548-.019-.817-.019-.227 0-.45.02-.688.02h-.02v-.184h.106c.17-.001.315-.076.316-.235V31.73c-.004-.337-.169-.335-.316-.34h-.107v-.184h.021c.154 0 .447.019.736.019.284 0 .511-.019.764-.019.599.002 1.15.166 1.15.856 0 .428-.282.696-.648.845l.797 1.194c.132.197.215.246.446.276l.017.003v.18h-.02ZM21 32.981h.325l.006.011c.309.545.62 1.058.97 1.528.145 0 .297-.02.445-.02.151 0 .298.017.445.02v-.105c-.222-.027-.327-.094-.456-.29l-.826-1.236.023-.01c.372-.146.647-.4.647-.817 0-.659-.512-.811-1.109-.815-.25 0-.478.02-.764.02-.279 0-.56-.018-.716-.02v.101h.066c.147 0 .357.025.357.382v2.412c0 .19-.179.277-.357.277h-.066v.1c.229 0 .445-.018.668-.018.265 0 .533.018.796.019v-.1h-.065c-.216-.001-.41-.028-.41-.403v-1.036H21Zm0-.13h-.02v-1.453l.018-.002c.065-.005.129-.018.272-.018.433 0 .714.28.714.714 0 .566-.273.759-.751.76H21Zm.233-.04c.47-.005.706-.168.71-.72-.002-.414-.26-.671-.673-.673-.128 0-.189.012-.249.018v1.375h.212Zm5.202.794.008-.01v-1.779c0-.39-.27-.447-.412-.447h-.104v-.142c.223 0 .44.019.664.019.195 0 .388-.019.584-.019v.142h-.071c-.2 0-.422.038-.422.603v2.16c0 .166.004.332.028.48h-.18l-2.444-2.725v1.956c0 .413.08.555.445.555h.081v.142c-.204 0-.408-.018-.612-.018-.215 0-.432.018-.646.018v-.142h.066c.328 0 .428-.224.428-.602v-2a.426.426 0 0 0-.432-.427h-.062v-.142c.18 0 .366.019.546.019.141 0 .28-.019.422-.019l2.113 2.378" fill="#1A1919"/><path fill-rule="evenodd" clip-rule="evenodd" d="m26.71 34.632-.195-.007-2.41-2.685v1.902c.006.414.068.53.426.535h.1v.183h-.02c-.205 0-.409-.02-.612-.02-.212 0-.431.02-.645.02h-.021v-.183h.087c.314-.001.403-.203.406-.582v-1.999a.405.405 0 0 0-.41-.406h-.083v-.184h.021c.181 0 .367.019.546.019.14 0 .277-.019.436-.013l2.087 2.35v-1.746c-.001-.377-.254-.424-.392-.426h-.125v-.184h.02c.225 0 .443.019.665.019.194 0 .388-.019.584-.019h.02v.184h-.091c-.196.005-.398.022-.402.582v2.16c0 .166.004.33.028.476l.002.024h-.023Zm-.18-.042h.155c-.02-.142-.025-.3-.025-.458v-2.16c0-.57.24-.622.444-.624h.05v-.1c-.187 0-.375.018-.563.018-.218 0-.43-.017-.644-.019v.101h.084c.146.002.434.066.434.468l-.007 1.794-.009.01-.015.015-2.112-2.388c-.14 0-.278.02-.422.02-.176 0-.353-.018-.526-.02v.101h.042c.223.002.452.17.452.448v1.999c0 .38-.108.623-.448.624h-.046v.1c.205 0 .417-.018.625-.018.199 0 .396.017.593.019v-.1h-.06c-.374-.001-.467-.164-.468-.578v-2.008l2.466 2.756Zm-.096-.985.016-.014-.016.014Zm-.011-.01-.004-.005.004.005Zm1.516.267c-.048.16-.106.285-.106.37 0 .142.2.166.357.166h.052v.142a10.82 10.82 0 0 0-.575-.018c-.17 0-.34.008-.512.018v-.142h.029c.185 0 .342-.11.412-.31l.76-2.177c.062-.176.147-.413.176-.59.151-.051.342-.146.431-.203.015-.005.024-.01.038-.01.015 0 .024 0 .034.015.014.037.028.08.043.118l.873 2.483c.057.166.114.341.174.484.058.134.158.19.315.19h.029v.142c-.214-.01-.428-.018-.655-.018-.233 0-.47.008-.713.018v-.142h.052c.109 0 .295-.02.295-.138 0-.061-.043-.19-.096-.342l-.185-.55H28.09l-.151.494Zm.692-2.103h-.01l-.44 1.343h.886l-.436-1.343Z" fill="#1A1919"/><path fill-rule="evenodd" clip-rule="evenodd" d="M30.467 34.56c-.213-.009-.427-.02-.653-.02-.233 0-.47.011-.712.02l-.022.002v-.186h.073c.11 0 .274-.024.274-.116.001-.054-.042-.184-.094-.335l-.18-.537h-1.048l-.147.48c-.048.161-.106.286-.105.364.002.116.179.144.336.144h.073v.186l-.021-.002c-.19-.009-.383-.02-.573-.02-.17 0-.341.011-.511.02l-.023.002v-.186h.05c.176 0 .323-.101.392-.294l.76-2.178c.062-.176.148-.412.189-.602.149-.05.34-.146.43-.203.014-.005.027-.011.046-.011a.057.057 0 0 1 .053.027l.043.12.874 2.482c.056.166.112.342.175.482.055.127.142.177.294.177h.048v.186l-.02-.002Zm-1.345-.042c.235-.008.465-.017.692-.017.22 0 .427.009.633.017v-.1h-.007c-.163.002-.274-.062-.333-.202a6.616 6.616 0 0 1-.175-.486l-.874-2.482-.04-.114c-.005-.005-.004-.005-.008-.005h-.009c-.01 0-.015.003-.027.006a1.73 1.73 0 0 1-.423.19c-.029.18-.114.417-.176.593l-.76 2.178a.452.452 0 0 1-.431.323h-.008v.1c.163-.009.327-.018.492-.018.183 0 .37.009.552.017v-.1h-.03c-.155-.001-.372-.018-.377-.186 0-.094.059-.216.105-.376l.02.006-.02-.007.157-.507h1.106l.19.564c.054.152.097.279.097.348-.007.146-.207.156-.315.159h-.031v.1Zm-.97-1.395.454-1.385h.025v.02l-.005.002.005-.001v-.021h.015l.45 1.385h-.944Zm.056-.042h.831l-.413-1.272-.418 1.272Zm.403-1.316.01-.003-.01.003Zm2.066-.301c-.356 0-.37.086-.442.432h-.142c.018-.133.043-.265.057-.403.019-.134.028-.266.028-.403h.115c.037.142.156.137.284.137h2.45c.127 0 .246-.005.255-.147l.114.02c-.018.127-.037.255-.052.384-.01.128-.01.256-.01.384l-.142.053c-.008-.176-.032-.457-.35-.457h-.78v2.526c0 .366.167.408.395.408h.09v.142c-.185 0-.517-.018-.774-.018-.284 0-.617.018-.802.018v-.142h.09c.262 0 .394-.024.394-.399v-2.535h-.778" fill="#1A1919"/><path fill-rule="evenodd" clip-rule="evenodd" d="M32.547 34.56c-.186 0-.519-.018-.774-.018-.284 0-.616.018-.802.018h-.02v-.183h.11c.262-.006.367-.01.373-.378v-2.514h-.757v-.042h.799V34c0 .381-.154.42-.415.42h-.07v.1c.188 0 .507-.018.782-.018.248 0 .566.017.753.019v-.101h-.07c-.228 0-.413-.056-.414-.43v-2.546h.8c.318.001.36.272.369.449l.103-.038c0-.124 0-.248.01-.373.013-.122.031-.243.048-.365l-.072-.012c-.021.138-.155.146-.273.144h-2.474c-.112 0-.233-.006-.276-.138h-.078c-.001.131-.01.259-.029.385-.013.131-.036.257-.054.381h.102c.063-.33.104-.438.46-.433v.042c-.353.006-.345.065-.422.416l-.004.016h-.183l.003-.023c.02-.134.043-.267.057-.404.02-.133.028-.264.028-.4v-.021h.15l.005.015c.033.12.12.12.24.122h2.475c.131-.002.227-.004.235-.127l.001-.023.022.004.135.021-.003.021c-.02.128-.038.255-.052.383-.01.127-.01.255-.01.383v.014l-.014.006-.168.061v-.027c-.013-.179-.032-.437-.332-.437h-.758v2.505c.005.357.147.383.373.387h.111v.183h-.02m1.024-.163h.067c.17 0 .35-.024.35-.27V31.64c0-.248-.18-.271-.35-.271h-.067v-.143c.186 0 .47.019.702.019.238 0 .523-.019.746-.019v.143h-.066c-.172 0-.352.023-.352.27v2.487c0 .247.18.27.352.27h.066v.143c-.227 0-.513-.018-.75-.018-.233 0-.512.018-.698.018v-.142" fill="#1A1919"/><path fill-rule="evenodd" clip-rule="evenodd" d="M35.02 34.56c-.23 0-.514-.02-.75-.02-.233 0-.513.02-.699.02h-.02v-.183h.087c.171-.003.329-.018.33-.25v-2.486c-.001-.232-.159-.248-.33-.25h-.087v-.185h.02c.186 0 .471.019.702.019.237 0 .522-.019.747-.019h.02v.184h-.087c-.174.003-.33.019-.331.25v2.487c.001.232.157.247.331.25h.086v.183h-.02Zm-.022-.04v-.101h-.045c-.17 0-.372-.03-.372-.292v-2.486c0-.263.202-.292.372-.293h.045v-.1c-.219 0-.494.018-.725.018-.225 0-.497-.017-.68-.019v.101h.045c.169 0 .37.03.372.293v2.486c-.001.262-.203.292-.372.292h-.046v.1c.183-.002.451-.018.678-.018.23 0 .504.017.728.019Zm1.914-3.364c1.012 0 1.819.627 1.819 1.638 0 1.092-.784 1.818-1.794 1.818-1.007 0-1.776-.684-1.776-1.705 0-.986.764-1.751 1.751-1.751Zm.072 3.247c.921 0 1.082-.813 1.082-1.505 0-.693-.374-1.533-1.163-1.533-.83 0-1.077.74-1.077 1.376 0 .85.39 1.662 1.158 1.662Z" fill="#1A1919"/><path fill-rule="evenodd" clip-rule="evenodd" d="M35.14 32.907a1.75 1.75 0 0 1 1.772-1.772v.042c-.976 0-1.73.754-1.732 1.73.002 1.01.76 1.683 1.757 1.683 1 0 1.772-.715 1.773-1.797 0-.998-.794-1.615-1.798-1.616v-.042c1.019.001 1.837.635 1.839 1.658-.001 1.104-.794 1.837-1.814 1.839-1.016-.002-1.795-.693-1.797-1.725Zm.665-.166c.001-.639.25-1.397 1.098-1.397.806.002 1.182.857 1.183 1.554-.001.692-.164 1.524-1.102 1.524v-.04c.902 0 1.06-.792 1.06-1.484 0-.687-.37-1.511-1.141-1.513-.814.001-1.055.724-1.057 1.356 0 .845.386 1.64 1.138 1.64v.041c-.788 0-1.178-.827-1.18-1.681Zm6.124.864.01-.01v-1.779c0-.39-.272-.447-.414-.447h-.103v-.142c.222 0 .441.019.664.019.195 0 .39-.019.584-.019v.142h-.071c-.2 0-.423.038-.423.603v2.16c0 .166.005.332.029.48h-.18l-2.446-2.725v1.956c0 .413.081.555.446.555h.081v.142c-.204 0-.407-.018-.612-.018-.213 0-.432.018-.646.018v-.142h.067c.328 0 .427-.224.427-.602v-2a.425.425 0 0 0-.432-.427h-.062v-.142c.18 0 .366.019.547.019.142 0 .278-.019.421-.019l2.113 2.378" fill="#1A1919"/><path fill-rule="evenodd" clip-rule="evenodd" d="m42.205 34.632-.196-.007-2.41-2.685v1.902c.006.414.07.53.426.534h.102v.184h-.02c-.206 0-.41-.019-.613-.019-.212 0-.43.02-.646.02h-.02v-.185h.087c.313 0 .403-.202.407-.58v-2a.405.405 0 0 0-.412-.406h-.081v-.184h.019c.182 0 .367.019.546.019.141 0 .278-.019.439-.011l2.085 2.348v-1.746c-.002-.377-.254-.423-.393-.426H41.4v-.184h.022c.223 0 .442.019.663.019.194 0 .388-.019.585-.019h.02v.184h-.092c-.195.005-.397.023-.401.582v2.16c0 .166.004.332.027.476l.004.024h-.023Zm-.18-.042h.155c-.02-.143-.025-.3-.025-.458v-2.16c0-.57.24-.622.443-.624h.052v-.1c-.189 0-.375.018-.565.018-.216 0-.428-.017-.643-.019v.101h.083c.147.002.433.067.433.468l-.005 1.794-.009.01-.015.015-2.112-2.388c-.14 0-.279.02-.423.02-.175 0-.353-.018-.526-.02v.101h.042c.223.002.453.17.453.448v2c0 .38-.106.622-.448.623h-.047v.1c.206 0 .418-.018.626-.018.198 0 .395.017.592.019v-.1h-.061c-.373-.001-.466-.164-.466-.578v-2.009l2.465 2.757Zm-.096-.985.015-.014-.015.014Zm-.011-.01-.004-.005.004.005Zm1.514.267c-.046.16-.103.285-.103.37 0 .142.2.166.355.166h.053v.142a10.82 10.82 0 0 0-.575-.018c-.17 0-.341.008-.511.018v-.142h.026c.187 0 .344-.11.413-.31l.761-2.177c.062-.176.147-.413.175-.59a2.44 2.44 0 0 0 .433-.203c.013-.005.023-.01.038-.01.013 0 .022 0 .032.015l.043.118.873 2.483c.057.166.114.341.176.484.057.134.157.19.313.19h.03v.142a13.55 13.55 0 0 0-.656-.018c-.232 0-.47.008-.712.018v-.142h.052c.109 0 .295-.02.295-.138 0-.061-.043-.19-.096-.342l-.185-.55h-1.077l-.153.494Zm.694-2.103h-.009l-.443 1.343h.89l-.438-1.343Z" fill="#1A1919"/><path fill-rule="evenodd" clip-rule="evenodd" d="M45.961 34.56c-.213-.008-.427-.019-.653-.019-.232 0-.47.011-.711.02h-.021v-.184h.072c.11 0 .274-.026.274-.117.001-.054-.042-.183-.095-.335l-.18-.537h-1.048l-.147.48c-.047.162-.103.286-.103.363 0 .117.178.146.335.146h.073v.185l-.022-.002c-.19-.008-.384-.019-.573-.019-.17 0-.34.011-.511.02h-.021v-.184h.047c.178 0 .325-.102.395-.295l.76-2.178c.06-.176.146-.412.187-.601.15-.052.34-.147.433-.204a.106.106 0 0 1 .044-.01.053.053 0 0 1 .052.027c.015.037.029.08.044.119l.873 2.482c.057.166.114.342.175.483.056.126.142.176.294.177h.049v.185l-.022-.002Zm-1.345-.041c.235-.009.466-.018.692-.018.22 0 .427.009.634.017v-.1h-.008c-.161.001-.273-.062-.332-.202-.063-.143-.12-.32-.176-.485l-.873-2.483a4.534 4.534 0 0 1-.04-.114c-.005-.005-.004-.005-.007-.005h-.01c-.01 0-.015.003-.026.006a1.819 1.819 0 0 1-.423.19c-.03.18-.116.416-.177.593l-.76 2.178a.451.451 0 0 1-.432.323h-.008v.1c.164-.009.327-.018.492-.018.184 0 .372.009.554.017v-.1h-.032c-.154-.001-.37-.018-.377-.187.002-.093.06-.215.106-.375l.02.006-.02-.007.157-.507h1.106l.19.563c.053.153.096.28.096.35-.007.144-.206.155-.314.158h-.032v.1Zm-.97-1.397.456-1.384h.025v.02l-.006.002.005-.001v-.021h.015l.449 1.384h-.944Zm.057-.04h.83l-.412-1.272-.418 1.271Zm.404-1.317.01-.003-.01.003Zm3.053 2.31c0 .19.131.247.283.267.195.014.408.014.627-.01a.68.68 0 0 0 .456-.257 1.09 1.09 0 0 0 .147-.342h.137c-.052.271-.119.537-.175.807-.417 0-.836-.018-1.253-.018-.418 0-.836.018-1.253.018v-.142h.066c.17 0 .356-.024.356-.318v-2.44c0-.247-.185-.27-.357-.27h-.065v-.143c.25 0 .498.019.75.019.242 0 .479-.019.721-.019v.142h-.119c-.18 0-.322.006-.322.257v2.449" fill="#1A1919"/><path fill-rule="evenodd" clip-rule="evenodd" d="M48.635 34.56c-.419 0-.837-.019-1.253-.019-.418 0-.836.02-1.254.02h-.02v-.184h.086c.172-.004.335-.016.337-.297v-2.44c-.002-.231-.164-.247-.337-.25h-.086v-.184h.02c.253 0 .5.019.75.019.242 0 .478-.019.722-.019h.02v.184h-.139c-.184.005-.298-.003-.303.236v2.449c.002.177.118.225.266.246a3.816 3.816 0 0 0 .623-.01.664.664 0 0 0 .442-.248c.073-.101.114-.231.143-.335l.004-.015h.179l-.004.025c-.054.271-.12.536-.177.806l-.004.017h-.015Zm-.018-.04c.055-.258.117-.51.169-.766h-.098c-.03.103-.072.23-.146.334a.705.705 0 0 1-.47.264 3.636 3.636 0 0 1-.632.009c-.154-.017-.303-.083-.303-.286v-2.449c0-.264.167-.278.344-.278h.098v-.1c-.234 0-.465.019-.701.019-.245 0-.486-.018-.729-.02v.101h.045c.17 0 .377.03.377.292v2.44c0 .307-.206.339-.377.339h-.045v.1c.41 0 .82-.018 1.233-.018.412 0 .824.018 1.235.019Z" fill="#1A1919"/><path fill-rule="evenodd" clip-rule="evenodd" d="M19.106 14.47a8.039 8.039 0 1 1 16.078 0 8.039 8.039 0 0 1-16.078 0" fill="#FFFFFE"/><path fill-rule="evenodd" clip-rule="evenodd" d="M32.006 14.312a4.836 4.836 0 0 0-3.103-4.51v9.019a4.836 4.836 0 0 0 3.103-4.51Zm-6.562 4.507V9.803a4.84 4.84 0 0 0-3.101 4.509 4.839 4.839 0 0 0 3.101 4.507Zm1.73-12.13a7.621 7.621 0 1 0 0 15.244 7.623 7.623 0 0 0 0-15.244Zm-.018 15.963c-4.607.022-8.399-3.71-8.399-8.253 0-4.966 3.792-8.4 8.399-8.399h2.159c4.552 0 8.707 3.432 8.707 8.399 0 4.541-4.155 8.253-8.707 8.253h-2.16Z" fill="#0069AA"/><path fill-rule="evenodd" clip-rule="evenodd" d="M8.02 34.398h.067c.171 0 .351-.024.351-.27V31.64c0-.248-.18-.271-.35-.271H8.02v-.143c.185 0 .47.019.703.019.237 0 .521-.019.744-.019v.143H9.4c-.17 0-.35.023-.35.27v2.487c0 .247.18.27.35.27h.067v.143c-.227 0-.513-.018-.75-.018-.232 0-.512.018-.697.018v-.142" fill="#1A1919"/><path fill-rule="evenodd" clip-rule="evenodd" d="M9.468 34.56c-.23 0-.513-.019-.75-.019-.232 0-.511.02-.697.02H8v-.184h.087c.172-.004.329-.018.33-.25v-2.486c-.001-.233-.158-.248-.33-.25H8v-.185h.02c.187 0 .472.019.704.019.236 0 .52-.019.744-.019h.022v.184h-.088c-.172.003-.33.018-.33.25v2.487c0 .232.158.246.33.25h.088v.183h-.022Zm-.02-.04v-.101h-.046c-.17 0-.371-.03-.372-.292v-2.486c0-.263.203-.292.372-.292h.046v-.102c-.22 0-.494.02-.724.02-.226 0-.499-.018-.683-.02v.102h.046c.17 0 .371.03.371.292v2.486c0 .262-.202.292-.371.292h-.046v.1c.184 0 .452-.018.677-.018.232 0 .506.018.73.019Zm39.304-3.428c.287 0 .5.22.5.501a.49.49 0 0 1-.5.499.49.49 0 0 1-.5-.499c0-.28.215-.5.5-.5Zm0 .907c.224 0 .396-.19.396-.406a.403.403 0 0 0-.396-.407.404.404 0 0 0-.396.407c0 .215.171.406.396.406Zm-.248-.142v-.024c.06-.01.072-.008.072-.045v-.37c0-.052-.005-.07-.07-.068v-.025h.256c.087 0 .168.042.168.133 0 .074-.048.13-.118.15l.083.115a.53.53 0 0 0 .11.118v.016h-.098c-.046 0-.088-.098-.18-.23h-.055v.166c0 .032.012.03.073.04v.024h-.241Zm.168-.264h.06c.064 0 .093-.048.093-.127 0-.08-.046-.108-.097-.108h-.056v.235Z" fill="#1A1919"/></svg>