<svg width="58" height="40" viewBox="0 0 58 40" fill="none" xmlns="http://www.w3.org/2000/svg">
<rect x="0.5" y="0.5" width="57" height="39" rx="3.5" fill="white" stroke="#F3F3F3"/>
<path fill-rule="evenodd" clip-rule="evenodd" d="M8.83219 24.2047C8.83219 23.4203 8.42237 23.4718 8.03033 23.4636V23.2368C8.37026 23.2533 8.71882 23.2533 9.05965 23.2533C9.42581 23.2533 9.92294 23.2368 10.5688 23.2368C12.8276 23.2368 14.058 24.7451 14.058 26.2897C14.058 27.1541 13.552 29.3255 10.4639 29.3255C10.0194 29.3255 9.60889 29.3083 9.19907 29.3083C8.80685 29.3083 8.42237 29.3164 8.03033 29.3255V29.0986C8.55316 29.0458 8.80685 29.0287 8.83219 28.4357V24.2047ZM9.68704 28.2957C9.68704 28.9676 10.1673 29.0458 10.5945 29.0458C12.4792 29.0458 13.0977 27.6243 13.0977 26.3247C13.0977 24.6936 12.0511 23.5162 10.3678 23.5162C10.0094 23.5162 9.84443 23.5417 9.68704 23.5511V28.2957Z" fill="#1A1919"/>
<path fill-rule="evenodd" clip-rule="evenodd" d="M14.3636 29.0987H14.5289C14.7731 29.0987 14.9477 29.0987 14.9477 28.8102V26.4465C14.9477 26.0633 14.8171 26.0103 14.4939 25.8363V25.6971C14.9039 25.5738 15.3928 25.4093 15.4273 25.383C15.4887 25.348 15.5403 25.3387 15.5847 25.3387C15.6274 25.3387 15.6454 25.3911 15.6454 25.4616V28.8102C15.6454 29.0987 15.8376 29.0987 16.0822 29.0987H16.2298V29.3256C15.9332 29.3256 15.6274 29.3084 15.3144 29.3084C15.0004 29.3084 14.6861 29.3165 14.3636 29.3256V29.0987ZM15.2968 23.9958C15.0696 23.9958 14.8694 23.7865 14.8694 23.5598C14.8694 23.3413 15.0791 23.1403 15.2968 23.1403C15.5232 23.1403 15.7244 23.3241 15.7244 23.5598C15.7244 23.7957 15.532 23.9958 15.2968 23.9958Z" fill="#1A1919"/>
<path fill-rule="evenodd" clip-rule="evenodd" d="M17.0588 26.4989C17.0588 26.1768 16.9625 26.0896 16.5532 25.9236V25.758C16.9276 25.636 17.285 25.5221 17.7042 25.3386C17.7306 25.3386 17.7559 25.3561 17.7559 25.4258V25.993C18.2539 25.636 18.6814 25.3386 19.2667 25.3386C20.0071 25.3386 20.2687 25.8796 20.2687 26.56V28.8101C20.2687 29.0987 20.4612 29.0987 20.7051 29.0987H20.8625V29.3256C20.5562 29.3256 20.2513 29.3084 19.9376 29.3084C19.6234 29.3084 19.3091 29.3164 18.9951 29.3256V29.0987H19.1525C19.3968 29.0987 19.5705 29.0987 19.5705 28.8101V26.5519C19.5705 26.0541 19.2667 25.8101 18.7689 25.8101C18.4895 25.8101 18.0446 26.0364 17.7559 26.2292V28.8101C17.7559 29.0987 17.9487 29.0987 18.193 29.0987H18.3497V29.3256C18.0446 29.3256 17.7392 29.3084 17.4246 29.3084C17.1113 29.3084 16.7969 29.3164 16.4832 29.3256V29.0987H16.6405C16.8845 29.0987 17.0588 29.0987 17.0588 28.8101V26.4989" fill="#1A1919"/>
<path fill-rule="evenodd" clip-rule="evenodd" d="M21.5255 26.9183C21.5077 26.9968 21.5077 27.1274 21.5255 27.4242C21.5769 28.2526 22.1102 28.9327 22.8073 28.9327C23.2877 28.9327 23.663 28.6709 23.9852 28.3488L24.107 28.4709C23.7056 29.0029 23.2086 29.4568 22.4939 29.4568C21.1065 29.4568 20.8275 28.1127 20.8275 27.5548C20.8275 25.8449 21.9786 25.3386 22.5886 25.3386C23.296 25.3386 24.0554 25.7835 24.0635 26.7084C24.0635 26.7614 24.0635 26.8131 24.0554 26.8656L23.9765 26.9183H21.5255ZM23.0701 26.6389C23.2877 26.6389 23.3132 26.5253 23.3132 26.4202C23.3132 25.9761 23.043 25.6184 22.5543 25.6184C22.0227 25.6184 21.6561 26.0102 21.5516 26.6389H23.0701Z" fill="#1A1919"/>
<path fill-rule="evenodd" clip-rule="evenodd" d="M24.2645 29.0987H24.5002C24.7435 29.0987 24.9182 29.0987 24.9182 28.8101V26.3595C24.9182 26.0896 24.5957 26.0364 24.4647 25.9667V25.8363C25.1014 25.5657 25.4505 25.3386 25.5303 25.3386C25.5813 25.3386 25.6075 25.3649 25.6075 25.4525V26.2377H25.6259C25.8433 25.8976 26.2103 25.3386 26.7421 25.3386C26.9601 25.3386 27.2389 25.4868 27.2389 25.8011C27.2389 26.0364 27.074 26.2468 26.8298 26.2468C26.5585 26.2468 26.5585 26.0364 26.2529 26.0364C26.1049 26.0364 25.6163 26.2377 25.6163 26.7614V28.8101C25.6163 29.0987 25.7906 29.0987 26.035 29.0987H26.5229V29.3256C26.0432 29.3164 25.6781 29.3084 25.3026 29.3084C24.9449 29.3084 24.5784 29.3164 24.2645 29.3256V29.0987" fill="#1A1919"/>
<path fill-rule="evenodd" clip-rule="evenodd" d="M27.6225 28.1126C27.7362 28.6883 28.0844 29.1775 28.7224 29.1775C29.2362 29.1775 29.428 28.8631 29.428 28.558C29.428 27.5282 27.5269 27.86 27.5269 26.4557C27.5269 25.9667 27.9197 25.3387 28.8793 25.3387C29.1579 25.3387 29.5329 25.4178 29.8728 25.5924L29.9341 26.4814H29.7336C29.6464 25.9322 29.3415 25.6183 28.7826 25.6183C28.4337 25.6183 28.1026 25.8186 28.1026 26.1938C28.1026 27.215 30.1258 26.9004 30.1258 28.27C30.1258 28.8453 29.664 29.4567 28.6256 29.4567C28.277 29.4567 27.8663 29.3344 27.5619 29.1599L27.4655 28.1566L27.6225 28.1126" fill="#1A1919"/>
<path fill-rule="evenodd" clip-rule="evenodd" d="M38.0025 24.8152H37.785C37.619 23.7956 36.8949 23.3851 35.9186 23.3851C34.9143 23.3851 33.4581 24.0563 33.4581 26.1498C33.4581 27.9125 34.7146 29.1775 36.0576 29.1775C36.9204 29.1775 37.6373 28.5841 37.8114 27.6676L38.0121 27.7197L37.8114 28.9937C37.445 29.2208 36.459 29.4567 35.8827 29.4567C33.8424 29.4567 32.5515 28.1393 32.5515 26.1767C32.5515 24.388 34.1478 23.1053 35.8575 23.1053C36.5638 23.1053 37.244 23.3328 37.9158 23.5685L38.0025 24.8152" fill="#1A1919"/>
<path fill-rule="evenodd" clip-rule="evenodd" d="M38.3175 29.0987H38.4826C38.7277 29.0987 38.9018 29.0987 38.9018 28.8102V23.9527C38.9018 23.3851 38.7712 23.3679 38.4393 23.2717V23.132C38.7881 23.0188 39.1548 22.8621 39.3384 22.7566C39.4331 22.7051 39.5035 22.6605 39.5292 22.6605C39.5825 22.6605 39.5998 22.7135 39.5998 22.7836V28.8102C39.5998 29.0987 39.7919 29.0987 40.0358 29.0987H40.1835V29.3256C39.8878 29.3256 39.5825 29.3084 39.2683 29.3084C38.9544 29.3084 38.6407 29.3165 38.3175 29.3256V29.0987" fill="#1A1919"/>
<path fill-rule="evenodd" clip-rule="evenodd" d="M43.9183 28.8453C43.9183 29.0029 44.0137 29.0111 44.1616 29.0111C44.2668 29.0111 44.3971 29.0029 44.5114 29.0029V29.1865C44.136 29.221 43.4204 29.4043 43.2544 29.4567L43.2109 29.4301V28.7235C42.6881 29.1507 42.2864 29.4567 41.6662 29.4567C41.1953 29.4567 40.7071 29.1507 40.7071 28.419V26.1852C40.7071 25.9581 40.6724 25.74 40.1846 25.697V25.5308C40.4989 25.5222 41.1953 25.4701 41.309 25.4701C41.4058 25.4701 41.4058 25.5308 41.4058 25.7231V27.9734C41.4058 28.2353 41.4058 28.9847 42.1646 28.9847C42.4606 28.9847 42.8532 28.7585 43.2194 28.4536V26.1065C43.2194 25.9322 42.8009 25.8363 42.4874 25.7495V25.5926C43.2717 25.5394 43.7607 25.4701 43.8479 25.4701C43.9183 25.4701 43.9183 25.5308 43.9183 25.6271V28.8453" fill="#1A1919"/>
<path fill-rule="evenodd" clip-rule="evenodd" d="M45.6536 25.9668C46.0024 25.6708 46.4736 25.3386 46.9533 25.3386C47.9654 25.3386 48.5761 26.2206 48.5761 27.1712C48.5761 28.3136 47.7383 29.4568 46.4903 29.4568C45.8455 29.4568 45.5052 29.2467 45.278 29.1508L45.0171 29.3515L44.8342 29.2559C44.9122 28.7413 44.9562 28.2354 44.9562 27.703V23.9527C44.9562 23.3851 44.8248 23.3679 44.4933 23.2717V23.132C44.8426 23.0188 45.2086 22.8621 45.3917 22.7566C45.488 22.7051 45.5575 22.6605 45.5841 22.6605C45.636 22.6605 45.6536 22.7137 45.6536 22.7836V25.9668ZM45.6536 28.3396C45.6536 28.6709 45.9679 29.2297 46.5521 29.2297C47.4853 29.2297 47.8777 28.3136 47.8777 27.5369C47.8777 26.595 47.1632 25.8101 46.483 25.8101C46.1589 25.8101 45.889 26.0198 45.6536 26.2206V28.3396Z" fill="#1A1919"/>
<path fill-rule="evenodd" clip-rule="evenodd" d="M12.7292 33.6048L12.7387 33.5954V31.816C12.7387 31.4265 12.4678 31.3695 12.3255 31.3695H12.2209V31.2271C12.4444 31.2271 12.6627 31.2459 12.8855 31.2459C13.0801 31.2459 13.2755 31.2271 13.4694 31.2271V31.3695H13.3988C13.1988 31.3695 12.9757 31.4074 12.9757 31.9723V34.1319C12.9757 34.2983 12.9804 34.4643 13.0037 34.6116H12.8233L10.3793 31.8866V33.8426C10.3793 34.2559 10.4596 34.3976 10.8251 34.3976H10.9059V34.5403C10.7018 34.5403 10.4979 34.5218 10.2938 34.5218C10.0807 34.5218 9.86206 34.5403 9.64825 34.5403V34.3976H9.71491C10.0423 34.3976 10.142 34.1745 10.142 33.7959V31.7961C10.142 31.5305 9.92296 31.3695 9.71024 31.3695H9.64825V31.2271C9.82828 31.2271 10.0137 31.2459 10.1937 31.2459C10.3366 31.2459 10.4742 31.2271 10.6165 31.2271L12.7292 33.6048" fill="#1A1919"/>
<path fill-rule="evenodd" clip-rule="evenodd" d="M13.0037 34.6315L12.8083 34.6248L10.3995 31.9401V33.8425C10.4052 34.2552 10.4679 34.3726 10.8253 34.3771H10.927V34.5605H10.9059C10.7006 34.5605 10.4963 34.5415 10.2938 34.5415C10.0813 34.5415 9.86316 34.5605 9.6481 34.5605H9.62726V34.3771H9.71494C10.0286 34.3753 10.1183 34.1737 10.1217 33.7957V31.7967C10.1208 31.5439 9.91347 31.3901 9.71044 31.3901H9.62726V31.2063H9.6481C9.82956 31.2063 10.0153 31.2248 10.1934 31.2248C10.335 31.2248 10.4721 31.2063 10.6321 31.2137L12.7181 33.5617V31.8159C12.7157 31.439 12.4638 31.3932 12.3257 31.3901H12.2001V31.2063H12.2211C12.4453 31.2063 12.6638 31.2248 12.8855 31.2248C13.0787 31.2248 13.2732 31.2063 13.4694 31.2063H13.4903V31.3901H13.3988C13.2028 31.3951 13.0018 31.4124 12.996 31.9722V34.1318C12.996 34.298 13.0012 34.4637 13.024 34.6077L13.0284 34.6315H13.0037ZM12.8235 34.5901H12.9806C12.9594 34.4473 12.9556 34.2897 12.9556 34.1318V31.9722C12.9556 31.4025 13.1944 31.3488 13.3988 31.3484H13.4488V31.2474C13.2617 31.2489 13.0743 31.2661 12.8855 31.2661C12.6681 31.2661 12.4568 31.2489 12.2423 31.2474L12.2418 31.3484H12.3257C12.4716 31.3488 12.7592 31.4136 12.7592 31.8159L12.7529 33.6102L12.7436 33.6194L12.7274 33.6347L10.6165 31.2474C10.4755 31.2474 10.3382 31.2661 10.1934 31.2661C10.0195 31.2661 9.84124 31.2489 9.66912 31.2474L9.66822 31.3484H9.71044C9.93305 31.3488 10.1621 31.5187 10.1621 31.7967V33.7957C10.1621 34.1755 10.0563 34.418 9.71494 34.4193L9.66912 34.418V34.5199C9.87466 34.5183 10.0865 34.5008 10.2938 34.5008C10.4918 34.5008 10.6894 34.5183 10.8853 34.5199V34.4193H10.8253C10.4517 34.418 10.3592 34.2552 10.3589 33.8425V31.8333L12.8235 34.5901ZM12.7294 33.6047L12.7443 33.591L12.7294 33.6047ZM12.7181 33.5953V33.5935L12.7143 33.5905L12.7181 33.5953Z" fill="#1A1919"/>
<path fill-rule="evenodd" clip-rule="evenodd" d="M14.1807 31.4643C13.8243 31.4643 13.8104 31.5502 13.7393 31.8962H13.5968C13.6155 31.7633 13.639 31.6305 13.6538 31.4929C13.6728 31.3594 13.6823 31.227 13.6823 31.0897H13.7961C13.8343 31.2322 13.9529 31.227 14.0817 31.227H16.5299C16.6587 31.227 16.7771 31.2223 16.7868 31.0798L16.9002 31.0992C16.8818 31.227 16.8624 31.3553 16.8486 31.4837C16.8392 31.6118 16.8392 31.7396 16.8392 31.8677L16.6966 31.9205C16.6869 31.7451 16.6634 31.4643 16.3453 31.4643H15.5668V33.9895C15.5668 34.3557 15.7332 34.3976 15.9607 34.3976H16.0512V34.5402C15.866 34.5402 15.5336 34.5219 15.2778 34.5219C14.9926 34.5219 14.6601 34.5402 14.4748 34.5402V34.3976H14.5654C14.827 34.3976 14.9592 34.3742 14.9592 33.9994V31.4643H14.1807" fill="#1A1919"/>
<path fill-rule="evenodd" clip-rule="evenodd" d="M16.0516 34.5605C15.8645 34.5605 15.5325 34.5417 15.2777 34.5417C14.993 34.5417 14.6609 34.5605 14.4748 34.5605H14.4545V34.3771H14.5654C14.827 34.371 14.9321 34.3676 14.938 33.9994V31.4847H14.1807V31.4431H14.9791V33.9994C14.9791 34.3805 14.8255 34.419 14.5654 34.4193H14.4951V34.5196C14.6823 34.5183 15.0021 34.5009 15.2777 34.5009C15.5248 34.5009 15.8419 34.5183 16.03 34.5196V34.4193H15.9607C15.731 34.419 15.5463 34.3626 15.5463 33.9896V31.4431H16.3453C16.6637 31.4444 16.7059 31.715 16.7158 31.8916L16.8186 31.8537C16.8186 31.7297 16.8191 31.6056 16.8275 31.4809C16.8416 31.3582 16.8588 31.2376 16.8766 31.116L16.8045 31.1039C16.7824 31.2421 16.6486 31.2495 16.5297 31.2477H14.0569C13.9451 31.2478 13.8235 31.2425 13.7808 31.11H13.7024C13.7017 31.2412 13.6927 31.3686 13.6748 31.4951C13.6606 31.6255 13.6388 31.7507 13.6216 31.8765H13.7229C13.7852 31.5454 13.8259 31.4385 14.1807 31.4431V31.4847C13.8291 31.4917 13.8368 31.5504 13.7594 31.9011L13.756 31.9173H13.5731L13.5756 31.8927C13.595 31.7603 13.6191 31.6269 13.6329 31.4891C13.6527 31.3574 13.6616 31.2258 13.6616 31.0897V31.0687H13.8124L13.816 31.0836C13.8479 31.2033 13.9358 31.2042 14.0569 31.2063H16.5297C16.6619 31.2042 16.7582 31.2024 16.7663 31.0782L16.7679 31.0558L16.7895 31.0601L16.9237 31.0813L16.9203 31.1023C16.9014 31.2297 16.8829 31.3574 16.8685 31.4847C16.8597 31.6119 16.8597 31.7394 16.8597 31.8677V31.8821L16.8459 31.8876L16.6779 31.9491L16.6768 31.9216C16.6637 31.743 16.6454 31.4847 16.3453 31.4847H15.5877V33.9896C15.5923 34.3475 15.7343 34.3726 15.9607 34.3771H16.0717V34.5605H16.0516" fill="#1A1919"/>
<path fill-rule="evenodd" clip-rule="evenodd" d="M17.0518 34.3976H17.1187C17.289 34.3976 17.4699 34.3743 17.4699 34.1272V31.6406C17.4699 31.3932 17.289 31.3697 17.1187 31.3697H17.0518V31.2271C17.3404 31.2271 17.8352 31.2459 18.2331 31.2459C18.6325 31.2459 19.1255 31.2271 19.4482 31.2271C19.4399 31.4312 19.4444 31.7452 19.4585 31.9536L19.3154 31.9914C19.2926 31.6827 19.2357 31.4365 18.7371 31.4365H18.0781V32.6793H18.6419C18.9266 32.6793 18.9886 32.5185 19.0168 32.2619H19.1591C19.1496 32.4473 19.1446 32.6324 19.1446 32.8173C19.1446 32.998 19.1496 33.1782 19.1591 33.3583L19.0168 33.3866C18.9886 33.1022 18.9744 32.9172 18.6465 32.9172H18.0781V34.0225C18.0781 34.3315 18.3522 34.3315 18.6562 34.3315C19.226 34.3315 19.4773 34.2932 19.6198 33.7528L19.7522 33.7855C19.6906 34.0376 19.634 34.2884 19.5914 34.5403C19.2872 34.5403 18.7414 34.522 18.3151 34.522C17.8869 34.522 17.3226 34.5403 17.0518 34.5403V34.3976" fill="#1A1919"/>
<path fill-rule="evenodd" clip-rule="evenodd" d="M19.591 34.5605C19.2865 34.5605 18.7403 34.5407 18.3145 34.5407C17.8869 34.5407 17.3227 34.5605 17.0516 34.5605H17.0317V34.3771H17.1185C17.2902 34.3742 17.4465 34.3591 17.4487 34.1271V31.6406C17.4465 31.4086 17.2902 31.3932 17.1185 31.3901H17.0317V31.2063H17.0516C17.3416 31.2063 17.8353 31.2248 18.2331 31.2248C18.6321 31.2248 19.125 31.2063 19.4482 31.2063H19.4692L19.4685 31.2282C19.4654 31.2992 19.4635 31.3836 19.4635 31.4729C19.4635 31.637 19.4685 31.8168 19.4778 31.9519L19.4787 31.9688L19.4627 31.9737L19.2958 32.0173L19.2951 31.9929C19.2671 31.6849 19.2258 31.4609 18.7371 31.4562H18.0973L18.0969 32.6584H18.6417C18.9153 32.6555 18.9642 32.5157 18.9965 32.2597L18.9976 32.2406H19.1801L19.1798 32.2624C19.1706 32.4478 19.165 32.6323 19.165 32.8172C19.165 32.9967 19.1706 33.1769 19.1798 33.3573L19.1801 33.3745L19.1629 33.3785L18.9976 33.4113L18.9965 33.3891C18.9636 33.0993 18.9615 32.9404 18.6465 32.937H18.0973V34.0224C18.098 34.3109 18.3467 34.3093 18.656 34.3109C19.2276 34.3075 19.4565 34.2795 19.5995 33.7471L19.6043 33.7279L19.6243 33.7312L19.7764 33.7707L19.7721 33.7903C19.7105 34.0414 19.6539 34.2924 19.611 34.5436L19.6074 34.5605H19.591ZM19.5734 34.5195C19.6149 34.2795 19.669 34.0398 19.7272 33.8009L19.6338 33.7773C19.4917 34.3082 19.2162 34.3557 18.656 34.3521C18.3569 34.3521 18.0579 34.3521 18.0563 34.0224V32.8964H18.6465C18.978 32.893 19.0114 33.0928 19.0351 33.3628L19.1376 33.3418C19.1284 33.1668 19.1237 32.9911 19.1237 32.8172C19.1237 32.639 19.1284 32.4611 19.1376 32.282H19.0351C19.0084 32.5299 18.9309 32.7029 18.6417 32.6999H18.0563V31.4151H18.7371C19.2306 31.4111 19.3124 31.6666 19.3339 31.9652L19.4362 31.9374C19.4279 31.8035 19.4223 31.6314 19.4223 31.4729C19.4223 31.3917 19.4245 31.3146 19.4272 31.2474C19.1047 31.2489 18.6233 31.2661 18.2331 31.2661C17.8431 31.2661 17.363 31.2489 17.0725 31.2474V31.3484H17.1185C17.2873 31.3488 17.4893 31.3781 17.4904 31.6406V34.1271C17.4893 34.3891 17.2873 34.418 17.1185 34.4193H17.0725V34.5195C17.3488 34.5186 17.8975 34.5008 18.3145 34.5008C18.7335 34.5008 19.2675 34.5186 19.5734 34.5195Z" fill="#1A1919"/>
<path fill-rule="evenodd" clip-rule="evenodd" d="M20.3932 31.7298C20.3932 31.3837 20.2031 31.3695 20.0558 31.3695H19.9701V31.2271C20.1221 31.2271 20.4164 31.2459 20.7062 31.2459C20.9904 31.2459 21.2186 31.2271 21.4701 31.2271C22.0673 31.2271 22.6001 31.3882 22.6001 32.0627C22.6001 32.4896 22.3151 32.7503 21.9403 32.8983L22.7515 34.1127C22.8848 34.3135 22.979 34.3698 23.2122 34.3976V34.5403C23.0552 34.5403 22.9033 34.522 22.7472 34.522C22.6001 34.522 22.4475 34.5403 22.3011 34.5403C21.9353 34.0611 21.6218 33.5487 21.3135 33.002H21.0007V34.0184C21.0007 34.3838 21.1712 34.3976 21.3887 34.3976H21.4748V34.5403C21.2037 34.5403 20.9295 34.522 20.6584 34.522C20.4306 34.522 20.2074 34.5403 19.9701 34.5403V34.3976H20.0558C20.232 34.3976 20.3932 34.3173 20.3932 34.142V31.7298ZM21.0007 32.8308H21.2326C21.7078 32.8308 21.9637 32.6509 21.9637 32.0905C21.9637 31.6685 21.6931 31.3979 21.2702 31.3979C21.1277 31.3979 21.067 31.4125 21.0007 31.4171V32.8308Z" fill="#1A1919"/>
<path fill-rule="evenodd" clip-rule="evenodd" d="M23.2122 34.5605C23.053 34.5605 22.9021 34.5415 22.746 34.5415C22.6013 34.5415 22.4495 34.5605 22.2842 34.5526C21.92 34.0747 21.608 33.5651 21.3015 33.0233H21.021V34.0174C21.0262 34.3747 21.1694 34.372 21.3888 34.3771H21.4953V34.5605H21.4743C21.203 34.5605 20.9272 34.5415 20.6582 34.5415C20.4315 34.5415 20.2085 34.5605 19.9701 34.5605H19.9495V34.3771H20.0558C20.2265 34.3758 20.3708 34.3014 20.3715 34.1419V31.7297C20.3679 31.3932 20.2032 31.3948 20.0558 31.3901H19.9495V31.2063H19.9701C20.1237 31.2063 20.4168 31.2248 20.7062 31.2248C20.9896 31.2248 21.2172 31.2063 21.4702 31.2063C22.0686 31.2076 22.6193 31.3723 22.6207 32.0619C22.6207 32.4902 22.3376 32.7579 21.9716 32.9072L22.7686 34.1013C22.9014 34.2982 22.984 34.3474 23.2149 34.3771L23.2322 34.3798V34.5605H23.2122ZM21.0005 32.9814H21.3248L21.3307 32.992C21.6398 33.5373 21.9517 34.0499 22.3011 34.5199C22.4456 34.5199 22.5981 34.5008 22.746 34.5008C22.8974 34.5008 23.044 34.5174 23.1914 34.5195V34.4153C22.9689 34.3882 22.8644 34.321 22.7348 34.1243L21.9085 32.8887L21.9319 32.8792C22.3036 32.7327 22.5791 32.4792 22.5792 32.0619C22.5791 31.4034 22.0668 31.2507 21.4702 31.2474C21.2202 31.2474 20.9921 31.2667 20.7062 31.2667C20.4274 31.2667 20.1457 31.2489 19.9904 31.2474V31.3484H20.0558C20.2032 31.3488 20.4128 31.3732 20.4128 31.7297V34.1419C20.4128 34.3323 20.2344 34.4189 20.0558 34.4193H19.9904V34.5195C20.2186 34.5186 20.4353 34.5008 20.6582 34.5008C20.9233 34.5008 21.1913 34.5186 21.4538 34.5195V34.4193H21.3888C21.1726 34.4189 20.9795 34.3921 20.9795 34.0174V32.9814H21.0005ZM21.0005 32.8511H20.9795V31.3978L20.9976 31.3964C21.0627 31.3912 21.1266 31.3781 21.2702 31.3781C21.7025 31.3781 21.984 31.6589 21.9844 32.0917C21.9831 32.6584 21.7115 32.851 21.2326 32.8511H21.0005ZM21.2326 32.8107C21.7025 32.8061 21.9393 32.6431 21.9439 32.0917C21.9411 31.677 21.6836 31.4197 21.2702 31.4179C21.1421 31.4179 21.0815 31.4298 21.021 31.4357V32.8107H21.2326Z" fill="#1A1919"/>
<path fill-rule="evenodd" clip-rule="evenodd" d="M26.4347 33.6048L26.443 33.5954V31.816C26.443 31.4265 26.1733 31.3695 26.0308 31.3695H25.9268V31.2271C26.1499 31.2271 26.3675 31.2459 26.5912 31.2459C26.7863 31.2459 26.9794 31.2271 27.1755 31.2271V31.3695H27.104C26.9045 31.3695 26.6816 31.4074 26.6816 31.9723V34.1319C26.6816 34.2983 26.6862 34.4643 26.7096 34.6116H26.5299L24.0857 31.8866V33.8426C24.0857 34.2559 24.1659 34.3976 24.5313 34.3976H24.6122V34.5403C24.4082 34.5403 24.2038 34.5218 23.9998 34.5218C23.7855 34.5218 23.5676 34.5403 23.3541 34.5403V34.3976H23.4201C23.7478 34.3976 23.848 34.1745 23.848 33.7959V31.7961C23.848 31.5305 23.6294 31.3695 23.4159 31.3695H23.3541V31.2271C23.5338 31.2271 23.7203 31.2459 23.9003 31.2459C24.0414 31.2459 24.1797 31.2271 24.3224 31.2271L26.4347 33.6048" fill="#1A1919"/>
<path fill-rule="evenodd" clip-rule="evenodd" d="M26.7094 34.6315L26.5145 34.6248L24.1053 31.9404V33.8424C24.1109 34.2558 24.1734 34.3726 24.5313 34.3771H24.6319V34.5605H24.6113C24.4061 34.5605 24.2024 34.5407 23.999 34.5407C23.7871 34.5407 23.5678 34.5605 23.354 34.5605H23.3328V34.3771H23.4201C23.7336 34.3758 23.8234 34.1737 23.8265 33.7946V31.796C23.8259 31.543 23.619 31.3901 23.4159 31.3901H23.3328V31.2063H23.354C23.5352 31.2063 23.721 31.2248 23.9002 31.2248C24.0396 31.2248 24.177 31.2063 24.3362 31.2124L26.4229 33.5617V31.8159C26.4216 31.439 26.1688 31.3923 26.0308 31.3901H25.9056V31.2063H25.9263C26.1505 31.2063 26.3693 31.2248 26.5912 31.2248C26.7845 31.2248 26.9789 31.2063 27.1746 31.2063H27.1956V31.3901H27.104C26.9081 31.3948 26.7064 31.4124 26.7017 31.9722V34.1318C26.7017 34.298 26.7058 34.4626 26.7301 34.6081L26.7324 34.6315H26.7094ZM26.5298 34.5901H26.6853C26.6645 34.4482 26.6604 34.2897 26.6604 34.1318V31.9722C26.6607 31.4025 26.9008 31.3497 27.104 31.3484H27.1539V31.2474C26.9671 31.2489 26.7795 31.2661 26.5912 31.2661C26.3731 31.2661 26.1616 31.2489 25.9469 31.2474V31.3484H26.0308C26.1771 31.3497 26.4645 31.4136 26.4645 31.8159L26.4577 33.6102L26.4491 33.6194L26.4342 33.635L24.3224 31.2474C24.1812 31.2474 24.0435 31.2661 23.9002 31.2661C23.7241 31.2661 23.5467 31.2489 23.3743 31.2474V31.3484H23.4159C23.6393 31.3497 23.8676 31.518 23.8676 31.796V33.7946C23.8676 34.1755 23.7604 34.418 23.4201 34.4193L23.3743 34.4189V34.5197C23.5793 34.5183 23.7907 34.5008 23.999 34.5008C24.198 34.5008 24.3953 34.5183 24.5915 34.5197V34.4193H24.5313C24.1578 34.4189 24.0647 34.2558 24.0636 33.8424V31.8341L26.5298 34.5901ZM26.4342 33.6047L26.4496 33.591L26.4342 33.6047ZM26.4229 33.5953V33.5941L26.4194 33.5905L26.4229 33.5953Z" fill="#1A1919"/>
<path fill-rule="evenodd" clip-rule="evenodd" d="M27.9385 33.8616C27.8907 34.0224 27.8334 34.1471 27.8334 34.2314C27.8334 34.3742 28.0334 34.3977 28.1895 34.3977H28.2425V34.5402C28.0519 34.53 27.8582 34.5219 27.6672 34.5219C27.4963 34.5219 27.3264 34.53 27.155 34.5402V34.3977H27.1839C27.3686 34.3977 27.5258 34.2883 27.5962 34.0889L28.3557 31.911C28.4177 31.7349 28.5032 31.4977 28.5321 31.3217C28.683 31.2697 28.8737 31.1754 28.9635 31.1177C28.9782 31.1129 28.987 31.108 29.0014 31.108C29.0158 31.108 29.0246 31.108 29.035 31.1229C29.049 31.1605 29.0628 31.2033 29.0776 31.2412L29.9513 33.724C30.0083 33.8896 30.0647 34.0652 30.1254 34.2084C30.1833 34.3415 30.283 34.3977 30.4402 34.3977H30.4686V34.5402C30.2548 34.53 30.0406 34.5219 29.8139 34.5219C29.5812 34.5219 29.3431 34.53 29.1011 34.5402V34.3977H29.1534C29.2619 34.3977 29.4482 34.3789 29.4482 34.2601C29.4482 34.1988 29.4053 34.0706 29.3523 33.918L29.1674 33.3677H28.0901L27.9385 33.8616ZM28.6315 31.7588H28.6216L28.1805 33.1022H29.0673L28.6315 31.7588Z" fill="#1A1919"/>
<path fill-rule="evenodd" clip-rule="evenodd" d="M30.4672 34.5605C30.2539 34.5514 30.0399 34.5408 29.8139 34.5408C29.5812 34.5408 29.3444 34.5514 29.1022 34.5605L29.0803 34.5616V34.3762H29.1534C29.2634 34.3762 29.4265 34.3516 29.4269 34.2601C29.428 34.206 29.3854 34.076 29.3331 33.925L29.1524 33.388H28.1054L27.9578 33.8677C27.91 34.0291 27.8523 34.1545 27.8532 34.2317C27.8548 34.3476 28.032 34.3762 28.1895 34.3762H28.2625V34.5616L28.2409 34.5605C28.0512 34.5514 27.8575 34.5408 27.6676 34.5408C27.4982 34.5408 27.3266 34.5514 27.1566 34.5605L27.1345 34.5616V34.3762H27.1838C27.3602 34.3758 27.5075 34.275 27.5761 34.0822L28.3363 31.9036C28.3976 31.7279 28.4838 31.4918 28.5248 31.3021C28.6737 31.2516 28.8647 31.1558 28.9558 31.0985C28.9691 31.0938 28.9822 31.0877 29.0013 31.0877C29.0129 31.087 29.0385 31.0901 29.0539 31.1149C29.0674 31.1539 29.0825 31.1964 29.0968 31.2347L29.9707 33.7172C30.0266 33.8834 30.0834 34.0587 30.1456 34.1994C30.2005 34.3259 30.2877 34.3758 30.4402 34.3762H30.4882V34.5616L30.4672 34.5605ZM29.1218 34.5183C29.3566 34.51 29.5872 34.5009 29.8139 34.5009C30.034 34.5009 30.241 34.51 30.4472 34.5183V34.4189H30.4402C30.2774 34.42 30.1655 34.3561 30.1073 34.2161C30.0455 34.0727 29.9878 33.8965 29.9318 33.7303L29.0579 31.2476C29.0435 31.2097 29.03 31.1673 29.0176 31.1336C29.0129 31.1289 29.014 31.1289 29.0102 31.1289H29.0013C28.9917 31.1289 28.986 31.1318 28.9738 31.1348C28.8825 31.1941 28.6922 31.2877 28.551 31.3247C28.5221 31.5046 28.4366 31.7417 28.3749 31.9176L27.6155 34.0957C27.5433 34.302 27.3764 34.4193 27.1838 34.4189H27.1758V34.5183C27.3386 34.51 27.5028 34.5009 27.6676 34.5009C27.8512 34.5009 28.0384 34.51 28.2201 34.5183V34.4189H28.1895C28.0345 34.4168 27.8185 34.3999 27.8131 34.2317C27.8135 34.1376 27.8717 34.0161 27.9182 33.8557L27.9384 33.8616L27.9182 33.8551L28.0745 33.3479H29.1813L29.3714 33.9116C29.4247 34.0643 29.4679 34.1908 29.4679 34.2601C29.4608 34.4055 29.2611 34.4162 29.1534 34.4189H29.1218V34.5183ZM28.1516 33.1226L28.606 31.7378H28.6315V31.7588L28.6265 31.7602L28.6315 31.7588V31.7378H28.6457L29.0968 33.1226H28.1516ZM28.2084 33.0811H29.0393L28.6263 31.8093L28.2084 33.0811ZM28.6108 31.7649L28.6218 31.7615L28.6108 31.7649Z" fill="#1A1919"/>
<path fill-rule="evenodd" clip-rule="evenodd" d="M30.6772 31.4643C30.3212 31.4643 30.3069 31.5502 30.2354 31.8962H30.0927C30.1114 31.7633 30.1357 31.6305 30.1504 31.4929C30.1689 31.3594 30.1781 31.227 30.1781 31.0897H30.2929C30.3301 31.2322 30.449 31.227 30.5771 31.227H33.0267C33.1542 31.227 33.2728 31.2223 33.2822 31.0798L33.3957 31.0992C33.3781 31.227 33.3592 31.3553 33.3443 31.4837C33.3339 31.6118 33.3339 31.7396 33.3339 31.8677L33.1921 31.9205C33.1837 31.7451 33.1598 31.4643 32.8411 31.4643H32.0628V33.9895C32.0628 34.3557 32.2291 34.3976 32.4566 34.3976H32.5473V34.5402C32.3619 34.5402 32.0302 34.5219 31.7733 34.5219C31.4891 34.5219 31.156 34.5402 30.9709 34.5402V34.3976H31.0613C31.3229 34.3976 31.4553 34.3742 31.4553 33.9994V31.4643H30.6772" fill="#1A1919"/>
<path fill-rule="evenodd" clip-rule="evenodd" d="M32.5474 34.5605C32.3609 34.5605 32.0281 34.5417 31.773 34.5417C31.4895 34.5417 31.1571 34.5605 30.9711 34.5605H30.9501V34.3771H31.0613C31.3231 34.371 31.428 34.3676 31.4343 33.9994L31.434 31.4847H30.6772V31.4431H31.4758V33.9994C31.4758 34.3805 31.322 34.4181 31.0613 34.419H30.9914V34.5199C31.179 34.5183 31.4979 34.5009 31.773 34.5009C32.0211 34.5009 32.3388 34.5183 32.5261 34.5199V34.419H32.4564C32.2277 34.4181 32.0428 34.3631 32.0425 33.9896V31.4431H32.8411C33.16 31.4444 33.2015 31.715 33.2107 31.8916L33.3138 31.8537C33.3138 31.7297 33.3145 31.6056 33.3242 31.4814C33.337 31.3591 33.355 31.2376 33.3722 31.1165L33.3005 31.1039C33.2788 31.2421 33.1447 31.2498 33.0267 31.2477H30.5529C30.4409 31.2489 30.3198 31.2425 30.2767 31.1097H30.1991C30.198 31.241 30.1887 31.3686 30.17 31.4951C30.1571 31.626 30.1342 31.7516 30.1161 31.8765H30.2182C30.2805 31.5454 30.3216 31.4379 30.6772 31.4431V31.4847C30.3252 31.4908 30.333 31.5504 30.2555 31.9011L30.2521 31.9173H30.0688L30.0717 31.8938C30.0917 31.7603 30.115 31.6269 30.1289 31.4902C30.1483 31.3574 30.1571 31.2258 30.1571 31.0897V31.0687H30.3078L30.3118 31.0836C30.345 31.2033 30.4314 31.2042 30.5529 31.2063H33.0267C33.158 31.2042 33.2538 31.2024 33.2622 31.0786L33.263 31.0558L33.2851 31.0601L33.4198 31.0813L33.4166 31.1023C33.397 31.2297 33.379 31.3574 33.3647 31.4847C33.355 31.6119 33.355 31.7396 33.355 31.8677V31.8821L33.3411 31.8876L33.1731 31.9491L33.1724 31.9216C33.16 31.743 33.1411 31.4847 32.8411 31.4847H32.0833V33.9896C32.0881 34.3475 32.2302 34.3726 32.4564 34.3771H32.5671V34.5605H32.5474" fill="#1A1919"/>
<path fill-rule="evenodd" clip-rule="evenodd" d="M33.5714 34.3976H33.6379C33.8089 34.3976 33.9886 34.3743 33.9886 34.1272V31.6406C33.9886 31.3932 33.8089 31.3697 33.6379 31.3697H33.5714V31.2271C33.7566 31.2271 34.0409 31.2459 34.2732 31.2459C34.5111 31.2459 34.796 31.2271 35.0195 31.2271V31.3697H34.9529C34.7813 31.3697 34.6009 31.3932 34.6009 31.6406V34.1272C34.6009 34.3743 34.7813 34.3976 34.9529 34.3976H35.0195V34.5403C34.7915 34.5403 34.5064 34.522 34.2694 34.522C34.0364 34.522 33.7566 34.5403 33.5714 34.5403V34.3976" fill="#1A1919"/>
<path fill-rule="evenodd" clip-rule="evenodd" d="M35.0196 34.5605C34.7901 34.5605 34.5063 34.5407 34.2695 34.5407C34.0371 34.5407 33.7569 34.5605 33.5714 34.5605H33.5511V34.3771H33.6381C33.8091 34.3742 33.9669 34.3591 33.968 34.1271V31.6406C33.9669 31.4086 33.8091 31.3932 33.6381 31.3901H33.5511V31.2063H33.5714C33.7569 31.2063 34.0424 31.2248 34.2732 31.2248C34.5098 31.2248 34.7946 31.2063 35.0196 31.2063H35.0393V31.3901H34.9531C34.7793 31.3932 34.6232 31.4086 34.6216 31.6406V34.1271C34.6232 34.3591 34.7793 34.3742 34.9531 34.3771H35.0393V34.5605H35.0196ZM34.998 34.5195V34.4189H34.9531C34.7828 34.4189 34.5814 34.3891 34.5814 34.1271V31.6406C34.5814 31.3781 34.7828 31.3488 34.9531 31.3484H34.998V31.2474C34.7792 31.2489 34.5043 31.2661 34.2732 31.2661C34.0479 31.2661 33.7763 31.2489 33.5921 31.2474V31.3484H33.6381C33.8066 31.3488 34.0089 31.3781 34.0095 31.6406V34.1271C34.0089 34.3891 33.8066 34.4189 33.6381 34.4189H33.5921V34.5195C33.775 34.5174 34.0434 34.5008 34.2695 34.5008C34.4996 34.5008 34.7741 34.5183 34.998 34.5195Z" fill="#1A1919"/>
<path fill-rule="evenodd" clip-rule="evenodd" d="M36.9122 31.1559C37.9241 31.1559 38.7306 31.7831 38.7306 32.7941C38.7306 33.8859 37.9472 34.6116 36.9366 34.6116C35.9299 34.6116 35.1613 33.928 35.1613 32.9073C35.1613 31.9205 35.9253 31.1559 36.9122 31.1559ZM36.9839 34.4026C37.905 34.4026 38.0656 33.5904 38.0656 32.8983C38.0656 32.2046 37.6916 31.3648 36.9032 31.3648C36.0728 31.3648 35.8257 32.1054 35.8257 32.7409C35.8257 33.5904 36.2152 34.4026 36.9839 34.4026Z" fill="#1A1919"/>
<path fill-rule="evenodd" clip-rule="evenodd" d="M35.1401 32.9073C35.1421 31.9091 35.9148 31.1369 36.9119 31.1353V31.1768C35.9362 31.1768 35.1814 31.931 35.1803 32.9073C35.1823 33.9165 35.9398 34.5899 36.9367 34.5902C37.9371 34.5899 38.7092 33.8746 38.7104 32.7934C38.7095 31.795 37.9157 31.1777 36.9119 31.1768V31.1353C37.931 31.1363 38.749 31.7697 38.7508 32.7934C38.7498 33.8966 37.9571 34.6298 36.9367 34.6316C35.9214 34.6298 35.1421 33.9393 35.1401 32.9073ZM35.8048 32.7409C35.8063 32.1022 36.0555 31.3437 36.903 31.3437C37.709 31.3455 38.0848 32.2009 38.0864 32.8983C38.0848 33.5904 37.922 34.4221 36.984 34.4221V34.3818C37.8865 34.3811 38.0433 33.5904 38.0447 32.8983C38.0447 32.2107 37.6745 31.3868 36.903 31.3855C36.0887 31.3864 35.8481 32.1087 35.846 32.7409C35.8463 33.5864 36.2323 34.3806 36.984 34.3818V34.4221C36.1962 34.4214 35.8063 33.5954 35.8048 32.7409Z" fill="#1A1919"/>
<path fill-rule="evenodd" clip-rule="evenodd" d="M41.929 33.6048L41.9389 33.5954V31.816C41.9389 31.4265 41.6674 31.3695 41.5251 31.3695H41.4218V31.2271C41.6442 31.2271 41.8631 31.2459 42.0855 31.2459C42.2806 31.2459 42.4752 31.2271 42.67 31.2271V31.3695H42.5986C42.3997 31.3695 42.1757 31.4074 42.1757 31.9723V34.1319C42.1757 34.2983 42.1807 34.4643 42.2048 34.6116H42.0242L39.5793 31.8866V33.8426C39.5793 34.2559 39.6604 34.3976 40.0251 34.3976H40.1065V34.5403C39.9022 34.5403 39.6985 34.5218 39.4944 34.5218C39.2805 34.5218 39.0621 34.5403 38.8484 34.5403V34.3976H38.9151C39.2432 34.3976 39.3422 34.1745 39.3422 33.7959V31.7961C39.3422 31.5305 39.1246 31.3695 38.9099 31.3695H38.8484V31.2271C39.0288 31.2271 39.2137 31.2459 39.3945 31.2459C39.5366 31.2459 39.6735 31.2271 39.8165 31.2271L41.929 33.6048" fill="#1A1919"/>
<path fill-rule="evenodd" clip-rule="evenodd" d="M42.205 34.6315L42.0086 34.6248L39.5998 31.9404V33.8425C39.6054 34.2558 39.6681 34.372 40.0245 34.3762H40.1268V34.5605H40.1066C39.9011 34.5605 39.6974 34.5415 39.4943 34.5415C39.2816 34.5415 39.0631 34.5605 38.8479 34.5605H38.8285V34.3762H38.9149C39.2277 34.3753 39.3179 34.1737 39.3217 33.7957V31.796C39.3215 31.543 39.114 31.3901 38.9101 31.3901H38.8285V31.2063H38.8479C39.0299 31.2063 39.215 31.2248 39.3943 31.2248C39.5351 31.2248 39.6715 31.2063 39.8325 31.2137L41.918 33.5617V31.8159C41.9164 31.439 41.6636 31.3932 41.5251 31.3901H41.4001V31.2063H41.4218C41.6448 31.2063 41.8638 31.2248 42.085 31.2248C42.2792 31.2248 42.4729 31.2063 42.6701 31.2063H42.6901V31.3901H42.5984C42.4028 31.3951 42.2008 31.4131 42.1969 31.9722V34.1318C42.1969 34.298 42.2007 34.4637 42.2237 34.6081L42.2278 34.6315H42.205ZM42.0242 34.5901H42.1798C42.1597 34.4473 42.155 34.2897 42.155 34.1318V31.9722C42.155 31.4016 42.3947 31.3497 42.5984 31.3484H42.6498V31.2474C42.4614 31.2489 42.2747 31.2661 42.085 31.2661C41.8688 31.2661 41.6566 31.2489 41.4417 31.2474V31.3484H41.5251C41.6717 31.3497 41.9583 31.4145 41.9583 31.8159L41.9533 33.6102L41.9441 33.6194L41.929 33.635L39.8167 31.2474C39.6762 31.2474 39.538 31.2661 39.3943 31.2661C39.2193 31.2661 39.041 31.2489 38.8684 31.2474V31.3484H38.9101C39.1332 31.3497 39.3625 31.518 39.3625 31.796V33.7957C39.3625 34.1755 39.2565 34.418 38.9149 34.4193L38.8684 34.4189V34.5197C39.0745 34.5183 39.2857 34.5008 39.4943 34.5008C39.6923 34.5008 39.8891 34.5183 40.0858 34.5197V34.4193H40.0245C39.6521 34.4189 39.5587 34.2558 39.5587 33.8425V31.8333L42.0242 34.5901ZM41.929 33.6047L41.9441 33.591L41.929 33.6047ZM41.918 33.5953V33.5941L41.9143 33.5905L41.918 33.5953Z" fill="#1A1919"/>
<path fill-rule="evenodd" clip-rule="evenodd" d="M43.4324 33.8616C43.3859 34.0224 43.3286 34.1471 43.3286 34.2314C43.3286 34.3742 43.5285 34.3977 43.6841 34.3977H43.7371V34.5402C43.547 34.53 43.3523 34.5219 43.1622 34.5219C42.9913 34.5219 42.8207 34.53 42.6505 34.5402V34.3977H42.6775C42.8636 34.3977 43.0208 34.2883 43.0902 34.0889L43.8512 31.911C43.9125 31.7349 43.9984 31.4977 44.0257 31.3217C44.1782 31.2697 44.3676 31.1754 44.459 31.1177C44.4723 31.1129 44.4819 31.108 44.4966 31.108C44.5104 31.108 44.5194 31.108 44.5291 31.1229C44.5435 31.1605 44.5577 31.2033 44.572 31.2412L45.4454 33.724C45.502 33.8896 45.5593 34.0652 45.6213 34.2084C45.6783 34.3415 45.7778 34.3977 45.9343 34.3977H45.9636V34.5402C45.7496 34.53 45.5358 34.5219 45.3078 34.5219C45.0757 34.5219 44.838 34.53 44.5956 34.5402V34.3977H44.6482C44.7567 34.3977 44.9429 34.3789 44.9429 34.2601C44.9429 34.1988 44.9003 34.0706 44.8473 33.918L44.6622 33.3677H43.585L43.4324 33.8616ZM44.1265 31.7588H44.117L43.6744 33.1022H44.5634L44.1265 31.7588Z" fill="#1A1919"/>
<path fill-rule="evenodd" clip-rule="evenodd" d="M45.9614 34.5605C45.7475 34.552 45.5344 34.5414 45.308 34.5414C45.0764 34.5414 44.8385 34.552 44.5967 34.5605L44.5757 34.5616V34.3771H44.6479C44.7582 34.3771 44.9217 34.3515 44.9219 34.2601C44.9231 34.206 44.8802 34.0765 44.8268 33.925L44.6468 33.388H43.599L43.4524 33.8677C43.4046 34.0303 43.3485 34.1544 43.3491 34.2313C43.3491 34.3476 43.5271 34.3771 43.684 34.3771H43.7566V34.5616L43.7352 34.5605C43.5456 34.552 43.3512 34.5414 43.1622 34.5414C42.9921 34.5414 42.8218 34.552 42.6505 34.5605L42.6299 34.5616V34.3771H42.6775C42.8545 34.3762 43.0025 34.2748 43.072 34.0822L43.8311 31.9036C43.892 31.7279 43.9777 31.4918 44.0194 31.3028C44.1685 31.251 44.3592 31.1558 44.4515 31.0985C44.4637 31.0938 44.477 31.0881 44.4964 31.0881C44.5087 31.087 44.5336 31.09 44.5482 31.1159C44.5626 31.1533 44.5766 31.1964 44.592 31.2347L45.4648 33.7171C45.522 33.8833 45.5786 34.0587 45.6402 34.2003C45.6961 34.3258 45.782 34.3758 45.9338 34.3771H45.9828V34.5616L45.9614 34.5605ZM44.6159 34.5186C44.8507 34.51 45.0816 34.5008 45.308 34.5008C45.5286 34.5008 45.7351 34.51 45.9422 34.5183L45.9417 34.4189H45.9338C45.773 34.4193 45.661 34.356 45.6018 34.2161C45.5392 34.0727 45.4828 33.8964 45.4259 33.7308L44.5525 31.2476C44.5385 31.2097 44.5234 31.1673 44.5123 31.1344C44.5083 31.1289 44.5087 31.1289 44.5058 31.1289H44.4964C44.4862 31.1289 44.481 31.1321 44.4697 31.1353C44.3768 31.1934 44.1869 31.2886 44.0467 31.3247C44.0173 31.5045 43.931 31.7413 43.8699 31.9176L43.1098 34.0957C43.0375 34.302 42.8717 34.4193 42.6775 34.4189H42.6705V34.5183C42.834 34.51 42.9971 34.5008 43.1622 34.5008C43.346 34.5008 43.5338 34.51 43.7161 34.5183V34.4189H43.684C43.5297 34.4168 43.3133 34.4004 43.3072 34.2313C43.3085 34.1376 43.3669 34.0165 43.4134 33.8557L43.4325 33.8616L43.4134 33.8551L43.5695 33.3479H44.6759L44.8666 33.9115C44.9188 34.0643 44.9621 34.1907 44.9621 34.2601C44.9553 34.4054 44.7557 34.4162 44.6479 34.4189H44.6159V34.5186ZM43.6461 33.1224L44.1019 31.7377H44.1265V31.7588L44.1211 31.7602L44.1265 31.7588V31.7377H44.1409L44.5897 33.1224H43.6461ZM43.7034 33.0811H44.5338L44.1209 31.81L43.7034 33.0811ZM44.1067 31.7649L44.1161 31.7615L44.1067 31.7649Z" fill="#1A1919"/>
<path fill-rule="evenodd" clip-rule="evenodd" d="M47.1591 34.0748C47.1591 34.2656 47.291 34.3218 47.4433 34.3416C47.6376 34.3558 47.8514 34.3558 48.0704 34.3315C48.2695 34.3076 48.4403 34.1944 48.5255 34.0748C48.6009 33.9706 48.6437 33.8376 48.6728 33.7334H48.8101C48.7578 34.004 48.6915 34.2701 48.6345 34.5403C48.2177 34.5403 47.7987 34.522 47.3817 34.522C46.9636 34.522 46.5463 34.5403 46.1287 34.5403V34.3976H46.1945C46.3657 34.3976 46.5515 34.3743 46.5515 34.08V31.6406C46.5515 31.3932 46.3657 31.3695 46.1945 31.3695H46.1287V31.2271C46.3799 31.2271 46.6271 31.2459 46.8783 31.2459C47.1208 31.2459 47.3576 31.2271 47.6004 31.2271V31.3695H47.4811C47.3007 31.3695 47.1591 31.3746 47.1591 31.6261V34.0748" fill="#1A1919"/>
<path fill-rule="evenodd" clip-rule="evenodd" d="M48.6347 34.5605C48.2161 34.5605 47.798 34.5415 47.3817 34.5415C46.9641 34.5415 46.5464 34.5605 46.1278 34.5605H46.1078V34.3771H46.1944C46.366 34.3729 46.529 34.3609 46.531 34.0799V31.6397C46.529 31.4086 46.3667 31.3932 46.1944 31.3901H46.1078V31.2063H46.1278C46.3806 31.2063 46.6276 31.2248 46.8779 31.2248C47.1196 31.2248 47.356 31.2063 47.6003 31.2063H47.6194V31.3901H47.481C47.2969 31.3948 47.1826 31.3865 47.1785 31.626V34.0747C47.1797 34.2522 47.296 34.2996 47.4444 34.3208C47.5279 34.3266 47.6163 34.3296 47.7076 34.3296C47.8237 34.3296 47.9442 34.3242 48.0669 34.3113C48.2603 34.2883 48.4266 34.1765 48.5087 34.0634C48.582 33.9618 48.6234 33.8318 48.6521 33.7285L48.6561 33.7128H48.835L48.8309 33.7378C48.7772 34.0091 48.7118 34.2739 48.6543 34.5445L48.6505 34.5605H48.6347ZM48.6173 34.5195C48.6722 34.2617 48.7342 34.0096 48.7856 33.7536H48.6877C48.6586 33.8569 48.6162 33.9843 48.5418 34.0876C48.453 34.2105 48.2773 34.3266 48.0714 34.3521C47.9473 34.3647 47.8238 34.3711 47.7076 34.3711C47.6156 34.3711 47.5269 34.367 47.4404 34.3609C47.2861 34.344 47.1368 34.2777 47.137 34.0747V31.626C47.137 31.3621 47.3039 31.3484 47.481 31.3484H47.5788V31.2474C47.345 31.2489 47.1142 31.2667 46.8779 31.2667C46.6327 31.2667 46.3921 31.2489 46.1492 31.2474V31.3484H46.1944C46.3637 31.3484 46.5709 31.3781 46.5709 31.6397V34.0799C46.5709 34.3871 46.3646 34.4189 46.1944 34.4189H46.1492V34.5195C46.5592 34.5186 46.9695 34.5008 47.3817 34.5008C47.7944 34.5008 48.2064 34.5186 48.6173 34.5195Z" fill="#1A1919"/>
<path fill-rule="evenodd" clip-rule="evenodd" d="M19.1061 14.47C19.1061 10.0302 22.7052 6.43115 27.1447 6.43115C31.5845 6.43115 35.1836 10.0302 35.1836 14.47C35.1836 18.9097 31.5845 22.509 27.1447 22.509C22.7052 22.509 19.1061 18.9097 19.1061 14.47" fill="#FFFFFE"/>
<path fill-rule="evenodd" clip-rule="evenodd" d="M32.0064 14.3117C32.0031 12.2531 30.7164 10.4974 28.9032 9.80211V18.821C30.7164 18.1248 32.0031 16.3707 32.0064 14.3117ZM25.4442 18.8192V9.80301C23.6326 10.5005 22.3478 12.2537 22.343 14.3117C22.3478 16.3693 23.6326 18.1223 25.4442 18.8192ZM27.1746 6.68866C22.9646 6.69028 19.5538 10.1018 19.5531 14.3117C19.5538 18.5212 22.9646 21.9321 27.1746 21.9328C31.3845 21.9321 34.7961 18.5212 34.7971 14.3117C34.7961 10.1018 31.3845 6.69028 27.1746 6.68866ZM27.1559 22.6522C22.5491 22.6742 18.7574 18.9419 18.7574 14.3987C18.7574 9.43343 22.5491 5.9991 27.1559 6H29.3148C33.8672 5.9991 38.022 9.43182 38.022 14.3987C38.022 18.9403 33.8672 22.6522 29.3148 22.6522H27.1559Z" fill="#0069AA"/>
<path fill-rule="evenodd" clip-rule="evenodd" d="M8.02069 34.3976H8.08735C8.25803 34.3976 8.43842 34.3743 8.43842 34.1272V31.6406C8.43842 31.3932 8.25803 31.3697 8.08735 31.3697H8.02069V31.2271C8.20575 31.2271 8.49052 31.2459 8.72373 31.2459C8.96089 31.2459 9.2453 31.2271 9.46845 31.2271V31.3697H9.40143C9.23147 31.3697 9.05072 31.3932 9.05072 31.6406V34.1272C9.05072 34.3743 9.23147 34.3976 9.40143 34.3976H9.46845V34.5403C9.24081 34.5403 8.95532 34.522 8.71888 34.522C8.48585 34.522 8.20575 34.5403 8.02069 34.5403V34.3976" fill="#1A1919"/>
<path fill-rule="evenodd" clip-rule="evenodd" d="M9.46842 34.5605C9.2388 34.5605 8.95475 34.5415 8.71849 34.5415C8.48618 34.5415 8.20698 34.5605 8.02066 34.5605H8V34.3771H8.08696C8.25926 34.3729 8.41593 34.3591 8.41737 34.1271V31.6406C8.41593 31.4082 8.25926 31.3932 8.08696 31.3901H8V31.2063H8.02066C8.20698 31.2063 8.49157 31.2248 8.7237 31.2248C8.95978 31.2248 9.24401 31.2063 9.46842 31.2063H9.48962V31.3901H9.4023C9.22982 31.3932 9.07225 31.4082 9.07135 31.6406V34.1271C9.07225 34.3591 9.22982 34.3729 9.4023 34.3771H9.48962V34.5605H9.46842ZM9.44793 34.5199L9.44811 34.4189H9.4023C9.23251 34.4189 9.03075 34.3891 9.02967 34.1271V31.6406C9.03075 31.3781 9.23251 31.3488 9.4023 31.3488H9.44793V31.2474C9.22892 31.2476 8.95385 31.2667 8.7237 31.2667C8.49822 31.2667 8.2253 31.2489 8.0415 31.2474V31.3488H8.08696C8.2562 31.3488 8.45833 31.3781 8.45833 31.6406V34.1271C8.45833 34.3891 8.2562 34.4189 8.08696 34.4189H8.0415V34.5199C8.2253 34.5183 8.49336 34.5008 8.71849 34.5008C8.94972 34.5008 9.22407 34.5186 9.44793 34.5199Z" fill="#1A1919"/>
<path fill-rule="evenodd" clip-rule="evenodd" d="M48.7522 31.0924C49.0386 31.0924 49.2522 31.3123 49.2522 31.5933C49.2522 31.8741 49.0386 32.0917 48.7522 32.0917C48.4665 32.0917 48.2526 31.8741 48.2526 31.5933C48.2526 31.3123 48.4665 31.0924 48.7522 31.0924ZM48.7522 31.9988C48.9764 31.9988 49.1477 31.8082 49.1477 31.5933C49.1477 31.3781 48.9784 31.186 48.7522 31.186C48.5273 31.186 48.3562 31.3781 48.3562 31.5933C48.3562 31.8082 48.5273 31.9988 48.7522 31.9988ZM48.5037 31.8569V31.8326C48.5648 31.8238 48.5763 31.8254 48.5763 31.7881V31.4176C48.5763 31.3655 48.5711 31.3475 48.5057 31.3504V31.3249H48.7616C48.8494 31.3249 48.9304 31.3669 48.9304 31.4578C48.9304 31.5321 48.8816 31.5872 48.8122 31.6086L48.8945 31.7232C48.9328 31.775 48.9764 31.8238 49.0045 31.8411V31.8569H48.9073C48.8606 31.8569 48.8192 31.7588 48.7276 31.6271H48.6723V31.7927C48.6723 31.8254 48.6838 31.8238 48.7452 31.8326V31.8569H48.5037ZM48.6723 31.5933H48.7312C48.7957 31.5933 48.8255 31.5446 48.8255 31.4658C48.8255 31.3863 48.7795 31.3581 48.728 31.3581H48.6723V31.5933Z" fill="#1A1919"/>
</svg>
