<svg width="58" height="40" fill="none" xmlns="http://www.w3.org/2000/svg"><rect x=".5" y=".5" width="57" height="39" rx="3.5" fill="#fff" stroke="#F3F3F3"/><path fill-rule="evenodd" clip-rule="evenodd" d="M24.715 26.903a4.12 4.12 0 0 0-.738 1.388 5.483 5.483 0 0 0-.246 1.651c0 .578.082 1.129.246 1.652.164.523.41.983.738 1.382.328.398.74.716 1.236.954.495.238 1.071.357 1.727.357.656 0 1.23-.119 1.722-.357a3.596 3.596 0 0 0 1.23-.954c.327-.398.573-.86.737-1.382a5.492 5.492 0 0 0 .246-1.652c0-.577-.082-1.128-.246-1.65a4.123 4.123 0 0 0-.738-1.389 3.57 3.57 0 0 0-1.23-.96c-.491-.238-1.065-.357-1.72-.357-.657 0-1.233.119-1.728.357a3.558 3.558 0 0 0-1.236.96Zm-12.947-.07c-.644-.683-1.603-1.04-2.875-1.071H6v8.361h2.893c1.272-.03 2.23-.388 2.875-1.071.644-.683.966-1.72.966-3.11s-.322-2.425-.966-3.109Zm-1.722 6.418c-.433.129-.95.193-1.551.193H6.796v-7.003h1.699c.6 0 1.118.064 1.551.193.434.129.791.334 1.072.615.28.28.488.644.62 1.089.133.445.2.98.2 1.604 0 .625-.067 1.16-.2 1.605-.132.445-.339.808-.62 1.09-.28.28-.638.485-1.072.614Zm3.754-7.49 1.897 7.32h.024l2.037-7.32h.996l2.05 7.32h.023l1.909-7.32h.796l-2.307 8.363h-.844l-2.12-7.484h-.023l-2.108 7.483h-.866l-2.32-8.361h.856Zm10.91 5.522c.12.442.308.836.561 1.183.254.348.58.627.978.838.399.21.875.316 1.43.316.554 0 1.028-.105 1.422-.316.394-.21.718-.49.972-.838.254-.347.441-.741.563-1.183a5.047 5.047 0 0 0 0-2.687 3.606 3.606 0 0 0-.563-1.177 2.846 2.846 0 0 0-.972-.838c-.394-.21-.868-.316-1.423-.316-.554 0-1.03.105-1.429.316a2.82 2.82 0 0 0-.977.838c-.254.347-.442.74-.563 1.177a5.03 5.03 0 0 0 0 2.688Zm8.706 2.161v-7.682h-.796v8.361h5.481v-.679h-4.685Zm6.29-7.682v7.682h4.618l3.088-7.682h.89l3.279 8.361h-.855l-1.019-2.6h-3.806l-1.007 2.6H38.91v-8.361h.796Zm9.732 5.082-1.616-4.286-1.675 4.286h3.29Z" fill="#2D2D48"/><path fill-rule="evenodd" clip-rule="evenodd" d="m29.35 5.13 6.34 3.66a.973.973 0 0 1 .486.843v7.32a.973.973 0 0 1-.486.843l-6.34 3.66a.973.973 0 0 1-.972 0l-6.34-3.66a.973.973 0 0 1-.486-.843v-7.32c0-.348.185-.669.487-.843l6.339-3.66a.973.973 0 0 1 .973 0Zm-4.64 10.562v-4.23c0-.347.185-.668.486-.842l3.67-2.118V5.973l-6.34 3.66v7.32l2.184-1.26Zm3.669-3.242a.973.973 0 0 0-.487.843v4.214l-2.209 1.275v-7.32l6.339-3.659v2.544l-3.643 2.103Zm.486 8.162 6.34-3.66V9.634l-6.34 3.66v7.32Z" fill="url(#a)"/><defs><linearGradient id="a" x1="28.161" y1="28.003" x2="43.557" y2="16.034" gradientUnits="userSpaceOnUse"><stop stop-color="#F3904A"/><stop offset=".999" stop-color="#AA437F"/></linearGradient></defs></svg>