<svg width="58" height="40" fill="none" xmlns="http://www.w3.org/2000/svg"><rect x=".5" y=".5" width="57" height="39" rx="3.5" fill="#fff" stroke="#F3F3F3"/><path d="M12.207 15.006a5.534 5.534 0 0 1 1.726-.274c2.634 0 4.83 1.833 5.335 4.268L23 18.254C22.144 14.115 18.41 11 13.933 11a9.418 9.418 0 0 0-2.933.465l1.207 3.54Z" fill="#FFF200"/><path d="M7.765 27 10 24.118c-.998-1.008-1.627-2.48-1.627-4.12 0-1.638.629-3.11 1.626-4.116L7.763 13C6.068 14.712 5 17.213 5 19.999 5 22.786 6.07 25.288 7.765 27" fill="#00A4E0"/><path d="M19.269 21c-.506 2.435-2.702 4.266-5.333 4.266a5.529 5.529 0 0 1-1.727-.275L11 28.533c.922.303 1.91.467 2.936.467 4.473 0 8.204-3.113 9.064-7.25L19.269 21Z" fill="#EF4123"/><path fill-rule="evenodd" clip-rule="evenodd" d="M40.958 13v10.242l1.84.737-.87 2.02-1.82-.73a2.046 2.046 0 0 1-.897-.728c-.202-.301-.352-.714-.352-1.27V13h2.099ZM27 20.613c.045-2.93 2.543-5.268 5.573-5.223 2.572.04 4.703 1.78 5.263 4.093l-9.948 4.107A5.143 5.143 0 0 1 27 20.613Zm2.276.41a2.705 2.705 0 0 1-.02-.376c.029-1.726 1.499-3.103 3.284-3.074a3.262 3.262 0 0 1 2.419 1.108l-5.683 2.342Zm5.473 1.902a3.294 3.294 0 0 1-3.98.41l-1.202 1.849a5.59 5.59 0 0 0 2.84.815 5.573 5.573 0 0 0 3.92-1.51l-1.578-1.564Zm13.866-5.352a3.32 3.32 0 0 0-1.024.16l-.716-2.072a5.666 5.666 0 0 1 1.74-.272c2.658 0 4.876 1.823 5.384 4.246l-2.217.436c-.298-1.426-1.603-2.498-3.167-2.498Zm-3.639 7.095 1.498-1.636a3.07 3.07 0 0 1-1.09-2.338c0-.93.42-1.765 1.09-2.337l-1.5-1.636c-1.136.972-1.852 2.392-1.852 3.973 0 1.582.717 3.002 1.854 3.974Zm3.64-.852c1.562 0 2.866-1.072 3.166-2.495l2.216.438C53.49 24.18 51.272 26 48.616 26a5.66 5.66 0 0 1-1.743-.273l.718-2.072c.322.104.667.161 1.025.161Z" fill="#000"/></svg>