<svg width="58" height="40" fill="none" xmlns="http://www.w3.org/2000/svg"><rect x=".5" y=".5" width="57" height="39" rx="3.5" fill="#fff" stroke="#F3F3F3"/><path fill-rule="evenodd" clip-rule="evenodd" d="M23.285 21.028c0-3.04 2.442-5.515 5.44-5.515 2.997 0 5.424 2.465 5.424 5.506 0 3.04-2.433 5.548-5.43 5.548h-2.72v5.935h-2.714V21.028ZM26 23.775h2.725a2.736 2.736 0 0 0 2.736-2.756c0-1.54-1.227-2.793-2.736-2.793-1.508 0-2.725 1.253-2.725 2.793v2.756Zm16.283-4.131h-3.537a.711.711 0 0 1-.713-.712c0-.395.32-.743.713-.743h5.385v-2.676h-5.385c-1.88 0-3.408 1.543-3.408 3.432 0 1.89 1.529 3.433 3.408 3.433h3.489a.71.71 0 0 1 .713.71c0 .395-.32.686-.713.686h-7.481c-.635 1.222-1.253 2.27-2.507 2.793h10.036c1.848-.027 3.359-1.602 3.359-3.474 0-1.873-1.511-3.423-3.36-3.45ZM30.465 29.849c-.096 0-.184-.055-.184-.172 0-.168.136-.247.26-.247.098 0 .173.058.173.172 0 .161-.13.247-.249.247Zm.826 0c-.099 0-.191-.055-.191-.175 0-.165.14-.244.263-.244.092 0 .174.062.174.175 0 .158-.14.244-.246.244Zm.478.267-.246 1.402c-.123.71-.584 1.034-1.208 1.034-.53 0-.939-.348-.82-1.032l.246-1.404h.38l-.246 1.402c-.076.437.119.686.488.686.378 0 .703-.227.781-.684l.246-1.404h.379Zm.745.97.17-.97h-.351l-.42 2.386h.331l.065-.253c.116.213.307.297.533.297.58 0 1.034-.395 1.034-1.052 0-.464-.294-.714-.717-.714-.205 0-.498.106-.645.305Zm.334 1.13c-.262 0-.443-.183-.43-.465a.687.687 0 0 1 .676-.64c.256 0 .44.17.427.455a.678.678 0 0 1-.672.65Zm1.718-.412c-.014.232.167.422.474.422.171 0 .396-.067.52-.184l.19.223a1.186 1.186 0 0 1-.774.288c-.485 0-.768-.292-.768-.74 0-.595.464-1.038 1.058-1.038.543 0 .85.33.665 1.029h-1.365Zm1.079-.291c.027-.291-.144-.41-.427-.41-.256 0-.492.119-.594.41h1.02Zm1.225-.699-.017.225a.63.63 0 0 1 .543-.261c.164 0 .31.058.39.144l-.212.31a.37.37 0 0 0-.28-.103.528.528 0 0 0-.536.46l-.16.913h-.352l.297-1.688h.328Zm2.786 1.335-.177-1.335h-.304l-.645 1.335-.174-1.335h-.396l.297 1.688h.41l.293-.56.27-.553.167 1.113h.413l.88-1.688h-.392l-.642 1.335Zm1.96.077c-.307 0-.488-.19-.474-.422h1.365c.185-.699-.123-1.029-.665-1.029-.594 0-1.058.444-1.058 1.039 0 .447.283.74.768.74.259 0 .566-.097.774-.29l-.19-.222c-.124.117-.349.184-.52.184Zm.178-1.123c.283 0 .454.119.427.41H41.2c.102-.291.338-.41.594-.41Zm1.366-.748c0 .12.089.182.184.182.137 0 .263-.09.263-.258a.173.173 0 0 0-.178-.179c-.126 0-.27.083-.27.255Zm.31.46-.297 1.687h-.351l.297-1.688h.351Zm1.56.417c-.109-.124-.249-.158-.416-.158-.232 0-.396.079-.396.227 0 .123.133.175.331.192.307.028.7.131.618.568-.058.316-.372.502-.809.502-.273 0-.536-.062-.713-.313l.228-.251c.127.175.349.248.547.251.167 0 .365-.062.395-.22.031-.151-.102-.21-.348-.234-.286-.028-.6-.134-.6-.454 0-.423.454-.57.795-.57.26 0 .45.058.608.226l-.24.234Zm.95.491.16-.909h-.351l-.16.911c-.09.512.156.81.57.81.235 0 .43-.088.627-.278l-.023.245h.317l.297-1.688h-.352l-.153.885c-.048.282-.284.513-.56.513-.293 0-.423-.2-.372-.489Zm2.98.779.16-.903c.052-.293-.047-.486-.368-.486-.28 0-.515.226-.563.505l-.154.884h-.351l.297-1.688h.32l-.023.247c.194-.182.396-.272.614-.272.41 0 .676.287.584.806l-.16.907h-.356Zm1.192.232c-.024.233.154.327.45.327a.59.59 0 0 0 .605-.517l.051-.29c-.154.217-.434.303-.642.303-.43 0-.73-.259-.73-.727 0-.667.491-1.052 1.048-1.052.235 0 .447.113.522.305l.058-.268h.341l-.293 1.737c-.11.643-.584.843-1.017.843-.52 0-.806-.253-.734-.66h.341Zm.099-.972c0 .288.188.464.458.464.726 0 .921-1.125.194-1.125a.642.642 0 0 0-.652.66Z" fill="#71706F"/><path fill-rule="evenodd" clip-rule="evenodd" d="M14.68 5.884c2.553 0 4.621 2.033 4.621 4.541v1.272c0 .164-.143.325-.309.325h-1.7c-.166 0-.3-.162-.3-.325v-1.272c0-1.252-1.036-2.271-2.31-2.271s-2.31 1.019-2.31 2.271v1.272c0 .164-.145.325-.311.325h-1.7c-.166 0-.298-.162-.298-.325v-1.395c.067-2.451 2.108-4.418 4.618-4.418Zm.014 20.683c-2.566 0-4.724-1.842-5.307-4.25 0 0-.169-.795-.169-1.319 0-.524.16-1.328.16-1.328.588-2.401 2.742-4.189 5.304-4.189 3.013 0 5.485 2.468 5.485 5.504v1.335h-8.005c.473.93 1.43 1.455 2.532 1.455h7.196l.01-7.873a2.132 2.132 0 0 0-2.118-2.135h-10.2a2.108 2.108 0 0 0-2.118 2.105V26.15c0 1.174.954 2.164 2.118 2.164h10.2a2.114 2.114 0 0 0 2.085-1.746h-7.173Zm-.012-8.474c-1.098 0-2.053.678-2.528 1.55h5.056c-.475-.872-1.43-1.55-2.528-1.55Z" fill="#C8036F"/></svg>