<svg width="58" height="40" fill="none" xmlns="http://www.w3.org/2000/svg"><rect x=".5" y=".5" width="57" height="39" rx="3.5" fill="#fff" stroke="#F3F3F3"/><path fill-rule="evenodd" clip-rule="evenodd" d="M15.811 8.007c.252.084.52.088.78.135a8.262 8.262 0 0 1 3.986 1.976c1.429 1.272 2.39 2.862 2.788 4.78.615 2.952-.025 5.599-1.925 7.885-1.258 1.513-2.851 2.464-4.738 2.84-2.386.474-4.594-.015-6.578-1.48-1.761-1.302-2.9-3.066-3.375-5.265-.524-2.417-.137-4.691 1.135-6.788a8.53 8.53 0 0 1 3.326-3.139 8.061 8.061 0 0 1 2.994-.915c.039-.003.084.015.105-.036.5.007 1.003.007 1.502.007Zm-.747 1.674c-3.683-.04-6.869 3.087-6.932 7.09-.066 4.098 3.12 7.342 6.897 7.357 3.773.015 6.931-3.157 6.96-7.16.02-4.046-3.079-7.287-6.925-7.287ZM27.2 30.974c-.373-.05-.754-.025-1.128-.04a94.232 94.232 0 0 1-3.518-.2 76.846 76.846 0 0 1-5.943-.693 62.609 62.609 0 0 1-3.755-.703c-3.358-.74-6.638-1.732-9.772-3.22-.025-.01-.05-.029-.084-.047.09-.04.164-.01.241.011a79.076 79.076 0 0 0 6.977 1.608c1.764.324 3.536.598 5.314.816 1.247.154 2.494.288 3.748.401 1.46.132 2.921.23 4.385.3 1.22.058 2.442.087 3.661.112.95.019 1.898.022 2.848.011a108.73 108.73 0 0 0 9.094-.474c1.51-.146 3.018-.32 4.524-.532a86.722 86.722 0 0 0 7.892-1.47 68.777 68.777 0 0 0 3.197-.83c.021-.008.045-.004.119-.011-.087.05-.13.08-.178.102-1.915.919-3.9 1.64-5.926 2.242a56.945 56.945 0 0 1-4.971 1.221c-1.342.27-2.69.489-4.046.675a78.424 78.424 0 0 1-7.714.67c-.244.011-.492-.025-.733.055-1.412-.004-2.823-.004-4.231-.004Z" fill="#FCB922"/><path fill-rule="evenodd" clip-rule="evenodd" d="M28.678 13.946c-.265.897-.527 1.79-.793 2.687-.38 1.298-.765 2.595-1.139 3.893-.045.157-.136.124-.234.131-.108.011-.16-.018-.195-.142-.507-1.914-1.02-3.824-1.53-5.738-.12-.452-.241-.9-.367-1.349-.035-.12-.007-.146.108-.146.346-.003.342-.007.437.361l1.52 6.052c.01.037.02.073.048.164.091-.317.172-.587.248-.857.539-1.844 1.073-3.689 1.604-5.534.042-.142.094-.19.234-.185.329.01.332.003.426.331l1.754 6.052c.014.05.032.098.063.193l.315-1.232c.436-1.735.873-3.47 1.306-5.206.028-.113.074-.146.178-.138.109.007.22.003.346.003-.16.609-.318 1.196-.475 1.786-.482 1.809-.968 3.617-1.453 5.425-.025.099-.046.182-.175.16-.108-.014-.21.03-.259-.149-.618-2.125-1.247-4.247-1.872-6.372-.018-.063-.042-.124-.06-.186-.014 0-.024-.004-.035-.004Zm5.94-.036c-.018-.489-.077-.39.314-.489.978-.237 1.967-.324 2.952-.055.765.208 1.174.73 1.265 1.55.024.222.035.448.035.67 0 1.604 0 3.209-.003 4.809 0 .062.066.164-.063.186-.126.025-.175-.04-.21-.153-.035-.128-.056-.31-.14-.358-.09-.054-.213.099-.332.15-.974.416-1.98.587-3.015.299-.877-.244-1.397-.948-1.443-1.896-.028-.609.053-1.188.472-1.659.363-.404.835-.586 1.338-.678.744-.135 1.495-.123 2.243-.186.196-.018.395-.025.59-.036.053-.004.109 0 .109-.08 0-.496.031-1-.143-1.477-.186-.51-.587-.732-1.073-.813-.943-.16-1.876-.073-2.795.19a1.24 1.24 0 0 1-.101.025Zm4.112 4.126c0-.485-.004-.97 0-1.458 0-.098-.014-.135-.122-.124-.423.037-.846.051-1.269.088-.513.043-1.034.04-1.544.142-.559.113-1.02.375-1.247.955-.126.32-.14.66-.119 1.002.042.78.44 1.324 1.167 1.506 1.087.274 2.107.037 3.07-.518.074-.043.064-.105.064-.17v-1.423Zm2.75 6.194c.37-.915.726-1.8 1.082-2.69.123-.303.238-.605.364-.904a.319.319 0 0 0 .003-.26c-.618-1.65-1.233-3.306-1.848-4.96-.259-.7-.517-1.4-.79-2.13.165 0 .311-.003.458 0 .087.004.084.088.105.146.321.886.636 1.772.95 2.658l1.331 3.747c.01.03.028.051.05.091l.911-2.544c.468-1.309.94-2.621 1.401-3.934.049-.135.105-.171.234-.167.328.007.328.003.21.324-1.157 3.095-2.313 6.194-3.473 9.289-.147.394-.3.787-.44 1.185-.042.113-.087.167-.21.153-.105-.015-.21-.004-.339-.004Zm6.644-8.702c-.105-.007-.21 0-.314-.018-.71-.117-.922-.613-.891-1.378.003-.102.024-.204.045-.303.084-.412.336-.656.72-.744.322-.072.646-.069.968.026.328.098.538.324.625.667.084.332.084.671.004 1.006-.105.43-.437.697-.912.737-.08.007-.164 0-.245 0v.007Zm0-.237c.077 0 .15.007.227 0 .395-.036.605-.204.696-.569a1.769 1.769 0 0 0-.01-.915.66.66 0 0 0-.539-.503 1.97 1.97 0 0 0-.503-.033c-.573.037-.821.307-.842.908v.11c0 .729.269 1.01.971 1.002Zm-29.762 3.996c0 .59-.004 1.184.003 1.779 0 .106-.066.113-.13.138-.841.38-1.725.558-2.64.59-.678.026-1.349 0-1.999-.203-1.223-.383-1.95-1.269-2.288-2.523-.304-1.12-.322-2.264-.227-3.412.052-.65.178-1.284.43-1.885.464-1.112 1.278-1.772 2.41-2.02a5.484 5.484 0 0 1 2.372-.018c1.188.255 1.932 1.02 2.278 2.22.21.733.276 1.488.29 2.246.007.426 0 .85.01 1.276.004.131-.027.175-.163.175-1.842-.004-3.683 0-5.527-.004-.147 0-.182.04-.154.182.045.23.087.463.16.69.301.933.94 1.421 1.877 1.44 1.097.021 2.152-.172 3.158-.638.038-.019.077-.052.14-.033Zm-3.442-3.369c.612 0 1.223-.003 1.835.004.104 0 .14-.026.136-.139-.014-.39-.039-.776-.14-1.152-.119-.43-.328-.784-.734-.984-.401-.2-.824-.2-1.247-.15-.538.066-.992.296-1.303.777-.283.441-.384.94-.458 1.455-.024.175.018.197.168.197.58-.011 1.16-.008 1.743-.008Z" fill="#424143"/><path fill-rule="evenodd" clip-rule="evenodd" d="M48.722 14.96c-.193.065-.297-.012-.357-.19-.02-.062-.066-.117-.084-.179-.052-.211-.21-.16-.349-.164-.06 0-.06.044-.06.088 0 .102-.003.204 0 .31.004.094 0 .156-.122.156-.115-.003-.115-.058-.115-.146.004-.368.007-.74 0-1.108-.003-.117.035-.146.14-.142.178.01.36.004.538.018.143.011.258.091.29.245.035.167.063.353-.08.473-.098.084-.07.135-.025.22.08.138.154.28.224.418Zm-.598-1.145c-.24 0-.307.105-.248.324.014.048.035.055.074.055.104-.004.206-.004.31-.011.095-.007.144-.066.147-.164.004-.106-.042-.175-.143-.19-.06-.01-.115-.01-.14-.014Z" fill="#424143"/></svg>