<svg width="28" height="20" fill="none" xmlns="http://www.w3.org/2000/svg"><rect width="28" height="20" rx="2" fill="#fff"/><mask id="a" style="mask-type:alpha" maskUnits="userSpaceOnUse" x="0" y="0" width="28" height="20"><rect width="28" height="20" rx="2" fill="#fff"/></mask><g mask="url(#a)"><path fill="#95CEF5" d="M0 0h28v20H0z"/><path fill-rule="evenodd" clip-rule="evenodd" d="M12.433 6.824 14 5.76l1.567 1.064-.527-1.82 1.496-1.161-1.893-.06L14 2l-.643 1.782-1.893.06 1.496 1.163-.527 1.819Zm0 10.667L14 16.427l1.567 1.064-.527-1.82 1.496-1.162-1.893-.06L14 12.667l-.643 1.782-1.893.06 1.496 1.162-.527 1.82Zm6.9-6.398-1.567 1.064.528-1.82-1.497-1.161 1.894-.06.642-1.783.643 1.782 1.893.061-1.496 1.162.528 1.82-1.568-1.065ZM7.1 12.157l1.568-1.064 1.567 1.064-.527-1.82 1.496-1.161-1.894-.06-.642-1.783-.643 1.782-1.893.061 1.496 1.162-.528 1.82Z" fill="#fff"/></g></svg>