<svg width="28" height="20" viewBox="0 0 28 20" fill="none" xmlns="http://www.w3.org/2000/svg">
<g clip-path="url(#clip0_503_3788)">
<rect x="0.25" y="0.25" width="27.5" height="19.5" rx="1.75" fill="white" stroke="#F5F5F5" stroke-width="0.5"/>
<mask id="mask0_503_3788" style="mask-type:alpha" maskUnits="userSpaceOnUse" x="0" y="0" width="28" height="20">
<rect x="0.25" y="0.25" width="27.5" height="19.5" rx="1.75" fill="white" stroke="white" stroke-width="0.5"/>
</mask>
<g mask="url(#mask0_503_3788)">
<path fill-rule="evenodd" clip-rule="evenodd" d="M0 6.66667H28V0H0V6.66667Z" fill="#DF1E35"/>
<path fill-rule="evenodd" clip-rule="evenodd" d="M0 20H28V13.3333H0V20Z" fill="#262626"/>
<path fill-rule="evenodd" clip-rule="evenodd" d="M18.6667 8.53934C18.6667 8.29155 18.9275 8.13039 19.1491 8.2412L19.8158 8.57454C19.9287 8.631 20 8.74642 20 8.87268V11.6667C20 11.8508 19.8508 12 19.6667 12H19C18.8159 12 18.6667 11.8508 18.6667 11.6667V8.53934Z" fill="#0F7A40"/>
<path fill-rule="evenodd" clip-rule="evenodd" d="M10.6667 8.53934C10.6667 8.29155 10.9275 8.13039 11.1491 8.2412L11.8158 8.57454C11.9287 8.631 12 8.74642 12 8.87268V11.6667C12 11.8508 11.8508 12 11.6667 12H11C10.8159 12 10.6667 11.8508 10.6667 11.6667V8.53934Z" fill="#0F7A40"/>
<path fill-rule="evenodd" clip-rule="evenodd" d="M16 8.87268C16 8.74642 16.0713 8.631 16.1843 8.57454L16.8509 8.2412C17.0726 8.13039 17.3333 8.29155 17.3333 8.53934V11.6667C17.3333 11.8508 17.1841 12 17 12H16.3333C16.1492 12 16 11.8508 16 11.6667V8.87268Z" fill="#0F7A40"/>
<path fill-rule="evenodd" clip-rule="evenodd" d="M13.3333 10.206C13.3333 10.0798 13.4046 9.96434 13.5176 9.90787L14.1842 9.57454C14.4059 9.46372 14.6666 9.62489 14.6666 9.87268V10.7264H16.6666V12H14.6666H13.6666C13.4826 12 13.3333 11.8508 13.3333 11.6667V10.206Z" fill="#0F7A40"/>
<path fill-rule="evenodd" clip-rule="evenodd" d="M8 10.206C8 10.0798 8.07133 9.96434 8.18426 9.90787L8.85093 9.57454C9.07256 9.46372 9.33333 9.62489 9.33333 9.87268V10.7264H11.3333V12H9.33333H8.33333C8.14924 12 8 11.8508 8 11.6667V10.206Z" fill="#0F7A40"/>
</g>
</g>
<defs>
<clipPath id="clip0_503_3788">
<rect width="28" height="20" rx="2" fill="white"/>
</clipPath>
</defs>
</svg>
