<svg width="28" height="20" fill="none" xmlns="http://www.w3.org/2000/svg"><rect x=".25" y=".25" width="27.5" height="19.5" rx="1.75" fill="#fff" stroke="#F5F5F5" stroke-width=".5"/><mask id="a" style="mask-type:alpha" maskUnits="userSpaceOnUse" x="0" y="0" width="28" height="20"><rect x=".25" y=".25" width="27.5" height="19.5" rx="1.75" fill="#fff" stroke="#fff" stroke-width=".5"/></mask><g mask="url(#a)" fill-rule="evenodd" clip-rule="evenodd"><path d="M0 20h28V9.333H12.444l.89.667L0 20Z" fill="#DD1C34"/><path d="M28 9.333H12.444L0 0h28v9.333Z" fill="#0D4BC3"/><path d="M2 4a.667.667 0 1 0 0-1.333A.667.667 0 0 0 2 4Zm8 6.667a.667.667 0 1 0 0-1.334.667.667 0 0 0 0 1.334Zm-7.333 6a.667.667 0 1 1-1.334 0 .667.667 0 0 1 1.334 0Zm1.865-5.34L3.391 13.08l.433-2.047a1.344 1.344 0 0 1-.19-.19l-2.047.433 1.753-1.141a1.352 1.352 0 0 1 0-.27l-1.753-1.14 2.046.432c.057-.07.121-.133.19-.19L3.392 6.92l1.141 1.753a1.348 1.348 0 0 1 .27 0l1.14-1.753-.432 2.047c.07.057.133.12.19.19l2.046-.433-1.753 1.141a1.348 1.348 0 0 1 0 .27l1.753 1.14-2.046-.432c-.057.07-.12.133-.19.19l.432 2.047-1.14-1.753a1.33 1.33 0 0 1-.27 0Z" fill="#FDD64D"/></g></svg>