<svg width="28" height="20" viewBox="0 0 28 20" fill="none" xmlns="http://www.w3.org/2000/svg">
<g clip-path="url(#clip0_1310_7890)">
<path d="M28 1.52588e-05H0V20H28V1.52588e-05Z" fill="url(#paint0_linear_1310_7890)"/>
<path d="M28 1.52588e-05H0V20H28V1.52588e-05Z" fill="url(#paint1_linear_1310_7890)"/>
<mask id="mask0_1310_7890" style="mask-type:alpha" maskUnits="userSpaceOnUse" x="17" y="8" width="7" height="10">
<path d="M17.3334 12.6667V8.67954C17.3334 8.30425 17.6198 8.00002 17.997 8.00002H23.3364C23.7029 8.00002 24 8.30216 24 8.67954V12.6667C24 16 20.6667 17.3333 20.6667 17.3333C20.6667 17.3333 17.3334 16 17.3334 12.6667Z" fill="white"/>
</mask>
<g mask="url(#mask0_1310_7890)">
<path d="M17.3334 12.6667V8.67954C17.3334 8.30425 17.6198 8.00002 17.997 8.00002H23.3364C23.7029 8.00002 24 8.30216 24 8.67954V12.6667C24 16 20.6667 17.3333 20.6667 17.3333C20.6667 17.3333 17.3334 16 17.3334 12.6667Z" fill="url(#paint2_linear_1310_7890)"/>
<path d="M16.6667 16L20.6667 8.00002L24.6667 16V18.6667H16.6667V16Z" fill="url(#paint3_linear_1310_7890)"/>
<path d="M17.3334 16.1574V18H24V16.1574L20.6667 9.49074L17.3334 16.1574Z" fill="url(#paint4_linear_1310_7890)"/>
</g>
<path d="M4.00029 4.30665L-1.80188 -0.666639H0.880602L5.54727 2.66669H6.47576L12.667 -1.2028V0.333361C12.667 0.736706 12.4444 1.16874 12.1098 1.40772L8.00029 4.34311V5.02674L12.1833 8.61213C12.7994 9.14027 12.455 10 11.667 10C11.34 10 10.9407 9.87194 10.6682 9.67732L6.45332 6.66669H5.52482L-0.666375 10.5362V8.32362L4.00029 4.99028V4.30665Z" fill="url(#paint5_linear_1310_7890)"/>
<path fill-rule="evenodd" clip-rule="evenodd" d="M4.66667 4.00002L0 1.52588e-05H0.666667L5.33333 3.33335H6.66667L12 1.52588e-05V0.333349C12 0.517443 11.8846 0.749079 11.7221 0.865215L7.33333 4.00002V5.33335L11.7491 9.11829C11.8877 9.23706 11.8454 9.33335 11.6667 9.33335C11.4826 9.33335 11.218 9.25095 11.0554 9.13482L6.66667 6.00001H5.33333L0 9.33335V8.66668L4.66667 5.33335V4.00002Z" fill="url(#paint6_linear_1310_7890)"/>
<path fill-rule="evenodd" clip-rule="evenodd" d="M0 3.33335V6.00002H4.66667V9.3395C4.66667 9.70429 4.95205 10 5.33958 10H6.66042C7.03206 10 7.33333 9.71235 7.33333 9.3395V6.00002H12.0127C12.3739 6.00002 12.6667 5.71464 12.6667 5.3271V4.00626C12.6667 3.63462 12.3799 3.33335 12.0127 3.33335H7.33333V1.52588e-05H4.66667V3.33335H0Z" fill="url(#paint7_linear_1310_7890)"/>
<path fill-rule="evenodd" clip-rule="evenodd" d="M0 4.00002H5.33333V3.33335V1.52588e-05H6.66667V3.33335V4.00002H12V5.33335H6.66667V6.00001V9.33335H5.33333V6.00001V5.33335H0V4.00002Z" fill="url(#paint8_linear_1310_7890)"/>
</g>
<defs>
<linearGradient id="paint0_linear_1310_7890" x1="14" y1="1.52588e-05" x2="14" y2="20" gradientUnits="userSpaceOnUse">
<stop stop-color="white"/>
<stop offset="1" stop-color="#F0F0F0"/>
</linearGradient>
<linearGradient id="paint1_linear_1310_7890" x1="14" y1="1.52588e-05" x2="14" y2="20" gradientUnits="userSpaceOnUse">
<stop stop-color="#07319C"/>
<stop offset="1" stop-color="#00247E"/>
</linearGradient>
<linearGradient id="paint2_linear_1310_7890" x1="20.6667" y1="8.00002" x2="20.6667" y2="17.3333" gradientUnits="userSpaceOnUse">
<stop stop-color="#1F8BDE"/>
<stop offset="1" stop-color="#1075C2"/>
</linearGradient>
<linearGradient id="paint3_linear_1310_7890" x1="20.6667" y1="8.00002" x2="20.6667" y2="18.6667" gradientUnits="userSpaceOnUse">
<stop stop-color="#F7E14A"/>
<stop offset="1" stop-color="#F7DE38"/>
</linearGradient>
<linearGradient id="paint4_linear_1310_7890" x1="20.6667" y1="9.49074" x2="20.6667" y2="18" gradientUnits="userSpaceOnUse">
<stop stop-color="#4B8C36"/>
<stop offset="1" stop-color="#397127"/>
</linearGradient>
<linearGradient id="paint5_linear_1310_7890" x1="5.43254" y1="-1.2028" x2="5.43254" y2="10.5362" gradientUnits="userSpaceOnUse">
<stop stop-color="white"/>
<stop offset="1" stop-color="#F0F0F0"/>
</linearGradient>
<linearGradient id="paint6_linear_1310_7890" x1="6" y1="1.52588e-05" x2="6" y2="9.33335" gradientUnits="userSpaceOnUse">
<stop stop-color="#DB1E36"/>
<stop offset="1" stop-color="#D51931"/>
</linearGradient>
<linearGradient id="paint7_linear_1310_7890" x1="6.33333" y1="1.52588e-05" x2="6.33333" y2="10" gradientUnits="userSpaceOnUse">
<stop stop-color="white"/>
<stop offset="1" stop-color="#F0F0F0"/>
</linearGradient>
<linearGradient id="paint8_linear_1310_7890" x1="6" y1="1.52588e-05" x2="6" y2="9.33335" gradientUnits="userSpaceOnUse">
<stop stop-color="#DB1E36"/>
<stop offset="1" stop-color="#D51931"/>
</linearGradient>
<clipPath id="clip0_1310_7890">
<rect width="28" height="20" rx="2" fill="white"/>
</clipPath>
</defs>
</svg>
