<svg width="28" height="20" fill="none" xmlns="http://www.w3.org/2000/svg"><rect width="28" height="20" rx="2" fill="#fff"/><mask id="a" style="mask-type:alpha" maskUnits="userSpaceOnUse" x="0" y="0" width="28" height="20"><rect width="28" height="20" rx="2" fill="#fff"/></mask><g mask="url(#a)" fill-rule="evenodd" clip-rule="evenodd"><path d="M0 13.333h28V6.667H0v6.666Z" fill="#063191"/><path d="M0 20h28v-6.667H0V20Z" fill="#E2213B"/><path d="M14 9.333A.667.667 0 1 0 14 8a.667.667 0 0 0 0 1.333ZM11.333 10a.667.667 0 1 0 0-1.333.667.667 0 0 0 0 1.333Zm6-.667a.667.667 0 1 1-1.333 0 .667.667 0 0 1 1.333 0ZM10 12a.667.667 0 1 0 0-1.333A.667.667 0 0 0 10 12Zm8.667-.667a.667.667 0 1 1-1.334 0 .667.667 0 0 1 1.334 0Z" fill="#fff"/><path d="M0 6.667h28V0H0v6.667Z" fill="#FFD044"/></g></svg>