<svg width="28" height="20" fill="none" xmlns="http://www.w3.org/2000/svg"><rect width="28" height="20" rx="2" fill="#fff"/><mask id="a" style="mask-type:alpha" maskUnits="userSpaceOnUse" x="0" y="0" width="28" height="20"><rect width="28" height="20" rx="2" fill="#fff"/></mask><g mask="url(#a)" clip-rule="evenodd"><path fill-rule="evenodd" d="M0 8h28V0H0v8Zm0 12h28v-8H0v8Z" fill="#108753"/><path fill-rule="evenodd" d="M16 20h-4v-8H0V8h12V0h4v8h12v4H16v8Z" fill="#fff"/><path fill-rule="evenodd" d="M14.667 20h-1.334v-9.333H0V9.333h13.333V0h1.334v9.333H28v1.334H14.667V20Z" fill="#262626"/><path fill-rule="evenodd" d="M13.333 20H12V9.333H0V8h12V0h1.333v8H28v1.333H13.333V20Z" fill="#FCD449"/><path fill-rule="evenodd" d="M14 14.667a4.667 4.667 0 1 0 0-9.334 4.667 4.667 0 0 0 0 9.334Z" fill="url(#b)"/><path d="M14 13.333a3.333 3.333 0 1 0 0-6.666 3.333 3.333 0 0 0 0 6.666Z" stroke="#0E673F" stroke-width="1.333" stroke-linecap="round" stroke-dasharray="0.67 2.67"/><path fill-rule="evenodd" d="M14 11.333c.736 0 .667-.597.667-1.333s.07-1.333-.667-1.333c-.736 0-.667.597-.667 1.333s-.07 1.333.667 1.333Z" fill="#0E673F"/></g><defs><linearGradient id="b" x1="9.333" y1="5.333" x2="9.333" y2="14.667" gradientUnits="userSpaceOnUse"><stop stop-color="#E02C42"/><stop offset="1" stop-color="#D22036"/></linearGradient></defs></svg>