<svg width="28" height="20" viewBox="0 0 28 20" fill="none" xmlns="http://www.w3.org/2000/svg">
<rect width="28" height="20" rx="2" fill="#D01129"/>
<mask id="mask0_503_4223" style="mask-type:alpha" maskUnits="userSpaceOnUse" x="0" y="0" width="28" height="20">
<rect width="28" height="20" rx="2" fill="white"/>
</mask>
<g mask="url(#mask0_503_4223)">
<path fill-rule="evenodd" clip-rule="evenodd" d="M13.8881 10.0409C14.5491 10.0409 15.0849 9.47829 15.0849 8.78447C15.0849 8.09052 14.5491 7.52795 13.8881 7.52795C13.2272 7.52795 12.6915 8.09052 12.6915 8.78447C12.6915 9.47829 13.2272 10.0409 13.8881 10.0409Z" fill="#FFF101"/>
<path fill-rule="evenodd" clip-rule="evenodd" d="M12.7973 8.27925C13.1362 8.16573 13.5759 8.29784 13.8652 8.58934C14.1723 8.53063 14.4802 8.12573 14.5757 7.76524C14.4708 6.56732 13.7245 5.6598 13.4975 5.03705C13.4257 4.84023 13.093 4.53075 12.747 4.67485C12.4625 4.79338 12.3186 4.70115 11.363 5.20157C10.8463 5.47216 10.4114 5.75008 10.1823 5.79852C9.95297 5.84696 9.71111 5.89014 9.52773 5.73931C9.27549 5.53185 8.99262 5.47448 8.82602 5.31815C8.6219 5.12659 8.49095 4.982 8.35289 4.92341C8.21483 4.86469 7.98113 4.99509 8.07981 5.30543C8.30245 6.00634 8.8273 6.11986 9.05262 6.77503C9.15899 7.08475 9.31021 7.31754 9.64819 7.0828C9.98617 6.84806 10.4638 6.53625 11.2782 6.50347C11.8251 6.48133 12.3903 6.2702 12.6499 5.92378C12.6474 6.22347 12.748 6.4691 12.7215 6.85894C12.695 7.24891 12.6992 7.73393 12.7973 8.27925Z" fill="white"/>
<path fill-rule="evenodd" clip-rule="evenodd" d="M13.438 8.31217C13.3376 7.72244 13.5197 7.63743 13.3023 6.94617C13.1715 6.53051 13.088 6.00954 13.0859 5.76709L12.9985 5.79376C13.0006 6.0362 13.0843 6.5573 13.2149 6.97296C13.4252 7.64134 13.2617 7.74287 13.3416 8.2822C13.3663 8.28746 13.4182 8.30483 13.438 8.31217Z" fill="#FFF101"/>
<path fill-rule="evenodd" clip-rule="evenodd" d="M12.9235 8.24744C12.9242 8.17245 12.9197 8.09416 12.9086 8.02689C13.0623 7.98811 13.3254 8.13722 13.3181 8.0264C13.3159 7.99129 13.3193 7.87777 13.3214 7.81759C13.318 7.91166 12.952 7.75288 12.889 7.79386C12.8213 7.45074 12.9052 7.09771 12.8515 6.8823C12.9737 6.84719 13.1983 6.92377 13.1708 6.82322C13.1552 6.77172 13.1254 6.64364 13.1057 6.56352C13.1249 6.64744 12.9466 6.57796 12.8862 6.62591C12.8549 6.43985 12.8091 6.08683 12.81 5.92548L12.65 5.92377C12.6474 6.22346 12.748 6.46909 12.7215 6.85894C12.695 7.2489 12.6992 7.73392 12.7973 8.27924C12.8324 8.26848 12.8902 8.25465 12.9235 8.24744Z" fill="#FFF101"/>
<path fill-rule="evenodd" clip-rule="evenodd" d="M12.5192 5.50799C12.2806 5.86971 11.7107 6.11937 11.1837 6.17454C10.567 6.23912 10.1529 6.45466 9.848 6.66567C9.82179 6.61613 9.77449 6.58946 9.73266 6.5568C9.28656 6.20989 9.46994 5.7398 9.63887 5.80695C9.57515 5.78102 9.5381 5.74604 9.50326 5.71974C9.44431 5.67386 9.27421 5.84964 9.29553 6.12879C9.30462 6.24769 9.40155 6.4231 9.48043 6.51607C9.33643 6.48854 9.26746 6.44989 9.18287 6.34261C9.23041 6.31154 9.29192 6.29393 9.34155 6.28989C9.32466 6.24732 9.30113 6.2001 9.29553 6.12879C9.22505 6.12818 9.13907 6.15399 9.06532 6.20659C8.88835 6.02151 8.70614 5.87386 8.60047 5.65539C8.43142 5.30542 8.60338 5.08451 8.82602 5.31815C8.6219 5.12659 8.49095 4.982 8.35289 4.92341C8.21483 4.86469 7.98113 4.99509 8.07981 5.30542C8.30245 6.00634 8.8273 6.11986 9.05262 6.77503C9.15899 7.08475 9.31581 7.3261 9.64819 7.08279C9.692 7.05075 9.70365 7.04316 9.74175 7.01478C9.84718 6.95081 10.0143 7.05821 9.99643 7.29172C10.0818 7.07729 10.0273 7.0116 9.95483 6.88304C9.90124 6.91301 9.90555 6.73747 9.87247 6.71435C10.0621 6.59056 10.2928 6.4664 10.5838 6.37796C10.5946 6.48279 10.6221 6.59411 10.714 6.57796C10.7633 6.56646 10.8132 6.55607 10.8658 6.54689C10.7739 6.56304 10.748 6.4412 10.7374 6.33649C10.8753 6.30322 11.0261 6.27802 11.1913 6.26383C11.3817 6.24744 11.5784 6.20683 11.7632 6.14383C11.7907 6.24438 11.8476 6.4138 11.9423 6.38053C12.0263 6.35227 12.108 6.32035 12.1846 6.28328C12.0529 6.34922 12.001 6.16096 11.9693 6.06139C12.2101 5.95142 12.4153 5.80145 12.538 5.62249L12.5192 5.50799Z" fill="#FFF101"/>
<path fill-rule="evenodd" clip-rule="evenodd" d="M13.573 5.68756C13.6892 5.59288 13.7891 5.54811 13.6888 5.34762C13.5247 5.01979 13.6266 5.01867 13.2675 4.81011C12.9016 4.598 12.9479 4.58136 12.4638 4.76056C12.3447 4.8046 12.3713 4.84962 12.3922 5.0309C12.437 5.4216 12.5223 5.73623 12.6002 6.0577C12.9045 6.01599 13.3727 5.85086 13.573 5.68756Z" fill="#FFF101"/>
<path fill-rule="evenodd" clip-rule="evenodd" d="M12.4377 5.59878C12.3739 5.40697 12.391 5.43303 12.6224 5.4915C12.6981 5.23866 12.8027 5.02525 12.8613 4.8206C12.9268 4.59149 12.9473 4.55027 13.0436 4.60641C13.1669 4.67809 13.3022 4.75381 13.3904 4.79932C13.5445 4.87858 13.5217 4.90635 13.4482 5.03235C13.3747 5.15834 13.1343 5.4137 12.986 5.68012C13.1816 5.82471 13.2444 5.8378 13.1054 5.90006C12.9499 5.96967 12.6914 6.0559 12.5826 6.07633C12.5627 5.95046 12.4984 5.78067 12.4377 5.59878Z" fill="#FFF101"/>
<path fill-rule="evenodd" clip-rule="evenodd" d="M10.1411 7.40242L10.1257 7.59972L9.98716 7.46761L9.83221 7.57807L9.84246 7.38113L9.66409 7.32449L9.81648 7.20975L9.74926 7.02676L9.92809 7.08156L10.0226 6.91214L10.0943 7.09306L10.2789 7.06382L10.1885 7.23642L10.3246 7.36975L10.1411 7.40242Z" fill="#FFF101"/>
<path fill-rule="evenodd" clip-rule="evenodd" d="M14.0172 10.029C13.754 9.77747 13.6431 9.31166 13.739 8.90285C13.537 8.65306 13.0491 8.57539 12.704 8.66884C11.7683 9.36328 11.3929 10.4956 10.9927 11.0134C10.8662 11.1771 10.7773 11.6342 11.0693 11.8769C11.3093 12.0763 11.3052 12.2532 12.1957 12.8719C12.6772 13.2065 13.1239 13.463 13.2785 13.6472C13.4332 13.8314 13.5896 14.0298 13.5569 14.2719C13.5119 14.605 13.606 14.891 13.5604 15.1205C13.5044 15.4018 13.4507 15.5932 13.4713 15.7481C13.492 15.903 13.7163 16.0502 13.923 15.8054C14.3897 15.2525 14.221 14.7185 14.6488 14.186C14.8509 13.9344 14.9674 13.6805 14.6049 13.4905C14.2422 13.3006 13.7462 13.0221 13.3119 12.2982C13.0203 11.812 12.5636 11.4035 12.1479 11.3406C12.3964 11.1932 12.5488 10.9788 12.8836 10.8079C13.2185 10.637 13.6164 10.3909 14.0172 10.029Z" fill="white"/>
<path fill-rule="evenodd" clip-rule="evenodd" d="M13.7235 9.42996C13.2874 9.81614 13.1261 9.69296 12.6647 10.2363C12.3873 10.5631 11.9993 10.8996 11.8003 11.0226L11.866 11.0887C12.065 10.9656 12.453 10.6291 12.7305 10.3024C13.1767 9.777 13.3421 9.87486 13.7471 9.53247C13.7391 9.50752 13.7273 9.45161 13.7235 9.42996Z" fill="#FFF101"/>
<path fill-rule="evenodd" clip-rule="evenodd" d="M13.9274 9.93014C13.8653 9.96696 13.8029 10.0103 13.753 10.0539C13.6441 9.93357 13.6355 9.61968 13.5479 9.68195C13.5199 9.70127 13.4246 9.7551 13.3738 9.78323C13.4533 9.73932 13.5051 10.1514 13.5705 10.1882C13.3213 10.4214 12.9882 10.5216 12.8375 10.6782C12.7474 10.5845 12.6982 10.3421 12.629 10.4174C12.5944 10.4572 12.5037 10.5484 12.4474 10.6063C12.5071 10.5469 12.5389 10.7438 12.6085 10.7747C12.4708 10.8963 12.2025 11.1144 12.0689 11.1942L12.1475 11.3407C12.396 11.1933 12.5484 10.9788 12.8832 10.8079C13.2181 10.6371 13.6161 10.3909 14.0168 10.029C13.9904 10.0024 13.95 9.95681 13.9274 9.93014Z" fill="#FFF101"/>
<path fill-rule="evenodd" clip-rule="evenodd" d="M11.8702 11.6674C12.2878 11.7035 12.7787 12.0969 13.0877 12.5485C13.4493 13.077 13.8342 13.3457 14.1607 13.5174C14.1329 13.5661 14.1346 13.6224 14.1286 13.6768C14.0655 14.2559 13.5861 14.3241 13.5569 14.137C13.5674 14.2079 13.5571 14.2591 13.5529 14.304C13.5445 14.3805 13.7746 14.4472 13.9941 14.2883C14.0876 14.2205 14.1837 14.0447 14.2211 13.9266C14.2703 14.0712 14.2729 14.1533 14.2268 14.2838C14.1773 14.2561 14.1321 14.2089 14.1039 14.166C14.0772 14.2025 14.0501 14.2476 13.9941 14.2883C14.0288 14.3528 14.0931 14.418 14.1734 14.4587C14.1092 14.7121 14.0785 14.9517 13.9511 15.1569C13.7471 15.4856 13.4788 15.4397 13.5602 15.1205C13.5042 15.4018 13.4505 15.5933 13.4711 15.7481C13.4918 15.903 13.7161 16.0503 13.9228 15.8054C14.3895 15.2525 14.2208 14.7185 14.6486 14.186C14.8507 13.9344 14.9715 13.6712 14.6047 13.4905C14.5562 13.4668 14.5442 13.46 14.5018 13.4395C14.3962 13.3756 14.4014 13.17 14.6028 13.0695C14.3833 13.0991 14.3564 13.1815 14.2866 13.3117C14.338 13.3453 14.1911 13.4292 14.1885 13.4709C13.9916 13.3603 13.774 13.2127 13.5554 12.9921C13.6366 12.9301 13.7147 12.8494 13.6553 12.7739C13.6211 12.7349 13.5876 12.6945 13.5537 12.6514C13.6131 12.727 13.5256 12.8112 13.4444 12.8734C13.348 12.7646 13.2519 12.6401 13.1576 12.497C13.0489 12.332 12.917 12.1734 12.7726 12.0369C12.8418 11.9616 12.9531 11.8253 12.8783 11.7557C12.8131 11.6934 12.7458 11.6351 12.677 11.5841C12.7972 11.6709 12.6678 11.8122 12.6016 11.8907C12.3904 11.7268 12.1641 11.6151 11.9552 11.5933L11.8702 11.6674Z" fill="#FFF101"/>
<path fill-rule="evenodd" clip-rule="evenodd" d="M11.3218 10.6977C11.1855 10.6394 11.2527 10.5605 11.1375 10.752C10.9491 11.065 10.9127 10.9929 10.9204 11.4238C10.9282 11.8624 11.0093 11.7924 11.3993 12.143C11.699 11.907 12.0568 11.5503 12.2829 11.3187C12.0964 11.0629 11.5565 10.7984 11.3218 10.6977Z" fill="#FFF101"/>
<path fill-rule="evenodd" clip-rule="evenodd" d="M11.9857 11.6962C11.8595 11.8502 11.8724 11.8217 11.8049 11.582C11.5585 11.6395 11.3685 11.7059 11.1705 11.7549C10.9487 11.8099 10.9045 11.8118 10.9025 11.6962C10.9001 11.5482 10.895 11.3874 10.8883 11.2844C10.8768 11.1048 10.9109 11.1114 11.0517 11.1153C11.1924 11.1191 11.4848 11.1554 11.7787 11.157C11.8002 10.9069 11.7795 10.8433 11.9005 10.9386C12.0355 11.0451 12.2359 11.237 12.3072 11.3257C12.2133 11.4067 12.1055 11.5502 11.9857 11.6962Z" fill="#FFF101"/>
<path fill-rule="evenodd" clip-rule="evenodd" d="M14.6217 12.8829L14.7921 12.7981L14.7524 12.9901L14.9211 13.0758L14.7535 13.1649L14.7959 13.3554L14.625 13.2742L14.5076 13.4269L14.4635 13.2368L14.2765 13.2356L14.39 13.08L14.2735 12.9268L14.4612 12.9227L14.5031 12.7323L14.6217 12.8829Z" fill="#FFF101"/>
<path fill-rule="evenodd" clip-rule="evenodd" d="M14.8501 8.04511C14.7743 8.41 14.4454 8.74382 14.0604 8.86113C13.9553 9.16963 14.1352 9.65196 14.3849 9.91924C15.4254 10.4227 16.5472 10.1979 17.1743 10.3028C17.3726 10.336 17.7941 10.1882 17.8483 9.80156C17.8928 9.48364 18.0407 9.39899 18.1058 8.27985C18.141 7.67471 18.1292 7.14028 18.2039 6.90762C18.2786 6.67496 18.364 6.43337 18.58 6.34211C18.8772 6.21649 19.066 5.98786 19.2783 5.91459C19.5382 5.8248 19.723 5.77795 19.8403 5.68181C19.9578 5.58566 19.9671 5.30798 19.6618 5.24254C18.9724 5.09453 18.6163 5.51496 17.9632 5.39214C17.6546 5.33416 17.3868 5.35508 17.4115 5.77991C17.4362 6.20462 17.4545 6.79483 17.0745 7.55165C16.8192 8.06003 16.7108 8.67948 16.8666 9.0889C16.6208 8.93661 16.3678 8.90529 16.0595 8.68633C15.7511 8.46725 15.3491 8.2286 14.8501 8.04511Z" fill="white"/>
<path fill-rule="evenodd" clip-rule="evenodd" d="M14.503 8.61127C15.0396 8.81469 15.0186 9.02289 15.6975 9.1709C16.1057 9.25983 16.5772 9.44429 16.7783 9.56368L16.7999 9.47084C16.5989 9.35145 16.1273 9.16711 15.7192 9.07805C15.0626 8.93494 15.0607 8.73555 14.5758 8.53848C14.5592 8.55842 14.5189 8.59695 14.503 8.61127Z" fill="#FFF101"/>
<path fill-rule="evenodd" clip-rule="evenodd" d="M14.8134 8.17578C14.875 8.21382 14.9418 8.24881 15.0028 8.27254C14.958 8.43156 14.7033 8.59645 14.7985 8.64501C14.8285 8.66079 14.9204 8.72049 14.969 8.75254C14.8931 8.70226 15.207 8.44905 15.2048 8.37113C15.5218 8.48122 15.7709 8.73407 15.9755 8.7929C15.9433 8.92159 15.7679 9.08746 15.8646 9.11278C15.9148 9.12428 16.0353 9.16122 16.1113 9.18336C16.0324 9.1589 16.179 9.03144 16.1696 8.95278C16.3387 9.01712 16.6527 9.15205 16.7854 9.23364L16.8668 9.08893C16.621 8.93663 16.368 8.90532 16.0597 8.68636C15.7513 8.46728 15.3493 8.22862 14.8503 8.04514C14.8416 8.08232 14.8242 8.14189 14.8134 8.17578Z" fill="#FFF101"/>
<path fill-rule="evenodd" clip-rule="evenodd" d="M17.2748 9.17783C17.0958 8.78003 17.1749 8.13697 17.393 7.63019C17.6481 7.03704 17.6773 6.55275 17.6556 6.17012C17.7096 6.1711 17.7552 6.14138 17.8032 6.1196C18.3123 5.88756 18.6084 6.28927 18.4684 6.40927C18.5218 6.36425 18.5692 6.34823 18.6082 6.32963C18.6756 6.29881 18.6156 6.05636 18.3748 5.93624C18.2721 5.88499 18.0791 5.88548 17.9628 5.91055C18.0576 5.79349 18.1239 5.75019 18.2546 5.72682C18.2566 5.78566 18.2403 5.85037 18.2189 5.89746C18.2625 5.90334 18.3131 5.90554 18.3748 5.93624C18.4105 5.87239 18.4322 5.78138 18.4257 5.68792C18.6668 5.61967 18.8797 5.5278 19.1127 5.54101C19.4859 5.56217 19.5822 5.82908 19.2783 5.91459C19.5382 5.8248 19.723 5.77795 19.8403 5.68181C19.9577 5.58566 19.967 5.30798 19.6618 5.24254C18.9723 5.09453 18.6163 5.51496 17.9632 5.39214C17.6545 5.33416 17.377 5.35593 17.4115 5.77991C17.416 5.83581 17.4165 5.85012 17.4208 5.89893C17.4208 6.02688 17.2487 6.12499 17.0651 5.99202C17.1992 6.17697 17.2807 6.16022 17.4229 6.15863C17.425 6.09489 17.5676 6.18652 17.6033 6.16804C17.6106 6.40242 17.5976 6.67422 17.525 6.98309C17.4332 6.9404 17.3277 6.9097 17.295 7.00144C17.2799 7.05196 17.2634 7.1026 17.2448 7.15496C17.2774 7.06321 17.3908 7.10077 17.4825 7.14346C17.441 7.28548 17.3863 7.4352 17.3155 7.59251C17.2337 7.77379 17.1689 7.97294 17.1285 8.17257C17.0318 8.14725 16.8637 8.11422 16.8437 8.2171C16.825 8.30749 16.8105 8.39777 16.8028 8.48597C16.8143 8.33318 16.9955 8.38015 17.0934 8.40107C17.0639 8.67508 17.0848 8.93661 17.1712 9.13771L17.2748 9.17783Z" fill="#FFF101"/>
<path fill-rule="evenodd" clip-rule="evenodd" d="M16.5586 10.0094C16.5786 10.1626 16.5656 10.2757 16.7811 10.2846C17.1335 10.2994 17.1049 10.3451 17.4565 10.1227C17.8143 9.89627 17.8238 9.94098 17.9181 9.41119C17.9412 9.28092 17.8908 9.28251 17.7308 9.21082C17.3863 9.05621 17.0852 9.06677 16.7811 8.97686C16.6633 9.27447 16.5241 9.74568 16.5586 10.0094Z" fill="#FFF101"/>
<path fill-rule="evenodd" clip-rule="evenodd" d="M17.2412 9.05836C17.4315 9.09603 17.4014 9.0986 17.2375 9.27989C17.4082 9.47512 17.5388 9.61248 17.6784 9.76807C17.8346 9.94226 17.8583 9.98141 17.7639 10.041C17.6431 10.1172 17.5131 10.2023 17.4314 10.2599C17.2889 10.3602 17.2774 10.3257 17.2102 10.1958C17.1429 10.0661 17.0456 9.78411 16.9001 9.51622C16.6829 9.62166 16.6407 9.6723 16.6589 9.51475C16.6793 9.3386 16.7374 9.06044 16.775 8.95132C16.8887 8.9961 17.0609 9.02239 17.2412 9.05836Z" fill="#FFF101"/>
<path fill-rule="evenodd" clip-rule="evenodd" d="M16.9017 6.06811L16.7466 5.95545L16.9249 5.89551L16.9111 5.6993L17.0684 5.80719L17.2045 5.67337L17.2229 5.86933L17.4074 5.89967L17.2727 6.03496L17.3653 6.20548L17.1801 6.18016L17.112 6.36267L17.0148 6.1941L16.8368 6.25123L16.9017 6.06811Z" fill="#FFF101"/>
<path fill-rule="evenodd" clip-rule="evenodd" d="M13.8602 8.59487C13.5705 8.30301 13.1333 8.17476 12.7995 8.28654L12.7902 8.28068C12.7025 7.79335 12.6827 7.32267 12.7142 6.85841C12.7265 6.67882 12.7159 6.54737 12.6807 6.31298C12.6662 6.21577 12.6642 6.20216 12.659 6.16192C12.6486 6.0812 12.6432 6.01285 12.6427 5.94544C12.3864 6.2704 11.8442 6.48822 11.2785 6.51112C10.6093 6.53806 10.1913 6.71477 9.65222 7.08918C9.35273 7.2972 9.1817 7.1734 9.04578 6.77764C8.95579 6.51595 8.84604 6.36489 8.58281 6.08682L8.56256 6.06543C8.28687 5.77409 8.16703 5.60415 8.07291 5.30786C7.98502 5.03146 8.1749 4.83947 8.35563 4.91633C8.36794 4.92155 8.38029 4.92749 8.39277 4.93417C8.45097 4.9653 8.51069 5.01132 8.58973 5.08345C8.6168 5.10815 8.69612 5.18392 8.75754 5.24259L8.75756 5.24261L8.75756 5.24261C8.79124 5.27478 8.81953 5.30181 8.83088 5.31246C8.83989 5.32091 8.84918 5.32907 8.85891 5.33706C8.84516 5.328 8.83084 5.32206 8.8162 5.31903L8.74767 5.2537C8.68629 5.19507 8.60722 5.11955 8.5803 5.09498C8.50208 5.02359 8.44321 4.97823 8.38628 4.94777C8.37417 4.9413 8.3622 4.93554 8.3503 4.93049C8.18119 4.85857 8.00286 5.03887 8.08685 5.303C8.18008 5.59652 8.29878 5.76483 8.57301 6.05464L8.59326 6.07603C8.85788 6.35556 8.9687 6.50809 9.05961 6.77243C9.19279 7.16023 9.35479 7.2775 9.64431 7.07642C10.1854 6.7006 10.6057 6.52289 11.2781 6.49583C11.8497 6.47268 12.3968 6.2493 12.6444 5.91904L12.6574 5.92384C12.6567 5.99761 12.6622 6.07113 12.6735 6.15986C12.6787 6.19994 12.6807 6.21351 12.6952 6.31058C12.7306 6.54603 12.7412 6.67846 12.7289 6.85948C12.6977 7.31981 12.717 7.78643 12.8031 8.26938L12.7952 8.27196L12.8046 8.27783L12.8031 8.26938C13.1411 8.1604 13.5793 8.29051 13.864 8.58182C14.1516 8.52683 14.4676 8.14557 14.5685 7.76594C14.5187 7.19618 14.3346 6.68099 14.0038 6.04812C13.9528 5.95046 13.8134 5.6942 13.7457 5.56988L13.7086 5.50154C13.6031 5.30429 13.5366 5.16527 13.4908 5.03978C13.3961 4.77995 13.0419 4.56032 12.7498 4.68195C12.7101 4.6985 12.6714 4.71169 12.6291 4.72354C12.602 4.73113 12.5744 4.73795 12.5366 4.74659C12.1477 4.83561 11.9325 4.91198 11.3664 5.20841L11.3186 5.23357C11.2099 5.29114 10.948 5.43572 10.7848 5.52578L10.7848 5.5258L10.7848 5.52582L10.7847 5.52584L10.7847 5.52585L10.7846 5.5259L10.7846 5.52591C10.7153 5.56416 10.6639 5.59255 10.6496 5.60023C10.4255 5.72099 10.2851 5.7846 10.1838 5.80601C9.84886 5.87677 9.67951 5.87375 9.52337 5.74533C9.4742 5.70488 9.42165 5.66831 9.36376 5.63346C9.34882 5.62447 9.33367 5.61567 9.31804 5.60689L9.32268 5.60115L9.32067 5.59112C9.33789 5.60073 9.3545 5.61035 9.37088 5.62021C9.42935 5.65541 9.48248 5.69238 9.53223 5.7333C9.68381 5.85797 9.84992 5.86094 10.1808 5.79103C10.2804 5.76999 10.4199 5.70675 10.6428 5.58664C10.657 5.579 10.7082 5.55072 10.7773 5.5126L10.7774 5.51252L10.7775 5.5125C10.9406 5.42247 11.203 5.27762 11.312 5.21993L11.3598 5.19474C11.927 4.89771 12.1434 4.82094 12.5334 4.73166C12.5709 4.72307 12.5984 4.7163 12.6252 4.70878C12.667 4.69708 12.7051 4.68407 12.7443 4.66775C13.0448 4.54264 13.4069 4.76721 13.5043 5.03433C13.5497 5.15896 13.616 5.29742 13.7212 5.49407L13.7581 5.56213C13.8257 5.68635 13.9653 5.94294 14.0165 6.04078C14.3482 6.67532 14.5328 7.19231 14.5827 7.7673C14.4801 8.15481 14.1604 8.5407 13.8602 8.59487ZM9.3045 5.58219L9.32067 5.59112L9.32031 5.58932C9.31504 5.58664 9.30977 5.58426 9.3045 5.58219ZM9.25236 5.57152C9.26966 5.57181 9.28708 5.57533 9.3045 5.58219C9.27793 5.56767 9.24973 5.55301 9.21863 5.53744C9.20344 5.52983 9.16974 5.51334 9.13838 5.49803L9.13802 5.49492C9.12572 5.48907 9.11371 5.48416 9.10193 5.48022L9.0736 5.46635C8.98202 5.42091 8.91947 5.38483 8.86895 5.34513L8.86897 5.34434C8.86565 5.34172 8.8623 5.3393 8.85891 5.33706L8.86895 5.34513L8.86863 5.35682L8.86389 5.36013C8.85975 5.35692 8.85569 5.3537 8.8517 5.35044L8.8518 5.35037C8.8547 5.35228 8.85756 5.35436 8.86039 5.35659L8.86073 5.34412L8.8518 5.35037C8.85148 5.35016 8.85117 5.34995 8.85085 5.34975C8.8406 5.34135 8.8308 5.33275 8.8213 5.32385L8.8162 5.31903C8.7226 5.2997 8.61551 5.39928 8.55468 5.55961L8.56549 5.5688L8.86389 5.36013C8.91036 5.3961 8.96663 5.42921 9.04498 5.46888C8.93094 5.46315 8.8352 5.56943 8.71286 5.84174L8.72395 5.85101L9.13383 5.51259C9.16474 5.52769 9.19759 5.54376 9.21249 5.55122C9.22632 5.55815 9.23957 5.56489 9.25236 5.57152ZM9.29967 5.5967C9.28451 5.5884 9.26882 5.58006 9.25236 5.57152C9.12247 5.56937 8.99887 5.74949 8.92477 6.07012L8.9374 6.07687L9.31804 5.60689L9.30476 5.5995L9.30517 5.59899L9.3138 5.60308L9.31144 5.59125L9.30517 5.59899L9.29967 5.5967ZM8.94639 6.04199C9.02956 5.70749 9.16653 5.54433 9.29967 5.5967L9.30476 5.5995L8.94639 6.04199ZM8.94639 6.04199L8.93878 6.07372L8.92615 6.06697L8.94639 6.04199ZM9.11895 5.50533L9.13383 5.51259L9.13952 5.50789L9.13838 5.49803L9.11907 5.4886L9.10193 5.48022C9.08234 5.47366 9.06342 5.4698 9.04498 5.46888L9.0675 5.48016L9.0977 5.49494C8.96943 5.45206 8.87178 5.53256 8.73937 5.81873L8.71481 5.83901L8.7259 5.84828L8.73937 5.81873L9.11895 5.50533ZM9.12078 5.50382C9.11297 5.50044 9.10528 5.49747 9.0977 5.49494L9.11319 5.50252L9.11321 5.50253L9.11326 5.50255L9.11895 5.50533L9.12078 5.50382ZM9.12078 5.50382L9.13189 5.50886L9.13039 5.49589L9.12078 5.50382ZM8.57773 5.54202L8.8517 5.35044C8.85141 5.35021 8.85113 5.34998 8.85085 5.34975C8.76321 5.29296 8.64666 5.37946 8.57773 5.54202ZM8.57773 5.54202L8.55759 5.55611L8.56839 5.5653C8.57139 5.55738 8.57451 5.54962 8.57773 5.54202Z" fill="black"/>
<path fill-rule="evenodd" clip-rule="evenodd" d="M13.4175 7.76049C13.4072 7.98653 13.4108 8.10816 13.4453 8.3108L13.4357 8.31935C13.4247 8.31528 13.4105 8.3104 13.3957 8.30533C13.3736 8.29775 13.3503 8.28975 13.3346 8.28335C13.3082 8.10565 13.3061 7.99501 13.3156 7.78637L13.3176 7.74303C13.3291 7.47495 13.3088 7.2954 13.2081 6.97533C13.0867 6.58906 12.9937 6.06181 12.9966 5.78639L13.0933 5.767C13.0956 6.03353 13.1883 6.55909 13.3093 6.94375C13.4106 7.26577 13.4311 7.4472 13.4195 7.71708L13.4175 7.76049ZM13.4404 8.30491L13.4308 8.31346C13.4301 8.30917 13.4294 8.3049 13.4287 8.30068C13.4329 8.30215 13.4368 8.30357 13.4404 8.30491ZM13.3431 8.27466C13.3617 8.27861 13.4005 8.29075 13.4287 8.30068C13.396 8.10427 13.3927 7.98203 13.4029 7.75973L13.4048 7.71637C13.4164 7.44826 13.396 7.26867 13.2954 6.94852C13.1739 6.56244 13.081 6.03534 13.088 5.77438L13.0058 5.79364C13.0081 6.05995 13.1009 6.58567 13.2218 6.97052C13.3231 7.29245 13.3436 7.47384 13.332 7.7437L13.3301 7.78708C13.3206 7.99478 13.3227 8.1045 13.3431 8.27466Z" fill="black"/>
<path fill-rule="evenodd" clip-rule="evenodd" d="M11.7187 5.01059C11.6371 5.04733 11.6377 5.17756 11.7037 5.38041C11.7564 5.54263 11.8499 5.74643 11.9622 5.9546L11.9756 5.94878L11.7286 5.01557L11.7187 5.01059ZM12.9159 8.02561C12.9266 8.0906 12.9317 8.1684 12.9309 8.24754L12.9251 8.25495L12.9002 8.26047C12.8638 8.26864 12.8224 8.2779 12.7903 8.28069C12.7027 7.79336 12.6829 7.32268 12.7144 6.85842C12.7266 6.67882 12.7161 6.54738 12.6809 6.31298C12.6663 6.21577 12.6643 6.20217 12.6591 6.16193C12.6477 6.07253 12.6422 5.99831 12.6502 5.91615L12.8175 5.92555C12.8167 6.06387 12.8532 6.38195 12.8917 6.61337C12.9124 6.60186 12.9415 6.59872 12.9872 6.5996L13.0059 6.60007C13.0486 6.6013 13.065 6.60086 13.08 6.5967C13.0961 6.59221 13.1021 6.5843 13.0994 6.56856L13.1066 6.59812C13.1014 6.60423 13.0936 6.60867 13.0836 6.61147C13.0667 6.61618 13.0498 6.61663 13.0054 6.61535L12.9868 6.61488C12.9368 6.61392 12.9082 6.61805 12.8906 6.63203L12.8791 6.62726C12.8398 6.39417 12.8019 6.06719 12.81 5.93315L12.6572 5.92386C12.6566 5.99763 12.662 6.07115 12.6734 6.15988C12.6786 6.19996 12.6806 6.21353 12.6951 6.3106C12.7305 6.54605 12.7411 6.67848 12.7288 6.8595C12.6974 7.32251 12.7171 7.79188 12.7953 8.27193C12.8249 8.26285 12.8755 8.2502 12.9163 8.24123L12.9162 8.24738L12.922 8.23997L12.9163 8.24123C12.9167 8.16509 12.9118 8.09031 12.9069 8.01948C12.9478 8.00916 12.9973 8.01085 13.0608 8.02194C13.0821 8.02566 13.1034 8.03007 13.1333 8.03677C13.225 8.05733 13.2386 8.06 13.2656 8.06053C13.299 8.0612 13.3125 8.05162 13.3109 8.02693C13.3092 8.00057 13.3104 7.93054 13.3131 7.84603C13.3229 7.83992 13.3282 7.8307 13.3287 7.8179L13.3142 7.81734L13.3142 7.81733L13.3288 7.8179C13.3254 7.91419 13.3237 7.99742 13.3255 8.02589C13.3279 8.06136 13.3063 8.07663 13.2654 8.07582C13.2371 8.07526 13.2236 8.07262 13.1304 8.05173C13.1007 8.04507 13.0796 8.0407 13.0586 8.03702C12.9968 8.02624 12.949 8.02461 12.9159 8.02561ZM13.314 7.81983L13.3131 7.84603C13.3001 7.85424 13.279 7.85685 13.2509 7.85498C13.2154 7.85261 13.1754 7.84478 13.099 7.82686L13.0907 7.82491C12.9601 7.79422 12.9134 7.78706 12.8929 7.80038L12.8819 7.79543C12.8774 7.77265 12.8735 7.74945 12.8702 7.72578C12.8516 7.59441 12.8505 7.48358 12.8586 7.2671C12.8669 7.04697 12.8656 6.96882 12.8496 6.87495C12.8816 6.86574 12.9205 6.86335 12.9748 6.86525C12.9874 6.8657 12.9988 6.86625 13.0191 6.86736C13.087 6.87106 13.1108 6.87129 13.1339 6.8666C13.1613 6.86102 13.1704 6.84936 13.1639 6.82556C13.1559 6.79914 13.1444 6.75408 13.1268 6.68144L13.1247 6.67298C13.1257 6.67693 13.1149 6.63214 13.1066 6.59812C13.1141 6.58941 13.1164 6.57732 13.1128 6.56176L13.0988 6.56542L13.0988 6.56534L13.1129 6.56164C13.118 6.58237 13.1404 6.67489 13.139 6.66921L13.141 6.67766C13.1586 6.74998 13.17 6.7949 13.178 6.82113C13.1872 6.85483 13.1718 6.87448 13.1368 6.88161C13.112 6.88665 13.0879 6.88641 13.0185 6.88263C12.9982 6.88153 12.9869 6.88098 12.9744 6.88054C12.9417 6.87939 12.9148 6.87984 12.893 6.88021C12.8797 6.88043 12.8683 6.88062 12.8587 6.88039C12.8803 6.96703 12.8816 7.0458 12.8733 7.2677C12.8652 7.48326 12.8663 7.5934 12.8847 7.72354C12.8875 7.74362 12.8908 7.76336 12.8945 7.78277C12.9218 7.77241 12.9704 7.78094 13.094 7.80999L13.1024 7.81194C13.178 7.82967 13.2175 7.83742 13.252 7.83972C13.2916 7.84236 13.3116 7.83571 13.314 7.81983ZM13.314 7.81983L13.3142 7.81734L13.3141 7.81733L13.314 7.81983ZM13.0988 6.56542L13.0994 6.56856L13.0987 6.56546L13.0988 6.56542ZM11.7169 5.02856L11.7145 5.01968L11.7244 5.02466C11.7218 5.02584 11.7193 5.02714 11.7169 5.02856ZM11.9452 5.89149C11.8466 5.70364 11.7651 5.52222 11.7174 5.37549C11.6562 5.18719 11.6534 5.06583 11.7169 5.02856L11.9452 5.89149ZM11.9452 5.89149C11.9549 5.90997 11.9648 5.9285 11.9748 5.94708L11.9615 5.95289L11.9452 5.89149ZM11.7613 6.14841L11.7611 6.14846L11.7611 6.14846L11.7608 6.14862L11.7656 6.16511C11.8345 6.13816 11.9034 6.10651 11.9724 6.07046L11.9669 6.05426L11.9666 6.05441L11.9666 6.0544L11.9664 6.05447L11.7613 6.14841ZM11.7613 6.14841C11.8296 6.12166 11.898 6.09025 11.9664 6.05447L11.9666 6.05441L11.9721 6.0706L11.766 6.16495L11.7611 6.14846L11.7613 6.14841ZM10.582 6.37664C10.582 6.37664 10.582 6.37664 10.582 6.37664L10.5858 6.39352L10.7394 6.34607L10.7359 6.32906C10.7358 6.3291 10.7357 6.32913 10.7356 6.32917L10.7356 6.32913L10.7345 6.32946C10.6829 6.34367 10.6326 6.35921 10.5834 6.37616L10.582 6.37659L10.582 6.37664ZM10.582 6.37664L10.5858 6.39347C10.6357 6.37626 10.6866 6.36052 10.739 6.34614L10.7356 6.32917C10.7352 6.32926 10.7348 6.32936 10.7345 6.32946L10.5834 6.37616C10.5829 6.37632 10.5825 6.37648 10.582 6.37664Z" fill="black"/>
<path fill-rule="evenodd" clip-rule="evenodd" d="M11.183 6.16694C11.7405 6.10858 12.2878 5.84538 12.5132 5.50365L12.5264 5.5067L12.5439 5.62696C12.4248 5.80073 12.2243 5.95331 11.9762 6.05897C11.9757 6.05714 11.9863 6.09104 11.9897 6.10127C11.9953 6.11863 12.0004 6.13353 12.0058 6.14771C12.0504 6.26627 12.1032 6.31558 12.1815 6.27639L12.1815 6.27643C12.1616 6.28607 12.1411 6.29547 12.12 6.30465C12.0669 6.29807 12.0265 6.24392 11.9924 6.15332C11.9869 6.13888 11.9817 6.12377 11.976 6.10619C11.9727 6.09588 11.9619 6.06191 11.9666 6.05437C12.2164 5.94029 12.4148 5.7893 12.5309 5.62378L12.5152 5.52743C12.5186 5.52242 12.522 5.51739 12.5253 5.51234L12.5122 5.50929L12.5152 5.52743C12.281 5.86601 11.7377 6.12424 11.1846 6.18214C10.6498 6.23814 10.2399 6.40368 9.84177 6.66938C9.82518 6.63802 9.80525 6.61954 9.75516 6.5829L9.75496 6.58276C9.7417 6.57305 9.73572 6.56861 9.72846 6.56294C9.52684 6.40615 9.43459 6.20874 9.44801 6.02601C9.45738 5.89833 9.52069 5.80306 9.59362 5.79352C9.60717 5.80112 9.62122 5.80791 9.63633 5.81406L9.63631 5.81411C9.55658 5.78242 9.47316 5.88074 9.4624 6.0272C9.44938 6.20451 9.53929 6.39691 9.73702 6.55067C9.74413 6.55623 9.75002 6.56061 9.76317 6.57022L9.76336 6.57036C9.81525 6.60832 9.83634 6.62788 9.844 6.65929C10.2336 6.38963 10.6458 6.2232 11.183 6.16694ZM9.63928 5.79891C9.62391 5.79321 9.60856 5.79157 9.59362 5.79352C9.58044 5.78613 9.56773 5.77797 9.55494 5.76886C9.54289 5.76027 9.51098 5.73522 9.50164 5.7279C9.50012 5.7267 9.49919 5.72598 9.49906 5.72588C9.42863 5.67107 9.285 5.8934 9.30293 6.12817C9.31105 6.23446 9.39701 6.40609 9.486 6.51098L9.47926 6.52359C9.33201 6.49544 9.26221 6.45505 9.17916 6.33612C9.22193 6.30816 9.27872 6.28916 9.33105 6.28324L9.33497 6.29283L9.33513 6.29255L9.34113 6.28226C9.33782 6.28253 9.33448 6.28286 9.33113 6.28323C9.33111 6.28324 9.33108 6.28324 9.33105 6.28324L9.32032 6.25696C9.31025 6.23191 9.30274 6.2098 9.29858 6.18864C9.2951 6.17097 9.29396 6.15395 9.29561 6.13643C9.29339 6.13641 9.29116 6.13642 9.28892 6.13645C9.21797 6.13751 9.13662 6.16484 9.06032 6.212C9.04944 6.20062 9.03817 6.18901 9.02631 6.17691C9.00589 6.1561 8.95293 6.10338 8.91584 6.06645C8.89755 6.04824 8.88311 6.03388 8.87834 6.02907C8.73562 5.88525 8.65469 5.7841 8.59411 5.65885C8.51405 5.4931 8.50454 5.34214 8.56066 5.26334C8.59807 5.21081 8.65725 5.19994 8.72418 5.23126C8.73219 5.23892 8.74007 5.24644 8.74767 5.2537C8.76165 5.26705 8.77471 5.27953 8.78604 5.29033C8.69724 5.21417 8.61666 5.21007 8.5722 5.2725C8.52002 5.34577 8.52915 5.49084 8.60697 5.65194C8.66664 5.7753 8.74666 5.87532 8.88831 6.01805C8.89304 6.02282 8.9074 6.03712 8.92563 6.05527C8.96273 6.09219 9.01583 6.14506 9.03633 6.16595C9.04824 6.17809 9.05954 6.18975 9.06124 6.20027C9.12889 6.15202 9.20989 6.12394 9.28812 6.12719C9.27048 5.88273 9.42277 5.64759 9.50753 5.71354C9.5077 5.71367 9.50881 5.71454 9.51062 5.71596C9.52054 5.72374 9.55143 5.74797 9.563 5.75622C9.58744 5.77363 9.61151 5.78741 9.63928 5.79891ZM9.3375 6.29793C9.28591 6.30291 9.22897 6.32121 9.1885 6.33774C9.26701 6.43733 9.33122 6.47712 9.46129 6.50446C9.4146 6.44576 9.36987 6.37086 9.3375 6.29793ZM8.78604 5.29033C8.80097 5.30458 8.81287 5.3159 8.81984 5.32247C8.80848 5.31061 8.79719 5.2999 8.78604 5.29033ZM8.82094 5.3235L8.82088 5.32356C8.82054 5.3232 8.82019 5.32283 8.81984 5.32247C8.82022 5.32283 8.82059 5.32317 8.82094 5.3235ZM8.79369 5.27711C8.77 5.25706 8.74665 5.24178 8.72418 5.23126C8.6675 5.17714 8.60389 5.1165 8.5803 5.09497C8.50208 5.02359 8.44321 4.97823 8.38628 4.94777C8.37417 4.9413 8.3622 4.93554 8.3503 4.93049C8.18119 4.85857 8.00286 5.03887 8.08685 5.303C8.18008 5.59652 8.29878 5.76483 8.57301 6.05463L8.59326 6.07603C8.85788 6.35556 8.9687 6.50809 9.05961 6.77243C9.12123 6.95187 9.18691 7.06941 9.26994 7.13002C9.36874 7.20212 9.49034 7.18912 9.64417 7.07652C9.66238 7.0632 9.67504 7.05407 9.69632 7.03881L9.69696 7.03835C9.71125 7.02806 9.72249 7.01985 9.73824 7.00816C9.85552 6.937 9.99919 7.05573 10.0049 7.24861C10.0004 7.26143 9.99541 7.27479 9.98985 7.28877L10.0038 7.29233C10.005 7.27739 10.0053 7.2628 10.0049 7.24861C10.0436 7.1373 10.0408 7.06688 10.0051 6.98988C9.99831 6.97532 9.99036 6.96022 9.97941 6.94075C9.97921 6.9404 9.97899 6.94001 9.97874 6.93957C9.97302 6.92943 9.95433 6.89631 9.95839 6.88978C9.93988 6.90014 9.92491 6.89181 9.91438 6.86996C9.90715 6.85496 9.90239 6.83701 9.89478 6.80081L9.89293 6.792C9.88327 6.74604 9.87708 6.72667 9.86857 6.72072L9.86876 6.70786C10.0937 6.56103 10.321 6.44991 10.5912 6.37714C10.6052 6.51366 10.6404 6.58316 10.7125 6.5705C10.747 6.56247 10.7806 6.55524 10.8142 6.54869C10.8288 6.55578 10.8458 6.55787 10.8653 6.55473C10.8155 6.56346 10.7664 6.57357 10.7152 6.58551C10.6304 6.6004 10.5914 6.52337 10.5859 6.38531C10.3294 6.46326 10.1056 6.57212 9.88428 6.71568C9.8928 6.72726 9.89848 6.74806 9.90702 6.78872L9.90887 6.79753C9.9162 6.83236 9.92079 6.84965 9.92725 6.86306C9.93451 6.87813 9.94135 6.88193 9.96111 6.87915L9.99182 6.93299C10.003 6.95278 10.0111 6.9682 10.018 6.98319C10.0599 7.07326 10.0586 7.15549 10.0032 7.29468L9.98918 7.29112C10.005 7.08413 9.85992 6.95193 9.74597 7.02103C9.73072 7.03238 9.71942 7.04064 9.70507 7.05097L9.70443 7.05143C9.68314 7.0667 9.67053 7.07579 9.65237 7.08907C9.49395 7.20504 9.36585 7.21874 9.26151 7.14258C9.17532 7.07968 9.10836 6.95983 9.04578 6.77763C8.95579 6.51594 8.84604 6.36488 8.58281 6.08682L8.56256 6.06542C8.28687 5.77408 8.16703 5.60414 8.07291 5.30785C7.98502 5.03145 8.1749 4.83946 8.35563 4.91633C8.36794 4.92155 8.38029 4.92749 8.39277 4.93416C8.45097 4.96529 8.51069 5.01131 8.58973 5.08344C8.6168 5.10815 8.69613 5.18393 8.75756 5.2426C8.77064 5.2551 8.78291 5.26682 8.79369 5.27711ZM10.8646 6.53937C10.8477 6.54232 10.831 6.54542 10.8142 6.54869C10.7666 6.52569 10.7433 6.45005 10.7359 6.32904C10.8792 6.29447 11.0306 6.26998 11.1908 6.25621C11.3827 6.23969 11.5788 6.19872 11.7704 6.14172C11.815 6.30511 11.8691 6.39822 11.9402 6.37325C12.0046 6.3516 12.0643 6.32888 12.12 6.30465C12.1386 6.30694 12.1587 6.30342 12.1807 6.29361C12.1093 6.32768 12.031 6.35872 11.9446 6.38779C11.8607 6.41727 11.8035 6.31884 11.7655 6.15111C11.5821 6.21364 11.3849 6.25485 11.1919 6.27146C11.0323 6.28517 10.8817 6.30955 10.7447 6.33569C10.7591 6.47847 10.7932 6.5519 10.8646 6.53936L10.8646 6.53937ZM10.8646 6.53937C10.8646 6.53936 10.8647 6.53936 10.8647 6.53935L10.8671 6.55443C10.8665 6.55454 10.8659 6.55464 10.8653 6.55473C10.8659 6.55463 10.8664 6.55454 10.867 6.55444L10.8646 6.53937ZM8.79369 5.27711C8.80616 5.28766 8.81872 5.29953 8.8313 5.31274L8.8213 5.32384C8.82118 5.32373 8.82106 5.32362 8.82094 5.3235L8.83088 5.31245C8.82394 5.30594 8.81066 5.2933 8.79369 5.27711ZM9.63928 5.79891C9.64005 5.7992 9.64082 5.7995 9.64159 5.7998L9.63638 5.81408C9.63636 5.81407 9.63634 5.81407 9.63633 5.81406L9.64152 5.79983C9.64077 5.79953 9.64002 5.79922 9.63928 5.79891ZM12.1807 6.29361C12.183 6.29249 12.1853 6.29136 12.1877 6.29024L12.1815 6.27643C12.1816 6.2764 12.1816 6.27637 12.1817 6.27634L12.1879 6.29018C12.1855 6.2914 12.183 6.29254 12.1807 6.29361Z" fill="black"/>
<path fill-rule="evenodd" clip-rule="evenodd" d="M13.746 8.90472C13.65 9.314 13.7628 9.77567 14.022 10.0234L14.0219 10.0348C13.6639 10.3581 13.2858 10.6112 12.8867 10.8148C12.7695 10.8747 12.6695 10.9418 12.5603 11.0294C12.5332 11.0512 12.5064 11.0734 12.4717 11.1027C12.4749 11.1001 12.4058 11.1587 12.3867 11.1747C12.3014 11.2462 12.2378 11.2943 12.1693 11.3365C12.5656 11.407 13.0163 11.7911 13.318 12.2942C13.675 12.8892 14.0301 13.1812 14.608 13.4837C14.9293 13.652 14.9127 13.8694 14.6543 14.191C14.4822 14.4051 14.4138 14.5782 14.314 14.9646C14.2053 15.3855 14.1295 15.5721 13.9283 15.8105C13.7443 16.0286 13.4911 15.952 13.464 15.7492C13.4543 15.6767 13.4599 15.5946 13.4798 15.4804C13.4888 15.4291 13.5253 15.2536 13.5433 15.1668L13.5532 15.1189C13.5557 15.1063 13.5578 15.094 13.5596 15.0817C13.5591 15.0985 13.5613 15.1142 13.566 15.1289L13.5574 15.1705C13.5394 15.2574 13.503 15.4322 13.4942 15.4831C13.4745 15.5959 13.469 15.6765 13.4784 15.7471C13.5038 15.9368 13.7415 16.0087 13.9174 15.8003C14.1168 15.5642 14.1918 15.3794 14.2999 14.9606C14.4003 14.5722 14.4693 14.3975 14.6431 14.1811C14.8963 13.866 14.9121 13.6601 14.6015 13.4974C14.0215 13.1937 13.6643 12.9001 13.3057 12.3023C13.0008 11.794 12.543 11.4082 12.1468 11.3483L12.1442 11.334C12.219 11.2897 12.2855 11.24 12.3776 11.1627C12.3966 11.1468 12.4657 11.0882 12.4626 11.0908C12.4973 11.0614 12.5242 11.0391 12.5514 11.0173C12.6614 10.9291 12.7621 10.8614 12.8804 10.8011C13.2761 10.5991 13.651 10.3485 14.0062 10.0288L14.0122 10.0347L14.0124 10.0232L14.0062 10.0288C13.7472 9.77582 13.6354 9.31241 13.7334 8.90784C13.5441 8.67388 13.0717 8.57718 12.7081 8.67513C12.3583 8.93471 12.0671 9.26723 11.7908 9.69166C11.7147 9.80852 11.5609 10.0763 11.4111 10.3369L11.4111 10.3369C11.2555 10.6077 11.1043 10.8707 11.0494 10.9489C11.0321 10.9735 11.0151 10.9966 10.9983 11.0183C10.8313 11.2343 10.8273 11.6661 11.0737 11.871C11.0852 11.8805 11.0964 11.8902 11.1073 11.9001C11.1406 11.9302 11.1708 11.9614 11.2064 12.0014L11.2484 12.0497L11.2485 12.0497L11.2485 12.0498C11.2766 12.0821 11.3103 12.121 11.3256 12.1382C11.3791 12.1981 11.4324 12.2533 11.4962 12.3135C11.6608 12.469 11.8836 12.646 12.1996 12.8656C12.3604 12.9773 12.866 13.3112 12.8635 13.3095C13.087 13.4603 13.2136 13.5585 13.2838 13.6422C13.5095 13.9109 13.5919 14.0668 13.564 14.273C13.5525 14.3584 13.5491 14.4341 13.5524 14.529L13.5457 14.5277L13.5381 14.5348C13.5344 14.4366 13.5377 14.3588 13.5496 14.2709C13.5767 14.0707 13.4959 13.9178 13.2729 13.6523C13.2039 13.5701 13.078 13.4724 12.8556 13.3224C12.8583 13.3242 12.3525 12.9901 12.1916 12.8783C11.875 12.6584 11.6516 12.4809 11.4864 12.3249C11.4223 12.2643 11.3688 12.2088 11.315 12.1487C11.2995 12.1313 11.2656 12.0922 11.2375 12.0598L11.1958 12.0119C11.1605 11.9722 11.1306 11.9414 11.0978 11.9116C11.087 11.9019 11.076 11.8924 11.0647 11.883C10.8112 11.6722 10.8153 11.2308 10.987 11.0087C11.0037 10.9871 11.0205 10.9642 11.0376 10.9398C11.0921 10.8622 11.2426 10.6004 11.3978 10.3303L11.3978 10.3303L11.3978 10.3303L11.3978 10.3303L11.3978 10.3303L11.3979 10.3303L11.3979 10.3303C11.5479 10.0692 11.7023 9.8005 11.7788 9.68303C12.056 9.25721 12.3484 8.9234 12.7021 8.66148C13.0729 8.56104 13.5512 8.65891 13.746 8.90472ZM13.5387 14.5511L13.5381 14.5348L13.5371 14.5358C13.5374 14.541 13.538 14.5461 13.5387 14.5511ZM13.5563 14.6062C13.5476 14.5897 13.5417 14.5713 13.5387 14.5511C13.5411 14.6046 13.5454 14.6643 13.5515 14.7349L13.5525 14.7467L13.5503 14.7484C13.5515 14.7619 13.5534 14.7748 13.5558 14.787C13.5673 14.9278 13.5697 15.0003 13.5614 15.068L13.5606 15.0685C13.5601 15.0729 13.5598 15.0773 13.5596 15.0817L13.5614 15.068L13.5711 15.0625L13.5765 15.0653C13.5758 15.0707 13.5751 15.0761 13.5744 15.0814L13.574 15.0812C13.5742 15.0776 13.5745 15.074 13.5749 15.0703L13.5644 15.0762L13.574 15.0812C13.574 15.0823 13.574 15.0833 13.574 15.0844C13.5722 15.0968 13.57 15.1093 13.5674 15.1221L13.566 15.1289C13.5967 15.2238 13.7326 15.2715 13.8952 15.2465L13.8974 15.2321L13.5765 15.0653C13.583 15.0082 13.5822 14.9469 13.5749 14.8454C13.627 14.9524 13.7626 14.9865 14.0489 14.9615L14.051 14.9468L13.5668 14.7433L13.566 14.7335C13.5619 14.6867 13.5587 14.6447 13.5563 14.6062ZM13.5533 14.5503C13.554 14.5681 13.5551 14.5867 13.5563 14.6062C13.6193 14.7255 13.8297 14.7479 14.1314 14.655L14.1306 14.6401L13.5524 14.529L13.553 14.5446L13.5525 14.5445L13.5515 14.5346L13.5429 14.5427L13.5525 14.5445L13.5533 14.5503ZM14.0972 14.6492C13.7795 14.7409 13.5764 14.6978 13.5533 14.5503L13.553 14.5446L14.0972 14.6492ZM14.0972 14.6492L14.1272 14.6403L14.1279 14.6551L14.0972 14.6492ZM13.5683 14.7605L13.5668 14.7433L13.5602 14.7406L13.5525 14.7467L13.5558 14.787C13.5602 14.8085 13.5664 14.8279 13.5749 14.8454C13.5736 14.827 13.5721 14.8074 13.5704 14.7862C13.5995 14.9232 13.7151 14.9714 14.0164 14.9488L14.0454 14.961L14.0475 14.9463L14.0164 14.9488L13.5683 14.7605ZM13.5659 14.7595C13.5671 14.7688 13.5686 14.7777 13.5704 14.7862L13.5683 14.7605L13.5659 14.7595ZM13.5659 14.7595L13.5645 14.7469L13.5546 14.7548L13.5659 14.7595ZM13.8691 15.2345L13.5744 15.0814C13.5743 15.0824 13.5741 15.0834 13.574 15.0844C13.5726 15.1913 13.7017 15.2531 13.8691 15.2345ZM13.8691 15.2345L13.8908 15.2458L13.8929 15.2313C13.8849 15.2326 13.877 15.2336 13.8691 15.2345Z" fill="black"/>
<path fill-rule="evenodd" clip-rule="evenodd" d="M13.2616 9.73387C13.4753 9.6182 13.5642 9.5612 13.719 9.42413L13.7308 9.42858C13.7329 9.44053 13.7361 9.45617 13.7394 9.47247C13.7442 9.4961 13.7493 9.52115 13.7519 9.53844C13.6137 9.65528 13.5332 9.70574 13.3339 9.8136L13.2929 9.83597C13.0839 9.9512 12.9425 10.0644 12.7361 10.3075C12.4782 10.6111 12.0899 10.9592 11.8612 11.0942L11.7968 11.0161C12.0155 10.8808 12.4026 10.5337 12.6594 10.2312C12.8672 9.98666 13.0099 9.87233 13.2206 9.75623L13.2616 9.73387ZM13.7165 9.43138L13.7283 9.43582C13.7252 9.43864 13.722 9.44142 13.7189 9.44417C13.718 9.43961 13.7172 9.4353 13.7165 9.43138ZM13.7189 9.44417C13.5688 9.57617 13.4785 9.63368 13.2683 9.74746L13.2274 9.76977C13.0181 9.88504 12.8768 9.99825 12.6703 10.2414C12.4126 10.545 12.0243 10.8931 11.8055 11.0171L11.8625 11.0821C12.0811 10.9469 12.4683 10.5998 12.7252 10.2973C12.9329 10.0528 13.0756 9.93849 13.2861 9.82243L13.3273 9.80001C13.5257 9.69259 13.6055 9.64257 13.7404 9.53493C13.7343 9.51612 13.7248 9.47442 13.7189 9.44417Z" fill="black"/>
<path fill-rule="evenodd" clip-rule="evenodd" d="M13.7484 10.0481C13.7967 10.0059 13.8584 9.96236 13.9239 9.92351L13.9329 9.92509L13.9501 9.94516C13.9748 9.97388 14.0033 10.007 14.0217 10.0348C13.6637 10.3581 13.2856 10.6112 12.8866 10.8148C12.7693 10.8747 12.6693 10.9418 12.5601 11.0294C12.533 11.0512 12.5062 11.0734 12.4715 11.1027C12.4747 11.1001 12.4056 11.1587 12.3865 11.1747C12.2938 11.2524 12.2268 11.3025 12.1413 11.3444L12.0654 11.1876C12.1801 11.1191 12.4247 10.9264 12.5956 10.7762C12.575 10.7627 12.5577 10.7368 12.5337 10.6906L12.5202 10.6646C12.5151 10.6549 12.511 10.6474 12.5071 10.6408C12.4863 10.605 12.4721 10.5952 12.4556 10.6091L12.4763 10.5879C12.4907 10.5915 12.5049 10.6071 12.5199 10.6328C12.5239 10.6397 12.5281 10.6473 12.5332 10.6572L12.5467 10.6833C12.573 10.7337 12.5906 10.7583 12.6118 10.7677L12.6136 10.7806C12.4418 10.9323 12.1905 11.1307 12.0757 11.1905L12.1444 11.334C12.2191 11.2897 12.2856 11.24 12.3778 11.1627C12.3968 11.1468 12.4658 11.0882 12.4627 11.0908C12.4974 11.0615 12.5244 11.0391 12.5515 11.0173C12.6615 10.9291 12.7623 10.8614 12.8805 10.8011C13.2785 10.598 13.6556 10.3456 14.0122 10.0345C13.9898 10.012 13.9536 9.97185 13.9263 9.93988L13.9314 9.93684L13.9224 9.93526L13.9263 9.93988C13.8634 9.97752 13.8041 10.0194 13.7481 10.0592C13.7148 10.0224 13.6896 9.96886 13.6633 9.88915C13.6597 9.8784 13.6517 9.85262 13.644 9.82773L13.6439 9.82769L13.6439 9.82769L13.6439 9.82766C13.6365 9.80386 13.6294 9.78088 13.6266 9.77266C13.6135 9.73329 13.6027 9.70871 13.5911 9.69449C13.5791 9.67968 13.5676 9.6775 13.5523 9.68837C13.5312 9.70298 13.4685 9.73935 13.4019 9.77656C13.392 9.77076 13.3817 9.77054 13.3709 9.77651L13.3776 9.78989L13.3774 9.79003L13.3706 9.7765C13.4451 9.73521 13.5209 9.69156 13.5439 9.67564C13.5656 9.66029 13.5853 9.66403 13.6019 9.68457C13.615 9.70067 13.6264 9.72652 13.6401 9.7676C13.6429 9.776 13.6501 9.79929 13.6576 9.82327L13.6576 9.82332C13.6653 9.84807 13.6732 9.87356 13.6767 9.88413C13.7024 9.96193 13.7269 10.0139 13.7484 10.0481ZM13.3796 9.78895L13.4019 9.77656C13.4154 9.78444 13.4282 9.8026 13.4408 9.82952C13.4567 9.86333 13.47 9.90322 13.4939 9.98317C13.5101 10.0376 13.5104 10.0387 13.5163 10.0575C13.5399 10.1323 13.5579 10.1722 13.5744 10.1815L13.5758 10.194C13.5041 10.2611 13.4223 10.3207 13.3224 10.3816C13.281 10.4068 13.1791 10.464 13.1037 10.5063L13.1037 10.5063C13.062 10.5297 13.0284 10.5486 13.0176 10.555C12.9383 10.602 12.8834 10.6417 12.8328 10.6836C12.8072 10.657 12.7848 10.6202 12.7558 10.5619L12.7473 10.5447C12.7384 10.5263 12.7252 10.4993 12.7204 10.49C12.7076 10.4649 12.6974 10.4473 12.6877 10.4344C12.6675 10.4076 12.6523 10.4036 12.6348 10.4225C12.6165 10.4437 12.5841 10.4776 12.5297 10.5333L12.5279 10.5352C12.5347 10.5282 12.5014 10.5622 12.4763 10.5879C12.4655 10.5852 12.4545 10.5892 12.4428 10.6008L12.4528 10.6117L12.4525 10.6119L12.4424 10.6009C12.4572 10.5857 12.5274 10.5139 12.5173 10.5243L12.5192 10.5224C12.5734 10.4669 12.6057 10.433 12.6239 10.4121C12.6487 10.3852 12.6738 10.3916 12.6988 10.4249C12.7092 10.4387 12.7198 10.4569 12.7329 10.4827C12.7378 10.4923 12.7511 10.5195 12.7601 10.5379L12.7684 10.5548C12.79 10.5982 12.8077 10.6293 12.8211 10.6527L12.8211 10.6527L12.8325 10.6727C12.8739 10.6297 12.9298 10.5893 13.0102 10.5416C13.0211 10.5352 13.055 10.5161 13.097 10.4926C13.1723 10.4503 13.2737 10.3934 13.3147 10.3684C13.4107 10.3098 13.4897 10.2526 13.559 10.1889C13.5408 10.1717 13.524 10.1317 13.5022 10.0623C13.4962 10.0433 13.4959 10.0422 13.4796 9.98773C13.456 9.90859 13.4428 9.8691 13.4274 9.83627C13.4097 9.79844 13.3941 9.78324 13.3796 9.78895ZM13.3796 9.78895L13.3776 9.78989L13.3777 9.79003L13.3796 9.78895ZM12.4528 10.6117L12.4556 10.6091L12.4529 10.6118L12.4528 10.6117ZM11.8602 12.644C11.9313 12.6999 12.0384 12.6342 12.1728 12.4728C12.2803 12.3438 12.4017 12.1569 12.5171 11.9508L12.5056 11.9416L11.8593 12.6326L11.8602 12.644ZM11.8761 12.6367L11.8699 12.6433L11.8691 12.6318C11.8714 12.6336 11.8737 12.6352 11.8761 12.6367ZM12.162 12.4627C12.0373 12.6125 11.9386 12.6757 11.8761 12.6367L12.4737 11.9977C12.3682 12.1812 12.2592 12.346 12.162 12.4627ZM12.4737 11.9977C12.4841 11.9796 12.4944 11.9614 12.5047 11.943L12.5162 11.9523L12.4737 11.9977ZM12.5976 11.8969C12.6576 11.9434 12.7146 11.992 12.7681 12.0426L12.7775 12.0311L12.7776 12.0313L12.7682 12.0429L12.5971 11.8967L12.6061 11.8846L12.6065 11.8849L12.5976 11.8969ZM12.6083 11.8863L12.6065 11.8849L12.6065 11.8849L12.6083 11.8863ZM12.6083 11.8863L12.7757 12.0294L12.7775 12.0311L12.7776 12.031L12.7757 12.0294C12.723 11.9797 12.6671 11.932 12.6083 11.8863ZM13.5578 13.0043C13.559 13.0055 13.5603 13.0068 13.5615 13.008L13.5727 12.9964C13.5727 12.9964 13.5727 12.9964 13.5728 12.9964L13.5615 13.0082L13.5578 13.0043ZM13.4433 12.8838L13.5578 13.0043C13.5204 12.9669 13.4825 12.927 13.4433 12.8838ZM13.4395 12.8795C13.4395 12.8795 13.4395 12.8795 13.4394 12.8794L13.451 12.868L13.5728 12.9963L13.5727 12.9964C13.5329 12.9568 13.4927 12.9144 13.451 12.8682L13.4395 12.8795ZM13.4395 12.8795C13.4408 12.8809 13.4421 12.8824 13.4433 12.8838L13.4394 12.8796L13.4395 12.8795Z" fill="black"/>
<path fill-rule="evenodd" clip-rule="evenodd" d="M11.8751 11.6733L11.8711 11.6598C11.8769 11.6603 11.8828 11.6609 11.8886 11.6615L11.8751 11.6733ZM12.726 11.6312C12.7381 11.6606 12.736 11.6943 12.7213 11.7315C12.7079 11.7654 12.6853 11.8005 12.6528 11.8413C12.6407 11.8565 12.6287 11.8707 12.5976 11.8969C12.3782 11.7267 12.1545 11.6218 11.9602 11.5991L11.8886 11.6615C12.285 11.7051 12.7696 12.07 13.0939 12.544C13.4073 13.0022 13.7487 13.292 14.1672 13.5213C14.1496 13.5523 14.1443 13.5797 14.1392 13.6438L14.1391 13.6455C14.1378 13.6607 14.1371 13.6686 14.1361 13.6777C14.1076 13.9394 13.9909 14.122 13.8335 14.2011C13.7236 14.2564 13.6134 14.2465 13.569 14.1852C13.5685 14.1704 13.5672 14.1557 13.565 14.1397C13.5817 14.2249 13.7027 14.2498 13.827 14.1873C13.9798 14.1105 14.0936 13.9326 14.1216 13.6759C14.1225 13.6671 14.1232 13.6592 14.1244 13.6442L14.1246 13.6425C14.1299 13.5761 14.1354 13.5471 14.1576 13.5243C13.7401 13.3046 13.3968 13.0133 13.0819 12.553C12.7551 12.0752 12.2643 11.7091 11.8697 11.675L11.8657 11.6615L11.9561 11.5857C12.1588 11.6069 12.3848 11.7129 12.5963 11.8857C12.6177 11.8606 12.6295 11.8465 12.6415 11.8315C12.6732 11.7917 12.695 11.7578 12.7077 11.7257C12.7298 11.6696 12.7209 11.625 12.673 11.5904L12.6813 11.5778C12.6813 11.5778 12.6813 11.5778 12.6813 11.5778L12.6731 11.5903C12.6906 11.6033 12.7082 11.617 12.726 11.6312ZM13.5814 12.6976C13.5863 12.7523 13.5356 12.8113 13.4393 12.8786C13.3394 12.7658 13.2436 12.6404 13.1519 12.5013C13.0424 12.3352 12.9106 12.1775 12.7677 12.0316C12.8802 11.9091 12.9298 11.8136 12.8737 11.7614C12.8232 11.7132 12.7742 11.6699 12.726 11.6312C12.7187 11.6134 12.7061 11.5973 12.688 11.5828C12.7516 11.6304 12.8163 11.686 12.8833 11.75C12.9495 11.8116 12.8971 11.9126 12.7777 12.0313C12.9211 12.1669 13.0536 12.3255 13.1637 12.4926C13.255 12.6311 13.3504 12.7559 13.4403 12.8672C13.551 12.7825 13.5944 12.715 13.5482 12.6562L13.5595 12.6465C13.5595 12.6465 13.5595 12.6465 13.5595 12.6466L13.5483 12.6562C13.5593 12.6702 13.5703 12.684 13.5814 12.6976ZM14.5635 13.0834C14.4366 13.1063 14.3832 13.1497 14.3285 13.2492C14.3278 13.2504 14.327 13.2519 14.326 13.2537C14.3168 13.2706 14.2955 13.3098 14.2907 13.3052C14.3076 13.3162 14.309 13.3331 14.298 13.3523C14.2902 13.3659 14.2776 13.3799 14.2549 13.4019L14.2482 13.4083C14.2091 13.4458 14.1968 13.46 14.1961 13.4714L14.1854 13.4777C13.9518 13.3465 13.7466 13.1954 13.5514 12.986C13.657 12.9053 13.6969 12.8384 13.6502 12.7791C13.6268 12.7523 13.604 12.7253 13.5814 12.6976C13.58 12.6816 13.5738 12.6659 13.5626 12.6505C13.5948 12.6913 13.6272 12.7303 13.661 12.7691C13.7159 12.8387 13.6717 12.9129 13.5606 12.9866C13.7532 13.181 13.9548 13.33 14.1837 13.4595C14.1889 13.4458 14.2035 13.4304 14.2382 13.397L14.2449 13.3906C14.2666 13.3696 14.2785 13.3563 14.2854 13.3444C14.2927 13.3316 14.2921 13.3242 14.2804 13.3079C14.2812 13.3066 14.2835 13.3021 14.2867 13.296C14.2955 13.2795 14.3105 13.2511 14.3157 13.2415C14.3782 13.128 14.4407 13.0836 14.602 13.0619L14.6061 13.0764C14.4275 13.1655 14.391 13.3636 14.505 13.4326C14.5216 13.4406 14.5335 13.4465 14.5498 13.4547L14.5504 13.455C14.5835 13.4716 14.5869 13.4733 14.6079 13.4836C14.7828 13.5697 14.8581 13.6793 14.8474 13.8123C14.8386 13.9221 14.7733 14.0429 14.6543 14.191C14.4823 14.4051 14.4139 14.5782 14.314 14.9646C14.2053 15.3855 14.1296 15.5721 13.9284 15.8104C13.7443 16.0285 13.4912 15.952 13.464 15.7492C13.4544 15.6767 13.46 15.5946 13.4799 15.4804C13.4888 15.4291 13.5253 15.2536 13.5433 15.1668C13.5435 15.1661 13.5436 15.1654 13.5438 15.1647C13.5383 15.1984 13.5371 15.2292 13.5398 15.2564C13.5218 15.3431 13.5008 15.446 13.4943 15.4831C13.4747 15.5959 13.4692 15.6765 13.4786 15.7471C13.504 15.9368 13.7417 16.0087 13.9176 15.8003C14.1169 15.5642 14.1919 15.3794 14.3001 14.9605C14.4004 14.5722 14.4695 14.3974 14.6433 14.1811C14.7605 14.0353 14.8246 13.9168 14.833 13.811C14.8431 13.6851 14.7716 13.581 14.6019 13.4974C14.5808 13.4871 14.5774 13.4854 14.5442 13.4688L14.5437 13.4685C14.5274 13.4603 14.5155 13.4544 14.4984 13.4461C14.381 13.3751 14.4072 13.185 14.5635 13.0834ZM13.5571 15.1731C13.5522 15.1962 13.5462 15.2253 13.5398 15.2564C13.5473 15.333 13.5859 15.3815 13.648 15.3893C13.7411 15.4009 13.8608 15.3168 13.9575 15.1611C14.0381 15.0312 14.0776 14.9089 14.1356 14.6531C14.1645 14.5257 14.1675 14.5127 14.1807 14.4607C14.1035 14.4148 14.0402 14.3545 14.0039 14.2904C14.0028 14.2885 14.0017 14.2865 14.0007 14.2845C14.0091 14.2829 14.0176 14.2781 14.0259 14.2717C14.0332 14.266 14.0404 14.2589 14.0474 14.2516C14.0595 14.2388 14.0704 14.2254 14.0822 14.2094C14.086 14.2043 14.0948 14.1919 14.1016 14.1823C14.1025 14.1811 14.1033 14.18 14.1041 14.1789C14.1353 14.2237 14.1793 14.2657 14.2237 14.2905C14.2801 14.1555 14.2785 14.0718 14.2283 13.924L14.2145 13.9242C14.1737 14.053 14.0807 14.21 13.9991 14.2752C13.9961 14.2776 13.9932 14.2799 13.9902 14.282C13.9902 14.282 13.9901 14.2821 13.9901 14.2821C13.8055 14.4157 13.5504 14.3963 13.5604 14.3048C13.5611 14.2967 13.562 14.2893 13.5639 14.273C13.5679 14.2382 13.5698 14.2116 13.569 14.1852C13.5594 14.1719 13.5528 14.1562 13.55 14.1382L13.5643 14.1358C13.5645 14.1371 13.5647 14.1384 13.565 14.1397C13.5648 14.1384 13.5646 14.1371 13.5644 14.1358L13.5643 14.1358C13.5643 14.1358 13.5643 14.1358 13.5643 14.1358L13.5499 14.1382C13.5565 14.1831 13.5556 14.2166 13.5493 14.2711C13.5474 14.2875 13.5465 14.2951 13.5458 14.3032C13.5337 14.4132 13.8038 14.4341 13.9966 14.2959C14.033 14.3686 14.0967 14.4282 14.1704 14.4656C14.1533 14.509 14.1502 14.522 14.1213 14.6495C14.0637 14.9037 14.0246 15.0248 13.9451 15.1528C13.8512 15.3041 13.7362 15.3849 13.6496 15.3741C13.5764 15.3649 13.5394 15.2905 13.5571 15.1731ZM13.5533 15.1189C13.5534 15.1188 13.5534 15.1186 13.5535 15.1185L13.5676 15.122C13.5666 15.1271 13.5629 15.145 13.5576 15.1705C13.5574 15.1713 13.5572 15.1722 13.5571 15.1731C13.5595 15.157 13.5629 15.1401 13.5674 15.1225L13.5533 15.1189ZM13.5533 15.1189C13.5532 15.1197 13.553 15.1204 13.5528 15.1211C13.553 15.1202 13.5531 15.1195 13.5532 15.1189L13.5533 15.1189ZM14.1094 14.1706L14.11 14.1706C14.1091 14.1719 14.1069 14.175 14.1041 14.1789C14.104 14.1788 14.1039 14.1787 14.1039 14.1787C14.1019 14.1759 14.1 14.1731 14.0982 14.1703L14.1094 14.1706ZM14.1127 14.1656C14.1567 14.0997 14.1961 14.0217 14.2213 13.9498C14.2636 14.0816 14.2629 14.1599 14.2202 14.2811C14.1864 14.2527 14.1429 14.2102 14.1127 14.1656ZM14.5635 13.0834C14.5763 13.0811 14.5897 13.079 14.604 13.0771L14.6 13.0626C14.5871 13.069 14.575 13.0759 14.5635 13.0834ZM13.5528 15.1211C13.5514 15.1278 13.5482 15.1434 13.5438 15.1647C13.546 15.1507 13.549 15.1361 13.5528 15.1211ZM13.5626 12.6505C13.5616 12.6492 13.5605 12.6479 13.5595 12.6466L13.5596 12.6465C13.5606 12.6478 13.5617 12.6492 13.5626 12.6505ZM12.688 11.5828C12.6858 11.5811 12.6836 11.5795 12.6813 11.5778L12.6814 11.5778C12.6837 11.5794 12.6859 11.5811 12.688 11.5828Z" fill="black"/>
<path fill-rule="evenodd" clip-rule="evenodd" d="M14.6239 12.8735L14.5089 12.7275L14.4962 12.7306L14.4543 12.921L14.2735 12.9192L14.268 12.9316L14.3845 13.0848L14.2709 13.2309L14.2767 13.2432L14.4637 13.2445L14.5008 13.4287L14.5135 13.4317L14.6309 13.279L14.7931 13.3624L14.8032 13.3537L14.7608 13.1631L14.9246 13.0827L14.9245 13.069L14.7558 12.9832L14.7995 12.7998L14.7893 12.7913L14.6239 12.8735ZM14.7821 12.8117L14.625 12.8898L14.6163 12.8878L14.5068 12.7487L14.5104 12.7341L14.4977 12.7372L14.5068 12.7487L14.4615 12.9303L14.2881 12.9342L14.2794 12.9221L14.2738 12.9345L14.2881 12.9342L14.396 13.0846L14.2911 13.2285L14.2768 13.2279L14.2825 13.2402L14.2911 13.2285L14.4708 13.235L14.5116 13.4106L14.5022 13.4221L14.5149 13.4251L14.5116 13.4106L14.6282 13.2673L14.7861 13.3423L14.789 13.3572L14.7991 13.3485L14.7861 13.3423L14.7504 13.1581L14.9054 13.0757L14.9182 13.0827L14.9181 13.069L14.9054 13.0757L14.7455 12.9885L14.7821 12.8117ZM14.7821 12.8117L14.7955 12.8051L14.7853 12.7965L14.7821 12.8117Z" fill="black"/>
<path fill-rule="evenodd" clip-rule="evenodd" d="M14.0588 8.85382C14.4443 8.73637 14.7688 8.40282 14.8434 8.04351L14.8529 8.03793C15.2989 8.20192 15.6969 8.41927 16.064 8.68003C16.2163 8.7882 16.3072 8.83164 16.5744 8.93989C16.7017 8.99145 16.7766 9.02581 16.8528 9.07143C16.713 8.67582 16.8044 8.07399 17.0685 7.54812C17.3808 6.92611 17.4441 6.45744 17.4047 5.78041C17.3828 5.40403 17.5703 5.31052 17.9649 5.38465C18.2223 5.43305 18.406 5.40911 18.753 5.31286L18.78 5.30538C19.1735 5.19602 19.3684 5.17168 19.6637 5.23508C19.9356 5.29337 19.999 5.562 19.8452 5.68787C19.787 5.73561 19.7119 5.77285 19.596 5.81506C19.5595 5.82835 19.4469 5.86611 19.3656 5.8934L19.3655 5.89341C19.3257 5.90678 19.2933 5.91764 19.281 5.92189L19.2688 5.92627C19.2808 5.91861 19.291 5.90963 19.2996 5.8995L19.3614 5.87876L19.3614 5.87875C19.4428 5.85146 19.555 5.81383 19.5912 5.80062C19.7058 5.75891 19.7795 5.72229 19.8363 5.67581C19.9801 5.55804 19.9206 5.30576 19.6608 5.25006C19.3682 5.18725 19.1752 5.21136 18.7837 5.32017L18.7568 5.32765C18.4078 5.42441 18.2223 5.44859 17.9623 5.3997C17.5757 5.32706 17.3981 5.41564 17.4192 5.77948C17.4587 6.45906 17.3951 6.93036 17.0813 7.55525C16.8145 8.08661 16.7252 8.69577 16.8738 9.0861L16.8634 9.09552C16.7815 9.04479 16.7057 9.00947 16.5691 8.95415C16.3009 8.8455 16.2093 8.80172 16.0558 8.6927C15.6919 8.43414 15.2974 8.2184 14.8558 8.05521L14.8576 8.04677L14.8481 8.05236L14.8558 8.05521C14.7768 8.41702 14.4503 8.75043 14.0677 8.86374C13.9692 9.15267 14.1257 9.63044 14.3883 9.91233C14.5302 9.981 14.6777 10.038 14.8312 10.0846C15.3043 10.228 15.6918 10.2593 16.4616 10.2612C16.8569 10.2621 17.0111 10.2677 17.1759 10.2953C17.4376 10.3391 17.7958 10.1269 17.8415 9.80048C17.8491 9.74629 17.8599 9.69662 17.8756 9.63976C17.8854 9.60459 17.9282 9.46451 17.9241 9.47828C17.9459 9.40563 17.9629 9.3421 17.9796 9.26876C18.0336 9.03014 18.0732 8.722 18.0989 8.27942C18.1089 8.10881 18.1115 8.04122 18.1244 7.67699C18.1406 7.22079 18.1556 7.03546 18.1974 6.90521C18.3065 6.56535 18.3937 6.41275 18.5777 6.33505C18.6513 6.30392 18.7196 6.26652 18.7946 6.21751L18.797 6.22459L18.8064 6.22781C18.7291 6.27858 18.659 6.31716 18.5831 6.34924C18.4046 6.42467 18.319 6.57435 18.2112 6.91009C18.1701 7.03829 18.1551 7.22333 18.139 7.67756C18.1261 8.04194 18.1234 8.10957 18.1135 8.28035C18.0877 8.72375 18.048 9.03275 17.9937 9.2723C17.977 9.34603 17.9599 9.4099 17.938 9.48286C17.9421 9.4693 17.8993 9.6091 17.8896 9.64403C17.874 9.70026 17.8634 9.74925 17.8559 9.80271C17.8089 10.1384 17.4427 10.3554 17.1736 10.3104C17.0098 10.283 16.856 10.2774 16.4616 10.2765C15.6904 10.2746 15.302 10.2432 14.8272 10.0993C14.673 10.0525 14.5248 9.99521 14.3801 9.92462C14.1117 9.63734 13.9534 9.15379 14.0588 8.85382ZM18.8213 6.2179L18.8064 6.22781L18.8079 6.22835C18.8126 6.22501 18.8171 6.22153 18.8213 6.2179ZM18.8565 6.17548C18.8476 6.19121 18.8358 6.2054 18.8213 6.2179C18.8455 6.20168 18.8705 6.18426 18.8966 6.16546C18.9113 6.1549 18.9437 6.13112 18.974 6.10881L18.9768 6.11007C18.9879 6.10174 18.998 6.09319 19.0072 6.08437L19.0377 6.06198C19.0905 6.02372 19.1311 5.99643 19.1705 5.97366C19.1937 5.96027 19.2159 5.94877 19.2377 5.93907L19.2404 5.94061C19.2508 5.93655 19.2602 5.93175 19.2688 5.92627C19.2585 5.93013 19.2481 5.93439 19.2377 5.93907L19.2288 5.93407L19.2283 5.92666C19.2336 5.92423 19.239 5.9219 19.2443 5.91967L19.2444 5.92184C19.2409 5.92352 19.2373 5.92509 19.2336 5.92655L19.2452 5.93309L19.2444 5.92184C19.2494 5.9194 19.2542 5.91675 19.2586 5.91387C19.2646 5.91157 19.2705 5.9094 19.2764 5.90736L19.2996 5.8995C19.3646 5.82246 19.3306 5.67922 19.217 5.54719L19.2021 5.55242L19.2283 5.92666C19.2072 5.93621 19.1858 5.94739 19.1635 5.96026C19.1276 5.98103 19.0907 6.00543 19.0449 6.03821C19.1063 5.93742 19.0665 5.79714 18.9033 5.55002L18.8901 5.55547L18.9643 6.09727C18.9344 6.11927 18.9028 6.14248 18.8884 6.15284L18.8565 6.17548ZM18.8125 6.20562C18.8269 6.19601 18.8415 6.18598 18.8565 6.17548C18.9232 6.05844 18.8365 5.85599 18.6091 5.62836L18.5972 5.63646L18.7946 6.21751L18.8072 6.20918L18.8074 6.20989L18.7998 6.21569L18.8107 6.21945L18.8074 6.20989L18.8125 6.20562ZM18.6214 5.66221C18.8553 5.90464 18.9216 6.11052 18.8125 6.20562L18.8072 6.20918L18.6214 5.66221ZM18.6214 5.66221L18.599 5.63942L18.6109 5.63132L18.6214 5.66221ZM18.9775 6.08757L18.9643 6.09727L18.9653 6.10495L18.974 6.10881L18.9902 6.09684L18.9903 6.09682L19.0072 6.08437C19.0224 6.06983 19.035 6.05454 19.0449 6.03821L19.0294 6.0494L18.9971 6.07312C19.096 5.97803 19.0782 5.84884 18.9087 5.58579L18.9043 5.55331L18.8911 5.55876L18.9087 5.58579L18.9775 6.08757ZM18.9778 6.0901C18.9847 6.08455 18.9911 6.0789 18.9971 6.07312L18.9818 6.08438L18.9775 6.08757L18.9778 6.0901ZM18.9778 6.0901L18.9681 6.09767L18.9795 6.10279L18.9778 6.0901ZM19.2203 5.57679L19.2443 5.91967C19.2491 5.91765 19.2539 5.91572 19.2586 5.91387C19.3477 5.85666 19.3292 5.71426 19.2203 5.57679ZM19.2203 5.57679L19.2185 5.55144L19.2037 5.55667C19.2094 5.56336 19.215 5.57007 19.2203 5.57679Z" fill="black"/>
<path fill-rule="evenodd" clip-rule="evenodd" d="M14.6096 8.66318C14.575 8.64786 14.5386 8.63298 14.5003 8.61845L14.498 8.60544C14.5074 8.59705 14.5192 8.58587 14.5314 8.57436C14.5482 8.55855 14.5656 8.54211 14.5782 8.53134C14.5972 8.53908 14.6158 8.54692 14.6339 8.55488C14.7748 8.61686 14.8365 8.65419 15.023 8.77981C15.2467 8.93044 15.4013 9.00099 15.7204 9.07056C16.0999 9.15337 16.5813 9.33233 16.8067 9.47264L16.7745 9.57033C16.5535 9.43913 16.0737 9.26069 15.6958 9.17837C15.3748 9.10839 15.2185 9.03709 14.9934 8.88546C14.8086 8.76103 14.7481 8.72431 14.6096 8.66318ZM14.5076 8.61706L14.5053 8.60406C14.5092 8.60554 14.5131 8.60702 14.517 8.6085C14.5137 8.61157 14.5105 8.61444 14.5076 8.61706ZM14.5812 8.54349C14.5687 8.55848 14.5393 8.58775 14.517 8.6085C14.5513 8.62172 14.584 8.63522 14.6154 8.64908C14.7549 8.71066 14.8159 8.74769 15.0014 8.87258C15.2251 9.02326 15.3797 9.09382 15.6989 9.1634C16.0782 9.24602 16.5594 9.42498 16.7711 9.56185L16.7962 9.47747C16.5757 9.34647 16.0957 9.16803 15.7176 9.08552C15.3966 9.01555 15.2403 8.94426 15.0153 8.79267C14.8294 8.66752 14.7683 8.63051 14.6284 8.56898C14.6274 8.56854 14.6264 8.56811 14.6254 8.56768C14.6084 8.56021 14.5914 8.55275 14.5812 8.54349Z" fill="black"/>
<path fill-rule="evenodd" clip-rule="evenodd" d="M17.4917 7.14571C17.5105 7.08941 17.5266 7.03627 17.5405 6.98493L17.5244 6.98105L17.5243 6.98132L17.5242 6.98129C17.5238 6.9825 17.5235 6.98371 17.5232 6.98492L17.477 7.13718C17.4765 7.13854 17.4761 7.13989 17.4756 7.14125L17.4757 7.14128L17.4757 7.14142L17.4917 7.14571ZM17.4757 7.14128L17.4916 7.14554L17.5403 6.98518L17.5243 6.98132L17.5232 6.98492C17.51 7.03361 17.4947 7.08398 17.477 7.13718L17.4757 7.14128ZM15.0002 8.27969C14.9413 8.25672 14.8745 8.22238 14.8098 8.18235L14.8066 8.17335L14.8146 8.14747L14.8146 8.14747C14.826 8.1106 14.839 8.06838 14.8527 8.0379C15.2986 8.20189 15.6967 8.41924 16.0638 8.68001C16.2161 8.78818 16.307 8.83162 16.5742 8.93986C16.7114 8.99546 16.7878 9.03105 16.8731 9.0928L16.7817 9.24022C16.6677 9.1701 16.3861 9.04387 16.1773 8.96383C16.1764 8.98545 16.1669 9.01024 16.1493 9.04252C16.1453 9.04986 16.1411 9.05728 16.1352 9.06737C16.1078 9.11436 16.1024 9.12443 16.0976 9.14083C16.0919 9.16041 16.0959 9.17059 16.1134 9.17601L16.1094 9.19071L16.1093 9.19068L16.1133 9.17598L16.0823 9.16686C16.0797 9.15836 16.0802 9.1481 16.0837 9.13635C16.089 9.1181 16.0944 9.108 16.1228 9.05938C16.1286 9.04941 16.1327 9.04211 16.1367 9.03492C16.1561 8.99924 16.1648 8.97388 16.1624 8.95372L16.1721 8.94557C16.3826 9.02565 16.6723 9.15518 16.7792 9.22973L16.8632 9.09549C16.7813 9.04476 16.7055 9.00944 16.5689 8.95413C16.3007 8.84547 16.2091 8.8017 16.0556 8.69267C15.6896 8.43261 15.2926 8.21586 14.8574 8.04693C14.8501 8.07841 14.835 8.13128 14.8222 8.17229L14.8172 8.16917L14.8204 8.17817L14.8222 8.17229C14.8847 8.21055 14.9489 8.24356 15.0098 8.27468C15.0076 8.28248 15.0049 8.29039 15.0017 8.29842C14.9833 8.34449 14.9515 8.39019 14.8988 8.45253L14.8735 8.48218L14.8431 8.51767C14.8236 8.54094 14.8103 8.55822 14.8008 8.57333C14.7792 8.6076 14.7791 8.62659 14.8018 8.63816C14.8244 8.65006 14.8845 8.68813 14.9497 8.73082C14.9499 8.74272 14.9548 8.75216 14.9651 8.75898L14.9729 8.74604L14.9729 8.74605L14.9651 8.75899C14.892 8.71075 14.8199 8.6648 14.7954 8.65187C14.7627 8.63522 14.7629 8.60581 14.7887 8.56491C14.7986 8.54907 14.8122 8.53132 14.8322 8.50756L14.8628 8.47182L14.8879 8.44239C14.9396 8.38123 14.9706 8.3366 14.9882 8.29251L14.9887 8.29134C14.9915 8.28424 14.9941 8.27771 15.0002 8.27969ZM14.9729 8.74604L14.9497 8.73082C14.9495 8.71514 14.9575 8.6952 14.9724 8.67135C14.9916 8.64067 15.0183 8.60772 15.0691 8.54958L15.0756 8.54212C15.1696 8.43481 15.1983 8.39696 15.1975 8.37134L15.2071 8.36385C15.3246 8.40467 15.4344 8.46367 15.5769 8.55591L15.582 8.55928L15.582 8.55928L15.582 8.55929L15.5821 8.55929L15.5821 8.5593L15.5821 8.55932C15.6108 8.57828 15.7508 8.67069 15.7907 8.6952C15.8658 8.74131 15.9242 8.77022 15.9825 8.79483C15.9762 8.82032 15.9642 8.84819 15.9466 8.88069C15.9377 8.89722 15.9277 8.91412 15.9142 8.93616L15.9135 8.93731C15.8696 9.00908 15.8608 9.02337 15.8544 9.03863C15.8528 9.04242 15.8514 9.04627 15.8496 9.05108L15.8493 9.0517C15.8375 9.08321 15.8419 9.09894 15.8661 9.10529C15.8929 9.11142 15.9373 9.12395 16.0114 9.14587L16.0171 9.14755L16.0676 9.16252L16.0823 9.16686C16.0858 9.178 16.0946 9.18612 16.1093 9.19068L16.0636 9.17724L16.0132 9.16227L16.0075 9.16059C15.9336 9.13877 15.8894 9.12627 15.8628 9.12018C15.8283 9.11115 15.821 9.0852 15.8358 9.04608L15.8361 9.04508L15.8361 9.04508L15.8362 9.04506L15.8362 9.04505C15.8381 9.03993 15.8396 9.03584 15.8413 9.03182C15.8479 9.01614 15.8569 9.00146 15.9009 8.9296L15.902 8.92789C15.9154 8.90606 15.9252 8.88938 15.934 8.87313C15.9401 8.86188 15.9454 8.85123 15.9503 8.84152L15.9503 8.84151C15.9591 8.82409 15.9664 8.80968 15.9736 8.80026C15.9189 8.78455 15.8594 8.75513 15.7834 8.7084C15.7431 8.68362 15.6016 8.59027 15.574 8.57202L15.574 8.572L15.5739 8.57199L15.5693 8.56893C15.4312 8.47959 15.3243 8.42173 15.2114 8.38148C15.2064 8.4116 15.1754 8.45085 15.0864 8.55247L15.0798 8.55992C15.0295 8.61742 15.0031 8.65 14.9846 8.67974C14.9623 8.71529 14.9588 8.73672 14.9729 8.74604ZM18.0857 8.69862C18.0963 8.60607 17.9885 8.54155 17.7882 8.50011C17.6281 8.46697 17.4133 8.45004 17.1854 8.44811L17.1836 8.46316L18.0767 8.70512L18.0857 8.69862ZM18.0716 8.68799L18.0801 8.69029L18.071 8.69679C18.0714 8.69383 18.0716 8.6909 18.0716 8.68799ZM17.2457 8.46426C17.45 8.46845 17.6403 8.48511 17.7852 8.51509C17.9711 8.55356 18.0726 8.61167 18.0716 8.68799L17.2457 8.46426ZM17.2457 8.46426C17.2256 8.46384 17.2054 8.46355 17.1851 8.46338L17.187 8.44833L17.2457 8.46426ZM17.103 8.40194C17.1127 8.32388 17.1259 8.24789 17.143 8.17417L17.1266 8.17136L17.0865 8.39986L17.103 8.40194ZM17.103 8.4023L17.0865 8.40022C17.0962 8.32168 17.1095 8.2452 17.1267 8.17099L17.1431 8.1738L17.103 8.4023Z" fill="black"/>
<path fill-rule="evenodd" clip-rule="evenodd" d="M17.4 7.63337C17.1693 8.16946 17.1126 8.79877 17.2818 9.1746L17.2727 9.18504L17.1649 9.14088C17.0811 8.94578 17.0556 8.68732 17.0924 8.4086L17.0555 8.40067C17.0252 8.3943 17.0015 8.39016 16.9783 8.38764C16.8769 8.37663 16.819 8.40194 16.8108 8.48179C16.8127 8.46059 16.815 8.43905 16.8178 8.41712C16.8467 8.37637 16.9024 8.36403 16.9798 8.37244C17.0035 8.37501 17.0277 8.37922 17.0584 8.38567C17.0668 8.38744 17.0931 8.39315 17.101 8.40197C17.0703 8.68652 17.0956 8.94229 17.174 9.13057L17.2613 9.16433C17.2637 9.16998 17.2661 9.17558 17.2686 9.18113L17.2777 9.17069L17.2613 9.16433C17.099 8.78217 17.1578 8.159 17.3867 7.62707C17.6079 7.11283 17.6762 6.65739 17.6561 6.16251C17.6898 6.16312 17.7156 6.15415 17.7685 6.12807L17.7711 6.12683C17.7856 6.11967 17.7923 6.1164 17.8007 6.11263C18.0308 6.00774 18.2397 6.02259 18.3837 6.12614C18.4837 6.19811 18.5307 6.30252 18.5031 6.37356C18.4906 6.38162 18.4796 6.39041 18.4642 6.40334L18.4734 6.41522C18.4871 6.40346 18.4969 6.38933 18.5031 6.37356C18.5228 6.36078 18.5462 6.34984 18.596 6.32716L18.6057 6.32266C18.6861 6.28585 18.5746 6.04424 18.372 5.94318C18.372 5.94318 18.372 5.94318 18.372 5.94318C18.2803 5.8974 18.0961 5.88973 17.9646 5.91808L17.9576 5.90563C18.0546 5.78594 18.1227 5.74275 18.2623 5.72659C18.2641 5.77942 18.2514 5.84049 18.23 5.89116L18.2202 5.88991L18.2204 5.89036L18.2258 5.90079C18.2272 5.8977 18.2286 5.89455 18.2299 5.89137C18.23 5.8913 18.23 5.89123 18.23 5.89116L18.2353 5.89182C18.2767 5.89681 18.304 5.90128 18.3274 5.90998C18.3419 5.91542 18.3549 5.9225 18.3689 5.9324C18.37 5.93043 18.371 5.92843 18.3721 5.92642C18.4068 5.8613 18.4249 5.77368 18.4241 5.68057C18.4626 5.66968 18.5003 5.65829 18.5541 5.64147C18.7255 5.58796 18.7549 5.57922 18.8278 5.56236C18.9317 5.53833 19.0231 5.52829 19.1135 5.53341C19.2902 5.54343 19.4195 5.61026 19.4565 5.70069C19.4811 5.76094 19.4605 5.82016 19.4013 5.86533C19.3875 5.86996 19.374 5.87448 19.3613 5.87874C19.3475 5.88336 19.3346 5.88769 19.3231 5.89155C19.4292 5.84887 19.4722 5.77801 19.4431 5.70672C19.4087 5.62263 19.2844 5.55842 19.1127 5.54868C19.0237 5.54364 18.9337 5.55354 18.8309 5.57729C18.7585 5.59403 18.7292 5.60275 18.5583 5.65613C18.5043 5.67298 18.4666 5.6844 18.4333 5.6874C18.4393 5.77313 18.422 5.86077 18.3802 5.93032C18.5906 6.03647 18.7083 6.29235 18.6116 6.33663L18.6018 6.34119C18.5219 6.37758 18.5116 6.38303 18.4734 6.41526L18.4642 6.40338C18.5302 6.34675 18.4909 6.22177 18.3755 6.13876C18.2357 6.03827 18.0321 6.0238 17.8064 6.12666C17.7983 6.13036 17.7916 6.13357 17.7772 6.14067L17.7747 6.14191C17.7199 6.16895 17.6925 6.17847 17.6632 6.1697C17.6909 6.65883 17.6222 7.11673 17.4 7.63337ZM19.3272 5.90622C19.3563 5.89458 19.381 5.88078 19.4013 5.86533C19.4759 5.8403 19.5605 5.81177 19.5912 5.80062C19.7057 5.75891 19.7794 5.72229 19.8362 5.67581C19.98 5.55804 19.9205 5.30576 19.6607 5.25006C19.3681 5.18725 19.1752 5.21136 18.7836 5.32017L18.7567 5.32765C18.4077 5.42441 18.2222 5.44859 17.9622 5.3997C17.7833 5.36609 17.6536 5.36706 17.5621 5.41224C17.4532 5.46602 17.4032 5.58309 17.4191 5.77929C17.4198 5.78739 17.4202 5.79259 17.4206 5.79779C17.4213 5.80718 17.422 5.81658 17.424 5.843L17.4242 5.84617C17.4256 5.86455 17.4267 5.87879 17.4285 5.89897C17.4285 6.04121 17.2588 6.11244 17.097 6.02123C17.0886 6.01074 17.08 5.99949 17.0713 5.98742L17.0614 5.99835C17.0731 6.00688 17.085 6.0145 17.097 6.02123C17.1448 6.08089 17.1875 6.11569 17.2321 6.13377C17.274 6.15073 17.3058 6.15324 17.3942 6.1515C17.4084 6.15122 17.4148 6.15111 17.416 6.1584C17.4167 6.13661 17.4308 6.12709 17.4537 6.12823C17.4695 6.12902 17.487 6.13367 17.5196 6.14447L17.5239 6.1459C17.5726 6.16206 17.5908 6.16621 17.6004 6.16122L17.6109 6.16783C17.6196 6.44532 17.5975 6.7078 17.5224 6.99011C17.4028 6.9345 17.328 6.93175 17.3023 7.00377C17.2918 7.03885 17.2809 7.07304 17.2695 7.10699C17.2559 7.11708 17.2455 7.13207 17.2383 7.15232L17.252 7.15767C17.252 7.15767 17.252 7.15766 17.252 7.15766C17.258 7.14078 17.2638 7.12391 17.2695 7.10699C17.3122 7.07526 17.3861 7.09189 17.4898 7.14573C17.4468 7.29303 17.3913 7.44296 17.3224 7.59582C17.2401 7.77825 17.1759 7.97694 17.1271 8.18002C16.9701 8.1389 16.8662 8.14153 16.8511 8.21875C16.8367 8.28857 16.8256 8.35442 16.8178 8.41712C16.8062 8.4334 16.799 8.45421 16.7963 8.48005C16.7962 8.4818 16.796 8.48355 16.7959 8.4853L16.8104 8.4866C16.8105 8.48498 16.8107 8.48337 16.8108 8.48179C16.8107 8.48343 16.8105 8.48506 16.8104 8.4867L16.7959 8.48539M17.5967 6.17825C17.5828 6.18034 17.5627 6.17482 17.5195 6.16047L17.5153 6.15905C17.4839 6.14867 17.4671 6.14421 17.453 6.14351C17.4374 6.14273 17.4309 6.14705 17.4234 6.1663L17.3944 6.16679C17.3042 6.16857 17.2711 6.16596 17.2269 6.14803C17.1716 6.12562 17.1197 6.07947 17.0597 5.99668L17.0696 5.98576C17.2324 6.10364 17.4139 6.03789 17.4139 5.89967C17.4122 5.88012 17.4111 5.8658 17.4097 5.84735L17.4095 5.84417C17.4075 5.81777 17.4068 5.8084 17.4061 5.79903C17.4057 5.79384 17.4053 5.78866 17.4046 5.78059C17.3882 5.57853 17.4409 5.45521 17.5559 5.39841C17.6509 5.35151 17.7832 5.35052 17.9648 5.38465C18.2222 5.43305 18.4059 5.40911 18.753 5.31286L18.7799 5.30538C19.1734 5.19602 19.3683 5.17168 19.6636 5.23508C19.9355 5.29337 19.9989 5.562 19.8451 5.68787C19.7869 5.73561 19.7118 5.77285 19.5959 5.81506C19.5594 5.82835 19.4469 5.86611 19.3655 5.89341C19.3516 5.89804 19.3387 5.90237 19.3272 5.90622C19.3127 5.91205 19.2971 5.91733 19.2805 5.92201L19.2763 5.90736C19.2845 5.90456 19.3013 5.8989 19.3231 5.89155C19.3088 5.89732 19.2933 5.90257 19.2767 5.90724L19.2809 5.92189C19.2889 5.91911 19.3056 5.91351 19.3272 5.90622M17.9823 5.89901C18.0542 5.88597 18.1384 5.88277 18.2146 5.88981C18.2364 5.84027 18.2497 5.77942 18.2562 5.73439C18.1349 5.75608 18.07 5.79451 17.9823 5.89901Z" fill="black"/>
</g>
</svg>
