<svg width="28" height="20" fill="none" xmlns="http://www.w3.org/2000/svg"><rect x=".25" y=".25" width="27.5" height="19.5" rx="1.75" fill="#fff" stroke="#F5F5F5" stroke-width=".5"/><mask id="a" style="mask-type:alpha" maskUnits="userSpaceOnUse" x="0" y="0" width="28" height="20"><rect x=".25" y=".25" width="27.5" height="19.5" rx="1.75" fill="#fff" stroke="#fff" stroke-width=".5"/></mask><g mask="url(#a)" fill="#FF3131"><path d="M20 0h8v20h-8z"/><path fill-rule="evenodd" clip-rule="evenodd" d="M0 20h8V0H0v20ZM16.112 9.222a.333.333 0 0 1-.563-.302L16 6.667l-1.333.666-.667-2-.667 2L12 6.667l.45 2.253a.333.333 0 0 1-.562.302l-.319-.32a.333.333 0 0 0-.471 0l-.431.431-1.334-.666L10 10l-.43.431a.333.333 0 0 0 0 .471l1.763 1.765h2l.334 2h.666l.334-2h2l1.764-1.765a.333.333 0 0 0 0-.471L18 10l.667-1.333-1.334.666-.43-.43a.333.333 0 0 0-.472 0l-.32.319Z"/></g></svg>