<svg width="28" height="20" fill="none" xmlns="http://www.w3.org/2000/svg"><rect width="28" height="20" rx="2" fill="#fff"/><mask id="a" style="mask-type:alpha" maskUnits="userSpaceOnUse" x="0" y="0" width="28" height="20"><rect width="28" height="20" rx="2" fill="#fff"/></mask><g mask="url(#a)"><path fill-rule="evenodd" clip-rule="evenodd" d="M0 6.667h28V0H0v6.667Z" fill="#20AA46"/><path fill-rule="evenodd" clip-rule="evenodd" d="M0 20h28v-6.667H0V20Z" fill="#E92F3B"/><path fill-rule="evenodd" clip-rule="evenodd" d="M0 13.333h28V6.667H0v6.666Z" fill="#FADF50"/><path fill-rule="evenodd" clip-rule="evenodd" d="M14 14.667a4.667 4.667 0 1 0 0-9.334 4.667 4.667 0 0 0 0 9.334Z" fill="#205CCA"/><path d="M14.194 11.029 14 10.89l-.194.138-1.148.819.424-1.346.071-.227-.191-.141-1.134-.84 1.41-.012.239-.003.075-.225L14 7.716l.448 1.338.075.225.238.003 1.41.012-1.133.84-.19.141.07.227.424 1.345-1.149-.818Z" stroke="#FFDB3D" stroke-width=".667"/></g></svg>