<svg width="28" height="20" fill="none" xmlns="http://www.w3.org/2000/svg"><rect x=".25" y=".25" width="27.5" height="19.5" rx="1.75" fill="#fff" stroke="#F5F5F5" stroke-width=".5"/><path fill-rule="evenodd" clip-rule="evenodd" d="M0 2a2 2 0 0 1 2-2h.465a.67.67 0 0 1 .37.112l12.168 8.112c1.097.732.58 2.443-.74 2.443H8l7.996 6.996c.927.811.353 2.337-.878 2.337H2a2 2 0 0 1-2-2V2Z" fill="#fff"/><mask id="a" style="mask-type:alpha" maskUnits="userSpaceOnUse" x="0" y="0" width="17" height="20"><path fill-rule="evenodd" clip-rule="evenodd" d="M0 2a2 2 0 0 1 2-2h.465a.67.67 0 0 1 .37.112l12.168 8.112c1.097.732.58 2.443-.74 2.443H8l7.996 6.996c.927.811.353 2.337-.878 2.337H2a2 2 0 0 1-2-2V2Z" fill="#fff"/></mask><g mask="url(#a)"><path d="M15.118 19.333H.667V.667h1.798l12.168 8.112c.549.366.29 1.221-.37 1.221H8a.667.667 0 0 0-.439 1.168l7.996 6.997a.667.667 0 0 1-.439 1.168Z" fill="#EE1B44" stroke="#0543A8" stroke-width="1.333" stroke-linejoin="round"/><path fill-rule="evenodd" clip-rule="evenodd" d="M6.851 7.8a4.628 4.628 0 0 0 1.052-.424 2.668 2.668 0 0 1-5.143 0c.314.176.67.32 1.055.426l.518-.469-.847-.765 1.14.058-.058-1.14.765.847.766-.847-.059 1.14 1.141-.058-.848.765.518.468Zm-2.538 9.33L5.333 16l1.021 1.13-.078-1.52 1.521.077-1.13-1.02 1.13-1.02-1.52.077.077-1.521-1.02 1.13-1.021-1.13.078 1.52-1.521-.077L4 14.666l-1.13 1.021 1.52-.077-.077 1.52Z" fill="#fff"/></g></svg>