<svg width="28" height="20" fill="none" xmlns="http://www.w3.org/2000/svg"><rect width="28" height="20" rx="2" fill="#fff"/><mask id="a" style="mask-type:alpha" maskUnits="userSpaceOnUse" x="0" y="0" width="28" height="20"><rect width="28" height="20" rx="2" fill="#fff"/></mask><g mask="url(#a)"><path fill="#FF2936" d="M0 0h28v20H0z"/><path fill-rule="evenodd" clip-rule="evenodd" d="M0 20h10.667V0H0v20Z" fill="#128415"/><path d="M10.667 13.333a3.333 3.333 0 1 0 0-6.666 3.333 3.333 0 0 0 0 6.666Z" stroke="#FAF94F" stroke-width="1.333"/><path fill-rule="evenodd" clip-rule="evenodd" d="M9.334 8.333c0-.184.149-.333.333-.333h2c.184 0 .333.15.333.333v2.334a1.333 1.333 0 0 1-2.667 0V8.333Z" fill="#fff"/><path fill-rule="evenodd" clip-rule="evenodd" d="M10.667 10.667c.368 0 .666-.965.666-1.334a.667.667 0 1 0-1.333 0c0 .369.299 1.334.667 1.334Z" fill="#1D50B5"/></g></svg>