<svg width="28" height="20" viewBox="0 0 28 20" fill="none" xmlns="http://www.w3.org/2000/svg">
<g clip-path="url(#clip0_503_3051)">
<rect width="28" height="20" rx="2" fill="white"/>
<mask id="mask0_503_3051" style="mask-type:alpha" maskUnits="userSpaceOnUse" x="0" y="0" width="28" height="20">
<rect width="28" height="20" rx="2" fill="white"/>
</mask>
<g mask="url(#mask0_503_3051)">
<rect width="28" height="20" fill="#E31F37"/>
<path fill-rule="evenodd" clip-rule="evenodd" d="M-1.33334 10.6667H14.6667V-1.33333H-1.33334V10.6667Z" fill="#083B9A"/>
<path fill-rule="evenodd" clip-rule="evenodd" d="M6.66667 2.66667L5.72386 2.94281L6 2L5.72386 1.05719L6.66667 1.33333L7.60947 1.05719L7.33333 2L7.60947 2.94281L6.66667 2.66667ZM6.66667 9.33333L5.72386 9.60948L6 8.66667L5.72386 7.72386L6.66667 8L7.60947 7.72386L7.33333 8.66667L7.60947 9.60948L6.66667 9.33333ZM3.05719 6.27614L4 6L4.94281 6.27614L4.66667 5.33333L4.94281 4.39052L4 4.66667L3.05719 4.39052L3.33333 5.33333L3.05719 6.27614ZM10 5.33333L9.05719 5.60947L9.33333 4.66667L9.05719 3.72386L10 4L10.9428 3.72386L10.6667 4.66667L10.9428 5.60947L10 5.33333ZM8.66667 7C8.66667 7.18409 8.51743 7.33333 8.33333 7.33333C8.14924 7.33333 8 7.18409 8 7C8 6.8159 8.14924 6.66667 8.33333 6.66667C8.51743 6.66667 8.66667 6.8159 8.66667 7Z" fill="white"/>
</g>
</g>
<defs>
<clipPath id="clip0_503_3051">
<rect width="28" height="20" rx="2" fill="white"/>
</clipPath>
</defs>
</svg>
