<svg width="28" height="20" fill="none" xmlns="http://www.w3.org/2000/svg"><rect x=".25" y=".25" width="27.5" height="19.5" rx="1.75" fill="#fff" stroke="#F5F5F5" stroke-width=".5"/><mask id="a" style="mask-type:alpha" maskUnits="userSpaceOnUse" x="0" y="0" width="28" height="20"><rect x=".25" y=".25" width="27.5" height="19.5" rx="1.75" fill="#fff" stroke="#fff" stroke-width=".5"/></mask><g mask="url(#a)"><path fill-rule="evenodd" clip-rule="evenodd" d="M0 6.667h28V0H0v6.667Z" fill="#FFA44A"/><path fill-rule="evenodd" clip-rule="evenodd" d="M0 20h28v-6.667H0V20Z" fill="#1A9F0B"/><path d="M14 12.333a2.333 2.333 0 1 0 0-4.666 2.333 2.333 0 0 0 0 4.666Z" fill="#181A93" fill-opacity=".15" stroke="#181A93" stroke-width=".667"/><path fill-rule="evenodd" clip-rule="evenodd" d="M14 10.667a.667.667 0 1 0 0-1.334.667.667 0 0 0 0 1.334Z" fill="#181A93"/></g></svg>