<svg width="28" height="20" viewBox="0 0 28 20" fill="none" xmlns="http://www.w3.org/2000/svg">
<g clip-path="url(#clip0_503_3017)">
<rect width="28" height="20" rx="2" fill="white"/>
<mask id="mask0_503_3017" style="mask-type:alpha" maskUnits="userSpaceOnUse" x="0" y="0" width="28" height="20">
<rect width="28" height="20" rx="2" fill="white"/>
</mask>
<g mask="url(#mask0_503_3017)">
<rect width="28" height="20" fill="#95CEF5"/>
<path fill-rule="evenodd" clip-rule="evenodd" d="M12.4325 6.82405L14 5.76L15.5674 6.82405L15.0398 5.00453L16.5361 3.84262L14.6426 3.78214L14 2L13.3573 3.78214L11.4638 3.84262L12.9602 5.00453L12.4325 6.82405ZM12.4325 17.4907L14 16.4267L15.5674 17.4907L15.0398 15.6712L16.5361 14.5093L14.6426 14.4488L14 12.6667L13.3573 14.4488L11.4638 14.5093L12.9602 15.6712L12.4325 17.4907ZM19.3333 11.0933L17.7659 12.1574L18.2935 10.3379L16.7972 9.17595L18.6907 9.11547L19.3333 7.33333L19.976 9.11547L21.8695 9.17595L20.3731 10.3379L20.9007 12.1574L19.3333 11.0933ZM7.09922 12.1574L8.66664 11.0933L10.2341 12.1574L9.70647 10.3379L11.2028 9.17595L9.30929 9.11547L8.66664 7.33333L8.024 9.11547L6.13049 9.17595L7.62682 10.3379L7.09922 12.1574Z" fill="white"/>
</g>
</g>
<defs>
<clipPath id="clip0_503_3017">
<rect width="28" height="20" rx="2" fill="white"/>
</clipPath>
</defs>
</svg>
