<svg width="28" height="20" viewBox="0 0 28 20" fill="none" xmlns="http://www.w3.org/2000/svg">
<g clip-path="url(#clip0_1310_7784)">
<path d="M28 0H0V20H28V0Z" fill="url(#paint0_linear_1310_7784)"/>
<path d="M28 0H0V4H28V0Z" fill="url(#paint1_linear_1310_7784)"/>
<path d="M28 4H0V8H28V4Z" fill="url(#paint2_linear_1310_7784)"/>
<path d="M28 8H0V12H28V8Z" fill="url(#paint3_linear_1310_7784)"/>
<path d="M28 12H0V16H28V12Z" fill="url(#paint4_linear_1310_7784)"/>
<path d="M28 16H0V20H28V16Z" fill="url(#paint5_linear_1310_7784)"/>
</g>
<defs>
<linearGradient id="paint0_linear_1310_7784" x1="14" y1="0" x2="14" y2="20" gradientUnits="userSpaceOnUse">
<stop stop-color="white"/>
<stop offset="1" stop-color="#F0F0F0"/>
</linearGradient>
<linearGradient id="paint1_linear_1310_7784" x1="14" y1="0" x2="14" y2="4" gradientUnits="userSpaceOnUse">
<stop stop-color="#F71E24"/>
<stop offset="1" stop-color="#FB141B"/>
</linearGradient>
<linearGradient id="paint2_linear_1310_7784" x1="14" y1="4" x2="14" y2="8" gradientUnits="userSpaceOnUse">
<stop stop-color="#FB6C2C"/>
<stop offset="1" stop-color="#FC6420"/>
</linearGradient>
<linearGradient id="paint3_linear_1310_7784" x1="14" y1="8" x2="14" y2="12" gradientUnits="userSpaceOnUse">
<stop stop-color="#FDFC42"/>
<stop offset="1" stop-color="#FFFD38"/>
</linearGradient>
<linearGradient id="paint4_linear_1310_7784" x1="14" y1="12" x2="14" y2="16" gradientUnits="userSpaceOnUse">
<stop stop-color="#238F35"/>
<stop offset="1" stop-color="#1C7E2C"/>
</linearGradient>
<linearGradient id="paint5_linear_1310_7784" x1="14" y1="16" x2="14" y2="20" gradientUnits="userSpaceOnUse">
<stop stop-color="#0F62FA"/>
<stop offset="1" stop-color="#0059FC"/>
</linearGradient>
<clipPath id="clip0_1310_7784">
<rect width="28" height="20" rx="2" fill="white"/>
</clipPath>
</defs>
</svg>
