<svg width="28" height="20" viewBox="0 0 28 20" fill="none" xmlns="http://www.w3.org/2000/svg">
<g clip-path="url(#clip0_503_3830)">
<rect width="28" height="20" rx="2" fill="white"/>
<mask id="mask0_503_3830" style="mask-type:alpha" maskUnits="userSpaceOnUse" x="0" y="0" width="28" height="20">
<rect width="28" height="20" rx="2" fill="white"/>
</mask>
<g mask="url(#mask0_503_3830)">
<rect width="28" height="20" fill="#19BFBF"/>
<path fill-rule="evenodd" clip-rule="evenodd" d="M17.0977 17.7643L16.0557 16.7223C16.0191 16.6857 15.9915 16.6411 15.9751 16.592L15.4093 14.8944C15.3639 14.7584 15.2367 14.6667 15.0933 14.6667C14.8766 14.6667 14.7176 14.8703 14.7702 15.0805L15.2876 17.1502C15.316 17.2638 15.2827 17.384 15.1999 17.4668L14.9024 17.7643C14.7722 17.8945 14.5612 17.8945 14.431 17.7643L14.0977 17.431C14.0351 17.3684 14 17.2837 14 17.1953V16.0787C14 16.0269 13.988 15.9759 13.9648 15.9296L13.4255 14.8509C13.369 14.738 13.2536 14.6667 13.1273 14.6667H11.412C11.3603 14.6667 11.3093 14.6787 11.263 14.7018L10.1235 15.2716C10.0444 15.3111 9.98431 15.3804 9.95636 15.4643L9.37702 17.2023C9.34906 17.2862 9.28893 17.3555 9.20986 17.3951L8.14909 17.9255C8.05525 17.9724 7.94479 17.9724 7.85095 17.9255L6.85095 17.4255C6.73802 17.369 6.66669 17.2536 6.66669 17.1273V15C6.66669 14.8159 6.81593 14.6667 7.00002 14.6667H8.33335C8.51745 14.6667 8.66669 14.5174 8.66669 14.3333V13.3874C8.66669 13.3516 8.67246 13.316 8.68379 13.282L9.25738 11.5612C9.30275 11.4251 9.43013 11.3333 9.57361 11.3333H10.588C10.6397 11.3333 10.6908 11.3213 10.7371 11.2981L11.9296 10.7018C11.9759 10.6787 12.027 10.6667 12.0787 10.6667H13C13.1841 10.6667 13.3334 10.5174 13.3334 10.3333V10.1381C13.3334 10.0497 13.3685 9.96487 13.431 9.90236L13.673 9.66034C13.8339 9.49946 14.1051 9.54347 14.2068 9.74697L14.5746 10.4824C14.631 10.5953 14.7464 10.6667 14.8727 10.6667H16.4264C16.5699 10.6667 16.6973 10.5748 16.7427 10.4387L17.2574 8.89458C17.3028 8.75847 17.4301 8.66666 17.5736 8.66666H18.3334C18.5174 8.66666 18.6667 8.51742 18.6667 8.33332C18.6667 8.14923 18.5174 7.99999 18.3334 7.99999H17.6667C17.4826 7.99999 17.3334 7.85075 17.3334 7.66666V6.74535C17.3334 6.6936 17.3454 6.64256 17.3685 6.59627L17.8926 5.54821C17.9567 5.41988 17.9316 5.26489 17.8301 5.16344L17.5691 4.90236C17.4389 4.77218 17.2278 4.77218 17.0977 4.90236L16.0977 5.90236C16.0351 5.96487 16 6.04966 16 6.13806V7.27923C16 7.31506 15.9942 7.35065 15.9829 7.38464L15.4093 9.1054C15.364 9.24151 15.2366 9.33332 15.0931 9.33332H14.8048C14.7164 9.33332 14.6316 9.2982 14.5691 9.23569L14.0961 8.76274C14.0346 8.70122 14 8.61778 14 8.53078C14 8.28691 13.7434 8.12831 13.5253 8.23736L12.8816 8.55921C12.7532 8.62338 12.5983 8.59823 12.4968 8.49677L12.0977 8.09762C12.0351 8.03511 12 7.95032 12 7.86192V6.80473C12 6.71632 12.0351 6.63154 12.0977 6.56903L13.3334 5.33332L15.2777 3.38896C15.3143 3.35237 15.3589 3.3248 15.408 3.30844L17.282 2.68376C17.316 2.67243 17.3516 2.66666 17.3874 2.66666H18.4607C18.5869 2.66666 18.7024 2.73799 18.7588 2.85092L19.2982 3.92961C19.3213 3.97589 19.3334 4.02693 19.3334 4.07868V5.86192C19.3334 5.95032 19.3685 6.03511 19.431 6.09762L19.8543 6.52098C19.9436 6.61026 19.9748 6.74232 19.9349 6.8621L19.4139 8.42512C19.3663 8.56773 19.4201 8.7245 19.5452 8.80788L21.3334 9.99999L22.329 10.4978C22.5083 10.5875 22.5685 10.814 22.4572 10.9808L21.3893 12.5827C21.3528 12.6374 21.3334 12.7018 21.3334 12.7676V14.4264C21.3334 14.5699 21.2415 14.6973 21.1054 14.7426L19.4643 15.2897C19.3805 15.3176 19.3111 15.3777 19.2716 15.4568L18.6909 16.6183C18.6749 16.6503 18.6538 16.6796 18.6284 16.7049L17.5691 17.7643C17.4389 17.8945 17.2278 17.8945 17.0977 17.7643ZM11.3334 17.3333C11.7015 17.3333 12 17.0348 12 16.6667C12 16.2985 11.7015 16 11.3334 16C10.9652 16 10.6667 16.2985 10.6667 16.6667C10.6667 17.0348 10.9652 17.3333 11.3334 17.3333ZM9.33335 8.66666C9.33335 9.03485 9.03488 9.33332 8.66669 9.33332C8.2985 9.33332 8.00002 9.03485 8.00002 8.66666C8.00002 8.29847 8.2985 7.99999 8.66669 7.99999C9.03488 7.99999 9.33335 8.29847 9.33335 8.66666Z" fill="white"/>
<path fill-rule="evenodd" clip-rule="evenodd" d="M9.96479 8.73704C9.98793 8.69075 9.99998 8.63972 9.99998 8.58797V8.07868C9.99998 8.02693 9.98793 7.97589 9.96479 7.92961L9.57452 7.14906C9.4637 6.92743 9.62486 6.66666 9.87266 6.66666H10.3333C10.5174 6.66666 10.6666 6.81589 10.6666 6.99999V8.58797C10.6666 8.63972 10.6787 8.69075 10.7018 8.73704L11.0921 9.51758C11.2029 9.73922 11.0418 9.99999 10.794 9.99999H9.87266C9.62486 9.99999 9.4637 9.73922 9.57452 9.51759L9.96479 8.73704Z" fill="white"/>
</g>
</g>
<defs>
<clipPath id="clip0_503_3830">
<rect width="28" height="20" rx="2" fill="white"/>
</clipPath>
</defs>
</svg>
