<svg width="28" height="20" fill="none" xmlns="http://www.w3.org/2000/svg"><rect width="28" height="20" rx="2" fill="#fff"/><mask id="a" style="mask-type:alpha" maskUnits="userSpaceOnUse" x="0" y="0" width="28" height="20"><rect width="28" height="20" rx="2" fill="#fff"/></mask><g mask="url(#a)" fill-rule="evenodd" clip-rule="evenodd"><path d="M9.334 20h9.333V0H9.333v20Z" fill="#146BBC"/><path d="M0 20h9.333V0H0v20Zm18.666 0H28V0h-9.334v20Z" fill="#E43642"/><path d="m4.667 10 .666.667H4L4.667 10Zm.666 4.021v.646H4L4.667 16l.666-1.333V16h1.333v-4H4.672a.667.667 0 1 0-.01 0H4l.667 1.333a.667.667 0 1 0 .666.688Zm0-.042V12l-.666 1.332c.36 0 .655.287.666.646ZM2.666 12H4v4H2.667v-4Z" fill="url(#b)"/></g><defs><linearGradient id="b" x1="2.667" y1="10" x2="2.667" y2="16" gradientUnits="userSpaceOnUse"><stop stop-color="#F8D246"/><stop offset="1" stop-color="#F9CE2F"/></linearGradient></defs></svg>