<svg width="28" height="20" fill="none" xmlns="http://www.w3.org/2000/svg"><rect width="28" height="20" rx="2" fill="#fff"/><mask id="a" style="mask-type:alpha" maskUnits="userSpaceOnUse" x="0" y="0" width="28" height="20"><rect width="28" height="20" rx="2" fill="#fff"/></mask><g mask="url(#a)" fill-rule="evenodd" clip-rule="evenodd"><path d="M0 20h28v-5.333H0V20Z" fill="#FFE547"/><path d="M0 5.333h28V0H0v5.333Z" fill="#118C81"/><path d="M0 14.667h28V5.333H0v9.334Z" fill="#fff"/><path d="M0 13.333h28V6.667H0v6.666Z" fill="#262626"/><path d="m0 0 13.333 10L0 20V0Z" fill="#EF2147"/><path d="m4.667 11.274-1.96 1.423.748-2.303L1.497 8.97h2.42l.75-2.303.749 2.302 2.421.001-1.958 1.424.747 2.303-1.96-1.423Z" fill="#FDE444"/></g></svg>