<svg width="28" height="20" fill="none" xmlns="http://www.w3.org/2000/svg"><rect width="28" height="20" rx="2" fill="#fff"/><mask id="a" style="mask-type:alpha" maskUnits="userSpaceOnUse" x="0" y="0" width="28" height="20"><rect width="28" height="20" rx="2" fill="#fff"/></mask><g mask="url(#a)"><path fill="url(#b)" d="M0 0h28v20H0z"/><path fill="#08379D" d="M13.333 0H28v20H13.333z"/><path fill-rule="evenodd" clip-rule="evenodd" d="M0 20h9.333V0H0v20Z" fill="#08379D"/><path fill-rule="evenodd" clip-rule="evenodd" d="M9.333 20h9.334V0H9.333v20Z" fill="#FFCC50"/><path fill-rule="evenodd" clip-rule="evenodd" d="M13.746 6.413a.333.333 0 0 1 .554.006l.696 1.065a.333.333 0 0 1-.279.516h-.015a.333.333 0 0 0-.332.367l.267 2.666c.017.17.16.3.331.3h.228a.333.333 0 0 0 .235-.096l.47-.465a.333.333 0 0 0 .099-.237V9.47a.333.333 0 0 0-.098-.235l-.187-.188a.333.333 0 0 1 .13-.552l.953-.318c.24-.08.48.127.433.377l-.491 2.673a.333.333 0 0 1-.097.18l-1.213 1.166a.333.333 0 0 1-.23.093H15a.333.333 0 0 0-.333.333v.667c0 .184-.15.333-.334.333h-.666a.333.333 0 0 1-.334-.333V13a.333.333 0 0 0-.333-.333h-.195a.333.333 0 0 1-.236-.098l-1.164-1.164a.334.334 0 0 1-.091-.17l-.535-2.672a.333.333 0 0 1 .433-.381l.943.314a.333.333 0 0 1 .13.552l-.187.188A.333.333 0 0 0 12 9.47v1.064c0 .089.036.174.099.237l.47.465a.333.333 0 0 0 .235.096h.228c.17 0 .314-.13.331-.3l.267-2.666A.334.334 0 0 0 13.298 8a.334.334 0 0 1-.277-.52l.725-1.067Z" fill="#262626"/></g><defs><linearGradient id="b" x1="0" y1="0" x2="0" y2="20" gradientUnits="userSpaceOnUse"><stop stop-color="#1132C7"/><stop offset="1" stop-color="#0522A5"/></linearGradient></defs></svg>