<svg width="28" height="20" viewBox="0 0 28 20" fill="none" xmlns="http://www.w3.org/2000/svg">
<rect width="28" height="20" rx="2" fill="white"/>
<mask id="mask0_503_3486" style="mask-type:alpha" maskUnits="userSpaceOnUse" x="0" y="0" width="28" height="20">
<rect width="28" height="20" rx="2" fill="white"/>
</mask>
<g mask="url(#mask0_503_3486)">
<path fill-rule="evenodd" clip-rule="evenodd" d="M28 0H0V1.33333H28V0ZM28 2.66667H0V4H28V2.66667ZM0 5.33333H28V6.66667H0V5.33333ZM28 8H0V9.33333H28V8ZM0 10.6667H28V12H0V10.6667ZM28 13.3333H0V14.6667H28V13.3333ZM0 16H28V17.3333H0V16ZM28 18.6667H0V20H28V18.6667Z" fill="#D02F44"/>
<rect width="12" height="9.33333" fill="#46467F"/>
<g filter="url(#filter0_d_503_3486)">
<path fill-rule="evenodd" clip-rule="evenodd" d="M2.66666 2.00001C2.66666 2.3682 2.36818 2.66668 1.99999 2.66668C1.63181 2.66668 1.33333 2.3682 1.33333 2.00001C1.33333 1.63182 1.63181 1.33334 1.99999 1.33334C2.36818 1.33334 2.66666 1.63182 2.66666 2.00001ZM5.33333 2.00001C5.33333 2.3682 5.03485 2.66668 4.66666 2.66668C4.29847 2.66668 3.99999 2.3682 3.99999 2.00001C3.99999 1.63182 4.29847 1.33334 4.66666 1.33334C5.03485 1.33334 5.33333 1.63182 5.33333 2.00001ZM7.33333 2.66668C7.70152 2.66668 8 2.3682 8 2.00001C8 1.63182 7.70152 1.33334 7.33333 1.33334C6.96514 1.33334 6.66666 1.63182 6.66666 2.00001C6.66666 2.3682 6.96514 2.66668 7.33333 2.66668ZM10.6667 2.00001C10.6667 2.3682 10.3682 2.66668 10 2.66668C9.63181 2.66668 9.33333 2.3682 9.33333 2.00001C9.33333 1.63182 9.63181 1.33334 10 1.33334C10.3682 1.33334 10.6667 1.63182 10.6667 2.00001ZM3.33333 4.00001C3.70152 4.00001 3.99999 3.70153 3.99999 3.33334C3.99999 2.96515 3.70152 2.66668 3.33333 2.66668C2.96514 2.66668 2.66666 2.96515 2.66666 3.33334C2.66666 3.70153 2.96514 4.00001 3.33333 4.00001ZM6.66666 3.33334C6.66666 3.70153 6.36818 4.00001 5.99999 4.00001C5.6318 4.00001 5.33333 3.70153 5.33333 3.33334C5.33333 2.96515 5.6318 2.66668 5.99999 2.66668C6.36818 2.66668 6.66666 2.96515 6.66666 3.33334ZM8.66666 4.00001C9.03485 4.00001 9.33333 3.70153 9.33333 3.33334C9.33333 2.96515 9.03485 2.66668 8.66666 2.66668C8.29847 2.66668 7.99999 2.96515 7.99999 3.33334C7.99999 3.70153 8.29847 4.00001 8.66666 4.00001ZM10.6667 4.66668C10.6667 5.03487 10.3682 5.33334 10 5.33334C9.63181 5.33334 9.33333 5.03487 9.33333 4.66668C9.33333 4.29849 9.63181 4.00001 10 4.00001C10.3682 4.00001 10.6667 4.29849 10.6667 4.66668ZM7.33333 5.33334C7.70152 5.33334 8 5.03487 8 4.66668C8 4.29849 7.70152 4.00001 7.33333 4.00001C6.96514 4.00001 6.66666 4.29849 6.66666 4.66668C6.66666 5.03487 6.96514 5.33334 7.33333 5.33334ZM5.33333 4.66668C5.33333 5.03487 5.03485 5.33334 4.66666 5.33334C4.29847 5.33334 3.99999 5.03487 3.99999 4.66668C3.99999 4.29849 4.29847 4.00001 4.66666 4.00001C5.03485 4.00001 5.33333 4.29849 5.33333 4.66668ZM1.99999 5.33334C2.36818 5.33334 2.66666 5.03487 2.66666 4.66668C2.66666 4.29849 2.36818 4.00001 1.99999 4.00001C1.63181 4.00001 1.33333 4.29849 1.33333 4.66668C1.33333 5.03487 1.63181 5.33334 1.99999 5.33334ZM3.99999 6.00001C3.99999 6.3682 3.70152 6.66668 3.33333 6.66668C2.96514 6.66668 2.66666 6.3682 2.66666 6.00001C2.66666 5.63182 2.96514 5.33334 3.33333 5.33334C3.70152 5.33334 3.99999 5.63182 3.99999 6.00001ZM5.99999 6.66668C6.36818 6.66668 6.66666 6.3682 6.66666 6.00001C6.66666 5.63182 6.36818 5.33334 5.99999 5.33334C5.6318 5.33334 5.33333 5.63182 5.33333 6.00001C5.33333 6.3682 5.6318 6.66668 5.99999 6.66668ZM9.33333 6.00001C9.33333 6.3682 9.03485 6.66668 8.66666 6.66668C8.29847 6.66668 7.99999 6.3682 7.99999 6.00001C7.99999 5.63182 8.29847 5.33334 8.66666 5.33334C9.03485 5.33334 9.33333 5.63182 9.33333 6.00001ZM10 8.00001C10.3682 8.00001 10.6667 7.70153 10.6667 7.33334C10.6667 6.96515 10.3682 6.66668 10 6.66668C9.63181 6.66668 9.33333 6.96515 9.33333 7.33334C9.33333 7.70153 9.63181 8.00001 10 8.00001ZM8 7.33334C8 7.70153 7.70152 8.00001 7.33333 8.00001C6.96514 8.00001 6.66666 7.70153 6.66666 7.33334C6.66666 6.96515 6.96514 6.66668 7.33333 6.66668C7.70152 6.66668 8 6.96515 8 7.33334ZM4.66666 8.00001C5.03485 8.00001 5.33333 7.70153 5.33333 7.33334C5.33333 6.96515 5.03485 6.66668 4.66666 6.66668C4.29847 6.66668 3.99999 6.96515 3.99999 7.33334C3.99999 7.70153 4.29847 8.00001 4.66666 8.00001ZM2.66666 7.33334C2.66666 7.70153 2.36818 8.00001 1.99999 8.00001C1.63181 8.00001 1.33333 7.70153 1.33333 7.33334C1.33333 6.96515 1.63181 6.66668 1.99999 6.66668C2.36818 6.66668 2.66666 6.96515 2.66666 7.33334Z" fill="url(#paint0_linear_503_3486)"/>
</g>
</g>
<defs>
<filter id="filter0_d_503_3486" x="1.33333" y="1.33334" width="9.33333" height="7.66666" filterUnits="userSpaceOnUse" color-interpolation-filters="sRGB">
<feFlood flood-opacity="0" result="BackgroundImageFix"/>
<feColorMatrix in="SourceAlpha" type="matrix" values="0 0 0 0 0 0 0 0 0 0 0 0 0 0 0 0 0 0 127 0" result="hardAlpha"/>
<feOffset dy="1"/>
<feColorMatrix type="matrix" values="0 0 0 0 0 0 0 0 0 0 0 0 0 0 0 0 0 0 0.06 0"/>
<feBlend mode="normal" in2="BackgroundImageFix" result="effect1_dropShadow_503_3486"/>
<feBlend mode="normal" in="SourceGraphic" in2="effect1_dropShadow_503_3486" result="shape"/>
</filter>
<linearGradient id="paint0_linear_503_3486" x1="1.33333" y1="1.33334" x2="1.33333" y2="8.00001" gradientUnits="userSpaceOnUse">
<stop stop-color="white"/>
<stop offset="1" stop-color="#F0F0F0"/>
</linearGradient>
</defs>
</svg>
