<svg width="28" height="20" fill="none" xmlns="http://www.w3.org/2000/svg"><rect width="28" height="20" rx="2" fill="#fff"/><mask id="a" style="mask-type:alpha" maskUnits="userSpaceOnUse" x="0" y="0" width="28" height="20"><rect width="28" height="20" rx="2" fill="#fff"/></mask><g mask="url(#a)"><path fill-rule="evenodd" clip-rule="evenodd" d="M28 0H13.333v1.333H28V0Zm0 2.667H13.333V4H28V2.667ZM13.333 5.333H28v1.334H13.333V5.333ZM28 8H13.333v1.333H28V8ZM0 10.667h28V12H0v-1.333Zm28 2.666H0v1.334h28v-1.334ZM0 16h28v1.333H0V16Zm28 2.667H0V20h28v-1.333Z" fill="#E1244A"/><path fill="#0C3F8E" d="M0 0h16v10.667H0z"/><path fill-rule="evenodd" clip-rule="evenodd" d="M6.667 9.333c.945 0 1.813-.327 2.498-.876a3.333 3.333 0 1 1 0-6.248 4 4 0 1 0-2.498 7.124ZM9.51 7.736l1.157-1.31 1.157 1.31-.303-1.721 1.745-.088-1.533-.837 1.018-1.42-1.61.678-.474-1.681-.475 1.681-1.61-.677L9.6 5.09l-1.534.837 1.745.088-.302 1.72Z" fill="#FFD34F"/></g></svg>