<svg width="28" height="20" viewBox="0 0 28 20" fill="none" xmlns="http://www.w3.org/2000/svg">
<g clip-path="url(#clip0_503_3062)">
<rect width="28" height="20" rx="2" fill="white"/>
<mask id="mask0_503_3062" style="mask-type:alpha" maskUnits="userSpaceOnUse" x="0" y="0" width="28" height="20">
<rect width="28" height="20" rx="2" fill="white"/>
</mask>
<g mask="url(#mask0_503_3062)">
<path fill-rule="evenodd" clip-rule="evenodd" d="M28 0V10H0V0H28Z" fill="#29C53F"/>
<path fill-rule="evenodd" clip-rule="evenodd" d="M28 10V20.6667H0V10H28Z" fill="#579DED"/>
<path fill-rule="evenodd" clip-rule="evenodd" d="M0 20L28 10L0 0V20Z" fill="#F42D56"/>
<path d="M12.6667 10C12.6667 12.2091 10.8758 14 8.66667 14C6.45753 14 4.66667 12.2091 4.66667 10C4.66667 7.79087 6.45753 6.00001 8.66667 6.00001C10.8758 6.00001 12.6667 7.79087 12.6667 10Z" stroke="#FFC63C" stroke-width="1.33333"/>
<path fill-rule="evenodd" clip-rule="evenodd" d="M8.00004 9.33333C8.36823 9.33333 8.66671 9.03486 8.66671 8.66667C8.66671 8.29848 8.36823 8 8.00004 8C7.63185 8 7.33337 8.29848 7.33337 8.66667C7.33337 9.03486 7.63185 9.33333 8.00004 9.33333Z" fill="#FFC63C"/>
<path fill-rule="evenodd" clip-rule="evenodd" d="M9.33329 9.99999C9.70148 9.99999 9.99996 9.70151 9.99996 9.33332C9.99996 8.96513 9.70148 8.66666 9.33329 8.66666C8.9651 8.66666 8.66663 8.96513 8.66663 9.33332C8.66663 9.70151 8.9651 9.99999 9.33329 9.99999Z" fill="#FFC63C"/>
<path fill-rule="evenodd" clip-rule="evenodd" d="M8.66667 8.66668C9.03486 8.66668 9.33333 8.3682 9.33333 8.00001C9.33333 7.63182 9.03486 7.33334 8.66667 7.33334C8.29848 7.33334 8 7.63182 8 8.00001C8 8.3682 8.29848 8.66668 8.66667 8.66668Z" fill="#FFC63C"/>
<path fill-rule="evenodd" clip-rule="evenodd" d="M8.00004 10.6667C8.36823 10.6667 8.66671 10.3682 8.66671 10C8.66671 9.63182 8.36823 9.33334 8.00004 9.33334C7.63185 9.33334 7.33337 9.63182 7.33337 10C7.33337 10.3682 7.63185 10.6667 8.00004 10.6667Z" fill="#FFC63C"/>
<path fill-rule="evenodd" clip-rule="evenodd" d="M9.33329 11.3333C9.70148 11.3333 9.99996 11.0349 9.99996 10.6667C9.99996 10.2985 9.70148 10 9.33329 10C8.9651 10 8.66663 10.2985 8.66663 10.6667C8.66663 11.0349 8.9651 11.3333 9.33329 11.3333Z" fill="#FFC63C"/>
<path fill-rule="evenodd" clip-rule="evenodd" d="M8.00004 12C8.36823 12 8.66671 11.7015 8.66671 11.3333C8.66671 10.9651 8.36823 10.6667 8.00004 10.6667C7.63185 10.6667 7.33337 10.9651 7.33337 11.3333C7.33337 11.7015 7.63185 12 8.00004 12Z" fill="#FFC63C"/>
<path fill-rule="evenodd" clip-rule="evenodd" d="M9.33329 12.6667C9.70148 12.6667 9.99996 12.3682 9.99996 12C9.99996 11.6318 9.70148 11.3333 9.33329 11.3333C8.9651 11.3333 8.66663 11.6318 8.66663 12C8.66663 12.3682 8.9651 12.6667 9.33329 12.6667Z" fill="#FFC63C"/>
</g>
</g>
<defs>
<clipPath id="clip0_503_3062">
<rect width="28" height="20" rx="2" fill="white"/>
</clipPath>
</defs>
</svg>
