<svg width="28" height="20" viewBox="0 0 28 20" fill="none" xmlns="http://www.w3.org/2000/svg">
<rect x="0.25" y="0.25" width="27.5" height="19.5" rx="1.75" fill="white" stroke="#F5F5F5" stroke-width="0.5"/>
<mask id="mask0_503_4538" style="mask-type:alpha" maskUnits="userSpaceOnUse" x="0" y="0" width="28" height="20">
<rect x="0.25" y="0.25" width="27.5" height="19.5" rx="1.75" fill="white" stroke="white" stroke-width="0.5"/>
</mask>
<g mask="url(#mask0_503_4538)">
<path fill-rule="evenodd" clip-rule="evenodd" d="M0 5.33333H28V0H0V5.33333Z" fill="#D82332"/>
<path fill-rule="evenodd" clip-rule="evenodd" d="M0 20H28V14.6667H0V20Z" fill="#D82332"/>
<path fill-rule="evenodd" clip-rule="evenodd" d="M13.0672 10.7527L12.7827 11.018C13.0399 11.0901 13.3966 11.0061 13.5386 10.7527H13.0672Z" fill="#064A89"/>
<path fill-rule="evenodd" clip-rule="evenodd" d="M10.7725 10.9334C10.9649 11.1259 11.2838 11.1034 11.4763 10.9816C11.6689 10.8597 11.8103 10.8519 11.9303 10.8647C11.943 10.9733 11.9714 11.1126 12.0201 11.2502H10.8782C10.8498 11.1797 10.7945 11.0152 10.7725 10.9334Z" fill="#064A89"/>
<path fill-rule="evenodd" clip-rule="evenodd" d="M10.984 11.4478C11.2081 11.3419 11.4372 11.4259 11.5363 11.5022C11.7194 11.6434 12.0218 11.6051 12.1702 11.525C12.2268 11.6174 12.2956 11.7082 12.3786 11.7776H11.1568C11.1071 11.6975 10.9998 11.5006 10.984 11.4478Z" fill="#064A89"/>
<path fill-rule="evenodd" clip-rule="evenodd" d="M16.2978 12.3249C16.3514 12.2704 16.424 12.1806 16.4714 12.1165C16.3925 12.1068 16.3007 12.0497 16.2032 12.001C16.0232 11.9111 15.8512 11.9111 15.6981 12.017C15.4709 12.1741 15.1868 12.2126 14.9658 12.0555C14.7234 11.8831 14.4987 11.9208 14.3093 12.03C14.1199 12.1389 14 12.1453 13.8863 12.1453C13.7727 12.1453 13.6528 12.1389 13.4634 12.03C13.274 11.9208 13.0493 11.8831 12.8069 12.0555C12.5859 12.2126 12.3018 12.1741 12.0746 12.017C11.9215 11.9111 11.7495 11.9111 11.5695 12.001C11.4719 12.0497 11.3802 12.1068 11.3013 12.1165C11.3487 12.1806 11.4213 12.2704 11.4749 12.3249H16.2978Z" fill="#064A89"/>
<path fill-rule="evenodd" clip-rule="evenodd" d="M15.7065 12.8612C15.757 12.8292 15.8959 12.7234 15.9653 12.6688C15.8896 12.6849 15.7169 12.6286 15.6277 12.5822C15.3687 12.4474 15.1984 12.4603 15.0059 12.5629C14.8133 12.6656 14.5418 12.7201 14.343 12.6111C14.1442 12.5021 14.0021 12.4731 13.8979 12.4731C13.7938 12.4731 13.6517 12.5021 13.4528 12.6111C13.254 12.7201 12.9826 12.6656 12.79 12.5629C12.5975 12.4603 12.4271 12.4474 12.1682 12.5822C12.079 12.6286 11.9063 12.6849 11.8305 12.6688C11.8999 12.7234 12.0389 12.8292 12.0894 12.8612H15.7065Z" fill="#064A89"/>
<path fill-rule="evenodd" clip-rule="evenodd" d="M14.5682 11.7951C14.5146 11.7662 14.4518 11.699 14.3946 11.6128C14.303 11.4748 14.1578 11.3979 13.9401 11.3979C13.7223 11.3979 13.5771 11.4748 13.4856 11.6128C13.4283 11.699 13.3656 11.7662 13.312 11.7951H14.5682Z" fill="#064A89"/>
<path fill-rule="evenodd" clip-rule="evenodd" d="M14.2102 11.2999C14.1881 11.2614 14.1408 11.1395 14.125 11.0753C14.0744 11.0914 13.9767 11.0978 13.9198 11.0978C13.863 11.0978 13.7652 11.0914 13.7147 11.0753C13.6989 11.1395 13.6516 11.2614 13.6295 11.2999H14.2102Z" fill="#064A89"/>
<path fill-rule="evenodd" clip-rule="evenodd" d="M14.7356 10.7527L15.02 11.018C14.7629 11.0901 14.4062 11.0061 14.2642 10.7527H14.7356Z" fill="#064A89"/>
<path fill-rule="evenodd" clip-rule="evenodd" d="M17.0992 10.9334C16.9067 11.1259 16.5879 11.1034 16.3954 10.9816C16.2028 10.8597 16.0613 10.8519 15.9413 10.8647C15.9285 10.9733 15.9002 11.1126 15.8516 11.2502H16.9935C17.0218 11.1797 17.0771 11.0152 17.0992 10.9334Z" fill="#064A89"/>
<path fill-rule="evenodd" clip-rule="evenodd" d="M16.9288 11.4478C16.7047 11.3419 16.4756 11.4259 16.3764 11.5022C16.1934 11.6434 15.8909 11.6051 15.7426 11.525C15.686 11.6174 15.6172 11.7082 15.5342 11.7776H16.756C16.8057 11.6975 16.9131 11.5006 16.9288 11.4478Z" fill="#064A89"/>
<path fill-rule="evenodd" clip-rule="evenodd" d="M15.1588 13.0716C14.7761 13.2303 14.3572 13.3179 13.9183 13.3179C13.4789 13.3179 13.0603 13.2304 12.6772 13.0714C12.7593 13.0618 12.8679 13.0216 12.9556 12.972C13.0977 12.8918 13.3564 12.8758 13.4796 12.956C13.6026 13.0362 13.751 13.1163 13.9183 13.1163C14.0856 13.1163 14.234 13.0362 14.357 12.956C14.4801 12.8758 14.7389 12.8918 14.8811 12.972C14.9686 13.0216 15.0767 13.062 15.1588 13.0716Z" fill="#064A89"/>
<path fill-rule="evenodd" clip-rule="evenodd" d="M14.625 6.72694C13.9338 6.58264 13.312 6.66597 13.312 7.32673C13.312 7.97458 13.312 8.93673 13.312 9.13565C13.312 9.33447 13.3159 9.35963 13.5487 9.41468C14.0537 9.53415 14.101 9.54619 14.6502 9.67436V7.81425C14.221 7.76608 14.0569 7.52135 14.0569 7.23694C14.0569 6.96114 14.2462 6.78146 14.625 6.72694Z" fill="#514537"/>
<path fill-rule="evenodd" clip-rule="evenodd" d="M12.8535 11.8285C12.4685 11.8285 12.0644 11.4885 12.0644 10.8407C12.0644 10.1927 12.0644 9.3781 12.0644 9.23057C12.0644 9.08466 12.0806 9.06412 12.0471 9.03014C12.0274 9.01014 12.0692 8.98046 12.0976 8.95154C12.1402 8.9082 12.1694 8.87218 12.1118 8.81358C12.0542 8.75509 12.0787 8.73982 12.115 8.70304C12.1513 8.66605 12.1655 8.62928 12.1308 8.5939C12.0961 8.55863 12.0881 8.54745 12.126 8.50896C12.1639 8.47046 12.1481 8.45444 12.1166 8.42229C12.085 8.39025 12.07 8.36702 12.1103 8.32616C12.1497 8.28605 12.1528 8.2796 12.1986 8.2796C12.2444 8.2796 12.3438 8.2796 12.388 8.2796C12.4323 8.2796 12.433 8.29326 12.3959 8.331C12.3477 8.37982 12.3335 8.39906 12.388 8.45444C12.4424 8.50971 12.4401 8.5282 12.4054 8.56347C12.3532 8.61638 12.3304 8.65251 12.3833 8.70627C12.4362 8.75992 12.4408 8.78401 12.4006 8.82487C12.3604 8.86573 12.3564 8.90186 12.4006 8.9467C12.4346 8.98122 12.4369 9.00132 12.4369 9.06218C12.4369 9.42949 12.4369 10.4301 12.4369 10.7059C12.4369 10.9818 12.6326 11.1485 13.0051 11.1485C13.3776 11.1485 13.5038 10.9945 13.6111 10.892C13.5417 11.3858 13.3397 11.8285 12.8535 11.8285Z" fill="#514537"/>
<path fill-rule="evenodd" clip-rule="evenodd" d="M13.9405 10.255C13.9926 10.2709 14.043 10.3479 14.043 10.4313H14.1457C14.1457 10.3608 14.1156 10.2517 14.0612 10.1843C14.0604 10.1667 14.0581 10.1515 14.0542 10.1363C14.092 10.0881 14.1473 10.0111 14.1457 9.93733C14.1446 9.89077 14.0905 9.89249 14.0841 9.92937C14.0789 9.95969 14.0589 10.0064 14.021 10.0224C14.021 9.96302 13.9878 9.89249 13.9405 9.89249C13.8932 9.89249 13.86 9.96302 13.86 10.0224C13.8221 10.0064 13.8021 9.95969 13.7969 9.92937C13.7906 9.89249 13.7363 9.89077 13.7353 9.93733C13.7337 10.0111 13.789 10.0881 13.8269 10.1363C13.8229 10.1515 13.8206 10.1667 13.8198 10.1843C13.7654 10.2517 13.7353 10.3608 13.7353 10.4313H13.838C13.838 10.3479 13.8884 10.2709 13.9405 10.255Z" fill="#514537"/>
<path fill-rule="evenodd" clip-rule="evenodd" d="M13.4113 10.255C13.4633 10.2709 13.5139 10.3479 13.5139 10.4313H13.6165C13.6165 10.3608 13.5865 10.2518 13.532 10.1843C13.5313 10.1667 13.5288 10.1515 13.5249 10.1363C13.5628 10.0881 13.618 10.0111 13.6165 9.93736C13.6155 9.8908 13.5612 9.89252 13.5549 9.9294C13.5497 9.95972 13.5296 10.0064 13.4918 10.0224C13.4918 9.96305 13.4587 9.89252 13.4113 9.89252C13.364 9.89252 13.3309 9.96305 13.3309 10.0224C13.293 10.0064 13.2729 9.95972 13.2677 9.9294C13.2613 9.89252 13.2071 9.8908 13.2061 9.93736C13.2045 10.0111 13.2597 10.0881 13.2976 10.1363C13.2937 10.1515 13.2914 10.1667 13.2905 10.1843C13.2361 10.2518 13.2061 10.3608 13.2061 10.4313H13.3087C13.3087 10.3479 13.3592 10.2709 13.4113 10.255Z" fill="#514537"/>
<path fill-rule="evenodd" clip-rule="evenodd" d="M12.8825 10.255C12.9345 10.2709 12.985 10.3479 12.985 10.4313H13.0876C13.0876 10.3608 13.0576 10.2518 13.0032 10.1843C13.0024 10.1667 13 10.1515 12.9961 10.1363C13.034 10.0881 13.0892 10.0111 13.0876 9.93736C13.0866 9.8908 13.0324 9.89252 13.0261 9.9294C13.0209 9.95972 13.0008 10.0064 12.9629 10.0224C12.9629 9.96305 12.9298 9.89252 12.8825 9.89252C12.8351 9.89252 12.8019 9.96305 12.8019 10.0224C12.7641 10.0064 12.7441 9.95972 12.7389 9.9294C12.7325 9.89252 12.6782 9.8908 12.6773 9.93736C12.6757 10.0111 12.7309 10.0881 12.7688 10.1363C12.7649 10.1515 12.7625 10.1667 12.7617 10.1843C12.7072 10.2518 12.6773 10.3608 12.6773 10.4313H12.7798C12.7798 10.3479 12.8304 10.2709 12.8825 10.255Z" fill="#514537"/>
<path fill-rule="evenodd" clip-rule="evenodd" d="M14.4694 10.255C14.4173 10.2709 14.3668 10.3479 14.3668 10.4313H14.2642C14.2642 10.3608 14.2941 10.2518 14.3486 10.1843C14.3494 10.1667 14.3518 10.1515 14.3558 10.1363C14.3178 10.0881 14.2626 10.0111 14.2642 9.93736C14.2653 9.8908 14.3194 9.89252 14.3258 9.9294C14.331 9.95972 14.3511 10.0064 14.3888 10.0224C14.3888 9.96305 14.4221 9.89252 14.4694 9.89252C14.5168 9.89252 14.5499 9.96305 14.5499 10.0224C14.5877 10.0064 14.6078 9.95972 14.613 9.9294C14.6193 9.89252 14.6735 9.8908 14.6746 9.93736C14.6762 10.0111 14.6209 10.0881 14.583 10.1363C14.5869 10.1515 14.5894 10.1667 14.5901 10.1843C14.6446 10.2518 14.6746 10.3608 14.6746 10.4313H14.5719C14.5719 10.3479 14.5214 10.2709 14.4694 10.255Z" fill="#514537"/>
<path fill-rule="evenodd" clip-rule="evenodd" d="M14.9987 10.255C14.9466 10.2709 14.8962 10.3479 14.8962 10.4313H14.7935C14.7935 10.3608 14.8236 10.2517 14.878 10.1843C14.8788 10.1667 14.8811 10.1515 14.8851 10.1363C14.8472 10.0881 14.7919 10.0111 14.7935 9.93733C14.7945 9.89077 14.8488 9.89249 14.8551 9.92937C14.8603 9.95969 14.8803 10.0064 14.9182 10.0224C14.9182 9.96302 14.9514 9.89249 14.9987 9.89249C15.0461 9.89249 15.0792 9.96302 15.0792 10.0224C15.1171 10.0064 15.1371 9.95969 15.1423 9.92937C15.1487 9.89249 15.2028 9.89077 15.2039 9.93733C15.2055 10.0111 15.1502 10.0881 15.1124 10.1363C15.1163 10.1515 15.1186 10.1667 15.1194 10.1843C15.1739 10.2517 15.2039 10.3608 15.2039 10.4313H15.1014C15.1014 10.3479 15.0508 10.2709 14.9987 10.255Z" fill="#514537"/>
<path fill-rule="evenodd" clip-rule="evenodd" d="M12.5713 10.5377H15.3488V10.671H12.5713V10.5377Z" fill="#514537"/>
<path fill-rule="evenodd" clip-rule="evenodd" d="M15.0217 11.8285C15.4068 11.8285 15.8108 11.4885 15.8108 10.8407C15.8108 10.1927 15.8108 9.3781 15.8108 9.23057C15.8108 9.08466 15.7946 9.06412 15.8282 9.03014C15.8479 9.01014 15.8061 8.98046 15.7777 8.95154C15.7351 8.9082 15.7059 8.87218 15.7634 8.81358C15.8211 8.75509 15.7965 8.73982 15.7604 8.70304C15.7239 8.66605 15.7098 8.62928 15.7445 8.5939C15.7792 8.55863 15.7871 8.54745 15.7492 8.50896C15.7114 8.47046 15.7271 8.45444 15.7587 8.42229C15.7903 8.39025 15.8052 8.36702 15.765 8.32616C15.7255 8.28605 15.7225 8.2796 15.6766 8.2796C15.6308 8.2796 15.5315 8.2796 15.4872 8.2796C15.4431 8.2796 15.4423 8.29326 15.4794 8.331C15.5275 8.37982 15.5417 8.39906 15.4872 8.45444C15.4328 8.50971 15.4352 8.5282 15.4699 8.56347C15.522 8.61638 15.5448 8.65251 15.492 8.70627C15.4391 8.75992 15.4343 8.78401 15.4746 8.82487C15.5148 8.86573 15.5189 8.90186 15.4746 8.9467C15.4407 8.98122 15.4383 9.00132 15.4383 9.06218C15.4383 9.42949 15.4383 10.4301 15.4383 10.7059C15.4383 10.9818 15.2426 11.1485 14.8702 11.1485C14.4977 11.1485 14.3716 10.9945 14.2642 10.892C14.3336 11.3858 14.5356 11.8285 15.0217 11.8285Z" fill="#514537"/>
<path fill-rule="evenodd" clip-rule="evenodd" d="M12.5713 9.67431C12.5713 9.67431 12.5714 9.57968 12.5714 9.46237L13.1266 9.67441L12.5713 9.67431Z" fill="#EEA339"/>
<path fill-rule="evenodd" clip-rule="evenodd" d="M11.9089 9.77282L10.6665 9.60261C10.7026 9.33207 10.7708 9.06831 10.869 8.81723L11.9089 9.23669V9.77282Z" fill="#EEA339"/>
<path fill-rule="evenodd" clip-rule="evenodd" d="M14.476 7.69592L14.6969 6.7742C14.9553 6.83786 15.2065 6.93377 15.4446 7.06022L14.7323 8.4456L14.7349 7.75001C14.6526 7.75044 14.5265 7.73764 14.476 7.69592Z" fill="#EEA339"/>
<path fill-rule="evenodd" clip-rule="evenodd" d="M11.9382 9.86304L10.6726 9.78497C10.6563 10.0547 10.6725 10.3268 10.7212 10.5953C10.7212 10.5953 11.9382 10.603 11.9382 10.5953V9.86304Z" fill="#EEA339"/>
<path fill-rule="evenodd" clip-rule="evenodd" d="M11.9257 8.99562C11.8847 8.9411 11.91 8.91207 11.9541 8.88314C11.9984 8.85433 11.992 8.83185 11.97 8.79024C11.9479 8.74852 11.9258 8.70357 11.9668 8.65873C12.0079 8.61379 11.992 8.59454 11.9605 8.5625C11.9289 8.53045 11.9258 8.49519 11.9541 8.46949C11.9826 8.44379 11.9762 8.42454 11.9574 8.39895C11.9384 8.37325 11.9012 8.32121 11.9344 8.28755L11.4181 7.84949C11.2476 8.0568 11.1015 8.28562 10.984 8.53099L11.9257 8.99562Z" fill="#EEA339"/>
<path fill-rule="evenodd" clip-rule="evenodd" d="M13.1624 9.23445L12.547 8.62811C12.6338 8.53994 12.6425 8.52553 12.581 8.46295C12.5139 8.39478 12.5115 8.38768 12.648 8.24886C12.6945 8.20166 12.6685 8.16865 12.6023 8.16865C12.536 8.16865 12.2314 8.16865 12.1966 8.16865C12.1619 8.16865 12.1346 8.17047 12.1092 8.19628L11.6187 7.7137C11.8058 7.51789 12.0149 7.34703 12.2408 7.20435L13.1624 8.71026V9.23445Z" fill="#EEA339"/>
<path fill-rule="evenodd" clip-rule="evenodd" d="M12.5225 9.32666C12.5225 9.17602 12.5226 9.02688 12.5226 9.00569C12.5226 8.96075 12.5194 8.94311 12.4847 8.90784C12.45 8.87258 12.4674 8.85569 12.4942 8.8172L13.0779 9.31129V9.60139L12.5225 9.32666Z" fill="#EEA339"/>
<path fill-rule="evenodd" clip-rule="evenodd" d="M13.0696 8.44638C13.0696 8.15703 13.0696 7.88939 13.0696 7.7352C13.0696 7.27337 13.0951 7.0424 13.1613 6.99595L13.1083 6.77423C12.8492 6.84509 12.598 6.94101 12.3599 7.06746L13.0696 8.44638Z" fill="#EEA339"/>
<path fill-rule="evenodd" clip-rule="evenodd" d="M15.3488 9.67431C15.3488 9.67431 15.3487 9.57968 15.3487 9.46237L14.7935 9.67441L15.3488 9.67431Z" fill="#EEA339"/>
<path fill-rule="evenodd" clip-rule="evenodd" d="M15.9575 9.77282L17.1999 9.60261C17.1639 9.33207 17.0956 9.06831 16.9974 8.81723L15.9575 9.23669V9.77282Z" fill="#EEA339"/>
<path fill-rule="evenodd" clip-rule="evenodd" d="M15.9575 9.86304L17.223 9.78497C17.2393 10.0547 17.2232 10.3268 17.1744 10.5953C17.1744 10.5953 15.9575 10.603 15.9575 10.5953V9.86304Z" fill="#EEA339"/>
<path fill-rule="evenodd" clip-rule="evenodd" d="M15.9174 8.99562C15.9585 8.9411 15.9331 8.91207 15.8889 8.88314C15.8447 8.85433 15.851 8.83185 15.8731 8.79024C15.8952 8.74852 15.9173 8.70357 15.8762 8.65873C15.8352 8.61379 15.851 8.59454 15.8826 8.5625C15.9141 8.53045 15.9173 8.49519 15.8889 8.46949C15.8605 8.44379 15.8668 8.42454 15.8856 8.39895C15.9047 8.37325 15.9417 8.32121 15.9086 8.28755L16.4249 7.84949C16.5955 8.0568 16.7414 8.28562 16.859 8.53099L15.9174 8.99562Z" fill="#EEA339"/>
<path fill-rule="evenodd" clip-rule="evenodd" d="M14.7935 9.23442L15.4088 8.62808C15.322 8.53991 15.3133 8.5255 15.3749 8.46292C15.442 8.39475 15.4444 8.38765 15.3079 8.24883C15.2612 8.20163 15.2873 8.16862 15.3536 8.16862C15.4198 8.16862 15.7245 8.16862 15.7592 8.16862C15.7939 8.16862 15.8212 8.17044 15.8466 8.19625L16.3372 7.71367C16.15 7.51786 15.9409 7.347 15.7151 7.20432L14.7935 8.71023V9.23442Z" fill="#EEA339"/>
<path fill-rule="evenodd" clip-rule="evenodd" d="M15.3489 9.32669C15.3489 9.17605 15.3488 9.02691 15.3488 9.00572C15.3488 8.96078 15.352 8.94314 15.3867 8.90788C15.4214 8.87261 15.4041 8.85572 15.3772 8.81723L14.7935 9.31132V9.60142L15.3489 9.32669Z" fill="#EEA339"/>
<path fill-rule="evenodd" clip-rule="evenodd" d="M12.148 9.03229C12.1701 9.05476 12.1796 9.07713 12.1796 9.13164C12.1796 9.18616 12.1796 10.3793 12.1796 10.8476C12.1796 11.4184 12.5205 11.7359 12.8708 11.7359C13.1927 11.7359 13.4043 11.4377 13.5148 11.0913C13.3727 11.2036 13.1644 11.2388 12.9654 11.2388C12.7351 11.2388 12.3627 11.0817 12.3627 10.7418C12.3627 10.4274 12.3627 9.26315 12.3627 9.07713C12.3627 9.03229 12.3185 9.03229 12.148 9.03229Z" fill="#D82332"/>
<path fill-rule="evenodd" clip-rule="evenodd" d="M14.1609 6.78405C13.7208 6.73878 13.3125 6.83179 13.3125 7.4419C13.3125 8.0834 13.3125 8.86587 13.3125 9.06286C13.3125 9.33351 13.2916 9.30136 13.5173 9.35824C13.9268 9.46147 13.9733 9.47458 14.47 9.58985V7.94061C14.0459 7.8934 13.862 7.61114 13.862 7.29856C13.862 7.04985 13.9702 6.81577 14.1609 6.78405Z" fill="#D82332"/>
<path fill-rule="evenodd" clip-rule="evenodd" d="M15.737 9.03229C15.7149 9.05476 15.7053 9.07713 15.7053 9.13164C15.7053 9.18616 15.7053 10.3793 15.7053 10.8476C15.7053 11.4184 15.3645 11.7359 15.0141 11.7359C14.6922 11.7359 14.4807 11.4377 14.3702 11.0913C14.5123 11.2036 14.7206 11.2388 14.9195 11.2388C15.1499 11.2388 15.5223 11.0817 15.5223 10.7418C15.5223 10.4274 15.5223 9.26315 15.5223 9.07713C15.5223 9.03229 15.5665 9.03229 15.737 9.03229Z" fill="#D82332"/>
<mask id="mask1_503_4538" style="mask-type:alpha" maskUnits="userSpaceOnUse" x="10" y="6" width="8" height="8">
<path fill-rule="evenodd" clip-rule="evenodd" d="M13.9998 13.3334C15.8408 13.3334 17.3332 11.841 17.3332 10C17.3332 8.15907 15.8408 6.66669 13.9998 6.66669C12.1589 6.66669 10.6665 8.15907 10.6665 10C10.6665 11.841 12.1589 13.3334 13.9998 13.3334Z" fill="white"/>
</mask>
<g mask="url(#mask1_503_4538)">
<path fill-rule="evenodd" clip-rule="evenodd" d="M13.9998 18.6667C15.8408 18.6667 17.3332 17.1743 17.3332 15.3334C17.3332 13.4924 15.8408 12 13.9998 12C12.1589 12 10.6665 13.4924 10.6665 15.3334C10.6665 17.1743 12.1589 18.6667 13.9998 18.6667Z" fill="#064A89"/>
</g>
</g>
</svg>
