<svg width="28" height="20" fill="none" xmlns="http://www.w3.org/2000/svg"><rect x=".25" y=".25" width="27.5" height="19.5" rx="1.75" fill="#fff" stroke="#F5F5F5" stroke-width=".5"/><mask id="a" style="mask-type:alpha" maskUnits="userSpaceOnUse" x="0" y="0" width="28" height="20"><rect x=".25" y=".25" width="27.5" height="19.5" rx="1.75" fill="#fff" stroke="#fff" stroke-width=".5"/></mask><g mask="url(#a)"><path fill-rule="evenodd" clip-rule="evenodd" d="M0 6.667h28V0H0v6.667Z" fill="#38BB56"/><path fill-rule="evenodd" clip-rule="evenodd" d="M0 20h28v-6.667H0V20Z" fill="#DE1B27"/><path fill-rule="evenodd" clip-rule="evenodd" d="M1.667 5.333a.333.333 0 0 0-.334.334v.666c0 .184.15.334.334.334h.666c.184 0 .334-.15.334-.334v-.666a.333.333 0 0 0-.334-.334h-.666Zm2.666 0A.333.333 0 0 0 4 5.667v.666c0 .184.15.334.333.334H5c.184 0 .333-.15.333-.334v-.666A.333.333 0 0 0 5 5.333h-.667Zm2.334.334c0-.184.149-.334.333-.334h.667c.184 0 .333.15.333.334v.666c0 .184-.15.334-.333.334H7a.333.333 0 0 1-.333-.334v-.666Zm3-.334a.333.333 0 0 0-.334.334v.666c0 .184.15.334.334.334h.666c.184 0 .334-.15.334-.334v-.666a.333.333 0 0 0-.334-.334h-.666ZM12 5.667c0-.184.15-.334.333-.334H13c.184 0 .333.15.333.334v.666a.334.334 0 0 1-.333.334h-.667A.333.333 0 0 1 12 6.333v-.666Zm3-.334a.333.333 0 0 0-.333.334v.666c0 .184.149.334.333.334h.667c.184 0 .333-.15.333-.334v-.666a.333.333 0 0 0-.333-.334H15Zm2.333.334c0-.184.15-.334.334-.334h.666c.184 0 .334.15.334.334v.666c0 .184-.15.334-.334.334h-.666a.333.333 0 0 1-.334-.334v-.666Zm3-.334a.333.333 0 0 0-.333.334v.666c0 .184.15.334.333.334H21c.184 0 .333-.15.333-.334v-.666A.333.333 0 0 0 21 5.333h-.667Zm2.334.334c0-.184.149-.334.333-.334h.667c.184 0 .333.15.333.334v.666c0 .184-.15.334-.333.334H23a.333.333 0 0 1-.333-.334v-.666Zm3-.334a.333.333 0 0 0-.334.334v.666c0 .184.15.334.334.334h.666c.184 0 .334-.15.334-.334v-.666a.333.333 0 0 0-.334-.334h-.666ZM1.333 13.667c0-.184.15-.334.334-.334h.666c.184 0 .334.15.334.334v.666c0 .184-.15.334-.334.334h-.666a.333.333 0 0 1-.334-.334v-.666Zm3-.334a.333.333 0 0 0-.333.334v.666c0 .184.15.334.333.334H5c.184 0 .333-.15.333-.334v-.666A.333.333 0 0 0 5 13.333h-.667Zm2.334.334c0-.184.149-.334.333-.334h.667c.184 0 .333.15.333.334v.666c0 .184-.15.334-.333.334H7a.333.333 0 0 1-.333-.334v-.666Zm3-.334a.333.333 0 0 0-.334.334v.666c0 .184.15.334.334.334h.666c.184 0 .334-.15.334-.334v-.666a.333.333 0 0 0-.334-.334h-.666Zm2.333.334c0-.184.15-.334.333-.334H13c.184 0 .333.15.333.334v.666a.334.334 0 0 1-.333.334h-.667a.333.333 0 0 1-.333-.334v-.666Zm3-.334a.333.333 0 0 0-.333.334v.666c0 .184.149.334.333.334h.667c.184 0 .333-.15.333-.334v-.666a.333.333 0 0 0-.333-.334H15Zm2.333.334c0-.184.15-.334.334-.334h.666c.184 0 .334.15.334.334v.666c0 .184-.15.334-.334.334h-.666a.333.333 0 0 1-.334-.334v-.666Zm3-.334a.333.333 0 0 0-.333.334v.666c0 .184.15.334.333.334H21c.184 0 .333-.15.333-.334v-.666a.333.333 0 0 0-.333-.334h-.667Zm2.334.334c0-.184.149-.334.333-.334h.667c.184 0 .333.15.333.334v.666c0 .184-.15.334-.333.334H23a.333.333 0 0 1-.333-.334v-.666Zm3-.334a.333.333 0 0 0-.334.334v.666c0 .184.15.334.334.334h.666c.184 0 .334-.15.334-.334v-.666a.333.333 0 0 0-.334-.334h-.666Z" fill="#fff" fill-opacity=".5"/><mask id="b" fill="#fff"><path fill-rule="evenodd" clip-rule="evenodd" d="M12.653 8.521A2 2 0 0 0 14 12a2 2 0 0 0 1.37-3.458"/></mask><path d="M12.204 8.028a2.662 2.662 0 0 0-.87 1.972h1.333c0-.39.167-.741.435-.986l-.898-.986ZM11.335 10A2.667 2.667 0 0 0 14 12.667v-1.334A1.333 1.333 0 0 1 12.667 10h-1.334ZM14 12.667A2.667 2.667 0 0 0 16.667 10h-1.334c0 .736-.597 1.333-1.333 1.333v1.334ZM16.667 10c0-.766-.325-1.458-.842-1.944l-.912.972c.26.244.42.589.42.972h1.334Z" fill="#D80915" mask="url(#b)"/><rect x="13.333" y="9.333" width="1.333" height="2.667" rx=".667" fill="#D80915"/></g></svg>