<svg width="28" height="20" fill="none" xmlns="http://www.w3.org/2000/svg"><rect width="28" height="20" rx="2" fill="#fff"/><mask id="a" style="mask-type:alpha" maskUnits="userSpaceOnUse" x="0" y="0" width="28" height="20"><rect width="28" height="20" rx="2" fill="#fff"/></mask><g mask="url(#a)"><path fill="#19BFBF" d="M0 0h28v20H0z"/><path fill-rule="evenodd" clip-rule="evenodd" d="M10 16.041c0-.027.003-.054.01-.08l.657-2.628.643-2.572a.333.333 0 0 0-.007-.186l-.593-1.777a.333.333 0 0 0-.167-.193l-1.025-.513a.333.333 0 0 1-.185-.298V5.412c0-.052.012-.103.035-.149L10 4l.575-1.15a.333.333 0 0 1 .298-.183h3.46c.184 0 .334.149.334.333v.667c0 .184.149.333.333.333h.667c.184 0 .333.15.333.333v.794c0 .127.071.242.184.298l2.298 1.15a.333.333 0 0 1 .185.298V7.92a.334.334 0 0 1-.036.15l-.591 1.183a.334.334 0 0 1-.114.128l-1.852 1.236a.333.333 0 0 0-.114.128l-1.254 2.508a.332.332 0 0 1-.113.128l-1.853 1.236a.332.332 0 0 0-.113.128l-1.202 2.403a.333.333 0 0 1-.298.184h-.794A.333.333 0 0 1 10 17v-.959Z" fill="#fff"/></g></svg>