<svg width="28" height="20" fill="none" xmlns="http://www.w3.org/2000/svg"><rect x=".25" y=".25" width="27.5" height="19.5" rx="1.75" fill="#fff" stroke="#F5F5F5" stroke-width=".5"/><mask id="a" style="mask-type:alpha" maskUnits="userSpaceOnUse" x="0" y="0" width="28" height="20"><rect x=".25" y=".25" width="27.5" height="19.5" rx="1.75" fill="#fff" stroke="#fff" stroke-width=".5"/></mask><g mask="url(#a)" fill-rule="evenodd" clip-rule="evenodd"><path d="M0 20h28v-6.667H0V20Z" fill="#199E56"/><path d="M0 6.667h28V0H0v6.667Z" fill="#262626"/><path d="m0 0 13.333 10L0 20V0Z" fill="#E6223A"/><path d="m4.667 11-.868.802.086-1.178-1.168-.179.975-.668-.589-1.024 1.13.346L4.667 8 5.1 9.099l1.13-.346-.59 1.024.976.668-1.169.178.086 1.179L4.667 11Z" fill="#fff"/></g></svg>