<svg width="28" height="20" fill="none" xmlns="http://www.w3.org/2000/svg"><rect x=".25" y=".25" width="27.5" height="19.5" rx="1.75" fill="#fff" stroke="#F5F5F5" stroke-width=".5"/><mask id="a" style="mask-type:alpha" maskUnits="userSpaceOnUse" x="0" y="0" width="28" height="20"><rect x=".25" y=".25" width="27.5" height="19.5" rx="1.75" fill="#fff" stroke="#fff" stroke-width=".5"/></mask><g mask="url(#a)"><path fill="#E3243B" d="m-6.311-2.583 1.53-2.185 40.41 28.296-1.53 2.185z"/><path fill="#E3243B" d="M35.63-2.583 34.1-4.767-6.311 23.529l1.53 2.184z"/><path fill-rule="evenodd" clip-rule="evenodd" d="M15.74 2.667h-2.147l.087-.052-.987-.57 1.276.143-.18-.855.878.713.877-.713-.18.855 1.276-.142-.987.57.088.05Z" fill="#FAEF32"/><path fill-rule="evenodd" clip-rule="evenodd" d="M12.667 5.167V4c0-.736.597-1.333 1.333-1.333h1.333c.737 0 1.334.597 1.334 1.333v1.167c0 1.785-2 2.5-2 2.5s-2-.715-2-2.5Z" fill="#E3243B"/><mask id="b" style="mask-type:alpha" maskUnits="userSpaceOnUse" x="12" y="2" width="5" height="6"><path fill-rule="evenodd" clip-rule="evenodd" d="M12.667 5.167V4c0-.736.597-1.333 1.333-1.333h1.333c.737 0 1.334.597 1.334 1.333v1.167c0 1.785-2 2.5-2 2.5s-2-.715-2-2.5Z" fill="#fff"/></mask><g mask="url(#b)" fill="#FAEF32"><rect x="14.333" y="6.667" width=".667" height=".667" rx=".333"/><rect x="13.333" y="5.333" width="2.667" height=".667" rx=".333"/><rect x="13.333" y="4" width="2.667" height=".667" rx=".333"/></g></g></svg>