<svg width="28" height="20" fill="none" xmlns="http://www.w3.org/2000/svg"><rect x=".25" y=".25" width="27.5" height="19.5" rx="1.75" fill="#fff" stroke="#F5F5F5" stroke-width=".5"/><mask id="a" style="mask-type:alpha" maskUnits="userSpaceOnUse" x="0" y="0" width="28" height="20"><rect x=".25" y=".25" width="27.5" height="19.5" rx="1.75" fill="#fff" stroke="#fff" stroke-width=".5"/></mask><g mask="url(#a)"><path fill-rule="evenodd" clip-rule="evenodd" d="M0 13.333h28V6.667H0v6.666Z" fill="#0C47B7"/><path fill-rule="evenodd" clip-rule="evenodd" d="M0 20h28v-6.667H0V20Z" fill="#E53B35"/><path d="M13.05 3.333h-6.1a2 2 0 0 0-2 1.923l-.26 6.74a2 2 0 0 0 .698 1.596l2.876 2.465a2.667 2.667 0 0 0 3.47 0l2.876-2.465a2 2 0 0 0 .697-1.595l-.26-6.74a2 2 0 0 0-1.998-1.924Z" fill="#F73744" stroke="#fff" stroke-width="1.333"/><mask id="b" style="mask-type:alpha" maskUnits="userSpaceOnUse" x="4" y="2" width="12" height="16"><path d="M13.05 3.333h-6.1a2 2 0 0 0-2 1.923l-.26 6.74a2 2 0 0 0 .698 1.596l2.876 2.465a2.667 2.667 0 0 0 3.47 0l2.876-2.465a2 2 0 0 0 .697-1.595l-.26-6.74a2 2 0 0 0-1.998-1.924Z" fill="#fff" stroke="#fff" stroke-width="1.333"/></mask><g mask="url(#b)" fill-rule="evenodd" clip-rule="evenodd"><path d="M9.334 11A.333.333 0 0 0 9 10.667H7.667a.333.333 0 0 1-.333-.334v-.666c0-.184.149-.334.333-.334H9A.334.334 0 0 0 9.334 9v-.667A.333.333 0 0 0 9 8h-.666A.333.333 0 0 1 8 7.667V7c0-.184.15-.333.334-.333H9c.184 0 .334-.15.334-.334v-.666c0-.184.149-.334.333-.334h.667c.184 0 .333.15.333.334v.666c0 .184.15.334.333.334h.667c.184 0 .333.149.333.333v.667a.333.333 0 0 1-.333.333H11a.333.333 0 0 0-.333.333V9c0 .184.15.333.333.333h1.334c.184 0 .333.15.333.334v.666c0 .184-.15.334-.333.334H11a.333.333 0 0 0-.333.333v2c0 .184-.15.333-.333.333h-.667A.333.333 0 0 1 9.334 13v-2Z" fill="#fff"/><path d="M11.203 13.425a1.333 1.333 0 0 0-2.407 0C7.176 13.681 6 14.438 6 15.333c0 1.105 1.79 2 4 2s4-.895 4-2c0-.895-1.175-1.652-2.797-1.908Z" fill="#1251A1"/></g></g></svg>