<svg width="28" height="20" fill="none" xmlns="http://www.w3.org/2000/svg"><rect x=".25" y=".25" width="27.5" height="19.5" rx="1.75" fill="#fff" stroke="#F5F5F5" stroke-width=".5"/><mask id="a" style="mask-type:alpha" maskUnits="userSpaceOnUse" x="0" y="0" width="28" height="20"><rect x=".25" y=".25" width="27.5" height="19.5" rx="1.75" fill="#fff" stroke="#fff" stroke-width=".5"/></mask><g mask="url(#a)"><path fill-rule="evenodd" clip-rule="evenodd" d="M0 8h12V0H0v8Zm16 12h12v-8H16v8Z" fill="#083D7A"/><path fill-rule="evenodd" clip-rule="evenodd" d="M0 20h12v-8H0v8ZM16 8h12V0H16v8Z" fill="#DF1E35"/><mask id="b" fill="#fff"><path fill-rule="evenodd" clip-rule="evenodd" d="M12.586 8.586a2 2 0 1 0 2.828 0"/></mask><path d="M12.114 8.114a2.667 2.667 0 0 0 0 3.772l.943-.943a1.333 1.333 0 0 1 0-1.886l-.943-.943Zm0 3.772a2.667 2.667 0 0 0 3.772 0l-.943-.943c-.52.52-1.365.52-1.886 0l-.943.943Zm3.772 0a2.667 2.667 0 0 0 0-3.772l-.943.943c.52.52.52 1.365 0 1.886l.943.943Z" fill="#0F6D1A" mask="url(#b)"/><path fill-rule="evenodd" clip-rule="evenodd" d="M14 10.667a.667.667 0 1 0 0-1.334.667.667 0 0 0 0 1.334Z" fill="#042F60"/></g></svg>