<svg width="28" height="20" fill="none" xmlns="http://www.w3.org/2000/svg"><rect x=".25" y=".25" width="27.5" height="19.5" rx="1.75" fill="#fff" stroke="#F5F5F5" stroke-width=".5"/><mask id="a" style="mask-type:alpha" maskUnits="userSpaceOnUse" x="0" y="0" width="28" height="20"><rect x=".25" y=".25" width="27.5" height="19.5" rx="1.75" fill="#fff" stroke="#fff" stroke-width=".5"/></mask><g mask="url(#a)" fill-rule="evenodd" clip-rule="evenodd"><path d="M0 4h28V0H0v4Zm0 8h28V8H0v4Zm0 8h28v-4H0v4Z" fill="#0B389F"/><path d="m0 0 13.333 10L0 20V0Z" fill="#E12A43"/><path d="m4.667 11.023-1.568 1.134.595-1.841-1.563-1.14 1.935-.003.6-1.84.602 1.84 1.935.003-1.564 1.14.595 1.841-1.567-1.134Z" fill="#fff"/></g></svg>