<svg width="28" height="20" viewBox="0 0 28 20" fill="none" xmlns="http://www.w3.org/2000/svg">
<g clip-path="url(#clip0_1310_8519)">
<path d="M28.0002 3.05176e-05H0.000183105V20H28.0002V3.05176e-05Z" fill="url(#paint0_linear_1310_8519)"/>
<path fill-rule="evenodd" clip-rule="evenodd" d="M7.89343 7.74981C7.89343 7.56399 7.9976 7.30919 8.13411 7.17267L8.31942 6.98737C8.45234 6.85445 8.45593 6.64252 8.31942 6.50601L8.13411 6.3207C8.00119 6.18778 7.89343 5.93733 7.89343 5.74357V5.08315C7.89343 4.89733 8.03612 4.74669 8.22989 4.74669H8.89031C9.07613 4.74669 9.22677 4.88938 9.22677 5.08315V5.74357C9.22677 5.92939 9.28829 5.95698 9.38139 5.77078L9.73881 5.05593C9.82421 4.88514 10.0504 4.74669 10.2237 4.74669H11.5632C11.7456 4.74669 11.8934 4.90131 11.8934 5.08002C11.8934 5.26412 11.7507 5.41336 11.557 5.41336H10.8966C10.7107 5.41336 10.5601 5.56798 10.5601 5.74669C10.5601 5.93078 10.7028 6.08002 10.8966 6.08002H11.557C11.7428 6.08002 11.8934 6.22339 11.8934 6.40701V8.4197C11.8934 8.60029 11.7507 8.74669 11.557 8.74669H10.8966C10.7107 8.74669 10.5601 8.604 10.5601 8.41023V7.74981C10.5601 7.56399 10.7147 7.41336 10.8934 7.41336C11.0775 7.41336 11.2268 7.25873 11.2268 7.08002C11.2268 6.89593 11.0841 6.74669 10.8903 6.74669H10.2299C10.0441 6.74669 9.89343 6.90363 9.89343 7.07695V8.41643C9.89343 8.59883 9.73881 8.74669 9.5601 8.74669C9.376 8.74669 9.22677 8.604 9.22677 8.41023V7.74981C9.22677 7.56399 9.07214 7.41336 8.89343 7.41336C8.70934 7.41336 8.5601 7.55605 8.5601 7.74981V8.41023C8.5601 8.59605 8.40548 8.74669 8.22677 8.74669C8.04267 8.74669 7.89343 8.604 7.89343 8.41023V7.74981Z" fill="url(#paint1_linear_1310_8519)"/>
<path d="M28.0002 -0.0035553H0.000183105V19.9964H28.0002V-0.0035553Z" fill="url(#paint2_linear_1310_8519)"/>
<path fill-rule="evenodd" clip-rule="evenodd" d="M0.000183105 -0.0035553H28.0002L0.000183105 19.9964V-0.0035553Z" fill="url(#paint3_linear_1310_8519)"/>
<path fill-rule="evenodd" clip-rule="evenodd" d="M28.0002 -0.0035553L0.000183105 19.9964H28.0002V-0.0035553Z" fill="url(#paint4_linear_1310_8519)"/>
<path d="M29.5922 -1.51235L-3.02368 19.2558L-1.59139 21.5052L31.0245 0.737016L29.5922 -1.51235Z" fill="url(#paint5_linear_1310_8519)"/>
<path fill-rule="evenodd" clip-rule="evenodd" d="M3.00001 3.82977L2.02037 4.3448L2.20746 3.25395L1.41492 2.48141L2.51019 2.32226L3.00001 1.32977L3.48983 2.32226L4.58511 2.48141L3.79256 3.25395L3.97965 4.3448L3.00001 3.82977ZM9.66668 3.82977L8.68704 4.3448L8.87413 3.25395L8.08158 2.48141L9.17686 2.32226L9.66668 1.32977L10.1565 2.32226L11.2518 2.48141L10.4592 3.25395L10.6463 4.3448L9.66668 3.82977ZM9.66668 7.82977L8.68704 8.3448L8.87413 7.25395L8.08158 6.48141L9.17686 6.32226L9.66668 5.32977L10.1565 6.32226L11.2518 6.48141L10.4592 7.25395L10.6463 8.3448L9.66668 7.82977ZM3.00001 7.82977L2.02037 8.3448L2.20746 7.25395L1.41492 6.48141L2.51019 6.32226L3.00001 5.32977L3.48983 6.32226L4.58511 6.48141L3.79256 7.25395L3.97965 8.3448L3.00001 7.82977ZM6.33334 5.82977L5.3537 6.3448L5.5408 5.25395L4.74825 4.48141L5.84352 4.32226L6.33334 3.32977L6.82317 4.32226L7.91844 4.48141L7.12589 5.25395L7.31299 6.3448L6.33334 5.82977Z" fill="white"/>
</g>
<defs>
<linearGradient id="paint0_linear_1310_8519" x1="14.0002" y1="3.05176e-05" x2="14.0002" y2="20" gradientUnits="userSpaceOnUse">
<stop stop-color="white"/>
<stop offset="1" stop-color="#F0F0F0"/>
</linearGradient>
<linearGradient id="paint1_linear_1310_8519" x1="9.89343" y1="4.74669" x2="9.89343" y2="8.74669" gradientUnits="userSpaceOnUse">
<stop stop-color="white"/>
<stop offset="1" stop-color="#F0F0F0"/>
</linearGradient>
<linearGradient id="paint2_linear_1310_8519" x1="14.0002" y1="-0.0035553" x2="14.0002" y2="19.9964" gradientUnits="userSpaceOnUse">
<stop stop-color="#1DBE4F"/>
<stop offset="1" stop-color="#159B3F"/>
</linearGradient>
<linearGradient id="paint3_linear_1310_8519" x1="14.0002" y1="-0.0035553" x2="14.0002" y2="19.9964" gradientUnits="userSpaceOnUse">
<stop stop-color="#0660D4"/>
<stop offset="1" stop-color="#0051BB"/>
</linearGradient>
<linearGradient id="paint4_linear_1310_8519" x1="14.0002" y1="-0.0035553" x2="14.0002" y2="19.9964" gradientUnits="userSpaceOnUse">
<stop stop-color="#2C7442"/>
<stop offset="1" stop-color="#225B34"/>
</linearGradient>
<linearGradient id="paint5_linear_1310_8519" x1="13.2842" y1="8.87174" x2="14.7165" y2="11.1211" gradientUnits="userSpaceOnUse">
<stop stop-color="#FFD646"/>
<stop offset="1" stop-color="#FED02F"/>
</linearGradient>
<clipPath id="clip0_1310_8519">
<rect width="28" height="20" rx="2" fill="white"/>
</clipPath>
</defs>
</svg>
