<svg width="28" height="20" fill="none" xmlns="http://www.w3.org/2000/svg"><rect width="28" height="20" rx="2" fill="#fff"/><mask id="a" style="mask-type:alpha" maskUnits="userSpaceOnUse" x="0" y="0" width="28" height="20"><rect width="28" height="20" rx="2" fill="#fff"/></mask><g mask="url(#a)" clip-rule="evenodd"><path fill-rule="evenodd" d="M0 17.333h28V2.667H0v14.666Z" fill="#094995"/><path fill-rule="evenodd" d="M0 2.667h28V0H0v2.667ZM0 20h28v-2.667H0V20Z" fill="#D5182F"/><path fill-rule="evenodd" d="M14 16a6 6 0 1 0 0-12 6 6 0 0 0 0 12Z" fill="#fff"/><path d="M14 14a4 4 0 1 0 0-8 4 4 0 0 0 0 8Z" stroke="#118014" stroke-width="1.333" stroke-linecap="round" stroke-dasharray="0.67 2"/></g></svg>