<svg width="28" height="20" viewBox="0 0 28 20" fill="none" xmlns="http://www.w3.org/2000/svg">
<rect width="28" height="20" rx="2" fill="white"/>
<mask id="mask0_503_3062" style="mask-type:alpha" maskUnits="userSpaceOnUse" x="0" y="0" width="28" height="20">
<rect width="28" height="20" rx="2" fill="white"/>
</mask>
<g mask="url(#mask0_503_3062)">
<path fill-rule="evenodd" clip-rule="evenodd" d="M28 0V10H0V0H28Z" fill="#29C53F"/>
<path fill-rule="evenodd" clip-rule="evenodd" d="M28 10V20.6667H0V10H28Z" fill="#579DED"/>
<path fill-rule="evenodd" clip-rule="evenodd" d="M0 20L28 10L0 0V20Z" fill="#F42D56"/>
<path d="M12.6667 9.99999C12.6667 12.2091 10.8758 14 8.66667 14C6.45753 14 4.66667 12.2091 4.66667 9.99999C4.66667 7.79086 6.45753 5.99999 8.66667 5.99999C10.8758 5.99999 12.6667 7.79086 12.6667 9.99999Z" stroke="#FFC63C" stroke-width="1.33333"/>
<path fill-rule="evenodd" clip-rule="evenodd" d="M8.00001 9.33333C8.3682 9.33333 8.66668 9.03486 8.66668 8.66667C8.66668 8.29848 8.3682 8 8.00001 8C7.63182 8 7.33334 8.29848 7.33334 8.66667C7.33334 9.03486 7.63182 9.33333 8.00001 9.33333Z" fill="#FFC63C"/>
<path fill-rule="evenodd" clip-rule="evenodd" d="M9.33332 10C9.70151 10 9.99999 9.70153 9.99999 9.33334C9.99999 8.96515 9.70151 8.66667 9.33332 8.66667C8.96513 8.66667 8.66666 8.96515 8.66666 9.33334C8.66666 9.70153 8.96513 10 9.33332 10Z" fill="#FFC63C"/>
<path fill-rule="evenodd" clip-rule="evenodd" d="M8.66667 8.66666C9.03486 8.66666 9.33333 8.36818 9.33333 7.99999C9.33333 7.63181 9.03486 7.33333 8.66667 7.33333C8.29848 7.33333 8 7.63181 8 7.99999C8 8.36818 8.29848 8.66666 8.66667 8.66666Z" fill="#FFC63C"/>
<path fill-rule="evenodd" clip-rule="evenodd" d="M8.00001 10.6667C8.3682 10.6667 8.66668 10.3682 8.66668 9.99999C8.66668 9.63181 8.3682 9.33333 8.00001 9.33333C7.63182 9.33333 7.33334 9.63181 7.33334 9.99999C7.33334 10.3682 7.63182 10.6667 8.00001 10.6667Z" fill="#FFC63C"/>
<path fill-rule="evenodd" clip-rule="evenodd" d="M9.33332 11.3333C9.70151 11.3333 9.99999 11.0349 9.99999 10.6667C9.99999 10.2985 9.70151 10 9.33332 10C8.96513 10 8.66666 10.2985 8.66666 10.6667C8.66666 11.0349 8.96513 11.3333 9.33332 11.3333Z" fill="#FFC63C"/>
<path fill-rule="evenodd" clip-rule="evenodd" d="M8.00001 12C8.3682 12 8.66668 11.7015 8.66668 11.3333C8.66668 10.9651 8.3682 10.6667 8.00001 10.6667C7.63182 10.6667 7.33334 10.9651 7.33334 11.3333C7.33334 11.7015 7.63182 12 8.00001 12Z" fill="#FFC63C"/>
<path fill-rule="evenodd" clip-rule="evenodd" d="M9.33332 12.6667C9.70151 12.6667 9.99999 12.3682 9.99999 12C9.99999 11.6318 9.70151 11.3333 9.33332 11.3333C8.96513 11.3333 8.66666 11.6318 8.66666 12C8.66666 12.3682 8.96513 12.6667 9.33332 12.6667Z" fill="#FFC63C"/>
</g>
</svg>
