<svg width="28" height="20" fill="none" xmlns="http://www.w3.org/2000/svg"><rect x=".25" y=".25" width="27.5" height="19.5" rx="1.75" fill="#fff" stroke="#F5F5F5" stroke-width=".5"/><mask id="a" style="mask-type:alpha" maskUnits="userSpaceOnUse" x="0" y="0" width="28" height="20"><rect x=".25" y=".25" width="27.5" height="19.5" rx="1.75" fill="#fff" stroke="#fff" stroke-width=".5"/></mask><g mask="url(#a)" fill-rule="evenodd" clip-rule="evenodd"><path d="M0 20h28v-6.667H0V20Z" fill="#EC3938"/><path d="M0 6.667h28V0H0v6.667Z" fill="#51B422"/><path d="M13.607 11.715a.168.168 0 0 0 .047-.115l.011-1.973a.292.292 0 0 0-.292-.294.292.292 0 0 1-.207-.499l.598-.598c.13-.13.341-.13.472 0l.597.597c.185.185.054.5-.207.5a.293.293 0 0 0-.293.293v1.972c0 .044.018.086.05.117a.167.167 0 0 1-.119.285h-.536a.168.168 0 0 1-.121-.285Z" fill="#159940"/><path d="m0 0 9.333 10L0 20V0Z" fill="#258DE7"/></g></svg>