<svg width="28" height="20" viewBox="0 0 28 20" fill="none" xmlns="http://www.w3.org/2000/svg">
<g clip-path="url(#clip0_503_2778)">
<rect x="0.25" y="0.25" width="27.5" height="19.5" rx="1.75" fill="white" stroke="#F5F5F5" stroke-width="0.5"/>
<mask id="mask0_503_2778" style="mask-type:alpha" maskUnits="userSpaceOnUse" x="0" y="0" width="28" height="20">
<rect x="0.25" y="0.25" width="27.5" height="19.5" rx="1.75" fill="white" stroke="white" stroke-width="0.5"/>
</mask>
<g mask="url(#mask0_503_2778)">
<path fill-rule="evenodd" clip-rule="evenodd" d="M28 9.33333H13.3334V0H28V9.33333Z" fill="#E52448"/>
<path fill-rule="evenodd" clip-rule="evenodd" d="M13.3333 20H0V9.33333H13.3333V20Z" fill="#1367AE"/>
<path fill-rule="evenodd" clip-rule="evenodd" d="M6.66667 5.76L5.09924 6.82405L5.62684 5.00453L4.13052 3.84262L6.02402 3.78214L6.66667 2L7.30931 3.78214L9.20282 3.84262L7.70649 5.00453L8.23409 6.82405L6.66667 5.76Z" fill="#1367AE"/>
<path fill-rule="evenodd" clip-rule="evenodd" d="M20.6667 15.76L19.0992 16.824L19.6268 15.0045L18.1305 13.8426L20.024 13.7821L20.6667 12L21.3093 13.7821L23.2028 13.8426L21.7065 15.0045L22.2341 16.824L20.6667 15.76Z" fill="#E52448"/>
</g>
</g>
<defs>
<clipPath id="clip0_503_2778">
<rect width="28" height="20" rx="2" fill="white"/>
</clipPath>
</defs>
</svg>
