<svg width="28" height="20" fill="none" xmlns="http://www.w3.org/2000/svg"><rect width="28" height="20" rx="2" fill="#fff"/><mask id="a" style="mask-type:alpha" maskUnits="userSpaceOnUse" x="0" y="0" width="28" height="20"><rect width="28" height="20" rx="2" fill="#fff"/></mask><g mask="url(#a)"><path fill-rule="evenodd" clip-rule="evenodd" d="M0 14.667h28V9.333H0v5.334Z" fill="#0748AE"/><path fill-rule="evenodd" clip-rule="evenodd" d="M0 20h28v-5.333H0V20Z" fill="#DE2035"/><path fill-rule="evenodd" clip-rule="evenodd" d="M0 9.333h28V0H0v9.333Z" fill="#FFD935"/><path fill-rule="evenodd" clip-rule="evenodd" d="M12.4 8a2.667 2.667 0 1 0 3.2 0l-.933 2.8h-1.334L12.4 8Z" fill="#FFD935"/><path fill-rule="evenodd" clip-rule="evenodd" d="m14 7.333.667 3.334h-1.334L14 7.333Z" fill="#5FC0DC"/><path opacity=".66" d="m17.333 6-2-.667L14 6.667l-1.333-1.334-2 .667" stroke="#3F2821" stroke-width=".667" stroke-linecap="round" stroke-linejoin="round"/></g></svg>