<svg width="28" height="20" viewBox="0 0 28 20" fill="none" xmlns="http://www.w3.org/2000/svg">
<g clip-path="url(#clip0_1310_7988)">
<path d="M28.0002 0H0.000183105V20H28.0002V0Z" fill="url(#paint0_linear_1310_7988)"/>
<path d="M28.0002 16H0.000183105V20H28.0002V16Z" fill="url(#paint1_linear_1310_7988)"/>
<path d="M28.0002 0H0.000183105V16H28.0002V0Z" fill="url(#paint2_linear_1310_7988)"/>
<path fill-rule="evenodd" clip-rule="evenodd" d="M4.44416 14.1387H4.4455C4.47572 14.1529 4.49927 14.1734 4.51616 14.2C4.53305 14.2267 4.5415 14.256 4.5415 14.288C4.5415 14.32 4.53172 14.3511 4.51216 14.3814C4.39127 14.5538 4.22328 14.64 4.00816 14.64C3.85705 14.64 3.73083 14.5983 3.6295 14.5147C3.52816 14.4311 3.4535 14.3187 3.4055 14.1774C3.3575 14.036 3.3335 13.8791 3.3335 13.7067C3.3335 13.536 3.3575 13.38 3.4055 13.2387C3.4535 13.0974 3.52816 12.9845 3.6295 12.9C3.73083 12.8156 3.85705 12.7734 4.00816 12.7734C4.21083 12.7734 4.37172 12.8516 4.49083 13.008C4.51394 13.0365 4.5255 13.0694 4.5255 13.1067C4.5255 13.1369 4.51839 13.1645 4.50416 13.1894C4.48994 13.2143 4.4695 13.2347 4.44283 13.2507L4.4375 13.2534C4.41438 13.2676 4.38683 13.2747 4.35483 13.2747C4.3015 13.2747 4.25883 13.2543 4.22683 13.2134C4.16638 13.1369 4.0935 13.0987 4.00816 13.0987C3.90505 13.0987 3.82283 13.1534 3.7615 13.2627C3.70016 13.372 3.6695 13.52 3.6695 13.7067C3.6695 13.8969 3.70016 14.0462 3.7615 14.1547C3.82283 14.2631 3.90505 14.3174 4.00816 14.3174C4.10061 14.3174 4.17705 14.2756 4.2375 14.192C4.2535 14.1689 4.2735 14.1511 4.2975 14.1387C4.3215 14.1263 4.34683 14.12 4.3735 14.12C4.39839 14.12 4.4215 14.1254 4.44283 14.136C4.44283 14.1378 4.44327 14.1387 4.44416 14.1387ZM5.60016 14.64C5.69261 14.64 5.73883 14.6 5.73883 14.52C5.73883 14.5005 5.73616 14.4791 5.73083 14.456L5.36016 12.9067C5.35127 12.8711 5.33172 12.84 5.3015 12.8134C5.27127 12.7867 5.2375 12.7734 5.20016 12.7734H5.06416C5.02861 12.7734 4.99572 12.7867 4.9655 12.8134C4.93527 12.84 4.91572 12.8711 4.90683 12.9067L4.53883 14.4507C4.53172 14.4774 4.52816 14.5023 4.52816 14.5254C4.52816 14.5716 4.54061 14.6023 4.5655 14.6174C4.59039 14.6325 4.62238 14.64 4.6615 14.64H4.7175C4.75839 14.64 4.79127 14.6311 4.81616 14.6134C4.84105 14.5956 4.86061 14.5627 4.87483 14.5147L4.91483 14.368C4.91661 14.3609 4.92194 14.3423 4.93083 14.312C4.93972 14.2818 4.9535 14.2591 4.97216 14.244C4.99083 14.2289 5.01527 14.2214 5.0455 14.2214H5.2135C5.25794 14.2214 5.28772 14.2334 5.30283 14.2574C5.31794 14.2814 5.33083 14.3183 5.3415 14.368L5.3815 14.5147C5.39572 14.5627 5.41527 14.5956 5.44016 14.6134C5.46505 14.6311 5.49883 14.64 5.5415 14.64H5.60016ZM5.22683 13.7574C5.23394 13.7929 5.2375 13.8196 5.2375 13.8374C5.2375 13.8889 5.20994 13.9147 5.15483 13.9147H5.11216C5.05527 13.9147 5.02683 13.8854 5.02683 13.8267C5.02683 13.8018 5.0295 13.7778 5.03483 13.7547L5.0695 13.5627L5.1095 13.3654C5.11127 13.3583 5.11439 13.352 5.11883 13.3467C5.12327 13.3414 5.12727 13.3387 5.13083 13.3387C5.14327 13.3387 5.15039 13.3494 5.15216 13.3707L5.1895 13.5627L5.22683 13.7574ZM6.7415 14.64C6.78061 14.64 6.81305 14.6271 6.83883 14.6014C6.86461 14.5756 6.8775 14.544 6.8775 14.5067V14.4427C6.8775 14.4036 6.86461 14.3716 6.83883 14.3467C6.81305 14.3218 6.78061 14.3094 6.7415 14.3094H6.36283C6.32372 14.3094 6.29127 14.296 6.2655 14.2694C6.23972 14.2427 6.22683 14.2107 6.22683 14.1734V12.9067C6.22683 12.8694 6.21394 12.8378 6.18816 12.812C6.16238 12.7863 6.13083 12.7734 6.0935 12.7734H6.01083C5.97527 12.7734 5.94416 12.7863 5.9175 12.812C5.89083 12.8378 5.8775 12.8694 5.8775 12.9067V14.5067C5.8775 14.544 5.89083 14.5756 5.9175 14.6014C5.94416 14.6271 5.97527 14.64 6.01083 14.64H6.7415ZM7.23483 14.64C7.27216 14.64 7.30416 14.6271 7.33083 14.6014C7.3575 14.5756 7.37083 14.544 7.37083 14.5067V12.904C7.37083 12.8685 7.3575 12.8378 7.33083 12.812C7.30416 12.7863 7.27216 12.7734 7.23483 12.7734H7.15483C7.11927 12.7734 7.08816 12.7863 7.0615 12.812C7.03483 12.8378 7.0215 12.8685 7.0215 12.904V14.5067C7.0215 14.544 7.03483 14.5756 7.0615 14.6014C7.08816 14.6271 7.11927 14.64 7.15483 14.64H7.23483ZM7.88816 14.64C7.9255 14.64 7.9575 14.6271 7.98416 14.6014C8.01083 14.5756 8.02416 14.544 8.02416 14.5067V13.9707C8.02416 13.9334 8.03705 13.9014 8.06283 13.8747C8.08861 13.848 8.12016 13.8347 8.1575 13.8347H8.43216C8.46772 13.8347 8.49838 13.8218 8.52416 13.796C8.54994 13.7703 8.56283 13.7396 8.56283 13.704V13.6347C8.56283 13.5991 8.54994 13.568 8.52416 13.5414C8.49838 13.5147 8.46772 13.5014 8.43216 13.5014H8.1575C8.11838 13.5014 8.08639 13.4885 8.0615 13.4627C8.03661 13.4369 8.02416 13.4054 8.02416 13.368V13.24C8.02416 13.2027 8.03661 13.1711 8.0615 13.1454C8.08639 13.1196 8.11838 13.1067 8.1575 13.1067H8.5335C8.57083 13.1067 8.60283 13.0938 8.6295 13.068C8.65616 13.0422 8.6695 13.0107 8.6695 12.9734V12.9067C8.6695 12.8711 8.65616 12.84 8.6295 12.8134C8.60283 12.7867 8.57083 12.7734 8.5335 12.7734H7.80816C7.77261 12.7734 7.7415 12.7867 7.71483 12.8134C7.68816 12.84 7.67483 12.8711 7.67483 12.9067V14.5067C7.67483 14.544 7.68772 14.5756 7.7135 14.6014C7.73927 14.6271 7.77083 14.64 7.80816 14.64H7.88816ZM8.75216 14.1774C8.80016 14.3187 8.87483 14.4311 8.97616 14.5147C9.0775 14.5983 9.20372 14.64 9.35483 14.64C9.50594 14.64 9.63261 14.5983 9.73483 14.5147C9.83705 14.4311 9.91261 14.3187 9.9615 14.1774C10.0104 14.036 10.0348 13.8791 10.0348 13.7067C10.0348 13.536 10.0104 13.38 9.9615 13.2387C9.91261 13.0974 9.83705 12.9845 9.73483 12.9C9.63261 12.8156 9.50594 12.7734 9.35483 12.7734C9.20372 12.7734 9.0775 12.8156 8.97616 12.9C8.87483 12.9845 8.80016 13.0974 8.75216 13.2387C8.70416 13.38 8.68016 13.536 8.68016 13.7067C8.68016 13.8791 8.70416 14.036 8.75216 14.1774ZM9.60683 14.1547C9.54372 14.2631 9.45972 14.3174 9.35483 14.3174C9.25172 14.3174 9.1695 14.2631 9.10816 14.1547C9.04683 14.0462 9.01616 13.8969 9.01616 13.7067C9.01616 13.52 9.04683 13.372 9.10816 13.2627C9.1695 13.1534 9.25172 13.0987 9.35483 13.0987C9.45972 13.0987 9.54372 13.1534 9.60683 13.2627C9.66994 13.372 9.7015 13.52 9.7015 13.7067C9.7015 13.8969 9.66994 14.0462 9.60683 14.1547ZM11.3388 14.4107C11.3495 14.4302 11.3548 14.4498 11.3548 14.4694C11.3548 14.4925 11.3468 14.5147 11.3308 14.536L11.2908 14.584C11.2446 14.6356 11.1984 14.6614 11.1522 14.6614C11.1255 14.6614 11.1015 14.6507 11.0802 14.6294C10.9913 14.5529 10.9242 14.4698 10.8788 14.38C10.8335 14.2902 10.8011 14.2071 10.7815 14.1307C10.7744 14.1005 10.7602 14.0778 10.7388 14.0627C10.7175 14.0476 10.6917 14.04 10.6615 14.04C10.5673 14.04 10.5202 14.08 10.5202 14.16V14.5307C10.5202 14.5627 10.5104 14.5903 10.4908 14.6134C10.4713 14.6365 10.4411 14.648 10.4002 14.648H10.3175C10.2748 14.648 10.2397 14.636 10.2122 14.612C10.1846 14.588 10.1708 14.5609 10.1708 14.5307V12.888C10.1708 12.8578 10.1846 12.8311 10.2122 12.808C10.2397 12.7849 10.2748 12.7734 10.3175 12.7734H10.7175C10.8455 12.7734 10.9531 12.8027 11.0402 12.8614C11.1273 12.92 11.1917 12.9956 11.2335 13.088C11.2753 13.1805 11.2962 13.2774 11.2962 13.3787C11.2962 13.5583 11.2286 13.7218 11.0935 13.8694C11.0828 13.8818 11.0757 13.8934 11.0722 13.904C11.0686 13.9147 11.0668 13.9218 11.0668 13.9254C11.0651 13.9431 11.0722 13.9782 11.0882 14.0307C11.1042 14.0831 11.1299 14.1396 11.1655 14.2C11.2011 14.2605 11.2446 14.3129 11.2962 14.3574C11.3139 14.3734 11.3282 14.3911 11.3388 14.4107ZM10.8748 13.6C10.9228 13.536 10.9468 13.4622 10.9468 13.3787C10.9468 13.3005 10.9228 13.2329 10.8748 13.176C10.8268 13.1191 10.7557 13.0907 10.6615 13.0907C10.6206 13.0907 10.5868 13.1022 10.5602 13.1254C10.5335 13.1485 10.5202 13.1751 10.5202 13.2054V13.5814C10.5202 13.6223 10.5322 13.6516 10.5562 13.6694C10.5802 13.6871 10.6153 13.696 10.6615 13.696C10.7557 13.696 10.8268 13.664 10.8748 13.6ZM12.4215 14.616C12.4482 14.632 12.4722 14.64 12.4935 14.64H12.5708C12.6046 14.64 12.6344 14.6263 12.6602 14.5987C12.6859 14.5711 12.6988 14.5387 12.6988 14.5014V12.9147C12.6988 12.8738 12.6859 12.84 12.6602 12.8134C12.6344 12.7867 12.6046 12.7734 12.5708 12.7734H12.5282C12.4873 12.7734 12.4535 12.7867 12.4268 12.8134C12.4002 12.84 12.3868 12.8738 12.3868 12.9147V13.784C12.3868 13.8267 12.3824 13.848 12.3735 13.848C12.3682 13.848 12.3566 13.8311 12.3388 13.7974L11.8668 12.864C11.8544 12.8374 11.8344 12.8156 11.8068 12.7987C11.7793 12.7818 11.7477 12.7734 11.7122 12.7734H11.6348C11.5939 12.7734 11.5602 12.7867 11.5335 12.8134C11.5068 12.84 11.4935 12.8738 11.4935 12.9147V14.5014C11.4935 14.5405 11.5073 14.5734 11.5348 14.6C11.5624 14.6267 11.5957 14.64 11.6348 14.64H11.6642C11.7015 14.64 11.7335 14.6267 11.7602 14.6C11.7868 14.5734 11.8002 14.5405 11.8002 14.5014V13.5947C11.8002 13.5823 11.8024 13.5725 11.8068 13.5654C11.8113 13.5582 11.8162 13.5547 11.8215 13.5547C11.8322 13.5547 11.8419 13.5636 11.8508 13.5814L12.3682 14.5627C12.3771 14.5823 12.3948 14.6 12.4215 14.616ZM13.1095 14.64C13.1468 14.64 13.1788 14.6271 13.2055 14.6014C13.2322 14.5756 13.2455 14.544 13.2455 14.5067V12.904C13.2455 12.8685 13.2322 12.8378 13.2055 12.812C13.1788 12.7863 13.1468 12.7734 13.1095 12.7734H13.0295C12.9939 12.7734 12.9628 12.7863 12.9362 12.812C12.9095 12.8378 12.8962 12.8685 12.8962 12.904V14.5067C12.8962 14.544 12.9095 14.5756 12.9362 14.6014C12.9628 14.6271 12.9939 14.64 13.0295 14.64H13.1095ZM14.4535 14.64C14.5459 14.64 14.5922 14.6 14.5922 14.52C14.5922 14.5005 14.5895 14.4791 14.5842 14.456L14.2135 12.9067C14.2046 12.8711 14.1851 12.84 14.1548 12.8134C14.1246 12.7867 14.0908 12.7734 14.0535 12.7734H13.9175C13.8819 12.7734 13.8491 12.7867 13.8188 12.8134C13.7886 12.84 13.7691 12.8711 13.7602 12.9067L13.3922 14.4507C13.3851 14.4774 13.3815 14.5023 13.3815 14.5254C13.3815 14.5716 13.3939 14.6023 13.4188 14.6174C13.4437 14.6325 13.4757 14.64 13.5148 14.64H13.5708C13.6117 14.64 13.6446 14.6311 13.6695 14.6134C13.6944 14.5956 13.7139 14.5627 13.7282 14.5147L13.7682 14.368C13.7699 14.3609 13.7753 14.3423 13.7842 14.312C13.7931 14.2818 13.8068 14.2591 13.8255 14.244C13.8442 14.2289 13.8686 14.2214 13.8988 14.2214H14.0668C14.1113 14.2214 14.1411 14.2334 14.1562 14.2574C14.1713 14.2814 14.1842 14.3183 14.1948 14.368L14.2348 14.5147C14.2491 14.5627 14.2686 14.5956 14.2935 14.6134C14.3184 14.6311 14.3522 14.64 14.3948 14.64H14.4535ZM14.0802 13.7574C14.0873 13.7929 14.0908 13.8196 14.0908 13.8374C14.0908 13.8889 14.0633 13.9147 14.0082 13.9147H13.9655C13.9086 13.9147 13.8802 13.8854 13.8802 13.8267C13.8802 13.8018 13.8828 13.7778 13.8882 13.7547L13.9228 13.5627L13.9628 13.3654C13.9646 13.3583 13.9677 13.352 13.9722 13.3467C13.9766 13.3414 13.9806 13.3387 13.9842 13.3387C13.9966 13.3387 14.0037 13.3494 14.0055 13.3707L14.0428 13.5627L14.0802 13.7574ZM16.2962 14.4107C16.3068 14.4302 16.3122 14.4498 16.3122 14.4694C16.3122 14.4925 16.3042 14.5147 16.2882 14.536L16.2482 14.584C16.2019 14.6356 16.1557 14.6614 16.1095 14.6614C16.0828 14.6614 16.0588 14.6507 16.0375 14.6294C15.9486 14.5529 15.8815 14.4698 15.8362 14.38C15.7908 14.2902 15.7584 14.2071 15.7388 14.1307C15.7317 14.1005 15.7175 14.0778 15.6962 14.0627C15.6748 14.0476 15.6491 14.04 15.6188 14.04C15.5246 14.04 15.4775 14.08 15.4775 14.16V14.5307C15.4775 14.5627 15.4677 14.5903 15.4482 14.6134C15.4286 14.6365 15.3984 14.648 15.3575 14.648H15.2748C15.2322 14.648 15.1971 14.636 15.1695 14.612C15.1419 14.588 15.1282 14.5609 15.1282 14.5307V12.888C15.1282 12.8578 15.1419 12.8311 15.1695 12.808C15.1971 12.7849 15.2322 12.7734 15.2748 12.7734H15.6748C15.8028 12.7734 15.9104 12.8027 15.9975 12.8614C16.0846 12.92 16.1491 12.9956 16.1908 13.088C16.2326 13.1805 16.2535 13.2774 16.2535 13.3787C16.2535 13.5583 16.1859 13.7218 16.0508 13.8694C16.0402 13.8818 16.0331 13.8934 16.0295 13.904C16.0259 13.9147 16.0242 13.9218 16.0242 13.9254C16.0224 13.9431 16.0295 13.9782 16.0455 14.0307C16.0615 14.0831 16.0873 14.1396 16.1228 14.2C16.1584 14.2605 16.2019 14.3129 16.2535 14.3574C16.2713 14.3734 16.2855 14.3911 16.2962 14.4107ZM15.8322 13.6C15.8802 13.536 15.9042 13.4622 15.9042 13.3787C15.9042 13.3005 15.8802 13.2329 15.8322 13.176C15.7842 13.1191 15.7131 13.0907 15.6188 13.0907C15.5779 13.0907 15.5442 13.1022 15.5175 13.1254C15.4908 13.1485 15.4775 13.1751 15.4775 13.2054V13.5814C15.4775 13.6223 15.4895 13.6516 15.5135 13.6694C15.5375 13.6871 15.5726 13.696 15.6188 13.696C15.7131 13.696 15.7842 13.664 15.8322 13.6ZM17.3095 14.64C17.3468 14.64 17.3784 14.6271 17.4042 14.6014C17.4299 14.5756 17.4428 14.5431 17.4428 14.504V14.44C17.4428 14.4045 17.4299 14.3734 17.4042 14.3467C17.3784 14.32 17.3468 14.3067 17.3095 14.3067H16.9282C16.8944 14.3067 16.8642 14.2934 16.8375 14.2667C16.8108 14.24 16.7975 14.2098 16.7975 14.176V13.968C16.7975 13.9307 16.8104 13.8991 16.8362 13.8734C16.8619 13.8476 16.8926 13.8347 16.9282 13.8347H17.1575C17.1948 13.8347 17.2264 13.8218 17.2522 13.796C17.2779 13.7703 17.2908 13.7396 17.2908 13.704V13.632C17.2908 13.5965 17.2779 13.5654 17.2522 13.5387C17.2264 13.512 17.1948 13.4987 17.1575 13.4987H16.9282C16.8944 13.4987 16.8642 13.4854 16.8375 13.4587C16.8108 13.432 16.7975 13.4018 16.7975 13.368V13.24C16.7975 13.2045 16.8108 13.1729 16.8375 13.1454C16.8642 13.1178 16.8944 13.104 16.9282 13.104H17.3095C17.3468 13.104 17.3784 13.0916 17.4042 13.0667C17.4299 13.0418 17.4428 13.0116 17.4428 12.976V12.904C17.4428 12.8685 17.4299 12.8378 17.4042 12.812C17.3784 12.7863 17.3468 12.7734 17.3095 12.7734H16.5868C16.5477 12.7734 16.5153 12.7858 16.4895 12.8107C16.4637 12.8356 16.4508 12.8667 16.4508 12.904V14.504C16.4508 14.5431 16.4637 14.5756 16.4895 14.6014C16.5153 14.6271 16.5477 14.64 16.5868 14.64H17.3095ZM17.7282 14.6054C17.7513 14.6285 17.7788 14.64 17.8108 14.64H17.9202C17.9539 14.64 17.9824 14.6285 18.0055 14.6054C18.0286 14.5822 18.0402 14.5538 18.0402 14.52V14.1627C18.0402 14.1289 18.0517 14.1 18.0748 14.076C18.0979 14.052 18.1255 14.04 18.1575 14.04C18.3033 14.04 18.4299 14.0089 18.5375 13.9467C18.6451 13.8845 18.7268 13.8036 18.7828 13.704C18.8388 13.6045 18.8668 13.4987 18.8668 13.3867C18.8668 13.2676 18.8415 13.1618 18.7908 13.0694C18.7402 12.9769 18.6659 12.9045 18.5682 12.852C18.4704 12.7996 18.3522 12.7734 18.2135 12.7734H17.8108C17.7788 12.7734 17.7513 12.7849 17.7282 12.808C17.7051 12.8311 17.6935 12.8596 17.6935 12.8934V14.52C17.6935 14.5538 17.7051 14.5822 17.7282 14.6054ZM18.1575 13.7067C18.1255 13.7067 18.0979 13.6951 18.0748 13.672C18.0517 13.6489 18.0402 13.6205 18.0402 13.5867V13.2187C18.0402 13.1849 18.0517 13.156 18.0748 13.132C18.0979 13.108 18.1255 13.096 18.1575 13.096H18.1735C18.2784 13.096 18.3624 13.1196 18.4255 13.1667C18.4886 13.2138 18.5202 13.288 18.5202 13.3894C18.5202 13.4818 18.4873 13.5578 18.4215 13.6174C18.3557 13.6769 18.2731 13.7067 18.1735 13.7067H18.1575ZM19.8002 12.8067C19.7771 12.8289 19.7655 12.8569 19.7655 12.8907V14.008C19.7655 14.1058 19.7464 14.18 19.7082 14.2307C19.6699 14.2814 19.6055 14.3067 19.5148 14.3067C19.4259 14.3067 19.3619 14.2818 19.3228 14.232C19.2837 14.1822 19.2642 14.1103 19.2642 14.016V12.8907C19.2642 12.8587 19.2517 12.8311 19.2268 12.808C19.2019 12.7849 19.1726 12.7734 19.1388 12.7734H19.0482C19.0108 12.7734 18.9811 12.7845 18.9588 12.8067C18.9366 12.8289 18.9255 12.8569 18.9255 12.8907V13.9947C18.9255 14.2098 18.9793 14.3711 19.0868 14.4787C19.1944 14.5863 19.3388 14.64 19.5202 14.64C19.6997 14.64 19.8424 14.5863 19.9482 14.4787C20.0539 14.3711 20.1068 14.2098 20.1068 13.9947V12.8907C20.1068 12.8587 20.0939 12.8311 20.0682 12.808C20.0424 12.7849 20.0126 12.7734 19.9788 12.7734H19.8882C19.8526 12.7734 19.8233 12.7845 19.8002 12.8067ZM20.2322 14.6094C20.2535 14.6298 20.2793 14.64 20.3095 14.64H20.7362C20.9548 14.64 21.1175 14.5871 21.2242 14.4814C21.3308 14.3756 21.3842 14.2374 21.3842 14.0667V13.976C21.3824 13.896 21.3597 13.8263 21.3162 13.7667C21.2726 13.7071 21.2135 13.6596 21.1388 13.624C21.1353 13.624 21.1335 13.6214 21.1335 13.616L21.1362 13.6134C21.1984 13.576 21.2451 13.5209 21.2762 13.448C21.3073 13.3751 21.3228 13.2951 21.3228 13.208C21.3228 13.08 21.2708 12.9756 21.1668 12.8947C21.0628 12.8138 20.9157 12.7734 20.7255 12.7734H20.3095C20.2793 12.7734 20.2535 12.7836 20.2322 12.804C20.2108 12.8245 20.2002 12.8498 20.2002 12.88V14.5334C20.2002 14.5636 20.2108 14.5889 20.2322 14.6094ZM20.6615 13.4854C20.6153 13.4854 20.5851 13.4782 20.5708 13.464C20.5566 13.4498 20.5495 13.4205 20.5495 13.376V13.2134C20.5495 13.1707 20.5562 13.1418 20.5695 13.1267C20.5828 13.1116 20.6135 13.104 20.6615 13.104H20.6828C20.7859 13.104 20.8602 13.1196 20.9055 13.1507C20.9508 13.1818 20.9735 13.2222 20.9735 13.272C20.9735 13.3307 20.9513 13.3809 20.9068 13.4227C20.8624 13.4645 20.7886 13.4854 20.6855 13.4854H20.6615ZM20.6615 14.3094C20.6188 14.3094 20.5895 14.3018 20.5735 14.2867C20.5575 14.2716 20.5495 14.2427 20.5495 14.2V13.9014C20.5495 13.8551 20.5575 13.8254 20.5735 13.812C20.5895 13.7987 20.6188 13.792 20.6615 13.792H20.7602C20.8455 13.792 20.9153 13.8143 20.9695 13.8587C21.0237 13.9031 21.0508 13.9618 21.0508 14.0347V14.0667C21.0508 14.2285 20.9548 14.3094 20.7628 14.3094H20.6615ZM22.4402 14.64C22.4793 14.64 22.5117 14.6271 22.5375 14.6014C22.5633 14.5756 22.5762 14.544 22.5762 14.5067V14.4427C22.5762 14.4036 22.5633 14.3716 22.5375 14.3467C22.5117 14.3218 22.4793 14.3094 22.4402 14.3094H22.0615C22.0224 14.3094 21.9899 14.296 21.9642 14.2694C21.9384 14.2427 21.9255 14.2107 21.9255 14.1734V12.9067C21.9255 12.8694 21.9126 12.8378 21.8868 12.812C21.8611 12.7863 21.8295 12.7734 21.7922 12.7734H21.7095C21.6739 12.7734 21.6428 12.7863 21.6162 12.812C21.5895 12.8378 21.5762 12.8694 21.5762 12.9067V14.5067C21.5762 14.544 21.5895 14.5756 21.6162 14.6014C21.6428 14.6271 21.6739 14.64 21.7095 14.64H22.4402ZM22.9335 14.64C22.9708 14.64 23.0028 14.6271 23.0295 14.6014C23.0562 14.5756 23.0695 14.544 23.0695 14.5067V12.904C23.0695 12.8685 23.0562 12.8378 23.0295 12.812C23.0028 12.7863 22.9708 12.7734 22.9335 12.7734H22.8535C22.8179 12.7734 22.7868 12.7863 22.7602 12.812C22.7335 12.8378 22.7202 12.8685 22.7202 12.904V14.5067C22.7202 14.544 22.7335 14.5756 22.7602 14.6014C22.7868 14.6271 22.8179 14.64 22.8535 14.64H22.9335ZM24.3882 14.1387H24.3895C24.4197 14.1529 24.4433 14.1734 24.4602 14.2C24.4771 14.2267 24.4855 14.256 24.4855 14.288C24.4855 14.32 24.4757 14.3511 24.4562 14.3814C24.3353 14.5538 24.1673 14.64 23.9522 14.64C23.8011 14.64 23.6748 14.5983 23.5735 14.5147C23.4722 14.4311 23.3975 14.3187 23.3495 14.1774C23.3015 14.036 23.2775 13.8791 23.2775 13.7067C23.2775 13.536 23.3015 13.38 23.3495 13.2387C23.3975 13.0974 23.4722 12.9845 23.5735 12.9C23.6748 12.8156 23.8011 12.7734 23.9522 12.7734C24.1548 12.7734 24.3157 12.8516 24.4348 13.008C24.4579 13.0365 24.4695 13.0694 24.4695 13.1067C24.4695 13.1369 24.4624 13.1645 24.4482 13.1894C24.4339 13.2143 24.4135 13.2347 24.3868 13.2507L24.3815 13.2534C24.3584 13.2676 24.3308 13.2747 24.2988 13.2747C24.2455 13.2747 24.2028 13.2543 24.1708 13.2134C24.1104 13.1369 24.0375 13.0987 23.9522 13.0987C23.8491 13.0987 23.7668 13.1534 23.7055 13.2627C23.6442 13.372 23.6135 13.52 23.6135 13.7067C23.6135 13.8969 23.6442 14.0462 23.7055 14.1547C23.7668 14.2631 23.8491 14.3174 23.9522 14.3174C24.0446 14.3174 24.1211 14.2756 24.1815 14.192C24.1975 14.1689 24.2175 14.1511 24.2415 14.1387C24.2655 14.1263 24.2908 14.12 24.3175 14.12C24.3424 14.12 24.3655 14.1254 24.3868 14.136C24.3868 14.1378 24.3873 14.1387 24.3882 14.1387Z" fill="#414B52"/>
<path fill-rule="evenodd" clip-rule="evenodd" d="M8.36492 11.5142C7.27794 11.4861 7.255 11.3069 8.33037 11.1221C8.33037 11.1221 11.9613 10.4032 14.5775 10.4032C17.2946 10.4032 20.7476 11.1133 20.7476 11.1133C21.8153 11.3066 21.7965 11.4872 20.7085 11.5164L14.7017 11.6779L8.36492 11.5142Z" fill="#319400"/>
<path d="M9.7489 8.80024C9.54845 8.61413 9.55782 8.96761 9.10763 8.9075C8.98779 8.8915 8.84135 8.61917 8.84135 8.61917C8.84135 8.61917 8.08995 8.57048 8.04936 8.22106C8.00877 7.87164 8.51592 7.70701 8.7048 7.44363C8.85346 7.23634 8.72878 7.0617 8.84135 6.83328C8.95393 6.60487 9.28744 6.53246 9.32133 6.41507C9.34237 6.3422 9.144 6.06262 9.42395 5.96781C9.69464 5.87613 9.9456 6.10713 9.9456 6.10713C9.9456 6.10713 9.94693 5.78401 10.1663 5.74596C10.4842 5.69082 10.69 5.96781 10.69 5.96781C10.69 5.96781 12.3108 4.6256 13.2227 4.61575C14.0067 4.60729 14.3642 5.09953 15.1164 5.1807C16.3415 5.31289 16.8854 4.61575 18.1309 5.1807C19.7245 5.90352 19.8247 9.16995 19.8247 9.16995C19.8247 9.16995 20.2254 9.70593 20.2885 10C20.3481 10.2786 20.2885 10.4741 20.0153 10.6948C19.7422 10.9155 18.8108 11.1921 18.6364 10.8881C18.4619 10.584 19.4502 10.3563 19.2838 10.2835C18.6364 10 18.1309 9.16995 18.1309 9.16995C18.1309 9.16995 17.44 9.53866 17.0574 10C16.7428 10.3795 16.8776 10.8881 16.4038 10.8881C15.4968 10.8881 15.0813 10.9754 15.0294 10.6948C14.9178 10.0902 16.2049 10.5373 15.9778 10.3869C15.8217 10.2835 15.8217 8.61917 15.8217 8.61917H14.8371C14.8371 8.61917 15.0478 10.5353 14.6853 10.584C13.74 10.711 14.1963 10.6965 13.4048 10.584C12.9686 10.522 14 10 14 10C14 10 13.8615 9.00859 13.4048 9.01598C12.6604 9.75646 11.499 11.1224 11.0365 11.1224C10.4747 11.1224 10.5866 11.0598 10.1663 11.0275C9.28017 10.9594 10.1663 10.2835 10.69 10.584C10.9117 10.2835 11.7005 8.07873 11.7005 8.07873C11.7005 8.07873 10.2651 9.27949 9.7489 8.80024Z" fill="#944200"/>
<path fill-rule="evenodd" clip-rule="evenodd" d="M9.21521 8.5819C9.19799 8.58213 9.17753 8.58052 9.15186 8.57709C9.1899 8.58217 9.21655 8.59351 9.23566 8.6062C9.2365 8.60676 9.22779 8.59748 9.21521 8.5819ZM9.64773 6.30628C9.64011 6.27952 9.63026 6.24615 9.61786 6.20369C9.60999 6.17677 9.6066 6.16172 9.606 6.15493C9.60977 6.19748 9.56687 6.27136 9.53099 6.28351C9.55747 6.27454 9.59817 6.28135 9.64773 6.30628ZM10.2829 6.07593C10.2851 6.06383 10.2883 6.05046 10.2925 6.03888C10.2913 6.04209 10.2685 6.06655 10.2234 6.07438C10.2433 6.07093 10.263 6.07147 10.2829 6.07593ZM19.5037 10.5822C19.2413 10.6738 18.9318 10.7329 18.9256 10.7221C19.001 10.8536 19.0072 10.8475 19.1102 10.7952C19.1419 10.7791 19.341 10.6843 19.3892 10.6579C19.4352 10.6327 19.4716 10.6101 19.5037 10.5822ZM16.2968 10.5551C16.1857 10.5558 16.0742 10.5578 15.9275 10.5612C15.4271 10.5728 15.3436 10.5597 15.3573 10.6342C15.359 10.6434 15.3311 10.7009 15.2989 10.7169C15.3216 10.7057 15.3948 10.6971 15.4988 10.7017C15.5639 10.7047 15.6341 10.7119 15.7222 10.7238C15.8416 10.7412 15.9056 10.75 15.952 10.7525C16.0092 10.7826 16.0102 10.7831 16.2968 10.5551ZM14.0827 10.3328C14.035 10.339 14.0108 10.3408 13.9933 10.3405C13.9722 10.3402 13.6693 10.2849 13.4519 10.254C13.5549 10.2686 13.6984 10.4456 13.6047 10.6289C13.5972 10.6437 13.6351 10.6087 13.6943 10.5667C13.7319 10.54 13.7757 10.5112 13.8243 10.4811C13.9157 10.4245 14.0083 10.3724 14.0827 10.3328ZM10.9533 10.7887C10.7705 10.7867 10.6901 10.7771 10.5875 10.7545C10.5563 10.7475 10.5563 10.7475 10.5182 10.7393C10.4212 10.719 10.326 10.7054 10.192 10.6951C10.0684 10.6856 10.1647 10.8826 10.1068 10.9285C10.2139 10.8436 10.4176 10.812 10.5242 10.8731L10.7819 11.021L10.9533 10.7887ZM15.2253 10.0496C15.3174 10.0342 15.418 10.0308 15.5287 10.0357C15.5336 10.036 15.5385 10.0362 15.5434 10.0364C15.5301 9.89749 15.5203 9.72866 15.5103 9.52167C15.5007 9.32416 15.4949 9.12725 15.4917 8.95249H15.2013C15.2175 9.17291 15.2282 9.39171 15.2308 9.59782C15.2329 9.7652 15.2319 9.91561 15.2253 10.0496ZM14.74 10.9129C14.7366 10.9134 14.7332 10.9139 14.7297 10.9144C14.7338 10.9138 14.7372 10.9134 14.7401 10.913C14.7551 10.911 14.7538 10.9114 14.7402 10.9134C14.7401 10.9133 14.7401 10.9131 14.7401 10.913C14.74 10.913 14.74 10.9129 14.74 10.9129Z" stroke="#391800" stroke-width="0.666667"/>
<path d="M11.9803 8.27237C11.9803 8.27237 12.3846 7.16932 12.3669 6.75138C12.3502 6.35544 12.1223 5.37832 11.9814 5.93261C11.8405 6.4869 11.228 6.10302 11.228 6.10302" stroke="#391800" stroke-width="0.666667" stroke-linecap="round"/>
<path d="M16.062 8.41357C16.062 8.41357 17.3718 7.40967 17.3718 6.65186" stroke="#391800" stroke-width="0.666667" stroke-linecap="round"/>
<path fill-rule="evenodd" clip-rule="evenodd" d="M4.66652 5.68936L3.09909 6.82405L3.69389 4.98269L2.13037 3.84262L4.0654 3.83929L4.66652 2L5.26764 3.83929L7.20267 3.84262L5.63916 4.98269L6.23395 6.82405L4.66652 5.68936Z" fill="url(#paint3_linear_1310_7988)"/>
</g>
<defs>
<linearGradient id="paint0_linear_1310_7988" x1="14.0002" y1="0" x2="14.0002" y2="20" gradientUnits="userSpaceOnUse">
<stop stop-color="white"/>
<stop offset="1" stop-color="#F0F0F0"/>
</linearGradient>
<linearGradient id="paint1_linear_1310_7988" x1="14.0002" y1="16" x2="14.0002" y2="20" gradientUnits="userSpaceOnUse">
<stop stop-color="#E7413D"/>
<stop offset="1" stop-color="#DB3531"/>
</linearGradient>
<linearGradient id="paint2_linear_1310_7988" x1="14.0002" y1="0" x2="14.0002" y2="16" gradientUnits="userSpaceOnUse">
<stop stop-color="white"/>
<stop offset="1" stop-color="#F0F0F0"/>
</linearGradient>
<linearGradient id="paint3_linear_1310_7988" x1="4.66652" y1="2" x2="4.66652" y2="6.82405" gradientUnits="userSpaceOnUse">
<stop stop-color="#E7413D"/>
<stop offset="1" stop-color="#DB3531"/>
</linearGradient>
<clipPath id="clip0_1310_7988">
<rect width="28" height="20" rx="2" fill="white"/>
</clipPath>
</defs>
</svg>
