<svg width="28" height="20" fill="none" xmlns="http://www.w3.org/2000/svg"><rect width="28" height="20" rx="2" fill="#fff"/><mask id="a" style="mask-type:alpha" maskUnits="userSpaceOnUse" x="0" y="0" width="28" height="20"><rect width="28" height="20" rx="2" fill="#fff"/></mask><g mask="url(#a)" fill-rule="evenodd" clip-rule="evenodd"><path d="M0 13.333 28 0H0v13.333Z" fill="#1EC160"/><path d="M0 20h28V6.667L0 20Z" fill="#DF2A40"/><path d="m.784 25.333 32.791-20.49-6.359-10.176-32.791 20.49L.784 25.333Z" fill="#FFD956"/><path d="m-.63 23.072 32.792-20.49-3.533-5.654-32.791 20.49 3.533 5.654Z" fill="#262626"/><path d="m20.31 7.797-.946 1.498-.614-1.661-1.716-.437 1.39-1.097-.115-1.767 1.473.984 1.645-.656-.48 1.705 1.132 1.361-1.77.07ZM9.643 14.264l-.946 1.498-.613-1.662-1.716-.436 1.39-1.097-.115-1.767 1.472.983 1.645-.655-.48 1.704 1.132 1.362-1.77.07Z" fill="#fff"/></g></svg>