<svg width="28" height="20" fill="none" xmlns="http://www.w3.org/2000/svg"><mask id="a" style="mask-type:alpha" maskUnits="userSpaceOnUse" x="0" y="0" width="28" height="20"><rect width="28" height="20" rx="2" fill="#fff"/></mask><g mask="url(#a)"><path fill="#EE343C" d="M0 0h28v20H0z"/><path fill-rule="evenodd" clip-rule="evenodd" d="M12.386 4.386a.667.667 0 0 0-.84-.083l-.59.393a.667.667 0 0 0 .072 1.151l1.27.635a.667.667 0 0 1 .369.597v.254A.667.667 0 0 1 12 8h-.51a.666.666 0 0 1-.297-.07L9.096 6.882a.667.667 0 0 0-.77.124l-.339.34a.667.667 0 0 0 .174 1.068l.944.472c.399.2.433.755.062 1.003a.58.58 0 0 0 .208 1.053l.562.112c.54.108.698.803.257 1.133l-.503.378a.427.427 0 0 0 .256.768c.035 0 .07-.004.104-.012l1.262-.316a.54.54 0 0 1 .58.823.54.54 0 0 0 .448.839h.584c.244 0 .46.156.537.387a.567.567 0 0 0 1.075 0 .567.567 0 0 1 .538-.387h.584a.54.54 0 0 0 .448-.84.54.54 0 0 1 .58-.822l1.262.316a.427.427 0 0 0 .36-.756l-.503-.377a.637.637 0 0 1 .257-1.134l.562-.112a.581.581 0 0 0 .208-1.053.58.58 0 0 1 .062-1.003l.944-.472a.667.667 0 0 0 .174-1.068l-.34-.34a.667.667 0 0 0-.77-.124L16.808 7.93a.666.666 0 0 1-.298.07H16a.667.667 0 0 1-.667-.667V7.08c0-.253.143-.484.369-.597l1.27-.635a.666.666 0 0 0 .072-1.15l-.59-.394a.667.667 0 0 0-.84.083L14.47 5.53a.667.667 0 0 1-.942 0l-1.143-1.143Z" fill="#262626"/></g></svg>