<svg width="28" height="20" fill="none" xmlns="http://www.w3.org/2000/svg"><rect width="28" height="20" rx="2" fill="#D01129"/><mask id="a" style="mask-type:alpha" maskUnits="userSpaceOnUse" x="0" y="0" width="28" height="20"><rect width="28" height="20" rx="2" fill="#fff"/></mask><g mask="url(#a)" fill-rule="evenodd" clip-rule="evenodd"><path d="M13.888 10.04c.661 0 1.197-.562 1.197-1.256 0-.693-.536-1.256-1.197-1.256-.66 0-1.197.563-1.197 1.256 0 .694.536 1.257 1.197 1.257" fill="#FFF101"/><path d="M12.797 8.28c.34-.114.779.018 1.068.31.307-.06.615-.464.71-.825-.104-1.198-.85-2.105-1.077-2.728-.072-.197-.405-.506-.751-.362-.284.118-.428.026-1.384.527-.517.27-.952.548-1.18.597-.23.048-.472.091-.655-.06-.253-.207-.535-.265-.702-.42-.204-.192-.335-.337-.473-.396-.138-.058-.372.072-.273.382.222.701.747.815.973 1.47.106.31.257.543.595.308.338-.235.816-.547 1.63-.58.547-.022 1.112-.233 1.372-.58-.003.3.098.546.072.936-.027.39-.023.875.075 1.42" fill="#fff"/><path d="M13.438 8.312c-.1-.59.082-.675-.136-1.366-.13-.415-.214-.936-.216-1.179l-.088.027c.003.242.086.763.217 1.179.21.668.047.77.127 1.31a.987.987 0 0 1 .096.03" fill="#FFF101"/><path d="M12.924 8.247c0-.075-.004-.153-.015-.22.153-.039.416.11.41 0a3.695 3.695 0 0 1 .002-.21c-.003.095-.369-.064-.432-.023-.068-.343.016-.696-.037-.912.122-.035.346.042.319-.059-.016-.051-.046-.18-.065-.26.019.084-.16.015-.22.063a5.64 5.64 0 0 1-.076-.7l-.16-.002c-.003.3.098.545.072.935-.027.39-.023.875.075 1.42a1.88 1.88 0 0 1 .127-.032m-.404-2.739c-.24.362-.81.611-1.336.667a2.763 2.763 0 0 0-1.336.49c-.026-.049-.074-.076-.115-.108-.446-.347-.263-.817-.094-.75-.064-.026-.1-.061-.136-.087-.059-.046-.229.13-.207.409.009.119.106.294.184.387-.144-.027-.213-.066-.297-.173a.359.359 0 0 1 .159-.053c-.017-.043-.04-.09-.046-.161a.407.407 0 0 0-.23.078c-.178-.185-.36-.333-.466-.552-.169-.35.003-.57.226-.337-.204-.191-.335-.336-.473-.395-.138-.058-.372.072-.273.382.222.701.747.815.973 1.47.106.31.263.551.595.308l.094-.068c.105-.064.272.043.254.277.086-.215.031-.28-.041-.409-.054.03-.05-.146-.083-.169.19-.123.42-.248.712-.336.01.105.038.216.13.2.05-.012.1-.022.152-.031-.092.016-.118-.106-.129-.21.138-.034.29-.059.454-.073.19-.017.387-.057.572-.12.028.1.085.27.18.237a2.08 2.08 0 0 0 .242-.098c-.132.066-.184-.122-.216-.222.241-.11.446-.26.569-.439l-.019-.114" fill="#FFF101"/><path d="M13.573 5.688c.116-.095.216-.14.116-.34-.164-.328-.062-.33-.421-.538-.366-.212-.32-.229-.804-.05-.12.045-.093.09-.072.27.045.392.13.706.208 1.028.305-.042.773-.207.973-.37Z" fill="#FFF101"/><path d="M12.438 5.599c-.064-.192-.047-.166.184-.107.076-.253.18-.467.24-.671.065-.23.085-.27.182-.215.123.072.258.148.346.193.154.08.132.107.058.233-.073.126-.314.382-.462.648.196.145.258.158.12.22-.156.07-.415.156-.523.176-.02-.126-.085-.295-.145-.477Zm-2.297 1.803-.015.198-.139-.132-.155.11.01-.197-.178-.057.152-.114-.067-.183.18.055.094-.17.071.181.185-.03-.09.173.136.134-.184.032" fill="#FFF101"/><path d="M14.017 10.029c-.263-.252-.374-.717-.278-1.126-.202-.25-.69-.328-1.035-.234-.936.694-1.311 1.827-1.711 2.344-.127.164-.216.621.076.864.24.2.236.376 1.127.995.481.335.928.591 1.082.775.155.184.312.383.279.625-.045.333.049.619.003.848-.056.282-.11.473-.089.628.021.155.245.302.452.057.467-.553.298-1.086.726-1.619.202-.252.318-.505-.044-.695-.363-.19-.859-.469-1.293-1.193-.292-.486-.748-.895-1.164-.957.248-.148.4-.362.736-.533a5.233 5.233 0 0 0 1.133-.779" fill="#fff"/><path d="M13.723 9.43c-.436.386-.597.263-1.058.806-.278.327-.666.664-.865.787l.066.066c.199-.123.587-.46.864-.787.447-.525.612-.427 1.017-.77a1.1 1.1 0 0 1-.024-.102" fill="#FFF101"/><path d="M13.927 9.93c-.062.037-.124.08-.174.124-.109-.12-.117-.434-.205-.372-.028.02-.123.073-.174.101.08-.044.131.368.196.405-.249.233-.582.334-.732.49-.09-.094-.14-.336-.209-.26-.035.04-.125.13-.182.188.06-.06.092.138.162.169-.138.121-.406.34-.54.42l.079.146c.248-.148.4-.362.735-.533.335-.17.733-.417 1.134-.779a2.067 2.067 0 0 1-.09-.099m-2.057 1.737c.418.037.909.43 1.218.882a2.88 2.88 0 0 0 1.073.968c-.028.05-.026.105-.032.16-.063.579-.543.647-.572.46.01.07 0 .122-.004.167-.009.076.222.143.441-.016.094-.068.19-.243.227-.361.05.144.052.226.006.357a.38.38 0 0 1-.123-.118c-.027.037-.054.082-.11.122.035.065.1.13.18.17-.065.254-.095.494-.223.699-.204.329-.472.283-.39-.037-.057.282-.11.473-.09.628.02.155.245.302.452.057.466-.553.298-1.086.726-1.619.202-.252.323-.515-.044-.695-.049-.024-.06-.031-.103-.051-.106-.064-.1-.27.1-.37-.219.03-.246.111-.315.242.051.033-.096.117-.099.159a2.81 2.81 0 0 1-.633-.479c.082-.062.16-.143.1-.218a2.964 2.964 0 0 1-.101-.123c.06.076-.028.16-.11.222a3.322 3.322 0 0 1-.286-.376 2.636 2.636 0 0 0-.385-.46c.069-.075.18-.212.105-.281a2.135 2.135 0 0 0-.201-.172c.12.087-.01.228-.075.307-.212-.164-.438-.276-.647-.298l-.085.074" fill="#FFF101"/><path d="M11.322 10.698c-.136-.059-.07-.138-.184.054-.189.313-.225.24-.218.672.008.438.09.368.48.719.299-.236.657-.593.883-.824-.187-.256-.726-.52-.961-.621Z" fill="#FFF101"/><path d="M11.986 11.696c-.127.154-.114.126-.181-.114-.246.057-.437.124-.634.173-.222.055-.266.057-.268-.059a9.614 9.614 0 0 0-.015-.412c-.011-.18.023-.173.164-.169.14.004.433.04.727.042.021-.25 0-.314.121-.218.136.106.336.298.407.387-.094.08-.202.224-.321.37Zm2.636 1.187.17-.085-.04.192.17.086-.168.089.042.19-.171-.08-.117.152-.044-.19-.188-.001.114-.156-.117-.153.188-.004.042-.19.119.15" fill="#FFF101"/><path d="M14.85 8.045c-.076.365-.405.699-.79.816-.105.309.075.791.325 1.058 1.04.504 2.162.279 2.79.384.198.033.62-.115.673-.501.045-.318.193-.403.258-1.522.035-.605.023-1.14.098-1.372.075-.233.16-.475.376-.566.297-.126.486-.354.698-.427.26-.09.445-.137.562-.233.118-.096.127-.374-.178-.44-.69-.147-1.046.273-1.699.15-.308-.058-.576-.037-.552.388.025.425.043 1.015-.337 1.772-.255.508-.363 1.127-.207 1.537-.246-.152-.5-.184-.808-.403a5.16 5.16 0 0 0-1.209-.64" fill="#fff"/><path d="M14.503 8.611c.537.204.516.412 1.194.56.409.089.88.273 1.081.393l.022-.093c-.201-.12-.673-.304-1.08-.393-.657-.143-.66-.342-1.144-.54-.017.02-.057.059-.073.073" fill="#FFF101"/><path d="M14.813 8.176c.062.038.129.073.19.097-.045.159-.3.323-.204.372a3.5 3.5 0 0 1 .17.108c-.076-.05.238-.304.236-.382.317.11.566.363.77.422-.032.129-.207.294-.11.32.05.011.17.048.246.07-.079-.024.068-.152.059-.23.169.064.483.199.615.28l.082-.144c-.246-.152-.499-.184-.807-.403a5.16 5.16 0 0 0-1.21-.64 2.107 2.107 0 0 1-.037.13m2.462 1.002c-.18-.398-.1-1.041.118-1.548a3.113 3.113 0 0 0 .263-1.46c.054.001.1-.029.147-.05.51-.232.805.17.665.29.054-.046.101-.062.14-.08.068-.031.008-.274-.233-.394-.103-.051-.296-.05-.412-.025.095-.118.16-.16.292-.184a.405.405 0 0 1-.036.17c.043.006.094.009.156.04a.46.46 0 0 0 .05-.25c.242-.067.455-.16.688-.146.373.021.47.288.165.374.26-.09.445-.137.562-.233.118-.096.127-.374-.178-.44-.69-.147-1.046.273-1.699.15-.309-.058-.586-.036-.552.388l.01.119c0 .128-.172.226-.356.093.134.185.216.168.358.167.002-.064.145.028.18.009.008.234-.005.506-.078.815-.092-.043-.197-.073-.23.018a3.434 3.434 0 0 1-.05.154c.032-.092.146-.054.238-.012a3.456 3.456 0 0 1-.168.45c-.081.18-.146.38-.187.58-.096-.026-.264-.059-.284.044a2.34 2.34 0 0 0-.041.269c.011-.153.192-.106.29-.085-.03.274-.008.536.078.737l.104.04" fill="#FFF101"/><path d="M16.559 10.01c.02.153.007.266.222.275.353.014.324.06.675-.162.358-.227.368-.182.462-.712.023-.13-.027-.128-.187-.2-.345-.155-.646-.144-.95-.234-.118.297-.257.769-.222 1.032Z" fill="#FFF101"/><path d="M17.241 9.058c.19.038.16.04-.003.222.17.195.3.332.44.488.157.174.18.213.086.273a8.8 8.8 0 0 0-.333.219c-.142.1-.154.066-.22-.064-.068-.13-.165-.412-.31-.68-.218.106-.26.156-.242-.001.02-.176.078-.455.116-.564.114.045.286.071.466.107Zm-.339-2.99-.155-.113.178-.06-.014-.196.157.108.136-.134.019.196.184.03-.134.136.092.17-.185-.025-.068.183-.097-.169-.178.057.065-.183" fill="#FFF101"/><path d="M13.86 8.595c-.29-.292-.727-.42-1.06-.308l-.01-.006a5.761 5.761 0 0 1-.076-1.423c.012-.18.002-.31-.033-.545a6.462 6.462 0 0 1-.022-.151c-.01-.08-.016-.15-.016-.217-.257.325-.799.543-1.365.566-.669.027-1.087.204-1.626.578-.3.208-.47.084-.606-.311-.09-.262-.2-.413-.463-.691l-.02-.022c-.276-.29-.396-.46-.49-.757-.088-.277.102-.469.283-.392a1.001 1.001 0 0 1 .234.167l.168.16.073.07a.565.565 0 0 0 .028.024.122.122 0 0 0-.043-.018l-.068-.065a17.26 17.26 0 0 0-.168-.159.989.989 0 0 0-.23-.165c-.169-.071-.347.109-.263.373.093.294.212.462.486.752l.02.021c.265.28.376.432.467.696.133.388.295.505.584.304.541-.375.962-.553 1.634-.58.572-.023 1.119-.247 1.366-.577l.013.005c0 .074.005.147.017.236l.021.15c.036.236.046.368.034.55a5.75 5.75 0 0 0 .074 1.41l-.008.002.01.006-.002-.009c.338-.109.776.022 1.061.313.288-.055.604-.436.704-.816-.05-.57-.233-1.085-.564-1.718-.051-.098-.19-.354-.258-.478l-.037-.068a3.655 3.655 0 0 1-.218-.462c-.095-.26-.45-.48-.741-.358a1.028 1.028 0 0 1-.213.065c-.39.089-.605.165-1.17.461l-.048.026c-.11.057-.371.202-.534.292l-.135.074c-.225.121-.365.185-.466.206-.335.07-.504.068-.66-.06a1.322 1.322 0 0 0-.206-.14l.005-.005-.002-.01.05.03c.058.034.111.071.161.112.152.125.318.128.649.058.1-.021.239-.084.462-.204l.134-.074c.164-.09.426-.235.535-.293l.048-.025c.567-.297.783-.374 1.173-.463l.092-.023a1.21 1.21 0 0 0 .12-.041c.3-.125.662.1.76.366.045.125.111.263.216.46l.037.068c.068.124.207.38.259.479.331.634.516 1.151.566 1.726-.103.388-.423.774-.723.828ZM9.305 5.582l.016.01v-.003a.18.18 0 0 0-.016-.007Zm-.053-.01c.018 0 .035.003.053.01a2.686 2.686 0 0 0-.167-.084v-.003a.322.322 0 0 0-.036-.015l-.028-.014a1.166 1.166 0 0 1-.205-.12v-.002a.147.147 0 0 0-.01-.007l.01.008v.012l-.005.003a.125.125 0 0 1-.003-.004v-.012l-.01.006a.591.591 0 0 1-.03-.026l-.005-.005c-.093-.02-.2.08-.261.24l.01.01.299-.209c.046.036.103.07.181.109-.114-.006-.21.1-.332.373l.011.009.41-.338a12.52 12.52 0 0 1 .118.059Zm.048.025a2.4 2.4 0 0 0-.048-.025c-.13-.003-.253.177-.327.498l.012.007.381-.47-.013-.008.009.004-.003-.012-.006.008-.005-.002Zm-.354.445c.084-.335.22-.498.354-.445l.005.002-.359.443Zm0 0-.007.032-.013-.007.02-.025Zm.173-.537.015.008.006-.005-.002-.01-.019-.01-.017-.008a.213.213 0 0 0-.057-.011l.023.011.03.015c-.129-.043-.226.038-.359.324l-.024.02.01.01.014-.03.38-.314Zm.002-.001a.287.287 0 0 0-.023-.01l.015.009.006.002.002-.001Zm0 0 .01.005v-.013l-.01.008Zm-.543.038.274-.192H8.85c-.088-.057-.204.03-.273.192Zm0 0-.02.014.01.01a.649.649 0 0 1 .01-.024Z" fill="#000"/><path d="M13.418 7.76a2.21 2.21 0 0 0 .027.55l-.01.01a1.903 1.903 0 0 0-.1-.037 2.228 2.228 0 0 1-.02-.497l.003-.043a1.944 1.944 0 0 0-.11-.768c-.121-.386-.214-.913-.211-1.189l.096-.019c.003.267.095.792.216 1.177.102.322.122.503.11.773l-.002.043Zm.022.545-.01.008-.001-.012a.63.63 0 0 1 .011.004Zm-.097-.03a.904.904 0 0 1 .086.026 2.224 2.224 0 0 1-.026-.541l.002-.044a1.944 1.944 0 0 0-.11-.767c-.121-.387-.214-.914-.207-1.175l-.082.02c.002.266.095.792.216 1.177.101.321.122.503.11.773l-.002.043c-.01.208-.007.317.013.488Z" fill="#000"/><path d="M11.719 5.01c-.082.037-.081.168-.015.37.052.163.146.366.258.575l.014-.006-.247-.933-.01-.005Zm1.197 3.016c.01.065.016.142.015.222l-.006.007-.025.005a.922.922 0 0 1-.11.02 5.766 5.766 0 0 1-.076-1.422c.013-.18.002-.31-.033-.545a6.124 6.124 0 0 1-.022-.151 1.057 1.057 0 0 1-.009-.246l.168.01c-.001.138.035.456.074.687.02-.011.05-.014.095-.013h.019a.33.33 0 0 0 .074-.003c.016-.005.022-.013.02-.028l.007.03a.045.045 0 0 1-.023.012.26.26 0 0 1-.079.004h-.018c-.05-.001-.079.003-.096.017l-.012-.005a4.225 4.225 0 0 1-.069-.694l-.153-.01c0 .075.005.148.016.237l.022.15c.035.236.046.368.034.55-.032.463-.012.932.066 1.412.03-.01.08-.022.121-.03v.005l.006-.007-.006.001c0-.076-.004-.15-.01-.222a.389.389 0 0 1 .155.003l.072.015c.092.02.106.023.133.024.033 0 .046-.01.045-.034-.002-.026 0-.096.002-.181a.032.032 0 0 0 .016-.028h-.015.015a3.29 3.29 0 0 0-.004.208c.003.035-.019.05-.06.05a.63.63 0 0 1-.135-.024.707.707 0 0 0-.214-.026Zm.398-.206v.026c-.014.008-.035.01-.063.009a.971.971 0 0 1-.152-.028l-.008-.002c-.13-.03-.178-.038-.198-.025l-.011-.005a2.392 2.392 0 0 1-.023-.528c.008-.22.007-.298-.01-.392a.406.406 0 0 1 .126-.01 2.2 2.2 0 0 1 .044.002.464.464 0 0 0 .115 0c.027-.006.036-.018.03-.041a3.13 3.13 0 0 1-.037-.145l-.002-.008-.018-.075c.007-.009.01-.02.006-.036l-.014.003.014-.003.026.107.002.009c.018.072.029.117.037.143.01.034-.006.053-.041.06a.469.469 0 0 1-.119.002 2.2 2.2 0 0 0-.125-.003h-.034c.021.087.023.166.014.388a2.38 2.38 0 0 0 .022.515c.027-.01.075-.002.199.027l.008.002a.962.962 0 0 0 .15.028c.04.002.06-.004.062-.02Zm0 0v-.003.003Zm-.215-1.255v.004-.004ZM11.717 5.03l-.003-.01.01.006a.078.078 0 0 0-.007.004Zm.228.862a3.525 3.525 0 0 1-.228-.516c-.06-.188-.064-.31 0-.346l.228.862Zm0 0 .03.056-.014.006-.016-.062Zm-.184.257.005.017a1.89 1.89 0 0 0 .206-.095l-.005-.016-.206.094Zm0 0c.069-.026.137-.058.205-.094l.006.017-.206.094-.005-.017Zm-1.179.229.004.017.153-.048-.003-.017h-.002c-.051.015-.101.03-.15.047h-.002Zm0 0 .004.016c.05-.017.1-.032.153-.047l-.003-.017h-.002l-.15.047h-.002Z" fill="#000"/><path d="M11.183 6.167c.558-.058 1.105-.322 1.33-.663l.013.003.018.12a1.31 1.31 0 0 1-.568.432l.014.042c.005.018.01.033.016.047.044.118.097.168.175.128l-.061.029c-.053-.007-.093-.061-.128-.152a.983.983 0 0 1-.016-.047c-.003-.01-.014-.044-.01-.052.25-.114.449-.265.565-.43l-.016-.097.01-.015-.013-.003.003.018c-.234.339-.777.597-1.33.655a2.834 2.834 0 0 0-1.343.487.25.25 0 0 0-.087-.086.991.991 0 0 1-.027-.02c-.201-.157-.293-.354-.28-.537.01-.128.073-.223.146-.232a.378.378 0 0 0 .042.02c-.08-.032-.163.067-.174.213-.013.178.077.37.275.524l.026.02c.052.037.073.057.081.088a2.74 2.74 0 0 1 1.339-.492Zm-1.544-.368a.095.095 0 0 0-.045-.005.423.423 0 0 1-.04-.025l-.052-.041a.324.324 0 0 0-.003-.002c-.07-.055-.214.167-.196.402.008.106.094.278.183.383l-.007.013c-.147-.029-.217-.069-.3-.188a.364.364 0 0 1 .152-.053l.004.01.006-.01h-.01l-.01-.026a.384.384 0 0 1-.022-.068.18.18 0 0 1-.003-.053h-.007a.465.465 0 0 0-.229.076 3.927 3.927 0 0 0-.034-.035l-.11-.11-.038-.038a1.344 1.344 0 0 1-.284-.37c-.08-.166-.09-.317-.033-.396.037-.052.096-.063.163-.032l.024.023.038.036c-.089-.076-.17-.08-.214-.018-.052.074-.043.219.035.38.06.123.14.223.281.366a14.46 14.46 0 0 0 .148.148c.012.012.024.024.025.034a.372.372 0 0 1 .227-.073c-.018-.244.135-.48.22-.413l.003.002.052.04a.377.377 0 0 0 .076.043Zm-.301.499a.567.567 0 0 0-.15.04c.079.1.143.14.273.166a.99.99 0 0 1-.123-.206ZM8.786 5.29Zm.035.034-.001-.002v.002Zm-.027-.047a.318.318 0 0 0-.07-.046l-.144-.136a.99.99 0 0 0-.23-.165c-.169-.071-.347.109-.263.373.093.294.212.462.486.752l.02.021c.265.28.376.432.467.696.061.18.127.297.21.358.099.072.22.06.374-.053l.052-.038h.001c.014-.01.025-.02.041-.03.118-.072.261.047.267.24l-.015.04.014.003a.404.404 0 0 0 0-.043c.04-.112.037-.182.001-.26a.721.721 0 0 0-.026-.048V6.94c-.006-.01-.025-.044-.02-.05-.02.01-.034.002-.045-.02a.305.305 0 0 1-.02-.07l-.001-.008c-.01-.046-.016-.065-.024-.071v-.013c.225-.147.452-.258.722-.33.014.136.05.205.122.192l.101-.021a.086.086 0 0 0 .051.006c-.05.008-.099.019-.15.03-.085.015-.124-.062-.13-.2a2.71 2.71 0 0 0-.7.33.211.211 0 0 1 .022.074l.002.009a.297.297 0 0 0 .018.065c.008.015.014.019.034.016l.03.054c.012.02.02.035.027.05.042.09.04.172-.015.312L9.99 7.29c.016-.207-.13-.34-.243-.27l-.04.03h-.002a6.206 6.206 0 0 0-.052.038c-.158.116-.286.13-.39.054-.087-.063-.154-.183-.216-.365-.09-.262-.2-.413-.463-.691l-.02-.022c-.276-.29-.396-.46-.49-.757-.088-.277.102-.469.283-.392a1.001 1.001 0 0 1 .234.167l.168.16.036.034Zm2.07 1.262a2.63 2.63 0 0 0-.05.01c-.047-.023-.07-.099-.078-.22.143-.035.295-.059.455-.073.192-.016.388-.057.58-.114.044.163.098.256.17.231.064-.021.123-.044.179-.068a.114.114 0 0 0 .06-.011 2.11 2.11 0 0 1-.235.094c-.084.03-.142-.07-.18-.237a2.45 2.45 0 0 1-.573.12c-.16.014-.31.039-.447.065.014.142.048.216.12.203Zm0 0 .003.015h-.002.002l-.002-.015Zm-2.07-1.262c.012.01.025.023.037.036l-.01.01.01-.01a7.789 7.789 0 0 1-.037-.036Zm.845.522h.003l-.006.015.006-.014-.003-.001Zm2.542.495.007-.004-.007-.014.007.014-.007.004Zm1.565 2.611c-.096.409.017.87.276 1.118v.012a5.207 5.207 0 0 1-1.135.78c-.117.06-.218.127-.327.214a4.696 4.696 0 0 0-.173.146 1.81 1.81 0 0 1-.218.161c.397.071.847.455 1.149.958.357.595.712.887 1.29 1.19.321.168.305.385.046.707-.172.214-.24.387-.34.774-.109.42-.184.607-.386.845-.184.219-.437.142-.464-.06a.884.884 0 0 1 .016-.27c.009-.05.045-.226.063-.313l.01-.048a.743.743 0 0 0 .007-.037.14.14 0 0 0 .006.047l-.009.042c-.018.086-.054.261-.063.312a.87.87 0 0 0-.016.264c.026.19.264.262.44.053.199-.236.274-.42.382-.84.1-.388.17-.563.343-.779.253-.315.27-.52-.042-.684-.58-.303-.937-.597-1.295-1.195-.305-.508-.763-.894-1.16-.954l-.002-.014c.075-.044.142-.094.234-.171a26.842 26.842 0 0 0 .173-.146c.11-.088.211-.156.33-.216a5.2 5.2 0 0 0 1.125-.772l.006.006v-.012l-.006.006c-.259-.253-.37-.717-.273-1.121-.189-.234-.661-.33-1.025-.233-.35.26-.64.592-.917 1.017-.076.117-.23.384-.38.645-.155.27-.307.534-.362.612a1.88 1.88 0 0 1-.05.07c-.168.215-.172.647.075.852a.948.948 0 0 1 .132.13l.043.049.077.088c.053.06.106.115.17.175.165.156.388.333.704.553.16.111.666.445.664.444.223.15.35.248.42.332.225.269.308.425.28.631a1.44 1.44 0 0 0-.012.256l-.006-.001-.008.007c-.004-.098 0-.176.012-.264.027-.2-.054-.353-.277-.619-.07-.082-.195-.18-.417-.33.002.002-.504-.332-.664-.444a6.1 6.1 0 0 1-.706-.553 2.863 2.863 0 0 1-.171-.176l-.077-.09-.042-.047a1.276 1.276 0 0 0-.131-.129c-.254-.21-.25-.652-.078-.874a.965.965 0 0 0 .05-.07c.055-.077.206-.339.36-.609.15-.26.305-.53.382-.647.277-.426.57-.76.923-1.022.37-.1.85-.002 1.044.244Zm-.207 5.646v-.016h-.002l.002.016Zm.017.055a.171.171 0 0 1-.017-.055c.002.054.006.113.013.184v.012l-.002.001a1.384 1.384 0 0 1 .011.32l-.001.014.001-.014.01-.005.005.002c0 .006 0 .011-.002.016v-.01l-.01.005.01.005v.003a.68.68 0 0 1-.007.038l-.001.007c.03.095.167.143.33.117l.001-.014-.32-.167a1.171 1.171 0 0 0-.002-.22c.052.107.188.141.474.116l.002-.014-.484-.204-.001-.01a5.092 5.092 0 0 1-.01-.127Zm-.003-.056.003.056c.063.12.274.142.575.049v-.015l-.579-.111.001.016-.002-.01-.008.008.01.002v.005Zm.544.1c-.317.09-.52.048-.544-.1v-.005l.544.104Zm0 0 .03-.01v.015l-.03-.006Zm-.529.11-.001-.017-.007-.002-.008.006.004.04a.22.22 0 0 0 .019.058 6.288 6.288 0 0 0-.005-.059c.03.137.145.185.446.163l.03.012.002-.015-.032.003-.448-.188Zm-.002 0 .004.026-.002-.025-.002-.002Zm0 0-.002-.013-.01.008.012.004Zm.303.475-.295-.154v.003c-.001.107.128.17.295.15Zm0 0 .022.01.002-.014a.502.502 0 0 1-.024.004Z" fill="#000"/><path d="M13.262 9.734a2.04 2.04 0 0 0 .457-.31l.012.005.008.043.013.066a2.03 2.03 0 0 1-.418.276l-.041.022c-.21.115-.35.228-.557.471-.258.304-.646.652-.875.787l-.064-.078c.218-.135.606-.482.862-.785a1.81 1.81 0 0 1 .562-.475l.04-.022Zm.454-.303.012.005-.01.008a.718.718 0 0 1-.002-.013Zm.003.013c-.15.132-.24.19-.45.303l-.042.023c-.209.115-.35.228-.557.471-.257.304-.646.652-.864.776l.057.065c.218-.135.605-.482.862-.785a1.81 1.81 0 0 1 .561-.475l.041-.022a2.32 2.32 0 0 0 .413-.265 1.016 1.016 0 0 1-.021-.09Z" fill="#000"/><path d="M13.748 10.048c.049-.042.11-.086.176-.124l.009.001.017.02c.025.029.053.062.072.09a5.21 5.21 0 0 1-1.135.78c-.118.06-.218.127-.327.214a4.696 4.696 0 0 0-.174.146 1.17 1.17 0 0 1-.245.17l-.076-.157c.115-.069.36-.262.53-.412-.02-.013-.037-.04-.061-.085l-.014-.026a.55.55 0 0 0-.013-.024c-.02-.036-.035-.046-.051-.032l.02-.021c.015.004.029.02.044.045a.544.544 0 0 1 .013.024l.014.026c.026.05.044.075.065.085l.002.013c-.172.151-.424.35-.538.41l.068.143a1.71 1.71 0 0 0 .234-.171 24.084 24.084 0 0 0 .174-.146c.11-.088.21-.156.329-.216a5.55 5.55 0 0 0 1.131-.767 1.982 1.982 0 0 1-.086-.094l.005-.003-.009-.002.004.005c-.063.038-.122.08-.178.12a.47.47 0 0 1-.085-.17 4.096 4.096 0 0 1-.019-.062l-.017-.055a.262.262 0 0 0-.036-.079c-.012-.014-.023-.017-.039-.006a2.743 2.743 0 0 1-.15.089.03.03 0 0 0-.031 0l.007.013-.007-.013c.074-.042.15-.085.173-.101.022-.016.041-.012.058.009a.273.273 0 0 1 .038.083l.018.055.019.061a.75.75 0 0 0 .071.164Zm-.368-.26.022-.011c.013.007.026.026.039.053.016.033.029.073.053.153l.022.074c.024.075.042.115.058.124l.002.013a1.524 1.524 0 0 1-.254.188 10.5 10.5 0 0 1-.304.173 1.29 1.29 0 0 0-.185.129.483.483 0 0 1-.077-.122l-.009-.017a3.624 3.624 0 0 0-.027-.055.388.388 0 0 0-.032-.056c-.02-.026-.036-.03-.053-.011-.018.02-.05.055-.105.11l-.002.002-.052.053c-.01-.003-.022.001-.033.013l.01.01-.01-.01.074-.077.002-.002c.054-.055.087-.089.105-.11.025-.027.05-.02.075.013.01.014.02.032.034.058l.027.055.008.017c.022.043.04.074.053.098l.011.02a.832.832 0 0 1 .178-.131l.087-.05c.075-.042.177-.099.218-.124.096-.058.175-.115.244-.18-.018-.016-.035-.056-.057-.126l-.022-.074a1.112 1.112 0 0 0-.053-.152c-.017-.038-.033-.053-.047-.047Zm0 0-.002.002.002-.001Zm-.927.824.003-.003-.003.003Zm-.593 2.032c.071.056.178-.01.313-.171a3.69 3.69 0 0 0 .344-.522l-.011-.01-.647.692.001.011Zm.016-.007-.006.006v-.011a.08.08 0 0 0 .006.005Zm.286-.174c-.125.15-.223.213-.286.174l.598-.64a3.431 3.431 0 0 1-.312.466Zm.312-.465.03-.055.012.01-.042.045Zm.124-.101c.06.046.117.095.17.146l.01-.012-.01.012-.17-.146.008-.012-.008.012Zm.01-.01-.002-.002.002.001Zm0 0 .168.142.002.002-.002-.002a2.31 2.31 0 0 0-.168-.143Zm.95 1.117.004.004.01-.012-.01.012-.004-.004Zm-.115-.12.115.12a3.422 3.422 0 0 1-.115-.12Zm-.003-.005.011-.011.122.128a3.87 3.87 0 0 1-.122-.128l-.011.011Zm0 0a.146.146 0 0 1 .003.005l-.004-.004Z" fill="#000"/><path d="m11.875 11.673-.004-.013c.006 0 .012 0 .018.002l-.014.011Zm.851-.042a.13.13 0 0 1-.005.1.443.443 0 0 1-.123.166c-.22-.17-.444-.275-.638-.298l-.071.063c.396.043.88.408 1.205.882.313.458.655.748 1.073.977a.274.274 0 0 0-.028.123v.002a1.279 1.279 0 0 1-.003.032c-.028.261-.145.444-.302.523-.11.055-.22.045-.265-.016a.438.438 0 0 0-.004-.045c.017.085.138.11.262.047.153-.076.267-.254.295-.511l.002-.032v-.002c.006-.066.011-.095.034-.118a2.872 2.872 0 0 1-1.076-.971c-.327-.478-.818-.844-1.212-.878l-.004-.014.09-.075c.203.02.429.127.64.3l.046-.054a.43.43 0 0 0 .066-.106c.022-.056.013-.101-.035-.136l.008-.012-.008.012.053.041Zm.855 1.067c.005.054-.045.113-.142.18a3.34 3.34 0 0 1-.287-.377 3.183 3.183 0 0 0-.384-.47c.112-.122.162-.217.106-.27-.05-.048-.1-.091-.148-.13a.122.122 0 0 0-.038-.048c.064.047.128.103.195.167.067.062.014.163-.105.281.143.136.276.294.386.462.091.138.186.263.276.374.111-.085.154-.152.108-.21l.011-.01-.01.01.032.04Zm.982.385c-.126.023-.18.067-.235.166l-.002.005c-.01.017-.03.056-.035.051.017.011.018.028.007.047a.244.244 0 0 1-.043.05l-.007.006c-.039.038-.051.052-.052.063l-.01.007a2.53 2.53 0 0 1-.635-.492c.106-.08.146-.148.1-.207a3.182 3.182 0 0 1-.07-.081.094.094 0 0 0-.018-.048c.032.041.064.08.098.12.055.069.01.143-.1.217.192.194.394.343.623.473.005-.014.02-.03.054-.063l.007-.006a.236.236 0 0 0 .04-.047c.008-.012.007-.02-.005-.036l.007-.012a.802.802 0 0 1 .029-.054c.062-.114.125-.158.286-.18l.004.014c-.178.09-.215.288-.101.357l.045.022.058.029c.175.086.25.195.24.328-.01.11-.075.23-.194.379-.172.214-.24.387-.34.774-.109.42-.184.607-.386.845-.184.219-.437.142-.464-.06a.888.888 0 0 1 .016-.27c.009-.05.045-.226.063-.313v-.002a.355.355 0 0 0-.003.091c-.018.087-.04.19-.046.227a.873.873 0 0 0-.015.264c.025.19.263.262.439.053.199-.236.274-.42.382-.84.1-.388.17-.563.343-.779.117-.146.182-.264.19-.37.01-.126-.061-.23-.231-.314l-.058-.028a3.212 3.212 0 0 0-.046-.023c-.117-.07-.09-.261.066-.363Zm-1.006 2.09-.017.083c.007.077.046.126.108.133.093.012.213-.072.31-.228.08-.13.12-.252.178-.508l.045-.192a.49.49 0 0 1-.18-.177.062.062 0 0 0 .025-.012.44.44 0 0 0 .078-.093.382.382 0 0 0 .12.111c.056-.134.054-.218.004-.366h-.014a.84.84 0 0 1-.224.358c-.184.134-.44.114-.43.023l.004-.032a.596.596 0 0 0 .005-.088.108.108 0 0 1-.019-.047l.014-.002.001.004v-.004l-.015.002a.459.459 0 0 1 0 .133l-.004.032c-.012.11.258.131.45-.007.037.073.1.132.174.17-.017.043-.02.056-.049.184-.057.254-.096.375-.176.503-.094.151-.209.232-.295.221-.074-.01-.11-.084-.093-.2Zm-.004-.054.015.003-.015-.003Zm0 0v.002-.002Zm.556-.948h.001a.773.773 0 0 1-.006.008.208.208 0 0 1-.006-.009h.011Zm.004-.005a.992.992 0 0 0 .108-.216.446.446 0 0 1 0 .331.608.608 0 0 1-.108-.115Zm.45-1.083a.894.894 0 0 1 .041-.006l-.004-.014a.357.357 0 0 0-.037.02Zm-1.01 2.038-.01.044a.484.484 0 0 1 .01-.044Zm.01-2.47-.004-.004c.002 0 .003.002.004.003Zm-.875-1.068-.007-.005a.114.114 0 0 1 .007.005Z" fill="#000"/><path d="m14.624 12.873-.115-.146-.013.004-.042.19-.18-.002-.006.013.116.153-.113.146.006.012.187.002.037.184.013.003.117-.153.162.083.01-.008-.042-.19.164-.081v-.014l-.17-.086.044-.183-.01-.009-.165.082Zm.158-.061-.157.078-.009-.002-.11-.14.004-.014-.012.003.009.012-.046.181-.173.004-.009-.012-.005.012h.014l.108.15-.105.145-.014-.001.006.012.008-.011.18.006.04.176-.009.011.013.003-.003-.014.116-.144.158.075.003.015.01-.008-.013-.007-.036-.184.155-.082.013.007v-.014l-.013.007-.16-.088.037-.176Zm0 0 .014-.007-.01-.008-.004.015Zm-.723-3.958c.385-.118.71-.451.784-.81l.01-.006c.446.164.844.381 1.211.642.152.108.243.152.51.26.128.051.203.086.279.131-.14-.395-.049-.997.215-1.523.313-.622.376-1.09.337-1.768-.022-.376.165-.47.56-.395.257.048.441.024.788-.072l.027-.008c.393-.109.588-.133.884-.07.272.058.335.327.181.453a.83.83 0 0 1-.249.127l-.23.078-.085.029-.012.004a.136.136 0 0 0 .03-.027l.062-.02.23-.078a.818.818 0 0 0 .245-.125c.144-.118.085-.37-.175-.426-.293-.063-.486-.039-.877.07l-.027.008c-.35.096-.535.12-.795.072-.386-.073-.564.016-.543.38.04.68-.024 1.15-.338 1.775-.267.532-.356 1.14-.207 1.531l-.01.01a1.796 1.796 0 0 0-.295-.142c-.268-.109-.36-.152-.513-.261a5.122 5.122 0 0 0-1.2-.638l.002-.008-.01.005.008.003c-.08.362-.406.695-.788.809-.099.289.058.766.32 1.048.142.069.29.126.443.173.473.143.86.174 1.63.176.396.001.55.007.715.034.262.044.62-.168.666-.495.007-.054.018-.103.034-.16l.048-.162c.022-.072.039-.136.056-.21.054-.238.093-.546.119-.989.01-.17.012-.238.025-.602.017-.456.032-.642.073-.772.11-.34.197-.492.38-.57a1.35 1.35 0 0 0 .218-.117l.002.007.01.003a1.37 1.37 0 0 1-.224.121c-.178.076-.264.225-.372.561-.04.128-.056.313-.072.768a21.21 21.21 0 0 1-.026.602 6.18 6.18 0 0 1-.12.992 3.028 3.028 0 0 1-.055.21c.004-.013-.039.127-.048.162a1.195 1.195 0 0 0-.034.159c-.047.335-.413.552-.682.507-.164-.027-.318-.033-.712-.034-.772-.001-1.16-.033-1.635-.177a3.003 3.003 0 0 1-.447-.174c-.268-.288-.427-.771-.321-1.071Zm4.762-2.636-.015.01h.002a.18.18 0 0 0 .013-.01Zm.035-.043a.16.16 0 0 1-.035.043 2.72 2.72 0 0 0 .153-.11l.003.002a.33.33 0 0 0 .03-.026l.03-.022c.053-.038.094-.066.134-.088a.721.721 0 0 1 .067-.035l.002.002a.163.163 0 0 0 .029-.015.524.524 0 0 0-.031.013l-.01-.005v-.007a.554.554 0 0 1 .016-.007v.002a.164.164 0 0 1-.01.005l.011.006v-.011a.57.57 0 0 1 .032-.014L19.3 5.9c.065-.078.03-.22-.083-.353l-.015.005.026.375a1.452 1.452 0 0 0-.183.112c.061-.102.021-.242-.142-.489l-.013.005.074.542-.076.056-.032.022Zm-.043.03a2.8 2.8 0 0 0 .044-.03c.066-.117-.02-.319-.248-.547l-.012.008.198.582.012-.009-.007.007.01.003-.003-.01.006-.003Zm-.192-.543c.234.243.3.449.192.544l-.006.003-.186-.547Zm0 0L18.6 5.64l.012-.008.01.031Zm.357.426-.014.01.001.007.009.004.016-.012.017-.013a.227.227 0 0 0 .038-.046l-.016.011-.032.024c.099-.095.081-.224-.088-.487l-.005-.033-.013.006.018.027.069.502Zm0 .002a.287.287 0 0 0 .02-.017l-.016.011-.005.004v.002Zm0 0-.01.008.012.005-.002-.013Zm.242-.513.024.343a.662.662 0 0 1 .015-.006c.089-.057.07-.2-.039-.337Zm0 0-.002-.026-.014.006a.692.692 0 0 1 .016.02Z" fill="#000"/><path d="M14.61 8.663a2.18 2.18 0 0 0-.11-.045l-.002-.013.033-.03.047-.044.056.024c.14.062.202.1.389.225.224.15.378.221.697.29.38.083.861.262 1.087.403l-.032.097c-.221-.13-.701-.31-1.08-.392a1.735 1.735 0 0 1-.702-.293 2.052 2.052 0 0 0-.383-.222Zm-.102-.046-.003-.013.012.005-.01.008Zm.073-.074a.944.944 0 0 1-.064.066 2.065 2.065 0 0 1 .484.264c.224.15.379.22.698.29.38.083.86.262 1.072.399l.025-.085c-.22-.13-.7-.309-1.078-.391a1.735 1.735 0 0 1-.703-.293 2.053 2.053 0 0 0-.387-.224l-.003-.001c-.017-.008-.034-.015-.044-.025Z" fill="#000"/><path d="M17.492 7.146c.018-.057.035-.11.049-.161l-.017-.004v.004l-.047.152-.001.004.016.005Zm-.016-.005.016.005.048-.16-.016-.005v.004c-.014.049-.03.099-.047.152l-.001.004ZM15 8.28a1.214 1.214 0 0 1-.19-.098l-.003-.009.008-.026c.011-.036.024-.079.038-.11.446.165.844.382 1.21.643.153.108.244.152.511.26.137.055.214.091.3.153l-.092.147a4.798 4.798 0 0 0-.605-.276.19.19 0 0 1-.028.079.914.914 0 0 1-.014.024.326.326 0 0 0-.037.074c-.006.02-.002.03.015.035l-.004.015.004-.015-.03-.01a.053.053 0 0 1 0-.03.326.326 0 0 1 .04-.077l.014-.024c.02-.036.028-.061.025-.081l.01-.008c.21.08.5.21.607.284l.084-.135a1.796 1.796 0 0 0-.294-.14c-.268-.11-.36-.153-.513-.262a5.483 5.483 0 0 0-1.199-.646 2.071 2.071 0 0 1-.035.125l-.005-.003.003.01.002-.007c.063.039.127.072.188.103a.58.58 0 0 1-.111.178l-.026.03-.03.035a.53.53 0 0 0-.042.055c-.022.035-.022.054 0 .065.023.012.083.05.149.093 0 .012.005.021.015.028l.008-.013-.008.013a3.256 3.256 0 0 0-.17-.107c-.032-.017-.032-.046-.006-.087a.521.521 0 0 1 .043-.057l.03-.036.026-.03a.568.568 0 0 0 .1-.15c.004-.008.006-.014.012-.012Zm-.027.466-.023-.015a.12.12 0 0 1 .022-.06c.02-.03.046-.063.097-.121l.007-.008c.094-.107.122-.145.121-.17l.01-.008c.118.04.227.1.37.192l.005.003c.029.02.169.112.209.136.075.046.133.075.191.1a.373.373 0 0 1-.035.086 1.145 1.145 0 0 1-.033.055v.001c-.044.072-.053.086-.06.102l-.004.012c-.012.032-.008.048.016.054.027.006.071.019.145.04l.006.003.05.015.015.004c.004.011.013.02.027.024l-.045-.014-.05-.015-.006-.001a2.908 2.908 0 0 0-.145-.04c-.035-.01-.042-.036-.027-.075l.005-.014c.007-.016.016-.03.06-.102l.001-.002.032-.055.016-.031a.29.29 0 0 1 .024-.042.79.79 0 0 1-.19-.092 13.68 13.68 0 0 1-.21-.136l-.005-.003a1.705 1.705 0 0 0-.358-.188c-.005.03-.036.07-.125.171l-.006.008a.982.982 0 0 0-.095.12c-.023.035-.026.057-.012.066Zm3.113-.047c.01-.093-.098-.157-.298-.199a3.29 3.29 0 0 0-.603-.052l-.001.015.893.242.009-.006Zm-.014-.011.008.002-.009.007v-.009Zm-.826-.224c.204.004.394.021.54.051.185.039.287.097.286.173l-.826-.224Zm0 0h-.06l.001-.016.059.016Zm-.143-.062c.01-.078.023-.154.04-.228l-.016-.003-.04.229.016.002Zm0 0-.017-.002a2.22 2.22 0 0 1 .04-.229l.017.003-.04.228Z" fill="#000"/><path d="M17.4 7.633c-.23.536-.287 1.166-.118 1.542l-.01.01-.107-.044c-.084-.195-.11-.454-.073-.732l-.037-.008a.778.778 0 0 0-.077-.013c-.101-.011-.159.014-.167.094l.007-.065c.029-.04.084-.053.162-.045a.791.791 0 0 1 .078.014c.009.001.035.007.043.016-.03.285-.005.54.073.729l.087.033a.85.85 0 0 0 .008.017l.009-.01-.017-.007c-.162-.382-.103-1.005.126-1.537.22-.514.29-.97.27-1.464.033 0 .059-.009.111-.035l.003-.001a.838.838 0 0 1 .03-.014c.23-.105.439-.09.583.013.1.072.147.177.12.248a.378.378 0 0 0-.04.03l.01.011a.105.105 0 0 0 .03-.041.743.743 0 0 1 .092-.047l.01-.004c.08-.037-.031-.279-.234-.38-.092-.046-.276-.053-.407-.025l-.007-.012c.097-.12.165-.163.304-.18a.409.409 0 0 1-.032.165l-.01-.001.006.01a.276.276 0 0 0 .004-.009h.005c.042.006.069.01.092.019a.179.179 0 0 1 .042.022l.003-.006a.525.525 0 0 0 .052-.245 4.79 4.79 0 0 0 .13-.04c.172-.053.2-.062.274-.079a.998.998 0 0 1 .285-.029c.177.01.306.077.343.168.025.06.005.12-.055.164l-.04.014-.038.013c.106-.043.15-.114.12-.185-.034-.084-.159-.149-.33-.158a.985.985 0 0 0-.282.028 3.166 3.166 0 0 0-.273.08.647.647 0 0 1-.125.03.42.42 0 0 1-.053.243c.21.106.328.362.232.407l-.01.004a.413.413 0 0 0-.129.074l-.009-.012c.066-.056.027-.181-.088-.264-.14-.1-.344-.115-.57-.012a1 1 0 0 0-.029.014h-.002c-.055.028-.082.037-.112.029a3.1 3.1 0 0 1-.263 1.463Zm1.927-1.727a.316.316 0 0 0 .074-.04l.19-.065a.819.819 0 0 0 .245-.125c.144-.118.085-.37-.175-.426-.293-.063-.486-.039-.877.07l-.027.008c-.35.096-.535.12-.795.072-.179-.034-.308-.033-.4.012-.109.054-.159.171-.143.367l.002.019.003.045v.003l.005.053c0 .142-.17.213-.332.122a.838.838 0 0 1-.026-.034l-.01.011a.356.356 0 0 0 .036.023c.048.06.09.095.135.113a.36.36 0 0 0 .162.018c.014 0 .02 0 .022.006 0-.021.015-.03.038-.03a.26.26 0 0 1 .066.016l.004.002c.049.016.067.02.076.015l.01.007c.01.277-.012.54-.088.822-.12-.056-.194-.058-.22.014l-.032.103a.093.093 0 0 0-.032.045l.014.006a3.23 3.23 0 0 0 .018-.051c.042-.032.116-.015.22.039a3.444 3.444 0 0 1-.168.45 3.307 3.307 0 0 0-.195.584c-.157-.041-.26-.038-.276.039-.014.07-.025.135-.033.198a.13.13 0 0 0-.022.063v.005l.014.002v-.005.005l-.014-.002m.8-2.307c-.013.002-.033-.003-.076-.018l-.005-.001a.252.252 0 0 0-.062-.015c-.016-.001-.022.003-.03.022h-.029a.374.374 0 0 1-.167-.018.407.407 0 0 1-.167-.151l.01-.011c.162.118.344.052.344-.086a4.35 4.35 0 0 1-.004-.053v-.003l-.004-.045-.001-.018c-.017-.202.036-.326.15-.383.096-.046.228-.047.41-.013.257.048.44.024.788-.072l.027-.008c.393-.109.588-.133.884-.07.271.058.335.327.181.453a.83.83 0 0 1-.25.127l-.23.078a.343.343 0 0 1-.038.013.462.462 0 0 1-.047.016l-.004-.015.047-.015a.45.45 0 0 1-.046.015l.004.015.046-.016M17.982 5.9a.894.894 0 0 1 .233-.01.635.635 0 0 0 .041-.155.402.402 0 0 0-.274.165Z" fill="#000"/></g></svg>