<svg width="28" height="20" fill="none" xmlns="http://www.w3.org/2000/svg"><rect x=".25" y=".25" width="27.5" height="19.5" rx="1.75" fill="#fff" stroke="#F5F5F5" stroke-width=".5"/><mask id="a" style="mask-type:alpha" maskUnits="userSpaceOnUse" x="0" y="0" width="28" height="20"><rect x=".25" y=".25" width="27.5" height="19.5" rx="1.75" fill="#fff" stroke="#fff" stroke-width=".5"/></mask><g mask="url(#a)" fill-rule="evenodd" clip-rule="evenodd"><path d="M28 0H16v10.667H0V20h28V0Z" fill="#E20F1B"/><path d="M7 1.333a.333.333 0 0 0-.333.334V4H4.333A.333.333 0 0 0 4 4.333v2c0 .184.15.334.333.334h2.334V9c0 .184.149.333.333.333h2A.333.333 0 0 0 9.333 9V6.667h2.334c.184 0 .333-.15.333-.334v-2A.333.333 0 0 0 11.667 4H9.333V1.667A.333.333 0 0 0 9 1.333H7Z" fill="url(#b)"/></g><defs><linearGradient id="b" x1="4" y1="1.333" x2="4" y2="9.333" gradientUnits="userSpaceOnUse"><stop stop-color="#DF101B"/><stop offset="1" stop-color="#C00711"/></linearGradient></defs></svg>