<svg width="28" height="20" fill="none" xmlns="http://www.w3.org/2000/svg"><rect width="28" height="20" rx="2" fill="#fff"/><mask id="a" style="mask-type:alpha" maskUnits="userSpaceOnUse" x="0" y="0" width="28" height="20"><rect width="28" height="20" rx="2" fill="#fff"/></mask><g mask="url(#a)" fill-rule="evenodd" clip-rule="evenodd"><path d="M0 2.667h28V0H0v2.667Zm0 10.666h28v-2.666H0v2.666Z" fill="#262626"/><path d="M0 10.667h28v-4H0v4Z" fill="#ED1623"/><path d="M0 6.667h28v-4H0v4Z" fill="#FEE044"/><path d="M0 20h28v-2.667H0V20Z" fill="#ED1623"/><path d="M0 17.333h28v-4H0v4Z" fill="#FEE044"/><path d="M14 14.667a4.667 4.667 0 1 0 0-9.334 4.667 4.667 0 0 0 0 9.334Z" fill="#fff"/><path d="M12.902 7.569a.333.333 0 0 1 0-.471l.412-.412a.395.395 0 0 0 .035-.04c.035-.047.124-.16.229-.254.177-.161.68-.178.854-.015.048.045.09.094.127.14.072.09.076.212.025.315l-.549 1.098a.333.333 0 0 0-.035.149v.382c0 .126.071.241.184.298l1.101.55a.335.335 0 0 1 .087.063l1.125 1.125a.333.333 0 0 1 .062.385l-.352.704a.333.333 0 0 1-.534.087l-.104-.104a.333.333 0 0 0-.471 0l-.334.333a.333.333 0 0 0-.097.236v.39c0 .089.035.174.097.236.21.21.062.57-.235.57h-.39a.333.333 0 0 1-.237-.57.333.333 0 0 0 .098-.235v-.196a.333.333 0 0 0-.333-.333h-.196a.333.333 0 0 0-.235.098l-.334.333a.333.333 0 0 1-.471 0l-.195-.195a.333.333 0 0 1 0-.472l.333-.333a.333.333 0 0 1 .236-.098h.39a.333.333 0 0 0 .236-.569L12.236 9.57a.333.333 0 0 1 0-.471l.862-.862a.333.333 0 0 0 0-.472l-.196-.195Z" fill="#262626"/></g></svg>