<svg width="28" height="20" viewBox="0 0 28 20" fill="none" xmlns="http://www.w3.org/2000/svg">
<g clip-path="url(#clip0_1310_7853)">
<path d="M28 0H0V20H28V0Z" fill="url(#paint0_linear_1310_7853)"/>
<path d="M28 0H0V20H28V0Z" fill="url(#paint1_linear_1310_7853)"/>
<path d="M28.0001 8H0.00012207V10.6667H28.0001V8Z" fill="url(#paint2_linear_1310_7853)"/>
<path fill-rule="evenodd" clip-rule="evenodd" d="M7.33346 16.3334L6.3034 17.8369L6.35381 16.0151L4.63673 16.626L5.74836 15.1817L4.00012 14.6667L5.74836 14.1517L4.63673 12.7074L6.35381 13.3183L6.3034 11.4965L7.33346 13L8.36351 11.4965L8.3131 13.3183L10.0302 12.7074L8.91855 14.1517L10.6668 14.6667L8.91855 15.1817L10.0302 16.626L8.3131 16.0151L8.36351 17.8369L7.33346 16.3334Z" fill="url(#paint3_linear_1310_7853)"/>
</g>
<defs>
<linearGradient id="paint0_linear_1310_7853" x1="14" y1="0" x2="14" y2="20" gradientUnits="userSpaceOnUse">
<stop stop-color="white"/>
<stop offset="1" stop-color="#F0F0F0"/>
</linearGradient>
<linearGradient id="paint1_linear_1310_7853" x1="14" y1="0" x2="14" y2="20" gradientUnits="userSpaceOnUse">
<stop stop-color="#0744A7"/>
<stop offset="1" stop-color="#00307D"/>
</linearGradient>
<linearGradient id="paint2_linear_1310_7853" x1="14.0001" y1="8" x2="14.0001" y2="10.6667" gradientUnits="userSpaceOnUse">
<stop stop-color="#FCC747"/>
<stop offset="1" stop-color="#FEC539"/>
</linearGradient>
<linearGradient id="paint3_linear_1310_7853" x1="7.33346" y1="11.4965" x2="7.33346" y2="17.8369" gradientUnits="userSpaceOnUse">
<stop stop-color="white"/>
<stop offset="1" stop-color="#F0F0F0"/>
</linearGradient>
<clipPath id="clip0_1310_7853">
<rect width="28" height="20" rx="2" fill="white"/>
</clipPath>
</defs>
</svg>
