<svg width="28" height="20" fill="none" xmlns="http://www.w3.org/2000/svg"><rect width="28" height="20" rx="2" fill="#fff"/><mask id="a" style="mask-type:alpha" maskUnits="userSpaceOnUse" x="0" y="0" width="28" height="20"><rect width="28" height="20" rx="2" fill="#fff"/></mask><g mask="url(#a)"><path fill-rule="evenodd" clip-rule="evenodd" d="M28 0v10H0V0h28Z" fill="#29C53F"/><path fill-rule="evenodd" clip-rule="evenodd" d="M28 10v10.667H0V10h28Z" fill="#579DED"/><path fill-rule="evenodd" clip-rule="evenodd" d="m0 20 28-10L0 0v20Z" fill="#F42D56"/><path d="M12.667 10a4 4 0 1 1-8 0 4 4 0 0 1 8 0Z" stroke="#FFC63C" stroke-width="1.333"/><path fill-rule="evenodd" clip-rule="evenodd" d="M8 9.333A.667.667 0 1 0 8 8a.667.667 0 0 0 0 1.333Z" fill="#FFC63C"/><path fill-rule="evenodd" clip-rule="evenodd" d="M9.333 10a.667.667 0 1 0 0-1.333.667.667 0 0 0 0 1.333Zm-.666-1.333a.667.667 0 1 0 0-1.334.667.667 0 0 0 0 1.334Zm-.667 2a.667.667 0 1 0 0-1.334.667.667 0 0 0 0 1.334Z" fill="#FFC63C"/><path fill-rule="evenodd" clip-rule="evenodd" d="M9.333 11.333a.667.667 0 1 0 0-1.333.667.667 0 0 0 0 1.333ZM8 12a.667.667 0 1 0 0-1.333A.667.667 0 0 0 8 12Z" fill="#FFC63C"/><path fill-rule="evenodd" clip-rule="evenodd" d="M9.333 12.667a.667.667 0 1 0 0-1.334.667.667 0 0 0 0 1.334Z" fill="#FFC63C"/></g></svg>