<svg width="28" height="20" viewBox="0 0 28 20" fill="none" xmlns="http://www.w3.org/2000/svg">
<g clip-path="url(#clip0_1310_7638)">
<path d="M28 0H0V20H28V0Z" fill="url(#paint0_linear_1310_7638)"/>
<g filter="url(#filter0_d_1310_7638)">
<path d="M28 0H0V10.6667H28V0Z" fill="black"/>
</g>
<path d="M28 0H0V10.6667H28V0Z" fill="url(#paint1_linear_1310_7638)"/>
<path fill-rule="evenodd" clip-rule="evenodd" d="M4 10.6667H0V20H28V10.6667H14.6667C14.6667 7.72116 12.2789 5.33334 9.33333 5.33334C6.38781 5.33334 4 7.72116 4 10.6667Z" fill="url(#paint2_linear_1310_7638)"/>
<path fill-rule="evenodd" clip-rule="evenodd" d="M4 10.6667C4 13.6122 6.38781 16 9.33333 16C12.2789 16 14.6667 13.6122 14.6667 10.6667H4Z" fill="url(#paint3_linear_1310_7638)"/>
</g>
<defs>
<filter id="filter0_d_1310_7638" x="-5.33333" y="-5.33333" width="38.6667" height="21.3333" filterUnits="userSpaceOnUse" color-interpolation-filters="sRGB">
<feFlood flood-opacity="0" result="BackgroundImageFix"/>
<feColorMatrix in="SourceAlpha" type="matrix" values="0 0 0 0 0 0 0 0 0 0 0 0 0 0 0 0 0 0 127 0" result="hardAlpha"/>
<feOffset/>
<feGaussianBlur stdDeviation="2.66667"/>
<feColorMatrix type="matrix" values="0 0 0 0 0 0 0 0 0 0 0 0 0 0 0 0 0 0 0.06 0"/>
<feBlend mode="normal" in2="BackgroundImageFix" result="effect1_dropShadow_1310_7638"/>
<feBlend mode="normal" in="SourceGraphic" in2="effect1_dropShadow_1310_7638" result="shape"/>
</filter>
<linearGradient id="paint0_linear_1310_7638" x1="14" y1="0" x2="14" y2="20" gradientUnits="userSpaceOnUse">
<stop stop-color="white"/>
<stop offset="1" stop-color="#F0F0F0"/>
</linearGradient>
<linearGradient id="paint1_linear_1310_7638" x1="14" y1="0" x2="14" y2="10.6667" gradientUnits="userSpaceOnUse">
<stop stop-color="white"/>
<stop offset="1" stop-color="#F0F0F0"/>
</linearGradient>
<linearGradient id="paint2_linear_1310_7638" x1="14" y1="5.33334" x2="14" y2="20" gradientUnits="userSpaceOnUse">
<stop stop-color="#E82245"/>
<stop offset="1" stop-color="#CC1838"/>
</linearGradient>
<linearGradient id="paint3_linear_1310_7638" x1="9.33333" y1="10.6667" x2="9.33333" y2="16" gradientUnits="userSpaceOnUse">
<stop stop-color="white"/>
<stop offset="1" stop-color="#F0F0F0"/>
</linearGradient>
<clipPath id="clip0_1310_7638">
<rect width="28" height="20" rx="2" fill="white"/>
</clipPath>
</defs>
</svg>
