<svg width="28" height="20" viewBox="0 0 28 20" fill="none" xmlns="http://www.w3.org/2000/svg">
<g clip-path="url(#clip0_503_2699)">
<rect x="0.25" y="0.25" width="27.5" height="19.5" rx="1.75" fill="white" stroke="#F5F5F5" stroke-width="0.5"/>
<mask id="mask0_503_2699" style="mask-type:alpha" maskUnits="userSpaceOnUse" x="0" y="0" width="28" height="20">
<rect x="0.25" y="0.25" width="27.5" height="19.5" rx="1.75" fill="white" stroke="white" stroke-width="0.5"/>
</mask>
<g mask="url(#mask0_503_2699)">
<path fill-rule="evenodd" clip-rule="evenodd" d="M28 0H8V20H28V0Z" fill="#0A632F"/>
<path fill-rule="evenodd" clip-rule="evenodd" d="M23.6702 10.7505C23.5418 12.0012 23.0088 13.2029 22.0666 14.1451C19.8207 16.391 16.1006 16.3121 13.7574 13.969C11.4143 11.6258 11.3354 7.90568 13.5813 5.65982C14.5235 4.7176 15.7252 4.18455 16.9758 4.05622C16.5819 4.28838 16.209 4.57485 15.8686 4.91527C13.8269 6.95697 13.7259 10.1662 15.643 12.0833C17.5601 14.0005 20.7694 13.8995 22.8111 11.8578C23.1515 11.5174 23.438 11.1445 23.6702 10.7505ZM21.0925 8.10469L20.7742 10.0031L19.8849 8.29594L17.9811 8.57994L19.3299 7.2066L18.4715 5.48368L20.1944 6.3421L21.5677 4.99328L21.2837 6.89715L22.9909 7.78645L21.0925 8.10469Z" fill="white"/>
</g>
</g>
<defs>
<clipPath id="clip0_503_2699">
<rect width="28" height="20" rx="2" fill="white"/>
</clipPath>
</defs>
</svg>
