<svg width="28" height="20" fill="none" xmlns="http://www.w3.org/2000/svg"><rect width="28" height="20" rx="2" fill="#fff"/><mask id="a" style="mask-type:alpha" maskUnits="userSpaceOnUse" x="0" y="0" width="28" height="20"><rect width="28" height="20" rx="2" fill="#fff"/></mask><g mask="url(#a)"><path fill-rule="evenodd" clip-rule="evenodd" d="M0 4h28V0H0v4Zm0 16h28v-4H0v4Z" fill="#486BCA"/><path fill-rule="evenodd" clip-rule="evenodd" d="M0 16h28V4H0v12Z" fill="#FFDF20"/><path fill-rule="evenodd" clip-rule="evenodd" d="M0 14.667h28V5.333H0v9.334Z" fill="#CF1615"/><path fill-rule="evenodd" clip-rule="evenodd" d="M14 13.333c3.314 0 6-3.333 6-3.333s-2.686-3.333-6-3.333S8 10 8 10s2.686 3.333 6 3.333Z" fill="#fff"/><mask id="b" style="mask-type:alpha" maskUnits="userSpaceOnUse" x="8" y="6" width="12" height="8"><path fill-rule="evenodd" clip-rule="evenodd" d="M14 13.333c3.314 0 6-3.333 6-3.333s-2.686-3.333-6-3.333S8 10 8 10s2.686 3.333 6 3.333Z" fill="#fff"/></mask><g mask="url(#b)" fill-rule="evenodd" clip-rule="evenodd"><path d="M14.666 6.667H8v6.666h5.333l1.333-6.666Z" fill="#262626"/><path d="M15.333 10.667a.667.667 0 1 0 0-1.334.667.667 0 0 0 0 1.334Z" fill="#1A1A1A"/><path d="M12.667 10.667a.667.667 0 1 0 0-1.333.667.667 0 0 0 0 1.333Z" fill="#F6F6F6"/></g></g></svg>