<svg width="28" height="20" viewBox="0 0 28 20" fill="none" xmlns="http://www.w3.org/2000/svg">
<g clip-path="url(#clip0_503_3816)">
<rect width="28" height="20" rx="2" fill="white"/>
<mask id="mask0_503_3816" style="mask-type:alpha" maskUnits="userSpaceOnUse" x="0" y="0" width="28" height="20">
<rect width="28" height="20" rx="2" fill="white"/>
</mask>
<g mask="url(#mask0_503_3816)">
<rect width="28" height="20" fill="#19BFBF"/>
<path fill-rule="evenodd" clip-rule="evenodd" d="M8.0282 5.50253C8.0105 5.39634 8.04518 5.28815 8.1213 5.21203L10.569 2.76429C10.6315 2.70178 10.7163 2.66666 10.8047 2.66666H12.4607C12.5869 2.66666 12.7023 2.73799 12.7588 2.85092L13.2412 3.81573C13.2977 3.92866 13.4131 3.99999 13.5393 3.99999H15.794C15.9202 3.99999 16.0357 4.07132 16.0921 4.18425L17.9079 7.81573C17.9643 7.92866 18.0798 7.99999 18.206 7.99999H19.3333C19.608 7.99999 19.7648 8.31358 19.6 8.53332L18.018 10.6426C18.006 10.6586 17.9955 10.6757 17.9866 10.6935L17.3685 11.9296C17.3454 11.9759 17.3333 12.0269 17.3333 12.0787V13.2546C17.3333 13.3064 17.3213 13.3574 17.2981 13.4037L16.6667 14.6667L16 16L15.4255 17.1491C15.369 17.262 15.2536 17.3333 15.1273 17.3333H14.206C14.0798 17.3333 13.9643 17.262 13.9079 17.1491L13.3685 16.0704C13.3454 16.0241 13.3333 15.973 13.3333 15.9213V12.1381C13.3333 12.0497 13.2982 11.9649 13.2357 11.9024L12.7223 11.389C12.6857 11.3524 12.6581 11.3078 12.6418 11.2587L12.076 9.56125C12.0306 9.42513 11.9032 9.33332 11.7597 9.33332H8.94904C8.7861 9.33332 8.64703 9.21552 8.62024 9.05479L8.0282 5.50253Z" fill="white"/>
<path fill-rule="evenodd" clip-rule="evenodd" d="M18.6667 13.6667C18.6667 13.4826 18.8159 13.3333 19 13.3333H19.6667C19.8508 13.3333 20 13.4826 20 13.6667V14.588C20 14.6397 19.988 14.6908 19.9648 14.7371L19.4255 15.8157C19.369 15.9287 19.2536 16 19.1273 16H19C18.8159 16 18.6667 15.8508 18.6667 15.6667V13.6667Z" fill="white"/>
</g>
</g>
<defs>
<clipPath id="clip0_503_3816">
<rect width="28" height="20" rx="2" fill="white"/>
</clipPath>
</defs>
</svg>
