<svg width="28" height="20" viewBox="0 0 28 20" fill="none" xmlns="http://www.w3.org/2000/svg">
<g clip-path="url(#clip0_503_3648)">
<rect width="28" height="20" rx="2" fill="white"/>
<mask id="mask0_503_3648" style="mask-type:alpha" maskUnits="userSpaceOnUse" x="0" y="0" width="28" height="20">
<rect width="28" height="20" rx="2" fill="white"/>
</mask>
<g mask="url(#mask0_503_3648)">
<rect width="28" height="20" fill="#128C4B"/>
<path fill-rule="evenodd" clip-rule="evenodd" d="M6.66669 12H17.3334V11.0787C17.3334 10.5831 17.8549 10.2608 18.2982 10.4824L18.6667 10.6667V12H20.6667C21.0349 12 21.3334 12.2985 21.3334 12.6667V13.3333C21.3334 14.0697 20.7364 14.6667 20 14.6667H18C17.6318 14.6667 17.3334 14.3682 17.3334 14V13.3333H8.27616C8.09935 13.3333 7.92978 13.2631 7.80476 13.1381L6.66669 12Z" fill="white"/>
<path fill-rule="evenodd" clip-rule="evenodd" d="M6.66669 8.13807C6.66669 8.04966 6.70181 7.96488 6.76432 7.90236L7.09765 7.56903C7.22783 7.43886 7.22783 7.2278 7.09765 7.09763L6.76432 6.76429C6.70181 6.70178 6.66669 6.617 6.66669 6.52859V5.66666C6.66669 5.48257 6.81593 5.33333 7.00002 5.33333H7.74538C7.88601 5.33333 8.00002 5.44734 8.00002 5.58797V5.58797C8.00002 5.85668 8.36226 5.94219 8.48242 5.70185L8.58181 5.50309C8.63383 5.39905 8.74017 5.33333 8.85649 5.33333H10.3334C10.5174 5.33333 10.6667 5.48257 10.6667 5.66666V5.66666C10.6667 5.85076 10.5174 5.99999 10.3334 5.99999H9.66669C9.48259 5.99999 9.33335 6.14923 9.33335 6.33333V6.33333C9.33335 6.51742 9.48259 6.66666 9.66669 6.66666H10.3334C10.5174 6.66666 10.6667 6.8159 10.6667 6.99999V8.99999C10.6667 9.18409 10.5174 9.33333 10.3334 9.33333H9.66669C9.48259 9.33333 9.33335 9.18409 9.33335 8.99999V8.33333C9.33335 8.14923 9.48259 7.99999 9.66669 7.99999V7.99999C9.85078 7.99999 10 7.85076 10 7.66666V7.66666C10 7.48257 9.85078 7.33333 9.66669 7.33333H9.00002C8.81593 7.33333 8.66669 7.48257 8.66669 7.66666V8.99999C8.66669 9.18409 8.51745 9.33333 8.33335 9.33333V9.33333C8.14926 9.33333 8.00002 9.18409 8.00002 8.99999V8.33333C8.00002 8.14923 7.85078 7.99999 7.66669 7.99999V7.99999C7.48259 7.99999 7.33335 8.14923 7.33335 8.33333V8.99999C7.33335 9.18409 7.18412 9.33333 7.00002 9.33333V9.33333C6.81593 9.33333 6.66669 9.18409 6.66669 8.99999V8.13807Z" fill="white"/>
<path fill-rule="evenodd" clip-rule="evenodd" d="M17.3333 8.13807C17.3333 8.04966 17.3684 7.96488 17.4309 7.90236L17.7643 7.56903C17.8945 7.43886 17.8945 7.2278 17.7643 7.09763L17.4309 6.76429C17.3684 6.70178 17.3333 6.617 17.3333 6.52859V5.66666C17.3333 5.48257 17.4826 5.33333 17.6666 5.33333H18.412C18.5526 5.33333 18.6666 5.44734 18.6666 5.58797V5.58797C18.6666 5.85668 19.0289 5.94219 19.1491 5.70185L19.2484 5.50309C19.3005 5.39905 19.4068 5.33333 19.5231 5.33333H21C21.1841 5.33333 21.3333 5.48257 21.3333 5.66666V5.66666C21.3333 5.85076 21.1841 5.99999 21 5.99999H20.3333C20.1492 5.99999 20 6.14923 20 6.33333V6.33333C20 6.51742 20.1492 6.66666 20.3333 6.66666H21C21.1841 6.66666 21.3333 6.8159 21.3333 6.99999V8.99999C21.3333 9.18409 21.1841 9.33333 21 9.33333H20.3333C20.1492 9.33333 20 9.18409 20 8.99999V8.33333C20 8.14923 20.1492 7.99999 20.3333 7.99999V7.99999C20.5174 7.99999 20.6666 7.85076 20.6666 7.66666V7.66666C20.6666 7.48257 20.5174 7.33333 20.3333 7.33333H19.6666C19.4826 7.33333 19.3333 7.48257 19.3333 7.66666V8.99999C19.3333 9.18409 19.1841 9.33333 19 9.33333V9.33333C18.8159 9.33333 18.6666 9.18409 18.6666 8.99999V8.33333C18.6666 8.14923 18.5174 7.99999 18.3333 7.99999V7.99999C18.1492 7.99999 18 8.14923 18 8.33333V8.99999C18 9.18409 17.8507 9.33333 17.6666 9.33333V9.33333C17.4826 9.33333 17.3333 9.18409 17.3333 8.99999V8.13807Z" fill="white"/>
<path fill-rule="evenodd" clip-rule="evenodd" d="M16 6.33021C16 6.51602 15.8958 6.77083 15.7593 6.90734L15.574 7.09265C15.4411 7.22557 15.4375 7.43749 15.574 7.57401L15.7593 7.75931C15.8922 7.89224 16 8.14269 16 8.33645V8.99687C16 9.18269 15.8573 9.33333 15.6635 9.33333H15.0031C14.8173 9.33333 14.6667 9.19064 14.6667 8.99687V8.33645C14.6667 8.15063 14.6051 8.12304 14.512 8.30924L14.1546 9.02408C14.0692 9.19487 13.8431 9.33333 13.6697 9.33333H12.3303C12.1479 9.33333 12 9.17871 12 8.99999V8.99999C12 8.8159 12.1427 8.66666 12.3365 8.66666H12.9969C13.1827 8.66666 13.3333 8.51204 13.3333 8.33333V8.33333C13.3333 8.14923 13.1906 7.99999 12.9969 7.99999H12.3365C12.1506 7.99999 12 7.85662 12 7.67301V5.66031C12 5.47972 12.1427 5.33333 12.3365 5.33333H12.9969C13.1827 5.33333 13.3333 5.47602 13.3333 5.66978V6.33021C13.3333 6.51602 13.1787 6.66666 13 6.66666V6.66666C12.8159 6.66666 12.6667 6.82128 12.6667 6.99999V6.99999C12.6667 7.18409 12.8094 7.33333 13.0031 7.33333H13.6635C13.8494 7.33333 14 7.17639 14 7.00307V5.66359C14 5.48119 14.1546 5.33333 14.3333 5.33333V5.33333C14.5174 5.33333 14.6667 5.47602 14.6667 5.66978V6.33021C14.6667 6.51602 14.8213 6.66666 15 6.66666V6.66666C15.1841 6.66666 15.3333 6.52397 15.3333 6.33021V5.66978C15.3333 5.48396 15.488 5.33333 15.6667 5.33333V5.33333C15.8508 5.33333 16 5.47602 16 5.66978V6.33021V6.33021Z" fill="white"/>
</g>
</g>
<defs>
<clipPath id="clip0_503_3648">
<rect width="28" height="20" rx="2" fill="white"/>
</clipPath>
</defs>
</svg>
