<svg width="28" height="20" fill="none" xmlns="http://www.w3.org/2000/svg"><rect x=".25" y=".25" width="27.5" height="19.5" rx="1.75" fill="#fff" stroke="#F5F5F5" stroke-width=".5"/><mask id="a" style="mask-type:alpha" maskUnits="userSpaceOnUse" x="0" y="0" width="28" height="20"><rect x=".25" y=".25" width="27.5" height="19.5" rx="1.75" fill="#fff" stroke="#fff" stroke-width=".5"/></mask><g mask="url(#a)"><path fill-rule="evenodd" clip-rule="evenodd" d="M28 0H13.333v2.667H28V0Zm0 5.333H13.333V8H28V5.333Zm-14.667 5.334H28v2.666H13.333v-2.666ZM28 16H0v2.667h28V16Z" fill="#E1244A"/><path fill="#0C3F8E" d="M0 0h13.333v13.333H0z"/><path fill-rule="evenodd" clip-rule="evenodd" d="M6.667 8.227 4.316 9.903l.867-2.754-2.32-1.718 2.887-.026.917-2.738.917 2.738 2.887.026-2.32 1.718.867 2.754-2.351-1.676Z" fill="#fff"/></g></svg>