<svg width="28" height="20" viewBox="0 0 28 20" fill="none" xmlns="http://www.w3.org/2000/svg">
<g clip-path="url(#clip0_503_3400)">
<rect width="28" height="20" rx="2" fill="white"/>
<mask id="mask0_503_3400" style="mask-type:alpha" maskUnits="userSpaceOnUse" x="0" y="0" width="28" height="20">
<rect width="28" height="20" rx="2" fill="white"/>
</mask>
<g mask="url(#mask0_503_3400)">
<rect width="28" height="20" fill="#19BFBF"/>
<path fill-rule="evenodd" clip-rule="evenodd" d="M10 16.041C10 16.0138 10.0034 15.9866 10.01 15.9602L10.6667 13.3333L11.3098 10.7608C11.3252 10.6993 11.3227 10.6347 11.3026 10.5746L10.7103 8.79764C10.6824 8.71377 10.6223 8.64445 10.5432 8.60491L9.51761 8.09212C9.40468 8.03566 9.33334 7.92024 9.33334 7.79398V5.41201C9.33334 5.36026 9.34539 5.30923 9.36853 5.26294L10 3.99999L10.5745 2.85092C10.631 2.73799 10.7464 2.66666 10.8727 2.66666H14.3333C14.5174 2.66666 14.6667 2.81589 14.6667 2.99999V3.66666C14.6667 3.85075 14.8159 3.99999 15 3.99999H15.6667C15.8508 3.99999 16 4.14923 16 4.33332V5.12731C16 5.25357 16.0713 5.36899 16.1843 5.42545L18.4824 6.57453C18.5953 6.63099 18.6667 6.74641 18.6667 6.87267V7.9213C18.6667 7.97305 18.6546 8.02409 18.6315 8.07037L18.0396 9.25415C18.0137 9.30603 17.9746 9.35025 17.9264 9.38243L16.0737 10.6176C16.0254 10.6497 15.9864 10.6939 15.9604 10.7458L14.7063 13.2541C14.6803 13.306 14.6413 13.3502 14.593 13.3824L12.7403 14.6176C12.6921 14.6497 12.653 14.6939 12.6271 14.7458L11.4255 17.1491C11.369 17.262 11.2536 17.3333 11.1273 17.3333H10.3333C10.1492 17.3333 10 17.1841 10 17V16.041Z" fill="white"/>
</g>
</g>
<defs>
<clipPath id="clip0_503_3400">
<rect width="28" height="20" rx="2" fill="white"/>
</clipPath>
</defs>
</svg>
