<svg width="28" height="20" fill="none" xmlns="http://www.w3.org/2000/svg"><rect width="28" height="20" rx="2" fill="#fff"/><mask id="a" style="mask-type:alpha" maskUnits="userSpaceOnUse" x="0" y="0" width="28" height="20"><rect width="28" height="20" rx="2" fill="#fff"/></mask><g mask="url(#a)"><path fill-rule="evenodd" clip-rule="evenodd" d="M0 2.667h28V0H0v2.667ZM0 20h28v-2.667H0V20ZM0 8h28V5.333H0V8Zm0 6.667h28V12H0v2.667Z" fill="#369D0C"/><path fill-rule="evenodd" clip-rule="evenodd" d="M0 12h28V8H0v4Z" fill="#262626"/><path fill-rule="evenodd" clip-rule="evenodd" d="M0 5.333h28V2.667H0v2.666Zm0 12h28v-2.666H0v2.666Z" fill="#FFD40E"/><path d="M-.667 19.333V.667h.445L12.222 10-.222 19.333h-.445Z" fill="#fff" stroke="#262626" stroke-width="1.333"/><path fill-rule="evenodd" clip-rule="evenodd" d="m4 11.3-1.96 1.397.724-2.295L.83 8.97l2.406-.022L4 6.667l.764 2.281 2.406.022-1.934 1.432.723 2.295L4 11.3Z" fill="url(#b)"/></g><defs><linearGradient id="b" x1=".667" y1="6.667" x2=".667" y2="13.333" gradientUnits="userSpaceOnUse"><stop stop-color="#F12F1F"/><stop offset="1" stop-color="#DE2010"/></linearGradient></defs></svg>