<svg width="28" height="20" viewBox="0 0 28 20" fill="none" xmlns="http://www.w3.org/2000/svg">
<g clip-path="url(#clip0_1310_8012)">
<path d="M27.9997 0H-0.000335693V20H27.9997V0Z" fill="url(#paint0_linear_1310_8012)"/>
<path d="M21.7987 8.67267L17.7044 16.5124C17.6192 16.6755 17.6824 16.8769 17.8456 16.9621C18.0088 17.0473 18.2102 16.9841 18.2954 16.821L22.3896 8.98128C22.4748 8.8181 22.4116 8.61673 22.2485 8.53151C22.0853 8.44629 21.8839 8.50949 21.7987 8.67267Z" fill="#1583C4"/>
<path d="M22.3744 10.4176L17.7354 16.4638C17.6233 16.6098 17.6509 16.8191 17.7969 16.9311C17.943 17.0432 18.1523 17.0157 18.2643 16.8696L22.9033 10.8234C23.0154 10.6773 22.9878 10.4681 22.8418 10.356C22.6957 10.2439 22.4865 10.2715 22.3744 10.4176Z" fill="#1583C4"/>
<path d="M20.2969 9.87859L17.6895 16.5453C17.6224 16.7167 17.7071 16.91 17.8785 16.9771C18.05 17.0442 18.2433 16.9595 18.3104 16.7881L20.9178 10.1214C20.9848 9.94997 20.9002 9.75662 20.7288 9.68957C20.5573 9.62251 20.364 9.70714 20.2969 9.87859Z" fill="#1583C4"/>
<path d="M5.68098 8.76355C5.71889 8.88835 5.78751 9.10473 5.88053 9.38237C6.03556 9.84512 6.20224 10.308 6.37449 10.7412C6.57225 11.2385 6.76494 11.6651 6.94982 12.0013C6.98263 12.061 7.01516 12.1177 7.04743 12.1715C7.26065 12.5269 7.59898 12.9904 8.0372 13.54C8.11996 13.6438 8.2058 13.7501 8.29443 13.8585C8.61357 14.2488 8.95507 14.6505 9.29651 15.0416C9.5014 15.2762 9.66096 15.4554 9.75263 15.5568C9.87607 15.6934 10.0869 15.7041 10.2234 15.5806C10.36 15.4572 10.3707 15.2464 10.2472 15.1098C10.158 15.0111 10.0009 14.8347 9.79869 14.6031C9.46164 14.2171 9.12465 13.8206 8.81054 13.4365C8.72359 13.3301 8.63946 13.226 8.55846 13.1244C8.13716 12.596 7.8137 12.1529 7.61909 11.8285C7.59127 11.7821 7.56289 11.7326 7.534 11.6801C7.36454 11.3719 7.1824 10.9687 6.99398 10.4949C6.82676 10.0743 6.66408 9.62255 6.51266 9.17059C6.4218 8.8994 6.35505 8.68892 6.31887 8.5698C6.26537 8.39365 6.0792 8.29423 5.90305 8.34773C5.7269 8.40123 5.62748 8.5874 5.68098 8.76355Z" fill="#409347"/>
<path d="M25.3332 8.66667V12C25.3332 12.3682 25.6316 12.6667 25.9998 12.6667C26.368 12.6667 26.6665 12.3682 26.6665 12V8.66667C26.6665 8.29848 26.368 8 25.9998 8C25.6316 8 25.3332 8.29848 25.3332 8.66667Z" fill="#1583C4"/>
<path d="M3.33334 10.205L2.61899 8.41908C2.48225 8.07723 2.09427 7.91095 1.75241 8.04769C1.41056 8.18443 1.24428 8.57241 1.38102 8.91427L2.71435 12.2476C2.93786 12.8064 3.72882 12.8064 3.95232 12.2476L5.28566 8.91427C5.4224 8.57241 5.25612 8.18443 4.91427 8.04769C4.57241 7.91095 4.18443 8.07723 4.04769 8.41908L3.33334 10.205Z" fill="#1583C4"/>
<path d="M19.9994 8.66665C19.9994 8.66665 20.0469 9.55267 18.9286 9.99998C17.8104 10.4473 16.666 9.99998 16.666 9.99998C16.666 9.99998 17.4895 10.4836 17.9994 11.3333C18.5092 12.183 18.2424 12.6443 18.666 13.0679C19.0896 13.4915 19.8545 13.2026 20.1572 13.5657C20.46 13.9287 20.4362 14.3441 19.9994 14.6667C19.5625 14.9892 19.4238 14.8388 18.9286 14.5087C18.4335 14.1786 18.666 13.8489 18.666 13.8489C18.666 13.8489 17.8136 13.4075 17.1623 13.2169C16.666 12.2909 15.9994 12 15.9994 12V12.6666C15.9994 12.6666 17.3327 13.3504 17.3327 14C17.3327 14.2839 16.7164 15.2219 15.9994 15.8892C15.0761 16.7484 13.9994 16.9858 13.9994 16.9858V7.33332L17.9994 6.66665C17.9994 6.66665 16.1576 5.21759 20.3327 4.20433C24.5078 3.19106 25.3723 2.9809 25.3723 2.9809C26.0868 2.80735 26.3603 3.16921 25.9623 3.78855C25.9623 3.78855 25.93 3.92003 25.3327 4.66665C24.7354 5.41327 24.6041 5.54643 23.9994 5.99998C23.3946 6.45354 23.3946 6.1202 22.666 6.66665C21.9374 7.2131 21.9106 7.71103 21.3327 7.99998C20.7548 8.28893 19.9994 7.99998 19.9994 7.99998V8.66665ZM7.99904 8.66665V7.99998C7.99904 7.99998 7.24361 8.28893 6.66571 7.99998C6.08781 7.71103 6.06097 7.2131 5.33238 6.66665C4.60378 6.1202 4.60378 6.45354 3.99904 5.99998C3.39431 5.54643 3.26301 5.41327 2.66571 4.66665C2.06841 3.92003 2.0361 3.78855 2.0361 3.78855C1.63815 3.16921 1.91161 2.80735 2.62613 2.9809C2.62613 2.9809 3.49058 3.19106 7.66571 4.20433C11.8408 5.21759 9.99904 6.66665 9.99904 6.66665L13.999 7.33332V16.9858C13.999 16.9858 12.9223 16.7484 11.999 15.8892C11.282 15.2219 10.6657 14.2839 10.6657 14C10.6657 13.3504 11.999 12.6666 11.999 12.6666V12C11.999 12 11.3324 12.2909 10.8361 13.2169C10.1848 13.4075 9.33238 13.8489 9.33238 13.8489C9.33238 13.8489 9.56491 14.1786 9.06976 14.5087C8.57462 14.8388 8.43591 14.9892 7.99904 14.6667C7.56217 14.3441 7.53838 13.9287 7.84116 13.5657C8.14395 13.2026 8.90879 13.4915 9.33238 13.0679C9.75596 12.6443 9.48923 12.183 9.99904 11.3333C10.5089 10.4836 11.3324 9.99998 11.3324 9.99998C11.3324 9.99998 10.188 10.4473 9.06976 9.99998C7.95148 9.55267 7.99904 8.66665 7.99904 8.66665ZM12.3304 6.30182C12.3028 6.11622 11.9058 5.96771 12.0828 5.92218C12.4129 5.83722 12.5786 5.73217 12.7409 5.45221C12.8122 5.32917 12.4913 5.4098 12.5959 5.28856C13.1446 4.65229 13.2588 4.1581 12.9069 3.99217C12.1461 3.63337 12.0521 4.56066 12.0828 4.17868C12.1047 3.90613 12.1322 3.68729 12.1669 3.57697C12.32 3.08989 13.0969 3.1192 13.1446 3.02375C13.3398 2.6333 13.5639 2.5965 13.9994 2.66665C14.4348 2.7368 14.633 2.945 14.8062 3.29141C14.9374 3.55379 14.8997 3.9617 15.0431 4.35098C15.1358 4.60293 15.271 4.74247 15.3726 4.99453C15.4317 5.14137 14.9877 4.85103 15.0431 4.99453C15.1942 5.38641 15.5719 5.36954 15.7977 5.72386C15.8903 5.86916 15.4568 5.69769 15.4852 5.92218C15.5044 6.07379 15.9994 6.66665 15.9994 6.66665H11.9994C11.9994 6.66665 12.3544 6.46258 12.3304 6.30182Z" fill="url(#paint1_linear_1310_8012)"/>
<path fill-rule="evenodd" clip-rule="evenodd" d="M18.8306 13.5585L19.1591 13.7286L18.9476 14.0284C18.9306 14.0734 18.9459 14.1194 19.1139 14.2313C19.5174 14.5003 19.5208 14.5024 19.5784 14.5115C19.6127 14.5169 19.6694 14.4962 19.8017 14.3985C20.0699 14.2004 20.0929 14.0085 19.9016 13.7791C19.8597 13.7289 19.761 13.7021 19.4642 13.6749C19.381 13.6673 19.381 13.6673 19.2918 13.6578C19.1152 13.6378 18.9641 13.6076 18.8306 13.5585ZM18.6008 13.4433C18.541 13.4038 18.4847 13.3576 18.4307 13.3036C18.2004 13.0733 18.1193 12.8658 18.0463 12.4686C17.9612 12.0057 17.9074 11.8274 17.7139 11.5048C17.5956 11.3077 17.4513 11.1203 17.2864 10.9436C16.9874 10.6234 16.688 10.3993 16.4976 10.2874L16.7877 9.68951C16.8374 9.70893 16.9389 9.74148 17.0809 9.77492C17.628 9.90382 18.2079 9.90951 18.74 9.71538C18.7726 9.7033 18.7726 9.7033 18.8052 9.69048C19.0927 9.57548 19.2993 9.42529 19.4413 9.24975C19.6155 9.03429 19.6705 8.81997 19.6666 8.67985L19.6668 8.6845L19.6664 8.66664V7.51559L20.1188 7.68863C20.1481 7.69986 20.21 7.71964 20.295 7.74011C20.514 7.79285 20.7379 7.81174 20.9363 7.77919C21.0277 7.76417 21.1106 7.73852 21.184 7.70183C21.3524 7.61761 21.4594 7.51678 21.6169 7.30943C22.0656 6.71868 22.109 6.66801 22.4664 6.39997C22.8225 6.13284 23.0158 6.04519 23.327 5.96803L23.3448 5.96361C23.5127 5.92163 23.6046 5.87966 23.7997 5.7333C24.377 5.30035 24.4886 5.18855 25.0727 4.45841C25.4882 3.93902 25.6389 3.7093 25.6822 3.60835C25.9141 3.24746 25.8796 3.20076 25.4514 3.30479C25.3432 3.33107 25.3432 3.33107 24.4971 3.53655C23.5746 3.76055 22.2383 4.08494 20.4116 4.52825C19.5333 4.74142 18.8965 4.9814 18.4794 5.23773C17.854 5.62204 17.8147 5.91952 18.0641 6.25216C18.1204 6.32726 18.1763 6.38142 18.2058 6.40466L18.799 6.87135L14.333 7.61568V16.5305C14.3522 16.5232 14.3718 16.5155 14.3919 16.5075C14.7525 16.3639 15.1134 16.169 15.4488 15.9162C15.5615 15.8313 15.6696 15.741 15.7726 15.6452C16.3826 15.0775 16.9997 14.1827 16.9997 14C16.9997 13.9902 16.9987 13.9795 16.9965 13.9679C16.968 13.8141 16.7734 13.5886 16.4653 13.3556C16.2334 13.1801 15.9986 13.0407 15.8476 12.9632L15.6664 12.8703V11.4908L16.133 11.6945C16.3922 11.8076 16.7542 12.0678 17.1084 12.5226C17.2082 12.6507 17.3019 12.7891 17.3886 12.9379C17.4776 12.9669 17.571 13 17.6684 13.0369C17.7849 13.081 17.9059 13.1301 18.0304 13.1833C18.2436 13.2744 18.44 13.3653 18.6008 13.4433ZM18.6008 13.4433C18.6842 13.4839 18.7581 13.521 18.8196 13.5528L18.8306 13.5585C18.7478 13.5281 18.6719 13.4904 18.6008 13.4433ZM13.6661 7.61568L13.9446 7.6621L13.6661 7.3333V7.61568ZM13.6661 16.5305V16.9858L14.0712 16.6603C13.9928 16.643 13.8513 16.6016 13.6661 16.5305ZM10.6105 12.9379C10.5874 12.9777 10.5648 13.0182 10.5427 13.0594L10.7428 12.8969C10.6999 12.9095 10.6558 12.9232 10.6105 12.9379ZM9.05143 14.0284L9.06031 14.0409C9.04921 14.0238 9.05072 14.0265 9.05062 14.0263C9.0509 14.027 9.05117 14.0277 9.05143 14.0284ZM9.39832 13.4433C9.31485 13.4839 9.24101 13.521 9.17947 13.5528L9.1685 13.5585C9.25125 13.5281 9.32722 13.4904 9.39832 13.4433ZM12.6651 6.3333H15.3259C15.2227 6.18147 15.1687 6.07363 15.1548 5.96403C15.1381 5.83137 15.1609 5.72933 15.2114 5.6529C14.9595 5.49284 14.8285 5.36363 14.7324 5.11449C14.6637 4.93651 14.722 4.7847 14.8355 4.69803C14.7925 4.61833 14.7616 4.55041 14.7306 4.46613C14.7114 4.41406 14.6945 4.36069 14.6795 4.30556C14.6391 4.1574 14.6238 4.06576 14.5875 3.79959C14.5594 3.59339 14.54 3.50365 14.5084 3.44046C14.3615 3.14681 14.2354 3.04223 13.9467 2.99573C13.5992 2.93975 13.5508 2.95743 13.4431 3.1728C13.371 3.31699 13.2948 3.3503 13.1263 3.39308C13.182 3.37893 12.8384 3.45629 12.7498 3.48588C12.6696 3.51267 12.6092 3.54179 12.5659 3.57369C12.7147 3.57228 12.8769 3.6093 13.0494 3.69067C13.6246 3.96191 13.5477 4.5754 13.0475 5.2573C13.1037 5.3695 13.0961 5.50464 13.0296 5.61936C12.9085 5.82841 12.7768 5.97102 12.6013 6.07526C12.6307 6.12796 12.6504 6.1854 12.6604 6.25268C12.6645 6.28 12.666 6.30689 12.6651 6.3333Z" stroke="black" stroke-opacity="0.08" stroke-width="0.666667"/>
<mask id="mask0_1310_8012" style="mask-type:alpha" maskUnits="userSpaceOnUse" x="10" y="5" width="8" height="9">
<path d="M10.6665 8.66666V5.33333C10.6665 5.33333 11.3311 5.98535 12.217 5.98535C13.1028 5.98535 13.9998 5.33333 13.9998 5.33333C13.9998 5.33333 14.8353 5.98535 15.668 5.98535C16.5006 5.98535 17.3332 5.33333 17.3332 5.33333V8.66666C17.3332 12 13.9998 13.3333 13.9998 13.3333C13.9998 13.3333 10.6665 12 10.6665 8.66666Z" fill="white"/>
</mask>
<g mask="url(#mask0_1310_8012)">
<path d="M10.6665 8.66668V5.33334C10.6665 5.33334 11.3311 5.98536 12.2169 5.98536C13.1028 5.98536 13.9998 5.33334 13.9998 5.33334C13.9998 5.33334 14.8353 5.98536 15.6679 5.98536C16.5006 5.98536 17.3331 5.33334 17.3331 5.33334V8.66668C17.3331 12 13.9998 13.3333 13.9998 13.3333C13.9998 13.3333 10.6665 12 10.6665 8.66668Z" fill="url(#paint2_linear_1310_8012)"/>
<path d="M17.3331 5.33334H10.6665V8.00001H17.3331V5.33334Z" fill="url(#paint3_linear_1310_8012)"/>
<path fill-rule="evenodd" clip-rule="evenodd" d="M10.6664 8.00002H11.9997V13.3333H10.6664V8.00002ZM13.333 8.00002H14.6664V13.3333H13.333V8.00002ZM15.9997 8.00002H17.333V13.3333H15.9997V8.00002Z" fill="url(#paint4_linear_1310_8012)"/>
</g>
</g>
<defs>
<linearGradient id="paint0_linear_1310_8012" x1="13.9997" y1="0" x2="13.9997" y2="20" gradientUnits="userSpaceOnUse">
<stop stop-color="white"/>
<stop offset="1" stop-color="#F0F0F0"/>
</linearGradient>
<linearGradient id="paint1_linear_1310_8012" x1="13.9992" y1="2.63794" x2="13.9992" y2="16.9858" gradientUnits="userSpaceOnUse">
<stop stop-color="#F8CE61"/>
<stop offset="1" stop-color="#F3C44B"/>
</linearGradient>
<linearGradient id="paint2_linear_1310_8012" x1="13.9998" y1="5.33334" x2="13.9998" y2="13.3333" gradientUnits="userSpaceOnUse">
<stop stop-color="white"/>
<stop offset="1" stop-color="#F0F0F0"/>
</linearGradient>
<linearGradient id="paint3_linear_1310_8012" x1="13.9998" y1="5.33334" x2="13.9998" y2="8.00001" gradientUnits="userSpaceOnUse">
<stop stop-color="#1E357F"/>
<stop offset="1" stop-color="#162966"/>
</linearGradient>
<linearGradient id="paint4_linear_1310_8012" x1="13.9997" y1="8.00002" x2="13.9997" y2="13.3333" gradientUnits="userSpaceOnUse">
<stop stop-color="#BC1443"/>
<stop offset="1" stop-color="#A30B35"/>
</linearGradient>
<clipPath id="clip0_1310_8012">
<rect width="28" height="20" rx="2" fill="white"/>
</clipPath>
</defs>
</svg>
