<svg width="28" height="20" viewBox="0 0 28 20" fill="none" xmlns="http://www.w3.org/2000/svg">
<g clip-path="url(#clip0_1310_7551)">
<path d="M28.0001 3.05176e-05H0.00012207V20H28.0001V3.05176e-05Z" fill="url(#paint0_linear_1310_7551)"/>
<path d="M28.0001 3.05176e-05H0.00012207V20H28.0001V3.05176e-05Z" fill="url(#paint1_linear_1310_7551)"/>
<path d="M4.00011 4.30667L-1.80206 -0.666624H0.880419L5.54709 2.66671H6.47558L12.6668 -1.20279V0.333376C12.6668 0.736721 12.4442 1.16875 12.1097 1.40773L8.00011 4.34312V5.02675L12.1831 8.61215C12.7992 9.14029 12.4548 10 11.6668 10C11.3398 10 10.9405 9.87195 10.668 9.67733L6.45313 6.66671H5.52464L-0.666558 10.5362V8.32363L4.00011 4.9903V4.30667Z" fill="url(#paint2_linear_1310_7551)"/>
<path fill-rule="evenodd" clip-rule="evenodd" d="M4.66679 4.00003L0.00012207 3.05176e-05H0.666789L5.33346 3.33336H6.66679L12.0001 3.05176e-05V0.333364C12.0001 0.517459 11.8848 0.749095 11.7222 0.86523L7.33346 4.00003V5.33336L11.7492 9.11831C11.8878 9.23708 11.8455 9.33336 11.6668 9.33336C11.4827 9.33336 11.2181 9.25097 11.0555 9.13483L6.66679 6.00003H5.33346L0.00012207 9.33336V8.6667L4.66679 5.33336V4.00003Z" fill="url(#paint3_linear_1310_7551)"/>
<path fill-rule="evenodd" clip-rule="evenodd" d="M0.00012207 3.33336V6.00003H4.66679V9.33951C4.66679 9.70431 4.95217 10 5.3397 10H6.66054C7.03218 10 7.33346 9.71236 7.33346 9.33951V6.00003H12.0128C12.374 6.00003 12.6668 5.71465 12.6668 5.32712V4.00628C12.6668 3.63464 12.38 3.33336 12.0128 3.33336H7.33346V3.05176e-05H4.66679V3.33336H0.00012207Z" fill="url(#paint4_linear_1310_7551)"/>
<path fill-rule="evenodd" clip-rule="evenodd" d="M0.00012207 4.00003H5.33346V3.33336V3.05176e-05H6.66679V3.33336V4.00003H12.0001V5.33336H6.66679V6.00003V9.33336H5.33346V6.00003V5.33336H0.00012207V4.00003Z" fill="url(#paint5_linear_1310_7551)"/>
<path fill-rule="evenodd" clip-rule="evenodd" d="M20.6668 6.66671C20.2986 6.66671 20.0001 6.36823 20.0001 6.00004C20.0001 5.63185 20.2986 5.33337 20.6668 5.33337C21.035 5.33337 21.3335 5.63185 21.3335 6.00004C21.3335 6.36823 21.035 6.66671 20.6668 6.66671ZM20.6668 14.6667C20.2986 14.6667 20.0001 14.3682 20.0001 14C20.0001 13.6319 20.2986 13.3334 20.6668 13.3334C21.035 13.3334 21.3335 13.6319 21.3335 14C21.3335 14.3682 21.035 14.6667 20.6668 14.6667ZM17.3335 10C17.3335 10.3682 17.035 10.6667 16.6668 10.6667C16.2986 10.6667 16.0001 10.3682 16.0001 10C16.0001 9.63185 16.2986 9.33337 16.6668 9.33337C17.035 9.33337 17.3335 9.63185 17.3335 10ZM25.3335 10C25.3335 10.3682 25.035 10.6667 24.6668 10.6667C24.2986 10.6667 24.0001 10.3682 24.0001 10C24.0001 9.63185 24.2986 9.33337 24.6668 9.33337C25.035 9.33337 25.3335 9.63185 25.3335 10ZM18.3098 12.3571C18.5701 12.6174 18.5701 13.0395 18.3098 13.2999C18.0494 13.5602 17.6273 13.5602 17.367 13.2999C17.1066 13.0395 17.1066 12.6174 17.367 12.3571C17.6273 12.0967 18.0494 12.0967 18.3098 12.3571ZM23.9666 6.70021C24.227 6.96056 24.227 7.38267 23.9666 7.64302C23.7063 7.90337 23.2842 7.90337 23.0238 7.64302C22.7635 7.38267 22.7635 6.96056 23.0238 6.70021C23.2842 6.43986 23.7063 6.43986 23.9666 6.70021ZM23.0238 12.3571C23.2842 12.0967 23.7063 12.0967 23.9666 12.3571C24.227 12.6174 24.227 13.0395 23.9666 13.2999C23.7063 13.5602 23.2842 13.5602 23.0238 13.2999C22.7635 13.0395 22.7635 12.6174 23.0238 12.3571ZM17.367 6.70021C17.6273 6.43986 18.0494 6.43986 18.3098 6.70021C18.5701 6.96056 18.5701 7.38267 18.3098 7.64302C18.0494 7.90337 17.6273 7.90337 17.367 7.64302C17.1066 7.38267 17.1066 6.96056 17.367 6.70021Z" fill="white"/>
</g>
<defs>
<linearGradient id="paint0_linear_1310_7551" x1="14.0001" y1="3.05176e-05" x2="14.0001" y2="20" gradientUnits="userSpaceOnUse">
<stop stop-color="white"/>
<stop offset="1" stop-color="#F0F0F0"/>
</linearGradient>
<linearGradient id="paint1_linear_1310_7551" x1="14.0001" y1="3.05176e-05" x2="14.0001" y2="20" gradientUnits="userSpaceOnUse">
<stop stop-color="#0A17A7"/>
<stop offset="1" stop-color="#030E88"/>
</linearGradient>
<linearGradient id="paint2_linear_1310_7551" x1="5.43236" y1="-1.20279" x2="5.43236" y2="10.5362" gradientUnits="userSpaceOnUse">
<stop stop-color="white"/>
<stop offset="1" stop-color="#F0F0F0"/>
</linearGradient>
<linearGradient id="paint3_linear_1310_7551" x1="6.00012" y1="3.05176e-05" x2="6.00012" y2="9.33336" gradientUnits="userSpaceOnUse">
<stop stop-color="#DB1E36"/>
<stop offset="1" stop-color="#D51931"/>
</linearGradient>
<linearGradient id="paint4_linear_1310_7551" x1="6.33346" y1="3.05176e-05" x2="6.33346" y2="10" gradientUnits="userSpaceOnUse">
<stop stop-color="white"/>
<stop offset="1" stop-color="#F0F0F0"/>
</linearGradient>
<linearGradient id="paint5_linear_1310_7551" x1="6.00012" y1="3.05176e-05" x2="6.00012" y2="9.33336" gradientUnits="userSpaceOnUse">
<stop stop-color="#DB1E36"/>
<stop offset="1" stop-color="#D51931"/>
</linearGradient>
<clipPath id="clip0_1310_7551">
<rect width="28" height="20" rx="2" fill="white"/>
</clipPath>
</defs>
</svg>
