<svg width="28" height="20" fill="none" xmlns="http://www.w3.org/2000/svg"><rect width="28" height="20" rx="2" fill="#fff"/><mask id="a" style="mask-type:alpha" maskUnits="userSpaceOnUse" x="0" y="0" width="28" height="20"><rect width="28" height="20" rx="2" fill="#fff"/></mask><g mask="url(#a)"><path fill="#F1361D" d="M0 0h28v20H0z"/><path fill-rule="evenodd" clip-rule="evenodd" d="m10.073 3.1.968.166.726.661.166-.968.661-.726-.968-.166-.727-.661-.165.968-.661.727Zm2.594 3.388.839-.51.982.022-.51-.84.022-.98-.84.51-.981-.022.51.839-.022.982Zm-1.139 5.483-.82.54-.012-.983-.54-.82.982-.012.821-.54.012.982.54.821-.983.012Zm.713-2.54.977-.108.88.436-.108-.977.436-.88-.977.108-.88-.436.108.977-.436.88ZM6.667 8.227 4.316 9.903l.867-2.754-2.32-1.718 2.887-.026.917-2.738.917 2.738 2.887.026-2.32 1.718.867 2.754-2.351-1.676Z" fill="#FFDC42"/></g></svg>