<svg width="28" height="20" fill="none" xmlns="http://www.w3.org/2000/svg"><rect width="28" height="20" rx="2" fill="#fff"/><mask id="a" style="mask-type:alpha" maskUnits="userSpaceOnUse" x="0" y="0" width="28" height="20"><rect width="28" height="20" rx="2" fill="#fff"/></mask><g mask="url(#a)"><path fill="#0A17A7" d="M0 0h28v20H0z"/><path d="M0-.333h-.901l.684.586 4.55 3.9v1.009L-.194 8.395l-.14.1v1.44l.51-.319L5.43 6.333h1.13l4.523 3.23a.554.554 0 0 0 .682-.87L7.667 5.18V4.172l4.387-3.134a.667.667 0 0 0 .28-.543V-.6l-.51.318L6.57 3H5.44L.86-.271.772-.333H0Z" fill="#FF2E3B" stroke="#fff" stroke-width=".667"/><path fill-rule="evenodd" clip-rule="evenodd" d="M0 3.333V6h4.667v3.333c0 .369.298.667.666.667h1.334a.667.667 0 0 0 .666-.667V6H12a.667.667 0 0 0 .667-.667V4A.667.667 0 0 0 12 3.333H7.333V0H4.667v3.333H0Z" fill="url(#b)"/><path fill-rule="evenodd" clip-rule="evenodd" d="M0 4h5.333V0h1.334v4H12v1.333H6.667v4H5.333v-4H0V4Z" fill="url(#c)"/><path fill-rule="evenodd" clip-rule="evenodd" d="m6 16.333-1.176.618.225-1.309-.951-.927 1.314-.19L6 13.332l.588 1.191 1.314.191-.95.927.224 1.31L6 16.332Zm14 1-.943.277.276-.943-.276-.943L20 16l.943-.276-.277.943.277.942-.943-.276Zm0-12.666-.943.276.276-.943-.276-.943.943.276.943-.276-.277.943.277.943L20 4.667Zm4 4-.943.276.276-.943-.276-.943.943.276.943-.276-.277.943.277.943L24 8.667ZM16 10l-.943.276.276-.943-.276-.942.943.276.943-.276-.277.942.277.943L16 10Zm6 1.667-.471.138.138-.472-.138-.471L22 11l.472-.138-.139.471.139.472-.472-.138Z" fill="#fff"/></g><defs><linearGradient id="b" x1="0" y1="0" x2="0" y2="10" gradientUnits="userSpaceOnUse"><stop stop-color="#fff"/><stop offset="1" stop-color="#F0F0F0"/></linearGradient><linearGradient id="c" x1="0" y1="0" x2="0" y2="9.333" gradientUnits="userSpaceOnUse"><stop stop-color="#FF2E3B"/><stop offset="1" stop-color="#FC0D1B"/></linearGradient></defs></svg>