<svg width="28" height="20" fill="none" xmlns="http://www.w3.org/2000/svg"><rect width="28" height="20" rx="2" fill="#fff"/><mask id="a" style="mask-type:alpha" maskUnits="userSpaceOnUse" x="0" y="0" width="28" height="20"><rect width="28" height="20" rx="2" fill="#fff"/></mask><g mask="url(#a)"><path fill="#262626" d="M0 0h28v20H0z"/><path fill-rule="evenodd" clip-rule="evenodd" d="M0 0h28v20L0 0Z" fill="#E8283F"/><path fill-rule="evenodd" clip-rule="evenodd" d="m6.667 16.667-.943.276L6 16l-.276-.943.943.276.942-.276-.276.943.276.943-.942-.276Zm0-8-.943.276L6 8l-.276-.943.943.276.942-.276L7.333 8l.276.943-.942-.276ZM3.333 12l-.942.276.276-.943-.276-.943.942.277.943-.277-.276.943.276.943L3.333 12Zm6-.667-.942.277.276-.943-.276-.943.942.276.943-.276-.276.943.276.943-.943-.277Z" fill="#fff"/><path fill-rule="evenodd" clip-rule="evenodd" d="M18.861 9.266a.653.653 0 0 1-.289-.502V7.535c0-.181-.13-.285-.328-.22l-.758.254a1.16 1.16 0 0 1-.656 0l-.758-.253c-.181-.06-.201-.186-.04-.283l1.78-1.067a.43.43 0 0 0 .18-.502l-.253-.758c-.06-.181.02-.284.218-.219l.759.253a.442.442 0 0 0 .501-.18l1.067-1.778c.096-.16.217-.159.283.038l.253.759c.06.18.066.458 0 .656l-.253.758c-.06.181.039.328.22.328h1.228a.65.65 0 0 1 .502.289l1.067 1.779c.096.16.019.32-.154.354l-1.702.34a.552.552 0 0 0-.393.394l-.34 1.702c-.036.18-.193.251-.355.154l-1.779-1.067Z" fill="#FFD84E"/></g></svg>