<svg width="28" height="20" fill="none" xmlns="http://www.w3.org/2000/svg"><rect width="28" height="20" rx="2" fill="#fff"/><mask id="a" style="mask-type:alpha" maskUnits="userSpaceOnUse" x="0" y="0" width="28" height="20"><rect width="28" height="20" rx="2" fill="#fff"/></mask><g mask="url(#a)"><path fill="#07319C" d="M0 0h28v20H0z"/><path d="M17.667 10V6.666a1 1 0 0 1 1-1h4a1 1 0 0 1 1 1V10c0 1.543-.768 2.626-1.557 3.335a6.24 6.24 0 0 1-1.444.966 6.243 6.243 0 0 1-1.443-.966c-.788-.71-1.556-1.792-1.556-3.335Z" fill="#FFD033" stroke="#fff" stroke-width=".667"/><mask id="b" style="mask-type:alpha" maskUnits="userSpaceOnUse" x="17" y="5" width="8" height="10"><path d="M17.667 10V6.666a1 1 0 0 1 1-1h4a1 1 0 0 1 1 1V10c0 1.543-.768 2.626-1.557 3.335a6.24 6.24 0 0 1-1.444.966 6.243 6.243 0 0 1-1.443-.966c-.788-.71-1.556-1.792-1.556-3.335Z" fill="#fff" stroke="#fff" stroke-width=".667"/></mask><g mask="url(#b)" fill-rule="evenodd" clip-rule="evenodd"><path d="M22 9.333c.368 0 .667-.597.667-1.333S22.368 6.667 22 6.667c-.368 0-.666.597-.666 1.333s.298 1.333.666 1.333Z" fill="#BA5B1F"/><path d="M19.538 9.293c.346-.126.423-.789.171-1.48-.252-.693-.737-1.152-1.082-1.026-.346.126-.423.79-.171 1.481.252.692.736 1.151 1.082 1.025Z" fill="#FF9F3E"/><path d="M19.052 9.27c.334.156.856-.258 1.168-.926.31-.667.293-1.334-.041-1.49-.334-.156-.857.26-1.168.927-.311.667-.293 1.334.04 1.49Z" fill="#FF937F"/><path d="m20 10.667.667-1.334.666 1.334V12H20v-1.333Z" fill="#01A827"/></g><path d="M0-.333h-.901l.684.586 4.55 3.9v1.009L-.194 8.395l-.14.1v1.44l.51-.319L5.43 6.333h1.13l4.523 3.23a.554.554 0 0 0 .682-.87L7.667 5.18V4.172l4.387-3.134a.667.667 0 0 0 .28-.543V-.6l-.51.318L6.57 3H5.44L.86-.271.772-.333H0Z" fill="#DB1E36" stroke="#fff" stroke-width=".667"/><path fill-rule="evenodd" clip-rule="evenodd" d="M0 3.333V6h4.667v3.333c0 .369.298.667.666.667h1.334a.667.667 0 0 0 .666-.667V6H12a.667.667 0 0 0 .667-.667V4A.667.667 0 0 0 12 3.333H7.333V0H4.667v3.333H0Z" fill="#fff"/><path fill-rule="evenodd" clip-rule="evenodd" d="M0 4h5.333V0h1.334v4H12v1.333H6.667v4H5.333v-4H0V4Z" fill="#DB1E36"/></g></svg>