<svg width="28" height="20" fill="none" xmlns="http://www.w3.org/2000/svg"><rect x=".25" y=".25" width="27.5" height="19.5" rx="1.75" fill="#fff" stroke="#F5F5F5" stroke-width=".5"/><mask id="a" style="mask-type:alpha" maskUnits="userSpaceOnUse" x="0" y="0" width="28" height="20"><rect x=".25" y=".25" width="27.5" height="19.5" rx="1.75" fill="#fff" stroke="#fff" stroke-width=".5"/></mask><g mask="url(#a)"><path fill-rule="evenodd" clip-rule="evenodd" d="M0 6.667h28V0H0v6.667Z" fill="#E41D33"/><path fill-rule="evenodd" clip-rule="evenodd" d="M0 20h28v-6.667H0V20Z" fill="#262626"/><path d="m12.368 9.482.285.569.306-.557.001-.002.005-.01a3.158 3.158 0 0 1 .108-.18 5.32 5.32 0 0 1 .298-.431 2.52 2.52 0 0 1 .378-.404c.134-.11.217-.134.251-.134.057 0 .151.031.281.136.126.1.253.242.369.398a4.51 4.51 0 0 1 .36.566l.02.038.004.01.001.001.298.597.299-.597.574-1.149h.46c.185 0 .334.15.334.334v2.087a.333.333 0 0 1-.518.278l-.964-.643-.084-.056h-1.101v1a.333.333 0 0 1-.666 0v-1h-1.101l-.084.056-.964.643a.333.333 0 0 1-.518-.278V8.667c0-.184.15-.334.333-.334h.461l.574 1.15Z" fill="#F4B32E" fill-opacity=".25" stroke="#C6A846" stroke-width=".667"/></g></svg>