<svg width="28" height="20" viewBox="0 0 28 20" fill="none" xmlns="http://www.w3.org/2000/svg">
<g clip-path="url(#clip0_503_4098)">
<rect width="28" height="20" rx="2" fill="white"/>
<mask id="mask0_503_4098" style="mask-type:alpha" maskUnits="userSpaceOnUse" x="0" y="0" width="28" height="20">
<rect width="28" height="20" rx="2" fill="white"/>
</mask>
<g mask="url(#mask0_503_4098)">
<rect width="28" height="20" fill="url(#paint0_linear_503_4098)"/>
<path fill-rule="evenodd" clip-rule="evenodd" d="M13.4442 3.33335C13.3721 3.33335 13.3019 3.35675 13.2442 3.40002L10.7203 5.29297C10.6848 5.31962 10.6443 5.3389 10.6012 5.34968L8.0353 5.99115C8.0117 5.99704 7.98882 6.00551 7.96707 6.01638L5.43251 7.28366C5.368 7.31592 5.3157 7.36823 5.28344 7.43273L4.08631 9.827C4.03281 9.93399 4.04075 10.0614 4.1071 10.161L5.27715 11.916C5.31365 11.9708 5.33313 12.0351 5.33313 12.1009V13.8619C5.33313 13.9504 5.36825 14.0351 5.43076 14.0977L6.49658 15.1635C6.59803 15.2649 6.75303 15.2901 6.88135 15.2259L10.5961 13.3685C10.6424 13.3454 10.6934 13.3334 10.7452 13.3334H13.2124C13.2904 13.3334 13.3659 13.3607 13.4258 13.4106L17.2404 16.5894C17.3003 16.6393 17.3758 16.6667 17.4538 16.6667H19.8214C19.9329 16.6667 20.0369 16.611 20.0988 16.5183L22.6105 12.7507C22.647 12.6959 22.6665 12.6316 22.6665 12.5658V10.1009C22.6665 10.0351 22.647 9.9708 22.6105 9.91605L19.9998 6.00002L18.0969 2.82852C18.0367 2.72812 17.9282 2.66669 17.8111 2.66669H17.3925C17.1246 2.66669 16.9904 2.99063 17.1799 3.18008C17.2714 3.27161 17.2941 3.41145 17.2362 3.52723L16.7586 4.48242C16.7021 4.59535 16.5867 4.66669 16.4605 4.66669H14.8725C14.7462 4.66669 14.6308 4.59535 14.5743 4.48242L14.0919 3.51762C14.0355 3.40469 13.92 3.33335 13.7938 3.33335H13.4442ZM19.3332 17.3333H17.9998L18.4308 17.7643C18.561 17.8945 18.772 17.8945 18.9022 17.7643L19.3332 17.3333Z" fill="white"/>
</g>
</g>
<defs>
<linearGradient id="paint0_linear_503_4098" x1="0" y1="0" x2="0" y2="20" gradientUnits="userSpaceOnUse">
<stop stop-color="#19BFBF"/>
<stop offset="1" stop-color="#10ACAC"/>
</linearGradient>
<clipPath id="clip0_503_4098">
<rect width="28" height="20" rx="2" fill="white"/>
</clipPath>
</defs>
</svg>
