<svg width="28" height="20" fill="none" xmlns="http://www.w3.org/2000/svg"><rect width="28" height="20" rx="2" fill="#fff"/><mask id="a" style="mask-type:alpha" maskUnits="userSpaceOnUse" x="0" y="0" width="28" height="20"><rect width="28" height="20" rx="2" fill="#fff"/></mask><g mask="url(#a)"><path fill="#05AB41" d="M0 0h28v20H0z"/><path fill-rule="evenodd" clip-rule="evenodd" d="M3.532 10.56a.667.667 0 0 1 0-1.12l10.106-6.539a.667.667 0 0 1 .724 0l10.106 6.54a.667.667 0 0 1 0 1.119l-10.106 6.539a.667.667 0 0 1-.724 0l-10.106-6.54Z" fill="#FDD216"/><path fill-rule="evenodd" clip-rule="evenodd" d="M14 14.667a4.667 4.667 0 1 0 0-9.334 4.667 4.667 0 0 0 0 9.334Z" fill="#053087"/><mask id="b" style="mask-type:alpha" maskUnits="userSpaceOnUse" x="9" y="5" width="10" height="10"><path fill-rule="evenodd" clip-rule="evenodd" d="M14 14.667a4.667 4.667 0 1 0 0-9.334 4.667 4.667 0 0 0 0 9.334Z" fill="#fff"/></mask><g mask="url(#b)"><path d="M8.78 8.78c.733-.593 3.097-.031 5.304.558 2.207.588 4.509 1.822 5.095 2.546" stroke="#fff" stroke-width="1.333" stroke-linecap="square"/></g></g></svg>