<svg width="28" height="20" fill="none" xmlns="http://www.w3.org/2000/svg"><rect width="28" height="20" rx="2" fill="#fff"/><mask id="a" style="mask-type:alpha" maskUnits="userSpaceOnUse" x="0" y="0" width="28" height="20"><rect width="28" height="20" rx="2" fill="#fff"/></mask><g mask="url(#a)" fill-rule="evenodd" clip-rule="evenodd"><path d="M0 13.333 28 0H0v13.333Z" fill="#0C4799"/><path d="m4.667 6-1.02 1.13.077-1.52-1.521.077 1.13-1.02-1.13-1.02 1.52.077-.077-1.521 1.02 1.13 1.021-1.13-.078 1.52 1.521-.077L6 4.666l1.13 1.021-1.52-.078.077 1.521L4.667 6Z" fill="#FFD243"/><path d="M0 20h28V6.667L0 20Z" fill="#1BAC55"/><path d="M3.082 22.667 30.171 5.74l-5.253-8.407L-2.171 14.26l5.253 8.407Z" fill="#fff"/><path d="m-.63 23.072 32.792-20.49-3.533-5.654-32.791 20.49 3.533 5.654Z" fill="#E52347"/></g></svg>