<svg width="28" height="20" fill="none" xmlns="http://www.w3.org/2000/svg"><rect width="28" height="20" rx="2" fill="#fff"/><mask id="a" style="mask-type:alpha" maskUnits="userSpaceOnUse" x="0" y="0" width="28" height="20"><rect width="28" height="20" rx="2" fill="#fff"/></mask><g mask="url(#a)"><path fill="#1537D1" d="M0 0h28v20H0z"/><path fill="#EA3058" d="M13.333 0H28v20H13.333z"/><path fill-rule="evenodd" clip-rule="evenodd" d="M9.333 20h9.334V0H9.333v20Z" fill="#FFCF3C"/><path fill-rule="evenodd" clip-rule="evenodd" d="M12.667 8.667H14v.666h-1.333v-.666Z" fill="#FFEDB1"/><path d="M12.725 8.333h2.55c.195 0 .349.167.333.361l-.172 2.056a1 1 0 0 1-.996.917h-.88a1 1 0 0 1-.996-.917l-.172-2.056a.333.333 0 0 1 .333-.36Z" stroke="#D32E28" stroke-width=".667"/><path fill-rule="evenodd" clip-rule="evenodd" d="M12.667 9.333h2.666V10h-2.666v-.667Z" fill="#D32E28"/></g></svg>