<svg width="28" height="20" fill="none" xmlns="http://www.w3.org/2000/svg"><rect width="28" height="20" rx="2" fill="#fff"/><mask id="a" style="mask-type:alpha" maskUnits="userSpaceOnUse" x="0" y="0" width="28" height="20"><rect width="28" height="20" rx="2" fill="#fff"/></mask><g mask="url(#a)"><g filter="url(#b)"><path fill-rule="evenodd" clip-rule="evenodd" d="M0 20h28v-5.333H0V20Z" fill="#2D754D"/></g><path fill-rule="evenodd" clip-rule="evenodd" d="M0 9.333h28V0H0v9.333Z" fill="#25B1EB"/><path fill-rule="evenodd" clip-rule="evenodd" d="M0 14.667h28V9.333H0v5.334ZM21.333 6l-1.02 1.13.078-1.52-1.521.077L20 4.667l-1.13-1.02 1.52.077-.077-1.521 1.02 1.13 1.02-1.13-.077 1.52 1.521-.077-1.13 1.02 1.13 1.021-1.52-.078.077 1.521L21.334 6Z" fill="#FECB2F"/></g><defs><filter id="b" x="0" y="14.667" width="28" height="5.333" filterUnits="userSpaceOnUse" color-interpolation-filters="sRGB"><feFlood flood-opacity="0" result="BackgroundImageFix"/><feColorMatrix in="SourceAlpha" values="0 0 0 0 0 0 0 0 0 0 0 0 0 0 0 0 0 0 127 0" result="hardAlpha"/><feOffset/><feColorMatrix values="0 0 0 0 0 0 0 0 0 0 0 0 0 0 0 0 0 0 0.06 0"/><feBlend in2="BackgroundImageFix" result="effect1_dropShadow_503_3026"/><feBlend in="SourceGraphic" in2="effect1_dropShadow_503_3026" result="shape"/></filter></defs></svg>