<svg width="28" height="20" fill="none" xmlns="http://www.w3.org/2000/svg"><rect width="28" height="20" rx="2" fill="#fff"/><mask id="a" style="mask-type:alpha" maskUnits="userSpaceOnUse" x="0" y="0" width="28" height="20"><rect width="28" height="20" rx="2" fill="#fff"/></mask><g mask="url(#a)"><path fill="#E4233B" d="M0 0h28v20H0z"/><path fill-rule="evenodd" clip-rule="evenodd" d="m0 0 12 10L0 20V0Zm28 0L16 10l12 10V0Z" fill="#34CD4E"/><path fill-rule="evenodd" clip-rule="evenodd" d="M16.962 6.394A4.648 4.648 0 0 0 14 5.334a4.648 4.648 0 0 0-2.962 1.06l-12.32-8.31-1.492 2.21 12.32 8.31a4.665 4.665 0 0 0 0 2.792l-12.32 8.31 1.492 2.21 12.32-8.31A4.648 4.648 0 0 0 14 14.666a4.648 4.648 0 0 0 2.962-1.06l12.32 8.31 1.492-2.21-12.32-8.31a4.663 4.663 0 0 0 0-2.792l12.32-8.31-1.492-2.21-12.32 8.31Z" fill="#fff"/><path fill-rule="evenodd" clip-rule="evenodd" d="m14 8.667-.943.276.276-.943-.276-.943.943.276.943-.276-.277.943.277.943L14 8.667ZM12 12l-.943.276.276-.943-.276-.943.943.277.943-.277-.277.943.277.943L12 12Zm3.057.276L16 12l.943.276-.277-.943.277-.943-.943.277-.943-.277.276.943-.276.943Z" fill="#DF2239"/></g></svg>