<svg width="28" height="20" fill="none" xmlns="http://www.w3.org/2000/svg"><rect x=".25" y=".25" width="27.5" height="19.5" rx="1.75" fill="#fff" stroke="#F5F5F5" stroke-width=".5"/><mask id="a" style="mask-type:alpha" maskUnits="userSpaceOnUse" x="0" y="0" width="28" height="20"><rect x=".25" y=".25" width="27.5" height="19.5" rx="1.75" fill="#fff" stroke="#fff" stroke-width=".5"/></mask><g mask="url(#a)" fill-rule="evenodd" clip-rule="evenodd"><path d="M28 9.333H13.333V0H28v9.333Z" fill="#E52448"/><path d="M13.333 20H0V9.333h13.333V20ZM6.667 5.76 5.099 6.824l.528-1.82-1.497-1.16 1.893-.06L6.667 2l.642 1.782 1.894.06-1.497 1.163.528 1.819L6.667 5.76Z" fill="#1367AE"/><path d="m20.667 15.76-1.568 1.064.528-1.82-1.496-1.161 1.893-.06.643-1.783.642 1.782 1.894.06-1.497 1.162.528 1.82-1.567-1.064Z" fill="#E52448"/></g></svg>