<svg width="28" height="20" viewBox="0 0 28 20" fill="none" xmlns="http://www.w3.org/2000/svg">
<g clip-path="url(#clip0_503_2942)">
<rect x="0.25" y="0.25" width="27.5" height="19.5" rx="1.75" fill="white" stroke="#F5F5F5" stroke-width="0.5"/>
<mask id="mask0_503_2942" style="mask-type:alpha" maskUnits="userSpaceOnUse" x="0" y="0" width="28" height="20">
<rect x="0.25" y="0.25" width="27.5" height="19.5" rx="1.75" fill="white" stroke="white" stroke-width="0.5"/>
</mask>
<g mask="url(#mask0_503_2942)">
<path fill-rule="evenodd" clip-rule="evenodd" d="M0 6.66667H28V0H0V6.66667Z" fill="#0884E6"/>
<path fill-rule="evenodd" clip-rule="evenodd" d="M0 20H28V13.3333H0V20Z" fill="#0884E6"/>
<path fill-rule="evenodd" clip-rule="evenodd" d="M14 10.6667L13.0572 10.9428L13.3333 9.99999L13.0572 9.05718L14 9.33332L14.9428 9.05718L14.6666 9.99999L14.9428 10.9428L14 10.6667Z" fill="#0E88E9"/>
<path fill-rule="evenodd" clip-rule="evenodd" d="M19.3333 9.33334L18.3905 9.60949L18.6667 8.66668L18.3905 7.72387L19.3333 8.00001L20.2761 7.72387L20 8.66668L20.2761 9.60949L19.3333 9.33334Z" fill="#0E88E9"/>
<path fill-rule="evenodd" clip-rule="evenodd" d="M19.3333 12L18.3905 12.2761L18.6667 11.3333L18.3905 10.3905L19.3333 10.6667L20.2761 10.3905L20 11.3333L20.2761 12.2761L19.3333 12Z" fill="#0E88E9"/>
<path fill-rule="evenodd" clip-rule="evenodd" d="M8.66671 12L7.7239 12.2761L8.00004 11.3333L7.7239 10.3905L8.66671 10.6667L9.60952 10.3905L9.33337 11.3333L9.60952 12.2761L8.66671 12Z" fill="#0E88E9"/>
<path fill-rule="evenodd" clip-rule="evenodd" d="M8.66671 9.33334L7.7239 9.60949L8.00004 8.66668L7.7239 7.72387L8.66671 8.00001L9.60952 7.72387L9.33337 8.66668L9.60952 9.60949L8.66671 9.33334Z" fill="#0E88E9"/>
</g>
</g>
<defs>
<clipPath id="clip0_503_2942">
<rect width="28" height="20" rx="2" fill="white"/>
</clipPath>
</defs>
</svg>
