<svg width="28" height="20" viewBox="0 0 28 20" fill="none" xmlns="http://www.w3.org/2000/svg">
<rect width="28" height="20" rx="2" fill="white"/>
<mask id="mask0_503_2543" style="mask-type:alpha" maskUnits="userSpaceOnUse" x="0" y="0" width="28" height="20">
<rect width="28" height="20" rx="2" fill="white"/>
</mask>
<g mask="url(#mask0_503_2543)">
<rect width="28" height="20" fill="#043CAE"/>
<path fill-rule="evenodd" clip-rule="evenodd" d="M13.0572 4.27614L14 3.99999L14.9428 4.27614L14.6667 3.33333L14.9428 2.39052L14 2.66666L13.0572 2.39052L13.3333 3.33333L13.0572 4.27614ZM13.0572 17.6095L14 17.3333L14.9428 17.6095L14.6667 16.6667L14.9428 15.7239L14 16L13.0572 15.7239L13.3333 16.6667L13.0572 17.6095ZM20.6667 10.6667L19.7239 10.9428L20 9.99999L19.7239 9.05719L20.6667 9.33333L21.6095 9.05719L21.3333 9.99999L21.6095 10.9428L20.6667 10.6667ZM6.39053 10.9428L7.33334 10.6667L8.27615 10.9428L8.00001 9.99999L8.27615 9.05719L7.33334 9.33333L6.39053 9.05719L6.66668 9.99999L6.39053 10.9428ZM19.7735 7.33333L18.8307 7.60947L19.1068 6.66666L18.8307 5.72385L19.7735 5.99999L20.7163 5.72385L20.4402 6.66666L20.7163 7.60947L19.7735 7.33333ZM7.2837 14.2761L8.22651 14L9.16932 14.2761L8.89317 13.3333L9.16932 12.3905L8.22651 12.6667L7.2837 12.3905L7.55984 13.3333L7.2837 14.2761ZM17.3333 4.89316L16.3905 5.1693L16.6667 4.22649L16.3905 3.28368L17.3333 3.55982L18.2762 3.28368L18 4.22649L18.2762 5.1693L17.3333 4.89316ZM9.72387 16.7163L10.6667 16.4402L11.6095 16.7163L11.3333 15.7735L11.6095 14.8307L10.6667 15.1068L9.72387 14.8307L10 15.7735L9.72387 16.7163ZM19.7735 14L18.8307 14.2761L19.1068 13.3333L18.8307 12.3905L19.7735 12.6667L20.7163 12.3905L20.4402 13.3333L20.7163 14.2761L19.7735 14ZM7.2837 7.60947L8.22651 7.33333L9.16932 7.60947L8.89317 6.66666L9.16932 5.72385L8.22651 5.99999L7.2837 5.72385L7.55984 6.66666L7.2837 7.60947ZM17.3333 16.4402L16.3905 16.7163L16.6667 15.7735L16.3905 14.8307L17.3333 15.1068L18.2762 14.8307L18 15.7735L18.2762 16.7163L17.3333 16.4402ZM9.72387 5.1693L10.6667 4.89316L11.6095 5.1693L11.3333 4.22649L11.6095 3.28368L10.6667 3.55982L9.72387 3.28368L10 4.22649L9.72387 5.1693Z" fill="#FFD429"/>
</g>
</svg>
