<svg width="28" height="20" viewBox="0 0 28 20" fill="none" xmlns="http://www.w3.org/2000/svg">
<g clip-path="url(#clip0_503_4888)">
<rect width="28" height="20" rx="2" fill="white"/>
<mask id="mask0_503_4888" style="mask-type:alpha" maskUnits="userSpaceOnUse" x="0" y="0" width="28" height="20">
<rect width="28" height="20" rx="2" fill="white"/>
</mask>
<g mask="url(#mask0_503_4888)">
<rect width="28" height="20" fill="#108B4D"/>
<path fill-rule="evenodd" clip-rule="evenodd" d="M19.8134 7.73335C19.862 8.04079 19.8872 8.35599 19.8872 8.67707C19.8872 11.9908 17.2009 14.6771 13.8872 14.6771C10.5735 14.6771 7.88721 11.9908 7.88721 8.67707C7.88721 8.35599 7.91243 8.04079 7.961 7.73335C8.41369 10.5987 10.8946 12.7896 13.8872 12.7896C16.8798 12.7896 19.3607 10.5987 19.8134 7.73335V7.73335ZM13.9998 8.56411L12.3517 9.73899L12.9598 7.8085L11.3331 6.60413L13.357 6.58591L13.9998 4.66669L14.6425 6.58591L16.6664 6.60413L15.0398 7.8085L15.6479 9.73899L13.9998 8.56411Z" fill="#FFC941"/>
</g>
</g>
<defs>
<clipPath id="clip0_503_4888">
<rect width="28" height="20" rx="2" fill="white"/>
</clipPath>
</defs>
</svg>
