<svg width="28" height="20" viewBox="0 0 28 20" fill="none" xmlns="http://www.w3.org/2000/svg">
<g clip-path="url(#clip0_503_2871)">
<rect x="0.25" y="0.25" width="27.5" height="19.5" rx="1.75" fill="white" stroke="#F5F5F5" stroke-width="0.5"/>
<mask id="mask0_503_2871" style="mask-type:alpha" maskUnits="userSpaceOnUse" x="0" y="0" width="28" height="20">
<rect x="0.25" y="0.25" width="27.5" height="19.5" rx="1.75" fill="white" stroke="white" stroke-width="0.5"/>
</mask>
<g mask="url(#mask0_503_2871)">
<path fill-rule="evenodd" clip-rule="evenodd" d="M0 10.6667H28V0H0V10.6667Z" fill="#E12237"/>
<path fill-rule="evenodd" clip-rule="evenodd" d="M6.66669 9.33333C7.6118 9.33333 8.48035 9.00555 9.16487 8.45747C8.80226 8.59273 8.40978 8.66666 8.00002 8.66666C6.15907 8.66666 4.66669 7.17428 4.66669 5.33333C4.66669 3.49238 6.15907 1.99999 8.00002 1.99999C8.40977 1.99999 8.80226 2.07393 9.16487 2.20918C8.48035 1.66111 7.6118 1.33333 6.66669 1.33333C4.45755 1.33333 2.66669 3.12419 2.66669 5.33333C2.66669 7.54247 4.45755 9.33333 6.66669 9.33333ZM8.00002 4.66666C8.00002 5.03485 7.70154 5.33333 7.33335 5.33333C6.96516 5.33333 6.66669 5.03485 6.66669 4.66666C6.66669 4.29847 6.96516 3.99999 7.33335 3.99999C7.70154 3.99999 8.00002 4.29847 8.00002 4.66666ZM8.66669 8C9.03488 8 9.33335 7.70152 9.33335 7.33333C9.33335 6.96514 9.03488 6.66666 8.66669 6.66666C8.2985 6.66666 8.00002 6.96514 8.00002 7.33333C8.00002 7.70152 8.2985 8 8.66669 8ZM12 7.33333C12 7.70152 11.7015 8 11.3334 8C10.9652 8 10.6667 7.70152 10.6667 7.33333C10.6667 6.96514 10.9652 6.66666 11.3334 6.66666C11.7015 6.66666 12 6.96514 12 7.33333ZM12.6667 5.33333C13.0349 5.33333 13.3334 5.03485 13.3334 4.66666C13.3334 4.29847 13.0349 3.99999 12.6667 3.99999C12.2985 3.99999 12 4.29847 12 4.66666C12 5.03485 12.2985 5.33333 12.6667 5.33333ZM10.6667 2.66666C10.6667 3.03485 10.3682 3.33333 10 3.33333C9.63183 3.33333 9.33335 3.03485 9.33335 2.66666C9.33335 2.29847 9.63183 1.99999 10 1.99999C10.3682 1.99999 10.6667 2.29847 10.6667 2.66666Z" fill="white"/>
</g>
</g>
<defs>
<clipPath id="clip0_503_2871">
<rect width="28" height="20" rx="2" fill="white"/>
</clipPath>
</defs>
</svg>
