<svg width="28" height="20" fill="none" xmlns="http://www.w3.org/2000/svg"><rect width="28" height="20" rx="2" fill="#fff"/><mask id="a" style="mask-type:alpha" maskUnits="userSpaceOnUse" x="0" y="0" width="28" height="20"><rect width="28" height="20" rx="2" fill="#fff"/></mask><g mask="url(#a)"><path fill="#19BFBF" d="M0 0h28v20H0z"/><path fill-rule="evenodd" clip-rule="evenodd" d="m13.333 14.667-.574-1.15a.333.333 0 0 0-.298-.184h-.323a.333.333 0 0 1-.236-.097l-2.471-2.472a.333.333 0 0 1-.098-.235V9.47a.333.333 0 0 0-.097-.235l-1.17-1.17a.333.333 0 0 1-.088-.156l-.6-2.4a.333.333 0 0 0-.218-.235l-1.804-.6a.332.332 0 0 1-.044-.019l-1.128-.564A.333.333 0 0 1 4 3.794V3c0-.184.15-.333.333-.333h.862c.089 0 .173.035.236.097l.471.472a.333.333 0 0 0 .236.097h1.057a.333.333 0 0 0 .236-.097l.471-.472a.333.333 0 0 1 .236-.097h2.45c.052 0 .103.012.149.035l1.193.596a.333.333 0 0 0 .149.035h1.176a.333.333 0 0 0 .149-.035l1.192-.596a.333.333 0 0 1 .15-.035H17c.184 0 .333.149.333.333v.667A.333.333 0 0 1 17 4h-.667a.333.333 0 0 0-.333.333v1.461c0 .126.071.242.184.298l.667.333a.333.333 0 0 0 .482-.298V5c0-.184.15-.333.334-.333H19c.184 0 .333.149.333.333 0 .184.15.333.334.333H21c.184 0 .333.15.333.334v.946a.331.331 0 0 1-.017.105l-.624 1.874a.332.332 0 0 1-.081.13l-1.906 1.906a.333.333 0 0 0-.063.087l-.607 1.215a.333.333 0 0 0-.035.149V13c0 .184-.15.333-.333.333h-.128a.333.333 0 0 1-.298-.184l-.482-.965A.333.333 0 0 0 16.46 12h-1.588a.333.333 0 0 0-.298.184l-.5 1a.333.333 0 0 0 0 .298l.5 1a.333.333 0 0 0 .298.185h.989c.088 0 .173.035.236.097l1.138 1.138a.333.333 0 0 1 .097.236V17a.333.333 0 0 1-.333.333h-.794a.333.333 0 0 1-.298-.184l-.482-.965a.333.333 0 0 0-.299-.184h-.921a.333.333 0 0 1-.298-.184l-.575-1.15Z" fill="#fff"/></g></svg>