<svg width="28" height="20" fill="none" xmlns="http://www.w3.org/2000/svg"><rect x=".25" y=".25" width="27.5" height="19.5" rx="1.75" fill="#fff" stroke="#F5F5F5" stroke-width=".5"/><mask id="a" style="mask-type:alpha" maskUnits="userSpaceOnUse" x="0" y="0" width="28" height="20"><rect x=".25" y=".25" width="27.5" height="19.5" rx="1.75" fill="#fff" stroke="#fff" stroke-width=".5"/></mask><g mask="url(#a)"><path fill="#63AEE3" d="M18.666 0h9.333v20h-9.333z"/><path fill-rule="evenodd" clip-rule="evenodd" d="M0 20h9.333V0H0v20Z" fill="#63AEE3"/><path d="M12 9.333a.667.667 0 0 0-1.333 0H12Zm.33 2.885a.667.667 0 1 0 .668-1.153l-.669 1.153Zm2.746-1.198a.667.667 0 1 0 .718 1.123l-.718-1.123Zm2.258-1.687a.667.667 0 0 0-1.334 0h1.334Zm-6.667 0c0 1.233.67 2.31 1.662 2.885l.67-1.153A1.999 1.999 0 0 1 12 9.333h-1.333Zm5.127 2.81a3.331 3.331 0 0 0 1.54-2.81H16a2 2 0 0 1-.924 1.687l.718 1.123Z" fill="#628A40"/><path fill-rule="evenodd" clip-rule="evenodd" d="M14 10.667A1.333 1.333 0 1 0 14 8a1.333 1.333 0 0 0 0 2.667Z" fill="#DCC26D"/></g></svg>