<svg width="28" height="20" fill="none" xmlns="http://www.w3.org/2000/svg"><rect width="28" height="20" rx="2" fill="#fff"/><mask id="a" style="mask-type:alpha" maskUnits="userSpaceOnUse" x="0" y="0" width="28" height="20"><rect width="28" height="20" rx="2" fill="#fff"/></mask><g mask="url(#a)"><path fill="#0A17A7" d="M0 0h28v20H0z"/><path fill-rule="evenodd" clip-rule="evenodd" d="M17.334 10V6.667l1.333.666L20 6.667l1.334.666 1.333-.666V10c0 2-2.667 3.333-2.667 3.333S17.334 12 17.334 10Z" fill="#fff"/><mask id="b" style="mask-type:alpha" maskUnits="userSpaceOnUse" x="17" y="6" width="6" height="8"><path fill-rule="evenodd" clip-rule="evenodd" d="M17.334 10V6.667l1.333.666L20 6.667l1.334.666 1.333-.666V10c0 2-2.667 3.333-2.667 3.333S17.334 12 17.334 10Z" fill="#fff"/></mask><g mask="url(#b)"><path fill="#9ACCFF" d="M17.334 12h5.333v1.333h-5.333z"/><path fill-rule="evenodd" clip-rule="evenodd" d="M20 9.333A.667.667 0 1 0 20 8a.667.667 0 0 0 0 1.333Zm-1.333 1.334a.667.667 0 1 0 0-1.334.667.667 0 0 0 0 1.334ZM22 10a.667.667 0 1 1-1.333 0A.667.667 0 0 1 22 10Z" fill="url(#c)"/></g><path d="M0-.333h-.901l.684.586 4.55 3.9v1.009L-.194 8.395l-.14.1v1.44l.51-.319L5.43 6.333h1.13l4.523 3.23a.554.554 0 0 0 .682-.87L7.667 5.18V4.172l4.387-3.134a.667.667 0 0 0 .28-.543V-.6l-.51.318L6.57 3H5.44L.86-.271.772-.333H0Z" fill="#FF2E3B" stroke="#fff" stroke-width=".667"/><path fill-rule="evenodd" clip-rule="evenodd" d="M0 3.333V6h4.667v3.333c0 .369.298.667.666.667h1.334a.667.667 0 0 0 .666-.667V6H12a.667.667 0 0 0 .667-.667V4A.667.667 0 0 0 12 3.333H7.333V0H4.667v3.333H0Z" fill="#fff"/><path fill-rule="evenodd" clip-rule="evenodd" d="M0 4h5.333V0h1.334v4H12v1.333H6.667v4H5.333v-4H0V4Z" fill="#FF2E3B"/></g><defs><linearGradient id="c" x1="18" y1="8" x2="18" y2="10.667" gradientUnits="userSpaceOnUse"><stop stop-color="#FFA51B"/><stop offset="1" stop-color="#FF9A00"/></linearGradient></defs></svg>