<svg width="28" height="20" fill="none" xmlns="http://www.w3.org/2000/svg"><rect x=".25" y=".25" width="27.5" height="19.5" rx="1.75" fill="#fff" stroke="#F5F5F5" stroke-width=".5"/><mask id="a" style="mask-type:alpha" maskUnits="userSpaceOnUse" x="0" y="0" width="28" height="20"><rect x=".25" y=".25" width="27.5" height="19.5" rx="1.75" fill="#fff" stroke="#fff" stroke-width=".5"/></mask><g mask="url(#a)" fill-rule="evenodd" clip-rule="evenodd"><path d="M0 20h28v-6.667H0V20Z" fill="#262626"/><path d="M0 6.667h28V0H0v6.667Z" fill="#E32139"/><path d="m9.333 11.093-1.567 1.064.527-1.82-1.496-1.161 1.894-.06.642-1.783.643 1.782 1.893.06-1.496 1.163.528 1.82-1.568-1.065Zm9.334 0-1.568 1.064.528-1.82-1.496-1.161 1.893-.06.643-1.783.642 1.782 1.894.061-1.497 1.162.528 1.82-1.567-1.065Z" fill="#128A49"/></g></svg>