<svg width="28" height="20" fill="none" xmlns="http://www.w3.org/2000/svg"><rect x=".25" y=".25" width="27.5" height="19.5" rx="1.75" fill="#fff" stroke="#F5F5F5" stroke-width=".5"/><mask id="a" style="mask-type:alpha" maskUnits="userSpaceOnUse" x="0" y="0" width="28" height="20"><rect x=".25" y=".25" width="27.5" height="19.5" rx="1.75" fill="#fff" stroke="#fff" stroke-width=".5"/></mask><g mask="url(#a)" fill-rule="evenodd" clip-rule="evenodd"><path d="M0 6.667h28V0H0v6.667Z" fill="#DF1E35"/><path d="M0 20h28v-6.667H0V20Z" fill="#262626"/><path d="M18.667 8.54c0-.248.26-.41.482-.299l.667.334a.333.333 0 0 1 .184.298v2.794c0 .184-.15.333-.333.333H19a.333.333 0 0 1-.333-.333V8.539Zm-8 0c0-.248.26-.41.482-.299l.667.334a.333.333 0 0 1 .184.298v2.794c0 .184-.15.333-.333.333H11a.333.333 0 0 1-.333-.333V8.539ZM16 8.873c0-.127.071-.242.184-.298l.667-.334c.222-.11.482.05.482.298v3.128A.333.333 0 0 1 17 12h-.667a.333.333 0 0 1-.333-.333V8.873Z" fill="#0F7A40"/><path d="M13.333 10.206c0-.126.072-.242.185-.298l.666-.333a.334.334 0 0 1 .483.298v.853h2V12h-3a.333.333 0 0 1-.334-.333v-1.461Zm-5.333 0c0-.126.071-.242.184-.298l.667-.333a.333.333 0 0 1 .482.298v.853h2V12h-3A.333.333 0 0 1 8 11.667v-1.461Z" fill="#0F7A40"/></g></svg>