<svg width="28" height="20" fill="none" xmlns="http://www.w3.org/2000/svg"><rect x=".25" y=".25" width="27.5" height="19.5" rx="1.75" fill="#fff" stroke="#F5F5F5" stroke-width=".5"/><mask id="a" style="mask-type:alpha" maskUnits="userSpaceOnUse" x="0" y="0" width="28" height="20"><rect x=".25" y=".25" width="27.5" height="19.5" rx="1.75" fill="#fff" stroke="#fff" stroke-width=".5"/></mask><g mask="url(#a)" fill-rule="evenodd" clip-rule="evenodd"><path d="M0 10.667h28V0H0v10.667Z" fill="#E12237"/><path d="M6.667 9.333c.945 0 1.813-.327 2.498-.876a3.333 3.333 0 1 1 0-6.248 4 4 0 1 0-2.498 7.124ZM8 4.667a.667.667 0 1 1-1.333 0 .667.667 0 0 1 1.333 0ZM8.667 8a.667.667 0 1 0 0-1.333.667.667 0 0 0 0 1.333ZM12 7.333a.667.667 0 1 1-1.333 0 .667.667 0 0 1 1.333 0Zm.667-2a.667.667 0 1 0 0-1.333.667.667 0 0 0 0 1.333Zm-2-2.666a.667.667 0 1 1-1.334 0 .667.667 0 0 1 1.334 0Z" fill="#fff"/></g></svg>