<svg width="28" height="20" viewBox="0 0 28 20" fill="none" xmlns="http://www.w3.org/2000/svg">
<g clip-path="url(#clip0_503_2507)">
<rect width="28" height="20" rx="2" fill="white"/>
<mask id="mask0_503_2507" style="mask-type:alpha" maskUnits="userSpaceOnUse" x="0" y="0" width="28" height="20">
<rect width="28" height="20" rx="2" fill="white"/>
</mask>
<g mask="url(#mask0_503_2507)">
<path fill-rule="evenodd" clip-rule="evenodd" d="M0 14.6667H28V9.33334H0V14.6667Z" fill="#0748AE"/>
<path fill-rule="evenodd" clip-rule="evenodd" d="M0 20H28V14.6667H0V20Z" fill="#DE2035"/>
<path fill-rule="evenodd" clip-rule="evenodd" d="M0 9.33333H28V0H0V9.33333Z" fill="#FFD935"/>
<path fill-rule="evenodd" clip-rule="evenodd" d="M12.4 8C11.7523 8.48651 11.3334 9.26108 11.3334 10.1335C11.3334 11.6062 12.5273 12.8002 14 12.8002C15.4728 12.8002 16.6667 11.6062 16.6667 10.1335C16.6667 9.26108 16.2478 8.48651 15.6001 8L14.6667 10.8002H13.3334L12.4 8Z" fill="#FFD935"/>
<path fill-rule="evenodd" clip-rule="evenodd" d="M14 7.33334L14.6667 10.6667H13.3334L14 7.33334Z" fill="#5FC0DC"/>
<path opacity="0.66" d="M17.3333 6.00001L15.3333 5.33334L14 6.66668L12.6666 5.33334L10.6666 6.00001" stroke="#3F2821" stroke-width="0.666667" stroke-linecap="round" stroke-linejoin="round"/>
</g>
</g>
<defs>
<clipPath id="clip0_503_2507">
<rect width="28" height="20" rx="2" fill="white"/>
</clipPath>
</defs>
</svg>
