<svg width="28" height="20" fill="none" xmlns="http://www.w3.org/2000/svg"><rect x=".25" y=".25" width="27.5" height="19.5" rx="1.75" fill="#fff" stroke="#F5F5F5" stroke-width=".5"/><mask id="a" style="mask-type:alpha" maskUnits="userSpaceOnUse" x="0" y="0" width="28" height="20"><rect x=".25" y=".25" width="27.5" height="19.5" rx="1.75" fill="#fff" stroke="#fff" stroke-width=".5"/></mask><g mask="url(#a)"><path fill-rule="evenodd" clip-rule="evenodd" d="M0 13.333h28V6.667H0v6.666Z" fill="#17508F"/><path fill-rule="evenodd" clip-rule="evenodd" d="M0 6.667h28V0H0v6.667Z" fill="#E1444D"/><path fill-rule="evenodd" clip-rule="evenodd" d="M6 10c0-.645.344-2.082.537-2.841a.656.656 0 0 1 .638-.492h2.984c.3 0 .563.2.637.49.194.755.537 2.183.537 2.843 0 .745-.5 2.7-.634 3.21a.574.574 0 0 1-.112.223c-.255.31-1.088 1.234-1.92 1.234-.833 0-1.666-.926-1.921-1.235a.574.574 0 0 1-.112-.22C6.5 12.704 6 10.762 6 10Z" fill="#fff"/><mask id="b" style="mask-type:alpha" maskUnits="userSpaceOnUse" x="6" y="6" width="6" height="9"><path fill-rule="evenodd" clip-rule="evenodd" d="M6 10c0-.645.344-2.082.537-2.841a.656.656 0 0 1 .638-.492h2.984c.3 0 .563.2.637.49.194.755.537 2.183.537 2.843 0 .745-.5 2.7-.634 3.21a.574.574 0 0 1-.112.223c-.255.31-1.088 1.234-1.92 1.234-.833 0-1.666-.926-1.921-1.235a.574.574 0 0 1-.112-.22C6.5 12.704 6 10.762 6 10Z" fill="#fff"/></mask><g mask="url(#b)" stroke="#E1444D" stroke-width="1.333" stroke-linecap="square"><path d="M11.333 7.333 6 14m0-6.667L11.333 14"/></g></g></svg>