<svg width="28" height="20" viewBox="0 0 28 20" fill="none" xmlns="http://www.w3.org/2000/svg">
<g clip-path="url(#clip0_1310_9367)">
<path d="M28 0H0V20H28V0Z" fill="url(#paint0_linear_1310_9367)"/>
<path d="M28 0H0V13.3333H28V0Z" fill="url(#paint1_linear_1310_9367)"/>
<path d="M28 13.3333H3.05176e-05V20H28V13.3333Z" fill="url(#paint2_linear_1310_9367)"/>
<path fill-rule="evenodd" clip-rule="evenodd" d="M12.0001 8H10.6667V5.9873C10.6667 5.62008 10.3654 5.33333 9.99381 5.33333H8.67296C8.28543 5.33333 8.00005 5.62613 8.00005 5.9873V9.00635V10.6667L6.66672 12H21.3334L20.0001 10.6667V9.00635V5.9873C20.0001 5.62008 19.6988 5.33333 19.3271 5.33333H18.0063C17.6188 5.33333 17.3334 5.62613 17.3334 5.9873V8H16.0001V4.65397C16.0001 4.28674 15.7043 4 15.3395 4H12.6606C12.2877 4 12.0001 4.29279 12.0001 4.65397V8Z" fill="url(#paint3_linear_1310_9367)"/>
<path fill-rule="evenodd" clip-rule="evenodd" d="M9.33338 10.6667C8.96519 10.6667 8.66672 10.3682 8.66672 10C8.66672 9.63182 8.96519 9.33334 9.33338 9.33334C9.70157 9.33334 10.0001 9.63182 10.0001 10C10.0001 10.3682 9.70157 10.6667 9.33338 10.6667ZM9.33338 8.00001C8.96519 8.00001 8.66672 7.70153 8.66672 7.33334C8.66672 6.96515 8.96519 6.66668 9.33338 6.66668C9.70157 6.66668 10.0001 6.96515 10.0001 7.33334C10.0001 7.70153 9.70157 8.00001 9.33338 8.00001ZM14.0001 10.6667C13.6319 10.6667 13.3334 10.3682 13.3334 10C13.3334 9.63182 13.6319 9.33334 14.0001 9.33334C14.3682 9.33334 14.6667 9.63182 14.6667 10C14.6667 10.3682 14.3682 10.6667 14.0001 10.6667ZM14.0001 6.66668C13.6319 6.66668 13.3334 6.3682 13.3334 6.00001C13.3334 5.63182 13.6319 5.33334 14.0001 5.33334C14.3682 5.33334 14.6667 5.63182 14.6667 6.00001C14.6667 6.3682 14.3682 6.66668 14.0001 6.66668ZM18.6667 10.6667C18.2985 10.6667 18.0001 10.3682 18.0001 10C18.0001 9.63182 18.2985 9.33334 18.6667 9.33334C19.0349 9.33334 19.3334 9.63182 19.3334 10C19.3334 10.3682 19.0349 10.6667 18.6667 10.6667ZM18.6667 8.00001C18.2985 8.00001 18.0001 7.70153 18.0001 7.33334C18.0001 6.96515 18.2985 6.66668 18.6667 6.66668C19.0349 6.66668 19.3334 6.96515 19.3334 7.33334C19.3334 7.70153 19.0349 8.00001 18.6667 8.00001Z" fill="url(#paint4_linear_1310_9367)"/>
<path fill-rule="evenodd" clip-rule="evenodd" d="M13.3334 13.2575V16H12V17.3333H14.6667V13.2575C15.4435 13.0744 16 12.5805 16 12C16 11.2636 15.1046 10.6667 14 10.6667C12.8955 10.6667 12 11.2636 12 12C12 12.5805 12.5566 13.0744 13.3334 13.2575Z" fill="url(#paint5_linear_1310_9367)"/>
</g>
<defs>
<linearGradient id="paint0_linear_1310_9367" x1="14" y1="0" x2="14" y2="20" gradientUnits="userSpaceOnUse">
<stop stop-color="white"/>
<stop offset="1" stop-color="#F0F0F0"/>
</linearGradient>
<linearGradient id="paint1_linear_1310_9367" x1="14" y1="0" x2="14" y2="13.3333" gradientUnits="userSpaceOnUse">
<stop stop-color="white"/>
<stop offset="1" stop-color="#F0F0F0"/>
</linearGradient>
<linearGradient id="paint2_linear_1310_9367" x1="14" y1="13.3333" x2="14" y2="20" gradientUnits="userSpaceOnUse">
<stop stop-color="#E71924"/>
<stop offset="1" stop-color="#D6101B"/>
</linearGradient>
<linearGradient id="paint3_linear_1310_9367" x1="14.0001" y1="4" x2="14.0001" y2="12" gradientUnits="userSpaceOnUse">
<stop stop-color="#EA1824"/>
<stop offset="1" stop-color="#D6101B"/>
</linearGradient>
<linearGradient id="paint4_linear_1310_9367" x1="14.0001" y1="5.33334" x2="14.0001" y2="10.6667" gradientUnits="userSpaceOnUse">
<stop stop-color="#262626"/>
<stop offset="1" stop-color="#0D0D0D"/>
</linearGradient>
<linearGradient id="paint5_linear_1310_9367" x1="14" y1="10.6667" x2="14" y2="17.3333" gradientUnits="userSpaceOnUse">
<stop stop-color="#ECCE3E"/>
<stop offset="1" stop-color="#D9BC2D"/>
</linearGradient>
<clipPath id="clip0_1310_9367">
<rect width="28" height="20" rx="2" fill="white"/>
</clipPath>
</defs>
</svg>
