<svg width="28" height="20" viewBox="0 0 28 20" fill="none" xmlns="http://www.w3.org/2000/svg">
<g clip-path="url(#clip0_1310_8045)">
<path d="M28.0002 0H0.000198364V20H28.0002V0Z" fill="url(#paint0_linear_1310_8045)"/>
<mask id="mask0_1310_8045" style="mask-type:alpha" maskUnits="userSpaceOnUse" x="10" y="5" width="8" height="10">
<path d="M10.6662 5.98805C10.6662 5.62648 10.9527 5.33337 11.3298 5.33337H16.6693C17.0358 5.33337 17.3329 5.63721 17.3329 5.98805V12.6787C17.3329 13.0403 17.0419 13.3439 16.6654 13.3746C16.6654 13.3746 14.6662 13.3334 13.9995 14.5874C13.3329 13.3334 11.3336 13.3746 11.3336 13.3746C10.965 13.3518 10.6662 13.0295 10.6662 12.6787V5.98805Z" fill="white"/>
</mask>
<g mask="url(#mask0_1310_8045)">
<path d="M10.6662 5.98805C10.6662 5.62648 10.9527 5.33337 11.3298 5.33337H16.6693C17.0358 5.33337 17.3329 5.63721 17.3329 5.98805V12.6787C17.3329 13.0403 17.0419 13.3439 16.6654 13.3746C16.6654 13.3746 14.6662 13.3334 13.9995 14.5874C13.3329 13.3334 11.3336 13.3746 11.3336 13.3746C10.965 13.3518 10.6662 13.0295 10.6662 12.6787V5.98805Z" fill="#D8D8D8"/>
<path fill-rule="evenodd" clip-rule="evenodd" d="M16.6662 6.00007V5.98808C16.6662 5.99734 16.6653 5.9996 16.6662 6.00007ZM16.6662 6.00008C16.6666 6.0003 16.6675 6.00008 16.6692 6.00008H16.6662ZM11.3328 6.00008V12.6787C11.3328 12.6797 11.36 12.7083 11.3199 12.7081C11.3241 12.708 11.3241 12.708 11.3321 12.7079C11.7884 12.7031 12.3897 12.7723 12.999 12.9916C13.3793 13.1284 13.7173 13.3123 13.9995 13.55C14.2816 13.3123 14.6197 13.1284 15 12.9916C15.5916 12.7786 16.1756 12.7072 16.6267 12.7077C16.6526 12.7013 16.6662 12.686 16.6662 12.6787V6.00008C16.6662 6.00007 16.6662 6.00007 16.6662 6.00008H11.3328Z" stroke="#979797" stroke-width="1.33333"/>
<g filter="url(#filter0_d_1310_8045)">
<path d="M17.3329 5.33337H10.6662V9.33337H17.3329V5.33337Z" fill="black"/>
</g>
<path d="M17.3329 5.33337H10.6662V9.33337H17.3329V5.33337Z" fill="url(#paint1_linear_1310_8045)"/>
<g filter="url(#filter1_d_1310_8045)">
<path d="M17.3329 9.33337H10.6662V14.6667H17.3329V9.33337Z" fill="black"/>
</g>
<path d="M17.3329 9.33337H10.6662V14.6667H17.3329V9.33337Z" fill="url(#paint2_linear_1310_8045)"/>
</g>
<path fill-rule="evenodd" clip-rule="evenodd" d="M20.0524 6.3011V5.68302L20.667 5.33333C20.667 5.33333 20.0602 4.59187 20.3602 4.59187C20.7268 4.59187 22.2658 5.07993 22.667 5.33333C23.0682 5.58672 23.2716 5.89125 23.3281 6.4663C23.3845 7.04136 22.9068 7.77506 22.9068 7.77506L22.667 8.333L23.7178 8.09529C23.7178 8.09529 23.8879 9.19663 23.1144 10C22.3408 10.8034 21.2553 10.6527 21.2553 10.6527L21.037 10C21.037 10 20.3285 10.2752 19.9118 10.8988C19.4952 11.5225 19.3777 12.6003 20.0524 13.2656C20.7271 13.9309 21.8404 13.8745 22.3712 12.9392C22.3712 12.9392 22.5842 12.112 22.0934 11.7231C21.6026 11.3341 21.2704 12.1377 21.2553 12.0934C21.16 11.8129 21.037 11.3341 21.8257 11.3341C22.6145 11.3341 23.0202 12.1822 22.9068 12.8342C22.7933 13.4862 22.5657 14.1053 21.037 14.2789C19.5083 14.4525 19.1148 12.5148 19.1148 12.5148C19.1148 12.5148 18.7251 10.7066 19.1148 9.40096C19.5044 8.09529 20.082 8.0629 21.2553 7.34602C22.4287 6.62915 20.547 7.10294 20.547 7.10294C20.547 7.10294 19.6534 7.77506 19.3733 7.53043C19.0932 7.2858 20.0524 6.3011 20.0524 6.3011Z" fill="url(#paint3_linear_1310_8045)"/>
<path d="M21.0002 7.66668C21.7366 7.66668 22.3335 7.06973 22.3335 6.33335C22.3335 5.59697 21.7366 5.00002 21.0002 5.00002C20.2638 5.00002 19.6669 5.59697 19.6669 6.33335C19.6669 7.06973 20.2638 7.66668 21.0002 7.66668Z" fill="url(#paint4_linear_1310_8045)" fill-opacity="0.3"/>
<path fill-rule="evenodd" clip-rule="evenodd" d="M7.94803 6.3011V5.68302L7.33337 5.33333C7.33337 5.33333 7.94022 4.59187 7.64017 4.59187C7.27355 4.59187 5.73458 5.07993 5.33337 5.33333C4.93216 5.58672 4.72878 5.89125 4.67232 6.4663C4.61586 7.04136 5.09362 7.77506 5.09362 7.77506L5.33337 8.333L4.28259 8.09529C4.28259 8.09529 4.11246 9.19663 4.88602 10C5.65958 10.8034 6.74507 10.6527 6.74507 10.6527L6.96341 10C6.96341 10 7.67191 10.2752 8.08858 10.8988C8.50524 11.5225 8.62274 12.6003 7.94803 13.2656C7.27333 13.9309 6.16003 13.8745 5.62919 12.9392C5.62919 12.9392 5.41621 12.112 5.90702 11.7231C6.39782 11.3341 6.73002 12.1377 6.74507 12.0934C6.84041 11.8129 6.96341 11.3341 6.17468 11.3341C5.38594 11.3341 4.98018 12.1822 5.09362 12.8342C5.20707 13.4862 5.43469 14.1053 6.96341 14.2789C8.49214 14.4525 8.88562 12.5148 8.88562 12.5148C8.88562 12.5148 9.27526 10.7066 8.88562 9.40096C8.49597 8.09529 7.91841 8.0629 6.74507 7.34602C5.57173 6.62915 7.4534 7.10294 7.4534 7.10294C7.4534 7.10294 8.34696 7.77506 8.62707 7.53043C8.90718 7.2858 7.94803 6.3011 7.94803 6.3011Z" fill="url(#paint5_linear_1310_8045)"/>
<path d="M7.00019 7.66668C6.26381 7.66668 5.66686 7.06973 5.66686 6.33335C5.66686 5.59697 6.26381 5.00002 7.00019 5.00002C7.73657 5.00002 8.33353 5.59697 8.33353 6.33335C8.33353 7.06973 7.73657 7.66668 7.00019 7.66668Z" fill="url(#paint6_linear_1310_8045)" fill-opacity="0.3"/>
<path fill-rule="evenodd" clip-rule="evenodd" d="M12.8452 6.66667C12.7318 6.86279 12.6669 7.09048 12.6669 7.33334C12.6669 8.06972 13.2638 8.66667 14.0002 8.66667C14.7366 8.66667 15.3335 8.06972 15.3335 7.33334C15.3335 7.09048 15.2686 6.86279 15.1552 6.66667C14.9246 7.06521 14.4937 7.33334 14.0002 7.33334C13.5067 7.33334 13.0758 7.06521 12.8452 6.66667Z" fill="url(#paint7_linear_1310_8045)"/>
<path fill-rule="evenodd" clip-rule="evenodd" d="M12.6669 12C12.2987 12 12.0002 11.7015 12.0002 11.3333C12.0002 10.9651 12.2987 10.6667 12.6669 10.6667C13.0351 10.6667 13.3335 10.9651 13.3335 11.3333C13.3335 11.7015 13.0351 12 12.6669 12ZM15.3335 12C14.9653 12 14.6669 11.7015 14.6669 11.3333C14.6669 10.9651 14.9653 10.6667 15.3335 10.6667C15.7017 10.6667 16.0002 10.9651 16.0002 11.3333C16.0002 11.7015 15.7017 12 15.3335 12Z" fill="url(#paint8_linear_1310_8045)"/>
</g>
<defs>
<filter id="filter0_d_1310_8045" x="5.33288" y="4.05312e-05" width="17.3333" height="14.6667" filterUnits="userSpaceOnUse" color-interpolation-filters="sRGB">
<feFlood flood-opacity="0" result="BackgroundImageFix"/>
<feColorMatrix in="SourceAlpha" type="matrix" values="0 0 0 0 0 0 0 0 0 0 0 0 0 0 0 0 0 0 127 0" result="hardAlpha"/>
<feOffset/>
<feGaussianBlur stdDeviation="2.66667"/>
<feColorMatrix type="matrix" values="0 0 0 0 0 0 0 0 0 0 0 0 0 0 0 0 0 0 0.06 0"/>
<feBlend mode="normal" in2="BackgroundImageFix" result="effect1_dropShadow_1310_8045"/>
<feBlend mode="normal" in="SourceGraphic" in2="effect1_dropShadow_1310_8045" result="shape"/>
</filter>
<filter id="filter1_d_1310_8045" x="5.33288" y="4.00004" width="17.3333" height="16" filterUnits="userSpaceOnUse" color-interpolation-filters="sRGB">
<feFlood flood-opacity="0" result="BackgroundImageFix"/>
<feColorMatrix in="SourceAlpha" type="matrix" values="0 0 0 0 0 0 0 0 0 0 0 0 0 0 0 0 0 0 127 0" result="hardAlpha"/>
<feOffset/>
<feGaussianBlur stdDeviation="2.66667"/>
<feColorMatrix type="matrix" values="0 0 0 0 0 0 0 0 0 0 0 0 0 0 0 0 0 0 0.06 0"/>
<feBlend mode="normal" in2="BackgroundImageFix" result="effect1_dropShadow_1310_8045"/>
<feBlend mode="normal" in="SourceGraphic" in2="effect1_dropShadow_1310_8045" result="shape"/>
</filter>
<linearGradient id="paint0_linear_1310_8045" x1="14.0002" y1="0" x2="14.0002" y2="20" gradientUnits="userSpaceOnUse">
<stop stop-color="white"/>
<stop offset="1" stop-color="#F0F0F0"/>
</linearGradient>
<linearGradient id="paint1_linear_1310_8045" x1="13.9995" y1="5.33337" x2="13.9995" y2="9.33337" gradientUnits="userSpaceOnUse">
<stop stop-color="#1B2CA9"/>
<stop offset="1" stop-color="#132294"/>
</linearGradient>
<linearGradient id="paint2_linear_1310_8045" x1="13.9995" y1="9.33337" x2="13.9995" y2="14.6667" gradientUnits="userSpaceOnUse">
<stop stop-color="#E6402C"/>
<stop offset="1" stop-color="#D1321F"/>
</linearGradient>
<linearGradient id="paint3_linear_1310_8045" x1="21.3376" y1="4.59187" x2="21.3376" y2="14.2899" gradientUnits="userSpaceOnUse">
<stop stop-color="#D0D0D0"/>
<stop offset="1" stop-color="#C4C4C4"/>
</linearGradient>
<linearGradient id="paint4_linear_1310_8045" x1="21.0002" y1="5.00002" x2="21.0002" y2="7.66668" gradientUnits="userSpaceOnUse">
<stop stop-color="#262626"/>
<stop offset="1" stop-color="#0D0D0D"/>
</linearGradient>
<linearGradient id="paint5_linear_1310_8045" x1="6.66275" y1="4.59187" x2="6.66275" y2="14.2899" gradientUnits="userSpaceOnUse">
<stop stop-color="#D0D0D0"/>
<stop offset="1" stop-color="#C4C4C4"/>
</linearGradient>
<linearGradient id="paint6_linear_1310_8045" x1="7.00019" y1="5.00002" x2="7.00019" y2="7.66668" gradientUnits="userSpaceOnUse">
<stop stop-color="#262626"/>
<stop offset="1" stop-color="#0D0D0D"/>
</linearGradient>
<linearGradient id="paint7_linear_1310_8045" x1="14.0002" y1="6.66667" x2="14.0002" y2="8.66667" gradientUnits="userSpaceOnUse">
<stop stop-color="white"/>
<stop offset="1" stop-color="#F0F0F0"/>
</linearGradient>
<linearGradient id="paint8_linear_1310_8045" x1="14.0002" y1="10.6667" x2="14.0002" y2="12" gradientUnits="userSpaceOnUse">
<stop stop-color="#F7E04B"/>
<stop offset="1" stop-color="#EAD135"/>
</linearGradient>
<clipPath id="clip0_1310_8045">
<rect width="28" height="20" rx="2" fill="white"/>
</clipPath>
</defs>
</svg>
