<svg width="28" height="20" fill="none" xmlns="http://www.w3.org/2000/svg"><rect width="28" height="20" rx="2" fill="#fff"/><mask id="a" style="mask-type:alpha" maskUnits="userSpaceOnUse" x="0" y="0" width="28" height="20"><rect width="28" height="20" rx="2" fill="#fff"/></mask><g mask="url(#a)"><path fill="url(#b)" d="M0 0h28v20H0z"/><path fill-rule="evenodd" clip-rule="evenodd" d="M13.444 3.333a.333.333 0 0 0-.2.067L10.72 5.293a.334.334 0 0 1-.119.057l-2.566.641a.333.333 0 0 0-.068.025L5.432 7.284a.333.333 0 0 0-.149.149L4.086 9.827a.333.333 0 0 0 .021.334l1.17 1.755c.037.055.056.12.056.185v1.76c0 .09.035.174.098.237l1.066 1.066a.333.333 0 0 0 .384.062l3.715-1.858a.333.333 0 0 1 .15-.035h2.466c.078 0 .154.028.214.078l3.814 3.178c.06.05.136.078.214.078h2.367a.333.333 0 0 0 .278-.149l2.511-3.767a.333.333 0 0 0 .056-.185V10.1a.33.33 0 0 0-.056-.185L20 6l-1.903-3.171a.334.334 0 0 0-.286-.162h-.419a.3.3 0 0 0-.212.513.3.3 0 0 1 .056.347l-.477.955a.333.333 0 0 1-.299.185h-1.588a.333.333 0 0 1-.298-.185l-.482-.964a.333.333 0 0 0-.298-.185h-.35Zm5.89 14H18l.43.431c.13.13.342.13.472 0l.431-.43Z" fill="#fff"/></g><defs><linearGradient id="b" x1="0" y1="0" x2="0" y2="20" gradientUnits="userSpaceOnUse"><stop stop-color="#19BFBF"/><stop offset="1" stop-color="#10ACAC"/></linearGradient></defs></svg>