<svg width="28" height="20" viewBox="0 0 28 20" fill="none" xmlns="http://www.w3.org/2000/svg">
<g clip-path="url(#clip0_503_3476)">
<rect width="28" height="20" rx="2" fill="white"/>
<mask id="mask0_503_3476" style="mask-type:alpha" maskUnits="userSpaceOnUse" x="0" y="0" width="28" height="20">
<rect width="28" height="20" rx="2" fill="white"/>
</mask>
<g mask="url(#mask0_503_3476)">
<rect x="13.3333" width="14.6667" height="20" fill="#08C47A"/>
<path fill-rule="evenodd" clip-rule="evenodd" d="M0 20H9.33333V0H0V20Z" fill="#0C87E1"/>
<path fill-rule="evenodd" clip-rule="evenodd" d="M8 20H20V0H8V20Z" fill="#FECB2F"/>
<path fill-rule="evenodd" clip-rule="evenodd" d="M9.33331 8L11.3333 4L13.3333 8L11.3333 12L9.33331 8ZM14.6666 8L16.6666 4L18.6666 8L16.6666 12L14.6666 8ZM14 9.33333L12 13.3333L14 17.3333L16 13.3333L14 9.33333Z" fill="#08C47A"/>
</g>
</g>
<defs>
<clipPath id="clip0_503_3476">
<rect width="28" height="20" rx="2" fill="white"/>
</clipPath>
</defs>
</svg>
