<svg width="28" height="20" viewBox="0 0 28 20" fill="none" xmlns="http://www.w3.org/2000/svg">
<g clip-path="url(#clip0_503_3965)">
<rect width="28" height="20" rx="2" fill="white"/>
<mask id="mask0_503_3965" style="mask-type:alpha" maskUnits="userSpaceOnUse" x="0" y="0" width="28" height="20">
<rect width="28" height="20" rx="2" fill="white"/>
</mask>
<g mask="url(#mask0_503_3965)">
<path fill-rule="evenodd" clip-rule="evenodd" d="M0 6.66667H28V0H0V6.66667Z" fill="#20AA46"/>
<path fill-rule="evenodd" clip-rule="evenodd" d="M0 20H28V13.3333H0V20Z" fill="#E92F3B"/>
<path fill-rule="evenodd" clip-rule="evenodd" d="M0 13.3333H28V6.66666H0V13.3333Z" fill="#FADF50"/>
<path fill-rule="evenodd" clip-rule="evenodd" d="M14 14.6667C16.5774 14.6667 18.6667 12.5773 18.6667 10C18.6667 7.42268 16.5774 5.33334 14 5.33334C11.4227 5.33334 9.33337 7.42268 9.33337 10C9.33337 12.5773 11.4227 14.6667 14 14.6667Z" fill="#205CCA"/>
<path d="M14.1935 11.0286L14 10.8906L13.8065 11.0286L12.6576 11.8475L13.0815 10.5019L13.1529 10.2752L12.9619 10.1338L11.828 9.29429L13.2388 9.28159L13.4765 9.27945L13.5519 9.05412L14 7.7163L14.448 9.05412L14.5235 9.27945L14.7611 9.28159L16.1719 9.29429L15.038 10.1338L14.847 10.2752L14.9184 10.5019L15.3423 11.8475L14.1935 11.0286Z" stroke="#FFDB3D" stroke-width="0.666667"/>
</g>
</g>
<defs>
<clipPath id="clip0_503_3965">
<rect width="28" height="20" rx="2" fill="white"/>
</clipPath>
</defs>
</svg>
