<svg width="28" height="20" fill="none" xmlns="http://www.w3.org/2000/svg"><rect x=".25" y=".25" width="27.5" height="19.5" rx="1.75" fill="#fff" stroke="#F5F5F5" stroke-width=".5"/><mask id="a" style="mask-type:alpha" maskUnits="userSpaceOnUse" x="0" y="0" width="28" height="20"><rect x=".25" y=".25" width="27.5" height="19.5" rx="1.75" fill="#fff" stroke="#fff" stroke-width=".5"/></mask><g mask="url(#a)"><path fill="#D6182D" d="M10.666 0h6.667v20h-6.667z"/><path fill="#1425A2" d="M0 6.667h28v6.667H0z"/><path fill-rule="evenodd" clip-rule="evenodd" d="m11.333 11.667-.471.138.138-.472-.138-.471.471.138.472-.138-.139.471.139.472-.472-.138Zm5.334 0-.472.138.138-.472-.138-.471.472.138.471-.138-.138.471.138.472-.471-.138Zm-8-1.334-.472.138.138-.471-.138-.471.472.138.471-.138L9 10l.138.471-.471-.138Zm10.666 0-.471.138L19 10l-.138-.471.471.138.472-.138-.139.471.139.471-.472-.138ZM14 9l-.471.138.138-.471-.138-.472.471.138.472-.138-.138.472.138.471L14 9Z" fill="#fff"/></g></svg>