<svg width="28" height="20" fill="none" xmlns="http://www.w3.org/2000/svg"><rect width="28" height="20" rx="2" fill="#fff"/><mask id="a" style="mask-type:alpha" maskUnits="userSpaceOnUse" x="0" y="0" width="28" height="20"><rect width="28" height="20" rx="2" fill="#fff"/></mask><g mask="url(#a)"><path fill="#30C6E0" d="M0 0h28v20H0z"/><path fill-rule="evenodd" clip-rule="evenodd" d="M14 14a4 4 0 1 0 0-8 4 4 0 0 0 0 8Z" fill="#FFCD4B"/><path fill-rule="evenodd" clip-rule="evenodd" d="M12.368 17.15 14 14.713l1.632 2.435.413-2.902 2.527 1.486-.887-2.794 2.922.243-2.012-2.133L21.333 10l-2.738-1.049 2.012-2.133-2.922.243.887-2.794-2.527 1.486-.413-2.902L14 5.286l-1.632-2.435-.413 2.902-2.527-1.486.887 2.794-2.922-.243 2.012 2.133L6.667 10l2.738 1.049-2.012 2.133 2.922-.243-.887 2.794 2.527-1.486.413 2.902ZM18.667 10a4.667 4.667 0 1 1-9.334 0 4.667 4.667 0 0 1 9.334 0ZM1.333 1.667c0-.184.15-.334.334-.334h.666c.184 0 .334.15.334.334v.666c0 .184-.15.334-.334.334h-.666a.333.333 0 0 1-.334-.334v-.666Zm0 2.666c0-.184.15-.333.334-.333h.666c.184 0 .334.15.334.333V5c0 .184-.15.333-.334.333h-.666A.333.333 0 0 1 1.333 5v-.667Zm.334 2.334A.333.333 0 0 0 1.333 7v.667c0 .184.15.333.334.333h.666c.184 0 .334-.15.334-.333V7a.333.333 0 0 0-.334-.333h-.666Zm-.334 3c0-.184.15-.334.334-.334h.666c.184 0 .334.15.334.334v.666c0 .184-.15.334-.334.334h-.666a.333.333 0 0 1-.334-.334v-.666ZM1.667 12a.333.333 0 0 0-.334.333V13c0 .184.15.333.334.333h.666A.334.334 0 0 0 2.667 13v-.667A.333.333 0 0 0 2.333 12h-.666Zm-.334 3c0-.184.15-.333.334-.333h.666c.184 0 .334.149.334.333v.667c0 .184-.15.333-.334.333h-.666a.333.333 0 0 1-.334-.333V15Zm.334 2.333a.333.333 0 0 0-.334.334v.666c0 .184.15.334.334.334h.666c.184 0 .334-.15.334-.334v-.666a.333.333 0 0 0-.334-.334h-.666Zm1-1c0-.184.149-.333.333-.333h.667c.184 0 .333.15.333.333V17c0 .184-.15.333-.333.333H3A.333.333 0 0 1 2.667 17v-.667Zm.333-3a.333.333 0 0 0-.333.334v.666c0 .184.149.334.333.334h.667c.184 0 .333-.15.333-.334v-.666a.333.333 0 0 0-.333-.334H3ZM2.667 11c0-.184.149-.333.333-.333h.667c.184 0 .333.149.333.333v.667c0 .184-.15.333-.333.333H3a.333.333 0 0 1-.333-.333V11ZM3 8a.333.333 0 0 0-.333.333V9c0 .184.149.333.333.333h.667A.334.334 0 0 0 4 9v-.667A.333.333 0 0 0 3.667 8H3Zm-.333-2.333c0-.184.149-.334.333-.334h.667c.184 0 .333.15.333.334v.666c0 .184-.15.334-.333.334H3a.333.333 0 0 1-.333-.334v-.666Zm.333-3A.333.333 0 0 0 2.667 3v.667c0 .184.149.333.333.333h.667C3.85 4 4 3.85 4 3.667V3a.333.333 0 0 0-.333-.333H3Z" fill="#FFCD4B"/></g></svg>