<svg width="28" height="20" viewBox="0 0 28 20" fill="none" xmlns="http://www.w3.org/2000/svg">
<g clip-path="url(#clip0_1310_7970)">
<path d="M28.0002 1.52588e-05H0.000183105V20H28.0002V1.52588e-05Z" fill="url(#paint0_linear_1310_7970)"/>
<path d="M28.0002 1.52588e-05H0.000183105V20H28.0002V1.52588e-05Z" fill="url(#paint1_linear_1310_7970)"/>
<path fill-rule="evenodd" clip-rule="evenodd" d="M12.0003 17.3334L11.0575 17.6095L11.3336 16.6667L11.0575 15.7239L12.0003 16L12.9431 15.7239L12.667 16.6667L12.9431 17.6095L12.0003 17.3334ZM16.0003 16L15.0575 16.2762L15.3336 15.3334L15.0575 14.3906L16.0003 14.6667L16.9431 14.3906L16.667 15.3334L16.9431 16.2762L16.0003 16ZM20.0003 16L19.0575 16.2762L19.3336 15.3334L19.0575 14.3906L20.0003 14.6667L20.9431 14.3906L20.667 15.3334L20.9431 16.2762L20.0003 16ZM22.667 13.3334L21.7242 13.6095L22.0003 12.6667L21.7242 11.7239L22.667 12L23.6098 11.7239L23.3336 12.6667L23.6098 13.6095L22.667 13.3334ZM25.3336 10.6667L24.3908 10.9428L24.667 10L24.3908 9.05723L25.3336 9.33337L26.2764 9.05723L26.0003 10L26.2764 10.9428L25.3336 10.6667ZM17.3336 12L16.3908 12.2762L16.667 11.3334L16.3908 10.3906L17.3336 10.6667L18.2764 10.3906L18.0003 11.3334L18.2764 12.2762L17.3336 12ZM20.0003 6.66671L19.0575 6.94285L19.3336 6.00004L19.0575 5.05723L20.0003 5.33337L20.9431 5.05723L20.667 6.00004L20.9431 6.94285L20.0003 6.66671ZM22.667 5.33337L21.7242 5.60952L22.0003 4.66671L21.7242 3.7239L22.667 4.00004L23.6098 3.7239L23.3336 4.66671L23.6098 5.60952L22.667 5.33337ZM25.3336 4.00004L24.3908 4.27618L24.667 3.33337L24.3908 2.39056L25.3336 2.66671L26.2764 2.39056L26.0003 3.33337L26.2764 4.27618L25.3336 4.00004Z" fill="#FFCD2F"/>
<path d="M12.0002 1.52588e-05H0.000183105V9.33335H12.0002V1.52588e-05Z" fill="url(#paint2_linear_1310_7970)"/>
<path d="M4.00011 4.30665L-1.80206 -0.666639H0.880419L5.54709 2.66669H6.47558L12.6668 -1.2028V0.333361C12.6668 0.736706 12.4442 1.16874 12.1097 1.40772L8.00011 4.34311V5.02674L12.1831 8.61213C12.7992 9.14027 12.4548 10 11.6668 10C11.3398 10 10.9405 9.87194 10.668 9.67732L6.45313 6.66669H5.52464L-0.666558 10.5362V8.32362L4.00011 4.99028V4.30665Z" fill="url(#paint3_linear_1310_7970)"/>
<path fill-rule="evenodd" clip-rule="evenodd" d="M4.66685 4.00002L0.000183105 1.52588e-05H0.66685L5.33352 3.33335H6.66685L12.0002 1.52588e-05V0.333349C12.0002 0.517443 11.8848 0.749079 11.7222 0.865215L7.33352 4.00002V5.33335L11.7493 9.11829C11.8879 9.23706 11.8456 9.33335 11.6669 9.33335C11.4828 9.33335 11.2182 9.25095 11.0556 9.13482L6.66685 6.00001H5.33352L0.000183105 9.33335V8.66668L4.66685 5.33335V4.00002Z" fill="url(#paint4_linear_1310_7970)"/>
<path fill-rule="evenodd" clip-rule="evenodd" d="M0.000183105 3.33335V6.00002H4.66685V9.3395C4.66685 9.70429 4.95223 10 5.33976 10H6.6606C7.03224 10 7.33352 9.71235 7.33352 9.3395V6.00002H12.0129C12.3741 6.00002 12.6669 5.71464 12.6669 5.3271V4.00626C12.6669 3.63462 12.3801 3.33335 12.0129 3.33335H7.33352V1.52588e-05H4.66685V3.33335H0.000183105Z" fill="url(#paint5_linear_1310_7970)"/>
<path fill-rule="evenodd" clip-rule="evenodd" d="M0.000183105 4.00002H5.33352V3.33335V1.52588e-05H6.66685V3.33335V4.00002H12.0002V5.33335H6.66685V6.00001V9.33335H5.33352V6.00001V5.33335H0.000183105V4.00002Z" fill="url(#paint6_linear_1310_7970)"/>
</g>
<defs>
<linearGradient id="paint0_linear_1310_7970" x1="14.0002" y1="1.52588e-05" x2="14.0002" y2="20" gradientUnits="userSpaceOnUse">
<stop stop-color="white"/>
<stop offset="1" stop-color="#F0F0F0"/>
</linearGradient>
<linearGradient id="paint1_linear_1310_7970" x1="14.0002" y1="1.52588e-05" x2="14.0002" y2="20" gradientUnits="userSpaceOnUse">
<stop stop-color="#72AFC8"/>
<stop offset="1" stop-color="#5D98B0"/>
</linearGradient>
<linearGradient id="paint2_linear_1310_7970" x1="6.00018" y1="1.52588e-05" x2="6.00018" y2="9.33335" gradientUnits="userSpaceOnUse">
<stop stop-color="#0A17A7"/>
<stop offset="1" stop-color="#030E88"/>
</linearGradient>
<linearGradient id="paint3_linear_1310_7970" x1="5.43236" y1="-1.2028" x2="5.43236" y2="10.5362" gradientUnits="userSpaceOnUse">
<stop stop-color="white"/>
<stop offset="1" stop-color="#F0F0F0"/>
</linearGradient>
<linearGradient id="paint4_linear_1310_7970" x1="6.00018" y1="1.52588e-05" x2="6.00018" y2="9.33335" gradientUnits="userSpaceOnUse">
<stop stop-color="#DB1E36"/>
<stop offset="1" stop-color="#D51931"/>
</linearGradient>
<linearGradient id="paint5_linear_1310_7970" x1="6.33352" y1="1.52588e-05" x2="6.33352" y2="10" gradientUnits="userSpaceOnUse">
<stop stop-color="white"/>
<stop offset="1" stop-color="#F0F0F0"/>
</linearGradient>
<linearGradient id="paint6_linear_1310_7970" x1="6.00018" y1="1.52588e-05" x2="6.00018" y2="9.33335" gradientUnits="userSpaceOnUse">
<stop stop-color="#DB1E36"/>
<stop offset="1" stop-color="#D51931"/>
</linearGradient>
<clipPath id="clip0_1310_7970">
<rect width="28" height="20" rx="2" fill="white"/>
</clipPath>
</defs>
</svg>
