<svg width="28" height="20" viewBox="0 0 28 20" fill="none" xmlns="http://www.w3.org/2000/svg">
<g clip-path="url(#clip0_1310_7730)">
<path d="M28 3.05176e-05H0V20H28V3.05176e-05Z" fill="url(#paint0_linear_1310_7730)"/>
<path d="M28 3.05176e-05H0V20H28V3.05176e-05Z" fill="url(#paint1_linear_1310_7730)"/>
<path fill-rule="evenodd" clip-rule="evenodd" d="M6.00001 16.3334L4.82444 16.9514L5.04896 15.6424L4.0979 14.7153L5.41223 14.5244L6.00001 13.3334L6.5878 14.5244L7.90213 14.7153L6.95107 15.6424L7.17558 16.9514L6.00001 16.3334Z" fill="white"/>
<path d="M4.00005 4.30667L-1.80212 -0.666624H0.880358L5.54702 2.66671H6.47552L12.6667 -1.20279V0.333376C12.6667 0.736721 12.4442 1.16875 12.1096 1.40773L8.00005 4.34312V5.02675L12.183 8.61215C12.7992 9.14029 12.4548 10 11.6667 10C11.3398 10 10.9404 9.87195 10.6679 9.67733L6.45307 6.66671H5.52458L-0.666619 10.5362V8.32363L4.00005 4.9903V4.30667Z" fill="url(#paint2_linear_1310_7730)"/>
<path fill-rule="evenodd" clip-rule="evenodd" d="M4.66667 4.00003L0 3.05176e-05H0.666667L5.33333 3.33336H6.66667L12 3.05176e-05V0.333364C12 0.517459 11.8846 0.749095 11.7221 0.86523L7.33333 4.00003V5.33336L11.7491 9.11831C11.8877 9.23708 11.8454 9.33336 11.6667 9.33336C11.4826 9.33336 11.218 9.25097 11.0554 9.13483L6.66667 6.00003H5.33333L0 9.33336V8.6667L4.66667 5.33336V4.00003Z" fill="url(#paint3_linear_1310_7730)"/>
<path fill-rule="evenodd" clip-rule="evenodd" d="M0 3.33336V6.00003H4.66667V9.33951C4.66667 9.70431 4.95205 10 5.33958 10H6.66042C7.03206 10 7.33333 9.71236 7.33333 9.33951V6.00003H12.0127C12.3739 6.00003 12.6667 5.71465 12.6667 5.32712V4.00628C12.6667 3.63464 12.3799 3.33336 12.0127 3.33336H7.33333V3.05176e-05H4.66667V3.33336H0Z" fill="url(#paint4_linear_1310_7730)"/>
<path fill-rule="evenodd" clip-rule="evenodd" d="M0 4.00003H5.33333V3.33336V3.05176e-05H6.66667V3.33336V4.00003H12V5.33336H6.66667V6.00003V9.33336H5.33333V6.00003V5.33336H0V4.00003Z" fill="url(#paint5_linear_1310_7730)"/>
<path fill-rule="evenodd" clip-rule="evenodd" d="M20.0001 17.3334L19.0573 17.6095L19.3334 16.6667L19.0573 15.7239L20.0001 16L20.9429 15.7239L20.6667 16.6667L20.9429 17.6095L20.0001 17.3334Z" fill="white"/>
<path fill-rule="evenodd" clip-rule="evenodd" d="M20.0001 4.66673L19.0573 4.94287L19.3334 4.00006L19.0573 3.05725L20.0001 3.33339L20.9429 3.05725L20.6667 4.00006L20.9429 4.94287L20.0001 4.66673Z" fill="white"/>
<path fill-rule="evenodd" clip-rule="evenodd" d="M24.0001 8.66673L23.0573 8.94287L23.3334 8.00006L23.0573 7.05725L24.0001 7.33339L24.9429 7.05725L24.6667 8.00006L24.9429 8.94287L24.0001 8.66673Z" fill="white"/>
<path fill-rule="evenodd" clip-rule="evenodd" d="M16.0001 10L15.0573 10.2762L15.3334 9.33337L15.0573 8.39056L16.0001 8.66671L16.9429 8.39056L16.6667 9.33337L16.9429 10.2762L16.0001 10Z" fill="white"/>
<path fill-rule="evenodd" clip-rule="evenodd" d="M22 11.6667L21.5286 11.8048L21.6666 11.3334L21.5286 10.862L22 11.0001L22.4714 10.862L22.3333 11.3334L22.4714 11.8048L22 11.6667Z" fill="white"/>
</g>
<defs>
<linearGradient id="paint0_linear_1310_7730" x1="14" y1="3.05176e-05" x2="14" y2="20" gradientUnits="userSpaceOnUse">
<stop stop-color="white"/>
<stop offset="1" stop-color="#F0F0F0"/>
</linearGradient>
<linearGradient id="paint1_linear_1310_7730" x1="14" y1="3.05176e-05" x2="14" y2="20" gradientUnits="userSpaceOnUse">
<stop stop-color="#0A17A7"/>
<stop offset="1" stop-color="#030E88"/>
</linearGradient>
<linearGradient id="paint2_linear_1310_7730" x1="5.43229" y1="-1.20279" x2="5.43229" y2="10.5362" gradientUnits="userSpaceOnUse">
<stop stop-color="white"/>
<stop offset="1" stop-color="#F0F0F0"/>
</linearGradient>
<linearGradient id="paint3_linear_1310_7730" x1="6" y1="3.05176e-05" x2="6" y2="9.33336" gradientUnits="userSpaceOnUse">
<stop stop-color="#DB1E36"/>
<stop offset="1" stop-color="#D51931"/>
</linearGradient>
<linearGradient id="paint4_linear_1310_7730" x1="6.33333" y1="3.05176e-05" x2="6.33333" y2="10" gradientUnits="userSpaceOnUse">
<stop stop-color="white"/>
<stop offset="1" stop-color="#F0F0F0"/>
</linearGradient>
<linearGradient id="paint5_linear_1310_7730" x1="6" y1="3.05176e-05" x2="6" y2="9.33336" gradientUnits="userSpaceOnUse">
<stop stop-color="#DB1E36"/>
<stop offset="1" stop-color="#D51931"/>
</linearGradient>
<clipPath id="clip0_1310_7730">
<rect width="28" height="20" rx="2" fill="white"/>
</clipPath>
</defs>
</svg>
