<svg width="28" height="20" viewBox="0 0 28 20" fill="none" xmlns="http://www.w3.org/2000/svg">
<g clip-path="url(#clip0_1310_7816)">
<path d="M28 0H0V20H28V0Z" fill="url(#paint0_linear_1310_7816)"/>
<path d="M28 0H0V20H28V0Z" fill="url(#paint1_linear_1310_7816)"/>
<path d="M21.2232 2.13724C21.4256 2.13035 21.6463 2.13189 21.8503 2.14754C22.1252 2.16863 22.3194 2.22927 22.3046 2.17253C22.2814 2.08321 22.2968 2.06038 22.266 2.08289C22.1978 2.13271 22.2992 2.07343 21.8942 2.30517C21.305 2.64232 21.0499 2.89854 21.1791 3.36015C21.2923 3.76469 21.5924 3.8766 22.297 3.98707C22.344 3.9944 22.344 3.9944 22.3901 4.00153C22.6721 4.0452 22.7981 4.07182 22.8827 4.10927C22.9017 4.11769 22.8652 4.05952 22.8759 4.02344C22.8665 4.05484 22.6794 4.12806 22.2086 4.22076C22.0941 4.24319 22.0941 4.24319 21.9752 4.26702C21.068 4.45205 20.6159 4.69377 20.5483 5.32084C20.4742 6.0084 21.1868 6.48682 22.0816 6.60445C22.9948 6.72451 23.7885 6.42288 23.8697 5.68123C23.9213 5.20983 23.5938 4.92738 23.075 4.82363C22.7232 4.75327 22.2599 4.75409 21.7044 4.8093C21.3931 4.84024 21.0634 4.88743 20.7261 4.9465C20.3501 5.01235 20.0414 5.07825 19.8558 5.12275C19.6768 5.16568 19.5664 5.3456 19.6094 5.52462C19.6523 5.70364 19.8322 5.81397 20.0112 5.77104C20.1844 5.72952 20.4802 5.66638 20.8411 5.60318C21.1632 5.54677 21.4769 5.50185 21.7703 5.4727C22.2656 5.42346 22.6712 5.42275 22.9443 5.47735C23.1665 5.52181 23.2122 5.56117 23.207 5.60872C23.1792 5.86223 22.7606 6.02132 22.1685 5.94347C21.587 5.86703 21.1888 5.59967 21.2111 5.39229C21.2341 5.1795 21.4788 5.04865 22.1084 4.92023C22.2222 4.89744 22.2222 4.89744 22.3374 4.87487C23.113 4.72216 23.3966 4.61116 23.5149 4.21345C23.6116 3.88811 23.4508 3.63179 23.1527 3.49974C22.9929 3.42893 22.8389 3.39643 22.4922 3.34272C22.4459 3.33557 22.4459 3.33557 22.4003 3.32845C21.9987 3.26549 21.8269 3.20143 21.8211 3.18045C21.8154 3.16012 21.912 3.06306 22.2253 2.88381C22.3336 2.82251 22.3962 2.78704 22.444 2.7591C22.5313 2.70811 22.5991 2.66513 22.6593 2.62119C22.8895 2.45296 23.0173 2.26397 22.9498 2.00463C22.855 1.64029 22.497 1.52853 21.9013 1.48283C21.669 1.465 21.4254 1.4633 21.2005 1.47096C21.1209 1.4741 21.1209 1.4741 21.1003 1.47529C20.9165 1.48592 20.7761 1.64354 20.7868 1.82732C20.7974 2.01111 20.955 2.15148 21.1388 2.14084C21.1524 2.14004 21.1524 2.14004 21.2232 2.13724Z" fill="url(#paint2_linear_1310_7816)"/>
<path d="M5.7564 2.13724C5.95883 2.13035 6.1795 2.13189 6.38354 2.14754C6.65836 2.16863 6.85257 2.22927 6.83781 2.17253C6.81456 2.08321 6.82999 2.06038 6.79918 2.08289C6.73098 2.13271 6.83243 2.07343 6.42741 2.30517C5.83816 2.64232 5.58307 2.89854 5.71228 3.36015C5.82552 3.76469 6.12558 3.8766 6.83022 3.98707C6.87723 3.9944 6.87723 3.9944 6.92334 4.00153C7.20528 4.0452 7.33132 4.07182 7.41587 4.10927C7.43486 4.11769 7.39836 4.05952 7.40909 4.02344C7.39975 4.05484 7.21262 4.12806 6.74185 4.22076C6.62728 4.24319 6.62728 4.24319 6.5084 4.26702C5.60118 4.45205 5.14911 4.69377 5.08151 5.32084C5.00738 6.0084 5.71996 6.48682 6.61476 6.60445C7.52798 6.72451 8.32173 6.42288 8.40288 5.68123C8.45447 5.20983 8.12697 4.92738 7.60819 4.82363C7.25637 4.75327 6.7931 4.75409 6.23756 4.8093C5.92628 4.84024 5.59662 4.88743 5.25927 4.9465C4.88327 5.01235 4.57458 5.07825 4.38899 5.12275C4.20997 5.16568 4.09964 5.3456 4.14257 5.52462C4.18549 5.70364 4.36541 5.81397 4.54443 5.77104C4.71762 5.72952 5.01335 5.66638 5.37426 5.60318C5.6964 5.54677 6.01015 5.50185 6.30349 5.4727C6.79885 5.42346 7.20443 5.42275 7.47745 5.47735C7.69974 5.52181 7.74538 5.56117 7.74017 5.60872C7.71243 5.86223 7.29378 6.02132 6.70166 5.94347C6.1202 5.86703 5.72198 5.59967 5.74433 5.39229C5.76727 5.1795 6.01199 5.04865 6.64163 4.92023C6.75536 4.89744 6.75536 4.89744 6.87065 4.87487C7.6462 4.72216 7.92984 4.61116 8.0481 4.21345C8.14484 3.88811 7.98397 3.63179 7.6859 3.49974C7.52607 3.42893 7.37214 3.39643 7.02538 3.34272C6.97914 3.33557 6.97913 3.33557 6.93347 3.32845C6.53191 3.26549 6.36015 3.20143 6.35427 3.18045C6.34858 3.16012 6.44521 3.06306 6.75849 2.88381C6.86676 2.82251 6.92942 2.78704 6.97723 2.7591C7.06448 2.70811 7.13233 2.66513 7.19246 2.62119C7.42273 2.45296 7.55048 2.26397 7.48298 2.00463C7.38817 1.64029 7.03024 1.52853 6.43454 1.48283C6.20216 1.465 5.95863 1.4633 5.7337 1.47096C5.65411 1.4741 5.65411 1.4741 5.63348 1.47529C5.4497 1.48592 5.30933 1.64354 5.31997 1.82732C5.33061 2.01111 5.48822 2.15148 5.67201 2.14084C5.68558 2.14004 5.68558 2.14004 5.7564 2.13724Z" fill="url(#paint3_linear_1310_7816)"/>
<path d="M21.2232 14.1372C21.4256 14.1303 21.6463 14.1319 21.8503 14.1475C22.1252 14.1686 22.3194 14.2293 22.3046 14.1725C22.2814 14.0832 22.2968 14.0604 22.266 14.0829C22.1978 14.1327 22.2992 14.0734 21.8942 14.3052C21.305 14.6423 21.0499 14.8985 21.1791 15.3602C21.2923 15.7647 21.5924 15.8766 22.297 15.9871C22.344 15.9944 22.344 15.9944 22.3901 16.0015C22.6721 16.0452 22.7981 16.0718 22.8827 16.1093C22.9017 16.1177 22.8652 16.0595 22.8759 16.0234C22.8665 16.0548 22.6794 16.1281 22.2086 16.2208C22.0941 16.2432 22.0941 16.2432 21.9752 16.267C21.068 16.452 20.6159 16.6938 20.5483 17.3208C20.4742 18.0084 21.1868 18.4868 22.0816 18.6045C22.9948 18.7245 23.7885 18.4229 23.8697 17.6812C23.9213 17.2098 23.5938 16.9274 23.075 16.8236C22.7232 16.7533 22.2599 16.7541 21.7044 16.8093C21.3931 16.8402 21.0634 16.8874 20.7261 16.9465C20.3501 17.0123 20.0414 17.0782 19.8558 17.1228C19.6768 17.1657 19.5664 17.3456 19.6094 17.5246C19.6523 17.7036 19.8322 17.814 20.0112 17.771C20.1844 17.7295 20.4802 17.6664 20.8411 17.6032C21.1632 17.5468 21.4769 17.5019 21.7703 17.4727C22.2656 17.4235 22.6712 17.4228 22.9443 17.4774C23.1665 17.5218 23.2122 17.5612 23.207 17.6087C23.1792 17.8622 22.7606 18.0213 22.1685 17.9435C21.587 17.867 21.1888 17.5997 21.2111 17.3923C21.2341 17.1795 21.4788 17.0487 22.1084 16.9202C22.2222 16.8974 22.2222 16.8974 22.3374 16.8749C23.113 16.7222 23.3966 16.6112 23.5149 16.2135C23.6116 15.8881 23.4508 15.6318 23.1527 15.4997C22.9929 15.4289 22.8389 15.3964 22.4922 15.3427C22.4459 15.3356 22.4459 15.3356 22.4003 15.3284C21.9987 15.2655 21.8269 15.2014 21.8211 15.1804C21.8154 15.1601 21.912 15.0631 22.2253 14.8838C22.3336 14.8225 22.3962 14.787 22.444 14.7591C22.5313 14.7081 22.5991 14.6651 22.6593 14.6212C22.8895 14.453 23.0173 14.264 22.9498 14.0046C22.855 13.6403 22.497 13.5285 21.9013 13.4828C21.669 13.465 21.4254 13.4633 21.2005 13.471C21.1209 13.4741 21.1209 13.4741 21.1003 13.4753C20.9165 13.4859 20.7761 13.6435 20.7868 13.8273C20.7974 14.0111 20.955 14.1515 21.1388 14.1408C21.1524 14.14 21.1524 14.14 21.2232 14.1372Z" fill="url(#paint4_linear_1310_7816)"/>
<path d="M5.7564 14.1372C5.95883 14.1303 6.1795 14.1319 6.38354 14.1475C6.65836 14.1686 6.85257 14.2293 6.83781 14.1725C6.81456 14.0832 6.82999 14.0604 6.79918 14.0829C6.73098 14.1327 6.83243 14.0734 6.42741 14.3052C5.83816 14.6423 5.58307 14.8985 5.71228 15.3602C5.82552 15.7647 6.12558 15.8766 6.83022 15.9871C6.87723 15.9944 6.87723 15.9944 6.92334 16.0015C7.20528 16.0452 7.33132 16.0718 7.41587 16.1093C7.43486 16.1177 7.39836 16.0595 7.40909 16.0234C7.39975 16.0548 7.21262 16.1281 6.74185 16.2208C6.62728 16.2432 6.62728 16.2432 6.5084 16.267C5.60118 16.452 5.14911 16.6938 5.08151 17.3208C5.00738 18.0084 5.71996 18.4868 6.61476 18.6045C7.52798 18.7245 8.32173 18.4229 8.40288 17.6812C8.45447 17.2098 8.12697 16.9274 7.60819 16.8236C7.25637 16.7533 6.7931 16.7541 6.23756 16.8093C5.92628 16.8402 5.59662 16.8874 5.25927 16.9465C4.88327 17.0123 4.57458 17.0782 4.38899 17.1228C4.20997 17.1657 4.09964 17.3456 4.14257 17.5246C4.18549 17.7036 4.36541 17.814 4.54443 17.771C4.71762 17.7295 5.01335 17.6664 5.37426 17.6032C5.6964 17.5468 6.01015 17.5019 6.30349 17.4727C6.79885 17.4235 7.20443 17.4228 7.47745 17.4774C7.69974 17.5218 7.74538 17.5612 7.74017 17.6087C7.71243 17.8622 7.29378 18.0213 6.70166 17.9435C6.1202 17.867 5.72198 17.5997 5.74433 17.3923C5.76727 17.1795 6.01199 17.0487 6.64163 16.9202C6.75536 16.8974 6.75536 16.8974 6.87065 16.8749C7.6462 16.7222 7.92984 16.6112 8.0481 16.2135C8.14484 15.8881 7.98397 15.6318 7.6859 15.4997C7.52607 15.4289 7.37214 15.3964 7.02538 15.3427C6.97914 15.3356 6.97913 15.3356 6.93347 15.3284C6.53191 15.2655 6.36015 15.2014 6.35427 15.1804C6.34858 15.1601 6.44521 15.0631 6.75849 14.8838C6.86676 14.8225 6.92942 14.787 6.97723 14.7591C7.06448 14.7081 7.13233 14.6651 7.19246 14.6212C7.42273 14.453 7.55048 14.264 7.48298 14.0046C7.38817 13.6403 7.03024 13.5285 6.43454 13.4828C6.20216 13.465 5.95863 13.4633 5.7337 13.471C5.65411 13.4741 5.65411 13.4741 5.63348 13.4753C5.4497 13.4859 5.30933 13.6435 5.31997 13.8273C5.33061 14.0111 5.48822 14.1515 5.67201 14.1408C5.68558 14.14 5.68558 14.14 5.7564 14.1372Z" fill="url(#paint5_linear_1310_7816)"/>
<path fill-rule="evenodd" clip-rule="evenodd" d="M12 8H0V12H12V20H16V12H28V8H16V0H12V8Z" fill="url(#paint6_linear_1310_7816)"/>
</g>
<defs>
<linearGradient id="paint0_linear_1310_7816" x1="14" y1="0" x2="14" y2="20" gradientUnits="userSpaceOnUse">
<stop stop-color="white"/>
<stop offset="1" stop-color="#F0F0F0"/>
</linearGradient>
<linearGradient id="paint1_linear_1310_7816" x1="14" y1="0" x2="14" y2="20" gradientUnits="userSpaceOnUse">
<stop stop-color="#345CB3"/>
<stop offset="1" stop-color="#23448D"/>
</linearGradient>
<linearGradient id="paint2_linear_1310_7816" x1="21.7376" y1="1.46664" x2="21.7376" y2="6.63004" gradientUnits="userSpaceOnUse">
<stop stop-color="white"/>
<stop offset="1" stop-color="#F0F0F0"/>
</linearGradient>
<linearGradient id="paint3_linear_1310_7816" x1="6.27075" y1="1.46664" x2="6.27075" y2="6.63004" gradientUnits="userSpaceOnUse">
<stop stop-color="white"/>
<stop offset="1" stop-color="#F0F0F0"/>
</linearGradient>
<linearGradient id="paint4_linear_1310_7816" x1="21.7376" y1="13.4666" x2="21.7376" y2="18.63" gradientUnits="userSpaceOnUse">
<stop stop-color="white"/>
<stop offset="1" stop-color="#F0F0F0"/>
</linearGradient>
<linearGradient id="paint5_linear_1310_7816" x1="6.27075" y1="13.4666" x2="6.27075" y2="18.63" gradientUnits="userSpaceOnUse">
<stop stop-color="white"/>
<stop offset="1" stop-color="#F0F0F0"/>
</linearGradient>
<linearGradient id="paint6_linear_1310_7816" x1="14" y1="0" x2="14" y2="20" gradientUnits="userSpaceOnUse">
<stop stop-color="white"/>
<stop offset="1" stop-color="#F0F0F0"/>
</linearGradient>
<clipPath id="clip0_1310_7816">
<rect width="28" height="20" rx="2" fill="white"/>
</clipPath>
</defs>
</svg>
