<svg width="28" height="20" fill="none" xmlns="http://www.w3.org/2000/svg"><rect x=".25" y=".25" width="27.5" height="19.5" rx="1.75" fill="#fff" stroke="#F5F5F5" stroke-width=".5"/><mask id="a" style="mask-type:alpha" maskUnits="userSpaceOnUse" x="0" y="0" width="28" height="20"><rect x=".25" y=".25" width="27.5" height="19.5" rx="1.75" fill="#fff" stroke="#fff" stroke-width=".5"/></mask><g mask="url(#a)"><path fill-rule="evenodd" clip-rule="evenodd" d="M14 14.667a4.667 4.667 0 1 0 0-9.334 4.667 4.667 0 0 0 0 9.334Z" fill="#E01B41"/><mask id="b" style="mask-type:alpha" maskUnits="userSpaceOnUse" x="9" y="5" width="10" height="10"><path fill-rule="evenodd" clip-rule="evenodd" d="M14 14.667a4.667 4.667 0 1 0 0-9.334 4.667 4.667 0 0 0 0 9.334Z" fill="#fff"/></mask><g mask="url(#b)"><path fill-rule="evenodd" clip-rule="evenodd" d="M9.333 10.667c1.334 1.25 3.334 2 4.667 0 1.333-2 4-2 4.667 0 .666 2 0 4 0 4H9.333s-1.333-5.25 0-4Z" fill="#0E4B9C"/></g><path opacity=".75" fill-rule="evenodd" clip-rule="evenodd" d="M6.173 3.557a.333.333 0 0 1 .455-.122l.578.333c.16.092.214.296.122.455L5.66 7.11a.333.333 0 0 1-.455.122l-.578-.333a.333.333 0 0 1-.122-.456l1.667-2.886Zm14.621.21a.333.333 0 0 0-.122.456L22.34 7.11c.092.16.296.214.455.122l.578-.333a.333.333 0 0 0 .122-.456l-1.667-2.886a.333.333 0 0 0-.455-.122l-.578.333Zm-1.732 1a.333.333 0 0 0-.122.456l1.667 2.887c.092.16.296.214.455.122l.578-.333a.333.333 0 0 0 .122-.456l-1.667-2.886a.333.333 0 0 0-.455-.122l-.578.333Zm-14.556 8.79a.333.333 0 0 1 .122-.456l.578-.333a.333.333 0 0 1 .455.122l1.667 2.887a.333.333 0 0 1-.122.455l-.578.333a.333.333 0 0 1-.455-.122l-1.667-2.886ZM6.36 12.1a.333.333 0 0 0-.122.456l1.667 2.886c.092.16.296.214.455.122l.578-.333a.333.333 0 0 0 .122-.455L7.393 11.89a.333.333 0 0 0-.455-.122l-.578.333Zm14.247-.211a.333.333 0 0 1 .455-.122l.578.333a.334.334 0 0 1 .122.456l-1.667 2.886a.333.333 0 0 1-.455.122l-.578-.333a.333.333 0 0 1-.122-.455l1.667-2.887Zm2.187.878a.333.333 0 0 0-.455.122l-1.667 2.887a.333.333 0 0 0 .122.455l.578.333a.333.333 0 0 0 .455-.122l1.667-2.886a.333.333 0 0 0-.122-.456l-.578-.333ZM8.36 4.435a.333.333 0 0 0-.455.122L6.238 7.443a.333.333 0 0 0 .122.456l.578.333c.16.092.363.037.455-.122L9.06 5.223a.333.333 0 0 0-.122-.455l-.578-.333Z" fill="#262626"/></g></svg>