<svg width="28" height="20" viewBox="0 0 28 20" fill="none" xmlns="http://www.w3.org/2000/svg">
<g clip-path="url(#clip0_1310_7756)">
<path d="M28.0001 3.05176e-05H6.10352e-05V20H28.0001V3.05176e-05Z" fill="url(#paint0_linear_1310_7756)"/>
<path d="M28.0049 -0.00299072H0.00494385V19.997H28.0049V-0.00299072Z" fill="url(#paint1_linear_1310_7756)"/>
<path d="M4.00017 4.3067L-1.802 -0.666594H0.88048L5.54715 2.66674H6.47564L12.6668 -1.20276V0.333406C12.6668 0.736752 12.4443 1.16878 12.1097 1.40776L8.00017 4.34315V5.02678L12.1831 8.61218C12.7993 9.14032 12.4549 10.0001 11.6668 10.0001C11.3399 10.0001 10.9405 9.87198 10.6681 9.67736L6.45319 6.66674H5.5247L-0.666497 10.5362V8.32366L4.00017 4.99033V4.3067Z" fill="url(#paint2_linear_1310_7756)"/>
<path fill-rule="evenodd" clip-rule="evenodd" d="M4.66673 4.00003L6.10352e-05 3.05176e-05H0.666728L5.33339 3.33336H6.66673L12.0001 3.05176e-05V0.333364C12.0001 0.517459 11.8847 0.749095 11.7221 0.86523L7.33339 4.00003V5.33336L11.7492 9.11831C11.8877 9.23708 11.8454 9.33336 11.6667 9.33336C11.4826 9.33336 11.218 9.25097 11.0554 9.13483L6.66673 6.00003H5.33339L6.10352e-05 9.33336V8.6667L4.66673 5.33336V4.00003Z" fill="url(#paint3_linear_1310_7756)"/>
<path fill-rule="evenodd" clip-rule="evenodd" d="M6.10352e-05 3.33336V6.00003H4.66673V9.33951C4.66673 9.70431 4.95211 10 5.33964 10H6.66048C7.03212 10 7.33339 9.71236 7.33339 9.33951V6.00003H12.0128C12.3739 6.00003 12.6667 5.71465 12.6667 5.32712V4.00628C12.6667 3.63464 12.38 3.33336 12.0128 3.33336H7.33339V3.05176e-05H4.66673V3.33336H6.10352e-05Z" fill="url(#paint4_linear_1310_7756)"/>
<path fill-rule="evenodd" clip-rule="evenodd" d="M6.10352e-05 4.00003H5.33339V3.33336V3.05176e-05H6.66673V3.33336V4.00003H12.0001V5.33336H6.66673V6.00003V9.33336H5.33339V6.00003V5.33336H6.10352e-05V4.00003Z" fill="url(#paint5_linear_1310_7756)"/>
<path d="M0.563641 9.33039L-0.913992 9.82294L-1.54645 10.0338L-1.12481 11.2987L-0.492355 11.0878L2.25764 10.1712C2.46116 10.1033 2.88068 10.1027 3.08601 10.1712L5.83601 11.0878C6.31258 11.2467 7.02799 11.2477 7.50764 11.0878L10.2576 10.1712C10.4612 10.1033 10.8807 10.1027 11.086 10.1712L13.836 11.0878C14.3126 11.2467 15.028 11.2477 15.5076 11.0878L18.2576 10.1712C18.4612 10.1033 18.8807 10.1027 19.086 10.1712L21.836 11.0878C22.3126 11.2467 23.028 11.2477 23.5076 11.0878L26.2576 10.1712C26.4612 10.1033 26.8807 10.1027 27.086 10.1712L29.836 11.0878C30.3172 11.2482 30.3172 11.2482 30.461 11.2962L31.0935 11.507L31.5151 10.2421L30.8826 10.0313L30.2576 9.82294L27.5076 8.90627C27.028 8.74639 26.3126 8.74742 25.836 8.90627L23.086 9.82294C22.8807 9.89138 22.4612 9.89078 22.2576 9.82294L19.5076 8.90627C19.028 8.74639 18.3126 8.74742 17.836 8.90627L15.086 9.82294C14.8807 9.89138 14.4612 9.89078 14.2576 9.82294L12.0052 9.07211V9.33039H8.56364L7.08601 9.82294C6.88068 9.89138 6.46116 9.89078 6.25764 9.82294L4.78001 9.33039H0.563641ZM12.0052 7.14423L13.836 7.75452C14.3126 7.91337 15.028 7.9144 15.5076 7.75452L18.2576 6.83785C18.4612 6.77001 18.8807 6.76941 19.086 6.83785L21.836 7.75452C22.3126 7.91337 23.028 7.9144 23.5076 7.75452L26.2576 6.83785C26.4612 6.77001 26.8807 6.76941 27.086 6.83785L29.836 7.75452L30.461 7.96285L31.0935 8.17367L31.5151 6.90876L30.8826 6.69794L30.2576 6.48961L27.5076 5.57294C27.028 5.41305 26.3126 5.41408 25.836 5.57294L23.086 6.48961C22.8807 6.55805 22.4612 6.55744 22.2576 6.48961L19.5076 5.57294C19.028 5.41305 18.3126 5.41408 17.836 5.57294L15.086 6.48961C14.8807 6.55805 14.4612 6.55744 14.2576 6.48961L12.0052 5.73878V7.14423ZM0.00515974 7.58868L-0.492355 7.75452L-1.12481 7.96533L-1.54645 6.70042L-0.913992 6.48961L0.00515974 6.18322V7.58868ZM12.0052 3.8109L13.836 4.42118C14.3126 4.58004 15.028 4.58107 15.5076 4.42118L18.2576 3.50452C18.4612 3.43668 18.8807 3.43607 19.086 3.50452L21.836 4.42118C22.3126 4.58004 23.028 4.58107 23.5076 4.42118L26.2576 3.50452C26.4612 3.43668 26.8807 3.43607 27.086 3.50452L29.836 4.42118C30.3172 4.58157 30.3172 4.58157 30.461 4.62952L31.0935 4.84033L31.5151 3.57542L30.8826 3.3646C30.7388 3.31666 30.7388 3.31666 30.2576 3.15627L27.5076 2.2396C27.028 2.07972 26.3126 2.08075 25.836 2.2396L23.086 3.15627C22.8807 3.22471 22.4612 3.22411 22.2576 3.15627L19.5076 2.2396C19.028 2.07972 18.3126 2.08075 17.836 2.2396L15.086 3.15627C14.8807 3.22471 14.4612 3.22411 14.2576 3.15627L12.0052 2.40544V3.8109ZM0.00515974 4.25534L-0.492355 4.42118L-1.12481 4.632L-1.54645 3.36709L-0.913992 3.15627L0.00515974 2.84989V4.25534ZM12.0052 0.477566L13.836 1.08785C14.3126 1.2467 15.028 1.24773 15.5076 1.08785L18.2576 0.171183C18.4612 0.103345 18.8807 0.102741 19.086 0.171183L21.836 1.08785C22.3126 1.2467 23.028 1.24773 23.5076 1.08785L26.2576 0.171183C26.4612 0.103345 26.8807 0.102741 27.086 0.171183L29.836 1.08785L30.461 1.29618L31.0935 1.507L31.5151 0.24209L30.8826 0.0312714C30.7388 -0.0166736 30.7388 -0.0166736 30.2576 -0.177062L27.5076 -1.09373C27.028 -1.25361 26.3126 -1.25258 25.836 -1.09373L23.086 -0.177062C22.8807 -0.10862 22.4612 -0.109224 22.2576 -0.177062L19.5076 -1.09373C19.028 -1.25361 18.3126 -1.25258 17.836 -1.09373L15.086 -0.177062C14.8807 -0.10862 14.4612 -0.109224 14.2576 -0.177062L11.5076 -1.09373C11.028 -1.25361 10.3126 -1.25258 9.83601 -1.09373L7.08601 -0.177062C6.88068 -0.10862 6.46116 -0.109224 6.25764 -0.177062L3.50764 -1.09373C3.02799 -1.25361 2.31257 -1.25258 1.83601 -1.09373L-0.913992 -0.177062L-1.54645 0.0337565L-1.12481 1.29867L-0.492355 1.08785L0.00515974 0.922011V-0.00293974H12.0052V0.477566ZM30.8826 20.0313L31.5151 20.2421L31.0935 21.507L30.461 21.2962L29.836 21.0879L27.086 20.1712C26.8807 20.1027 26.4612 20.1033 26.2576 20.1712L23.5076 21.0879C23.028 21.2477 22.3126 21.2467 21.836 21.0879L19.086 20.1712C18.8807 20.1027 18.4612 20.1033 18.2576 20.1712L15.5076 21.0879C15.028 21.2477 14.3126 21.2467 13.836 21.0879L11.086 20.1712C10.8807 20.1027 10.4612 20.1033 10.2576 20.1712L7.50764 21.0879C7.02799 21.2477 6.31258 21.2467 5.83601 21.0879L3.08601 20.1712C2.88068 20.1027 2.46116 20.1033 2.25764 20.1712L-0.492355 21.0879L-1.12481 21.2987L-1.54645 20.0338L-0.913992 19.8229L1.83601 18.9063C2.31257 18.7474 3.02799 18.7464 3.50764 18.9063L6.25764 19.8229C6.46116 19.8908 6.88068 19.8914 7.08601 19.8229L9.83601 18.9063C10.3126 18.7474 11.028 18.7464 11.5076 18.9063L14.2576 19.8229C14.4612 19.8908 14.8807 19.8914 15.086 19.8229L17.836 18.9063C18.3126 18.7474 19.028 18.7464 19.5076 18.9063L22.2576 19.8229C22.4612 19.8908 22.8807 19.8914 23.086 19.8229L25.836 18.9063C26.3126 18.7474 27.028 18.7464 27.5076 18.9063L30.2576 19.8229L30.8826 20.0313ZM30.8826 16.6979L31.5151 16.9088L31.0935 18.1737L30.461 17.9628C30.3172 17.9149 30.3172 17.9149 29.836 17.7545L27.086 16.8378C26.8807 16.7694 26.4612 16.77 26.2576 16.8378L23.5076 17.7545C23.028 17.9144 22.3126 17.9134 21.836 17.7545L19.086 16.8378C18.8807 16.7694 18.4612 16.77 18.2576 16.8378L15.5076 17.7545C15.028 17.9144 14.3126 17.9134 13.836 17.7545L11.086 16.8378C10.8807 16.7694 10.4612 16.77 10.2576 16.8378L7.50764 17.7545C7.02799 17.9144 6.31258 17.9134 5.83601 17.7545L3.08601 16.8378C2.88068 16.7694 2.46116 16.77 2.25764 16.8378L-0.492355 17.7545L-1.12481 17.9653L-1.54645 16.7004L-0.913992 16.4896L1.83601 15.5729C2.31257 15.4141 3.02799 15.4131 3.50764 15.5729L6.25764 16.4896C6.46116 16.5574 6.88068 16.558 7.08601 16.4896L9.83601 15.5729C10.3126 15.4141 11.028 15.4131 11.5076 15.5729L14.2576 16.4896C14.4612 16.5574 14.8807 16.558 15.086 16.4896L17.836 15.5729C18.3126 15.4141 19.028 15.4131 19.5076 15.5729L22.2576 16.4896C22.4612 16.5574 22.8807 16.558 23.086 16.4896L25.836 15.5729C26.3126 15.4141 27.028 15.4131 27.5076 15.5729L30.2576 16.4896C30.7388 16.65 30.7388 16.65 30.8826 16.6979ZM30.8826 13.3646L31.5151 13.5754L31.0935 14.8403L30.461 14.6295C30.3172 14.5816 30.3172 14.5816 29.836 14.4212L27.086 13.5045C26.8807 13.4361 26.4612 13.4367 26.2576 13.5045L23.5076 14.4212C23.028 14.5811 22.3126 14.58 21.836 14.4212L19.086 13.5045C18.8807 13.4361 18.4612 13.4367 18.2576 13.5045L15.5076 14.4212C15.028 14.5811 14.3126 14.58 13.836 14.4212L11.086 13.5045C10.8807 13.4361 10.4612 13.4367 10.2576 13.5045L7.50764 14.4212C7.02799 14.5811 6.31258 14.58 5.83601 14.4212L3.08601 13.5045C2.88068 13.4361 2.46116 13.4367 2.25764 13.5045L-0.492355 14.4212L-1.12481 14.632L-1.54645 13.3671L-0.913992 13.1563L1.83601 12.2396C2.31257 12.0807 3.02799 12.0797 3.50764 12.2396L6.25764 13.1563C6.46116 13.2241 6.88068 13.2247 7.08601 13.1563L9.83601 12.2396C10.3126 12.0807 11.028 12.0797 11.5076 12.2396L14.2576 13.1563C14.4612 13.2241 14.8807 13.2247 15.086 13.1563L17.836 12.2396C18.3126 12.0807 19.028 12.0797 19.5076 12.2396L22.2576 13.1563C22.4612 13.2241 22.8807 13.2247 23.086 13.1563L25.836 12.2396C26.3126 12.0807 27.028 12.0797 27.5076 12.2396L30.2576 13.1563C30.7388 13.3167 30.7388 13.3167 30.8826 13.3646Z" fill="white"/>
</g>
<defs>
<linearGradient id="paint0_linear_1310_7756" x1="14.0001" y1="3.05176e-05" x2="14.0001" y2="20" gradientUnits="userSpaceOnUse">
<stop stop-color="white"/>
<stop offset="1" stop-color="#F0F0F0"/>
</linearGradient>
<linearGradient id="paint1_linear_1310_7756" x1="14.0049" y1="-0.00299072" x2="14.0049" y2="19.997" gradientUnits="userSpaceOnUse">
<stop stop-color="#07319C"/>
<stop offset="1" stop-color="#00247E"/>
</linearGradient>
<linearGradient id="paint2_linear_1310_7756" x1="5.43242" y1="-1.20276" x2="5.43242" y2="10.5362" gradientUnits="userSpaceOnUse">
<stop stop-color="white"/>
<stop offset="1" stop-color="#F0F0F0"/>
</linearGradient>
<linearGradient id="paint3_linear_1310_7756" x1="6.00006" y1="3.05176e-05" x2="6.00006" y2="9.33336" gradientUnits="userSpaceOnUse">
<stop stop-color="#DB1E36"/>
<stop offset="1" stop-color="#D51931"/>
</linearGradient>
<linearGradient id="paint4_linear_1310_7756" x1="6.33339" y1="3.05176e-05" x2="6.33339" y2="10" gradientUnits="userSpaceOnUse">
<stop stop-color="white"/>
<stop offset="1" stop-color="#F0F0F0"/>
</linearGradient>
<linearGradient id="paint5_linear_1310_7756" x1="6.00006" y1="3.05176e-05" x2="6.00006" y2="9.33336" gradientUnits="userSpaceOnUse">
<stop stop-color="#DB1E36"/>
<stop offset="1" stop-color="#D51931"/>
</linearGradient>
<clipPath id="clip0_1310_7756">
<rect width="28" height="20" rx="2" fill="white"/>
</clipPath>
</defs>
</svg>
