<svg width="28" height="20" fill="none" xmlns="http://www.w3.org/2000/svg"><rect width="28" height="20" rx="2" fill="#fff"/><mask id="a" style="mask-type:alpha" maskUnits="userSpaceOnUse" x="0" y="0" width="28" height="20"><rect width="28" height="20" rx="2" fill="#fff"/></mask><g mask="url(#a)" fill-rule="evenodd" clip-rule="evenodd"><path d="M0 5.333h28V0H0v5.333ZM0 20h28v-5.333H0V20Z" fill="#0F3EB6"/><path d="M0 14.667h28V5.333H0v9.334Z" fill="#ED1A3C"/><path d="M12 8.727h1.333V8a.667.667 0 0 1 1.334 0v.727H16V10h-4V8.727ZM17.333 8a.667.667 0 0 0-.666.667V10H18V8.667A.667.667 0 0 0 17.333 8Zm-6 5.333v-2.666H10l-1.333 2.666h2.666ZM12 10.667v2.666h4v-2.666h-4Zm4.667 0H18l1.333 2.666h-2.666v-2.666Zm-6-2.667a.667.667 0 0 0-.667.667V10h1.333V8.667A.667.667 0 0 0 10.667 8Z" fill="#fff"/></g></svg>