<svg width="28" height="20" fill="none" xmlns="http://www.w3.org/2000/svg"><rect width="28" height="20" rx="2" fill="#fff"/><mask id="a" style="mask-type:alpha" maskUnits="userSpaceOnUse" x="0" y="0" width="28" height="20"><rect width="28" height="20" rx="2" fill="#fff"/></mask><g mask="url(#a)"><path fill="#FFBF19" d="M0 0h28v20H0z"/><path fill-rule="evenodd" clip-rule="evenodd" d="M10.666 1.333h14.667c.737 0 1.334.597 1.334 1.334v14.666c0 .737-.597 1.334-1.334 1.334H10.667V1.333Z" fill="#A52531"/><path d="M1.333 2.667c0-.737.597-1.334 1.334-1.334h2.667v17.334H2.667a1.333 1.333 0 0 1-1.333-1.334V2.667Z" fill="#03664F"/><rect x="5.333" y="1.333" width="4" height="17.333" rx=".667" fill="#FF6816"/><path fill-rule="evenodd" clip-rule="evenodd" d="M13.333 3.333a.667.667 0 1 1-1.333 0v-.666h.667c.368 0 .666.298.666.666Zm10.667 0a.667.667 0 1 0 1.334 0v-.666h-.667a.667.667 0 0 0-.667.666ZM24.667 16a.667.667 0 0 0 0 1.333h.666v-.666a.667.667 0 0 0-.666-.667Zm-11.334.667a.667.667 0 1 0-1.333 0v.666h.667a.667.667 0 0 0 .666-.666ZM16 12.574a.574.574 0 0 0-.574-.574.535.535 0 0 1-.18-.03c-.386-.138-1.913-.72-1.913-1.303 0-.365.2-.73.38-.986a.832.832 0 0 0 .12-.766c-.226-.598-.593-1.687-.5-2.248.05-.3.25-.561.479-.772.356-.326.854-.018.854.465v2.56c0 .253.143.484.37.597l.676.338a.447.447 0 0 0 .4-.8l-.779-.39V8c.332 0 .438-.448.141-.596l-.14-.07v-.667h1.056c.177 0 .347-.07.472-.196l.276-.276A.667.667 0 0 1 17.609 6h.645c.253 0 .484.143.597.369l.359.717a.67.67 0 0 1 .036.51l-.287.86a.667.667 0 0 0 .633.877h2.191a.523.523 0 0 0 .234-.991l-.543-.272a.667.667 0 0 0-.298-.07h-.51A.667.667 0 0 1 20 7.333v-.39c0-.177.07-.347.195-.472L20.666 6v.667c0 .368.299.666.667.666h.922c.252 0 .483.143.596.369l.429.858c.035.07.058.147.065.225.03.336.104 1.305-.012 1.882-.093.467-.355.9-.521 1.14a.77.77 0 0 0-.146.435v1.915a.51.51 0 1 1-.965-.228l.229-.455a.315.315 0 0 0 0-.281l-.032-.063c-.14-.282-.565-.182-.565.133 0 .046-.01.092-.031.133l-.47.941a.596.596 0 1 1-1.067-.533l.165-.33a.666.666 0 0 0 .07-.298v-.51a.667.667 0 0 0-.667-.666H18a.667.667 0 0 0-.667.667v.509a.666.666 0 0 1-.07.298l-.432.863a.596.596 0 1 1-1.067-.533l.166-.33a.666.666 0 0 0 .07-.298v-.602Z" fill="#FFBF18"/></g></svg>