<svg width="28" height="20" viewBox="0 0 28 20" fill="none" xmlns="http://www.w3.org/2000/svg">
<g clip-path="url(#clip0_1310_9680)">
<rect width="28" height="20" rx="2" fill="white"/>
<mask id="mask0_1310_9680" style="mask-type:alpha" maskUnits="userSpaceOnUse" x="0" y="0" width="28" height="20">
<rect width="28" height="20" rx="2" fill="white"/>
</mask>
<g mask="url(#mask0_1310_9680)">
<rect width="28" height="20" fill="#F1361D"/>
<path fill-rule="evenodd" clip-rule="evenodd" d="M9.91046 2.7688L10.8751 2.80998L11.1061 3.74739L11.4882 2.83054L12.4542 2.85411L11.7257 2.24629L12.0917 1.32344L11.2594 1.86464L10.5196 1.27072L10.7337 2.21302L9.91046 2.7688ZM11.7496 5.4382L12.6756 5.71154L12.673 6.67701L13.2655 5.87984L14.1972 6.13644L13.6374 5.37042L14.2158 4.56354L13.2773 4.88729L12.7031 4.132L12.6829 5.09811L11.7496 5.4382ZM13.3092 9.42015L12.5367 9.99922L12.8217 9.04774L12.0592 8.45414L13.0079 8.44515L13.3092 7.49922L13.6105 8.44515L14.5592 8.45414L13.7967 9.04774L14.0818 9.99922L13.3092 9.42015ZM10.1203 12.1428L11.0535 11.8953L11.5529 12.7216L11.645 11.7326L12.5744 11.4679L11.6981 11.1042L11.7731 10.1142L11.1394 10.8784L10.2564 10.5314L10.741 11.3674L10.1203 12.1428Z" fill="#FFDC42"/>
<path fill-rule="evenodd" clip-rule="evenodd" d="M6.66669 8.22666L4.31555 9.90272L5.18304 7.14872L2.86246 5.43059L5.74974 5.40459L6.66669 2.66666L7.58363 5.40459L10.4709 5.43059L8.15034 7.14872L9.01783 9.90272L6.66669 8.22666Z" fill="#FFDC42"/>
</g>
</g>
<defs>
<clipPath id="clip0_1310_9680">
<rect width="28" height="20" rx="2" fill="white"/>
</clipPath>
</defs>
</svg>
