<svg width="28" height="20" viewBox="0 0 28 20" fill="none" xmlns="http://www.w3.org/2000/svg">
<rect x="0.25" y="0.25" width="27.5" height="19.5" rx="1.75" fill="white" stroke="#F5F5F5" stroke-width="0.5"/>
<mask id="mask0_503_2871" style="mask-type:alpha" maskUnits="userSpaceOnUse" x="0" y="0" width="28" height="20">
<rect x="0.25" y="0.25" width="27.5" height="19.5" rx="1.75" fill="white" stroke="white" stroke-width="0.5"/>
</mask>
<g mask="url(#mask0_503_2871)">
<path fill-rule="evenodd" clip-rule="evenodd" d="M0 10.6667H28V0H0V10.6667Z" fill="#E12237"/>
<path fill-rule="evenodd" clip-rule="evenodd" d="M6.66669 9.33334C7.6118 9.33334 8.48035 9.00557 9.16487 8.45749C8.80226 8.59274 8.40978 8.66668 8.00002 8.66668C6.15907 8.66668 4.66669 7.17429 4.66669 5.33334C4.66669 3.49239 6.15907 2.00001 8.00002 2.00001C8.40977 2.00001 8.80226 2.07394 9.16487 2.2092C8.48035 1.66112 7.6118 1.33334 6.66669 1.33334C4.45755 1.33334 2.66669 3.1242 2.66669 5.33334C2.66669 7.54248 4.45755 9.33334 6.66669 9.33334ZM8.00002 4.66668C8.00002 5.03487 7.70154 5.33334 7.33335 5.33334C6.96516 5.33334 6.66669 5.03487 6.66669 4.66668C6.66669 4.29849 6.96516 4.00001 7.33335 4.00001C7.70154 4.00001 8.00002 4.29849 8.00002 4.66668ZM8.66669 8.00001C9.03488 8.00001 9.33335 7.70153 9.33335 7.33334C9.33335 6.96515 9.03488 6.66668 8.66669 6.66668C8.2985 6.66668 8.00002 6.96515 8.00002 7.33334C8.00002 7.70153 8.2985 8.00001 8.66669 8.00001ZM12 7.33334C12 7.70153 11.7015 8.00001 11.3334 8.00001C10.9652 8.00001 10.6667 7.70153 10.6667 7.33334C10.6667 6.96515 10.9652 6.66668 11.3334 6.66668C11.7015 6.66668 12 6.96515 12 7.33334ZM12.6667 5.33334C13.0349 5.33334 13.3334 5.03487 13.3334 4.66668C13.3334 4.29849 13.0349 4.00001 12.6667 4.00001C12.2985 4.00001 12 4.29849 12 4.66668C12 5.03487 12.2985 5.33334 12.6667 5.33334ZM10.6667 2.66668C10.6667 3.03487 10.3682 3.33334 10 3.33334C9.63183 3.33334 9.33335 3.03487 9.33335 2.66668C9.33335 2.29849 9.63183 2.00001 10 2.00001C10.3682 2.00001 10.6667 2.29849 10.6667 2.66668Z" fill="white"/>
</g>
</svg>
