<svg width="28" height="20" fill="none" xmlns="http://www.w3.org/2000/svg"><rect width="28" height="20" rx="2" fill="#fff"/><mask id="a" style="mask-type:alpha" maskUnits="userSpaceOnUse" x="0" y="0" width="28" height="20"><rect width="28" height="20" rx="2" fill="#fff"/></mask><g mask="url(#a)"><path fill="url(#b)" d="M0 0h28v20H0z"/><g filter="url(#c)"><path fill-rule="evenodd" clip-rule="evenodd" d="M0 20h28v-9.333H0V20Z" fill="#262626"/></g><g filter="url(#d)"><path fill-rule="evenodd" clip-rule="evenodd" d="M0 10.667h28V0H0v10.667Z" fill="#DD2137"/></g><g filter="url(#e)"><path fill-rule="evenodd" clip-rule="evenodd" d="M16.198 11.553a4.005 4.005 0 0 0-2.44-5.848.667.667 0 1 0-.344 1.288 2.667 2.667 0 0 1 1.67 3.817l-2.047-1.365a.667.667 0 1 0-.74 1.11l1.877 1.251a2.66 2.66 0 0 1-2.14.338.667.667 0 0 0-.346 1.288 3.996 3.996 0 0 0 3.66-.844l.949.633a.667.667 0 1 0 .74-1.11l-.84-.558Zm-3.531-2.886a.667.667 0 1 0 0-1.334.667.667 0 0 0 0 1.334Z" fill="#F8D84B"/></g></g><defs><filter id="c" x="0" y="10.667" width="28" height="9.333" filterUnits="userSpaceOnUse" color-interpolation-filters="sRGB"><feFlood flood-opacity="0" result="BackgroundImageFix"/><feColorMatrix in="SourceAlpha" values="0 0 0 0 0 0 0 0 0 0 0 0 0 0 0 0 0 0 127 0" result="hardAlpha"/><feOffset/><feColorMatrix values="0 0 0 0 0 0 0 0 0 0 0 0 0 0 0 0 0 0 0.06 0"/><feBlend in2="BackgroundImageFix" result="effect1_dropShadow_503_3778"/><feBlend in="SourceGraphic" in2="effect1_dropShadow_503_3778" result="shape"/></filter><filter id="d" x="0" y="0" width="28" height="10.667" filterUnits="userSpaceOnUse" color-interpolation-filters="sRGB"><feFlood flood-opacity="0" result="BackgroundImageFix"/><feColorMatrix in="SourceAlpha" values="0 0 0 0 0 0 0 0 0 0 0 0 0 0 0 0 0 0 127 0" result="hardAlpha"/><feOffset/><feColorMatrix values="0 0 0 0 0 0 0 0 0 0 0 0 0 0 0 0 0 0 0.06 0"/><feBlend in2="BackgroundImageFix" result="effect1_dropShadow_503_3778"/><feBlend in="SourceGraphic" in2="effect1_dropShadow_503_3778" result="shape"/></filter><filter id="e" x="11.194" y="5.682" width="6.14" height="8.888" filterUnits="userSpaceOnUse" color-interpolation-filters="sRGB"><feFlood flood-opacity="0" result="BackgroundImageFix"/><feColorMatrix in="SourceAlpha" values="0 0 0 0 0 0 0 0 0 0 0 0 0 0 0 0 0 0 127 0" result="hardAlpha"/><feOffset dy="1"/><feColorMatrix values="0 0 0 0 0 0 0 0 0 0 0 0 0 0 0 0 0 0 0.06 0"/><feBlend in2="BackgroundImageFix" result="effect1_dropShadow_503_3778"/><feBlend in="SourceGraphic" in2="effect1_dropShadow_503_3778" result="shape"/></filter><linearGradient id="b" x1="0" y1="0" x2="0" y2="20" gradientUnits="userSpaceOnUse"><stop stop-color="#FF323E"/><stop offset="1" stop-color="#FD0D1B"/></linearGradient></defs></svg>