<svg width="28" height="20" fill="none" xmlns="http://www.w3.org/2000/svg"><rect width="28" height="20" rx="2" fill="#fff"/><mask id="a" style="mask-type:alpha" maskUnits="userSpaceOnUse" x="0" y="0" width="28" height="20"><rect width="28" height="20" rx="2" fill="#fff"/></mask><g mask="url(#a)"><path fill="#FFD44D" d="M0 0h28v20H0z"/><path fill-rule="evenodd" clip-rule="evenodd" d="M12 0h16v4H12V0Zm0 8h16v4H12V8Zm16 8H0v4h28v-4Z" fill="#159A74"/><path fill="#ED1F45" d="M0 0h12v12H0z"/><path fill-rule="evenodd" clip-rule="evenodd" d="M6 7.56 3.649 9.236l.867-2.754-2.32-1.718 2.887-.026L6 2l.917 2.738 2.887.026-2.32 1.718.867 2.754L6 7.56Z" fill="#fff"/></g></svg>