<svg width="28" height="20" fill="none" xmlns="http://www.w3.org/2000/svg"><rect width="28" height="20" rx="2" fill="#fff"/><mask id="a" style="mask-type:alpha" maskUnits="userSpaceOnUse" x="0" y="0" width="28" height="20"><rect width="28" height="20" rx="2" fill="#fff"/></mask><g mask="url(#a)"><path fill-rule="evenodd" clip-rule="evenodd" d="M0 20h28V0H0v20Z" fill="#30C375"/><path fill="#DE414F" d="M4 0h4v20H4z"/><path fill-rule="evenodd" clip-rule="evenodd" d="M6 4c1.105 0 2-.597 2-1.333 0-.737-.895-1.334-2-1.334S4 1.93 4 2.667C4 3.403 4.895 4 6 4Z" fill="#fff"/><mask id="b" style="mask-type:alpha" maskUnits="userSpaceOnUse" x="4" y="1" width="4" height="3"><path fill-rule="evenodd" clip-rule="evenodd" d="M6 4c1.105 0 2-.597 2-1.333 0-.737-.895-1.334-2-1.334S4 1.93 4 2.667C4 3.403 4.895 4 6 4Z" fill="#fff"/></mask><g mask="url(#b)"><path fill-rule="evenodd" clip-rule="evenodd" d="M6 3.333A.667.667 0 1 0 6 2a.667.667 0 0 0 0 1.333Z" fill="#DD404F"/><path fill="#FBAF29" d="M4 1.333h2v1.333H4zm2 1.334h2V4H6z"/></g><path fill-rule="evenodd" clip-rule="evenodd" d="M6 18.667c1.105 0 2-.597 2-1.334C8 16.597 7.105 16 6 16s-2 .597-2 1.333c0 .737.895 1.334 2 1.334Z" fill="#fff"/><mask id="c" style="mask-type:alpha" maskUnits="userSpaceOnUse" x="4" y="16" width="4" height="3"><path fill-rule="evenodd" clip-rule="evenodd" d="M6 18.667c1.105 0 2-.597 2-1.334C8 16.597 7.105 16 6 16s-2 .597-2 1.333c0 .737.895 1.334 2 1.334Z" fill="#fff"/></mask><g mask="url(#c)"><path fill-rule="evenodd" clip-rule="evenodd" d="M6 18a.667.667 0 1 0 0-1.333A.667.667 0 0 0 6 18Z" fill="#DD404F"/><path fill="#FBAF29" d="M4 16h2v1.333H4zm2 1.333h2v1.333H6z"/></g><path fill-rule="evenodd" clip-rule="evenodd" d="M6 12c1.105 0 2-.597 2-1.333 0-.737-.895-1.334-2-1.334s-2 .597-2 1.334C4 11.403 4.895 12 6 12Z" fill="#28AE67"/><mask id="d" style="mask-type:alpha" maskUnits="userSpaceOnUse" x="4" y="9" width="4" height="3"><path fill-rule="evenodd" clip-rule="evenodd" d="M6 12c1.105 0 2-.597 2-1.333 0-.737-.895-1.334-2-1.334s-2 .597-2 1.334C4 11.403 4.895 12 6 12Z" fill="#fff"/></mask><g mask="url(#d)"><path fill-rule="evenodd" clip-rule="evenodd" d="M6 11.333c.736 0 1.333-.298 1.333-.666C7.333 10.299 6.736 10 6 10c-.737 0-1.333.299-1.333.667 0 .368.596.666 1.333.666Z" fill="#DD404F"/></g><path fill-rule="evenodd" clip-rule="evenodd" d="M6 14.667c1.105 0 2-.299 2-.667 0-.368-.895-.667-2-.667S4 13.632 4 14c0 .368.895.667 2 .667Z" fill="#28AE67"/><path fill-rule="evenodd" clip-rule="evenodd" d="M6 8c1.105 0 2-.597 2-1.333 0-.737-.895-1.334-2-1.334S4 5.93 4 6.667C4 7.403 4.895 8 6 8Z" fill="#FBAF29"/><mask id="e" style="mask-type:alpha" maskUnits="userSpaceOnUse" x="4" y="5" width="4" height="3"><path fill-rule="evenodd" clip-rule="evenodd" d="M6 8c1.105 0 2-.597 2-1.333 0-.737-.895-1.334-2-1.334S4 5.93 4 6.667C4 7.403 4.895 8 6 8Z" fill="#fff"/></mask><g mask="url(#e)"><path fill-rule="evenodd" clip-rule="evenodd" d="M6 7.333A.667.667 0 1 0 6 6a.667.667 0 0 0 0 1.333Z" fill="#DD404F"/><path fill="#28AE67" d="M4 5.333h1.333V8H4zm2.667 0H8V8H6.667z"/></g><path fill-rule="evenodd" clip-rule="evenodd" d="M14.822 4.238a.667.667 0 1 0 1.022.857.667.667 0 0 0-1.021-.857Zm-1.727 2.585a.667.667 0 1 0-.857 1.021.667.667 0 0 0 .857-1.021Zm-1.333-1.334a.667.667 0 1 0-.857 1.022.667.667 0 0 0 .857-1.022Zm2.666-2.666a.667.667 0 1 0-.857 1.021.667.667 0 0 0 .857-1.021Zm-.666 2a.667.667 0 1 0-.857 1.021.667.667 0 0 0 .857-1.021Z" fill="#fff"/><path fill-rule="evenodd" clip-rule="evenodd" d="M17.476 9.45a4.066 4.066 0 0 1-6.167-.487 4.068 4.068 0 0 0 5.68-5.68 4.066 4.066 0 0 1 .488 6.168Z" fill="#fff"/></g></svg>