<svg width="28" height="20" fill="none" xmlns="http://www.w3.org/2000/svg"><rect width="28" height="20" rx="2" fill="#fff"/><mask id="a" style="mask-type:alpha" maskUnits="userSpaceOnUse" x="0" y="0" width="28" height="20"><rect width="28" height="20" rx="2" fill="#fff"/></mask><g mask="url(#a)"><path fill-rule="evenodd" clip-rule="evenodd" d="M0 5.333h28V0H0v5.333ZM0 20h28v-5.333H0V20Z" fill="#DD172C"/><path fill-rule="evenodd" clip-rule="evenodd" d="M0 14.667h28V5.333H0v9.334Z" fill="#FFD133"/><path fill-rule="evenodd" clip-rule="evenodd" d="M7.333 9.333h1.334V10H7.333v-.667Z" fill="#FFEDB1"/><path d="M6.391 9h1.884c.195 0 .349.167.333.361l-.172 2.055a1 1 0 0 1-.996.917h-.213a1 1 0 0 1-.997-.917l-.17-2.055A.333.333 0 0 1 6.391 9Z" stroke="#A41517" stroke-width=".667"/><path fill-rule="evenodd" clip-rule="evenodd" d="M6 10h2.667v.667H8L7.333 12l-.666-1.333H6V10Z" fill="#A41517"/><rect x="4" y="8" width="1.333" height="4.667" rx=".667" fill="#A41517"/><rect x="9.333" y="8" width="1.333" height="4.667" rx=".667" fill="#A41517"/><path d="M6 7.733c0-.589.478-1.066 1.067-1.066H7.6c.59 0 1.067.477 1.067 1.066 0 .148-.12.267-.267.267H6.267A.267.267 0 0 1 6 7.733Z" fill="#A41517"/></g></svg>