<svg width="28" height="20" fill="none" xmlns="http://www.w3.org/2000/svg"><rect width="28" height="20" rx="2" fill="#fff"/><mask id="a" style="mask-type:alpha" maskUnits="userSpaceOnUse" x="0" y="0" width="28" height="20"><rect width="28" height="20" rx="2" fill="#fff"/></mask><g mask="url(#a)"><path fill="#19BFBF" d="M0 0h28v20H0z"/><path fill-rule="evenodd" clip-rule="evenodd" d="M8.028 5.503a.333.333 0 0 1 .093-.291l2.448-2.448a.333.333 0 0 1 .236-.097h1.656c.126 0 .241.071.298.184l.482.965A.333.333 0 0 0 13.54 4h2.255c.126 0 .242.071.298.184l1.816 3.632a.333.333 0 0 0 .298.184h1.127c.275 0 .432.314.267.533l-1.582 2.11a.33.33 0 0 0-.031.05l-.618 1.237a.334.334 0 0 0-.036.149v1.176a.333.333 0 0 1-.035.149l-.631 1.263L16 16l-.575 1.15a.333.333 0 0 1-.298.183h-.921a.333.333 0 0 1-.298-.184l-.54-1.079a.334.334 0 0 1-.035-.149v-3.783a.333.333 0 0 0-.097-.236l-.514-.513a.332.332 0 0 1-.08-.13l-.566-1.698a.333.333 0 0 0-.316-.228H8.949a.333.333 0 0 1-.329-.278l-.592-3.552Zm10.639 8.164c0-.184.149-.334.333-.334h.667c.184 0 .333.15.333.334v.921a.333.333 0 0 1-.035.149l-.54 1.079a.333.333 0 0 1-.298.184H19a.333.333 0 0 1-.333-.333v-2Z" fill="#fff"/></g></svg>