<svg width="28" height="20" viewBox="0 0 28 20" fill="none" xmlns="http://www.w3.org/2000/svg">
<g clip-path="url(#clip0_503_3985)">
<rect width="28" height="20" rx="2" fill="white"/>
<mask id="mask0_503_3985" style="mask-type:alpha" maskUnits="userSpaceOnUse" x="0" y="0" width="28" height="20">
<rect width="28" height="20" rx="2" fill="white"/>
</mask>
<g mask="url(#mask0_503_3985)">
<rect width="28" height="20" fill="#262626"/>
<path fill-rule="evenodd" clip-rule="evenodd" d="M0 0H28V20L0 0Z" fill="#E8283F"/>
<path fill-rule="evenodd" clip-rule="evenodd" d="M6.66671 16.6667L5.7239 16.9428L6.00004 16L5.7239 15.0572L6.66671 15.3333L7.60952 15.0572L7.33337 16L7.60952 16.9428L6.66671 16.6667Z" fill="white"/>
<path fill-rule="evenodd" clip-rule="evenodd" d="M6.66671 8.66667L5.7239 8.94281L6.00004 8.00001L5.7239 7.0572L6.66671 7.33334L7.60952 7.0572L7.33337 8.00001L7.60952 8.94281L6.66671 8.66667Z" fill="white"/>
<path fill-rule="evenodd" clip-rule="evenodd" d="M3.33333 12L2.39052 12.2761L2.66667 11.3333L2.39052 10.3905L3.33333 10.6667L4.27614 10.3905L4 11.3333L4.27614 12.2761L3.33333 12Z" fill="white"/>
<path fill-rule="evenodd" clip-rule="evenodd" d="M9.33333 11.3333L8.39052 11.6095L8.66667 10.6667L8.39052 9.72385L9.33333 9.99999L10.2761 9.72385L10 10.6667L10.2761 11.6095L9.33333 11.3333Z" fill="white"/>
<path fill-rule="evenodd" clip-rule="evenodd" d="M18.8613 9.26557C18.7017 9.1698 18.5723 8.9442 18.5723 8.76372L18.5723 7.535C18.5723 7.3536 18.4418 7.25005 18.2443 7.31588L17.4861 7.56862C17.3049 7.629 17.0275 7.63445 16.8301 7.56862L16.0718 7.31588C15.8907 7.2555 15.8706 7.13051 16.0329 7.03314L17.8118 5.96574C17.9715 5.86997 18.0574 5.66182 17.9915 5.46433L17.7388 4.70612C17.6784 4.52497 17.76 4.42162 17.9575 4.48745L18.7157 4.74019C18.8968 4.80057 19.1197 4.7228 19.2171 4.56051L20.2845 2.78152C20.3802 2.6219 20.5014 2.62301 20.5672 2.82051L20.82 3.57871C20.8803 3.75986 20.8858 4.03723 20.82 4.23472L20.5672 4.99292C20.5068 5.17408 20.6058 5.32093 20.7863 5.32093H22.0151C22.1965 5.32093 22.4195 5.44765 22.5169 5.60995L23.5843 7.38893C23.6801 7.54855 23.6031 7.70888 23.43 7.7435L21.7284 8.08381C21.5474 8.12001 21.3698 8.30401 21.3351 8.47709L20.9948 10.1786C20.9586 10.3596 20.8026 10.4303 20.6403 10.333L18.8613 9.26557V9.26557Z" fill="#FFD84E"/>
</g>
</g>
<defs>
<clipPath id="clip0_503_3985">
<rect width="28" height="20" rx="2" fill="white"/>
</clipPath>
</defs>
</svg>
