<svg width="28" height="20" fill="none" xmlns="http://www.w3.org/2000/svg"><rect width="28" height="20" rx="2" fill="#fff"/><mask id="a" style="mask-type:alpha" maskUnits="userSpaceOnUse" x="0" y="0" width="28" height="20"><rect width="28" height="20" rx="2" fill="#fff"/></mask><g mask="url(#a)"><path fill="#E81B26" d="M0 0h28v20H0z"/><path fill-rule="evenodd" clip-rule="evenodd" d="M14 13.333a3.333 3.333 0 1 0 0-6.666 3.333 3.333 0 0 0 0 6.666ZM10.208 7.28a4.65 4.65 0 0 1 .69-.766L1.962-3.531-.715-.558l10.923 7.837Zm.69 6.206a4.69 4.69 0 0 1-.69-.765L-.715 20.558l2.677 2.973 8.936-10.045Zm2.187 1.09L12 20h4l-1.085-5.423a4.686 4.686 0 0 1-1.83 0Zm4.707-1.855c-.201.28-.433.537-.69.766l8.936 10.044 2.677-2.973-10.923-7.837ZM9.38 10.66a4.708 4.708 0 0 1 0-1.32L0 8v4l9.38-1.34Zm3.705-5.237L12 0h4l-1.085 5.423a4.69 4.69 0 0 0-1.83 0ZM18.62 9.34a4.71 4.71 0 0 1 0 1.32L28 12V8l-9.38 1.34Zm-.828-2.06a4.694 4.694 0 0 0-.69-.767L26.038-3.53l2.677 2.973L17.792 7.28Z" fill="#FFE94F"/></g></svg>