<svg width="28" height="20" fill="none" xmlns="http://www.w3.org/2000/svg"><rect width="28" height="20" rx="2" fill="#fff"/><mask id="a" style="mask-type:alpha" maskUnits="userSpaceOnUse" x="0" y="0" width="28" height="20"><rect width="28" height="20" rx="2" fill="#fff"/></mask><g mask="url(#a)"><path fill="#E92434" d="M0 0h28v20H0z"/><path fill-rule="evenodd" clip-rule="evenodd" d="m19.02 10.768-1.224 1.485.084-1.923-1.791-.706 1.854-.515.118-1.921 1.063 1.605 1.864-.482-1.198 1.507 1.034 1.624-1.803-.674Z" fill="#fff"/><path fill-rule="evenodd" clip-rule="evenodd" d="M17.403 13.684a6 6 0 1 1 0-7.368 5.21 5.21 0 0 0-3.07-.983c-2.761 0-5 2.09-5 4.667s2.239 4.667 5 4.667a5.21 5.21 0 0 0 3.07-.983Z" fill="#fff"/></g></svg>