<svg width="28" height="20" fill="none" xmlns="http://www.w3.org/2000/svg"><rect x=".25" y=".25" width="27.5" height="19.5" rx="1.75" fill="#fff" stroke="#F5F5F5" stroke-width=".5"/><mask id="a" style="mask-type:alpha" maskUnits="userSpaceOnUse" x="0" y="0" width="28" height="20"><rect x=".25" y=".25" width="27.5" height="19.5" rx="1.75" fill="#fff" stroke="#fff" stroke-width=".5"/></mask><g mask="url(#a)" fill-rule="evenodd" clip-rule="evenodd"><path d="M0 5.333h28V0H0v5.333ZM0 20h28v-5.333H0V20Z" fill="#F03340"/><path d="M12.943 12.39a.552.552 0 0 0 0-.78l-.077-.077a.498.498 0 0 0-.473-.131l-.38.095c-.443.11-.718-.468-.352-.742l.342-.258a.276.276 0 0 0-.165-.497c-.292 0-.385-.393-.124-.524l.572-.286c.261-.13.168-.523-.123-.523a.276.276 0 0 1-.166-.498L13.6 6.967a.667.667 0 0 1 .8 0l1.603 1.202c.213.16.1.498-.165.498-.292 0-.385.393-.124.523l.572.286c.261.13.168.524-.123.524a.276.276 0 0 0-.166.498l.342.257c.366.274.09.852-.353.741l-.38-.094a.498.498 0 0 0-.472.13l-.077.078a.552.552 0 0 0 0 .78.552.552 0 0 1-.39.943h-1.334a.552.552 0 0 1-.39-.943Z" fill="#1FC065"/></g></svg>