<svg width="28" height="20" viewBox="0 0 28 20" fill="none" xmlns="http://www.w3.org/2000/svg">
<g clip-path="url(#clip0_503_3391)">
<rect x="0.25" y="0.25" width="27.5" height="19.5" rx="1.75" fill="white" stroke="#F5F5F5" stroke-width="0.5"/>
<mask id="mask0_503_3391" style="mask-type:alpha" maskUnits="userSpaceOnUse" x="0" y="0" width="28" height="20">
<rect x="0.25" y="0.25" width="27.5" height="19.5" rx="1.75" fill="white" stroke="white" stroke-width="0.5"/>
</mask>
<g mask="url(#mask0_503_3391)">
<path fill-rule="evenodd" clip-rule="evenodd" d="M0 6.66667H28V0H0V6.66667Z" fill="#1B57C4"/>
<path fill-rule="evenodd" clip-rule="evenodd" d="M0 20H28V13.3333H0V20Z" fill="#1B57C4"/>
<path fill-rule="evenodd" clip-rule="evenodd" d="M12.3999 7.86652C11.7523 8.35303 11.3333 9.12759 11.3333 10C11.3333 11.4728 12.5272 12.6667 14 12.6667C15.4728 12.6667 16.6667 11.4728 16.6667 10C16.6667 9.12759 16.2477 8.35303 15.6 7.86652L14.6667 10.6667H13.3333L12.3999 7.86652Z" fill="url(#paint0_linear_503_3391)"/>
<path fill-rule="evenodd" clip-rule="evenodd" d="M14 7.33333L14.6667 10.6667H13.3333L14 7.33333Z" fill="#F9C92E"/>
</g>
</g>
<defs>
<linearGradient id="paint0_linear_503_3391" x1="11.3333" y1="7.86652" x2="11.3333" y2="12.6667" gradientUnits="userSpaceOnUse">
<stop stop-color="#3C7839"/>
<stop offset="1" stop-color="#31642E"/>
</linearGradient>
<clipPath id="clip0_503_3391">
<rect width="28" height="20" rx="2" fill="white"/>
</clipPath>
</defs>
</svg>
