<svg width="28" height="20" fill="none" xmlns="http://www.w3.org/2000/svg"><rect x=".25" y=".25" width="27.5" height="19.5" rx="1.75" fill="#fff" stroke="#F5F5F5" stroke-width=".5"/><mask id="a" style="mask-type:alpha" maskUnits="userSpaceOnUse" x="0" y="0" width="28" height="20"><rect x=".25" y=".25" width="27.5" height="19.5" rx="1.75" fill="#fff" stroke="#fff" stroke-width=".5"/></mask><g mask="url(#a)"><path fill-rule="evenodd" clip-rule="evenodd" d="M20 3.333c.363-.181.732.236.507.574l-.44.659a.606.606 0 0 1-.168.168l-1.844 1.23a.666.666 0 0 0-.102.083l-.148.148a.667.667 0 0 0 0 .943l.39.39c.26.261.26.683 0 .943l-.522.523a.667.667 0 0 1-.77.124l-.307-.153a.667.667 0 0 0-.894.298l-.245.49a.666.666 0 0 1-.386.334l-1.635.546a.668.668 0 0 1-.21.034h-.814a.667.667 0 0 0-.596.368l-.184.369a.667.667 0 0 1-.895.298l-1.973-.987a.667.667 0 0 1-.174-.125L7.53 9.53a.667.667 0 0 1-.196-.472v-.586c0-.26.212-.471.472-.471.125 0 .245-.05.333-.138l1-1a.667.667 0 0 1 .472-.195h.576a.667.667 0 0 0 .633-.456l.328-.986a.667.667 0 0 1 .764-.443l2.609.522c.097.02.197.017.292-.007l2.45-.613a.67.67 0 0 0 .137-.05L18.667 4 20 3.333Z" fill="#E7832C"/><path fill-rule="evenodd" clip-rule="evenodd" d="M14 16a.667.667 0 1 0 0-1.333A.667.667 0 0 0 14 16Z" fill="#445128"/><path opacity=".75" d="M16 14.667s2-.667 2.667-2m-6.667 2s-2-.667-2.667-2" stroke="#445128" stroke-width="1.333" stroke-linecap="round"/></g></svg>