<svg width="28" height="20" viewBox="0 0 28 20" fill="none" xmlns="http://www.w3.org/2000/svg">
<g clip-path="url(#clip0_1310_7653)">
<path d="M28 0H0V20H28V0Z" fill="url(#paint0_linear_1310_7653)"/>
<path d="M17 4.00272H11C10.8159 4.00272 10.6667 4.15195 10.6667 4.33605V10.336C10.6667 10.5201 10.8159 10.6694 11 10.6694H17C17.1841 10.6694 17.3334 10.5201 17.3334 10.336V4.33605C17.3334 4.15195 17.1841 4.00272 17 4.00272Z" fill="url(#paint1_linear_1310_7653)"/>
<path fill-rule="evenodd" clip-rule="evenodd" d="M10.6667 4.32426C10.6667 4.14668 10.8206 4.00272 11.0003 4.00272H15.6664C15.8507 4.00272 15.926 4.12742 15.8338 4.28265L14.0501 7.286L10.91 7.75939L10.6946 10.3356C10.6792 10.5199 10.6667 10.5301 10.6667 10.3478V4.32426Z" fill="url(#paint2_linear_1310_7653)"/>
<path d="M10.6667 8.66937C11.7713 8.66937 12.6667 7.77394 12.6667 6.66937C12.6667 5.5648 11.7713 4.66937 10.6667 4.66937C9.56212 4.66937 8.66669 5.5648 8.66669 6.66937C8.66669 7.77394 9.56212 8.66937 10.6667 8.66937Z" fill="url(#paint3_linear_1310_7653)"/>
<path d="M17 14.6694H11C10.8159 14.6694 10.6667 14.8186 10.6667 15.0027V15.6694C10.6667 15.8535 10.8159 16.0027 11 16.0027H17C17.1841 16.0027 17.3333 15.8535 17.3333 15.6694V15.0027C17.3333 14.8186 17.1841 14.6694 17 14.6694Z" fill="url(#paint4_linear_1310_7653)"/>
<path fill-rule="evenodd" clip-rule="evenodd" d="M10.8541 11.9364H10.88C10.9333 11.9364 10.9745 11.9867 10.9745 12.0538V12.3814C10.9745 12.4332 11.0019 12.4789 11.072 12.4789H11.1512C11.1589 12.4789 11.1665 12.4789 11.1665 12.4743C11.1665 12.4698 11.1604 12.4637 11.1543 12.4576L11.1055 12.4058C11.0979 12.3982 11.0918 12.389 11.0918 12.3783V12.0599C11.0918 11.9761 11.0461 11.9166 10.9943 11.8892C11.0476 11.8557 11.1071 11.7871 11.1071 11.618C11.1071 11.4199 11.0248 11.3361 10.8663 11.3361H10.6758C10.6697 11.3361 10.6667 11.3406 10.6667 11.3452C10.6667 11.3498 10.6743 11.3543 10.6773 11.3589L10.7231 11.4031C10.7337 11.4138 10.7368 11.4275 10.7368 11.4458V12.3692C10.7368 12.3875 10.7337 12.4012 10.7231 12.4119L10.6773 12.4561C10.6743 12.4606 10.6667 12.4652 10.6667 12.4698C10.6667 12.4743 10.6697 12.4789 10.6758 12.4789H10.9151C10.9211 12.4789 10.9242 12.4743 10.9242 12.4698C10.9242 12.4652 10.9166 12.4606 10.9135 12.4561L10.8678 12.4119C10.8571 12.4012 10.8541 12.3875 10.8541 12.3692V11.9364ZM10.8541 11.4122H10.877C10.9516 11.4122 10.9821 11.4625 10.9821 11.618C10.9821 11.8008 10.9516 11.8603 10.877 11.8603H10.8541V11.4122ZM11.3722 11.4122H11.4591C11.4789 11.4122 11.4926 11.4214 11.4987 11.4412L11.581 11.7277C11.5825 11.7338 11.5871 11.7383 11.5931 11.7383C11.5977 11.7383 11.6008 11.7353 11.6008 11.7292V11.3498C11.6008 11.3422 11.5947 11.3361 11.5886 11.3361H11.1939C11.1878 11.3361 11.1848 11.3406 11.1848 11.3452C11.1848 11.3498 11.1924 11.3543 11.1954 11.3589L11.2411 11.4031C11.2518 11.4138 11.2549 11.4275 11.2549 11.4458V12.3692C11.2549 12.3875 11.2518 12.4012 11.2411 12.4119L11.1954 12.4561C11.1924 12.4622 11.1848 12.4652 11.1848 12.4698C11.1848 12.4743 11.1878 12.4789 11.1939 12.4789H11.5886C11.5962 12.4789 11.6008 12.4728 11.6008 12.4652V12.0827C11.6008 12.0782 11.5977 12.0736 11.5931 12.0736C11.5886 12.0736 11.584 12.0766 11.5825 12.0827L11.5002 12.3753C11.4941 12.3936 11.4789 12.4027 11.4591 12.4027H11.3722V11.9395H11.4057C11.4133 11.9395 11.4194 11.9425 11.4225 11.9502L11.4743 12.0614C11.4773 12.0675 11.4789 12.0721 11.485 12.0721C11.4895 12.0721 11.4911 12.069 11.4911 12.0644V11.7414C11.4911 11.7353 11.4895 11.7323 11.485 11.7323C11.4804 11.7323 11.4789 11.7353 11.4758 11.7414L11.4225 11.8481C11.4194 11.8557 11.4133 11.8587 11.4057 11.8587H11.3722V11.4122ZM11.9589 12.2001C11.9589 12.3448 11.9253 12.4027 11.8781 12.4027C11.8232 12.4027 11.805 12.3174 11.805 11.8785C11.805 11.557 11.8232 11.4122 11.8872 11.4122C11.9543 11.4122 12.0198 11.6088 12.0518 11.7231C12.0549 11.7323 12.0594 11.7383 12.0655 11.7383C12.0701 11.7383 12.0731 11.7338 12.0731 11.7277V11.362C12.0731 11.3467 12.0701 11.3361 12.0625 11.3361C12.0549 11.3361 12.0457 11.3437 12.032 11.3559C12.0168 11.3696 12.0015 11.3803 11.9939 11.3803C11.9878 11.3803 11.9771 11.3757 11.9711 11.3711C11.9558 11.3589 11.9253 11.3361 11.8751 11.3361C11.6876 11.3361 11.68 11.6896 11.68 11.877C11.68 12.1315 11.6876 12.4789 11.8781 12.4789C11.9116 12.4789 11.9421 12.4606 11.9741 12.4317C11.9802 12.4271 11.9848 12.4256 11.9893 12.4256C11.9954 12.4256 11.9985 12.4271 12.0046 12.4317L12.0503 12.4728C12.0533 12.4759 12.0594 12.4789 12.0655 12.4789C12.0701 12.4789 12.0731 12.4759 12.0731 12.4713V11.9928C12.0731 11.9776 12.0777 11.9669 12.0884 11.9593L12.1326 11.9227C12.1371 11.9166 12.1402 11.9136 12.1402 11.9075C12.1402 11.9014 12.1356 11.8983 12.1295 11.8983H11.904C11.8964 11.8983 11.8918 11.9014 11.8918 11.9075C11.8918 11.9136 11.8933 11.9166 11.8994 11.9227L11.9421 11.9593C11.9528 11.9684 11.9589 11.9776 11.9589 11.9928V12.2001ZM12.2286 12.3692C12.2286 12.3875 12.2255 12.4012 12.2149 12.4119L12.1691 12.4561C12.1661 12.4606 12.1585 12.4652 12.1585 12.4698C12.1585 12.4743 12.1615 12.4789 12.1676 12.4789H12.4069C12.413 12.4789 12.416 12.4743 12.416 12.4698C12.416 12.4652 12.4084 12.4606 12.4053 12.4561L12.3596 12.4119C12.349 12.4012 12.3459 12.3875 12.3459 12.3692V11.4458C12.3459 11.4275 12.349 11.4138 12.3596 11.4031L12.4053 11.3589C12.4084 11.3543 12.416 11.3498 12.416 11.3452C12.416 11.3406 12.413 11.3361 12.4069 11.3361H12.1676C12.1615 11.3361 12.1585 11.3406 12.1585 11.3452C12.1585 11.3498 12.1661 11.3543 12.1691 11.3589L12.2149 11.4031C12.2255 11.4138 12.2286 11.4275 12.2286 11.4458V12.3692ZM12.6796 11.3361C12.4968 11.3361 12.477 11.6576 12.477 11.877C12.477 12.165 12.4968 12.4789 12.6796 12.4789C12.864 12.4789 12.8838 12.165 12.8838 11.877C12.8838 11.6576 12.864 11.3361 12.6796 11.3361ZM12.6796 11.4122C12.7253 11.4122 12.7589 11.5402 12.7589 11.8785C12.7589 12.2747 12.7253 12.4027 12.6796 12.4027C12.6354 12.4027 12.6019 12.2747 12.6019 11.8785C12.6019 11.5402 12.6354 11.4122 12.6796 11.4122ZM13.0072 12.3692C13.0072 12.3875 13.0027 12.3997 12.9935 12.4119L12.9554 12.4561C12.9524 12.4606 12.9448 12.4652 12.9448 12.4713C12.9448 12.4743 12.9478 12.4789 12.9539 12.4789H13.1551C13.1611 12.4789 13.1642 12.4743 13.1642 12.4713C13.1642 12.4652 13.1581 12.4606 13.1535 12.4561L13.1124 12.4103C13.1017 12.3997 13.0971 12.3875 13.0971 12.3692V11.6103H13.1002L13.2785 12.4408C13.2831 12.4637 13.2952 12.4789 13.309 12.4789H13.373C13.3836 12.4789 13.3882 12.4728 13.3882 12.4622V11.4458C13.3882 11.4275 13.3928 11.4153 13.4019 11.4031L13.44 11.3589C13.4446 11.3543 13.4507 11.3498 13.4507 11.3437C13.4507 11.3406 13.4476 11.3361 13.4415 11.3361H13.2404C13.2343 11.3361 13.2312 11.3406 13.2312 11.3437C13.2312 11.3498 13.2389 11.3543 13.2419 11.3589L13.2846 11.4046C13.2952 11.4153 13.2983 11.4275 13.2983 11.4458V12.0172H13.2952L13.1551 11.362C13.152 11.3467 13.1474 11.3361 13.1368 11.3361H12.9539C12.9478 11.3361 12.9448 11.3406 12.9448 11.3437C12.9448 11.3498 12.9524 11.3543 12.9554 11.3589L12.9935 11.4031C13.0027 11.4153 13.0072 11.4275 13.0072 11.4458V12.3692ZM10.9699 13.7239C10.9699 13.8686 10.9364 13.9265 10.8891 13.9265C10.8343 13.9265 10.816 13.8412 10.816 13.4023C10.816 13.0808 10.8343 12.9361 10.8983 12.9361C10.9653 12.9361 11.0309 13.1326 11.0629 13.2469C11.0659 13.2561 11.0705 13.2622 11.0766 13.2622C11.0811 13.2622 11.0842 13.2576 11.0842 13.2515V12.8858C11.0842 12.8705 11.0811 12.8599 11.0735 12.8599C11.0659 12.8599 11.0568 12.8675 11.0431 12.8797C11.0278 12.8934 11.0126 12.9041 11.005 12.9041C10.9989 12.9041 10.9882 12.8995 10.9821 12.8949C10.9669 12.8827 10.9364 12.8599 10.8861 12.8599C10.6987 12.8599 10.6911 13.2134 10.6911 13.4008C10.6911 13.6553 10.6987 14.0027 10.8891 14.0027C10.9227 14.0027 10.9531 13.9844 10.9851 13.9555C10.9912 13.9509 10.9958 13.9494 11.0004 13.9494C11.0065 13.9494 11.0095 13.9509 11.0156 13.9555L11.0613 13.9966C11.0644 13.9997 11.0705 14.0027 11.0766 14.0027C11.0811 14.0027 11.0842 13.9997 11.0842 13.9951V13.5166C11.0842 13.5014 11.0888 13.4907 11.0994 13.4831L11.1436 13.4465C11.1482 13.4404 11.1512 13.4374 11.1512 13.4313C11.1512 13.4252 11.1467 13.4222 11.1406 13.4222H10.9151C10.9074 13.4222 10.9029 13.4252 10.9029 13.4313C10.9029 13.4374 10.9044 13.4404 10.9105 13.4465L10.9531 13.4831C10.9638 13.4923 10.9699 13.5014 10.9699 13.5166V13.7239ZM11.2244 13.8382C11.2244 13.9326 11.2869 14.0027 11.4072 14.0027C11.5109 14.0027 11.584 13.9326 11.584 13.8382V12.9696C11.584 12.9513 11.5886 12.9361 11.5962 12.9269L11.6434 12.8827C11.648 12.8782 11.6511 12.8736 11.6511 12.869C11.6511 12.8644 11.648 12.8599 11.6419 12.8599H11.4331C11.4271 12.8599 11.424 12.8644 11.424 12.869C11.424 12.8736 11.4271 12.8782 11.4316 12.8827L11.4789 12.9269C11.488 12.9361 11.4911 12.9513 11.4911 12.9696V13.7985C11.4911 13.8656 11.4758 13.9265 11.4194 13.9265C11.3478 13.9265 11.3417 13.8656 11.3417 13.7985V12.9696C11.3417 12.9513 11.3463 12.9361 11.3539 12.9269L11.4011 12.8827C11.4057 12.8782 11.4088 12.8736 11.4088 12.869C11.4088 12.8644 11.4057 12.8599 11.3996 12.8599H11.1665C11.1604 12.8599 11.1573 12.8644 11.1573 12.869C11.1573 12.8736 11.1604 12.8782 11.165 12.8827L11.2122 12.9269C11.2213 12.9361 11.2244 12.9513 11.2244 12.9696V13.8382ZM11.9802 13.9083C11.9817 13.922 11.9787 13.9326 11.9726 13.9387L11.9314 13.9799C11.9269 13.9844 11.9208 13.989 11.9208 13.9936C11.9208 13.9982 11.9238 14.0027 11.9314 14.0027H12.1509C12.1585 14.0027 12.1615 13.9982 12.1615 13.9936C12.1615 13.989 12.157 13.9844 12.1524 13.9799L12.1082 13.9402C12.0975 13.9311 12.093 13.9143 12.0914 13.8991L11.9467 12.8766C11.9451 12.8675 11.9406 12.8599 11.933 12.8599H11.8766C11.869 12.8599 11.8659 12.866 11.8644 12.8736L11.7257 13.8976C11.7242 13.9113 11.7227 13.9265 11.7135 13.9357L11.6709 13.9783C11.6663 13.9829 11.6602 13.989 11.6602 13.9936C11.6602 13.9982 11.6632 14.0027 11.6693 14.0027H11.8446C11.8522 14.0027 11.8552 13.9982 11.8552 13.9936C11.8552 13.989 11.8461 13.9829 11.84 13.9753L11.8065 13.9402C11.8004 13.9326 11.7973 13.9235 11.7989 13.9128L11.8217 13.7452C11.8232 13.7391 11.8263 13.7345 11.8309 13.7345H11.9436C11.9512 13.7345 11.9558 13.7406 11.9573 13.7482L11.9802 13.9083ZM11.84 13.6538C11.837 13.6538 11.8339 13.6507 11.8354 13.6446L11.8857 13.2698H11.8888L11.9421 13.6431C11.9436 13.6492 11.9406 13.6538 11.936 13.6538H11.84ZM12.253 13.893C12.253 13.9113 12.2499 13.925 12.2392 13.9357L12.1935 13.9799C12.1905 13.986 12.1829 13.989 12.1829 13.9936C12.1829 13.9982 12.1859 14.0027 12.192 14.0027H12.3931C12.5471 14.0027 12.6385 13.8991 12.6385 13.4023C12.6385 13.0077 12.5471 12.8599 12.3931 12.8599H12.192C12.1859 12.8599 12.1829 12.8644 12.1829 12.869C12.1829 12.8736 12.1905 12.8782 12.1935 12.8827L12.2392 12.9269C12.2499 12.9376 12.253 12.9513 12.253 12.9696V13.893ZM12.3703 12.9361H12.3977C12.4571 12.9361 12.5135 12.994 12.5135 13.4023C12.5135 13.8686 12.4571 13.9265 12.3977 13.9265H12.3703V12.9361ZM12.8869 12.9361H12.9737C12.9935 12.9361 13.0072 12.9452 13.0133 12.965L13.0956 13.2515C13.0971 13.2576 13.1017 13.2622 13.1078 13.2622C13.1124 13.2622 13.1154 13.2591 13.1154 13.253V12.8736C13.1154 12.866 13.1093 12.8599 13.1032 12.8599H12.7086C12.7025 12.8599 12.6994 12.8644 12.6994 12.869C12.6994 12.8736 12.7071 12.8782 12.7101 12.8827L12.7558 12.9269C12.7665 12.9376 12.7695 12.9513 12.7695 12.9696V13.893C12.7695 13.9113 12.7665 13.925 12.7558 13.9357L12.7101 13.9799C12.7071 13.986 12.6994 13.989 12.6994 13.9936C12.6994 13.9982 12.7025 14.0027 12.7086 14.0027H13.1032C13.1109 14.0027 13.1154 13.9966 13.1154 13.989V13.6065C13.1154 13.602 13.1124 13.5974 13.1078 13.5974C13.1032 13.5974 13.0987 13.6004 13.0971 13.6065L13.0149 13.8991C13.0088 13.9174 12.9935 13.9265 12.9737 13.9265H12.8869V13.4633H12.9204C12.928 13.4633 12.9341 13.4663 12.9371 13.474L12.989 13.5852C12.992 13.5913 12.9935 13.5959 12.9996 13.5959C13.0042 13.5959 13.0057 13.5928 13.0057 13.5882V13.2652C13.0057 13.2591 13.0042 13.2561 12.9996 13.2561C12.9951 13.2561 12.9935 13.2591 12.9905 13.2652L12.9371 13.3719C12.9341 13.3795 12.928 13.3825 12.9204 13.3825H12.8869V12.9361ZM13.2404 13.893C13.2404 13.9113 13.2373 13.925 13.2267 13.9357L13.181 13.9799C13.1779 13.986 13.1703 13.989 13.1703 13.9936C13.1703 13.9982 13.1733 14.0027 13.1794 14.0027H13.5528C13.565 14.0027 13.5695 13.9951 13.5695 13.9814V13.6081C13.5695 13.602 13.5665 13.5974 13.5619 13.5974C13.5558 13.5974 13.5558 13.602 13.5528 13.6081L13.4583 13.9037C13.4522 13.922 13.437 13.9265 13.4187 13.9265H13.3577V12.9696C13.3577 12.9513 13.3608 12.9376 13.3714 12.9269L13.4171 12.8827C13.4202 12.8782 13.4278 12.8736 13.4278 12.869C13.4278 12.8644 13.4248 12.8599 13.4187 12.8599H13.1794C13.1733 12.8599 13.1703 12.8644 13.1703 12.869C13.1703 12.8736 13.1779 12.8782 13.181 12.8827L13.2267 12.9269C13.2373 12.9376 13.2404 12.9513 13.2404 12.9696V13.893ZM13.8514 12.8599C13.6686 12.8599 13.6488 13.1814 13.6488 13.4008C13.6488 13.6888 13.6686 14.0027 13.8514 14.0027C14.0358 14.0027 14.0556 13.6888 14.0556 13.4008C14.0556 13.1814 14.0358 12.8599 13.8514 12.8599ZM13.8514 12.9361C13.8971 12.9361 13.9307 13.0641 13.9307 13.4023C13.9307 13.7985 13.8971 13.9265 13.8514 13.9265C13.8072 13.9265 13.7737 13.7985 13.7737 13.4023C13.7737 13.0641 13.8072 12.9361 13.8514 12.9361ZM14.1714 13.8382C14.1714 13.9326 14.2339 14.0027 14.3543 14.0027C14.4579 14.0027 14.5311 13.9326 14.5311 13.8382V12.9696C14.5311 12.9513 14.5356 12.9361 14.5432 12.9269L14.5905 12.8827C14.5951 12.8782 14.5981 12.8736 14.5981 12.869C14.5981 12.8644 14.5951 12.8599 14.589 12.8599H14.3802C14.3741 12.8599 14.3711 12.8644 14.3711 12.869C14.3711 12.8736 14.3741 12.8782 14.3787 12.8827L14.4259 12.9269C14.4351 12.9361 14.4381 12.9513 14.4381 12.9696V13.7985C14.4381 13.8656 14.4229 13.9265 14.3665 13.9265C14.2949 13.9265 14.2888 13.8656 14.2888 13.7985V12.9696C14.2888 12.9513 14.2933 12.9361 14.301 12.9269L14.3482 12.8827C14.3528 12.8782 14.3558 12.8736 14.3558 12.869C14.3558 12.8644 14.3528 12.8599 14.3467 12.8599H14.1135C14.1074 12.8599 14.1044 12.8644 14.1044 12.869C14.1044 12.8736 14.1074 12.8782 14.112 12.8827L14.1592 12.9269C14.1684 12.9361 14.1714 12.9513 14.1714 12.9696V13.8382ZM14.6926 13.893C14.6926 13.9113 14.6895 13.925 14.6789 13.9357L14.6331 13.9799C14.6301 13.986 14.6225 13.989 14.6225 13.9936C14.6225 13.9982 14.6255 14.0027 14.6316 14.0027H14.8815C14.8876 14.0027 14.8907 13.9982 14.8907 13.9936C14.8907 13.989 14.8846 13.9844 14.88 13.9799L14.8236 13.9357C14.8114 13.9265 14.8099 13.9113 14.8099 13.893V13.4709H14.8617C14.9989 13.4709 15.0629 13.3521 15.0629 13.1555C15.0629 12.9223 14.9806 12.8599 14.8617 12.8599H14.6316C14.6255 12.8599 14.6225 12.8644 14.6225 12.869C14.6225 12.8736 14.6301 12.8782 14.6331 12.8827L14.6789 12.9269C14.6895 12.9376 14.6926 12.9513 14.6926 12.9696V13.893ZM14.8099 12.9361H14.8541C14.9181 12.9361 14.9379 12.9863 14.9379 13.1555C14.9379 13.3246 14.9181 13.3947 14.8541 13.3947H14.8099V12.9361ZM15.3051 12.9361H15.392C15.4118 12.9361 15.4255 12.9452 15.4316 12.965L15.5139 13.2515C15.5154 13.2576 15.52 13.2622 15.5261 13.2622C15.5307 13.2622 15.5337 13.2591 15.5337 13.253V12.8736C15.5337 12.866 15.5276 12.8599 15.5215 12.8599H15.1269C15.1208 12.8599 15.1177 12.8644 15.1177 12.869C15.1177 12.8736 15.1253 12.8782 15.1284 12.8827L15.1741 12.9269C15.1848 12.9376 15.1878 12.9513 15.1878 12.9696V13.893C15.1878 13.9113 15.1848 13.925 15.1741 13.9357L15.1284 13.9799C15.1253 13.986 15.1177 13.989 15.1177 13.9936C15.1177 13.9982 15.1208 14.0027 15.1269 14.0027H15.5215C15.5291 14.0027 15.5337 13.9966 15.5337 13.989V13.6065C15.5337 13.602 15.5307 13.5974 15.5261 13.5974C15.5215 13.5974 15.517 13.6004 15.5154 13.6065L15.4331 13.8991C15.4271 13.9174 15.4118 13.9265 15.392 13.9265H15.3051V13.4633H15.3387C15.3463 13.4633 15.3524 13.4663 15.3554 13.474L15.4072 13.5852C15.4103 13.5913 15.4118 13.5959 15.4179 13.5959C15.4225 13.5959 15.424 13.5928 15.424 13.5882V13.2652C15.424 13.2591 15.4225 13.2561 15.4179 13.2561C15.4133 13.2561 15.4118 13.2591 15.4088 13.2652L15.3554 13.3719C15.3524 13.3795 15.3463 13.3825 15.3387 13.3825H15.3051V12.9361Z" fill="black"/>
<path d="M17.2989 2.11115C19.1314 1.55541 19.6827 1.45919 19.9381 2.26773C20.1599 2.96991 19.7705 3.71895 19.0683 3.94074C18.9788 3.969 18.8331 4.01923 18.6695 4.07927C18.3468 4.19773 18.0425 4.32311 17.7721 4.45006C17.3599 4.64357 17.0589 4.82879 16.9453 4.94302C16.8594 5.02934 16.7339 5.192 16.5892 5.41054C16.4528 5.61654 16.3034 5.86537 16.1441 6.15146C15.8554 6.67032 13.4001 8.69758 12.8895 8.82056C12.4921 8.9163 12.1949 9.02573 12.1089 9.08728C12.04 9.13654 11.9187 9.25603 11.7752 9.42465C11.6366 9.58755 11.4829 9.78858 11.3184 10.0223C11.1269 10.2944 10.929 10.5985 10.7329 10.9207C10.6335 11.0841 10.5476 11.2301 10.4961 11.3219C10.1356 11.9641 9.3229 12.1925 8.68075 11.832C7.79847 11.3368 9.08659 8.4694 9.74436 7.69644C10.0265 7.36493 10.2911 7.1088 10.5579 6.91805C10.9732 6.62109 11.5254 6.40621 12.2651 6.22805C12.6249 6.14137 13.0152 6.06761 13.4259 6.00689C13.2263 6.0364 13.1964 6.0655 13.1718 6.10134C13.2209 6.02978 13.2856 5.91561 13.3642 5.76225C13.3958 5.70065 13.4152 5.66166 13.4671 5.55592C13.5054 5.47741 13.632 5.21368 13.6459 5.18504C13.7169 5.03839 13.7673 4.93854 13.814 4.85461C14.0057 4.51031 14.1894 4.20473 14.3658 3.93828C14.6058 3.57586 14.8307 3.28754 15.0548 3.06231C15.3225 2.79318 16.2265 2.4364 17.2989 2.11115Z" fill="white"/>
<path d="M15.5275 3.53254C15.3337 3.72737 15.1336 3.98651 14.9218 4.30639C14.7522 4.56241 14.5767 4.85538 14.3967 5.17887C14.1753 5.57659 13.7478 6.63328 13.5235 6.66644C13.1495 6.72174 12.7748 6.79106 12.4213 6.87623C11.7912 7.02799 11.2937 7.21161 10.9457 7.46041C10.7226 7.61996 10.4941 7.84426 10.2522 8.12854C10.068 8.34494 8.68609 11.0705 9.00716 11.2507C9.32824 11.4309 9.73461 11.3168 9.91482 10.9957C9.9608 10.9138 10.0469 10.7657 10.1636 10.574C10.3583 10.2543 10.565 9.93475 10.7733 9.63866C10.9463 9.39297 11.1125 9.17493 11.2676 8.99265C11.4449 8.78427 11.6013 8.63076 11.7212 8.54502C11.8944 8.42116 12.2577 8.28709 12.7335 8.17249C13.044 8.09769 15.3541 6.20027 15.5617 5.8273C15.7263 5.53168 15.8847 5.26719 16.0335 5.04252C16.2008 4.78977 16.3511 4.59524 16.4728 4.47289C16.6549 4.28977 17.0155 4.06887 17.4889 3.84664C17.7892 3.70567 18.1143 3.573 18.4399 3.45348C18.6351 3.38183 18.7854 3.33104 18.8676 3.30509C19.2187 3.19419 19.4134 2.81967 19.3025 2.46858C19.1916 2.11749 15.8451 3.21326 15.5275 3.53254Z" fill="#29568D"/>
</g>
<defs>
<linearGradient id="paint0_linear_1310_7653" x1="14" y1="0" x2="14" y2="20" gradientUnits="userSpaceOnUse">
<stop stop-color="white"/>
<stop offset="1" stop-color="#F0F0F0"/>
</linearGradient>
<linearGradient id="paint1_linear_1310_7653" x1="14" y1="4.00272" x2="14" y2="10.6694" gradientUnits="userSpaceOnUse">
<stop stop-color="#25A057"/>
<stop offset="1" stop-color="#1C8245"/>
</linearGradient>
<linearGradient id="paint2_linear_1310_7653" x1="13.2699" y1="4.00272" x2="13.2699" y2="10.4793" gradientUnits="userSpaceOnUse">
<stop stop-color="#31B8F4"/>
<stop offset="1" stop-color="#1EA2DC"/>
</linearGradient>
<linearGradient id="paint3_linear_1310_7653" x1="10.6667" y1="4.66937" x2="10.6667" y2="8.66937" gradientUnits="userSpaceOnUse">
<stop stop-color="#FFE149"/>
<stop offset="1" stop-color="#FFDD32"/>
</linearGradient>
<linearGradient id="paint4_linear_1310_7653" x1="14" y1="14.6694" x2="14" y2="16.0027" gradientUnits="userSpaceOnUse">
<stop stop-color="#FFE149"/>
<stop offset="1" stop-color="#FFDD32"/>
</linearGradient>
<clipPath id="clip0_1310_7653">
<rect width="28" height="20" rx="2" fill="white"/>
</clipPath>
</defs>
</svg>
