<svg width="28" height="20" viewBox="0 0 28 20" fill="none" xmlns="http://www.w3.org/2000/svg">
<g clip-path="url(#clip0_503_4180)">
<rect width="28" height="20" rx="2" fill="white"/>
<mask id="mask0_503_4180" style="mask-type:alpha" maskUnits="userSpaceOnUse" x="0" y="0" width="28" height="20">
<rect width="28" height="20" rx="2" fill="white"/>
</mask>
<g mask="url(#mask0_503_4180)">
<rect width="28" height="20" fill="#E81B26"/>
<path fill-rule="evenodd" clip-rule="evenodd" d="M13.9998 13.3334C15.8408 13.3334 17.3332 11.841 17.3332 10C17.3332 8.15907 15.8408 6.66669 13.9998 6.66669C12.1589 6.66669 10.6665 8.15907 10.6665 10C10.6665 11.841 12.1589 13.3334 13.9998 13.3334Z" fill="#FFE94F"/>
<path fill-rule="evenodd" clip-rule="evenodd" d="M10.2082 7.27932C10.4095 6.99925 10.641 6.74239 10.8981 6.51353L1.96168 -3.53064L-0.714844 -0.558062L10.2082 7.27932ZM10.8981 13.4864C10.6411 13.2576 10.4095 13.0007 10.2082 12.7207L-0.714844 20.5581L1.96168 23.5306L10.8981 13.4864ZM13.0846 14.5769L12 20H16L14.9154 14.5769C14.6195 14.6358 14.3134 14.6666 14.0002 14.6666C13.6868 14.6666 13.3807 14.6358 13.0846 14.5769ZM17.792 12.7208C17.5907 13.0009 17.3591 13.2577 17.1021 13.4866L26.0384 23.5306L28.7149 20.5581L17.792 12.7208ZM9.37981 10.66C9.34929 10.4444 9.3335 10.224 9.3335 9.99998C9.3335 9.77594 9.34928 9.55558 9.37981 9.33997L2.43187e-05 8V12L9.37981 10.66ZM13.0846 5.42308L12 9.53674e-07H16L14.9154 5.42303C14.6195 5.36418 14.3134 5.33331 14.0002 5.33331C13.6868 5.33331 13.3807 5.3642 13.0846 5.42308ZM18.6205 9.33993C18.651 9.55556 18.6668 9.77592 18.6668 9.99998C18.6668 10.224 18.651 10.4444 18.6205 10.6601L28 12V8L18.6205 9.33993ZM17.792 7.27919C17.5907 6.99911 17.3591 6.74226 17.1021 6.5134L26.0384 -3.53064L28.7149 -0.558062L17.792 7.27919Z" fill="#FFE94F"/>
</g>
</g>
<defs>
<clipPath id="clip0_503_4180">
<rect width="28" height="20" rx="2" fill="white"/>
</clipPath>
</defs>
</svg>
