<svg width="28" height="20" fill="none" xmlns="http://www.w3.org/2000/svg"><rect width="28" height="20" rx="2" fill="#fff"/><mask id="a" style="mask-type:alpha" maskUnits="userSpaceOnUse" x="0" y="0" width="28" height="20"><rect width="28" height="20" rx="2" fill="#fff"/></mask><g mask="url(#a)" fill-rule="evenodd" clip-rule="evenodd"><path d="M0 20h28V0H0v20Z" fill="#079D7B"/><path d="M15.885 8.667c0 .292-.021.575-.061.844.102-.031.206-.061.312-.09 1.778-.476 3.366-.319 3.545.352.162.606-.88 1.423-2.395 1.927-.268-.794-1.637-1.033-3.286-1.033-1.651 0-3.021.24-3.287 1.036-1.494-.505-2.518-1.314-2.357-1.915.18-.67 1.766-.828 3.544-.351.094.025.186.051.277.079a5.782 5.782 0 0 1-.062-.85c0-1.84.844-3.333 1.885-3.333 1.04 0 1.885 1.493 1.885 3.334ZM10.666 12h1.167a8.81 8.81 0 0 1-.564-.13c.214.006.479.024.782.045.548.038 1.221.085 1.949.085.727 0 1.4-.047 1.949-.085.291-.02.547-.037.757-.044a8.667 8.667 0 0 1-.582.129h3.21a6.134 6.134 0 0 1-.631 1.333H9.297A6.13 6.13 0 0 1 8.667 12h2ZM14 16c1.346 0 2.583-.5 3.554-1.333h-7.11A5.436 5.436 0 0 0 14 16Z" fill="#fff"/><path d="M14 4a.667.667 0 1 0 0-1.333A.667.667 0 0 0 14 4ZM8.667 7.333a.667.667 0 1 0 0-1.333.667.667 0 0 0 0 1.333ZM20 6.667a.667.667 0 1 1-1.333 0 .667.667 0 0 1 1.333 0Zm-2.667-1.334a.667.667 0 1 0 0-1.333.667.667 0 0 0 0 1.333Zm-6-.666a.667.667 0 1 1-1.333 0 .667.667 0 0 1 1.333 0Z" fill="#FCD117"/></g></svg>