<svg width="28" height="20" fill="none" xmlns="http://www.w3.org/2000/svg"><rect x=".25" y=".25" width="27.5" height="19.5" rx="1.75" fill="#fff" stroke="#F5F5F5" stroke-width=".5"/><mask id="a" style="mask-type:alpha" maskUnits="userSpaceOnUse" x="0" y="0" width="28" height="20"><rect x=".25" y=".25" width="27.5" height="19.5" rx="1.75" fill="#fff" stroke="#fff" stroke-width=".5"/></mask><g mask="url(#a)" fill-rule="evenodd" clip-rule="evenodd"><path d="M28 2.667H13.333v2.666H28V2.667ZM13.333 8v2.667H28V8H13.333Zm0 5.333H0V16h28v-2.667H13.333ZM0 20v-1.333h28V20H0Z" fill="#0E4DC5"/><path d="m6.667 9.321-.89 1.329-.226-1.583-1.378.81.484-1.524-1.594.133L4.16 7.322 2.667 6.75l1.493-.572-1.097-1.163 1.594.132-.484-1.524 1.378.81.226-1.582.89 1.328.89-1.328.225 1.583 1.379-.811-.484 1.524 1.594-.132-1.098 1.163 1.494.572-1.494.572 1.098 1.164-1.594-.133.484 1.525-1.379-.811-.225 1.583-.89-1.329Zm0-.025a2.545 2.545 0 1 0 0-5.091 2.545 2.545 0 0 0 0 5.09Zm2-2.63a2 2 0 1 1-4 0 2 2 0 0 1 4 0Z" fill="#FED443"/></g></svg>