<svg width="28" height="20" fill="none" xmlns="http://www.w3.org/2000/svg"><rect x=".25" y=".25" width="27.5" height="19.5" rx="1.75" fill="#fff" stroke="#F5F5F5" stroke-width=".5"/><mask id="a" style="mask-type:alpha" maskUnits="userSpaceOnUse" x="0" y="0" width="28" height="20"><rect x=".25" y=".25" width="27.5" height="19.5" rx="1.75" fill="#fff" stroke="#fff" stroke-width=".5"/></mask><g mask="url(#a)" fill-rule="evenodd" clip-rule="evenodd"><path d="M0 20h28v-6.667H0V20Z" fill="#138E16"/><path d="M0 20h9.333v-6.667H28V6.667H9.333V0H0v20Z" fill="#ED2B35"/><path d="M4.667 4.712 3.51 6.402l.6-1.958-2.043.15 1.906-.752-1.391-1.505L4.358 3.36l.309-2.026.308 2.026 1.777-1.022L5.36 3.842l1.905.751-2.043-.15.6 1.96-1.156-1.691Z" fill="#fff"/></g></svg>