<svg width="28" height="20" viewBox="0 0 28 20" fill="none" xmlns="http://www.w3.org/2000/svg">
<g clip-path="url(#clip0_1310_7938)">
<path d="M28 0H0V20H28V0Z" fill="url(#paint0_linear_1310_7938)"/>
<path d="M28.0002 9.33333H0.000167847V20H28.0002V9.33333Z" fill="url(#paint1_linear_1310_7938)"/>
<path d="M28 0H0V9.33333H28V0Z" fill="url(#paint2_linear_1310_7938)"/>
<path fill-rule="evenodd" clip-rule="evenodd" d="M0 0L13.3333 10L0 20V0Z" fill="url(#paint3_linear_1310_7938)"/>
<path d="M2.00017 9.33333V7.34153C2.00017 6.60215 2.58455 6 3.32735 6H6.00632C6.74123 6 7.3335 6.60968 7.3335 7.34153V9.33333C7.3335 10.4594 6.82111 11.2622 5.99551 11.73C5.51845 12.0003 5.05231 12.1091 4.62249 12.1319C4.28136 12.1091 3.81522 12.0003 3.33816 11.73C2.51256 11.2622 2.00017 10.4594 2.00017 9.33333Z" fill="url(#paint4_linear_1310_7938)"/>
<path fill-rule="evenodd" clip-rule="evenodd" d="M2.66682 9.33334V7.34154C2.66682 6.96882 2.95449 6.66667 3.32734 6.66667H6.00631C6.3711 6.66667 6.66682 6.97616 6.66682 7.34154V9.33334C6.66682 11.3333 4.66682 11.4667 4.66682 11.4667C4.66682 11.4667 2.66682 11.3333 2.66682 9.33334Z" fill="url(#paint5_linear_1310_7938)"/>
<path fill-rule="evenodd" clip-rule="evenodd" d="M4.00017 8.66667L4.66683 8L5.3335 8.66667V10H4.00017V8.66667Z" fill="white"/>
<path d="M1.33519 12.4907C2.14272 13.4213 3.41505 14 4.66682 14C5.93085 14 7.22056 13.4026 8.02819 12.4511C8.26647 12.1704 8.23208 11.7497 7.95138 11.5115C7.67068 11.2732 7.24998 11.3076 7.01171 11.5883C6.45731 12.2414 5.53923 12.6666 4.66682 12.6666C3.80087 12.6666 2.89615 12.2552 2.34225 11.6168C2.10095 11.3387 1.67989 11.3089 1.4018 11.5502C1.12371 11.7915 1.09388 12.2126 1.33519 12.4907Z" fill="#F9D835"/>
<path d="M4.66683 7.33334C5.40321 7.33334 6.00016 6.73638 6.00016 6.00001C6.00016 5.26363 5.40321 4.66667 4.66683 4.66667C3.93045 4.66667 3.3335 5.26363 3.3335 6.00001C3.3335 6.73638 3.93045 7.33334 4.66683 7.33334Z" fill="url(#paint6_linear_1310_7938)"/>
</g>
<defs>
<linearGradient id="paint0_linear_1310_7938" x1="14" y1="0" x2="14" y2="20" gradientUnits="userSpaceOnUse">
<stop stop-color="white"/>
<stop offset="1" stop-color="#F0F0F0"/>
</linearGradient>
<linearGradient id="paint1_linear_1310_7938" x1="14.0002" y1="9.33333" x2="14.0002" y2="20" gradientUnits="userSpaceOnUse">
<stop stop-color="#0740AA"/>
<stop offset="1" stop-color="#012F85"/>
</linearGradient>
<linearGradient id="paint2_linear_1310_7938" x1="14" y1="0" x2="14" y2="9.33333" gradientUnits="userSpaceOnUse">
<stop stop-color="#F02C33"/>
<stop offset="1" stop-color="#D82027"/>
</linearGradient>
<linearGradient id="paint3_linear_1310_7938" x1="6.66667" y1="0" x2="6.66667" y2="20" gradientUnits="userSpaceOnUse">
<stop stop-color="white"/>
<stop offset="1" stop-color="#F0F0F0"/>
</linearGradient>
<linearGradient id="paint4_linear_1310_7938" x1="4.66683" y1="6" x2="4.66683" y2="12.1319" gradientUnits="userSpaceOnUse">
<stop stop-color="#E72C33"/>
<stop offset="1" stop-color="#D82027"/>
</linearGradient>
<linearGradient id="paint5_linear_1310_7938" x1="4.66682" y1="6.66667" x2="4.66682" y2="11.4667" gradientUnits="userSpaceOnUse">
<stop stop-color="#78C1F0"/>
<stop offset="1" stop-color="#67B1E0"/>
</linearGradient>
<linearGradient id="paint6_linear_1310_7938" x1="4.66683" y1="4.66667" x2="4.66683" y2="7.33334" gradientUnits="userSpaceOnUse">
<stop stop-color="#F7E14B"/>
<stop offset="1" stop-color="#F7DF3E"/>
</linearGradient>
<clipPath id="clip0_1310_7938">
<rect width="28" height="20" rx="2" fill="white"/>
</clipPath>
</defs>
</svg>
