<svg width="28" height="20" viewBox="0 0 28 20" fill="none" xmlns="http://www.w3.org/2000/svg">
<g clip-path="url(#clip0_503_2754)">
<rect width="28" height="20" rx="2" fill="white"/>
<mask id="mask0_503_2754" style="mask-type:alpha" maskUnits="userSpaceOnUse" x="0" y="0" width="28" height="20">
<rect width="28" height="20" rx="2" fill="white"/>
</mask>
<g mask="url(#mask0_503_2754)">
<path fill-rule="evenodd" clip-rule="evenodd" d="M0 2.66667H28V0H0V2.66667Z" fill="#369D0C"/>
<path fill-rule="evenodd" clip-rule="evenodd" d="M0 20H28V17.3333H0V20Z" fill="#369D0C"/>
<path fill-rule="evenodd" clip-rule="evenodd" d="M0 7.99999H28V5.33333H0V7.99999Z" fill="#369D0C"/>
<path fill-rule="evenodd" clip-rule="evenodd" d="M0 14.6667H28V12H0V14.6667Z" fill="#369D0C"/>
<path fill-rule="evenodd" clip-rule="evenodd" d="M0 12H28V8H0V12Z" fill="#262626"/>
<path fill-rule="evenodd" clip-rule="evenodd" d="M0 5.33334H28V2.66667H0V5.33334Z" fill="#FFD40E"/>
<path fill-rule="evenodd" clip-rule="evenodd" d="M0 17.3333H28V14.6667H0V17.3333Z" fill="#FFD40E"/>
<path d="M-0.666665 19.3333V0.666667H-0.222221L12.2222 10L-0.222221 19.3333H-0.666665Z" fill="white" stroke="#262626" stroke-width="1.33333"/>
<path fill-rule="evenodd" clip-rule="evenodd" d="M4 11.3L2.04071 12.6967L2.76362 10.4017L0.829809 8.96995L3.23588 8.94828L4 6.66667L4.76412 8.94828L7.17019 8.96995L5.23637 10.4017L5.95928 12.6967L4 11.3Z" fill="url(#paint0_linear_503_2754)"/>
</g>
</g>
<defs>
<linearGradient id="paint0_linear_503_2754" x1="0.666664" y1="6.66667" x2="0.666664" y2="13.3333" gradientUnits="userSpaceOnUse">
<stop stop-color="#F12F1F"/>
<stop offset="1" stop-color="#DE2010"/>
</linearGradient>
<clipPath id="clip0_503_2754">
<rect width="28" height="20" rx="2" fill="white"/>
</clipPath>
</defs>
</svg>
