<svg width="28" height="20" viewBox="0 0 28 20" fill="none" xmlns="http://www.w3.org/2000/svg">
<rect width="28" height="20" rx="2" fill="white"/>
<mask id="mask0_503_4369" style="mask-type:alpha" maskUnits="userSpaceOnUse" x="0" y="0" width="28" height="20">
<rect width="28" height="20" rx="2" fill="white"/>
</mask>
<g mask="url(#mask0_503_4369)">
<rect width="28" height="20" fill="#0A17A7"/>
<path d="M0 -0.333333H-0.901086L-0.21693 0.253086L4.33333 4.15331V5.16179L-0.193746 8.39542L-0.333333 8.49513V8.66667V9.33333V9.93475L0.176666 9.616L5.42893 6.33333H6.55984L11.0821 9.56351C11.176 9.6306 11.2886 9.66667 11.404 9.66667C11.9182 9.66667 12.1548 9.02698 11.7644 8.69237L7.66667 5.18002V4.17154L12.0542 1.03762C12.2294 0.912475 12.3333 0.710428 12.3333 0.495127V0V-0.601416L11.8233 -0.282666L6.57107 3H5.44016L0.860413 -0.271244L0.773488 -0.333333H0.666667H0Z" fill="#FF2E3B" stroke="white" stroke-width="0.666667"/>
<path fill-rule="evenodd" clip-rule="evenodd" d="M0 3.33333V6H4.66667V9.33333C4.66667 9.70152 4.96514 10 5.33333 10H6.66667C7.03486 10 7.33333 9.70152 7.33333 9.33333V6H12C12.3682 6 12.6667 5.70152 12.6667 5.33333V4C12.6667 3.63181 12.3682 3.33333 12 3.33333H7.33333V0H4.66667V3.33333H0Z" fill="url(#paint0_linear_503_4369)"/>
<path fill-rule="evenodd" clip-rule="evenodd" d="M0 4H5.33333V3.33333V0H6.66667V3.33333V4H12V5.33333H6.66667V6V9.33333H5.33333V6V5.33333H0V4Z" fill="url(#paint1_linear_503_4369)"/>
<path fill-rule="evenodd" clip-rule="evenodd" d="M6 16.3333L4.82443 16.9514L5.04894 15.6424L4.09789 14.7153L5.41221 14.5243L6 13.3333L6.58779 14.5243L7.90211 14.7153L6.95106 15.6424L7.17557 16.9514L6 16.3333Z" fill="white"/>
<path fill-rule="evenodd" clip-rule="evenodd" d="M19.9998 17.3333L19.057 17.6095L19.3332 16.6666L19.057 15.7238L19.9998 16L20.9426 15.7238L20.6665 16.6666L20.9426 17.6095L19.9998 17.3333Z" fill="white"/>
<path fill-rule="evenodd" clip-rule="evenodd" d="M19.9998 4.66669L19.057 4.94283L19.3332 4.00002L19.057 3.05721L19.9998 3.33335L20.9426 3.05721L20.6665 4.00002L20.9426 4.94283L19.9998 4.66669Z" fill="white"/>
<path fill-rule="evenodd" clip-rule="evenodd" d="M23.9998 8.66669L23.057 8.94283L23.3332 8.00002L23.057 7.05721L23.9998 7.33335L24.9426 7.05721L24.6665 8.00002L24.9426 8.94283L23.9998 8.66669Z" fill="white"/>
<path fill-rule="evenodd" clip-rule="evenodd" d="M15.9998 10L15.057 10.2761L15.3332 9.33333L15.057 8.39052L15.9998 8.66667L16.9426 8.39052L16.6665 9.33333L16.9426 10.2761L15.9998 10Z" fill="white"/>
<path fill-rule="evenodd" clip-rule="evenodd" d="M22.0002 11.6667L21.5288 11.8048L21.6668 11.3334L21.5288 10.8619L22.0002 11L22.4716 10.8619L22.3335 11.3334L22.4716 11.8048L22.0002 11.6667Z" fill="white"/>
</g>
<defs>
<linearGradient id="paint0_linear_503_4369" x1="0" y1="0" x2="0" y2="10" gradientUnits="userSpaceOnUse">
<stop stop-color="white"/>
<stop offset="1" stop-color="#F0F0F0"/>
</linearGradient>
<linearGradient id="paint1_linear_503_4369" x1="0" y1="0" x2="0" y2="9.33333" gradientUnits="userSpaceOnUse">
<stop stop-color="#FF2E3B"/>
<stop offset="1" stop-color="#FC0D1B"/>
</linearGradient>
</defs>
</svg>
