<svg width="28" height="20" viewBox="0 0 28 20" fill="none" xmlns="http://www.w3.org/2000/svg">
<g clip-path="url(#clip0_1310_7502)">
<path d="M28 0H0V20H28V0Z" fill="url(#paint0_linear_1310_7502)"/>
<mask id="mask0_1310_7502" style="mask-type:alpha" maskUnits="userSpaceOnUse" x="9" y="6" width="10" height="12">
<path d="M9.33337 6.66666H18.6667V12.6549C18.6667 13.3978 18.2192 14.3835 17.6541 14.8679L15.5281 16.6902C14.6842 17.4136 13.3115 17.4098 12.472 16.6902L10.346 14.8679C9.78673 14.3886 9.33337 13.3999 9.33337 12.6549V6.66666Z" fill="white"/>
</mask>
<g mask="url(#mask0_1310_7502)">
<path d="M9.33337 6.66666H18.6667V12.6549C18.6667 13.3978 18.2192 14.3835 17.6541 14.8679L15.5281 16.6902C14.6842 17.4136 13.3115 17.4098 12.472 16.6902L10.346 14.8679C9.78673 14.3886 9.33337 13.3999 9.33337 12.6549V6.66666Z" fill="url(#paint1_linear_1310_7502)"/>
<path fill-rule="evenodd" clip-rule="evenodd" d="M11.3334 9.3333C10.9652 9.3333 10.6667 9.03483 10.6667 8.66664C10.6667 8.29845 10.9652 7.99997 11.3334 7.99997C11.7016 7.99997 12.0001 8.29845 12.0001 8.66664C12.0001 9.03483 11.7016 9.3333 11.3334 9.3333ZM14.0001 9.3333C13.6319 9.3333 13.3334 9.03483 13.3334 8.66664C13.3334 8.29845 13.6319 7.99997 14.0001 7.99997C14.3683 7.99997 14.6667 8.29845 14.6667 8.66664C14.6667 9.03483 14.3683 9.3333 14.0001 9.3333ZM16.6667 9.3333C16.2986 9.3333 16.0001 9.03483 16.0001 8.66664C16.0001 8.29845 16.2986 7.99997 16.6667 7.99997C17.0349 7.99997 17.3334 8.29845 17.3334 8.66664C17.3334 9.03483 17.0349 9.3333 16.6667 9.3333Z" fill="url(#paint2_linear_1310_7502)"/>
<path fill-rule="evenodd" clip-rule="evenodd" d="M12 15.3333C11.6319 15.3333 11.3334 15.0348 11.3334 14.6666C11.3334 14.2984 11.6319 14 12 14C12.3682 14 12.6667 14.2984 12.6667 14.6666C12.6667 15.0348 12.3682 15.3333 12 15.3333ZM14 16C13.6319 16 13.3334 15.7015 13.3334 15.3333C13.3334 14.9651 13.6319 14.6666 14 14.6666C14.3682 14.6666 14.6667 14.9651 14.6667 15.3333C14.6667 15.7015 14.3682 16 14 16ZM16 15.3333C15.6319 15.3333 15.3334 15.0348 15.3334 14.6666C15.3334 14.2984 15.6319 14 16 14C16.3682 14 16.6667 14.2984 16.6667 14.6666C16.6667 15.0348 16.3682 15.3333 16 15.3333Z" fill="url(#paint3_linear_1310_7502)"/>
<path d="M18.6667 10.6666H9.33337V13.3333H18.6667V10.6666Z" fill="url(#paint4_linear_1310_7502)"/>
<path d="M14.0001 13.3333C14.7365 13.3333 15.3334 12.7363 15.3334 12C15.3334 11.2636 14.7365 10.6666 14.0001 10.6666C13.2637 10.6666 12.6667 11.2636 12.6667 12C12.6667 12.7363 13.2637 13.3333 14.0001 13.3333Z" fill="white"/>
</g>
<path fill-rule="evenodd" clip-rule="evenodd" d="M8.66663 4.66667C8.66663 4.66667 11.3333 4 14 4C16.6666 4 19.3333 4.66667 19.3333 4.66667L18.6666 7.33333C18.6666 7.33333 16.3333 6.66667 14 6.66667C11.6666 6.66667 9.33329 7.33333 9.33329 7.33333L8.66663 4.66667Z" fill="url(#paint5_linear_1310_7502)"/>
<path fill-rule="evenodd" clip-rule="evenodd" d="M14 5.99999C13.6318 5.99999 13.3333 5.70151 13.3333 5.33332C13.3333 4.96513 13.6318 4.66666 14 4.66666C14.3681 4.66666 14.6666 4.96513 14.6666 5.33332C14.6666 5.70151 14.3681 5.99999 14 5.99999ZM16.6666 5.99999C16.2984 5.99999 16 5.70151 16 5.33332C16 4.96513 16.2984 4.66666 16.6666 4.66666C17.0348 4.66666 17.3333 4.96513 17.3333 5.33332C17.3333 5.70151 17.0348 5.99999 16.6666 5.99999ZM11.3333 5.99999C10.9651 5.99999 10.6666 5.70151 10.6666 5.33332C10.6666 4.96513 10.9651 4.66666 11.3333 4.66666C11.7015 4.66666 12 4.96513 12 5.33332C12 5.70151 11.7015 5.99999 11.3333 5.99999Z" fill="#5E5216"/>
</g>
<defs>
<linearGradient id="paint0_linear_1310_7502" x1="14" y1="0" x2="14" y2="20" gradientUnits="userSpaceOnUse">
<stop stop-color="white"/>
<stop offset="1" stop-color="#F0F0F0"/>
</linearGradient>
<linearGradient id="paint1_linear_1310_7502" x1="14" y1="6.66666" x2="14" y2="17.2313" gradientUnits="userSpaceOnUse">
<stop stop-color="#216CD3"/>
<stop offset="1" stop-color="#1557B2"/>
</linearGradient>
<linearGradient id="paint2_linear_1310_7502" x1="14.0001" y1="7.99997" x2="14.0001" y2="9.3333" gradientUnits="userSpaceOnUse">
<stop stop-color="#F7E14B"/>
<stop offset="1" stop-color="#F7DF3E"/>
</linearGradient>
<linearGradient id="paint3_linear_1310_7502" x1="14" y1="14" x2="14" y2="16" gradientUnits="userSpaceOnUse">
<stop stop-color="#F7E14B"/>
<stop offset="1" stop-color="#F7DF3E"/>
</linearGradient>
<linearGradient id="paint4_linear_1310_7502" x1="14" y1="10.6666" x2="14" y2="13.3333" gradientUnits="userSpaceOnUse">
<stop stop-color="#E12539"/>
<stop offset="1" stop-color="#CA192C"/>
</linearGradient>
<linearGradient id="paint5_linear_1310_7502" x1="14" y1="4" x2="14" y2="7.33333" gradientUnits="userSpaceOnUse">
<stop stop-color="#F7E14B"/>
<stop offset="1" stop-color="#F7DF3E"/>
</linearGradient>
<clipPath id="clip0_1310_7502">
<rect width="28" height="20" rx="2" fill="white"/>
</clipPath>
</defs>
</svg>
