<svg width="28" height="20" viewBox="0 0 28 20" fill="none" xmlns="http://www.w3.org/2000/svg">
<g clip-path="url(#clip0_1310_7631)">
<path d="M28 0H0V20H28V0Z" fill="url(#paint0_linear_1310_7631)"/>
<path d="M28 0H0V20H28V0Z" fill="url(#paint1_linear_1310_7631)"/>
<path fill-rule="evenodd" clip-rule="evenodd" d="M0 0L28 20H0V0Z" fill="url(#paint2_linear_1310_7631)"/>
<path fill-rule="evenodd" clip-rule="evenodd" d="M13.9998 12.098L11.5507 13.8709L12.4801 10.9938L10.0371 9.21244L13.0606 9.20724L13.9998 6.33334L14.9391 9.20724L17.9625 9.21244L15.5196 10.9938L16.4489 13.8709L13.9998 12.098Z" fill="url(#paint3_linear_1310_7631)"/>
</g>
<defs>
<linearGradient id="paint0_linear_1310_7631" x1="14" y1="0" x2="14" y2="20" gradientUnits="userSpaceOnUse">
<stop stop-color="white"/>
<stop offset="1" stop-color="#F0F0F0"/>
</linearGradient>
<linearGradient id="paint1_linear_1310_7631" x1="14" y1="0" x2="14" y2="20" gradientUnits="userSpaceOnUse">
<stop stop-color="#2DA446"/>
<stop offset="1" stop-color="#218736"/>
</linearGradient>
<linearGradient id="paint2_linear_1310_7631" x1="14" y1="0" x2="14" y2="20" gradientUnits="userSpaceOnUse">
<stop stop-color="#FFE24A"/>
<stop offset="1" stop-color="#FCDC34"/>
</linearGradient>
<linearGradient id="paint3_linear_1310_7631" x1="13.9998" y1="6.33334" x2="13.9998" y2="13.8709" gradientUnits="userSpaceOnUse">
<stop stop-color="#E7242C"/>
<stop offset="1" stop-color="#D61C24"/>
</linearGradient>
<clipPath id="clip0_1310_7631">
<rect width="28" height="20" rx="2" fill="white"/>
</clipPath>
</defs>
</svg>
