<svg width="28" height="20" fill="none" xmlns="http://www.w3.org/2000/svg"><rect width="28" height="20" rx="2" fill="#fff"/><mask id="a" style="mask-type:alpha" maskUnits="userSpaceOnUse" x="0" y="0" width="28" height="20"><rect width="28" height="20" rx="2" fill="#fff"/></mask><g mask="url(#a)"><path fill="#19BFBF" d="M0 0h28v20H0z"/><path fill-rule="evenodd" clip-rule="evenodd" d="M5.482 8.369a.333.333 0 0 0 .15.447l2.07 1.035a.333.333 0 0 1 .149.447l-.369.737a.333.333 0 0 1-.447.15l-.965-.483a.334.334 0 0 0-.149-.035H4.333A.333.333 0 0 0 4 11v.76c0 .143.092.27.228.316l1.26.42a.333.333 0 0 1 .13.552l-.187.188a.333.333 0 0 0-.098.235v.475a.34.34 0 0 0 .017.105l.606 1.818a.333.333 0 0 0 .167.193l.995.497a.333.333 0 0 0 .385-.062l1.164-1.164.34-.34a.333.333 0 0 0-.087-.533l-.736-.368A.333.333 0 0 1 8 13.794v-.034c0-.217.204-.376.414-.323l2 .5c.149.037.253.17.253.323v.972c0 .066.02.13.056.185l1.178 1.768a.334.334 0 0 0 .277.148h.263a.333.333 0 0 0 .31-.21l.973-2.434a.333.333 0 0 1 .608-.025l.31.62a.334.334 0 0 0 .063.088l1.257 1.256a.332.332 0 0 0 .086.063l.803.401c.222.11.482-.05.482-.298v-.656a.333.333 0 0 0-.097-.236l-.334-.333a.333.333 0 0 1 0-.471l.334-.334a.333.333 0 0 1 .235-.097h1.117a.333.333 0 0 0 .149-.035l1.079-.54a.333.333 0 0 0 .184-.298v-.99a.333.333 0 0 0-.098-.235l-.333-.333a.333.333 0 0 1 0-.472l.77-.77a.333.333 0 0 1 .535.086l.377.755a.298.298 0 0 0 .533-.267l-.302-.603a.333.333 0 0 1 .15-.447l.736-.369a.333.333 0 0 0 .15-.447l-.456-.912a.333.333 0 0 0-.193-.167l-1.357-.452a.333.333 0 0 1-.13-.552l.854-.855a.333.333 0 0 1 .235-.097h1.656a.333.333 0 0 0 .299-.185l.356-.712a.333.333 0 0 0-.268-.48l-6.139-.559a.333.333 0 0 1-.205-.568l.066-.065a.333.333 0 0 0 .097-.236V3A.333.333 0 0 0 17 2.667h-2.862a.333.333 0 0 0-.236.097l-1.837 1.837a.333.333 0 0 1-.155.088l-2.577.644-2.547.637a.333.333 0 0 1-.23-.025l-.503-.252a.333.333 0 0 0-.465.404l.368 1.105a.333.333 0 0 1-.018.255l-.456.912Zm9.185 8.298a.667.667 0 1 1-1.334 0 .667.667 0 0 1 1.334 0Zm-4.667-6a.667.667 0 1 0 0-1.334.667.667 0 0 0 0 1.334Zm12.667 2v.666l-.765.765c-.21.21-.06.569.236.569h.323a.333.333 0 0 0 .298-.185l.574-1.149-.666-.666Zm0 0 .368-.185c.24-.12.155-.482-.114-.482a.255.255 0 0 0-.254.255v.412Z" fill="#fff"/></g></svg>