<svg width="28" height="20" viewBox="0 0 28 20" fill="none" xmlns="http://www.w3.org/2000/svg">
<g clip-path="url(#clip0_1310_8644)">
<path d="M28 0H0V20H28V0Z" fill="url(#paint0_linear_1310_8644)"/>
<path d="M28 0H0V5.33333H28V0Z" fill="url(#paint1_linear_1310_8644)"/>
<path d="M28.0001 14.6667H0.00012207V20H28.0001V14.6667Z" fill="url(#paint2_linear_1310_8644)"/>
<path d="M28.0001 5.33333H0.00012207V14.6667H28.0001V5.33333Z" fill="url(#paint3_linear_1310_8644)"/>
<mask id="mask0_1310_8644" style="mask-type:alpha" maskUnits="userSpaceOnUse" x="10" y="6" width="8" height="8">
<path d="M14.0002 13.3333C15.8412 13.3333 17.3335 11.841 17.3335 10C17.3335 8.15906 15.8412 6.66667 14.0002 6.66667C12.1593 6.66667 10.6669 8.15906 10.6669 10C10.6669 11.841 12.1593 13.3333 14.0002 13.3333Z" fill="white"/>
</mask>
<g mask="url(#mask0_1310_8644)">
<path d="M17.3335 6.66667H10.6669V10H17.3335V6.66667Z" fill="url(#paint4_linear_1310_8644)"/>
<path fill-rule="evenodd" clip-rule="evenodd" d="M12 8.66666H16L15.3333 9.99999H12.6667L12 8.66666Z" fill="white"/>
<path fill-rule="evenodd" clip-rule="evenodd" d="M13.3333 6.66666H14.6667V8.66041C14.6667 9.03205 14.3574 9.33332 14 9.33332C13.6318 9.33332 13.3333 9.04794 13.3333 8.66041V6.66666ZM12 7.99999C12 7.99999 13 9.99999 14 9.99999C15 9.99999 16 7.99999 16 7.99999V9.33332C16 10.0697 15.4098 10.6667 14.6681 10.6667H13.3319C12.5963 10.6667 12 10.0748 12 9.33332V7.99999Z" fill="url(#paint5_linear_1310_8644)"/>
<path d="M17.3334 10.6667H10.6667V13.3333H17.3334V10.6667Z" fill="url(#paint6_linear_1310_8644)"/>
<path fill-rule="evenodd" clip-rule="evenodd" d="M10.6667 11.3333H17.3334V12H10.6667V11.3333Z" fill="white"/>
</g>
</g>
<defs>
<linearGradient id="paint0_linear_1310_8644" x1="14" y1="0" x2="14" y2="20" gradientUnits="userSpaceOnUse">
<stop stop-color="white"/>
<stop offset="1" stop-color="#F0F0F0"/>
</linearGradient>
<linearGradient id="paint1_linear_1310_8644" x1="14" y1="0" x2="14" y2="5.33333" gradientUnits="userSpaceOnUse">
<stop stop-color="#E02639"/>
<stop offset="1" stop-color="#CA1A2C"/>
</linearGradient>
<linearGradient id="paint2_linear_1310_8644" x1="14.0001" y1="14.6667" x2="14.0001" y2="20" gradientUnits="userSpaceOnUse">
<stop stop-color="#DC2235"/>
<stop offset="1" stop-color="#CA1A2C"/>
</linearGradient>
<linearGradient id="paint3_linear_1310_8644" x1="14.0001" y1="5.33333" x2="14.0001" y2="14.6667" gradientUnits="userSpaceOnUse">
<stop stop-color="white"/>
<stop offset="1" stop-color="#F0F0F0"/>
</linearGradient>
<linearGradient id="paint4_linear_1310_8644" x1="14.0002" y1="6.66667" x2="14.0002" y2="10" gradientUnits="userSpaceOnUse">
<stop stop-color="#FFA135"/>
<stop offset="1" stop-color="#FD9C2D"/>
</linearGradient>
<linearGradient id="paint5_linear_1310_8644" x1="14" y1="6.66666" x2="14" y2="10.6667" gradientUnits="userSpaceOnUse">
<stop stop-color="#DF2034"/>
<stop offset="1" stop-color="#CA1A2C"/>
</linearGradient>
<linearGradient id="paint6_linear_1310_8644" x1="14.0001" y1="10.6667" x2="14.0001" y2="13.3333" gradientUnits="userSpaceOnUse">
<stop stop-color="#0B4BAD"/>
<stop offset="1" stop-color="#08429A"/>
</linearGradient>
<clipPath id="clip0_1310_8644">
<rect width="28" height="20" rx="2" fill="white"/>
</clipPath>
</defs>
</svg>
