<svg width="28" height="20" viewBox="0 0 28 20" fill="none" xmlns="http://www.w3.org/2000/svg">
<g clip-path="url(#clip0_1310_7774)">
<path d="M28.0001 0H9.15527e-05V20H28.0001V0Z" fill="url(#paint0_linear_1310_7774)"/>
<path d="M28.0001 0H9.15527e-05V10.6667H28.0001V0Z" fill="url(#paint1_linear_1310_7774)"/>
<path d="M14.0001 14.6667C15.841 14.6667 17.3334 13.1743 17.3334 11.3333C17.3334 9.49238 15.841 8 14.0001 8C12.1591 8 10.6667 9.49238 10.6667 11.3333C10.6667 13.1743 12.1591 14.6667 14.0001 14.6667Z" fill="url(#paint2_linear_1310_7774)"/>
<path fill-rule="evenodd" clip-rule="evenodd" d="M14.0001 16.0469L12.3683 18.4828L11.9549 15.5801L9.42782 17.0667L10.3148 14.2722L7.39298 14.5151L9.40465 12.3822L6.66675 11.3333L9.40465 10.2844L7.39298 8.15149L10.3148 8.39442L9.42782 5.59988L11.9549 7.08649L12.3683 4.18384L14.0001 6.6197L15.6319 4.18384L16.0452 7.08649L18.5723 5.59988L17.6853 8.39442L20.6072 8.15149L18.5955 10.2844L21.3334 11.3333L18.5955 12.3822L20.6072 14.5151L17.6853 14.2722L18.5723 17.0667L16.0452 15.5801L15.6319 18.4828L14.0001 16.0469ZM14.0001 16C16.5774 16 18.6667 13.9106 18.6667 11.3333C18.6667 8.75598 16.5774 6.66664 14.0001 6.66664C11.4228 6.66664 9.33341 8.75598 9.33341 11.3333C9.33341 13.9106 11.4228 16 14.0001 16Z" fill="url(#paint3_linear_1310_7774)"/>
<path fill-rule="evenodd" clip-rule="evenodd" d="M11.8134 3.20348L11.7511 2.89179L13.0602 2.67361C13.0602 2.67361 11.3021 2.25814 10.7225 2.05023C9.8896 1.75148 10.0056 1.52036 10.0056 1.52036C10.0056 1.52036 12.3855 1.98789 13.5589 1.98789C13.8088 1.98789 14.3069 2.61127 14.3069 2.61127C14.3069 2.61127 15.1719 1.73733 15.5848 1.70737C17.4607 1.57127 19.481 1.33334 19.481 1.33334C19.481 1.33334 18.8958 1.72566 18.5459 1.83205C17.5971 2.12047 15.5848 2.51776 15.5848 2.51776L15.3043 2.95413H17.2991L16.4576 3.20348L16.8939 3.60868C16.8939 3.60868 16.4362 3.37203 15.8342 3.484C15.4208 3.5609 14.9381 3.83732 14.4939 3.95154C13.403 4.23206 12.7485 3.20348 12.7485 3.20348H11.8134Z" fill="url(#paint4_linear_1310_7774)"/>
<path d="M28.0001 10.6667H9.15527e-05V20H28.0001V10.6667Z" fill="url(#paint5_linear_1310_7774)"/>
<path d="M31.0958 17.2445L31.7283 17.4554L31.3067 18.7203L30.6742 18.5094C30.5304 18.4615 30.5304 18.4615 30.0492 18.3011L27.2992 17.3844C27.0939 17.316 26.6744 17.3166 26.4708 17.3844L23.7208 18.3011C23.2412 18.461 22.5258 18.46 22.0492 18.3011L19.2992 17.3844C19.0939 17.316 18.6744 17.3166 18.4708 17.3844L15.7208 18.3011C15.2412 18.461 14.5258 18.46 14.0492 18.3011L11.2992 17.3844C11.0939 17.316 10.6744 17.3166 10.4708 17.3844L7.72084 18.3011C7.24118 18.461 6.52577 18.46 6.0492 18.3011L3.2992 17.3844C3.09388 17.316 2.67435 17.3166 2.47084 17.3844L-0.279159 18.3011L-0.911615 18.5119L-1.33325 17.247L-0.700796 17.0362L2.0492 16.1195C2.52577 15.9607 3.24118 15.9597 3.72084 16.1195L6.47084 17.0362C6.67435 17.104 7.09388 17.1046 7.2992 17.0362L10.0492 16.1195C10.5258 15.9607 11.2412 15.9597 11.7208 16.1195L14.4708 17.0362C14.6744 17.104 15.0939 17.1046 15.2992 17.0362L18.0492 16.1195C18.5258 15.9607 19.2412 15.9597 19.7208 16.1195L22.4708 17.0362C22.6744 17.104 23.0939 17.1046 23.2992 17.0362L26.0492 16.1195C26.5258 15.9607 27.2412 15.9597 27.7208 16.1195L30.4708 17.0362C30.952 17.1966 30.952 17.1966 31.0958 17.2445ZM31.0958 13.9112L31.7283 14.122L31.3067 15.3869L30.6742 15.1761C30.5304 15.1282 30.5304 15.1282 30.0492 14.9678L27.2992 14.0511C27.0939 13.9827 26.6744 13.9833 26.4708 14.0511L23.7208 14.9678C23.2412 15.1277 22.5258 15.1266 22.0492 14.9678L19.2992 14.0511C19.0939 13.9827 18.6744 13.9833 18.4708 14.0511L15.7208 14.9678C15.2412 15.1277 14.5258 15.1266 14.0492 14.9678L11.2992 14.0511C11.0939 13.9827 10.6744 13.9833 10.4708 14.0511L7.72084 14.9678C7.24118 15.1277 6.52577 15.1266 6.0492 14.9678L3.2992 14.0511C3.09388 13.9827 2.67435 13.9833 2.47084 14.0511L-0.279159 14.9678L-0.911615 15.1786L-1.33325 13.9137L-0.700796 13.7029L2.0492 12.7862C2.52577 12.6273 3.24118 12.6263 3.72084 12.7862L6.47084 13.7029C6.67435 13.7707 7.09388 13.7713 7.2992 13.7029L10.0492 12.7862C10.5258 12.6273 11.2412 12.6263 11.7208 12.7862L14.4708 13.7029C14.6744 13.7707 15.0939 13.7713 15.2992 13.7029L18.0492 12.7862C18.5258 12.6273 19.2412 12.6263 19.7208 12.7862L22.4708 13.7029C22.6744 13.7707 23.0939 13.7713 23.2992 13.7029L26.0492 12.7862C26.5258 12.6273 27.2412 12.6263 27.7208 12.7862L30.4708 13.7029C30.952 13.8633 30.952 13.8633 31.0958 13.9112ZM31.0958 10.5779L31.7283 10.7887L31.3067 12.0536L30.6742 11.8428C30.5304 11.7948 30.5304 11.7948 30.0492 11.6344L27.2992 10.7178C27.0939 10.6493 26.6744 10.6499 26.4708 10.7178L23.7208 11.6344C23.2412 11.7943 22.5258 11.7933 22.0492 11.6344L19.2992 10.7178C19.0939 10.6493 18.6744 10.6499 18.4708 10.7178L15.7208 11.6344C15.2412 11.7943 14.5258 11.7933 14.0492 11.6344L11.2992 10.7178C11.0939 10.6493 10.6744 10.6499 10.4708 10.7178L7.72084 11.6344C7.24118 11.7943 6.52577 11.7933 6.0492 11.6344L3.2992 10.7178C3.09388 10.6493 2.67435 10.6499 2.47084 10.7178L-0.279159 11.6344L-0.911615 11.8453L-1.33325 10.5804L-0.700796 10.3695L2.0492 9.45287C2.52577 9.29402 3.24118 9.29299 3.72084 9.45287L6.47084 10.3695C6.67435 10.4374 7.09388 10.438 7.2992 10.3695L10.0492 9.45287C10.5258 9.29402 11.2412 9.29299 11.7208 9.45287L14.4708 10.3695C14.6744 10.4374 15.0939 10.438 15.2992 10.3695L18.0492 9.45287C18.5258 9.29402 19.2412 9.29299 19.7208 9.45287L22.4708 10.3695C22.6744 10.4374 23.0939 10.438 23.2992 10.3695L26.0492 9.45287C26.5258 9.29402 27.2412 9.29299 27.7208 9.45287L30.4708 10.3695L31.0958 10.5779Z" fill="white"/>
</g>
<defs>
<linearGradient id="paint0_linear_1310_7774" x1="14.0001" y1="0" x2="14.0001" y2="20" gradientUnits="userSpaceOnUse">
<stop stop-color="white"/>
<stop offset="1" stop-color="#F0F0F0"/>
</linearGradient>
<linearGradient id="paint1_linear_1310_7774" x1="14.0001" y1="0" x2="14.0001" y2="10.6667" gradientUnits="userSpaceOnUse">
<stop stop-color="#E62B3F"/>
<stop offset="1" stop-color="#CA1A2C"/>
</linearGradient>
<linearGradient id="paint2_linear_1310_7774" x1="14.0001" y1="8" x2="14.0001" y2="14.6667" gradientUnits="userSpaceOnUse">
<stop stop-color="#FFDA57"/>
<stop offset="1" stop-color="#FCD036"/>
</linearGradient>
<linearGradient id="paint3_linear_1310_7774" x1="14.0001" y1="4.18384" x2="14.0001" y2="18.4828" gradientUnits="userSpaceOnUse">
<stop stop-color="#FFDA57"/>
<stop offset="1" stop-color="#FCD036"/>
</linearGradient>
<linearGradient id="paint4_linear_1310_7774" x1="14.7405" y1="1.33334" x2="14.7405" y2="4.00001" gradientUnits="userSpaceOnUse">
<stop stop-color="#FFDA57"/>
<stop offset="1" stop-color="#FCD036"/>
</linearGradient>
<linearGradient id="paint5_linear_1310_7774" x1="14.0001" y1="10.6667" x2="14.0001" y2="20" gradientUnits="userSpaceOnUse">
<stop stop-color="#0752A2"/>
<stop offset="1" stop-color="#034285"/>
</linearGradient>
<clipPath id="clip0_1310_7774">
<rect width="28" height="20" rx="2" fill="white"/>
</clipPath>
</defs>
</svg>
