<svg width="28" height="20" fill="none" xmlns="http://www.w3.org/2000/svg"><rect width="28" height="20" rx="2" fill="#fff"/><mask id="a" style="mask-type:alpha" maskUnits="userSpaceOnUse" x="0" y="0" width="28" height="20"><rect width="28" height="20" rx="2" fill="#fff"/></mask><g mask="url(#a)"><path fill="#0B36B2" d="M0 0h28v20H0z"/><g filter="url(#b)"><path fill-rule="evenodd" clip-rule="evenodd" d="M22.666 20V0h-14l14 20Z" fill="#FFD045"/></g><path fill-rule="evenodd" clip-rule="evenodd" d="m17.333 18.667-.942.276.276-.943-.277-.943.943.276.943-.276L18 18l.276.943-.943-.276Zm-2.666-4-.943.276L14 14l-.276-.943.943.276.943-.276-.276.943.276.943-.943-.276Zm-2.667-4-.943.276.276-.943-.276-.943.943.276.943-.276-.277.943.277.943-.943-.276Zm-2.667-4-.942.276L8.667 6l-.276-.943.942.276.943-.276L10 6l.276.943-.943-.276Zm-2.666-4-.943.276L6 2l-.276-.943.943.276.943-.276L7.333 2l.277.943-.943-.276Z" fill="#fff"/></g><defs><filter id="b" x="8.666" y="0" width="14" height="20" filterUnits="userSpaceOnUse" color-interpolation-filters="sRGB"><feFlood flood-opacity="0" result="BackgroundImageFix"/><feColorMatrix in="SourceAlpha" values="0 0 0 0 0 0 0 0 0 0 0 0 0 0 0 0 0 0 127 0" result="hardAlpha"/><feOffset/><feColorMatrix values="0 0 0 0 0 0 0 0 0 0 0 0 0 0 0 0 0 0 0.06 0"/><feBlend in2="BackgroundImageFix" result="effect1_dropShadow_503_4143"/><feBlend in="SourceGraphic" in2="effect1_dropShadow_503_4143" result="shape"/></filter></defs></svg>