<svg width="28" height="20" viewBox="0 0 28 20" fill="none" xmlns="http://www.w3.org/2000/svg">
<rect width="28" height="20" rx="2" fill="white"/>
<mask id="mask0_503_4867" style="mask-type:alpha" maskUnits="userSpaceOnUse" x="0" y="0" width="28" height="20">
<rect width="28" height="20" rx="2" fill="white"/>
</mask>
<g mask="url(#mask0_503_4867)">
<rect width="28" height="20" fill="url(#paint0_linear_503_4867)"/>
<path fill-rule="evenodd" clip-rule="evenodd" d="M17.3335 9.99998C17.3335 8.90624 17.3335 7.61312 17.3335 6.6658C17.3335 5.92942 17.9304 5.33331 18.6668 5.33331H22.6668C23.4032 5.33331 24.0002 5.92942 24.0002 6.6658C24.0002 7.61313 24.0002 8.90624 24.0002 9.99998C24.0002 13.3333 20.6668 14.6666 20.6668 14.6666C20.6668 14.6666 17.3335 13.3333 17.3335 9.99998Z" fill="#8FC5FF"/>
<mask id="mask1_503_4867" style="mask-type:alpha" maskUnits="userSpaceOnUse" x="17" y="5" width="8" height="10">
<path fill-rule="evenodd" clip-rule="evenodd" d="M17.3335 9.99998C17.3335 8.90624 17.3335 7.61312 17.3335 6.6658C17.3335 5.92942 17.9304 5.33331 18.6668 5.33331H22.6668C23.4032 5.33331 24.0002 5.92942 24.0002 6.6658C24.0002 7.61313 24.0002 8.90624 24.0002 9.99998C24.0002 13.3333 20.6668 14.6666 20.6668 14.6666C20.6668 14.6666 17.3335 13.3333 17.3335 9.99998Z" fill="white"/>
</mask>
<g mask="url(#mask1_503_4867)">
<path fill-rule="evenodd" clip-rule="evenodd" d="M20.0902 11.8835C20.0902 11.8835 20.7575 11.0194 21.15 11.0194C21.5425 11.0194 21.6146 11.5932 22.2182 11.5932C22.8217 11.5932 23.14 10.6788 23.7214 10.6788C24.3028 10.6788 23.7214 13.6788 23.7214 13.6788L22.9336 14.4914L18.3223 15.024L20.0902 11.8835Z" fill="#366CC9"/>
<path fill-rule="evenodd" clip-rule="evenodd" d="M18.1262 10.5512L18.7147 10L19.293 11.4157L20.0693 10L20.7369 14.0354L19.6266 13.8095L16 12.1514L18.1262 10.5512Z" fill="#CF6200"/>
<rect x="17.3335" y="5.33331" width="6.66667" height="4" fill="#FFFF00"/>
</g>
<path d="M17.6668 9.99998V9.94857V9.89687V9.84491V9.7927V9.74024V9.68756V9.63465V9.58155V9.52825V9.47477V9.42112V9.36732V9.31337V9.28635V9.27959V9.27283V9.2593V9.20511V9.15081V9.09642V9.04195V8.98742V8.93283V8.87819V8.82353V8.76885V8.7415V8.73467V8.72783V8.721V8.71416V8.70732V8.70049V8.69365V8.68682V8.67998V8.67315V8.66632V8.65948V8.65265V8.64581V8.63898V8.63215V8.62532V8.61848V8.61165V8.60482V8.59799V8.59116V8.58433V8.5775V8.57068V8.56385V8.55702V8.5502V8.54337V8.53655V8.52972V8.5229V8.51608V8.50925V8.50243V8.49561V8.48879V8.48198V8.47516V8.46834V8.46153V8.45471V8.4479V8.44109V8.43428V8.42747V8.42066V8.41385V8.40705V8.40024V8.39344V8.38663V8.37983V8.37303V8.36623V8.35944V8.35264V8.34585V8.33905V8.33226V8.32547V8.31868V8.3119V8.30511V8.29833V8.29154V8.28476V8.27798V8.27121V8.26443V8.25766V8.25089V8.24411V8.23735V8.23058V8.22381V8.21705V8.21029V8.20353V8.19677V8.19002V8.18326V8.17651V8.16976V8.16302V8.15627V8.14953V8.14279V8.13605V8.12931V8.12258V8.11584V8.10911V8.10239V8.09566V8.08894V8.08222V8.0755V8.06878V8.06207V8.05536V8.04865V8.04195V8.03524V8.02854V8.02184V8.01515V8.00845V8.00176V7.99508V7.98839V7.98171V7.97503V7.96835V7.96168V7.95501V7.94834V7.94167V7.93501V7.92835V7.92169V7.91504V7.90839V7.90174V7.8951V7.88846V7.87518V7.84867V7.79581V7.74316V7.69075V7.63859V7.58667V7.53503V7.48368V7.43261V7.38185V7.33141V7.28131V7.23155V7.18214V7.1331V7.08445V7.03619V6.9409V6.84734V6.75561V6.6658C17.6668 6.11379 18.1143 5.66665 18.6668 5.66665H22.6668C23.2194 5.66665 23.6668 6.11379 23.6668 6.6658V6.67135V6.67692V6.68249V6.68807V6.69365V6.69925V6.70485V6.71046V6.71607V6.7217V6.72733V6.73297V6.73862V6.74427V6.74994V6.75561V6.76129V6.76697V6.77266V6.77836V6.78407V6.78979V6.79551V6.80124V6.80698V6.81272V6.81847V6.82423V6.83V6.83577V6.84155V6.84734V6.85314V6.85894V6.86475V6.87057V6.87639V6.88222V6.88806V6.8939V6.89975V6.90561V6.91148V6.91735V6.92323V6.92911V6.935V6.9409V6.94681V6.95272V6.95864V6.96457V6.9705V6.97644V6.98239V6.98834V6.9943V7.00026V7.00623V7.01221V7.0182V7.02419V7.03019V7.03619V7.0422V7.04822V7.05424V7.06027V7.06631V7.07235V7.0784V7.08445V7.09051V7.09658V7.10265V7.10873V7.11481V7.12091V7.127V7.13311V7.13921V7.14533V7.15145V7.15758V7.16371V7.16985V7.17599V7.18214V7.1883V7.19446V7.20063V7.2068V7.21298V7.21916V7.22535V7.23155V7.23775V7.24395V7.25017V7.25638V7.26261V7.26884V7.27507V7.28131V7.28755V7.2938V7.30006V7.30632V7.31259V7.31886V7.32513V7.33142V7.3377V7.34399V7.35029V7.35659V7.3629V7.36921V7.37553V7.38185V7.38818V7.39451V7.40085V7.40719V7.41354V7.41989V7.42625V7.43261V7.43898V7.44535V7.45173V7.45811V7.46449V7.47088V7.47728V7.48368V7.49008V7.49649V7.5029V7.50932V7.51574V7.52217V7.5286V7.53503V7.54147V7.54792V7.55437V7.56082V7.56728V7.57374V7.58021V7.58668V7.59315V7.59963V7.60611V7.6126V7.61909V7.62558V7.63208V7.63859V7.64509V7.6516V7.65812V7.66464V7.67116V7.67769V7.68422V7.69075V7.69729V7.70383V7.71038V7.71693V7.72348V7.73004V7.7366V7.74317V7.74973V7.7563V7.76288V7.76946V7.77604V7.78263V7.78922V7.79581V7.80241V7.809V7.81561V7.82221V7.82882V7.83544V7.84205V7.84867V7.8553V7.86192V7.86855V7.87518V7.88182V7.88846V7.8951V7.90174V7.90839V7.91504V7.92169V7.92835V7.93501V7.94167V7.94834V7.95501V7.96168V7.96835V7.97503V7.98171V7.98839V7.99508V8.00176V8.00845V8.01515V8.02184V8.02854V8.03524V8.04195V8.04865V8.05536V8.06207V8.06878V8.0755V8.08222V8.08894V8.09566V8.10239V8.10912V8.11585V8.12258V8.12931V8.13605V8.14279V8.14953V8.15627V8.16302V8.16976V8.17651V8.18326V8.19002V8.19677V8.20353V8.21029V8.21705V8.22381V8.23058V8.23735V8.24412V8.25089V8.25766V8.26443V8.27121V8.27799V8.28476V8.29154V8.29833V8.30511V8.3119V8.31868V8.32547V8.33226V8.33905V8.34585V8.35264V8.35944V8.36624V8.37303V8.37983V8.38664V8.39344V8.40024V8.40705V8.41385V8.42066V8.42747V8.43428V8.44109V8.4479V8.45471V8.46153V8.46834V8.47516V8.48198V8.4888V8.49561V8.50243V8.50925V8.51608V8.5229V8.52972V8.53655V8.54337V8.5502V8.55702V8.56385V8.57068V8.5775V8.58433V8.59116V8.59799V8.60482V8.61165V8.61848V8.62532V8.63215V8.63898V8.64581V8.65265V8.65948V8.66632V8.67315V8.67998V8.68682V8.69365V8.70049V8.70733V8.71416V8.721V8.72783V8.73467V8.7415V8.74834V8.75518V8.76201V8.76885V8.77568V8.78252V8.78935V8.79619V8.80302V8.80986V8.81669V8.82353V8.83036V8.8372V8.84403V8.85086V8.8577V8.86453V8.87136V8.87819V8.88502V8.89185V8.89868V8.90551V8.91234V8.91917V8.926V8.93283V8.93965V8.94648V8.9533V8.96013V8.96695V8.97377V8.9806V8.98742V8.99424V9.00106V9.00788V9.01469V9.02151V9.02832V9.03514V9.04195V9.04877V9.05558V9.06239V9.0692V9.076V9.08281V9.08962V9.09642V9.10323V9.11003V9.11683V9.12363V9.13043V9.13722V9.14402V9.15081V9.1576V9.16439V9.17118V9.17797V9.18476V9.19154V9.19833V9.20511V9.21189V9.21867V9.22544V9.23222V9.23899V9.24576V9.25253V9.2593V9.26606V9.27283V9.27959V9.28635V9.29311V9.29987V9.30662V9.31337V9.32012V9.32687V9.33362V9.34036V9.3471V9.35384V9.36058V9.36732V9.37405V9.38078V9.38751V9.39424V9.40096V9.40768V9.4144V9.42112V9.42783V9.43455V9.44126V9.44796V9.45467V9.46137V9.46807V9.47477V9.48146V9.48815V9.49484V9.50153V9.50821V9.51489V9.52157V9.52825V9.53492V9.54159V9.54826V9.55492V9.56158V9.56824V9.57489V9.58155V9.5882V9.59484V9.60149V9.60813V9.61476V9.6214V9.62803V9.63465V9.64128V9.6479V9.65452V9.66113V9.66774V9.67435V9.68096V9.68756V9.69416V9.70075V9.70734V9.71393V9.72051V9.72709V9.73367V9.74024V9.74681V9.75338V9.75994V9.7665V9.77306V9.77961V9.78616V9.7927V9.79924V9.80578V9.81231V9.81884V9.82536V9.83188V9.8384V9.84491V9.85142V9.85793V9.86443V9.87093V9.87742V9.88391V9.89039V9.89687V9.90335V9.90982V9.91629V9.92275V9.92921V9.93567V9.94212V9.94857V9.95501V9.96145V9.96788V9.97431V9.98073V9.98715V9.99357V9.99998C23.6668 11.5427 22.899 12.6259 22.1105 13.3355C21.716 13.6906 21.3204 13.9479 21.0233 14.1162C20.8751 14.2002 20.7524 14.2615 20.6679 14.3013C20.6676 14.3015 20.6672 14.3017 20.6668 14.3018C20.6665 14.3017 20.6661 14.3015 20.6657 14.3013C20.5812 14.2615 20.4585 14.2002 20.3103 14.1162C20.0133 13.9479 19.6177 13.6906 19.2232 13.3355C18.4346 12.6259 17.6668 11.5427 17.6668 9.99998Z" stroke="white" stroke-width="0.666667"/>
<mask id="mask2_503_4867" style="mask-type:alpha" maskUnits="userSpaceOnUse" x="17" y="5" width="8" height="10">
<path d="M17.6668 9.99998V9.94857V9.89687V9.84491V9.7927V9.74024V9.68756V9.63465V9.58155V9.52825V9.47477V9.42112V9.36732V9.31337V9.28635V9.27959V9.27283V9.2593V9.20511V9.15081V9.09642V9.04195V8.98742V8.93283V8.87819V8.82353V8.76885V8.7415V8.73467V8.72783V8.721V8.71416V8.70732V8.70049V8.69365V8.68682V8.67998V8.67315V8.66632V8.65948V8.65265V8.64581V8.63898V8.63215V8.62532V8.61848V8.61165V8.60482V8.59799V8.59116V8.58433V8.5775V8.57068V8.56385V8.55702V8.5502V8.54337V8.53655V8.52972V8.5229V8.51608V8.50925V8.50243V8.49561V8.48879V8.48198V8.47516V8.46834V8.46153V8.45471V8.4479V8.44109V8.43428V8.42747V8.42066V8.41385V8.40705V8.40024V8.39344V8.38663V8.37983V8.37303V8.36623V8.35944V8.35264V8.34585V8.33905V8.33226V8.32547V8.31868V8.3119V8.30511V8.29833V8.29154V8.28476V8.27798V8.27121V8.26443V8.25766V8.25089V8.24411V8.23735V8.23058V8.22381V8.21705V8.21029V8.20353V8.19677V8.19002V8.18326V8.17651V8.16976V8.16302V8.15627V8.14953V8.14279V8.13605V8.12931V8.12258V8.11584V8.10911V8.10239V8.09566V8.08894V8.08222V8.0755V8.06878V8.06207V8.05536V8.04865V8.04195V8.03524V8.02854V8.02184V8.01515V8.00845V8.00176V7.99508V7.98839V7.98171V7.97503V7.96835V7.96168V7.95501V7.94834V7.94167V7.93501V7.92835V7.92169V7.91504V7.90839V7.90174V7.8951V7.88846V7.87518V7.84867V7.79581V7.74316V7.69075V7.63859V7.58667V7.53503V7.48368V7.43261V7.38185V7.33141V7.28131V7.23155V7.18214V7.1331V7.08445V7.03619V6.9409V6.84734V6.75561V6.6658C17.6668 6.11379 18.1143 5.66665 18.6668 5.66665H22.6668C23.2194 5.66665 23.6668 6.11379 23.6668 6.6658V6.67135V6.67692V6.68249V6.68807V6.69365V6.69925V6.70485V6.71046V6.71607V6.7217V6.72733V6.73297V6.73862V6.74427V6.74994V6.75561V6.76129V6.76697V6.77266V6.77836V6.78407V6.78979V6.79551V6.80124V6.80698V6.81272V6.81847V6.82423V6.83V6.83577V6.84155V6.84734V6.85314V6.85894V6.86475V6.87057V6.87639V6.88222V6.88806V6.8939V6.89975V6.90561V6.91148V6.91735V6.92323V6.92911V6.935V6.9409V6.94681V6.95272V6.95864V6.96457V6.9705V6.97644V6.98239V6.98834V6.9943V7.00026V7.00623V7.01221V7.0182V7.02419V7.03019V7.03619V7.0422V7.04822V7.05424V7.06027V7.06631V7.07235V7.0784V7.08445V7.09051V7.09658V7.10265V7.10873V7.11481V7.12091V7.127V7.13311V7.13921V7.14533V7.15145V7.15758V7.16371V7.16985V7.17599V7.18214V7.1883V7.19446V7.20063V7.2068V7.21298V7.21916V7.22535V7.23155V7.23775V7.24395V7.25017V7.25638V7.26261V7.26884V7.27507V7.28131V7.28755V7.2938V7.30006V7.30632V7.31259V7.31886V7.32513V7.33142V7.3377V7.34399V7.35029V7.35659V7.3629V7.36921V7.37553V7.38185V7.38818V7.39451V7.40085V7.40719V7.41354V7.41989V7.42625V7.43261V7.43898V7.44535V7.45173V7.45811V7.46449V7.47088V7.47728V7.48368V7.49008V7.49649V7.5029V7.50932V7.51574V7.52217V7.5286V7.53503V7.54147V7.54792V7.55437V7.56082V7.56728V7.57374V7.58021V7.58668V7.59315V7.59963V7.60611V7.6126V7.61909V7.62558V7.63208V7.63859V7.64509V7.6516V7.65812V7.66464V7.67116V7.67769V7.68422V7.69075V7.69729V7.70383V7.71038V7.71693V7.72348V7.73004V7.7366V7.74317V7.74973V7.7563V7.76288V7.76946V7.77604V7.78263V7.78922V7.79581V7.80241V7.809V7.81561V7.82221V7.82882V7.83544V7.84205V7.84867V7.8553V7.86192V7.86855V7.87518V7.88182V7.88846V7.8951V7.90174V7.90839V7.91504V7.92169V7.92835V7.93501V7.94167V7.94834V7.95501V7.96168V7.96835V7.97503V7.98171V7.98839V7.99508V8.00176V8.00845V8.01515V8.02184V8.02854V8.03524V8.04195V8.04865V8.05536V8.06207V8.06878V8.0755V8.08222V8.08894V8.09566V8.10239V8.10912V8.11585V8.12258V8.12931V8.13605V8.14279V8.14953V8.15627V8.16302V8.16976V8.17651V8.18326V8.19002V8.19677V8.20353V8.21029V8.21705V8.22381V8.23058V8.23735V8.24412V8.25089V8.25766V8.26443V8.27121V8.27799V8.28476V8.29154V8.29833V8.30511V8.3119V8.31868V8.32547V8.33226V8.33905V8.34585V8.35264V8.35944V8.36624V8.37303V8.37983V8.38664V8.39344V8.40024V8.40705V8.41385V8.42066V8.42747V8.43428V8.44109V8.4479V8.45471V8.46153V8.46834V8.47516V8.48198V8.4888V8.49561V8.50243V8.50925V8.51608V8.5229V8.52972V8.53655V8.54337V8.5502V8.55702V8.56385V8.57068V8.5775V8.58433V8.59116V8.59799V8.60482V8.61165V8.61848V8.62532V8.63215V8.63898V8.64581V8.65265V8.65948V8.66632V8.67315V8.67998V8.68682V8.69365V8.70049V8.70733V8.71416V8.721V8.72783V8.73467V8.7415V8.74834V8.75518V8.76201V8.76885V8.77568V8.78252V8.78935V8.79619V8.80302V8.80986V8.81669V8.82353V8.83036V8.8372V8.84403V8.85086V8.8577V8.86453V8.87136V8.87819V8.88502V8.89185V8.89868V8.90551V8.91234V8.91917V8.926V8.93283V8.93965V8.94648V8.9533V8.96013V8.96695V8.97377V8.9806V8.98742V8.99424V9.00106V9.00788V9.01469V9.02151V9.02832V9.03514V9.04195V9.04877V9.05558V9.06239V9.0692V9.076V9.08281V9.08962V9.09642V9.10323V9.11003V9.11683V9.12363V9.13043V9.13722V9.14402V9.15081V9.1576V9.16439V9.17118V9.17797V9.18476V9.19154V9.19833V9.20511V9.21189V9.21867V9.22544V9.23222V9.23899V9.24576V9.25253V9.2593V9.26606V9.27283V9.27959V9.28635V9.29311V9.29987V9.30662V9.31337V9.32012V9.32687V9.33362V9.34036V9.3471V9.35384V9.36058V9.36732V9.37405V9.38078V9.38751V9.39424V9.40096V9.40768V9.4144V9.42112V9.42783V9.43455V9.44126V9.44796V9.45467V9.46137V9.46807V9.47477V9.48146V9.48815V9.49484V9.50153V9.50821V9.51489V9.52157V9.52825V9.53492V9.54159V9.54826V9.55492V9.56158V9.56824V9.57489V9.58155V9.5882V9.59484V9.60149V9.60813V9.61476V9.6214V9.62803V9.63465V9.64128V9.6479V9.65452V9.66113V9.66774V9.67435V9.68096V9.68756V9.69416V9.70075V9.70734V9.71393V9.72051V9.72709V9.73367V9.74024V9.74681V9.75338V9.75994V9.7665V9.77306V9.77961V9.78616V9.7927V9.79924V9.80578V9.81231V9.81884V9.82536V9.83188V9.8384V9.84491V9.85142V9.85793V9.86443V9.87093V9.87742V9.88391V9.89039V9.89687V9.90335V9.90982V9.91629V9.92275V9.92921V9.93567V9.94212V9.94857V9.95501V9.96145V9.96788V9.97431V9.98073V9.98715V9.99357V9.99998C23.6668 11.5427 22.899 12.6259 22.1105 13.3355C21.716 13.6906 21.3204 13.9479 21.0233 14.1162C20.8751 14.2002 20.7524 14.2615 20.6679 14.3013C20.6676 14.3015 20.6672 14.3017 20.6668 14.3018C20.6665 14.3017 20.6661 14.3015 20.6657 14.3013C20.5812 14.2615 20.4585 14.2002 20.3103 14.1162C20.0133 13.9479 19.6177 13.6906 19.2232 13.3355C18.4346 12.6259 17.6668 11.5427 17.6668 9.99998Z" fill="white" stroke="white" stroke-width="0.666667"/>
</mask>
<g mask="url(#mask2_503_4867)">
</g>
<path d="M0 -0.333333H-0.901086L-0.21693 0.253086L4.33333 4.15331V5.16179L-0.193746 8.39542L-0.333333 8.49513V8.66667V9.33333V9.93475L0.176666 9.616L5.42893 6.33333H6.55984L11.0821 9.56351C11.176 9.6306 11.2886 9.66667 11.404 9.66667C11.9182 9.66667 12.1548 9.02698 11.7644 8.69237L7.66667 5.18002V4.17154L12.0542 1.03762C12.2294 0.912475 12.3333 0.710428 12.3333 0.495127V0V-0.601416L11.8233 -0.282666L6.57107 3H5.44016L0.860413 -0.271244L0.773488 -0.333333H0.666667H0Z" fill="#DB1E36" stroke="white" stroke-width="0.666667"/>
<path fill-rule="evenodd" clip-rule="evenodd" d="M0 3.33333V6H4.66667V9.33333C4.66667 9.70152 4.96514 10 5.33333 10H6.66667C7.03486 10 7.33333 9.70152 7.33333 9.33333V6H12C12.3682 6 12.6667 5.70152 12.6667 5.33333V4C12.6667 3.63181 12.3682 3.33333 12 3.33333H7.33333V0H4.66667V3.33333H0Z" fill="white"/>
<path fill-rule="evenodd" clip-rule="evenodd" d="M0 4H5.33333V3.33333V0H6.66667V3.33333V4H12V5.33333H6.66667V6V9.33333H5.33333V6V5.33333H0V4Z" fill="#DB1E36"/>
</g>
<defs>
<linearGradient id="paint0_linear_503_4867" x1="0" y1="0" x2="0" y2="20" gradientUnits="userSpaceOnUse">
<stop stop-color="#07319C"/>
<stop offset="1" stop-color="#00247E"/>
</linearGradient>
</defs>
</svg>
