<svg width="28" height="20" fill="none" xmlns="http://www.w3.org/2000/svg"><rect x=".25" y=".25" width="27.5" height="19.5" rx="1.75" fill="#fff" stroke="#F5F5F5" stroke-width=".5"/><mask id="a" style="mask-type:alpha" maskUnits="userSpaceOnUse" x="0" y="0" width="28" height="20"><rect x=".25" y=".25" width="27.5" height="19.5" rx="1.75" fill="#fff" stroke="#fff" stroke-width=".5"/></mask><g mask="url(#a)" fill-rule="evenodd" clip-rule="evenodd"><path d="M0 20h14.667V0H0v20Z" fill="#048345"/><path d="m17.333 11.04-1.567 1.117.578-1.836-1.547-1.145 1.925-.017.611-1.826.612 1.826 1.924.017-1.547 1.145.579 1.836-1.568-1.117Z" fill="#E81B42"/><path d="M17.68 14.381A5.605 5.605 0 0 1 13.75 16C10.576 16 8 13.314 8 10s2.575-6 5.75-6c1.52 0 2.902.615 3.93 1.619a5.483 5.483 0 0 0-2.36-.528c-2.888 0-5.229 2.198-5.229 4.909s2.34 4.91 5.228 4.91c.85 0 1.652-.191 2.361-.529Z" fill="#E81B42"/></g></svg>