<svg width="28" height="20" viewBox="0 0 28 20" fill="none" xmlns="http://www.w3.org/2000/svg">
<g clip-path="url(#clip0_503_4913)">
<rect width="28" height="20" rx="2" fill="white"/>
<mask id="mask0_503_4913" style="mask-type:alpha" maskUnits="userSpaceOnUse" x="0" y="0" width="28" height="20">
<rect width="28" height="20" rx="2" fill="white"/>
</mask>
<g mask="url(#mask0_503_4913)">
<path fill-rule="evenodd" clip-rule="evenodd" d="M0 20H28V0H0V20Z" fill="#079D7B"/>
<path fill-rule="evenodd" clip-rule="evenodd" d="M15.8849 8.66668C15.8849 8.95854 15.8637 9.24163 15.8238 9.51142C15.9261 9.47998 16.0302 9.45 16.1361 9.42163C17.9143 8.94516 19.5015 9.10237 19.6811 9.77277C19.8435 10.3787 18.8006 11.1963 17.2858 11.6998C17.0182 10.9062 15.6488 10.6667 13.9998 10.6667C12.349 10.6667 10.9785 10.9067 10.713 11.7025C9.21866 11.198 8.19451 10.3889 8.3555 9.78809C8.53513 9.11768 10.1223 8.96047 11.9005 9.43694C11.9939 9.46196 12.0859 9.48823 12.1765 9.51564C12.1362 9.24459 12.1148 8.96006 12.1148 8.66668C12.1148 6.82573 12.9587 5.33334 13.9998 5.33334C15.0409 5.33334 15.8849 6.82573 15.8849 8.66668ZM10.6665 12L11.833 12C11.6482 11.9638 11.4597 11.9204 11.2689 11.8697C11.4835 11.8761 11.748 11.8944 12.0508 11.9154C12.5989 11.9534 13.2721 12 13.9998 12C14.7275 12 15.4007 11.9534 15.9488 11.9154C16.2402 11.8952 16.4962 11.8775 16.7063 11.8705C16.5088 11.9215 16.314 11.9646 16.1235 12L17.3332 12L19.3332 12C19.175 12.4747 18.9622 12.922 18.7027 13.3333H9.297C9.03748 12.922 8.82463 12.4747 8.66649 12L10.6665 12ZM13.9996 16C15.3463 16 16.5831 15.5005 17.5544 14.6667H10.4448C11.4161 15.5005 12.6529 16 13.9996 16Z" fill="white"/>
<path fill-rule="evenodd" clip-rule="evenodd" d="M14.0002 3.99999C14.3684 3.99999 14.6668 3.70151 14.6668 3.33332C14.6668 2.96513 14.3684 2.66666 14.0002 2.66666C13.632 2.66666 13.3335 2.96513 13.3335 3.33332C13.3335 3.70151 13.632 3.99999 14.0002 3.99999ZM8.66667 7.33332C9.03486 7.33332 9.33333 7.03485 9.33333 6.66666C9.33333 6.29847 9.03486 5.99999 8.66667 5.99999C8.29848 5.99999 8 6.29847 8 6.66666C8 7.03485 8.29848 7.33332 8.66667 7.33332ZM19.9998 6.66664C19.9998 7.03483 19.7014 7.3333 19.3332 7.3333C18.965 7.3333 18.6665 7.03483 18.6665 6.66664C18.6665 6.29845 18.965 5.99997 19.3332 5.99997C19.7014 5.99997 19.9998 6.29845 19.9998 6.66664ZM17.3332 5.3333C17.7014 5.3333 17.9998 5.03483 17.9998 4.66664C17.9998 4.29845 17.7014 3.99997 17.3332 3.99997C16.965 3.99997 16.6665 4.29845 16.6665 4.66664C16.6665 5.03483 16.965 5.3333 17.3332 5.3333ZM11.3333 4.66666C11.3333 5.03485 11.0349 5.33332 10.6667 5.33332C10.2985 5.33332 10 5.03485 10 4.66666C10 4.29847 10.2985 3.99999 10.6667 3.99999C11.0349 3.99999 11.3333 4.29847 11.3333 4.66666Z" fill="#FCD117"/>
</g>
</g>
<defs>
<clipPath id="clip0_503_4913">
<rect width="28" height="20" rx="2" fill="white"/>
</clipPath>
</defs>
</svg>
