<svg width="28" height="20" fill="none" xmlns="http://www.w3.org/2000/svg"><rect x=".25" y=".25" width="27.5" height="19.5" rx="1.75" fill="#fff" stroke="#F5F5F5" stroke-width=".5"/><mask id="a" style="mask-type:alpha" maskUnits="userSpaceOnUse" x="0" y="0" width="28" height="20"><rect x=".25" y=".25" width="27.5" height="19.5" rx="1.75" fill="#fff" stroke="#fff" stroke-width=".5"/></mask><g mask="url(#a)"><path fill-rule="evenodd" clip-rule="evenodd" d="M0 20h28V9.333H0V20Z" fill="#7CCCF5"/><path d="M12 9.333a.667.667 0 0 0-1.333 0H12Zm.329 2.885a.667.667 0 1 0 .67-1.153l-.67 1.153Zm2.747-1.198a.667.667 0 0 0 .718 1.123l-.718-1.123Zm2.257-1.687a.667.667 0 1 0-1.333 0h1.333Zm-6.666 0c0 1.233.67 2.31 1.662 2.885l.67-1.153A1.999 1.999 0 0 1 12 9.333h-1.333Zm5.127 2.81a3.331 3.331 0 0 0 1.54-2.81H16a2 2 0 0 1-.924 1.687l.718 1.123Z" fill="#445F42"/><path fill-rule="evenodd" clip-rule="evenodd" d="M14 10.667c.736 0 1.333-.896 1.333-2 0-1.105-.597-2-1.333-2s-1.333.895-1.333 2c0 1.104.597 2 1.333 2Z" fill="#D89F3D"/></g></svg>