<svg width="28" height="20" fill="none" xmlns="http://www.w3.org/2000/svg"><rect width="28" height="20" rx="2" fill="#fff"/><mask id="a" style="mask-type:alpha" maskUnits="userSpaceOnUse" x="0" y="0" width="28" height="20"><rect width="28" height="20" rx="2" fill="#fff"/></mask><g mask="url(#a)"><path fill="#E42235" d="M0 0h28v20H0z"/><path fill="#079B77" d="M2.667 2.667h22.667v14.667H2.667z"/><mask id="b" style="mask-type:alpha" maskUnits="userSpaceOnUse" x="2" y="2" width="24" height="16"><path fill="#fff" d="M2.667 2.667h22.667v14.667H2.667z"/></mask><g mask="url(#b)" fill-rule="evenodd" clip-rule="evenodd"><path d="M4.393 10.132c.378.604.92 1.003 1.425 1.105.277.056-.231-1.218-.01-1.357.19-.118 1.1.942 1.18.72.183-.508.075-1.228-.333-1.881-.586-.937-.609-.319-2.19-.99.165.96-.657 1.466-.072 2.403Z" fill="#FFD938"/><path d="m14 10 11.333-7.333H2.667L14 10Zm0 0L2.666 17.333h22.667L14 10Z" fill="#FFD93B"/><path d="M14 13.333a3.333 3.333 0 1 0 0-6.666 3.333 3.333 0 0 0 0 6.666Z" fill="url(#c)"/><path d="m14 11.028-1.568 1.13.59-1.84-1.559-1.142 1.932-.008L14 7.333l.604 1.835 1.932.008-1.558 1.142.59 1.84L14 11.027Z" fill="#FFD938"/></g></g><defs><linearGradient id="c" x1="10.666" y1="6.667" x2="10.666" y2="13.333" gradientUnits="userSpaceOnUse"><stop stop-color="#E21C30"/><stop offset="1" stop-color="#CE1225"/></linearGradient></defs></svg>