<svg width="28" height="20" fill="none" xmlns="http://www.w3.org/2000/svg"><rect x=".25" y=".25" width="27.5" height="19.5" rx="1.75" fill="#fff" stroke="#F5F5F5" stroke-width=".5"/><mask id="a" style="mask-type:alpha" maskUnits="userSpaceOnUse" x="0" y="0" width="28" height="20"><rect x=".25" y=".25" width="27.5" height="19.5" rx="1.75" fill="#fff" stroke="#fff" stroke-width=".5"/></mask><g mask="url(#a)"><path fill-rule="evenodd" clip-rule="evenodd" d="M0 5.333h28V0H0v5.333ZM0 20h28v-5.333H0V20Z" fill="#D82332"/><path fill-rule="evenodd" clip-rule="evenodd" d="m13.067 10.753-.284.265c.257.072.614-.012.756-.265h-.472m-2.294.18c.192.193.51.17.703.049a.656.656 0 0 1 .454-.117c.013.108.041.248.09.385h-1.142a3.854 3.854 0 0 1-.105-.317m.211.515a.557.557 0 0 1 .552.054c.183.141.486.103.634.023.057.092.126.183.209.253h-1.222a2.648 2.648 0 0 1-.173-.33m5.314.877a2.25 2.25 0 0 0 .173-.208c-.079-.01-.17-.067-.268-.116-.18-.09-.352-.09-.505.016-.227.157-.511.196-.732.039-.243-.173-.467-.135-.657-.026a.747.747 0 0 1-.423.115.746.746 0 0 1-.423-.115c-.189-.11-.414-.147-.656.026-.221.157-.505.118-.732-.039-.153-.106-.325-.106-.505-.016-.098.049-.19.106-.269.116.048.064.12.153.174.208h4.823m-.591.536c.05-.032.189-.138.258-.192-.075.016-.248-.04-.337-.087-.26-.135-.43-.122-.622-.02-.193.104-.464.158-.663.05-.199-.11-.34-.139-.445-.139-.104 0-.246.03-.445.138-.199.11-.47.055-.663-.048-.192-.103-.363-.116-.622.02-.089.046-.262.102-.337.086.069.054.208.16.258.192h3.617m-1.138-1.066a.57.57 0 0 1-.173-.182c-.092-.138-.237-.215-.455-.215-.218 0-.363.077-.454.215a.57.57 0 0 1-.174.182h1.256m-.358-.495a1.279 1.279 0 0 1-.085-.225.854.854 0 0 1-.205.023.853.853 0 0 1-.205-.023 1.279 1.279 0 0 1-.085.225h.58m.526-.547.284.265c-.257.072-.614-.012-.756-.265h.472m2.364.18c-.193.193-.512.17-.705.049a.657.657 0 0 0-.454-.117 1.842 1.842 0 0 1-.09.385h1.143c.028-.07.083-.235.105-.317m-.17.515a.557.557 0 0 0-.553.054c-.183.141-.485.103-.633.023a1.028 1.028 0 0 1-.209.253h1.222c.05-.08.157-.277.173-.33m-1.77 1.624a3.23 3.23 0 0 1-1.24.246 3.23 3.23 0 0 1-1.242-.247c.082-.01.19-.05.279-.099.142-.08.4-.096.524-.016.123.08.271.16.438.16.168 0 .316-.08.439-.16s.382-.064.524.016c.088.05.196.09.278.1" fill="#064A89"/><path fill-rule="evenodd" clip-rule="evenodd" d="M14.625 6.727c-.691-.144-1.313-.061-1.313.6v1.809c0 .198.004.224.237.279l1.101.26v-1.86c-.429-.049-.593-.294-.593-.578 0-.276.19-.456.568-.51m-1.771 5.102c-.385 0-.79-.34-.79-.988V9.23c0-.146.017-.167-.017-.2-.02-.02.022-.05.05-.08.043-.043.072-.079.015-.137-.058-.059-.033-.074.003-.111.036-.037.05-.074.016-.11-.035-.034-.043-.046-.005-.084.038-.039.022-.055-.01-.087-.031-.032-.046-.055-.006-.096.04-.04.043-.046.089-.046h.189c.044 0 .045.013.008.051-.048.049-.063.068-.008.123.054.056.052.074.017.11-.052.052-.075.089-.022.142.053.054.058.078.018.119-.04.04-.045.077 0 .122.034.034.036.054.036.115v1.644c0 .276.196.443.568.443.373 0 .499-.154.606-.257-.07.494-.271.937-.758.937m1.087-1.573c.053.016.103.093.103.176h.103c0-.07-.03-.18-.085-.247a.23.23 0 0 0-.007-.048c.038-.048.093-.125.092-.199-.001-.046-.056-.045-.062-.008-.005.03-.025.077-.063.093 0-.059-.033-.13-.08-.13-.048 0-.081.071-.081.13-.038-.016-.058-.062-.063-.093-.006-.037-.06-.038-.062.008-.001.074.054.151.092.2a.224.224 0 0 0-.007.047.442.442 0 0 0-.085.247h.103c0-.083.05-.16.103-.176" fill="#514537"/><path fill-rule="evenodd" clip-rule="evenodd" d="M13.411 10.255c.052.016.103.093.103.176h.103c0-.07-.03-.18-.085-.247a.224.224 0 0 0-.007-.048c.038-.048.093-.125.091-.199 0-.046-.055-.044-.061-.008-.005.03-.025.077-.063.093 0-.059-.033-.13-.08-.13-.048 0-.081.071-.081.13-.038-.016-.058-.062-.063-.093-.007-.036-.06-.038-.062.008-.002.074.054.151.092.2a.237.237 0 0 0-.008.047.442.442 0 0 0-.084.247h.103c0-.083.05-.16.102-.176m-.528 0c.052.016.102.093.102.176h.103c0-.07-.03-.18-.085-.247a.23.23 0 0 0-.007-.048c.038-.048.093-.125.092-.199-.001-.046-.056-.044-.062-.008-.005.03-.025.077-.063.093 0-.059-.033-.13-.08-.13-.048 0-.081.071-.081.13-.038-.016-.058-.062-.063-.093-.007-.036-.06-.038-.062.008-.001.074.054.151.092.2a.23.23 0 0 0-.007.047.441.441 0 0 0-.085.247h.103c0-.083.05-.16.103-.176m1.587 0c-.053.016-.103.093-.103.176h-.103c0-.07.03-.18.085-.247 0-.017.003-.032.007-.048-.038-.048-.093-.125-.092-.199.001-.046.055-.044.062-.008.005.03.025.077.063.093 0-.059.033-.13.08-.13.048 0 .08.071.08.13.039-.016.059-.062.064-.093.006-.036.06-.038.062.008.001.074-.054.151-.092.2.004.014.006.03.007.047a.441.441 0 0 1 .085.247h-.103c0-.083-.05-.16-.103-.176m.53 0c-.052.016-.103.093-.103.176h-.103c0-.07.03-.18.085-.247 0-.017.003-.032.007-.048-.038-.048-.093-.125-.091-.199 0-.046.055-.045.061-.008.005.03.025.077.063.093 0-.059.033-.13.08-.13.048 0 .081.071.081.13.038-.016.058-.062.063-.093.007-.037.06-.038.062.008.002.074-.054.151-.092.2a.23.23 0 0 1 .007.047.441.441 0 0 1 .085.247H15.1c0-.083-.05-.16-.102-.176m-2.427.283h2.778v.133H12.57v-.133Z" fill="#514537"/><path fill-rule="evenodd" clip-rule="evenodd" d="M15.022 11.829c.385 0 .789-.34.789-.988V9.23c0-.146-.016-.167.017-.2.02-.02-.022-.05-.05-.08-.043-.043-.072-.079-.015-.137.058-.059.034-.074-.003-.111-.036-.037-.05-.074-.015-.11.034-.034.042-.046.004-.084-.038-.039-.022-.055.01-.087.031-.032.046-.055.006-.096-.04-.04-.043-.046-.088-.046h-.19c-.044 0-.045.013-.008.051.049.049.063.068.008.123-.054.056-.052.074-.017.11.052.052.075.089.022.142-.053.054-.058.078-.017.119.04.04.044.077 0 .122-.034.034-.037.054-.037.115v1.644c0 .276-.195.443-.568.443-.372 0-.498-.154-.606-.257.07.494.272.937.758.937" fill="#514537"/><path fill-rule="evenodd" clip-rule="evenodd" d="M12.571 9.674v-.212l.556.212h-.556m-.662.099-1.243-.17c.037-.27.105-.535.203-.786l1.04.42v.536m2.567-2.077.22-.922c.26.064.51.16.749.286l-.713 1.386.003-.696c-.082 0-.208-.012-.259-.054m-2.538 2.167-1.265-.078c-.017.27 0 .542.048.81 0 0 1.217.008 1.217 0v-.732m-.012-.867c-.041-.055-.016-.084.028-.113.044-.029.038-.051.016-.093-.022-.041-.044-.086-.003-.131.04-.045.025-.064-.007-.097-.031-.032-.034-.067-.006-.093.029-.025.022-.044.003-.07-.019-.026-.056-.078-.023-.111l-.516-.439a3.43 3.43 0 0 0-.434.682l.942.465m1.236.238-.615-.606c.087-.088.095-.102.034-.165-.067-.068-.07-.075.067-.214.046-.047.02-.08-.046-.08h-.405c-.035 0-.062.001-.088.027l-.49-.482c.187-.196.396-.367.622-.51l.921 1.506v.524m-.639.093v-.321c0-.045-.004-.063-.038-.098-.035-.035-.018-.052.01-.09l.583.493v.29l-.555-.274m.547-.881v-.71c0-.463.025-.694.091-.74l-.053-.222c-.259.071-.51.167-.748.293l.71 1.38m2.279 1.227v-.212l-.556.212h.556m.608.099 1.243-.17a3.381 3.381 0 0 0-.203-.786l-1.04.42v.536m0 .09 1.266-.078c.016.27 0 .542-.049.81 0 0-1.216.008-1.216 0v-.732m-.041-.867c.042-.055.016-.084-.028-.113-.044-.029-.038-.051-.016-.093.022-.041.044-.086.003-.131-.04-.045-.025-.064.007-.097.031-.032.034-.067.006-.093-.028-.025-.022-.044-.003-.07.019-.026.056-.078.023-.111l.516-.439c.17.208.316.437.434.682l-.942.465m-1.124.238.616-.606c-.087-.088-.096-.103-.034-.165.067-.068.07-.075-.067-.214-.047-.047-.02-.08.046-.08h.405c.035 0 .062.001.088.027l.49-.482a3.299 3.299 0 0 0-.622-.51l-.921 1.506v.524m.555.093v-.321c0-.045.003-.063.038-.098.034-.035.017-.052-.01-.09l-.584.493v.29l.556-.274" fill="#EEA339"/><path fill-rule="evenodd" clip-rule="evenodd" d="M12.148 9.032c.022.023.032.045.032.1v1.716c0 .57.34.888.69.888.323 0 .534-.298.645-.645-.142.113-.35.148-.55.148-.23 0-.602-.157-.602-.497V9.077c0-.045-.044-.045-.215-.045m2.012-2.248c-.44-.045-.848.048-.848.658v1.62c0 .272-.02.24.205.296.41.103.456.117.953.232V7.94c-.424-.047-.608-.329-.608-.641 0-.25.108-.483.299-.515m1.576 2.248c-.022.023-.032.045-.032.1v1.716c0 .57-.34.888-.69.888-.323 0-.534-.298-.645-.645.142.113.35.148.55.148.23 0 .602-.157.602-.497V9.077c0-.045.044-.045.215-.045" fill="#D82332"/><mask id="b" style="mask-type:alpha" maskUnits="userSpaceOnUse" x="10" y="6" width="8" height="8"><path fill-rule="evenodd" clip-rule="evenodd" d="M14 13.333a3.333 3.333 0 1 0 0-6.666 3.333 3.333 0 0 0 0 6.666Z" fill="#fff"/></mask><g mask="url(#b)"><path fill-rule="evenodd" clip-rule="evenodd" d="M14 18.667A3.333 3.333 0 1 0 14 12a3.333 3.333 0 0 0 0 6.667Z" fill="#064A89"/></g></g></svg>