<svg width="28" height="20" fill="none" xmlns="http://www.w3.org/2000/svg"><rect x=".25" y=".25" width="27.5" height="19.5" rx="1.75" fill="#fff" stroke="#F5F5F5" stroke-width=".5"/><mask id="a" style="mask-type:alpha" maskUnits="userSpaceOnUse" x="0" y="0" width="28" height="20"><rect x=".25" y=".25" width="27.5" height="19.5" rx="1.75" fill="#fff" stroke="#fff" stroke-width=".5"/></mask><g mask="url(#a)" fill-rule="evenodd" clip-rule="evenodd"><path d="M0 20h28v-6.667H0V20Zm9.334-6.667h8V8h-8v5.333Z" fill="#E34F4F"/><path d="M10.666 13.333H12V12h-1.334v1.333Zm4 0H16V12h-1.334v1.333ZM9.334 8h1.333V6.667H9.334V8Zm4 0h1.333V6.667h-1.333V8ZM12 8h1.333V6.667H12V8Zm4 0h1.333V6.667H16V8Z" fill="#181A1A"/><path d="M9.334 6.667h1.333V5.333H9.334v1.334Zm4 0h1.333V5.333h-1.333v1.334Zm-1.334 0h1.333V5.333H12v1.334Zm4 0h1.333V5.333H16v1.334Z" fill="#E34F4F"/></g></svg>