<svg width="28" height="20" fill="none" xmlns="http://www.w3.org/2000/svg"><rect x=".25" y=".25" width="27.5" height="19.5" rx="1.75" fill="#fff" stroke="#F5F5F5" stroke-width=".5"/><mask id="a" style="mask-type:alpha" maskUnits="userSpaceOnUse" x="0" y="0" width="28" height="20"><rect x=".25" y=".25" width="27.5" height="19.5" rx="1.75" fill="#fff" stroke="#fff" stroke-width=".5"/></mask><g mask="url(#a)" fill-rule="evenodd" clip-rule="evenodd"><path d="M0 6.667h28V0H0v6.667ZM0 20h28v-6.667H0V20Z" fill="#0884E6"/><path d="m14 10.667-.943.276.276-.943-.276-.943.943.276.943-.276-.276.943.276.943-.943-.276Zm5.333-1.334-.942.276.276-.942-.277-.943.943.276.943-.276-.276.943.276.942-.943-.276Zm0 2.667-.942.276.276-.943-.277-.943.943.277.943-.277-.276.943.276.943-.943-.276ZM8.667 12l-.943.276.276-.943-.276-.943.943.277.942-.277-.276.943.276.943L8.667 12Zm0-2.667-.943.276L8 8.667l-.276-.943.943.276.942-.276-.276.943.276.942-.942-.276Z" fill="#0E88E9"/></g></svg>