<svg width="28" height="20" viewBox="0 0 28 20" fill="none" xmlns="http://www.w3.org/2000/svg">
<rect x="0.25" y="0.25" width="27.5" height="19.5" rx="1.75" fill="white" stroke="#F5F5F5" stroke-width="0.5"/>
<mask id="mask0_503_2620" style="mask-type:alpha" maskUnits="userSpaceOnUse" x="0" y="0" width="28" height="20">
<rect x="0.25" y="0.25" width="27.5" height="19.5" rx="1.75" fill="white" stroke="white" stroke-width="0.5"/>
</mask>
<g mask="url(#mask0_503_2620)">
<path fill-rule="evenodd" clip-rule="evenodd" d="M0 20H28V13.3333H0V20Z" fill="#138E16"/>
<path fill-rule="evenodd" clip-rule="evenodd" d="M0 20H9.33333V13.3333H28V6.66667H9.33333V0H0V20Z" fill="#ED2B35"/>
<path fill-rule="evenodd" clip-rule="evenodd" d="M4.66667 4.71175L3.50964 6.40258L4.11019 4.44377L2.06686 4.59338L3.97275 3.84161L2.58178 2.33736L4.35785 3.35872L4.66667 1.33333L4.97549 3.35872L6.75155 2.33736L5.36058 3.84161L7.26647 4.59338L5.22314 4.44377L5.82369 6.40258L4.66667 4.71175Z" fill="white"/>
</g>
</svg>
