<svg width="28" height="20" viewBox="0 0 28 20" fill="none" xmlns="http://www.w3.org/2000/svg">
<g clip-path="url(#clip0_503_2747)">
<rect x="0.25" y="0.25" width="27.5" height="19.5" rx="1.75" fill="white" stroke="#F5F5F5" stroke-width="0.5"/>
<mask id="mask0_503_2747" style="mask-type:alpha" maskUnits="userSpaceOnUse" x="0" y="0" width="28" height="20">
<rect x="0.25" y="0.25" width="27.5" height="19.5" rx="1.75" fill="white" stroke="white" stroke-width="0.5"/>
</mask>
<g mask="url(#mask0_503_2747)">
<path fill-rule="evenodd" clip-rule="evenodd" d="M0 20H28V13.3333H0V20Z" fill="#199E56"/>
<path fill-rule="evenodd" clip-rule="evenodd" d="M0 6.66667H28V0H0V6.66667Z" fill="#262626"/>
<path fill-rule="evenodd" clip-rule="evenodd" d="M0 0L13.3333 10L0 20V0Z" fill="#E6223A"/>
<path fill-rule="evenodd" clip-rule="evenodd" d="M4.66669 11L3.79892 11.8019L3.88486 10.6235L2.71683 10.445L3.69176 9.77748L3.10302 8.75302L4.2328 9.09903L4.66669 8L5.10057 9.09903L6.23035 8.75302L5.64161 9.77748L6.61654 10.445L5.44852 10.6235L5.53445 11.8019L4.66669 11Z" fill="white"/>
</g>
</g>
<defs>
<clipPath id="clip0_503_2747">
<rect width="28" height="20" rx="2" fill="white"/>
</clipPath>
</defs>
</svg>
