<svg width="28" height="20" viewBox="0 0 28 20" fill="none" xmlns="http://www.w3.org/2000/svg">
<g clip-path="url(#clip0_503_3822)">
<rect width="28" height="20" rx="2" fill="white"/>
<mask id="mask0_503_3822" style="mask-type:alpha" maskUnits="userSpaceOnUse" x="0" y="0" width="28" height="20">
<rect width="28" height="20" rx="2" fill="white"/>
</mask>
<g mask="url(#mask0_503_3822)">
<rect width="28" height="20" fill="#F32249"/>
<rect x="4" y="4" width="20" height="12" rx="0.666667" fill="#15A04F"/>
<path fill-rule="evenodd" clip-rule="evenodd" d="M16.3333 14.5593C16.0112 14.6296 15.6766 14.6667 15.3333 14.6667C12.756 14.6667 10.6667 12.5773 10.6667 10C10.6667 7.42268 12.756 5.33334 15.3333 5.33334C15.6766 5.33334 16.0112 5.3704 16.3333 5.44074C14.2365 5.89852 12.6667 7.76593 12.6667 10C12.6667 12.2341 14.2365 14.1015 16.3333 14.5593Z" fill="white"/>
</g>
</g>
<defs>
<clipPath id="clip0_503_3822">
<rect width="28" height="20" rx="2" fill="white"/>
</clipPath>
</defs>
</svg>
