<svg width="28" height="20" viewBox="0 0 28 20" fill="none" xmlns="http://www.w3.org/2000/svg">
<g clip-path="url(#clip0_503_2533)">
<rect width="28" height="20" rx="2" fill="white"/>
<mask id="mask0_503_2533" style="mask-type:alpha" maskUnits="userSpaceOnUse" x="0" y="0" width="28" height="20">
<rect width="28" height="20" rx="2" fill="white"/>
</mask>
<g mask="url(#mask0_503_2533)">
<rect x="13.3334" width="14.6667" height="20" fill="#1AB11F"/>
<path fill-rule="evenodd" clip-rule="evenodd" d="M0 20H9.33333V0H0V20Z" fill="#262626"/>
<path fill-rule="evenodd" clip-rule="evenodd" d="M9.33337 20H18.6667V0H9.33337V20Z" fill="#DC0D18"/>
<path opacity="0.75" d="M12 9.33334C12 8.96515 11.7016 8.66668 11.3334 8.66668C10.9652 8.66668 10.6667 8.96515 10.6667 9.33334H12ZM12.3291 12.2181C12.6475 12.4029 13.0555 12.2945 13.2403 11.9761C13.4251 11.6576 13.3167 11.2496 12.9982 11.0649L12.3291 12.2181ZM15.0757 11.0198C14.7655 11.2182 14.6749 11.6305 14.8733 11.9407C15.0716 12.2508 15.4839 12.3415 15.7941 12.1431L15.0757 11.0198ZM17.3334 9.33334C17.3334 8.96515 17.0349 8.66668 16.6667 8.66668C16.2985 8.66668 16 8.96515 16 9.33334H17.3334ZM10.6667 9.33334C10.6667 10.5664 11.3366 11.6422 12.3291 12.2181L12.9982 11.0649C12.4 10.7177 12 10.0718 12 9.33334H10.6667ZM15.7941 12.1431C16.7183 11.552 17.3334 10.5147 17.3334 9.33334H16C16 10.041 15.633 10.6634 15.0757 11.0198L15.7941 12.1431Z" fill="white"/>
<path fill-rule="evenodd" clip-rule="evenodd" d="M14 10.6667C14.7363 10.6667 15.3333 9.77123 15.3333 8.66666C15.3333 7.56209 14.7363 6.66666 14 6.66666C13.2636 6.66666 12.6666 7.56209 12.6666 8.66666C12.6666 9.77123 13.2636 10.6667 14 10.6667Z" fill="white" fill-opacity="0.5"/>
</g>
</g>
<defs>
<clipPath id="clip0_503_2533">
<rect width="28" height="20" rx="2" fill="white"/>
</clipPath>
</defs>
</svg>
