<svg width="28" height="20" viewBox="0 0 28 20" fill="none" xmlns="http://www.w3.org/2000/svg">
<g clip-path="url(#clip0_1310_8083)">
<path d="M27.999 0H-0.000976562V20H27.999V0Z" fill="url(#paint0_linear_1310_8083)"/>
<path d="M27.999 0H-0.000976562V20H27.999V0Z" fill="url(#paint1_linear_1310_8083)"/>
<path fill-rule="evenodd" clip-rule="evenodd" d="M21.593 4.83191C21.593 4.83191 21.0555 5.03586 20.4816 4.83191C20.025 4.6696 19.5657 4.12054 19.1884 3.92981C18.9697 3.81922 19.3756 3.29211 18.9427 3.43436C18.5097 3.57662 17.8025 2.91573 17.8025 2.91573C17.8025 2.91573 17.0719 2.02518 18.1481 2.02518C19.2242 2.02518 21.4942 2.79838 21.4942 2.79838C21.4942 2.79838 21.5792 2.39907 21.7643 2.21504C21.9494 2.03102 22.0866 1.86194 22.3899 1.90783C22.6932 1.95373 22.8609 2.38098 22.8609 2.38098L22.3899 2.56075V2.91573C22.3899 2.91573 25.5384 1.95015 26.2826 2.02518C27.0268 2.10022 26.4278 2.91674 25.9785 3.43436C25.8048 3.63459 25.2373 4.04252 24.8924 3.71545C24.5474 3.38838 24.6754 4.06907 24.3178 4.28882C23.7347 4.64718 23.5158 4.97561 23.3154 5.07116C23.1149 5.16672 22.6765 5.07116 22.6765 5.07116L22.8046 5.39986C22.8046 5.39986 22.8405 5.79491 22.6765 5.95243C22.5125 6.10995 22.3985 6.22104 21.9987 6.17387C21.599 6.12669 21.4104 6.227 21.2775 5.78731C21.1445 5.34762 21.593 4.83191 21.593 4.83191ZM21.9223 4.3765V5.40515L22.3745 5.02698L21.9223 4.3765Z" fill="url(#paint2_linear_1310_8083)"/>
<path d="M27.999 8H23.999V20H27.999V8Z" fill="url(#paint3_linear_1310_8083)"/>
<path d="M23.999 8H19.999V20H23.999V8Z" fill="url(#paint4_linear_1310_8083)"/>
<path d="M19.999 8H15.999V20H19.999V8Z" fill="url(#paint5_linear_1310_8083)"/>
</g>
<defs>
<linearGradient id="paint0_linear_1310_8083" x1="13.999" y1="0" x2="13.999" y2="20" gradientUnits="userSpaceOnUse">
<stop stop-color="white"/>
<stop offset="1" stop-color="#F0F0F0"/>
</linearGradient>
<linearGradient id="paint1_linear_1310_8083" x1="13.999" y1="20" x2="13.999" y2="0" gradientUnits="userSpaceOnUse">
<stop stop-color="#2A8815"/>
<stop offset="1" stop-color="#35A51D"/>
</linearGradient>
<linearGradient id="paint2_linear_1310_8083" x1="22.0974" y1="1.90022" x2="22.0974" y2="6.18482" gradientUnits="userSpaceOnUse">
<stop stop-color="#EF8A34"/>
<stop offset="1" stop-color="#EC7E21"/>
</linearGradient>
<linearGradient id="paint3_linear_1310_8083" x1="25.999" y1="8" x2="25.999" y2="20" gradientUnits="userSpaceOnUse">
<stop stop-color="#F48D36"/>
<stop offset="1" stop-color="#EC7E21"/>
</linearGradient>
<linearGradient id="paint4_linear_1310_8083" x1="21.999" y1="8" x2="21.999" y2="20" gradientUnits="userSpaceOnUse">
<stop stop-color="#262626"/>
<stop offset="1" stop-color="#0D0D0D"/>
</linearGradient>
<linearGradient id="paint5_linear_1310_8083" x1="17.999" y1="8" x2="17.999" y2="20" gradientUnits="userSpaceOnUse">
<stop stop-color="#EC322B"/>
<stop offset="1" stop-color="#DB261F"/>
</linearGradient>
<clipPath id="clip0_1310_8083">
<rect width="28" height="20" rx="2" fill="white"/>
</clipPath>
</defs>
</svg>
