<svg width="28" height="20" viewBox="0 0 28 20" fill="none" xmlns="http://www.w3.org/2000/svg">
<rect x="0.25" y="0.25" width="27.5" height="19.5" rx="1.75" fill="white" stroke="#F5F5F5" stroke-width="0.5"/>
<mask id="mask0_503_2965" style="mask-type:alpha" maskUnits="userSpaceOnUse" x="0" y="0" width="28" height="20">
<rect x="0.25" y="0.25" width="27.5" height="19.5" rx="1.75" fill="white" stroke="white" stroke-width="0.5"/>
</mask>
<g mask="url(#mask0_503_2965)">
<path fill-rule="evenodd" clip-rule="evenodd" d="M28 2.66667H13.3333V5.33334H28V2.66667ZM13.3333 8.00001V10.6667H28V8.00001H13.3333ZM13.3333 13.3333L0 13.3333V16H28V13.3333H13.3333ZM0 20V18.6667H28V20H0Z" fill="#0E4DC5"/>
<path fill-rule="evenodd" clip-rule="evenodd" d="M6.66667 9.3213L5.77659 10.6499L5.55113 9.06668L4.17271 9.87756L4.65653 8.35327L3.0628 8.48577L4.16007 7.32235L2.66667 6.75024L4.16007 6.17812L3.0628 5.0147L4.65653 5.14721L4.17271 3.62291L5.55113 4.43379L5.77659 2.85052L6.66667 4.17917L7.55676 2.85052L7.78221 4.43379L9.16063 3.62291L8.67681 5.14721L10.2705 5.0147L9.17327 6.17812L10.6667 6.75024L9.17327 7.32235L10.2705 8.48577L8.67681 8.35327L9.16063 9.87756L7.78221 9.06668L7.55676 10.6499L6.66667 9.3213ZM6.66667 9.29569C8.07249 9.29569 9.21213 8.15605 9.21213 6.75024C9.21213 5.34442 8.07249 4.20478 6.66667 4.20478C5.26086 4.20478 4.12122 5.34442 4.12122 6.75024C4.12122 8.15605 5.26086 9.29569 6.66667 9.29569ZM8.66667 6.66666C8.66667 7.77123 7.77124 8.66666 6.66667 8.66666C5.5621 8.66666 4.66667 7.77123 4.66667 6.66666C4.66667 5.56209 5.5621 4.66666 6.66667 4.66666C7.77124 4.66666 8.66667 5.56209 8.66667 6.66666Z" fill="#FED443"/>
</g>
</svg>
