<svg width="28" height="20" viewBox="0 0 28 20" fill="none" xmlns="http://www.w3.org/2000/svg">
<g clip-path="url(#clip0_503_2578)">
<rect width="28" height="20" rx="2" fill="white"/>
<mask id="mask0_503_2578" style="mask-type:alpha" maskUnits="userSpaceOnUse" x="0" y="0" width="28" height="20">
<rect width="28" height="20" rx="2" fill="white"/>
</mask>
<g mask="url(#mask0_503_2578)">
<rect width="28" height="20" fill="#30C6E0"/>
<path fill-rule="evenodd" clip-rule="evenodd" d="M14 14C16.2091 14 18 12.2091 18 10C18 7.79086 16.2091 6 14 6C11.7909 6 10 7.79086 10 10C10 12.2091 11.7909 14 14 14Z" fill="#FFCD4B"/>
<path fill-rule="evenodd" clip-rule="evenodd" d="M12.3682 17.1495L14 14.7136L15.6318 17.1495L16.0452 14.2468L18.5723 15.7334L17.6853 12.9389L20.6071 13.1818L18.5954 11.0489L21.3333 10L18.5954 8.95112L20.6071 6.81818L17.6853 7.06111L18.5723 4.26657L16.0452 5.75318L15.6318 2.85052L14 5.28638L12.3682 2.85052L11.9548 5.75318L9.42775 4.26657L10.3148 7.06111L7.3929 6.81818L9.40457 8.95112L6.66667 10L9.40457 11.0489L7.3929 13.1818L10.3148 12.9389L9.42775 15.7334L11.9548 14.2468L12.3682 17.1495ZM18.6667 10C18.6667 12.5773 16.5773 14.6667 14 14.6667C11.4227 14.6667 9.33334 12.5773 9.33334 10C9.33334 7.42267 11.4227 5.33333 14 5.33333C16.5773 5.33333 18.6667 7.42267 18.6667 10Z" fill="#FFCD4B"/>
<path fill-rule="evenodd" clip-rule="evenodd" d="M1.33333 1.66668C1.33333 1.48258 1.48257 1.33334 1.66666 1.33334H2.33333C2.51742 1.33334 2.66666 1.48258 2.66666 1.66668V2.33334C2.66666 2.51744 2.51742 2.66668 2.33333 2.66668H1.66666C1.48257 2.66668 1.33333 2.51744 1.33333 2.33334V1.66668ZM1.33333 4.33334C1.33333 4.14925 1.48257 4.00001 1.66666 4.00001H2.33333C2.51742 4.00001 2.66666 4.14925 2.66666 4.33334V5.00001C2.66666 5.1841 2.51742 5.33334 2.33333 5.33334H1.66666C1.48257 5.33334 1.33333 5.18411 1.33333 5.00001V4.33334ZM1.66666 6.66668C1.48257 6.66668 1.33333 6.81592 1.33333 7.00001V7.66668C1.33333 7.85077 1.48257 8.00001 1.66666 8.00001H2.33333C2.51742 8.00001 2.66666 7.85077 2.66666 7.66668V7.00001C2.66666 6.81592 2.51742 6.66668 2.33333 6.66668H1.66666ZM1.33333 9.66668C1.33333 9.48258 1.48257 9.33334 1.66666 9.33334H2.33333C2.51742 9.33334 2.66666 9.48258 2.66666 9.66668V10.3333C2.66666 10.5174 2.51742 10.6667 2.33333 10.6667H1.66666C1.48257 10.6667 1.33333 10.5174 1.33333 10.3333V9.66668ZM1.66666 12C1.48257 12 1.33333 12.1492 1.33333 12.3333V13C1.33333 13.1841 1.48257 13.3333 1.66666 13.3333H2.33333C2.51742 13.3333 2.66666 13.1841 2.66666 13V12.3333C2.66666 12.1492 2.51742 12 2.33333 12H1.66666ZM1.33333 15C1.33333 14.8159 1.48257 14.6667 1.66666 14.6667H2.33333C2.51742 14.6667 2.66666 14.8159 2.66666 15V15.6667C2.66666 15.8508 2.51742 16 2.33333 16H1.66666C1.48257 16 1.33333 15.8508 1.33333 15.6667V15ZM1.66666 17.3333C1.48257 17.3333 1.33333 17.4826 1.33333 17.6667V18.3333C1.33333 18.5174 1.48257 18.6667 1.66666 18.6667H2.33333C2.51742 18.6667 2.66666 18.5174 2.66666 18.3333V17.6667C2.66666 17.4826 2.51742 17.3333 2.33333 17.3333H1.66666ZM2.66666 16.3333C2.66666 16.1492 2.8159 16 2.99999 16H3.66666C3.85076 16 3.99999 16.1492 3.99999 16.3333V17C3.99999 17.1841 3.85076 17.3333 3.66666 17.3333H3C2.8159 17.3333 2.66666 17.1841 2.66666 17V16.3333ZM2.99999 13.3333C2.8159 13.3333 2.66666 13.4826 2.66666 13.6667V14.3333C2.66666 14.5174 2.8159 14.6667 3 14.6667H3.66666C3.85076 14.6667 3.99999 14.5174 3.99999 14.3333V13.6667C3.99999 13.4826 3.85076 13.3333 3.66666 13.3333H2.99999ZM2.66666 11C2.66666 10.8159 2.8159 10.6667 2.99999 10.6667H3.66666C3.85076 10.6667 3.99999 10.8159 3.99999 11V11.6667C3.99999 11.8508 3.85076 12 3.66666 12H3C2.8159 12 2.66666 11.8508 2.66666 11.6667V11ZM2.99999 8.00001C2.8159 8.00001 2.66666 8.14925 2.66666 8.33334V9.00001C2.66666 9.1841 2.8159 9.33334 3 9.33334H3.66666C3.85076 9.33334 3.99999 9.1841 3.99999 9.00001V8.33334C3.99999 8.14925 3.85076 8.00001 3.66666 8.00001H2.99999ZM2.66666 5.66668C2.66666 5.48258 2.8159 5.33334 2.99999 5.33334H3.66666C3.85076 5.33334 3.99999 5.48258 3.99999 5.66668V6.33334C3.99999 6.51744 3.85076 6.66668 3.66666 6.66668H3C2.8159 6.66668 2.66666 6.51744 2.66666 6.33334V5.66668ZM2.99999 2.66668C2.8159 2.66668 2.66666 2.81592 2.66666 3.00001V3.66668C2.66666 3.85077 2.8159 4.00001 3 4.00001H3.66666C3.85076 4.00001 3.99999 3.85077 3.99999 3.66668V3.00001C3.99999 2.81592 3.85076 2.66668 3.66666 2.66668H2.99999Z" fill="#FFCD4B"/>
</g>
</g>
<defs>
<clipPath id="clip0_503_2578">
<rect width="28" height="20" rx="2" fill="white"/>
</clipPath>
</defs>
</svg>
