<svg width="28" height="20" fill="none" xmlns="http://www.w3.org/2000/svg"><rect width="28" height="20" rx="2" fill="#fff"/><mask id="a" style="mask-type:alpha" maskUnits="userSpaceOnUse" x="0" y="0" width="28" height="20"><rect width="28" height="20" rx="2" fill="#fff"/></mask><g mask="url(#a)"><path fill="#E6BE53" d="M0 0h28v20H0z"/><path fill-rule="evenodd" clip-rule="evenodd" d="M1.333 17.667a1 1 0 0 0 1 1h23.334a1 1 0 0 0 1-1V2.333a1 1 0 0 0-1-1H2.333a1 1 0 0 0-1 1v15.334Z" fill="#E01826"/><path fill-rule="evenodd" clip-rule="evenodd" d="M13.023 3.659a.667.667 0 0 0-.26 1.104l.375.375a.667.667 0 0 0 .472.195h.78c.177 0 .347-.07.472-.195l.375-.375a.667.667 0 0 0-.26-1.104l-.766-.255a.666.666 0 0 0-.422 0l-.766.255Zm1.449 3.203a.667.667 0 0 1-.943 0l-.195-.195-.994-.994a.667.667 0 0 0-.77-.125l-.076.038a.667.667 0 0 0-.173 1.068l.013.013.993.993a.667.667 0 0 1 .125.77l-.414.827a.36.36 0 0 0-.038.161.36.36 0 0 1-.52.322l-.323-.162a.395.395 0 0 1-.103-.632.395.395 0 0 0 0-.559l-.31-.31a.67.67 0 0 1-.126-.174l-.585-1.17a.664.664 0 0 1-.05-.137l-.31-1.237a.667.667 0 0 0-1.18-.238L7.467 6.489a.667.667 0 0 0-.133.4v2.287a.67.67 0 0 0 .07.298l.548 1.096a.667.667 0 0 0 .125.173l1.18 1.18c.05.051.11.093.173.125l1.174.587c.041.02.087.032.133.032.315 0 .415.424.133.565l-.154.077a.341.341 0 0 0-.088.063l-.294.295a.471.471 0 0 1-.667 0 .471.471 0 0 0-.667 0l-.054.054a.548.548 0 0 0-.103.632l.306.612a.667.667 0 0 0 .597.368h.763a.667.667 0 0 0 .299-.07l.993-.497a.667.667 0 0 0 .299-.298l.302-.605a.427.427 0 1 1 .737.428l-.769 1.154a.667.667 0 0 0 .185.925l1.075.717c.224.15.516.15.74 0l1.075-.717a.667.667 0 0 0 .185-.925l-.769-1.154a.427.427 0 1 1 .737-.428l.303.605a.666.666 0 0 0 .298.298l.994.497c.092.046.194.07.298.07h.764a.667.667 0 0 0 .596-.368l.306-.612a.548.548 0 0 0-.103-.632L19 13.667a.471.471 0 0 0-.666 0 .471.471 0 0 1-.667 0l-.295-.295a.341.341 0 0 0-.088-.063l-.154-.077c-.282-.141-.181-.565.133-.565a.293.293 0 0 0 .133-.032l1.174-.587a.666.666 0 0 0 .173-.124l1.18-1.18a.673.673 0 0 0 .126-.174l.547-1.096a.667.667 0 0 0 .07-.298V6.889a.667.667 0 0 0-.133-.4L19.508 5.12a.667.667 0 0 0-1.18.238l-.31 1.237a.664.664 0 0 1-.05.136l-.585 1.171a.667.667 0 0 1-.125.173l-.31.311a.395.395 0 0 0 0 .559c.19.19.137.512-.104.632l-.323.162a.36.36 0 0 1-.52-.322.36.36 0 0 0-.038-.16l-.414-.828a.667.667 0 0 1 .125-.77l.994-.993.012-.013a.667.667 0 0 0-.173-1.068l-.076-.038a.667.667 0 0 0-.77.125l-.993.994-.195.195Z" fill="#E6BE53"/><path fill-rule="evenodd" clip-rule="evenodd" d="M12.666 11.333c0 .246.414.327.534.113.232-.416.516-.78.8-.78.284 0 .568.364.8.78.12.214.533.133.533-.113 0-1.104-.597-2-1.333-2s-1.334.896-1.334 2Z" fill="#215F90"/></g></svg>