<svg width="28" height="20" fill="none" xmlns="http://www.w3.org/2000/svg"><rect width="28" height="20" rx="2" fill="#fff"/><mask id="a" style="mask-type:alpha" maskUnits="userSpaceOnUse" x="0" y="0" width="28" height="20"><rect width="28" height="20" rx="2" fill="#fff"/></mask><g mask="url(#a)"><path fill="url(#b)" d="M0 0h28v20H0z"/><g filter="url(#c)"><path fill-rule="evenodd" clip-rule="evenodd" d="M0 0h28L0 20V0Z" fill="url(#d)"/></g><path fill-rule="evenodd" clip-rule="evenodd" d="M28 0 0 20h28V0Z" fill="#2C7442"/><path fill="#FFD646" d="M-2.773 19.706 25.04.946l13.327 19.759-27.812 18.76z"/><path fill-rule="evenodd" clip-rule="evenodd" d="m2.02 4.348.188-1.09-.793-.773 1.095-.16.49-.992.49.993 1.095.159-.792.772.187 1.091L3 3.833l-.98.515Zm6.667 0 .187-1.09-.792-.773 1.095-.16.49-.992.49.993 1.095.159-.793.772.187 1.091-.98-.515-.979.515Zm.187 2.91-.187 1.09.98-.515.98.515-.188-1.09.793-.773-1.096-.16-.49-.992-.49.993-1.094.159.792.772ZM3 7.832l-.98.515.188-1.09-.793-.773 1.095-.16.49-.992.49.993 1.095.159-.792.772.187 1.091L3 7.833Zm2.354-1.485.98-.515.98.515-.188-1.09.793-.773-1.096-.16-.49-.992-.49.993-1.094.159.792.772-.187 1.091Z" fill="#fff"/></g><defs><linearGradient id="b" x1="0" y1="0" x2="0" y2="20" gradientUnits="userSpaceOnUse"><stop stop-color="#1DBE4F"/><stop offset="1" stop-color="#159B3F"/></linearGradient><linearGradient id="d" x1="0" y1="0" x2="0" y2="20" gradientUnits="userSpaceOnUse"><stop stop-color="#0660D4"/><stop offset="1" stop-color="#0051BB"/></linearGradient><filter id="c" x="0" y="0" width="28" height="20" filterUnits="userSpaceOnUse" color-interpolation-filters="sRGB"><feFlood flood-opacity="0" result="BackgroundImageFix"/><feColorMatrix in="SourceAlpha" values="0 0 0 0 0 0 0 0 0 0 0 0 0 0 0 0 0 0 127 0" result="hardAlpha"/><feOffset/><feColorMatrix values="0 0 0 0 0 0 0 0 0 0 0 0 0 0 0 0 0 0 0.06 0"/><feBlend in2="BackgroundImageFix" result="effect1_dropShadow_503_4707"/><feBlend in="SourceGraphic" in2="effect1_dropShadow_503_4707" result="shape"/></filter></defs></svg>