<svg width="28" height="20" viewBox="0 0 28 20" fill="none" xmlns="http://www.w3.org/2000/svg">
<g clip-path="url(#clip0_503_2965)">
<rect x="0.25" y="0.25" width="27.5" height="19.5" rx="1.75" fill="white" stroke="#F5F5F5" stroke-width="0.5"/>
<mask id="mask0_503_2965" style="mask-type:alpha" maskUnits="userSpaceOnUse" x="0" y="0" width="28" height="20">
<rect x="0.25" y="0.25" width="27.5" height="19.5" rx="1.75" fill="white" stroke="white" stroke-width="0.5"/>
</mask>
<g mask="url(#mask0_503_2965)">
<path fill-rule="evenodd" clip-rule="evenodd" d="M28 2.66667H13.3333V5.33334H28V2.66667ZM13.3333 8.00001V10.6667H28V8.00001H13.3333ZM13.3333 13.3333L0 13.3333V16H28V13.3333H13.3333ZM0 20V18.6667H28V20H0Z" fill="#0E4DC5"/>
<path fill-rule="evenodd" clip-rule="evenodd" d="M6.66669 9.3213L5.7766 10.6499L5.55115 9.06668L4.17273 9.87756L4.65655 8.35327L3.06281 8.48577L4.16009 7.32235L2.66669 6.75024L4.16009 6.17812L3.06281 5.0147L4.65655 5.14721L4.17273 3.62291L5.55115 4.43379L5.7766 2.85052L6.66669 4.17917L7.55677 2.85052L7.78223 4.43379L9.16065 3.62291L8.67682 5.14721L10.2706 5.0147L9.17329 6.17812L10.6667 6.75024L9.17329 7.32235L10.2706 8.48577L8.67682 8.35327L9.16065 9.87756L7.78223 9.06668L7.55677 10.6499L6.66669 9.3213ZM6.66669 9.29569C8.0725 9.29569 9.21214 8.15605 9.21214 6.75024C9.21214 5.34442 8.0725 4.20478 6.66669 4.20478C5.26087 4.20478 4.12123 5.34442 4.12123 6.75024C4.12123 8.15605 5.26087 9.29569 6.66669 9.29569ZM8.66669 6.66666C8.66669 7.77123 7.77126 8.66666 6.66669 8.66666C5.56212 8.66666 4.66669 7.77123 4.66669 6.66666C4.66669 5.56209 5.56212 4.66666 6.66669 4.66666C7.77126 4.66666 8.66669 5.56209 8.66669 6.66666Z" fill="#FED443"/>
</g>
</g>
<defs>
<clipPath id="clip0_503_2965">
<rect width="28" height="20" rx="2" fill="white"/>
</clipPath>
</defs>
</svg>
