<svg width="28" height="20" fill="none" xmlns="http://www.w3.org/2000/svg"><rect x=".25" y=".25" width="27.5" height="19.5" rx="1.75" fill="#fff" stroke="#F5F5F5" stroke-width=".5"/><mask id="a" style="mask-type:alpha" maskUnits="userSpaceOnUse" x="0" y="0" width="28" height="20"><rect x=".25" y=".25" width="27.5" height="19.5" rx="1.75" fill="#fff" stroke="#fff" stroke-width=".5"/></mask><g mask="url(#a)" fill-rule="evenodd" clip-rule="evenodd"><path d="M0 5.333h28V0H0v5.333Z" fill="#083D96"/><path d="M0 14.667h28V9.333H0v5.334Z" fill="#37AE39"/><path d="M0 20h28v-5.333H0V20Z" fill="#FFD13F"/><path d="M10.667 20h6.666V0h-6.666v20Z" fill="#E42346"/><path d="m4.667 3.447-1.176.838.434-1.377-1.16-.86 1.443-.012.459-1.37.458 1.37 1.444.013-1.16.859.433 1.377-1.175-.838Z" fill="#FFD03B"/></g></svg>