<svg width="28" height="20" fill="none" xmlns="http://www.w3.org/2000/svg"><rect x=".25" y=".25" width="27.5" height="19.5" rx="1.75" fill="#fff" stroke="#F5F5F5" stroke-width=".5"/><mask id="a" style="mask-type:alpha" maskUnits="userSpaceOnUse" x="0" y="0" width="28" height="20"><rect x=".25" y=".25" width="27.5" height="19.5" rx="1.75" fill="#fff" stroke="#fff" stroke-width=".5"/></mask><g mask="url(#a)" fill-rule="evenodd" clip-rule="evenodd"><path d="M28 0H8v20h20V0Z" fill="#0A632F"/><path d="M23.67 10.75a5.576 5.576 0 0 1-1.604 3.395c-2.245 2.246-5.965 2.167-8.309-.176-2.343-2.343-2.422-6.063-.176-8.31a5.576 5.576 0 0 1 3.395-1.603 5.554 5.554 0 0 0-1.107.86c-2.042 2.041-2.143 5.25-.226 7.167 1.917 1.918 5.126 1.816 7.168-.225.34-.34.627-.713.86-1.107Zm-2.578-2.645-.318 1.898-.89-1.707-1.903.284 1.349-1.373-.859-1.723 1.723.858 1.374-1.349-.284 1.904 1.707.89-1.899.318Z" fill="#fff"/></g></svg>