<svg width="28" height="20" viewBox="0 0 28 20" fill="none" xmlns="http://www.w3.org/2000/svg">
<rect width="28" height="20" rx="2" fill="white"/>
<mask id="mask0_503_3995" style="mask-type:alpha" maskUnits="userSpaceOnUse" x="0" y="0" width="28" height="20">
<rect width="28" height="20" rx="2" fill="white"/>
</mask>
<g mask="url(#mask0_503_3995)">
<path fill-rule="evenodd" clip-rule="evenodd" d="M0 5.33333H28V0H0V5.33333Z" fill="#0F3EB6"/>
<path fill-rule="evenodd" clip-rule="evenodd" d="M0 20H28V14.6667H0V20Z" fill="#0F3EB6"/>
<path fill-rule="evenodd" clip-rule="evenodd" d="M0 14.6667H28V5.33334H0V14.6667Z" fill="#ED1A3C"/>
<path fill-rule="evenodd" clip-rule="evenodd" d="M12 8.72722H13.3333V8.00001C13.3333 7.63182 13.6318 7.33334 14 7.33334C14.3682 7.33334 14.6667 7.63182 14.6667 8.00001V8.72722H16V10H12V8.72722ZM17.3333 8.00001C16.9651 8.00001 16.6667 8.29849 16.6667 8.66668V10H18V8.66668C18 8.29849 17.7015 8.00001 17.3333 8.00001ZM11.3333 13.3333V10.6667H9.99999L8.66666 13.3333H11.3333ZM16 10.6667H12V13.3333H16V10.6667ZM16.6667 10.6667H18L19.3333 13.3333H16.6667V10.6667ZM10.6667 8.00001C10.2985 8.00001 9.99999 8.29849 9.99999 8.66668V10H11.3333V8.66668C11.3333 8.29849 11.0348 8.00001 10.6667 8.00001Z" fill="white"/>
</g>
</svg>
