<svg width="58" height="40" fill="none" xmlns="http://www.w3.org/2000/svg"><rect x=".5" y=".5" width="57" height="39" rx="3.5" fill="#fff" stroke="#F3F3F3"/><path fill-rule="evenodd" clip-rule="evenodd" d="M7.831 25.85V14.446c.002-.948.87-1.716 1.943-1.717h20.212v14.838H9.774c-1.073-.002-1.94-.77-1.943-1.717Zm40.626-14.404H9.774c-1.874 0-3.392 1.343-3.393 3V25.85c0 1.657 1.519 2.999 3.393 3h38.683c1.874-.001 3.392-1.343 3.393-3V14.446c0-1.657-1.519-3-3.393-3Z" fill="#0F3365"/><path fill-rule="evenodd" clip-rule="evenodd" d="M29.986 12.729H9.774c-1.073.001-1.94.769-1.943 1.717V25.85c.002.948.87 1.715 1.943 1.717h20.212V12.73m13.629 11.254c.35.067.698.1 1.056.1 1.556 0 1.924-1.059 2.404-2.15l1.802-4.044h-1.698l-1.009 2.834h-.019l-1.056-2.834h-1.828l1.988 4.444c-.121.383-.442.6-.856.6a2.25 2.25 0 0 1-.67-.092l-.114 1.142m-.762-1.751a4.727 4.727 0 0 1-.095-1.025V19.59c0-1.325-1.084-1.8-2.338-1.8-.726 0-1.358.09-1.961.308l.028 1.017c.472-.233 1.018-.325 1.565-.325.613 0 1.113.158 1.123.75a5.549 5.549 0 0 0-.792-.058c-.906 0-2.537.159-2.537 1.484 0 .943.868 1.368 1.839 1.368.698 0 1.17-.242 1.555-.784h.019c0 .225.029.45.038.683h1.556Zm-3.423-1.375c0-.417.453-.575 1.028-.575.255 0 .5.016.717.024 0 .509-.406 1.027-1.047 1.027-.396 0-.698-.176-.698-.476Zm-7.833 3.126h1.697v-2.359h.019c.32.517.962.709 1.556.709 1.461 0 2.243-1.068 2.243-2.352 0-1.05-.744-2.192-2.102-2.192-.773 0-1.49.275-1.829.883h-.019v-.783h-1.565v6.094Zm3.762-3.968c0 .692-.387 1.167-1.027 1.167-.566 0-1.038-.475-1.038-1.11 0-.65.415-1.133 1.038-1.133.66 0 1.027.5 1.027 1.076Z" fill="#FFFFFE"/><path fill-rule="evenodd" clip-rule="evenodd" d="M26.192 22.334c1.622 0 2.857-.834 2.857-2.268 0-1.443-1.235-2.276-2.857-2.276-1.621 0-2.856.833-2.856 2.276 0 1.434 1.235 2.268 2.857 2.268Zm0-1.051c-.782 0-1.103-.575-1.103-1.217 0-.65.32-1.226 1.104-1.226.782 0 1.103.575 1.103 1.226 0 .642-.321 1.217-1.104 1.217ZM23.27 17.84a4.141 4.141 0 0 0-.575-.05c-.735 0-1.16.35-1.452.9h-.019v-.8h-1.546v4.343h1.697V20.4c0-.85.444-1.359 1.235-1.359.198 0 .387 0 .575.05l.085-1.25m-6.422 4.392h1.697V17.89h-1.697v4.343Zm0-5.052h1.697v-1.1h-1.697v1.1Zm-1.171.709h-1.538v.783h-.018a1.967 1.967 0 0 0-1.669-.883c-1.527 0-2.216.966-2.216 2.259 0 1.285.84 2.184 2.188 2.184.679 0 1.244-.233 1.65-.742h.019v.234c0 .85-.528 1.259-1.509 1.259-.707 0-1.14-.133-1.66-.359l-.084 1.185a6.415 6.415 0 0 0 1.876.275c1.98 0 2.96-.576 2.96-2.36V17.89Zm-3.687 2.134c0-.592.33-1.084.962-1.084.763 0 1.084.542 1.084 1.025 0 .668-.481 1.118-1.084 1.118-.51 0-.962-.384-.962-1.06Z" fill="#D8232A"/></svg>