<svg width="58" height="40" fill="none" xmlns="http://www.w3.org/2000/svg"><rect x=".5" y=".5" width="57" height="39" rx="3.5" fill="#fff" stroke="#F3F3F3"/><path d="M10.7 3.7v32.45h18.9c12.5 0 17.9-7 17.9-16.25S42 3.7 29.6 3.7H10.7Z" fill="#fff"/><path fill-rule="evenodd" clip-rule="evenodd" d="M29.6 5.75H12.75V34.1H29.6c9.7 0 15.85-4.75 15.85-14.2 0-7.9-4.4-14.15-15.85-14.15ZM14.35 32.5V7.45H29.6c8.8 0 14.2 4 14.2 12.5 0 8.25-5 12.55-14.2 12.55H14.35Z" fill="#000"/><path d="M16.4 21.7h4.9v8.7h-4.9v-8.7Zm2.45-1.3a3.05 3.05 0 1 0 0-6.1 3.05 3.05 0 0 0 0 6.1Z" fill="#000"/><path fill-rule="evenodd" clip-rule="evenodd" d="M38.25 14.55h1.4v4.2h2.05c-.55-7.65-6.6-9.35-12.1-9.35h-5.85v5.15h.85c1.6 0 2.55 1.05 2.55 2.8 0 1.75-.95 2.8-2.5 2.8h-.9V30.4h5.85c8.95 0 12-4.15 12.15-10.25h-3.5v-5.6Zm-6.75 4.2v1.4H28v-5.6h3.4v1.4h-2v.65h1.9V18h-1.85v.75h2.05Zm2.3-4.2h2l1.7 5.6h-1.45l-.3-1.05H33.9l-.3 1.05h-1.5l1.7-5.6Zm.516 3.1H34.3v.05l.016-.05Zm0 0h.984l-.45-1.55h-.05l-.484 1.55Zm-10.566 1.1v-2.8h.85c.55 0 1.15.15 1.15 1.4s-.55 1.4-1.15 1.4h-.85Z" fill="#D50072"/></svg>