<svg width="58" height="40" viewBox="0 0 58 40" fill="none" xmlns="http://www.w3.org/2000/svg">
<rect x="0.5" y="0.5" width="57" height="39" rx="3.5" fill="white" stroke="#F3F3F3"/>
<path d="M10.7 3.69995V36.15H29.6C42.1 36.15 47.5 29.15 47.5 19.9C47.5 10.65 42 3.69995 29.6 3.69995H10.7Z" fill="white"/>
<path fill-rule="evenodd" clip-rule="evenodd" d="M29.6 5.75H12.75V34.1H29.6C39.3 34.1 45.45 29.35 45.45 19.9C45.45 12 41.05 5.75 29.6 5.75ZM14.35 32.5V7.45H29.6C38.4 7.45 43.8 11.45 43.8 19.95C43.8 28.2 38.8 32.5 29.6 32.5H14.35Z" fill="black"/>
<path d="M16.4 21.7H21.3V30.4H16.4V21.7Z" fill="black"/>
<path d="M18.85 20.4C20.5345 20.4 21.9 19.0345 21.9 17.35C21.9 15.6656 20.5345 14.3 18.85 14.3C17.1655 14.3 15.8 15.6656 15.8 17.35C15.8 19.0345 17.1655 20.4 18.85 20.4Z" fill="black"/>
<path fill-rule="evenodd" clip-rule="evenodd" d="M38.25 14.55H39.65V18.75H41.7C41.15 11.1 35.1 9.40002 29.6 9.40002H23.75V14.55H24.6C26.2 14.55 27.15 15.6 27.15 17.35C27.15 19.1 26.2 20.15 24.65 20.15H23.75V30.4H29.6C38.55 30.4 41.6 26.25 41.75 20.15H38.25V14.55ZM31.5 18.75V20.15H28V14.55H31.4V15.95H29.4V16.6H31.3V18H29.45V18.75H31.5ZM33.8 14.55H35.8L37.5 20.15H36.05L35.75 19.1H33.9L33.6 20.15H32.1L33.8 14.55ZM34.3156 17.65H34.3V17.7L34.3156 17.65ZM34.3156 17.65H35.3L34.85 16.1H34.8L34.3156 17.65ZM23.75 18.75V15.95H24.6C25.15 15.95 25.75 16.1 25.75 17.35C25.75 18.6 25.2 18.75 24.6 18.75H23.75Z" fill="#D50072"/>
</svg>
