<svg width="58" height="40" fill="none" xmlns="http://www.w3.org/2000/svg"><rect x=".5" y=".5" width="57" height="39" rx="3.5" fill="#fff" stroke="#F1F1F1"/><path d="M32.788 20.682a3.087 3.087 0 0 0-1.06-.091c-1.243.09-2.061 1.12-1.88 2.33.091.847 1.091 1.574 2 1.453 1.213-.152 1.849-.787 1.849-1.877 0-.363-.03-.635-.09-.938-.122-.454-.365-.756-.82-.877Zm6.272-.122c-.302-.03-.605-.03-.909.061a1.585 1.585 0 0 0-.97.848c-.181.363-.211.756-.211 1.18 0 .787.515 1.452 1.242 1.573.849.091 1.636-.393 1.849-1.18.06-.212.06-.424.06-.635 0-.394-.03-.757-.151-1.09-.152-.424-.455-.696-.91-.756Zm7.182.061c-1.363-.514-2.757.394-2.757 1.876 0 1.06.788 1.877 1.818 1.877 1.242 0 2.03-.757 2.03-1.967-.03-.06-.03-.182-.03-.273-.09-.666-.364-1.24-1.06-1.513Z" fill="#0D0E12"/><path d="M53.727 18.805c-.363-2.512-1.485-4.66-3.303-6.416-2.182-2.057-4.757-3.147-7.757-3.147H15.12c-.454 0-.909.06-1.333.09-3 .485-5.424 1.877-7.273 4.268-1.545 1.997-2.333 4.267-2.333 6.779v11.076c0 .333-.06.303.303.303h38.122c1.879 0 3.697-.454 5.364-1.332 4-2.24 6.485-6.658 5.757-11.62Z" fill="#0D0E12"/><path d="M13.697 25.312c-.455.06-.727-.152-.848-.575-.213-.696-.243-1.423-.303-2.149-.061-.635-.061-1.24-.061-1.876 0-1.725.06-3.42.364-5.115.03-.151.06-.302.12-.454.152-.393.486-.544.91-.363.212.091.273.303.273.484 0 .364-.091.757-.122 1.09-.272 2.3-.272 4.57-.03 6.87.06.514.09 1.059.152 1.543.03.363-.122.515-.455.545Z" fill="#EF5CA0"/><path d="M10.818 20.56c0 1.453 0 2.906-.06 4.358a.56.56 0 0 1-.061.212c-.121.182-.545.242-.818.182-.212-.06-.303-.212-.303-.515V22.68a58.23 58.23 0 0 1-.06-2.542c0-.303.15-.484.454-.575.333-.06.636.03.757.272.091.242.121.454.091.727ZM10 18.351c-.636-.03-1.06-.454-1.06-.998.03-.606.515-1.15 1.06-1.15.606 0 1.06.484 1.06 1.059-.03.635-.454 1.09-1.06 1.09Z" fill="#A6CF59"/><path d="M16.97 21.045c.03 1.059.09 2.118.212 3.147 0 .212.06.424.06.636 0 .242-.151.393-.393.454-.546.09-.788-.06-.91-.636-.151-.696-.212-1.392-.242-2.088-.06-.666-.06-1.332-.03-2.3 0-1.15.03-2.603.242-4.055.06-.333.06-.636.182-.938.121-.485.485-.636.94-.515.212.06.333.212.302.454-.06.696-.181 1.362-.212 2.058-.151 1.27-.212 2.542-.151 3.783Z" fill="#9575B4"/><path d="M20.182 24.707c.06.393-.091.635-.455.635-.454.03-.818-.242-.818-.635-.03-1.332 0-2.633.06-3.965.031-.242.061-.545.152-.787.182-.484.758-.605 1.06-.212.092.061.092.182.092.303-.06.757-.091 1.453-.152 2.179-.03.847.03 1.665.06 2.482Zm-.394-6.356c-.576 0-1.03-.484-1.03-1.09-.03-.574.484-1.058 1.06-1.058.515 0 1.03.544 1.03 1.15 0 .605-.393.998-1.06.998Z" fill="#FAA71C"/><path d="M27.727 23.86c-.303.665-.818 1.089-1.485 1.33a3.49 3.49 0 0 1-1.212.213c-1.636 0-2.727-.757-3.06-2.028-.394-1.362.181-2.724 1.454-3.42 1.243-.756 2.697-.575 3.727.454.091.091.213.212.273.333.243.363.152.696-.242.848-.152.06-.273 0-.394-.091a8.12 8.12 0 0 1-.515-.484c-.697-.576-1.758-.545-2.546.06-.697.545-.909 1.483-.545 2.33.273.606.757.878 1.394.969.333.06.636.06.94 0 .514-.06.939-.333 1.211-.757.03-.06.06-.151.122-.212.212-.302.393-.363.666-.212.273.121.364.364.212.666Zm6.667 1.422c-.182 0-.273-.091-.364-.212-.09-.182-.151-.363-.242-.515-.485.394-1.06.696-1.727.787-2.212.363-3.849-1.574-3.152-3.692.455-1.392 1.606-2.179 3.212-2.118.455.03.91.12 1.303.332.152.091.334.121.485 0 .06-.06.152-.06.242-.06.394-.06.516.06.516.454v1.362c-.03.998.12 1.997.333 2.965.09.394-.151.697-.606.697Zm6.848-.092c-.363.122-.484.061-.636-.272-.06-.15-.09-.302-.151-.453-.152.12-.334.242-.485.363-1.667 1.18-3.819.212-4-1.846a3.79 3.79 0 0 1 .151-1.635c.364-1.12 1.182-1.664 2.303-1.846.697-.09.91-.06 1.576.212.06-.06.03-.09.03-.151-.06-1.332.03-2.663.091-3.995.03-.605.273-.847.818-.847.273-.03.394.06.394.363 0 .272-.03.575-.06.847-.212 1.967-.212 3.904-.091 5.841.06.968.212 1.907.394 2.814.03.364-.03.515-.334.606Zm4.061.213c-1.606.09-2.879-1.423-2.848-2.663.03-1.968 1.242-3.3 3.12-3.3 1.667 0 2.819 1.302 2.819 3.148.03 1.332-1.242 2.936-3.09 2.815Z" fill="#fff"/><path d="M32.722 20.706a3.062 3.062 0 0 0-1.06-.091c-1.243.09-2.061 1.12-1.88 2.33.092.847 1.092 1.574 2 1.453 1.213-.152 1.85-.787 1.85-1.877 0-.363-.031-.635-.092-.938-.12-.454-.363-.756-.818-.877Zm6.273-.122c-.303-.03-.606-.03-.91.061a1.584 1.584 0 0 0-.969.847c-.182.364-.212.757-.212 1.18 0 .787.515 1.453 1.242 1.574.849.091 1.637-.393 1.849-1.18.06-.212.06-.424.06-.635 0-.394-.03-.757-.15-1.09-.153-.424-.456-.696-.91-.757Zm7.182.061c-1.364-.514-2.758.393-2.758 1.876 0 1.06.788 1.877 1.818 1.877 1.243 0 2.03-.757 2.03-1.967-.03-.061-.03-.182-.03-.273-.09-.666-.363-1.24-1.06-1.513Z" fill="#0D0E12"/></svg>