<svg width="58" height="40" viewBox="0 0 58 40" fill="none" xmlns="http://www.w3.org/2000/svg">
<g clip-path="url(#clip0_545_4260)">
<path d="M54 0.5H4C2.067 0.5 0.5 2.067 0.5 4V36C0.5 37.933 2.067 39.5 4 39.5H54C55.933 39.5 57.5 37.933 57.5 36V4C57.5 2.067 55.933 0.5 54 0.5Z" fill="white" stroke="#F3F3F3"/>
<path fill-rule="evenodd" clip-rule="evenodd" d="M31.43 22.63V25.1C30.2234 25.7607 28.8753 26.1209 27.5 26.15C23.92 26.15 21.76 24 21.76 21.3C21.7742 20.5813 21.9308 19.8725 22.2206 19.2146C22.5104 18.5567 22.9277 17.9628 23.4484 17.4672C23.9692 16.9715 24.583 16.584 25.2544 16.3271C25.9258 16.0701 26.6414 15.9488 27.36 15.97C28.1764 15.9677 28.9841 16.1381 29.73 16.47C29.93 16.56 30.11 16.63 30.3 16.63C30.56 16.63 30.6 16.3 30.61 16.06V15.98H30.96L31.28 19.32H30.86C30.7219 18.7237 30.4166 18.1791 29.98 17.75C29.6481 17.4206 29.2527 17.162 28.8177 16.9901C28.3828 16.8182 27.9175 16.7365 27.45 16.75C25.3 16.75 24.05 18.48 24.05 21.07C24.05 23.67 25.59 25.37 27.63 25.37C28.2599 25.3611 28.8792 25.2071 29.44 24.92V22.37C29.44 21.55 29.32 21.23 28.14 21.23V20.85H32.46V21.23C31.43 21.23 31.43 21.55 31.43 22.49V22.63V22.63ZM19.56 18.5V25.95H18.99L11.71 18.25C11.73 18.45 11.74 18.65 11.73 18.85V23.52C11.73 24.95 11.73 25.48 13.01 25.48V25.88H9.57V25.5C10.9 25.5 10.9 24.87 10.9 23.55V18.23C10.9 17.43 10.9 16.55 9.52 16.55V16.2H12.76L18.77 22.45C18.7355 22.2856 18.7187 22.118 18.72 21.95V18.35C18.72 17.08 18.72 16.52 17.5 16.52V16.18H20.9V16.52C19.63 16.52 19.56 17.07 19.56 18.5V18.5ZM3 25.5V25.9H7.83V25.5C6.93 25.5 6.43 25.45 6.43 24.23V17.85C6.43 16.57 6.85 16.55 7.83 16.55V16.2H3V16.55C3.96 16.55 4.4 16.6 4.4 17.85V24.23C4.4 25.43 3.83 25.5 3 25.5V25.5Z" fill="#000066"/>
<path fill-rule="evenodd" clip-rule="evenodd" d="M48.16 18.73L49.19 19.53L49.85 20.98L50.15 24.73L48.55 25.9H40L39.59 25.75L36.62 25.8L35.17 25.77L34.93 25.65L34.88 24.9L35.24 24.35L36.25 23.87L37.06 23.97L37.46 22.77L38.04 21.73L37.38 20.2L37.87 19.45L37.3 17.32L37.45 15.78L37.97 14.85L38.27 14.13L39.12 13.9L40.62 14.43L41.74 13.93L42.73 14.13L43.14 15.33L44.27 18.57L45.5 19.77L47.34 19.52L47.66 18.82L48.15 18.72L48.16 18.73ZM50.05 15.05L50.63 16.25L49.46 16.55C49.1828 16.4625 48.9122 16.3555 48.65 16.23C48.5832 16.1505 48.5261 16.0632 48.48 15.97L48.43 15.9L48.48 15.25L49.58 14.87L49.92 14.97L50.05 15.05V15.05Z" fill="white"/>
<path fill-rule="evenodd" clip-rule="evenodd" d="M52.61 17.07C56.56 22.23 54 26 47.76 25.75C47.47 25.7 47.84 25.11 48.1 25L48.32 25.43C48.59 25.24 48.35 24.8 48.2 24.73L48.42 24.53C49.5 24.39 47.05 23.95 47.54 25.75H47.17C47.22 25.51 47.05 24.73 47.41 25.05C47.57 24.83 47.5 24.68 47.31 24.5L47.41 24.25C47.41 24.25 47.78 24.38 47.73 24.32C47.45 23.92 48.13 24.4 48 24.02C47.78 23.95 47.24 23.86 47.2 24.1C46.9 24.14 46.7 24.22 46.43 24.23C46.2238 24.4226 46.0972 24.6854 46.075 24.9667C46.0528 25.248 46.1366 25.5274 46.31 25.75H42.34C42.4 25.6 42.49 25.45 42.58 25.32C42.61 25.56 43.13 25.48 43.22 25.32C43.0366 25.2755 42.8657 25.19 42.72 25.07C42.87 24.54 42.38 24.02 41.94 24.52C41.83 24.48 41.7 24.32 41.58 24.32C41.58 24.21 41.58 24.09 41.6 23.98C41.88 23.85 42.14 24.04 42.4 24.05V23.98C42.05 23.48 41.5 23.73 41.18 23.88C40.9747 23.9033 40.7792 23.9806 40.6134 24.1039C40.4476 24.2273 40.3175 24.3924 40.2362 24.5824C40.1549 24.7723 40.1254 24.9805 40.1507 25.1856C40.1759 25.3907 40.255 25.5854 40.38 25.75H35.22C35.0757 25.5641 34.9973 25.3354 34.9973 25.1C34.9973 24.8646 35.0757 24.6359 35.22 24.45C35.206 24.3384 35.2221 24.2251 35.2667 24.1219C35.3113 24.0186 35.3827 23.9292 35.4735 23.8628C35.5644 23.7965 35.6713 23.7557 35.7832 23.7447C35.8951 23.7336 36.008 23.7527 36.11 23.8C36.1728 23.7094 36.2547 23.6338 36.35 23.5784C36.4454 23.5231 36.5517 23.4895 36.6615 23.4799C36.7713 23.4704 36.8819 23.4852 36.9853 23.5232C37.0887 23.5612 37.1825 23.6216 37.26 23.7C37.42 22.94 37.69 22.21 38.04 21.52C37.77 20.67 37.09 19.68 37.74 18.9C37.62 18.9 37.39 19.03 37.38 19.15C37.35 18.91 37.18 18.39 37.55 18.33V17.85L37.25 18.1V17.55C37.73 16.93 37.15 15.64 37.95 15.07V14.53C38.08 14.49 38.15 14.32 38.29 14.28L38.09 14.25C38.23 13.88 38.49 13.56 38.82 13.35C39.05 13.42 39.28 13.47 39.52 13.5C39.4876 13.4448 39.4443 13.3969 39.3927 13.3591C39.3411 13.3212 39.2823 13.2943 39.22 13.28V13.25C39.37 13.15 39.55 13.08 39.74 13.07C39.76 13.24 39.93 13.35 39.98 13.5L40.1 13.55C40.08 13.35 40.17 13.15 39.98 13C40.4 13.06 40.7 13.42 41.11 13.13C41.04 13.33 40.99 13.53 40.96 13.75C41.06 13.67 41.11 13.55 41.21 13.47C41.21 13.32 41.31 13.22 41.35 13.07C41.55 13.04 41.76 13.04 41.97 13.07C41.77 13.13 41.8 13.27 41.8 13.37C42.06 13.33 42.34 13.11 42.56 13.37C42.45 13.43 42.34 13.48 42.24 13.55C42.32 13.55 42.82 13.58 42.88 13.5C43.32 13.75 43.48 14.29 43.66 14.75C43.5973 14.7092 43.5302 14.6757 43.46 14.65C43.96 15.35 44.8 16.05 44.86 17.05C44.74 16.95 44.58 17.02 44.47 16.85C44.4777 16.9773 44.5337 17.0969 44.6266 17.1843C44.7196 17.2717 44.8424 17.3202 44.97 17.32C45.09 17.54 45.17 17.79 45.17 18.05C45.118 17.9965 45.0571 17.9525 44.99 17.92C44.79 18.07 45.14 18.3 45.23 18.32V18.87C45.5484 19.1562 45.9525 19.329 46.3794 19.3616C46.8062 19.3942 47.2319 19.2846 47.59 19.05C49.43 16.27 51.74 22.55 50.78 24.3C55.66 24.77 53.75 17.6 50.86 16.52L49.75 16.57C49.27 16.41 48.77 15.95 48.91 16.02C48.94 15.96 49.34 16.03 49.33 15.98C49.51 15.88 49.72 15.85 49.92 15.88C49.8121 15.7889 49.6849 15.7235 49.5481 15.6889C49.4112 15.6542 49.2682 15.6512 49.13 15.68C49.16 15.74 49.18 15.81 49.18 15.88C49.04 15.84 48.89 15.82 48.74 15.82C48.56 15.58 48.49 15.17 48.15 15.07V15C48.74 14.9 49.35 14.52 49.95 14.75L49.8 14.9C49.95 15.03 50.14 15.1 50.34 15.1L50.21 14.8C50.96 15.61 51.76 16.37 52.61 17.07V17.07ZM40.96 24.8C40.96 25.12 41.03 25.43 41.16 25.73H40.76C40.19 25.25 41.09 24.46 40.54 24.55C40.54 24.5 40.59 24.42 40.69 24.3L41.06 24.23C40.9807 24.409 40.9463 24.6047 40.96 24.8V24.8ZM46.97 24.4V24.38V24.4ZM46.97 24.4C46.83 24.83 46.82 25.3 46.95 25.73H46.63C46.48 25.45 46.25 24.95 46.48 24.7C46.55 24.8 46.55 24.91 46.63 25C46.6736 24.9664 46.7089 24.9232 46.7331 24.8738C46.7574 24.8244 46.7701 24.7701 46.7701 24.715C46.7701 24.6599 46.7574 24.6056 46.7331 24.5562C46.7089 24.5068 46.6736 24.4636 46.63 24.43L46.96 24.4H46.97ZM42.24 24.65C42.77 24.69 42.24 25.41 42.19 25.72H41.97C42.03 25.53 41.87 24.62 42.24 24.65V24.65ZM41.74 24.77L41.45 24.5C41.1 24.76 41.36 25.36 41.45 25.73H41.7L41.75 24.77H41.74ZM50.38 15.8C50.4485 15.8034 50.5147 15.8258 50.5712 15.8646C50.6277 15.9035 50.6723 15.9573 50.7 16.02C50.73 15.86 50.51 15.51 50.43 15.38C50.27 15.38 50.16 15.48 50.01 15.5C50.14 15.5 50.28 15.68 50.38 15.8V15.8ZM49.67 15.27H49.3C49.11 15.15 49.04 15.4 48.8 15.17C48.98 15.15 49.15 15.09 49.3 15C49.44 15.07 49.56 15.16 49.67 15.28V15.27ZM48.3 19.07C48.5 19.11 48.69 19.17 48.86 19.27C48.8471 19.1489 48.806 19.0324 48.74 18.93C48.6 18.88 48.35 18.98 48.34 18.75C48.09 18.58 47.76 19.07 47.88 19.25C48 19.15 48.15 19.1 48.3 19.07V19.07ZM48.81 19.77C48.53 19.71 48.15 19.68 47.98 19.97C47.75 19.45 48.78 19.19 48.84 19.77H48.81ZM49.6 20.52C49.372 20.3476 49.0918 20.2585 48.8062 20.2676C48.5205 20.2767 48.2465 20.3834 48.03 20.57L47.96 20.25C48.47 19.95 49.44 19.77 49.59 20.52H49.6ZM49.72 21.27C49.72 21.17 49.62 21.03 49.62 20.93C49.14 20.6 48.72 20.83 48.1 20.88V21.23C48.9 21.11 48.85 20.86 49.72 21.27V21.27ZM49.4 22.02C49 21.98 48.9 21.48 48.4 21.8C48.3373 21.725 48.2867 21.6406 48.25 21.55C48.8 21.32 49.37 21.35 49.4 22.02ZM43.41 16.98L43.12 17.05L43.29 16.3C43.3662 16.3938 43.4172 16.5054 43.4382 16.6244C43.4592 16.7434 43.4495 16.8658 43.41 16.98ZM49.94 23.73C50.0195 23.6233 50.0598 23.4926 50.0544 23.3597C50.0489 23.2268 49.9979 23.0998 49.91 23C49.82 23.16 49.82 23.28 49.74 23.43L49.94 23.73ZM49.23 22.83C48.96 22.62 48.81 22.03 48.34 22.53C48.26 21.76 48.82 22.17 49.23 22.27V22.82V22.83ZM46.53 20.27C46.68 20.5 46.87 20.69 47.09 20.85C47.17 20.45 46.68 20.17 46.35 20.05L46.53 20.27V20.27ZM44.18 18.27C43.83 18.29 43.68 17.88 43.76 17.57C43.79 17.67 43.84 17.77 43.91 17.85C44.08 17.8 44.12 18.15 44.18 18.27V18.27ZM49.72 24.4C49.75 24.3 49.88 24.1 49.74 24.1C49.7552 24.0022 49.7404 23.902 49.6975 23.8128C49.6547 23.7235 49.5858 23.6493 49.5 23.6L49.38 23.85C49.46 24.08 49.7 24.19 49.72 24.4V24.4ZM49.12 23.2C49.12 23.32 49.09 23.44 49.06 23.55C48.81 23.52 48.81 23.25 48.81 23.2C48.64 23 48.44 23.16 48.25 23.18C48.17 22.99 48.27 22.97 48.27 22.82C48.37 22.82 48.47 22.75 48.57 22.82C48.74 22.75 48.84 22.94 49.01 22.92C49.04 23.02 49.08 23.12 49.13 23.2H49.12ZM47.39 21.93C47.37 21.07 46.94 21.66 47.39 22.18C47.3646 22.0986 47.3646 22.0114 47.39 21.93V21.93ZM44.42 19.03V19.05C44.22 18.93 44.1 18.73 43.83 18.87C43.83 18.95 43.88 18.97 43.91 19.02C44.04 18.97 44.34 19.13 44.41 19.05H44.42V19.02V19.03ZM44.59 19.8C44.6735 19.8655 44.7757 19.9028 44.8817 19.9064C44.9878 19.91 45.0923 19.8797 45.18 19.82C45.0675 19.7879 44.9599 19.7408 44.86 19.68L44.59 19.8ZM46.92 21.8L46.9 22.5C46.6 21.95 46.56 20.93 45.9 20.55C45.9877 20.5373 46.0771 20.5441 46.1618 20.5701C46.2465 20.596 46.3245 20.6404 46.39 20.7C46.38 20.77 46.48 20.84 46.53 20.9C46.79 20.91 46.72 21.25 46.9 21.38L46.7 21.6C46.79 21.67 46.9 21.7 46.95 21.8H46.92V21.8ZM45.51 20.92C45.73 20.77 45.48 20.56 45.38 20.4C45.3372 20.4938 45.321 20.5975 45.3334 20.6999C45.3457 20.8022 45.3861 20.8991 45.45 20.98C45.469 20.959 45.489 20.939 45.51 20.92V20.92ZM48.79 23.92C48.74 23.72 48.52 23.69 48.37 23.65C48.3896 23.5853 48.3964 23.5173 48.39 23.45C48.09 23.23 47.96 23.5 47.73 23.72C47.99 23.6 48.21 23.44 48.25 23.9C48.4095 23.8919 48.5682 23.9264 48.71 24L48.79 23.92V23.92ZM45.89 21.65C45.92 21.65 46.01 21.58 46.01 21.52H46.04C46.11 21.45 46.04 21.32 45.92 21.25C45.9 21.1 45.95 20.98 45.77 20.95C45.7316 21.0037 45.7043 21.0645 45.6895 21.1289C45.6748 21.1933 45.673 21.2599 45.6841 21.325C45.6953 21.3901 45.7192 21.4523 45.7545 21.5081C45.7899 21.5639 45.8359 21.6121 45.89 21.65ZM43.41 18.18C42.9915 17.9354 42.5232 17.7884 42.04 17.75C42.0547 17.8337 42.0478 17.9197 42.02 18C42.42 18.17 42.78 18.4 43.12 18.68V19C42.8135 18.628 42.4129 18.3449 41.96 18.18C41.94 18.28 41.8 18.34 41.79 18.48C41.52 18.14 40.8 18.21 40.84 17.7C40.919 17.6705 40.9905 17.6237 41.0493 17.5632C41.1081 17.5027 41.1528 17.4299 41.18 17.35C42.31 16.78 39.09 16.95 40.47 17.3C40.458 17.3841 40.4753 17.4697 40.519 17.5426C40.5627 17.6154 40.6302 17.671 40.71 17.7V18.08C40.3643 18.1015 40.0285 18.2042 39.73 18.38C39.6349 18.3126 39.5534 18.2278 39.49 18.13C39.09 18.3 38.71 18.53 38.36 18.8V18.55C38.66 18.31 38.99 18.12 39.34 17.98V17.73C39.1287 17.7007 38.9138 17.7139 38.7077 17.7688C38.5016 17.8238 38.3086 17.9194 38.14 18.05C38.14 17.97 38.14 17.9 38.12 17.82C38.49 17.59 38.92 17.47 39.37 17.5C39.37 17.41 39.37 17.21 39.27 17.2C39.05 17 38.9 16.74 38.85 16.45L39 16.4C38.93 16.2 38.85 15.68 39 15.5C38.8361 15.4118 38.6954 15.2861 38.5894 15.1332C38.4834 14.9802 38.4151 14.8044 38.39 14.62L38.66 14.12C38.6992 14.1227 38.7385 14.1149 38.7736 14.0973C38.8088 14.0797 38.8386 14.053 38.86 14.02C38.9865 13.9481 39.1295 13.9103 39.275 13.9103C39.4205 13.9103 39.5635 13.9481 39.69 14.02C39.74 14.26 40.05 14.29 40.09 14.6C40.3323 14.617 40.5695 14.678 40.79 14.78C41.05 14.63 41.36 14.58 41.65 14.63C41.71 14.49 41.75 14.34 41.8 14.2C41.9195 14.1119 42.0587 14.0543 42.2055 14.0324C42.3524 14.0104 42.5024 14.0247 42.6424 14.074C42.7824 14.1233 42.9083 14.2061 43.009 14.3152C43.1096 14.4244 43.1821 14.5565 43.22 14.7C43.2106 14.8555 43.1683 15.0072 43.0959 15.1451C43.0235 15.283 42.9227 15.404 42.8 15.5C42.73 15.5 42.7 15.59 42.63 15.57C42.71 15.85 42.69 16.14 42.56 16.4C42.63 16.35 42.73 16.35 42.73 16.25C42.7402 16.5039 42.6791 16.7555 42.5537 16.9765C42.4282 17.1974 42.2433 17.3788 42.02 17.5V17.6C42.51 17.6 42.99 17.74 43.42 17.98V18.18H43.41ZM44.61 20.43L44.79 20.35C44.5727 20.285 44.3762 20.1644 44.22 20C44.1348 20.092 44.0229 20.1549 43.9 20.18C43.9969 20.2681 44.1107 20.3357 44.2344 20.3787C44.3582 20.4216 44.4893 20.4391 44.62 20.43H44.61ZM43.83 19.57C43.63 19.57 43.41 19.67 43.29 19.47L43.51 19.25L43.83 19.57ZM46.45 23.17C46.75 22.75 46.29 22.39 46.38 21.77C45.61 22.29 46.55 22.72 46.33 23.35C46.36 23.29 46.4 23.23 46.45 23.18V23.17ZM45.85 22.45C45.85 22.65 45.69 22.83 45.67 23.02C45.6808 22.8375 45.6198 22.6581 45.5 22.52C45.21 21.75 45.55 21.49 45.82 22.45H45.84H45.85ZM43 19.95H43.01V19.97L43 19.95ZM43 19.95C42.83 19.98 42.68 19.82 42.52 19.77C42.4802 19.6004 42.4301 19.4335 42.37 19.27C42.8 19.35 42.71 19.71 43 19.95V19.95ZM43.97 20.95C43.8046 20.9537 43.6404 20.9216 43.4885 20.8561C43.3366 20.7905 43.2007 20.6929 43.09 20.57C43.2 20.51 43.33 20.46 43.46 20.43C43.59 20.63 43.76 20.81 43.96 20.95H43.97ZM38.01 15.68L38.25 15.6V15.18C38.17 15.2353 38.1058 15.3105 38.0638 15.3982C38.0217 15.4859 38.0031 15.583 38.01 15.68ZM42.61 20.43C42.05 20.69 41.96 19.9 42.18 19.55C42.26 19.89 42.27 20.23 42.6 20.43H42.62H42.61ZM41.34 19.2C41.5236 19.0203 41.6311 18.7768 41.64 18.52C41.3561 18.3735 41.0418 18.2954 40.7224 18.292C40.4029 18.2885 40.087 18.3597 39.8 18.5C39.78 18.7 39.84 18.9 39.97 19.05L40.14 18.87C40.17 19.01 40.18 19.14 40.17 19.27C40.26 19.35 40.37 19.38 40.49 19.37C40.54 19.23 40.54 19.03 40.69 18.95L40.73 18.98L40.76 19.38C40.8167 19.3982 40.8769 19.4031 40.9358 19.3945C40.9947 19.3858 41.0509 19.3637 41.1 19.33L41.2 18.88C41.29 18.96 41.34 19.08 41.34 19.2V19.2ZM43.4 21.33C43.2036 21.3695 43.0006 21.3601 42.8087 21.3025C42.6169 21.245 42.4422 21.1411 42.3 21C42.5 20.93 42.7 20.9 42.91 20.9L43.01 21.13C43.15 21.18 43.28 21.24 43.41 21.33H43.4ZM38.1 16.8C38.15 16.63 38.16 16.45 38.14 16.26L38.32 16.06C37.76 16.15 37.88 16.8 38.05 17.16C38.05 17.04 38.07 16.92 38.1 16.8V16.8ZM41.82 20.57C41.42 20.46 41.24 20.17 41.65 19.94C41.67 20.16 41.73 20.37 41.82 20.57ZM44.96 24.12H44.98C45 23.62 45.03 23.16 44.62 22.82C44.62 23.2 44.92 23.52 44.79 23.94C44.86 23.94 44.91 24.05 44.96 24.12V24.12ZM44.2 22.82C44.12 22.8351 44.0374 22.826 43.9626 22.7939C43.8878 22.7619 43.8242 22.7083 43.78 22.64C43.6102 22.5881 43.4318 22.5702 43.255 22.5874C43.0783 22.6045 42.9067 22.6564 42.75 22.74C42.8103 22.5927 42.9148 22.4677 43.049 22.3822C43.1833 22.2967 43.3407 22.2549 43.4997 22.2626C43.6587 22.2703 43.8114 22.327 43.9368 22.4251C44.0622 22.5231 44.1542 22.6576 44.2 22.81V22.82ZM40.79 20.67C41.04 20.57 41.06 20.24 41.06 19.99C40.96 20.12 40.85 20.23 40.72 20.31L40.79 20.67ZM42.19 21.51C42.0864 21.6006 41.957 21.6566 41.82 21.67C41.606 21.4748 41.4178 21.253 41.26 21.01C41.4469 21.0106 41.6309 21.0564 41.7963 21.1435C41.9617 21.2305 42.1036 21.3563 42.21 21.51H42.19ZM44.09 23.44C44.1457 23.4574 44.1994 23.4809 44.25 23.51C44.25 22.92 43.57 22.95 43.13 22.97V22.92C42.91 22.94 42.7 22.98 42.49 23.04L42.32 23.44C42.49 23.29 42.7 23.2 42.93 23.17C43.15 23.37 43.55 23.12 43.83 23.24C43.8551 23.2891 43.8904 23.3324 43.9335 23.3668C43.9766 23.4013 44.0265 23.4263 44.08 23.44H44.09V23.44ZM40.33 20.56C40.13 20.36 39.96 20.19 39.96 19.96C40.06 19.96 40.16 19.98 40.26 20.04C40.26 20.24 40.33 20.35 40.32 20.56H40.33V20.56ZM39.56 19.99L39.69 19.56L39.32 19.36C39.37 19.59 39.45 19.8 39.56 19.99V19.99ZM44.59 24.22C44.53 24.35 44.49 24.49 44.44 24.64C44.37 24.42 44.3 24.11 44.05 24.12C44.0463 24.0689 44.0311 24.0194 44.0055 23.975C43.98 23.9306 43.9447 23.8926 43.9024 23.8638C43.8601 23.8349 43.8119 23.816 43.7612 23.8084C43.7106 23.8009 43.6589 23.8048 43.61 23.82C43.62 23.95 43.83 23.94 43.68 24.12C43.7984 24.155 43.8997 24.2326 43.9643 24.3379C44.029 24.4431 44.0524 24.5685 44.03 24.69L43.83 24.82C43.8295 24.6653 43.7912 24.513 43.7184 24.3765C43.6457 24.2399 43.5407 24.1232 43.4125 24.0365C43.2844 23.9497 43.137 23.8956 42.9832 23.8788C42.8294 23.862 42.6738 23.883 42.53 23.94C42.76 23.26 44.22 23.44 44.37 24.09C44.42 24.09 44.57 24.09 44.57 24.22H44.59V24.22ZM41.82 22.59H41.9L41.7 22.21H41.43C41.42 22.44 41.63 22.53 41.82 22.59V22.59ZM39.25 20.09L39.21 20.08C39.1513 19.8462 39.0263 19.6344 38.85 19.47C38.85 19.34 38.72 19.25 38.61 19.24C38.6117 19.4247 38.6703 19.6043 38.7776 19.7546C38.8849 19.9048 39.0359 20.0185 39.21 20.08V20.12L39.25 20.09V20.09ZM40.73 21.63C40.8104 21.5509 40.866 21.4502 40.89 21.34L40.86 21.31C40.46 21.3 40.3 21.79 40.08 22.04C40.25 21.98 40.67 21.82 40.73 21.64V21.63ZM43.39 24.69L43.29 24.79C43.24 24.42 42.99 24.35 42.7 24.19C42.97 23.99 43.49 24.39 43.36 24.69H43.39V24.69ZM39.91 21.56C40.1 21.46 40.25 21.28 40.32 21.06C39.96 21.03 39.71 21.41 39.42 21.56C39.58 21.6 39.74 21.6 39.91 21.56ZM41.01 22.66C40.75 22.89 40.51 22.69 40.39 22.44H40.89L41.01 22.67V22.66ZM38.37 20.14L38.51 20.01L38.21 19.94C38.1262 20.0012 38.0661 20.0896 38.04 20.19C38.09 20.29 38.11 20.39 38.12 20.49C38.1594 20.3501 38.2482 20.2293 38.37 20.15V20.14ZM38.9 20.54C38.86 20.78 38.74 21 38.56 21.17C38.56 20.96 38.65 20.78 38.66 20.59C38.74 20.55 38.83 20.49 38.9 20.54ZM39.24 21.47L39.39 20.97H39.24C39.11 21.21 38.91 21.42 38.66 21.54C38.86 21.58 39.06 21.55 39.24 21.47ZM39.56 22.72L39.51 23.26C39.26 22.75 38.67 22.12 38.09 22.44V22.31L38.33 22.04C38.5137 22.0372 38.6956 22.0763 38.8619 22.1543C39.0282 22.2322 39.1746 22.347 39.29 22.49V22.59C39.38 22.64 39.47 22.69 39.56 22.72V22.72ZM39.1 24.04L39.34 23.81C39.4 23.49 39.06 23.5 39.03 23.24C38.76 23.11 38.62 22.82 38.33 22.74C38.2807 22.6903 38.2173 22.6571 38.1484 22.6448C38.0796 22.6324 38.0086 22.6417 37.9451 22.6712C37.8817 22.7007 37.8289 22.7491 37.794 22.8098C37.7591 22.8704 37.7437 22.9403 37.75 23.01L38.17 22.94C38.55 23.35 39.12 23.44 39.1 24.04ZM38.85 24.31L38.73 24.67C38.6898 24.3835 38.549 24.1206 38.3329 23.9283C38.1167 23.7359 37.8392 23.6267 37.55 23.62C37.5451 23.5689 37.5515 23.5172 37.5688 23.4689C37.5861 23.4205 37.6138 23.3765 37.65 23.34C37.8437 23.3192 38.0382 23.3727 38.194 23.4896C38.3499 23.6065 38.4557 23.7782 38.49 23.97L38.81 24.04L38.85 24.31V24.31ZM37.45 25.31C37.45 25.31 37.89 24.91 37.89 24.67L37.92 24.64C37.92 24.44 37.7 24.32 37.55 24.24L37.7 24.04C36.9 23.76 36.68 24.91 36.8 25.47C36.93 25.16 37.1 24.87 37.28 24.59C37.38 24.6 37.48 24.65 37.55 24.72C37.55 24.92 37.45 25.12 37.45 25.32V25.31ZM36.7 24.44C36.7 24.58 36.67 24.72 36.6 24.84C36.57 24.69 36.48 24.51 36.3 24.51C36.2246 24.6284 36.1812 24.7645 36.1742 24.9047C36.1672 25.045 36.1967 25.1846 36.26 25.31C36.1764 25.406 36.0744 25.4842 35.96 25.54C35.8659 25.2753 35.8441 24.9902 35.8968 24.7143C35.9496 24.4383 36.0749 24.1814 36.26 23.97H36.65C36.48 23.97 36.48 24.11 36.48 24.22C36.5105 24.2172 36.5413 24.2208 36.5703 24.2306C36.5994 24.2404 36.6261 24.2562 36.6487 24.2769C36.6713 24.2976 36.6893 24.3228 36.7016 24.3509C36.7138 24.379 36.7201 24.4093 36.72 24.44H36.7ZM35.77 24.81L35.82 24.84C35.8417 24.7921 35.8538 24.7403 35.8555 24.6877C35.8572 24.6351 35.8486 24.5827 35.83 24.5335C35.8114 24.4843 35.7833 24.4392 35.7473 24.4008C35.7112 24.3625 35.668 24.3316 35.62 24.31C35.3 24.55 35.14 25.36 35.54 25.54C35.64 25.24 35.44 25 35.56 24.72C35.64 24.72 35.71 24.76 35.76 24.82H35.77V24.81ZM42.85 15.19C42.9081 14.9947 42.8923 14.7848 42.8056 14.6004C42.7189 14.416 42.5674 14.2699 42.38 14.19C42.18 14.3 41.91 14.45 41.94 14.72C42.18 14.85 42.38 15.05 42.51 15.29C42.63 15.2864 42.7471 15.2519 42.85 15.19V15.19ZM41.65 15.29C41.67 15.29 41.72 15.29 41.72 15.39C41.35 15.5 41.35 15.18 41.09 15.09C41.37 14.96 41.44 15.2 41.65 15.29V15.29ZM42.24 15.81C42.24 15.81 42.31 15.81 42.24 15.79V15.81ZM42.24 15.79L41.5 15.66C41.45 15.77 41.27 15.78 41.25 15.89H41.18C41.24 16.18 41.26 16.47 41.26 16.76C41.3378 16.7626 41.4116 16.7953 41.4657 16.8513C41.5198 16.9073 41.55 16.9821 41.55 17.06L41.95 17.26C42.02 17.25 42.05 17.11 42.09 17.01C41.95 16.84 41.65 16.96 41.65 16.64L41.45 16.57C41.45 16.38 41.43 16.2 41.4 16.02H41.45L41.55 16.14C41.88 16.22 42.03 15.91 42.24 15.79V15.79ZM40.24 15.12C40.35 15.06 40.5 15 40.54 15.06H40.57C40.47 15.16 40.38 15.26 40.32 15.39H39.93C39.95 15.23 40.09 15.16 40.23 15.12H40.24ZM39.81 14.69C39.48 13.61 38.03 14.72 39.15 15.12C39.35 14.95 39.57 14.81 39.81 14.69ZM41.81 17.72V17.86L41.45 17.72H41.82H41.81ZM40.27 15.86C40.28 15.56 39.46 15.69 39.29 15.66C39.29 15.713 39.3111 15.7639 39.3486 15.8014C39.3861 15.8389 39.437 15.86 39.49 15.86C39.52 16.06 39.71 16.22 39.89 16.09C40.28 16.06 39.99 16.87 39.61 16.86C39.61 16.99 39.5 17.15 39.61 17.26C39.72 17.19 39.84 17.13 39.96 17.09C39.96 16.96 40.06 16.86 40.2 16.79C40.18 16.48 40.27 16.17 40.27 15.86V15.86ZM40 17.7L40.01 17.72V17.7H40ZM39.82 17.66C39.89 17.66 39.96 17.64 40 17.7C39.887 17.7182 39.7823 17.7705 39.7 17.85C39.6653 17.8304 39.6373 17.8009 39.6194 17.7653C39.6016 17.7296 39.5948 17.6895 39.6 17.65C39.67 17.67 39.74 17.68 39.82 17.66Z" fill="#FF6600"/>
</g>
<defs>
<clipPath id="clip0_545_4260">
<rect width="58" height="40" fill="white"/>
</clipPath>
</defs>
</svg>
