<svg width="58" height="40" viewBox="0 0 58 40" fill="none" xmlns="http://www.w3.org/2000/svg">
<rect x="0.5" y="0.5" width="57" height="39" rx="3.5" fill="white" stroke="#F3F3F3"/>
<path fill-rule="evenodd" clip-rule="evenodd" d="M31.4283 22.625V25.1C30.2198 25.761 28.875 26.1208 27.5038 26.15C23.9226 26.15 21.7642 24 21.7642 21.3C21.7642 18.375 24.217 15.975 27.3566 15.975C28.0254 15.9772 28.689 16.0955 29.3189 16.325C29.4729 16.3712 29.6069 16.4242 29.7294 16.4727C29.9386 16.5554 30.1144 16.625 30.3 16.625C30.5645 16.625 30.5913 16.302 30.6118 16.0551L30.6118 16.0548C30.6142 16.0271 30.6164 16.0002 30.6189 15.975H30.9623L31.2811 19.325H30.8642C30.725 18.7242 30.4184 18.1772 29.9811 17.75C29.306 17.0827 28.3948 16.722 27.4547 16.75C25.2962 16.75 24.0453 18.475 24.0453 21.075C24.0453 23.675 25.5906 25.375 27.6264 25.375C28.257 25.3668 28.8777 25.213 29.4415 24.925V22.375C29.4415 21.55 29.3189 21.225 28.1415 21.225V20.85H32.4585V21.225C31.4255 21.225 31.4262 21.5456 31.4281 22.4938L31.4283 22.625ZM19.5566 18.5V25.95H18.9925L11.7075 18.25C11.7331 18.4488 11.7413 18.6496 11.7321 18.85V23.525C11.7321 24.95 11.7321 25.475 13.0075 25.475V25.875H9.57358V25.5C10.8981 25.5 10.8981 24.875 10.8981 23.55V18.225C10.8981 17.425 10.8981 16.55 9.52453 16.55V16.2H12.7623L18.7717 22.45C18.7375 22.2856 18.721 22.118 18.7226 21.95V18.5L18.7228 18.3527C18.7245 17.082 18.7252 16.525 17.4962 16.525V16.175H20.9057V16.525C19.6302 16.525 19.5566 17.075 19.5566 18.5ZM3 25.5V25.9H7.83208V25.5C6.92453 25.5 6.43396 25.45 6.43396 24.225V17.85C6.43396 16.575 6.85094 16.55 7.83208 16.55V16.2H3V16.55C3.9566 16.55 4.39811 16.6 4.39811 17.85V24.225C4.39811 25.425 3.83396 25.5 3 25.5Z" fill="#000066"/>
<path fill-rule="evenodd" clip-rule="evenodd" d="M48.1566 18.725L49.1868 19.525L49.849 20.975L50.1434 24.725L48.549 25.9H40.0132L39.5962 25.75L36.6283 25.8L35.1811 25.775L34.9358 25.65L34.8868 24.9L35.2547 24.35L36.2604 23.875L37.0698 23.975L37.4623 22.775L38.0509 21.725L37.3887 20.2L37.8792 19.45L37.3151 17.325L37.4623 15.775L37.9773 14.85L38.2717 14.125L39.1302 13.9L40.6264 14.425L41.7547 13.925L42.7358 14.125L43.1528 15.325L44.2811 18.575L45.5075 19.775L47.3472 19.525L47.666 18.825L48.1566 18.725ZM50.0453 15.05L50.6339 16.25L49.4566 16.55C49.1797 16.4609 48.9093 16.3523 48.6472 16.225C48.5805 16.1489 48.5229 16.0649 48.4755 15.975L48.4264 15.9L48.4755 15.25L49.5792 14.875L49.9226 14.975L50.0453 15.05Z" fill="white"/>
<path fill-rule="evenodd" clip-rule="evenodd" d="M52.3264 17.25C53.4146 18.3475 54.032 19.8397 54.0434 21.4C54.0434 22.675 53.5528 24 52.7924 24.825C52.2448 25.4113 51.4767 25.7299 50.683 25.7H50.266C50.0625 25.8396 49.8244 25.9176 49.5792 25.925H47.4698C47.4698 25.79 47.5051 25.7 47.5334 25.628C47.5522 25.58 47.5679 25.54 47.5679 25.5C47.5679 25.4 47.7151 25.175 47.8132 25.175L48.0339 25.6C48.1288 25.511 48.1746 25.3802 48.1566 25.25C48.1566 25.125 47.9113 24.9 47.9113 24.9L48.1321 24.7C48.1768 24.7343 48.2012 24.7737 48.2214 24.8064C48.2455 24.8455 48.2637 24.875 48.3038 24.875C48.4509 24.875 48.549 24.8 48.549 24.75C48.549 24.7283 48.5167 24.7019 48.4761 24.6688L48.476 24.6687L48.476 24.6687C48.4231 24.6255 48.356 24.5708 48.3283 24.5C48.2339 24.4117 48.1128 24.3588 47.9849 24.35C47.7396 24.35 47.3226 24.975 47.2981 25.325L47.249 25.925H46.8811C46.88 25.6576 46.8964 25.3903 46.9302 25.125C46.9302 25.0847 47.0101 25.1421 47.0797 25.192C47.0962 25.2039 47.1122 25.2154 47.1264 25.225C47.1264 25.1828 47.157 25.1361 47.1868 25.0906C47.2277 25.0284 47.267 24.9684 47.2245 24.925L47.0283 24.675L47.1264 24.425C47.1264 24.425 47.4943 24.55 47.4453 24.5C47.4453 24.4693 47.4205 24.4427 47.3981 24.4187C47.3658 24.384 47.3383 24.3545 47.3962 24.325C47.4453 24.3 47.5189 24.325 47.5832 24.3469C47.6476 24.3688 47.7028 24.3875 47.7151 24.35V24.2C47.5583 24.1413 47.3913 24.1157 47.2245 24.125C46.9794 24.125 46.9662 24.1546 46.9398 24.2137C46.9318 24.2315 46.9227 24.2519 46.9056 24.275C46.7434 24.2971 46.6194 24.324 46.5124 24.3472L46.5124 24.3472L46.5124 24.3472C46.3768 24.3766 46.2687 24.4 46.1453 24.4L45.7773 24.9C45.7676 25.1358 45.7924 25.3717 45.8509 25.6L46.0226 25.925H42.049C42.1182 25.7762 42.2002 25.6339 42.2943 25.5C42.2943 25.625 42.3679 25.625 42.3924 25.625H42.6868C42.7859 25.6382 42.8829 25.5888 42.9321 25.5C42.7524 25.4547 42.5849 25.3693 42.4415 25.25V24.875C42.4417 24.7711 42.3996 24.6717 42.3252 24.6006C42.2508 24.5295 42.1508 24.4931 42.049 24.5C41.8955 24.5038 41.7516 24.5771 41.6566 24.7C41.6075 24.68 41.5585 24.644 41.5094 24.608C41.4358 24.554 41.3623 24.5 41.2887 24.5V24.325L41.3132 24.15C41.5346 24.0802 41.7745 24.1073 41.9755 24.225H42.1226V24.15C41.8901 23.8826 41.5273 23.7755 41.1906 23.875C41.1173 23.907 41.0753 23.9708 41.0418 24.0219C40.9966 24.0905 40.9666 24.1361 40.8962 24.05C40.8193 24.05 40.749 24.0774 40.682 24.1035C40.6208 24.1273 40.5623 24.15 40.5038 24.15L40.2585 24.2C40.2339 24.2125 40.2339 24.2188 40.2339 24.2344C40.2339 24.25 40.2339 24.275 40.2094 24.325C40.0746 24.5122 39.9595 24.7133 39.866 24.925C39.8314 25.1592 39.8481 25.3983 39.9151 25.625C39.9899 25.7134 40.0481 25.8151 40.0868 25.925H34.9358C34.78 25.6894 34.7026 25.4089 34.7151 25.125C34.7216 24.9354 34.8009 24.7558 34.9358 24.625C34.9064 24.389 35.011 24.1564 35.2056 24.025C35.3824 23.8863 35.6227 23.8667 35.8189 23.975C35.9422 23.7901 36.1401 23.671 36.3585 23.65C36.584 23.64 36.8042 23.7208 36.9717 23.875C37.1373 23.1177 37.4012 22.3863 37.7566 21.7C37.4778 21.0486 37.2641 20.3702 37.1189 19.675C37.1298 19.6393 37.1464 19.6055 37.1679 19.575L37.266 19.475C37.3096 19.3317 37.3759 19.1966 37.4623 19.075C37.39 19.0747 37.3202 19.1014 37.266 19.15C37.1679 19.2 37.0943 19.25 37.0943 19.325C37.073 19.2872 37.0644 19.2433 37.0698 19.2L37.0207 18.75C37.0207 18.675 37.1434 18.5 37.266 18.5V18.025C37.163 18.1022 37.0647 18.1857 36.9717 18.275V17.725C37.0618 17.6975 37.1285 17.6198 37.1434 17.525C37.115 16.8935 37.1812 16.2613 37.3396 15.65C37.4098 15.4906 37.5197 15.3527 37.6585 15.25V14.7C37.7198 14.6875 37.7689 14.6375 37.821 14.5844C37.8731 14.5313 37.9283 14.475 38.0019 14.45L37.8056 14.425C37.8986 14.1479 38.0691 13.9046 38.2962 13.725C38.3639 13.6422 38.4473 13.5742 38.5415 13.525L38.5906 13.55C38.698 13.55 38.7939 13.5797 38.8922 13.6101C38.9959 13.6421 39.1024 13.675 39.2283 13.675C39.1646 13.5621 39.0582 13.4807 38.9339 13.45V13.425C39.0848 13.3159 39.2641 13.255 39.449 13.25C39.4628 13.3481 39.5227 13.4226 39.5814 13.4955C39.6275 13.5528 39.6728 13.6091 39.6943 13.675L39.817 13.725C39.8098 13.6739 39.8131 13.6185 39.8165 13.562C39.8246 13.425 39.8332 13.2812 39.6943 13.175C39.952 13.2275 40.2003 13.3203 40.4302 13.45C40.4736 13.45 40.551 13.4153 40.6375 13.3765C40.6977 13.3495 40.7622 13.3206 40.8226 13.3C40.7566 13.5038 40.7073 13.7129 40.6755 13.925C40.7389 13.8733 40.7761 13.8216 40.8108 13.7733L40.8108 13.7733C40.8432 13.7283 40.8734 13.6863 40.9207 13.65C40.9207 13.5565 40.9589 13.4824 40.9995 13.4036C41.024 13.3559 41.0494 13.3065 41.0679 13.25C41.2708 13.2141 41.4782 13.2141 41.6811 13.25C41.5039 13.2952 41.5067 13.422 41.509 13.5198C41.5092 13.5302 41.5094 13.5404 41.5094 13.55H41.5339C41.6031 13.55 41.68 13.5104 41.7471 13.4757C41.7991 13.4489 41.8452 13.425 41.8773 13.425C42.0206 13.3935 42.1696 13.441 42.2698 13.55C42.1593 13.6001 42.0528 13.6586 41.9509 13.725H42.4906L42.5887 13.675C42.9658 13.8886 43.1282 14.3028 43.2898 14.7151C43.3174 14.7854 43.345 14.8558 43.3736 14.925C43.312 14.8843 43.2462 14.8508 43.1773 14.825C43.1773 14.925 43.2019 15.15 43.3245 15.15C43.4055 15.15 43.4437 15.1937 43.4886 15.2449C43.5116 15.2712 43.5365 15.2996 43.5698 15.325C43.6151 15.3661 43.6635 15.4061 43.7124 15.4465C43.902 15.6032 44.1 15.7667 44.1585 16.025C44.3532 16.3915 44.4016 16.5994 44.4488 16.8026L44.4488 16.8026L44.4488 16.8026C44.479 16.9321 44.5086 17.0596 44.5755 17.225C44.534 17.1828 44.4795 17.1718 44.4211 17.16C44.3411 17.1438 44.2539 17.1262 44.183 17.025C44.2017 17.1829 44.2811 17.3268 44.4038 17.425C44.484 17.4776 44.5782 17.5038 44.6736 17.5C44.8038 17.7184 44.8718 17.9695 44.8698 18.225C44.8195 18.1743 44.7615 18.1321 44.6981 18.1C44.5019 18.25 44.8453 18.475 44.9434 18.5V19.05C45.3014 19.358 45.7507 19.5342 46.2189 19.55C46.6024 19.5544 46.9785 19.4412 47.2981 19.225C47.2783 18.9961 47.37 18.7719 47.5434 18.625C47.6809 18.4914 47.8698 18.4273 48.0585 18.45C48.5 18.45 48.917 18.775 49.2849 19.15C50.1881 20.2491 50.6754 21.6415 50.6585 23.075C50.6685 23.5478 50.6107 24.0194 50.4868 24.475C50.6431 24.5951 50.831 24.6647 51.0264 24.675C51.9094 24.675 53.3566 23.65 53.3566 21.1C53.3331 19.2553 52.3149 17.5736 50.7075 16.725C50.4845 16.6582 50.2684 16.6915 50.0481 16.7254C49.8566 16.7549 49.6619 16.7849 49.4566 16.75C49.1354 16.6458 48.8475 16.4559 48.6226 16.2H48.6717C48.7142 16.2723 48.7978 16.2777 48.894 16.2839C48.964 16.2885 49.0408 16.2934 49.1132 16.325C49.1277 16.2806 49.0992 16.245 49.0736 16.2129C49.0559 16.1908 49.0396 16.1704 49.0396 16.15C49.2227 16.061 49.4267 16.0263 49.6283 16.05C49.5216 15.8792 49.3866 15.882 49.2584 15.8847C49.1802 15.8863 49.1046 15.8879 49.0396 15.85C49.0164 15.8186 48.9801 15.8 48.9415 15.8C48.9029 15.8 48.8665 15.8186 48.8434 15.85C48.8693 15.9139 48.8859 15.9813 48.8924 16.05L48.6472 16H48.4509C48.3971 15.9295 48.3529 15.8392 48.307 15.7455C48.2065 15.5404 48.0979 15.3187 47.8623 15.25V15.175C48.0443 15.1413 48.2208 15.0848 48.3965 15.0286C48.7413 14.9181 49.0828 14.8088 49.4566 14.875C49.5056 14.875 49.6283 14.875 49.6528 14.925L49.5056 15.075C49.6445 15.1926 49.8161 15.2626 49.9962 15.275H50.0453L49.9226 14.975C50.1072 15.0686 50.2734 15.1956 50.4132 15.35C50.537 15.6098 50.7029 15.8464 50.9038 16.05C51.129 16.2924 51.3671 16.4697 51.6114 16.6517C51.8459 16.8263 52.0862 17.0052 52.3264 17.25ZM40.6755 24.975C40.6765 25.294 40.7434 25.6091 40.8717 25.9H40.4792C40.461 25.7978 40.4089 25.7025 40.3556 25.6051C40.2656 25.4405 40.1723 25.2699 40.2339 25.05C40.2516 25.0231 40.2947 25.0058 40.3426 24.9866C40.4278 24.9524 40.5283 24.9121 40.5283 24.8C40.5243 24.7919 40.5203 24.7832 40.5162 24.7742C40.4952 24.7277 40.4713 24.675 40.4302 24.675L40.2585 24.725C40.2585 24.675 40.3075 24.6 40.4056 24.475L40.7736 24.4C40.6939 24.5803 40.6602 24.778 40.6755 24.975ZM46.6849 24.575L46.6745 24.5758L46.6849 24.55V24.575ZM46.6745 24.5758C46.6146 24.7274 46.5768 24.8872 46.5623 25.05C46.5751 25.3354 46.6079 25.6194 46.6604 25.9H46.3415C46.1984 25.6662 46.1142 25.4 46.0962 25.125C46.0962 25.05 46.1453 24.875 46.1943 24.875C46.2293 24.9226 46.2476 24.9757 46.2652 25.0265C46.2845 25.0825 46.3029 25.1357 46.3415 25.175C46.4288 25.0998 46.482 24.9914 46.4887 24.875C46.4942 24.7625 46.4373 24.6563 46.3415 24.6L46.6745 24.5758ZM42.1955 24.9783C42.196 24.9852 42.1962 24.9925 42.1962 25V24.975L42.1955 24.9783ZM41.9509 24.825C42.0907 24.825 42.1862 24.8476 42.1955 24.9783C42.1226 25.2932 42.0244 25.6015 41.9019 25.9H41.6811L41.7302 25C41.7302 24.925 41.8773 24.825 41.9509 24.825ZM41.4604 24.95L41.166 24.675C41.0924 24.675 40.9943 24.875 40.9943 24.95C40.9995 25.2742 41.0575 25.5953 41.166 25.9H41.4113L41.4604 24.95ZM50.0943 15.975C50.2339 15.9822 50.3575 16.0694 50.4132 16.2L50.3887 15.975L50.1434 15.55C50.0456 15.55 49.9558 15.5906 49.8784 15.6255C49.82 15.6519 49.7686 15.675 49.7264 15.675C49.849 15.675 49.9962 15.85 50.0943 15.975ZM49.383 15.45H49.0151C48.9652 15.3822 48.904 15.4064 48.8468 15.429C48.8197 15.4397 48.7935 15.45 48.7698 15.45C48.6962 15.45 48.6717 15.45 48.5245 15.35C48.699 15.3305 48.8668 15.2707 49.0151 15.175C49.0562 15.203 49.0955 15.2271 49.1328 15.25C49.2289 15.3089 49.3123 15.36 49.383 15.45ZM48.0094 19.25C48.2066 19.2862 48.397 19.3537 48.5736 19.45V19.425C48.5551 19.3092 48.5134 19.1986 48.4509 19.1C48.4045 19.0843 48.3483 19.0834 48.2931 19.0826C48.1734 19.0808 48.0585 19.0791 48.0585 18.925C47.9826 18.8804 47.8891 18.8804 47.8132 18.925C47.666 19.025 47.4943 19.3 47.5924 19.425C47.7142 19.3309 47.8579 19.2706 48.0094 19.25ZM48.5245 19.95L48.1811 19.9C47.9862 19.8913 47.8007 19.9859 47.6906 20.15C47.638 20.0572 47.638 19.9429 47.6906 19.85C47.7979 19.7212 47.9449 19.6331 48.1075 19.6C48.321 19.5839 48.5118 19.7352 48.549 19.95H48.5245ZM49.306 20.6981L49.3094 20.7V20.725C49.3084 20.7161 49.3073 20.7071 49.306 20.6981ZM49.306 20.6981C49.0294 20.5371 48.7199 20.4436 48.4019 20.425C48.1587 20.4775 47.9315 20.589 47.7396 20.75L47.666 20.425C47.7682 20.412 47.8171 20.3584 47.8614 20.3099C47.9021 20.2653 47.9389 20.225 48.0094 20.225L48.3528 20.2C48.4182 20.2 48.4618 20.1667 48.4909 20.1445C48.5054 20.1334 48.5163 20.125 48.5245 20.125C48.6176 20.125 48.6386 20.1764 48.6578 20.2235C48.6741 20.2633 48.6891 20.3 48.7453 20.3C48.8144 20.3 48.8601 20.2762 48.9001 20.2554C48.931 20.2393 48.9584 20.225 48.9906 20.225C49.1554 20.225 49.2751 20.4787 49.306 20.6981ZM49.4321 21.45H49.4308C49.4253 21.3909 49.4015 21.3275 49.3789 21.2672C49.3558 21.2056 49.3339 21.1473 49.3339 21.1C49.3029 21.0842 49.2743 21.0609 49.2442 21.0363C49.1794 20.9834 49.1079 20.925 48.9906 20.925C48.9047 20.925 48.8863 20.9438 48.8679 20.9625C48.8495 20.9813 48.8311 21 48.7453 21C48.6989 21 48.6526 20.9833 48.6037 20.9657C48.549 20.9459 48.4911 20.925 48.4264 20.925C48.3479 20.925 48.3047 20.945 48.2529 20.969C48.1752 21.005 48.0781 21.05 47.8132 21.05V21.4C47.8739 21.432 47.9411 21.4491 48.0094 21.45C48.1811 21.45 48.3283 21.375 48.3283 21.2C48.3283 21.1411 48.3879 21.1603 48.4519 21.1809C48.4965 21.1953 48.5433 21.2103 48.5736 21.2C48.5736 21.2 48.6717 21.1 48.7453 21.1C48.8846 21.1 48.8947 21.1659 48.9067 21.2442C48.9095 21.2624 48.9123 21.2812 48.917 21.3C48.9415 21.3999 49.186 21.4499 49.4308 21.45C49.4316 21.4585 49.4321 21.4668 49.4321 21.475V21.45ZM49.1129 22.2H49.1132V22.225L49.1131 22.2125L49.1129 22.2ZM49.1129 22.2C49.0145 22.1999 48.7698 22.1499 48.7698 22.05C48.7698 21.95 48.6962 21.875 48.5245 21.875C48.3809 21.8837 48.2399 21.9175 48.1075 21.975C48.0461 21.8999 47.9965 21.8156 47.9604 21.725C48.1087 21.6599 48.2658 21.6178 48.4264 21.6C48.6717 21.6 48.917 21.6 48.917 21.7C48.917 21.7349 48.9408 21.7667 48.9718 21.8081C49.0277 21.8828 49.107 21.9887 49.1129 22.2ZM43.1283 17.15L42.8339 17.225L43.0056 16.475C43.0783 16.5741 43.1362 16.6837 43.1773 16.8L43.1283 17.15ZM49.6528 23.9C49.7449 23.7697 49.7884 23.6101 49.7755 23.45L49.6283 23.175C49.5764 23.2676 49.552 23.3461 49.5296 23.4181L49.5296 23.4181C49.5096 23.4822 49.4913 23.5411 49.4566 23.6L49.6528 23.9ZM48.9415 23C48.8399 23 48.8056 22.9143 48.7655 22.8138C48.7087 22.6716 48.6402 22.5 48.3528 22.5C48.3038 22.5 48.2608 22.5438 48.2148 22.5907C48.1689 22.6375 48.1198 22.6875 48.0585 22.7V22.45C48.0763 22.3374 48.1508 22.2425 48.2547 22.2C48.3944 22.2 48.4306 22.2325 48.4722 22.2696C48.5037 22.2977 48.5381 22.3285 48.6226 22.35C48.721 22.4056 48.8295 22.4396 48.9415 22.45V23ZM46.2437 20.4454L46.2438 20.4455C46.418 20.674 46.5847 20.8925 46.8075 21.025V20.75C46.7506 20.6752 46.6847 20.608 46.6113 20.55C46.5261 20.5283 46.4595 20.4643 46.3912 20.3987C46.3022 20.3132 46.2105 20.225 46.0717 20.225C46.1312 20.2979 46.1879 20.3722 46.2437 20.4454ZM43.8887 18.45C43.6924 18.45 43.5943 18.35 43.4717 18.15C43.4562 18.0172 43.4562 17.8829 43.4717 17.75C43.4962 17.8 43.5125 17.8389 43.5262 17.8712L43.5262 17.8713L43.5262 17.8713L43.5262 17.8713C43.5534 17.9362 43.5698 17.975 43.6189 18.025C43.7038 17.9731 43.7299 18.0411 43.7542 18.1044C43.765 18.1325 43.7755 18.1597 43.7906 18.175C43.8382 18.2605 43.8713 18.3534 43.8887 18.45ZM49.4321 24.575C49.4527 24.5029 49.4859 24.4352 49.5302 24.375C49.5302 24.275 49.4566 24.275 49.4566 24.275C49.4375 24.2269 49.4375 24.1732 49.4566 24.125C49.4384 23.9735 49.346 23.8418 49.2113 23.775L49.0887 24.025C49.1459 24.1535 49.2246 24.2437 49.2922 24.3213C49.3693 24.4098 49.4321 24.4818 49.4321 24.575ZM48.8434 23.375C48.8326 23.4943 48.8079 23.6118 48.7698 23.725C48.5245 23.7 48.5245 23.425 48.5245 23.375C48.4031 23.2336 48.2449 23.2797 48.1106 23.3188C48.055 23.335 48.0035 23.35 47.9604 23.35C47.9152 23.2273 47.9347 23.1799 47.9565 23.1269C47.9703 23.0935 47.9849 23.058 47.9849 23C48.0176 23 48.0503 22.9917 48.083 22.9834C48.1484 22.9667 48.2138 22.95 48.2792 23C48.3748 22.9583 48.4399 22.994 48.5127 23.0338C48.5708 23.0656 48.6337 23.1 48.7207 23.1C48.7551 23.1946 48.7961 23.2865 48.8434 23.375ZM47.1047 22.1077C47.1154 22.0588 47.1264 22.0082 47.1264 21.95V21.925C47.1119 21.8354 47.0784 21.7501 47.0283 21.675C47.0283 21.65 46.9302 21.625 46.8566 21.65C46.8095 21.6661 46.8126 21.6718 46.821 21.687C46.8257 21.6956 46.8321 21.7071 46.8321 21.725C46.8582 21.8315 46.9121 21.9379 46.9679 22.0481L46.9679 22.0481C47.0169 22.145 47.0674 22.2448 47.1019 22.35C47.0718 22.2582 47.0878 22.1851 47.1047 22.1077ZM44.1339 19.2C44.1324 19.2095 44.1304 19.2177 44.1279 19.2249C44.0694 19.2218 44.0283 19.1737 43.9825 19.1201C43.9546 19.0875 43.925 19.0528 43.8887 19.025C43.8202 18.9727 43.7517 18.9934 43.6665 19.0192C43.6297 19.0304 43.5897 19.0425 43.5453 19.05C43.5453 19.1 43.5671 19.1278 43.5889 19.1556C43.5998 19.1695 43.6107 19.1834 43.6189 19.2H43.9377C43.9436 19.2 43.9564 19.2086 43.9728 19.2195L43.9729 19.2195L43.9729 19.2195C44.0211 19.2516 44.1007 19.3046 44.1279 19.2249L44.1339 19.225V19.2ZM44.3056 19.975C44.4668 20.1118 44.6976 20.122 44.8698 20H44.8943C44.782 19.9647 44.6747 19.9143 44.5755 19.85L44.3056 19.975ZM46.6358 21.975L46.6113 22.675C46.5132 22.675 46.5132 22.6 46.5132 22.45C46.471 22.254 46.4136 22.0618 46.3415 21.875C46.2316 21.5902 46.1004 21.3144 45.949 21.05C45.9323 20.9476 45.8469 20.8918 45.7475 20.8269C45.7014 20.7968 45.6523 20.7647 45.6056 20.725C45.7828 20.6997 45.962 20.7545 46.0962 20.875C46.0962 20.9331 46.1256 20.9612 46.1845 21.0174C46.2016 21.0338 46.2213 21.0525 46.2434 21.075C46.3823 21.075 46.419 21.1794 46.4603 21.2971C46.4919 21.3871 46.5263 21.485 46.6113 21.55L46.4151 21.775C46.4469 21.7993 46.4786 21.8184 46.5087 21.8364C46.5716 21.8741 46.6272 21.9074 46.6604 21.975H46.6358ZM45.2219 21.0981C45.2719 21.0563 45.3113 21.0233 45.3113 20.95C45.3113 20.8667 45.2459 20.7834 45.1805 20.7C45.1478 20.6584 45.1151 20.6167 45.0906 20.575C45.0553 20.6795 45.0387 20.7896 45.0415 20.9C45.0666 20.9905 45.1082 21.0753 45.1641 21.15C45.1838 21.13 45.2035 21.1135 45.2218 21.0982L45.2219 21.0981L45.2219 21.0981ZM48.5 24.1L48.4991 24.101C48.4903 23.9895 48.4198 23.9558 48.3409 23.9182L48.3409 23.9182C48.3286 23.9123 48.3162 23.9064 48.3038 23.9C48.2634 23.8315 48.2304 23.8381 48.1927 23.8457C48.1616 23.852 48.1273 23.8589 48.083 23.825C48.1038 23.7606 48.1121 23.6927 48.1075 23.625C48.0223 23.625 47.9741 23.5873 47.8986 23.5283L47.8835 23.5164L47.8623 23.5C47.8264 23.5 47.808 23.5 47.7958 23.5087C47.7828 23.5178 47.7767 23.5366 47.7641 23.575L47.4453 23.9C47.5283 23.9 47.5654 23.865 47.6038 23.8288C47.6448 23.7901 47.6873 23.75 47.7887 23.75C47.8623 23.75 47.9604 23.925 47.9604 24.075C48.1217 24.0655 48.2826 24.1 48.4264 24.175L48.4991 24.101C48.4997 24.1086 48.5 24.1166 48.5 24.125V24.1ZM45.6056 21.825C45.6302 21.825 45.7283 21.75 45.7283 21.7H45.7528C45.8264 21.625 45.7528 21.5 45.6302 21.425C45.6193 21.3807 45.6229 21.3265 45.626 21.2799C45.6299 21.2215 45.6329 21.175 45.6056 21.175L45.483 21.125C45.4175 21.2386 45.3836 21.3683 45.3849 21.5C45.4316 21.625 45.5073 21.7365 45.6056 21.825ZM43.1283 18.35C42.7071 18.1062 42.2378 17.961 41.7547 17.925C41.7675 18.0092 41.7591 18.0952 41.7302 18.175C42.128 18.3448 42.4998 18.5722 42.8339 18.85V19.175C42.5281 18.8009 42.1303 18.5162 41.6811 18.35C41.6811 18.383 41.6526 18.416 41.6186 18.4554C41.5754 18.5055 41.5232 18.566 41.5094 18.65C41.2757 18.4514 40.9978 18.314 40.7 18.25C40.6019 18.25 40.5528 17.875 40.5528 17.875C40.7132 17.8171 40.8394 17.6885 40.8962 17.525H41.0189C41.117 17.525 41.117 17.475 41.117 17.35C41.117 17.15 40.6755 17.15 40.4792 17.15C40.2855 17.1186 40.087 17.1538 39.9151 17.25C39.8635 17.25 39.8722 17.2993 39.882 17.3545C39.8862 17.3781 39.8906 17.4027 39.8906 17.425C39.8906 17.5 39.9887 17.525 39.9887 17.525L40.1849 17.475C40.1849 17.675 40.2339 17.775 40.4302 17.875V18.25C40.0847 18.2712 39.7488 18.3739 39.449 18.55C39.3523 18.4836 39.269 18.3987 39.2038 18.3C38.8013 18.4757 38.4222 18.7025 38.0755 18.975V18.725C38.3757 18.4893 38.7057 18.2959 39.0566 18.15V17.9C38.9594 17.8505 38.8729 17.8664 38.783 17.8829C38.7368 17.8914 38.6896 17.9 38.6396 17.9C38.3549 17.9377 38.0845 18.0497 37.8547 18.225C37.8537 18.1494 37.8454 18.0741 37.8302 18C38.2029 17.7596 38.6409 17.6458 39.0811 17.675V17.55C39.0753 17.5322 39.0708 17.5128 39.0664 17.4938C39.0524 17.433 39.039 17.375 38.983 17.375C38.7659 17.1794 38.6191 16.9154 38.566 16.625L38.7132 16.575C38.6396 16.375 38.566 15.85 38.7132 15.675C38.5324 15.5862 38.3795 15.4476 38.2717 15.275C38.1967 15.124 38.1391 14.9646 38.1 14.8L38.3698 14.3C38.448 14.3045 38.5226 14.2665 38.566 14.2C38.6287 14.1909 38.6783 14.1618 38.7267 14.1334C38.811 14.084 38.8918 14.0365 39.0321 14.1C39.1591 14.1137 39.2832 14.1474 39.4 14.2C39.394 14.2673 39.4216 14.3331 39.4736 14.375C39.6332 14.375 39.6774 14.4927 39.7267 14.624C39.7456 14.6743 39.7653 14.7266 39.7924 14.775C39.8726 14.7954 39.9552 14.8038 40.0377 14.8C40.1272 14.8274 40.2036 14.8448 40.2682 14.8595C40.3806 14.885 40.457 14.9024 40.5038 14.95C40.7658 14.8047 41.0677 14.7519 41.3623 14.8C41.4206 14.6619 41.4698 14.5199 41.5094 14.375C41.5231 14.4309 41.5292 14.4244 41.5446 14.4077C41.5569 14.3946 41.575 14.375 41.6075 14.375C41.6202 14.3647 41.6334 14.3536 41.6472 14.342C41.7662 14.2415 41.9247 14.1078 42.1226 14.175C42.1836 14.2165 42.2613 14.2279 42.3402 14.2394C42.4519 14.2558 42.5659 14.2725 42.6377 14.375L42.9321 14.875C42.8814 14.9577 42.8726 15.0573 42.8641 15.1529C42.8521 15.2888 42.8409 15.4164 42.7113 15.475L42.5151 15.675C42.4809 15.675 42.4626 15.6912 42.443 15.7085C42.4204 15.7285 42.396 15.75 42.3434 15.75C42.4227 16.0246 42.3964 16.3196 42.2698 16.575C42.2918 16.5601 42.3159 16.5497 42.339 16.5397C42.3932 16.5161 42.4415 16.4952 42.4415 16.425V16.675C42.426 16.8677 42.3381 17.0468 42.1962 17.175C42.1226 17.375 41.9509 17.675 41.7302 17.675V17.775C42.2193 17.7817 42.6993 17.9105 43.1283 18.15V18.35ZM44.3302 20.6L44.5019 20.525C44.2874 20.4598 44.0931 20.3393 43.9377 20.175C43.9377 20.175 43.766 20.35 43.6189 20.35C43.8139 20.5264 44.0699 20.6164 44.3302 20.6ZM43.5453 19.75C43.4958 19.75 43.4448 19.7564 43.3942 19.7627C43.244 19.7814 43.0974 19.7997 43.0056 19.65L43.2264 19.425L43.5453 19.75ZM46.1635 23.3513C46.2488 23.2373 46.3415 23.1134 46.3415 23C46.3415 22.9296 46.2714 22.9227 46.2102 22.9166C46.1628 22.9119 46.1207 22.9078 46.1207 22.875C46.1935 22.7454 46.1584 22.5882 46.1354 22.485C46.1273 22.4489 46.1207 22.4195 46.1207 22.4C46.1308 22.2496 46.1226 22.0984 46.0962 21.95C46.0684 21.9972 46.0162 22.0338 45.9619 22.0717C45.8724 22.1342 45.7773 22.2006 45.7773 22.325C45.7773 22.3561 45.7942 22.3872 45.8139 22.4236C45.8418 22.475 45.8755 22.5372 45.8755 22.625L45.8509 22.925C45.8509 23 45.9736 23 46.0472 23C46.1207 23 46.1207 23.35 46.0472 23.525C46.0731 23.4722 46.1172 23.4132 46.1635 23.3513ZM45.5566 22.625C45.5566 22.7335 45.5133 22.8345 45.4698 22.9362C45.4331 23.0221 45.3961 23.1085 45.3849 23.2C45.3941 23.0169 45.3325 22.8374 45.2132 22.7C45.2132 22.6725 45.2265 22.655 45.2396 22.6378C45.2621 22.6081 45.2842 22.5791 45.2377 22.5C45.2377 22.5 45.0415 22.4 45.0415 22.25C45.0415 22.1344 45.1144 22.0485 45.1815 21.9694L45.1815 21.9694L45.1815 21.9694C45.2014 21.9459 45.2209 21.923 45.2377 21.9C45.2377 21.875 45.3849 21.975 45.3849 22.2C45.3823 22.2695 45.3656 22.3376 45.3358 22.4C45.3239 22.4488 45.3702 22.4738 45.4209 22.5011C45.4741 22.5298 45.5321 22.561 45.5321 22.625H45.5566ZM42.7212 20.1288C42.726 20.1277 42.7309 20.1265 42.7358 20.125V20.15C42.731 20.1427 42.7261 20.1357 42.7212 20.1288ZM42.7212 20.1288C42.6184 20.1514 42.524 20.0957 42.4273 20.0386C42.3683 20.0038 42.3085 19.9685 42.2453 19.95C42.2065 19.7804 42.1573 19.6134 42.0981 19.45C42.1377 19.4769 42.1897 19.4966 42.2431 19.5168C42.3884 19.5717 42.5444 19.6307 42.4906 19.85C42.4906 19.9057 42.5361 19.9459 42.5935 19.9964C42.6341 20.0322 42.6807 20.0733 42.7212 20.1288ZM43.6924 21.125C43.5229 21.1406 43.3525 21.1059 43.2019 21.025C43.054 20.9616 42.9205 20.868 42.8094 20.75C42.9236 20.6808 43.0478 20.6302 43.1773 20.6C43.3135 20.7996 43.479 20.9767 43.6679 21.125H43.6924ZM37.7321 15.85L37.9773 15.775V15.35C37.8839 15.4395 37.8015 15.5402 37.7321 15.65V15.85ZM42.3434 20.6C42.1962 20.65 41.9509 20.7 41.9019 20.55C41.7573 20.2948 41.7573 19.9803 41.9019 19.725C41.955 19.9138 41.996 20.1059 42.0245 20.3C42.0383 20.3704 42.1143 20.4249 42.1868 20.477C42.2431 20.5174 42.2974 20.5563 42.3189 20.6H42.3434ZM41.0679 19.375C41.2469 19.1966 41.3523 18.9551 41.3623 18.7L41.166 18.625C40.6375 18.3957 40.0368 18.414 39.5226 18.675C39.5056 18.8744 39.5674 19.0724 39.6943 19.225L39.866 19.05L39.8906 19.125V19.45C39.9821 19.5203 40.0949 19.5557 40.2094 19.55C40.2202 19.4594 40.2541 19.3733 40.3075 19.3C40.3075 19.225 40.3075 19.15 40.4056 19.125L40.4547 19.15C40.4429 19.2507 40.4512 19.3528 40.4792 19.45V19.55C40.5951 19.5886 40.722 19.5702 40.8226 19.5C40.8406 19.3821 40.8652 19.2652 40.8962 19.15L40.9207 19.05C41.0075 19.1362 41.0599 19.2519 41.0679 19.375ZM43.1283 21.5H43.0056C42.653 21.6199 42.3679 21.4181 42.064 21.203L42.0245 21.175C42.2215 21.1051 42.4291 21.0712 42.6377 21.075L42.7358 21.3C42.8733 21.3521 43.0049 21.4192 43.1283 21.5ZM37.8091 16.9873C37.8456 16.8223 37.8831 16.653 37.8547 16.45L38.0264 16.25L37.7566 16.35C37.6738 16.4886 37.6156 16.6409 37.5849 16.8L37.7566 17.35C37.7566 17.224 37.7826 17.1068 37.8091 16.9873L37.8091 16.9873ZM41.5339 20.75C41.489 20.7239 41.4339 20.7011 41.3784 20.6782C41.2221 20.6136 41.0627 20.5477 41.117 20.4C41.1695 20.2852 41.255 20.1892 41.3623 20.125C41.3819 20.3423 41.44 20.554 41.5339 20.75ZM44.6736 24.3H44.6981V24.275C44.7034 24.0248 44.6952 23.7744 44.6736 23.525C44.7048 23.4137 44.5969 23.3023 44.4891 23.191C44.4275 23.1273 44.3659 23.0637 44.3302 23V23.125C44.3499 23.2054 44.3784 23.2875 44.4077 23.3719C44.4877 23.6027 44.5737 23.8505 44.5019 24.125C44.5571 24.125 44.5847 24.1672 44.626 24.2305C44.6398 24.2516 44.6552 24.275 44.6736 24.3ZM43.9132 23C43.7415 23 43.6189 23 43.4962 22.825C43.4887 22.825 43.479 22.8158 43.4677 22.805L43.4677 22.805C43.4418 22.7804 43.4077 22.7479 43.3736 22.8C43.2798 22.8683 43.186 22.8247 43.0882 22.7792C43.0069 22.7414 42.923 22.7024 42.8339 22.725C42.7356 22.8304 42.6066 22.9005 42.466 22.925V22.9C42.4754 22.778 42.5513 22.6717 42.6623 22.625C42.7432 22.6457 42.82 22.5812 42.8978 22.5159C43.0085 22.4229 43.1213 22.3282 43.2509 22.475C43.3308 22.4969 43.4137 22.5054 43.4962 22.5C43.7043 22.6061 43.7888 22.7662 43.8696 22.9191C43.884 22.9464 43.8983 22.9735 43.9132 23ZM40.5038 20.85C40.749 20.75 40.7736 20.425 40.7736 20.175C40.6786 20.303 40.5624 20.413 40.4302 20.5L40.5038 20.85ZM41.9019 21.7C41.7971 21.7872 41.6687 21.8395 41.5339 21.85C41.3194 21.6588 41.1298 21.4404 40.9698 21.2L41.5339 21.3C41.674 21.4236 41.8052 21.5573 41.9264 21.7H41.9019ZM43.7979 23.6204C43.8538 23.6425 43.911 23.6652 43.9623 23.7L43.9132 23.425C43.6751 23.1382 43.3224 23.1435 42.973 23.1487C42.9265 23.1494 42.8801 23.15 42.8339 23.15V23.1C42.7178 23.101 42.6023 23.1178 42.4906 23.15C42.3943 23.1821 42.2959 23.2072 42.1962 23.225L42.0245 23.625C42.1999 23.4772 42.4122 23.3819 42.6377 23.35C42.6766 23.3765 42.6812 23.3959 42.6842 23.4084C42.6869 23.4195 42.6882 23.425 42.7113 23.425C42.8589 23.4335 43.007 23.4251 43.1528 23.4C43.2841 23.3905 43.4161 23.3989 43.5453 23.425C43.5932 23.5391 43.6933 23.5788 43.7979 23.6204ZM40.0377 20.75C39.8415 20.55 39.6698 20.375 39.6698 20.15C39.7732 20.1427 39.8763 20.169 39.9641 20.225C39.9641 20.3071 39.9803 20.3781 39.9975 20.4536C40.0169 20.5392 40.0377 20.6305 40.0377 20.75ZM39.2773 20.175L39.4 19.75L39.0321 19.55C39.0799 19.7706 39.1628 19.9817 39.2773 20.175ZM44.3056 24.4C44.2451 24.5373 44.1958 24.6794 44.1585 24.825C44.1524 24.8066 44.1464 24.7876 44.1403 24.7684C44.0717 24.5529 43.9912 24.3 43.766 24.3C43.7511 24.174 43.6782 24.0626 43.5698 24H43.3245C43.3245 24.0488 43.3581 24.0786 43.3904 24.1071C43.4408 24.1517 43.4878 24.1933 43.3981 24.3C43.4443 24.3314 43.4856 24.353 43.5229 24.3724C43.6044 24.4148 43.6665 24.4471 43.717 24.55C43.7455 24.6228 43.7408 24.6956 43.7368 24.7586C43.7338 24.8037 43.7313 24.8437 43.7415 24.875L43.5453 25C43.5453 24.9851 43.5454 24.9689 43.5456 24.9517C43.5477 24.7673 43.551 24.4686 43.349 24.4C43.2107 24.4471 43.1494 24.3566 43.0867 24.264C43.0494 24.2089 43.0115 24.153 42.9566 24.125C42.9391 24.125 42.9279 24.1029 42.9151 24.0777C42.892 24.0322 42.8639 23.9767 42.7849 24.025C42.699 24.075 42.6071 24.075 42.5151 24.075C42.4231 24.075 42.3311 24.075 42.2453 24.125L42.417 23.825C42.5055 23.7649 42.5851 23.759 42.6666 23.753H42.6666C42.7205 23.749 42.7753 23.745 42.8339 23.725L43.1038 23.7C43.3783 23.7331 43.6445 23.8179 43.8887 23.95C44.0114 24.0093 44.0883 24.1367 44.0849 24.275C44.1339 24.275 44.2811 24.275 44.2811 24.4H44.3056ZM41.5339 22.775H41.6075L41.4113 22.4H41.1415C41.149 22.4686 41.1655 22.5359 41.1906 22.6C41.2938 22.6788 41.4101 22.7381 41.5339 22.775ZM38.9585 20.275C38.9472 20.2707 38.936 20.2661 38.9249 20.2614C38.8661 20.0267 38.7415 19.8142 38.566 19.65V19.6C38.5217 19.5005 38.4277 19.4335 38.3207 19.425C38.3259 19.5719 38.3592 19.7163 38.4189 19.85C38.5467 20.0329 38.722 20.1753 38.9249 20.2614C38.9281 20.2742 38.9311 20.2871 38.9339 20.3L38.9585 20.275ZM40.4402 21.8187C40.5272 21.7119 40.5857 21.6401 40.6019 21.525L40.5773 21.5C40.4559 21.4994 40.3367 21.5341 40.2339 21.6C40.1644 21.7329 40.0823 21.8585 39.9887 21.975C39.9614 22.0121 39.9274 22.0423 39.8954 22.0707C39.841 22.119 39.7924 22.1621 39.7924 22.225L40.283 22.025C40.3418 21.9394 40.3949 21.8743 40.4402 21.8187ZM43.1038 24.875L43.0056 24.975C42.9652 24.9339 42.954 24.863 42.9427 24.7922C42.9265 24.691 42.9104 24.5898 42.8094 24.575C42.6968 24.5586 42.5947 24.4885 42.517 24.4351C42.4763 24.407 42.4423 24.3836 42.417 24.375L42.5641 24.3C42.6036 24.2847 42.6473 24.2847 42.6868 24.3C42.7604 24.35 42.8339 24.4 42.8339 24.475C42.8707 24.525 42.9137 24.525 42.9566 24.525C42.9995 24.525 43.0424 24.525 43.0792 24.575C43.1094 24.6727 43.1094 24.7774 43.0792 24.875H43.1038ZM39.6207 21.75C39.817 21.65 39.9396 21.475 40.0377 21.25L39.7434 21.275L39.4736 21.525C39.4162 21.564 39.3663 21.5916 39.321 21.6167C39.2499 21.6559 39.1901 21.689 39.1302 21.75C39.2919 21.7852 39.459 21.7852 39.6207 21.75ZM40.7245 22.85C40.6071 22.9458 40.45 22.974 40.3075 22.925L40.1113 22.625H40.6019L40.7245 22.85ZM38.0802 20.3298L38.0802 20.3298C38.1259 20.2907 38.1742 20.2494 38.2226 20.2L37.9283 20.125C37.8442 20.1855 37.7835 20.2739 37.7566 20.375C37.8036 20.4679 37.8288 20.5706 37.8302 20.675C37.8654 20.5135 37.9639 20.4292 38.0802 20.3298ZM38.6151 20.725C38.5996 20.9177 38.5117 21.0968 38.3698 21.225C38.3396 21.2687 38.3069 21.3105 38.2717 21.35C38.2717 21.2305 38.2994 21.125 38.3254 21.0262C38.3483 20.9391 38.3698 20.8571 38.3698 20.775L38.4024 20.7581C38.4847 20.7149 38.5499 20.6807 38.6151 20.725ZM38.9585 21.65L39.1056 21.15H39.0811H38.9585C38.8358 21.35 38.6151 21.65 38.3698 21.725C38.413 21.725 38.4574 21.7275 38.5022 21.7299C38.6609 21.7386 38.8246 21.7475 38.9585 21.65ZM39.2773 22.9L39.2283 23.45C39.1792 23.2 38.983 22.95 38.7868 22.95C38.6816 22.8624 38.5976 22.7512 38.5415 22.625C38.5047 22.575 38.4618 22.575 38.4127 22.575C38.3637 22.575 38.3085 22.575 38.2472 22.525C38.0932 22.5085 37.9382 22.5436 37.8056 22.625V22.5L38.0509 22.225C38.0989 22.2299 38.1478 22.2329 38.1959 22.2358C38.3942 22.2479 38.5804 22.2593 38.6396 22.4C38.7767 22.4698 38.9011 22.5628 39.0075 22.675V22.775L39.2528 22.9H39.2773ZM38.8113 24.225L39.0566 24V23.975C39.0438 23.9359 39.0377 23.8934 39.0317 23.852L39.0317 23.852C39.0148 23.7344 38.999 23.625 38.8358 23.625C38.7706 23.5808 38.7333 23.5047 38.7377 23.425C38.5919 23.3371 38.4596 23.2275 38.3453 23.1C38.3048 23.0897 38.2726 23.0581 38.2385 23.0245C38.1899 22.9768 38.1374 22.925 38.0509 22.925C37.9773 22.825 37.8547 22.825 37.7321 22.825C37.5833 22.825 37.5473 22.9257 37.5065 23.0397C37.4935 23.0761 37.48 23.1138 37.4623 23.15V23.2C37.5327 23.1898 37.5907 23.1753 37.6449 23.1618L37.6449 23.1618L37.6449 23.1618L37.6449 23.1618L37.6449 23.1618L37.6449 23.1618L37.6449 23.1618L37.6449 23.1618L37.645 23.1618L37.645 23.1618L37.645 23.1618L37.645 23.1618L37.645 23.1618C37.7228 23.1424 37.7925 23.125 37.8792 23.125C38.019 23.2589 38.1664 23.3841 38.3207 23.5L38.7377 23.725C38.7669 23.7399 38.7527 23.7636 38.7364 23.7908C38.7253 23.8095 38.7132 23.8298 38.7132 23.85C38.7656 23.9169 38.769 23.998 38.7721 24.0704C38.7747 24.1336 38.7771 24.1901 38.8113 24.225ZM38.566 24.5L38.4434 24.85L38.2226 24.225C38.0689 24.0684 37.8864 23.9903 37.7292 23.923C37.6355 23.883 37.5509 23.8467 37.4868 23.8C37.4107 23.7742 37.374 23.7951 37.3461 23.811C37.32 23.8258 37.3016 23.8363 37.266 23.8C37.2578 23.6982 37.2936 23.5977 37.3641 23.525H37.5849L37.7811 23.625C37.821 23.6576 37.8713 23.6795 37.9209 23.7012C38.024 23.7462 38.1245 23.7901 38.1245 23.925C38.1245 23.9334 38.1238 23.941 38.1232 23.9487C38.1197 23.9869 38.1163 24.025 38.1981 24.15L38.517 24.225L38.566 24.5ZM37.1679 25.5C37.1679 25.5 37.6094 25.1 37.6094 24.85L37.6339 24.825C37.6339 24.625 37.4132 24.5 37.266 24.425L37.4132 24.225L37.217 24.175C37.0257 24.1822 36.8468 24.2734 36.7264 24.425C36.5056 24.675 36.4811 25.275 36.4811 25.625C36.4811 25.6389 36.4921 25.65 36.5056 25.65C36.5358 25.527 36.6217 25.3945 36.7062 25.2642L36.7062 25.2642C36.759 25.1827 36.8113 25.102 36.849 25.025C36.8589 25 36.8667 24.978 36.8738 24.9582C36.902 24.879 36.9177 24.835 36.9962 24.775C37.0966 24.7874 37.1909 24.831 37.266 24.9C37.266 25.0196 37.2383 25.1321 37.2124 25.2375C37.1895 25.3305 37.1679 25.418 37.1679 25.5ZM36.4075 24.625C36.4135 24.7652 36.3794 24.9042 36.3094 25.025C36.2849 24.875 36.1868 24.7 36.0151 24.7C35.8679 24.975 35.8434 25.075 35.966 25.5C35.8831 25.5938 35.7832 25.6702 35.6717 25.725C35.6127 25.5569 35.5877 25.3783 35.5981 25.2C35.5931 24.9628 35.6263 24.7264 35.6962 24.5C35.7404 24.455 35.7796 24.3948 35.8182 24.3354L35.8183 24.3354C35.8655 24.2628 35.9121 24.1913 35.966 24.15H36.3585C36.1868 24.15 36.1868 24.3 36.1868 24.4C36.2849 24.4 36.4321 24.45 36.4321 24.625H36.4075ZM35.4821 24.9966C35.5023 25.0131 35.5169 25.025 35.5245 25.025L35.549 25C35.6049 24.8008 35.5116 24.5896 35.3283 24.5L35.0339 24.875V25.425C35.0585 25.575 35.1811 25.725 35.2547 25.725C35.274 25.6517 35.2823 25.5759 35.2792 25.5C35.2792 25.4103 35.2666 25.3366 35.2549 25.2686C35.2341 25.1474 35.2164 25.0442 35.2792 24.9C35.364 24.9 35.437 24.9597 35.4821 24.9966ZM42.5641 15.375C42.6424 15.1588 42.6151 14.9175 42.4906 14.725C42.4612 14.6353 42.3792 14.5814 42.2866 14.5204C42.2243 14.4795 42.1573 14.4353 42.0981 14.375L41.8528 14.525C41.7223 14.6014 41.646 14.747 41.6566 14.9C41.8954 15.0318 42.0915 15.2316 42.2207 15.475H42.3189C42.3802 15.425 42.4231 15.425 42.4599 15.425C42.4967 15.425 42.5273 15.425 42.5641 15.375ZM41.3623 15.475C41.3868 15.475 41.4358 15.475 41.4358 15.575H41.117C41.0473 15.5632 41.0271 15.5009 41.0069 15.4386C40.9845 15.3693 40.9621 15.3 40.8717 15.3L40.7981 15.275C40.8863 15.2211 40.9491 15.2448 40.9957 15.2623C41.0139 15.2691 41.0296 15.275 41.0434 15.275C41.1195 15.2362 41.1563 15.2911 41.1978 15.3532C41.2365 15.411 41.2794 15.475 41.3623 15.475ZM41.9509 16C41.9509 16 42.0245 16 41.9509 15.975V16ZM41.9509 15.975L41.2151 15.85C41.1797 15.9101 41.1218 15.9413 41.0711 15.9686C41.0162 15.9981 40.9698 16.0231 40.9698 16.075H40.8962C40.9547 16.3627 40.9794 16.6564 40.9698 16.95C41.1324 16.95 41.2641 17.0844 41.2641 17.25C41.4011 17.3033 41.5326 17.3703 41.6566 17.45C41.718 17.4292 41.7453 17.356 41.7811 17.2597L41.7812 17.2596L41.7812 17.2595L41.7812 17.2594L41.7813 17.2592C41.7884 17.2403 41.7957 17.2205 41.8038 17.2C41.7551 17.1306 41.6755 17.1084 41.5972 17.0866C41.4782 17.0534 41.3623 17.021 41.3623 16.825L41.166 16.75C41.1699 16.5654 41.1534 16.3809 41.117 16.2H41.166L41.2641 16.325C41.3996 16.3496 41.5391 16.323 41.6566 16.25C41.6903 16.2271 41.7086 16.1832 41.7256 16.1423C41.7457 16.094 41.7639 16.05 41.8038 16.05C41.8773 16.05 41.9264 16.05 41.9509 15.975ZM39.9464 15.3015C40.0658 15.2503 40.2164 15.1857 40.2585 15.25H40.283C40.182 15.3418 40.0988 15.452 40.0377 15.575H39.6453C39.665 15.4462 39.7642 15.3452 39.8906 15.325C39.9079 15.318 39.9267 15.3099 39.9464 15.3015ZM39.5226 14.875C39.4875 14.6247 39.2893 14.5406 39.1165 14.4673C39.0476 14.4381 38.9828 14.4106 38.9339 14.375H38.7868C38.5724 14.4951 38.4404 14.7258 38.4434 14.975C38.4855 15.161 38.5677 15.1751 38.6579 15.1906C38.7254 15.2021 38.7974 15.2145 38.8604 15.3C39.0666 15.1361 39.2885 14.9937 39.5226 14.875ZM41.5339 17.9V18.05L41.166 17.9H41.5339ZM39.9887 16.05C39.9887 16 39.9151 15.925 39.817 15.85H39.0075C39.0075 15.9031 39.0282 15.954 39.065 15.9915C39.1018 16.029 39.1517 16.05 39.2038 16.05C39.2038 16.1646 39.261 16.2063 39.3099 16.2418C39.325 16.2528 39.3393 16.2632 39.3509 16.275C39.449 16.35 39.4736 16.35 39.5962 16.275C39.6488 16.3153 39.6803 16.2908 39.7057 16.271C39.7277 16.2539 39.7452 16.2403 39.7679 16.275C39.7707 16.4348 39.7542 16.5944 39.7189 16.75C39.7023 16.919 39.596 16.9509 39.4835 16.9848C39.4295 17.001 39.3741 17.0176 39.3264 17.05C39.3264 17.0803 39.3152 17.1175 39.3029 17.158C39.2746 17.2514 39.2409 17.3629 39.3264 17.45C39.4338 17.3782 39.549 17.3195 39.6698 17.275C39.6698 17.15 39.7679 17.05 39.9151 16.975C39.9013 16.7922 39.9263 16.6172 39.9508 16.4458V16.4458C39.9699 16.3125 39.9887 16.1813 39.9887 16.05ZM39.7051 17.8769C39.71 17.8836 39.7146 17.8913 39.7189 17.9V17.875C39.7142 17.8756 39.7097 17.8762 39.7051 17.8769ZM39.5202 17.8381C39.5968 17.8274 39.6626 17.8182 39.7051 17.8769C39.591 17.8933 39.4845 17.945 39.4 18.025C39.3304 17.985 39.2915 17.9059 39.3019 17.825C39.3774 17.8581 39.453 17.8475 39.5202 17.8381Z" fill="#FF6600"/>
</svg>
