<svg width="58" height="40" fill="none" xmlns="http://www.w3.org/2000/svg"><rect x=".5" y=".5" width="57" height="39" rx="3.5" fill="#fff" stroke="#F3F3F3"/><path fill-rule="evenodd" clip-rule="evenodd" d="M31.428 22.625V25.1a8.555 8.555 0 0 1-3.924 1.05c-3.581 0-5.74-2.15-5.74-4.85 0-2.925 2.453-5.325 5.593-5.325.668.002 1.332.12 1.962.35.154.046.288.1.41.148.21.082.385.152.571.152.264 0 .291-.323.312-.57l.007-.08h.343l.32 3.35h-.418a3.216 3.216 0 0 0-.883-1.575 3.447 3.447 0 0 0-2.526-1c-2.159 0-3.41 1.725-3.41 4.325s1.546 4.3 3.581 4.3a4.106 4.106 0 0 0 1.816-.45v-2.55c0-.825-.123-1.15-1.3-1.15v-.375h4.317v.375c-1.034 0-1.033.32-1.03 1.269v.131ZM19.557 18.5v7.45h-.564l-7.285-7.7c.025.199.033.4.024.6v4.675c0 1.425 0 1.95 1.276 1.95v.4H9.573V25.5c1.324 0 1.324-.625 1.324-1.95v-5.325c0-.8 0-1.675-1.373-1.675v-.35h3.237l6.01 6.25a2.345 2.345 0 0 1-.05-.5v-3.597c.002-1.271.003-1.828-1.226-1.828v-.35h3.41v.35c-1.276 0-1.35.55-1.35 1.975ZM3 25.5v.4h4.832v-.4c-.907 0-1.398-.05-1.398-1.275V17.85c0-1.275.417-1.3 1.398-1.3v-.35H3v.35c.957 0 1.398.05 1.398 1.3v6.375c0 1.2-.564 1.275-1.398 1.275Z" fill="#006"/><path fill-rule="evenodd" clip-rule="evenodd" d="m48.157 18.725 1.03.8.662 1.45.294 3.75L48.55 25.9h-8.536l-.417-.15-2.968.05-1.447-.025-.245-.125-.05-.75.369-.55 1.005-.475.81.1.392-1.2.589-1.05-.662-1.525.49-.75-.564-2.125.147-1.55.515-.925.295-.725.858-.225 1.496.525 1.129-.5.98.2.418 1.2 1.128 3.25 1.227 1.2 1.84-.25.318-.7.49-.1Zm1.888-3.675.589 1.2-1.177.3a6.198 6.198 0 0 1-.81-.325 1.297 1.297 0 0 1-.172-.25l-.049-.075.05-.65 1.103-.375.344.1.122.075Z" fill="#fff"/><path fill-rule="evenodd" clip-rule="evenodd" d="M52.326 17.25a5.957 5.957 0 0 1 1.717 4.15c0 1.275-.49 2.6-1.25 3.425a2.745 2.745 0 0 1-2.11.875h-.417c-.203.14-.442.218-.687.225h-2.11c0-.135.036-.225.064-.297a.343.343 0 0 0 .035-.128c0-.1.147-.325.245-.325l.22.425a.404.404 0 0 0 .124-.35c0-.125-.246-.35-.246-.35l.221-.2c.045.034.07.074.09.106.023.04.042.069.082.069.147 0 .245-.075.245-.125 0-.022-.032-.048-.073-.081-.053-.044-.12-.098-.148-.169a.559.559 0 0 0-.343-.15c-.245 0-.662.625-.687.975l-.049.6h-.368a6.131 6.131 0 0 1 .05-.8c0-.04.08.017.149.067l.046.033c0-.042.031-.089.06-.134.042-.063.081-.123.038-.166l-.196-.25.098-.25s.368.125.32.075c0-.03-.026-.057-.048-.081-.032-.035-.06-.064-.002-.094.05-.025.123 0 .187.022.065.022.12.04.132.003v-.15a1.207 1.207 0 0 0-.49-.075c-.246 0-.259.03-.285.089a.298.298 0 0 1-.034.061c-.163.022-.287.049-.394.072-.135.03-.243.053-.367.053l-.368.5c-.01.236.015.472.074.7l.172.325h-3.974c.07-.149.151-.291.245-.425 0 .125.074.125.098.125h.295a.243.243 0 0 0 .245-.125 1.242 1.242 0 0 1-.49-.25v-.375a.379.379 0 0 0-.117-.274.364.364 0 0 0-.276-.101.512.512 0 0 0-.392.2c-.05-.02-.098-.056-.148-.092-.073-.054-.147-.108-.22-.108v-.175l.024-.175a.82.82 0 0 1 .662.075h.148v-.075a.897.897 0 0 0-.932-.275.358.358 0 0 0-.15.147c-.044.069-.074.114-.145.028a.591.591 0 0 0-.214.053.51.51 0 0 1-.178.047l-.245.05c-.025.012-.025.019-.025.034 0 .016 0 .041-.025.091-.134.187-.25.388-.343.6a1.63 1.63 0 0 0 .05.7c.074.088.132.19.17.3h-5.15a1.344 1.344 0 0 1-.22-.8.732.732 0 0 1 .22-.5.63.63 0 0 1 .27-.6.556.556 0 0 1 .613-.05.734.734 0 0 1 .54-.325.85.85 0 0 1 .613.225c.165-.757.43-1.489.785-2.175a10.713 10.713 0 0 1-.638-2.025.352.352 0 0 1 .049-.1l.098-.1c.044-.143.11-.278.196-.4a.292.292 0 0 0-.196.075c-.098.05-.172.1-.172.175a.204.204 0 0 1-.024-.125l-.05-.45c0-.075.123-.25.246-.25v-.475a3.17 3.17 0 0 0-.294.25v-.55a.248.248 0 0 0 .171-.2 6.34 6.34 0 0 1 .197-1.875c.07-.16.18-.297.318-.4v-.55c.062-.012.11-.063.163-.116a.486.486 0 0 1 .18-.134l-.195-.025a1.5 1.5 0 0 1 .49-.7.788.788 0 0 1 .245-.2l.05.025c.107 0 .203.03.301.06.104.032.21.065.336.065a.467.467 0 0 0-.294-.225v-.025c.15-.11.33-.17.515-.175a.513.513 0 0 0 .132.245c.046.058.092.114.113.18l.123.05a.836.836 0 0 1 0-.163c.008-.137.016-.28-.123-.387.258.052.506.145.736.275.044 0 .121-.035.208-.073.06-.027.124-.056.185-.077a3.912 3.912 0 0 0-.148.625.718.718 0 0 0 .136-.152.51.51 0 0 1 .11-.123c0-.094.038-.168.078-.246.025-.048.05-.098.069-.154a1.76 1.76 0 0 1 .613 0c-.177.045-.174.172-.172.27v.03h.025c.07 0 .146-.04.213-.074.052-.027.098-.051.13-.051a.412.412 0 0 1 .393.125c-.11.05-.217.109-.32.175h.54l.099-.05c.377.214.54.628.7 1.04l.085.21a.978.978 0 0 0-.197-.1c0 .1.025.325.148.325.08 0 .119.044.164.095a.551.551 0 0 0 .08.08c.046.041.094.081.143.122.19.156.388.32.446.578a2.7 2.7 0 0 1 .29.778c.031.13.06.257.127.422-.041-.042-.096-.053-.154-.065-.08-.016-.167-.034-.238-.135a.603.603 0 0 0 .22.4.457.457 0 0 0 .27.075c.13.218.199.47.197.725a.665.665 0 0 0-.172-.125c-.196.15.147.375.245.4v.55c.358.308.808.484 1.276.5.383.004.76-.109 1.08-.325a.707.707 0 0 1 .244-.6.63.63 0 0 1 .516-.175c.441 0 .858.325 1.226.7a6.072 6.072 0 0 1 1.373 3.925c.01.473-.047.944-.171 1.4.156.12.344.19.54.2.882 0 2.33-1.025 2.33-3.575-.024-1.845-1.042-3.526-2.65-4.375-.223-.067-.439-.034-.659 0-.191.03-.386.06-.591.025a1.885 1.885 0 0 1-.834-.55h.049c.042.072.126.078.222.084.07.005.147.01.22.041.014-.044-.015-.08-.04-.112-.018-.022-.034-.043-.034-.063.183-.089.387-.124.588-.1-.106-.17-.241-.168-.37-.165-.078.001-.153.003-.218-.035a.122.122 0 0 0-.099-.05.122.122 0 0 0-.098.05.711.711 0 0 1 .05.2l-.246-.05h-.196a1.485 1.485 0 0 1-.144-.255c-.1-.205-.21-.426-.445-.495v-.075a4.5 4.5 0 0 0 .535-.146c.344-.11.686-.22 1.06-.154.049 0 .171 0 .196.05l-.147.15a.85.85 0 0 0 .49.2h.05l-.123-.3c.184.094.35.22.49.375.124.26.29.496.49.7.226.242.464.42.708.602.235.174.475.353.715.598Zm-11.65 7.725c0 .319.067.634.196.925h-.393a1.002 1.002 0 0 0-.123-.295c-.09-.165-.184-.335-.122-.555.018-.027.06-.044.109-.063.085-.035.185-.075.185-.187a.928.928 0 0 1-.012-.026c-.02-.046-.045-.099-.086-.099l-.172.05c0-.05.05-.125.148-.25l.368-.075c-.08.18-.114.378-.099.575Zm6.009-.4h-.01l.01-.025v.025Zm-.01 0c-.06.152-.098.312-.113.475.013.285.046.57.098.85h-.318a1.697 1.697 0 0 1-.246-.775c0-.075.05-.25.098-.25.035.048.054.1.071.151a.38.38 0 0 0 .077.149.428.428 0 0 0 .147-.3.302.302 0 0 0-.147-.275l.333-.024Zm-4.48.403.001.022v-.025.003Zm-.244-.153c.14 0 .235.023.245.153a5.98 5.98 0 0 1-.294.922h-.22l.048-.9c0-.075.147-.175.22-.175Zm-.49.125-.295-.275c-.074 0-.172.2-.172.275.005.324.063.645.172.95h.245l.05-.95Zm8.633-8.975c.14.007.264.094.32.225l-.025-.225-.246-.425a.658.658 0 0 0-.265.075.423.423 0 0 1-.152.05c.123 0 .27.175.368.3Zm-.711-.525h-.368c-.05-.068-.111-.044-.168-.021a.226.226 0 0 1-.077.021c-.074 0-.098 0-.245-.1.174-.02.342-.08.49-.175.041.028.08.052.118.075.096.059.18.11.25.2Zm-1.374 3.8c.198.036.388.104.565.2v-.025a.86.86 0 0 0-.123-.325.535.535 0 0 0-.158-.017c-.12-.002-.234-.004-.234-.158a.242.242 0 0 0-.246 0c-.147.1-.319.375-.22.5a.875.875 0 0 1 .416-.175Zm.516.7-.344-.05a.561.561 0 0 0-.49.25.305.305 0 0 1 0-.3.733.733 0 0 1 .416-.25.419.419 0 0 1 .442.35h-.024Zm.781.748.003.002v.025a.86.86 0 0 0-.003-.027Zm0 0a2.033 2.033 0 0 0-.904-.273 1.53 1.53 0 0 0-.662.325l-.074-.325c.102-.013.151-.067.195-.115.041-.045.078-.085.148-.085l.344-.025a.22.22 0 0 0 .138-.055c.014-.012.025-.02.034-.02.093 0 .114.051.133.099.016.04.031.076.087.076.07 0 .115-.024.155-.045.031-.016.058-.03.09-.03.165 0 .285.254.316.473Zm.126.752h-.001c-.006-.06-.03-.122-.052-.183a.537.537 0 0 1-.045-.167.525.525 0 0 1-.09-.064c-.065-.053-.136-.111-.253-.111-.086 0-.105.019-.123.037-.019.02-.037.038-.123.038-.046 0-.092-.017-.141-.034a.516.516 0 0 0-.178-.041.361.361 0 0 0-.173.044c-.078.036-.175.081-.44.081v.35a.42.42 0 0 0 .196.05c.172 0 .32-.075.32-.25 0-.059.059-.04.123-.02.044.015.091.03.122.02 0 0 .098-.1.171-.1.14 0 .15.066.162.144.003.018.005.037.01.056.024.1.269.15.514.15l.001.025v-.025Zm-.32.75h.001v.025-.025Zm0 0c-.098 0-.342-.05-.342-.15 0-.1-.074-.175-.245-.175a1.234 1.234 0 0 0-.417.1.951.951 0 0 1-.148-.25c.149-.065.306-.107.466-.125.246 0 .491 0 .491.1 0 .035.024.067.055.108.056.075.135.18.14.392Zm-5.984-5.05-.294.075.172-.75c.072.1.13.209.171.325l-.049.35Zm6.525 6.75a.685.685 0 0 0 .123-.45l-.148-.275a1.141 1.141 0 0 0-.098.243.866.866 0 0 1-.073.182l.196.3Zm-.712-.9c-.101 0-.135-.086-.175-.186-.057-.142-.126-.314-.413-.314-.05 0-.092.044-.138.09-.046.047-.095.098-.157.11v-.25a.324.324 0 0 1 .197-.25c.14 0 .176.033.217.07.032.028.066.058.15.08.099.056.208.09.32.1V23Zm-2.697-2.555c.174.229.34.447.563.58v-.275a1.116 1.116 0 0 0-.196-.2c-.085-.022-.151-.086-.22-.151-.089-.086-.18-.174-.32-.174a8.4 8.4 0 0 1 .173.22Zm-2.355-1.995c-.197 0-.295-.1-.417-.3a1.726 1.726 0 0 1 0-.4c.024.05.04.089.054.121a.411.411 0 0 0 .093.154c.085-.052.11.016.135.08.011.027.022.055.037.07a.89.89 0 0 1 .098.275Zm5.543 6.125a.629.629 0 0 1 .098-.2c0-.1-.073-.1-.073-.1a.203.203 0 0 1 0-.15.45.45 0 0 0-.246-.35l-.122.25c.057.129.136.219.203.296.077.089.14.16.14.254Zm-.589-1.2a1.53 1.53 0 0 1-.073.35c-.245-.025-.245-.3-.245-.35-.122-.141-.28-.095-.414-.056a.588.588 0 0 1-.15.031c-.046-.123-.026-.17-.005-.223a.298.298 0 0 0 .029-.127.405.405 0 0 0 .098-.017c.065-.016.13-.033.196.017.096-.042.16-.006.234.034a.412.412 0 0 0 .208.066c.034.095.075.186.122.275Zm-1.738-1.267c.01-.05.021-.1.021-.158v-.025a.633.633 0 0 0-.098-.25c0-.025-.098-.05-.171-.025-.047.016-.044.022-.036.037.005.009.011.02.011.038.026.106.08.213.136.323.049.097.1.197.134.302a.422.422 0 0 1 .003-.242ZM44.134 19.2a.145.145 0 0 1-.006.025c-.059-.003-.1-.051-.145-.105a.649.649 0 0 0-.094-.095c-.069-.052-.137-.032-.223-.006a.955.955 0 0 1-.12.031c0 .05.021.078.043.106.01.014.022.027.03.044h.319c.006 0 .018.009.035.02.048.032.128.085.155.005h.006V19.2Zm.172.775a.459.459 0 0 0 .564.025h.024a1.306 1.306 0 0 1-.319-.15l-.27.125Zm2.33 2-.025.7c-.098 0-.098-.075-.098-.225a3.843 3.843 0 0 0-.171-.575 6.026 6.026 0 0 0-.393-.825c-.017-.102-.102-.158-.201-.223a1.366 1.366 0 0 1-.142-.102.606.606 0 0 1 .49.15c0 .058.03.086.089.142l.058.058c.14 0 .176.104.217.222.032.09.066.188.151.253l-.196.225a.963.963 0 0 0 .094.061c.063.038.118.071.151.139h-.024Zm-1.414-.877c.05-.042.09-.075.09-.148 0-.083-.066-.167-.131-.25a1.177 1.177 0 0 1-.09-.125.941.941 0 0 0-.05.325c.026.09.067.175.123.25.02-.02.04-.037.058-.052ZM48.5 24.1v.001c-.01-.111-.08-.145-.16-.183l-.036-.018c-.04-.069-.074-.062-.111-.054-.031.006-.066.013-.11-.021a.533.533 0 0 0 .025-.2c-.086 0-.134-.038-.21-.097l-.015-.012-.02-.016c-.037 0-.055 0-.067.009-.013.009-.02.028-.032.066l-.319.325c.083 0 .12-.035.159-.071a.234.234 0 0 1 .185-.079c.073 0 .171.175.171.325a.894.894 0 0 1 .466.1l.073-.074.001.024V24.1Zm-2.894-2.275c.024 0 .122-.075.122-.125h.025c.073-.075 0-.2-.123-.275a.502.502 0 0 1-.004-.145c.004-.059.007-.105-.02-.105l-.123-.05a.737.737 0 0 0-.098.375.826.826 0 0 0 .22.325Zm-2.478-3.475a3.22 3.22 0 0 0-1.373-.425.51.51 0 0 1-.025.25c.398.17.77.397 1.104.675v.325a2.7 2.7 0 0 0-1.153-.825c0 .033-.028.066-.062.105a.397.397 0 0 0-.11.195 1.85 1.85 0 0 0-.809-.4c-.098 0-.147-.375-.147-.375a.57.57 0 0 0 .343-.35h.123c.098 0 .098-.05.098-.175 0-.2-.441-.2-.638-.2a.87.87 0 0 0-.564.1c-.051 0-.043.05-.033.105.004.023.009.048.009.07 0 .075.098.1.098.1l.196-.05c0 .2.049.3.245.4v.375a2.203 2.203 0 0 0-.981.3.915.915 0 0 1-.245-.25 5.179 5.179 0 0 0-1.129.675v-.25c.3-.236.63-.43.982-.575v-.25c-.098-.05-.184-.034-.274-.017a.783.783 0 0 1-.143.017c-.285.038-.556.15-.785.325A1.199 1.199 0 0 0 37.83 18a2.06 2.06 0 0 1 1.251-.325v-.125a.679.679 0 0 1-.015-.056c-.014-.061-.027-.119-.083-.119a1.331 1.331 0 0 1-.417-.75l.147-.05c-.073-.2-.147-.725 0-.9a1.086 1.086 0 0 1-.441-.4 2.223 2.223 0 0 1-.172-.475l.27-.5a.22.22 0 0 0 .196-.1.437.437 0 0 0 .16-.067c.085-.049.166-.096.306-.033.127.014.251.047.368.1a.202.202 0 0 0 .074.175c.16 0 .203.118.253.249.019.05.038.103.065.151.08.02.163.029.246.025.09.027.166.045.23.06.113.025.189.042.236.09a1.33 1.33 0 0 1 .858-.15c.059-.138.108-.28.147-.425.014.056.02.05.036.033.012-.013.03-.033.063-.033l.04-.033c.118-.1.277-.234.475-.167a.513.513 0 0 0 .217.064c.112.017.226.034.298.136l.294.5a.63.63 0 0 0-.068.278c-.012.136-.023.263-.153.322l-.196.2c-.034 0-.052.016-.072.034a.133.133 0 0 1-.1.041c.08.275.053.57-.073.825.022-.015.046-.025.069-.035.054-.024.102-.045.102-.115v.25a.755.755 0 0 1-.245.5c-.073.2-.245.5-.466.5v.1c.49.007.97.136 1.398.375v.2Zm1.202 2.25.172-.075a1.295 1.295 0 0 1-.564-.35s-.172.175-.32.175a.97.97 0 0 0 .712.25Zm-.785-.85c-.05 0-.1.006-.15.013-.151.018-.298.037-.39-.113l.221-.225.32.325Zm2.618 3.601c.086-.114.179-.238.179-.351 0-.07-.07-.077-.132-.083-.047-.005-.09-.01-.09-.042.074-.13.038-.287.015-.39a.471.471 0 0 1-.014-.085c.01-.15.002-.302-.025-.45a.447.447 0 0 1-.134.122c-.09.062-.185.129-.185.253 0 .031.017.062.037.099a.4.4 0 0 1 .062.201l-.025.3c0 .075.123.075.196.075.074 0 .074.35 0 .525.026-.053.07-.112.117-.174Zm-.606-.726c0 .108-.044.21-.087.311a.97.97 0 0 0-.085.264.709.709 0 0 0-.172-.5c0-.027.014-.045.027-.062.022-.03.044-.059-.002-.138 0 0-.197-.1-.197-.25 0-.116.073-.201.14-.28.02-.024.04-.047.057-.07 0-.025.147.075.147.3a.508.508 0 0 1-.05.2c-.011.049.035.074.086.101.053.029.111.06.111.124h.025Zm-2.836-2.496a.21.21 0 0 0 .015-.004v.025a.714.714 0 0 0-.015-.021Zm0 0c-.103.022-.197-.033-.294-.09-.059-.035-.118-.07-.182-.089a4.251 4.251 0 0 0-.147-.5c.04.027.092.047.145.067.145.055.301.114.248.333 0 .056.045.096.102.146a.82.82 0 0 1 .128.133Zm.971.996a.868.868 0 0 1-.49-.1 1.175 1.175 0 0 1-.393-.275c.115-.07.239-.12.368-.15.136.2.302.377.49.525h.025Zm-5.96-5.275.245-.075v-.425c-.093.09-.175.19-.245.3v.2Zm4.611 4.75c-.147.05-.392.1-.441-.05a.839.839 0 0 1 0-.825c.053.189.094.38.123.575.013.07.09.125.162.177.056.04.11.08.132.123h.024Zm-1.275-1.225c.179-.178.284-.42.294-.675l-.196-.075a1.929 1.929 0 0 0-1.643.05.76.76 0 0 0 .171.55l.172-.175.025.075v.325c.091.07.204.106.318.1a.532.532 0 0 1 .098-.25c0-.075 0-.15.099-.175l.049.025a.763.763 0 0 0 .024.3v.1c.116.039.243.02.344-.05.018-.118.042-.235.073-.35l.025-.1a.503.503 0 0 1 .147.325Zm2.06 2.125h-.122c-.353.12-.638-.082-.942-.297l-.04-.028c.197-.07.405-.104.614-.1l.098.225c.137.052.269.12.392.2Zm-5.319-4.513c.037-.165.074-.334.046-.537l.171-.2-.27.1c-.082.139-.14.29-.171.45l.172.55c0-.126.026-.243.052-.363Zm3.725 3.763a1.33 1.33 0 0 0-.156-.072c-.156-.064-.315-.13-.261-.278a.62.62 0 0 1 .245-.275c.02.217.078.429.172.625Zm3.14 3.55h.024v-.025a6.98 6.98 0 0 0-.024-.75c.03-.111-.077-.223-.185-.334-.061-.064-.123-.127-.159-.191v.125c.02.08.048.163.078.247.08.23.166.479.094.753.055 0 .083.042.124.105l.048.07Zm-.76-1.3c-.172 0-.295 0-.418-.175-.007 0-.017-.01-.028-.02-.026-.025-.06-.057-.094-.005-.094.068-.188.025-.286-.02-.081-.039-.165-.078-.254-.055a.657.657 0 0 1-.368.2V22.9a.325.325 0 0 1 .196-.275c.081.02.158-.044.236-.11.11-.092.223-.187.353-.04.08.022.163.03.245.025.208.106.293.266.374.42l.043.08Zm-3.41-2.15c.245-.1.27-.425.27-.675a1.357 1.357 0 0 1-.344.325l.074.35Zm1.398.85a.655.655 0 0 1-.368.15 3.377 3.377 0 0 1-.564-.65l.564.1c.14.124.271.257.392.4h-.024Zm1.896 1.92a.83.83 0 0 1 .164.08l-.049-.275c-.238-.287-.59-.282-.94-.276l-.14.001v-.05a1.28 1.28 0 0 0-.342.05 2.096 2.096 0 0 1-.295.075l-.171.4c.175-.148.387-.243.613-.275.039.026.043.046.046.058.003.011.004.017.027.017.148.008.296 0 .442-.025.131-.01.263-.001.392.025.048.114.148.154.253.195Zm-3.76-2.87c-.196-.2-.368-.375-.368-.6a.484.484 0 0 1 .294.075.96.96 0 0 0 .034.229c.019.085.04.177.04.296Zm-.76-.575.122-.425-.368-.2c.048.22.13.432.245.625Zm5.028 4.225c-.06.137-.11.28-.148.425l-.018-.057c-.068-.215-.149-.468-.374-.468a.4.4 0 0 0-.196-.3h-.245c0 .049.033.079.065.107.05.045.098.086.008.193.046.031.088.053.125.072.081.043.143.075.194.178.029.073.024.146.02.209a.33.33 0 0 0 .005.116l-.197.125v-.048c.003-.185.006-.483-.196-.552-.138.047-.2-.043-.262-.136a.39.39 0 0 0-.13-.139c-.018 0-.03-.022-.042-.047-.023-.046-.051-.101-.13-.053-.086.05-.178.05-.27.05-.092 0-.184 0-.27.05l.172-.3a.457.457 0 0 1 .25-.072c.053-.004.108-.008.167-.028l.27-.025c.274.033.54.118.785.25.122.06.2.187.196.325.049 0 .196 0 .196.125h.025Zm-2.772-1.625h.074l-.197-.375h-.27a.782.782 0 0 0 .05.2c.103.079.22.138.343.175Zm-2.575-2.5a.982.982 0 0 1-.034-.014 1.254 1.254 0 0 0-.359-.611v-.05a.295.295 0 0 0-.245-.175c.005.147.038.291.098.425.128.183.303.325.506.411l.009.039.025-.025Zm1.481 1.544c.087-.107.146-.179.162-.294l-.025-.025a.63.63 0 0 0-.343.1c-.07.133-.152.258-.245.375a.632.632 0 0 1-.094.096c-.054.048-.103.091-.103.154l.491-.2c.059-.086.112-.15.157-.206Zm2.664 3.056-.098.1c-.04-.041-.052-.112-.063-.183-.017-.101-.033-.202-.134-.217a.731.731 0 0 1-.292-.14.507.507 0 0 0-.1-.06l.147-.075a.17.17 0 0 1 .123 0c.073.05.147.1.147.175.037.05.08.05.123.05.042 0 .085 0 .122.05.03.098.03.202 0 .3h.025ZM39.62 21.75c.196-.1.319-.275.417-.5l-.295.025-.27.25a1.817 1.817 0 0 1-.152.092.748.748 0 0 0-.19.133c.16.035.328.035.49 0Zm1.103 1.1a.435.435 0 0 1-.416.075l-.197-.3h.49l.123.225Zm-2.644-2.52c.046-.04.094-.08.143-.13l-.295-.075a.45.45 0 0 0-.171.25.685.685 0 0 1 .073.3c.035-.162.134-.246.25-.345Zm.535.395a.755.755 0 0 1-.245.5 1.29 1.29 0 0 1-.098.125c0-.12.027-.225.053-.324.023-.087.045-.169.045-.251l.032-.017c.083-.043.148-.077.213-.033Zm.343.925.148-.5h-.148c-.122.2-.343.5-.588.575.043 0 .087.002.132.005.159.009.323.017.456-.08Zm.32 1.25-.05.55c-.049-.25-.245-.5-.441-.5a.897.897 0 0 1-.245-.325c-.037-.05-.08-.05-.13-.05-.048 0-.103 0-.165-.05a.7.7 0 0 0-.441.1V22.5l.245-.275c.048.005.097.008.145.01.198.013.384.024.444.165.137.07.261.163.367.275v.1l.246.125h.024Zm-.467 1.325.246-.225v-.025a.655.655 0 0 1-.025-.123c-.017-.118-.033-.227-.196-.227a.226.226 0 0 1-.098-.2 1.72 1.72 0 0 1-.393-.325c-.04-.01-.072-.042-.106-.076-.05-.047-.102-.099-.188-.099-.074-.1-.196-.1-.319-.1-.149 0-.185.1-.225.215a1.061 1.061 0 0 1-.045.11v.05c.07-.01.129-.025.183-.038a.888.888 0 0 1 .234-.037c.14.134.287.26.442.375l.417.225c.029.015.015.039-.002.066-.01.018-.023.039-.023.059.053.067.056.148.06.22.002.064.004.12.038.155Zm-.245.275-.123.35-.22-.625c-.154-.157-.337-.235-.494-.302a1.27 1.27 0 0 1-.242-.123c-.076-.026-.113-.005-.14.011-.027.015-.045.025-.081-.011a.354.354 0 0 1 .098-.275h.22l.197.1c.04.033.09.055.14.076.103.045.203.09.203.224v.024c-.004.038-.008.076.074.201l.319.075.049.275Zm-1.398 1s.441-.4.441-.65l.025-.025c0-.2-.22-.325-.368-.4l.147-.2-.196-.05a.658.658 0 0 0-.49.25c-.221.25-.246.85-.246 1.2 0 .014.011.025.025.025.03-.123.116-.255.2-.386a2.39 2.39 0 0 0 .143-.239l.025-.067c.028-.079.044-.123.122-.183.1.012.195.056.27.125 0 .12-.028.232-.054.338a1.13 1.13 0 0 0-.044.262Zm-.76-.875a.736.736 0 0 1-.099.4c-.024-.15-.122-.325-.294-.325-.147.275-.172.375-.049.8a.955.955 0 0 1-.294.225 1.349 1.349 0 0 1-.074-.525 2.215 2.215 0 0 1 .098-.7c.044-.045.084-.105.122-.165a.759.759 0 0 1 .148-.185h.392c-.171 0-.171.15-.171.25.098 0 .245.05.245.225h-.025Zm-.926.372c.02.016.035.028.043.028l.024-.025a.428.428 0 0 0-.22-.5l-.295.375v.55c.025.15.147.3.22.3a.761.761 0 0 0 .025-.225c0-.09-.012-.163-.024-.231-.02-.122-.039-.225.024-.369.085 0 .158.06.203.097Zm7.082-9.622a.737.737 0 0 0-.073-.65c-.03-.09-.112-.144-.204-.205a1.097 1.097 0 0 1-.189-.145l-.245.15a.402.402 0 0 0-.196.375c.238.132.435.332.564.575h.098c.061-.05.104-.05.14-.05.038 0 .068 0 .105-.05Zm-1.202.1c.025 0 .074 0 .074.1h-.319c-.07-.012-.09-.074-.11-.136-.023-.07-.045-.139-.135-.139l-.074-.025c.088-.054.151-.03.198-.013a.146.146 0 0 0 .047.013c.077-.039.113.016.155.078.038.058.081.122.164.122Zm.589.525s.074 0 0-.025V16Zm0-.025-.736-.125a.337.337 0 0 1-.144.119c-.055.03-.101.054-.101.106h-.074c.059.288.083.581.074.875.162 0 .294.134.294.3.137.053.269.12.393.2.061-.02.088-.094.124-.19l.023-.06c-.049-.07-.129-.092-.207-.113-.119-.034-.235-.066-.235-.262l-.196-.075a2.519 2.519 0 0 0-.049-.55h.049l.098.125a.555.555 0 0 0 .393-.075c.033-.023.052-.067.069-.108.02-.048.038-.092.078-.092.073 0 .122 0 .147-.075Zm-2.005-.673c.12-.052.27-.116.313-.052h.024a1.1 1.1 0 0 0-.245.325h-.393a.297.297 0 0 1 .246-.25l.055-.023Zm-.423-.427c-.036-.25-.234-.334-.407-.408a.947.947 0 0 1-.182-.092h-.147a.678.678 0 0 0-.344.6c.043.186.125.2.215.216.067.011.14.023.202.109a3.91 3.91 0 0 1 .663-.425Zm2.01 3.025v.15l-.367-.15h.368Zm-1.544-1.85c0-.05-.074-.125-.172-.2h-.81c0 .053.021.104.058.142a.194.194 0 0 0 .139.058c0 .115.057.156.106.192a.19.19 0 0 1 .04.033c.099.075.124.075.246 0 .053.04.084.016.11-.004.022-.017.04-.03.062.004.003.16-.014.32-.05.475-.016.169-.122.2-.235.235a.58.58 0 0 0-.157.065c0 .03-.01.067-.023.108-.028.093-.062.205.023.292.108-.072.223-.13.344-.175 0-.125.098-.225.245-.3a2.413 2.413 0 0 1 .036-.53c.019-.133.038-.264.038-.395Zm-.284 1.827c.005.007.01.014.014.023v-.025a.574.574 0 0 0-.014.002Zm-.185-.039c.077-.01.143-.02.185.039a.56.56 0 0 0-.305.148.201.201 0 0 1-.098-.2.382.382 0 0 0 .218.013Z" fill="#F60"/></svg>