<svg width="58" height="40" fill="none" xmlns="http://www.w3.org/2000/svg"><rect x=".5" y=".5" width="57" height="39" rx="3.5" fill="#fff" stroke="#F3F3F3"/><path fill-rule="evenodd" clip-rule="evenodd" d="M5.075 14.818a.909.909 0 0 0 0-1.818.91.91 0 1 0 0 1.818Zm33.575 0a.91.91 0 1 0 0-1.818.905.905 0 0 0-.902.912c0 .498.4.906.902.906ZM7.84 13.353h28.037v1.118H7.84v-1.118Zm11.794 4.582-.188-.021a6.712 6.712 0 0 0-.838-.056c-1.324 0-1.847.97-1.847 2.29 0 1.686.667 2.27 1.703 2.27.473 0 .866-.195 1.17-.348v-4.135Zm-1.484 8.619c-.996 0-1.91-.21-2.473-.38l.24-1.344c.602.138 1.478.271 1.969.271 1.05 0 1.757-.184 1.757-1.425.02-.02.008-.227.003-.332l-.003-.058a2.058 2.058 0 0 1-1.26.466c-1.509 0-3.187-.414-3.187-3.615 0-2.412 1.55-3.696 3.427-3.696.747 0 1.558.108 2.586.277v7.136c0 1.983-1.66 2.7-3.059 2.7Zm6.134-7.184c.073-1.19.771-1.68 1.445-1.68.673 0 1.189.591 1.18 1.68h-2.625Zm2.048 2.972c-1.181 0-2.072-.22-2.081-1.765h4.295v-.625c0-2.212-.77-3.562-2.672-3.562-1.854 0-3.197.946-3.197 3.824 0 2.777 1.31 3.538 3.365 3.538.794 0 1.791-.092 2.312-.27l-.241-1.326c-.521.118-1.325.186-1.781.186Zm11.527 1.292v-7.075h1.582v7.075h-1.582Zm6.502-5.853c.66 0 1.07.128 1.502.306l.458-1.257c-.433-.255-1.027-.45-1.96-.45-2.084 0-3.403 1.411-3.403 3.656 0 2.643.997 3.716 3.64 3.716.623 0 1.031-.09 1.468-.187h.001l.19-.043-.215-1.324a9.819 9.819 0 0 0-.33.057 5.16 5.16 0 0 1-1.004.111c-1.734 0-2.127-.709-2.127-2.304 0-1.663.77-2.28 1.78-2.28Zm6.015-.04c-1.293 0-1.637 1.14-1.637 2.372 0 1.318.393 2.305 1.66 2.305 1.284 0 1.597-1.039 1.597-2.322 0-1.206-.313-2.356-1.62-2.356Zm-.072 6.051c-2.024 0-3.155-1.36-3.155-3.628 0-2.383 1.31-3.784 3.26-3.784 2.192 0 3.21 1.36 3.21 3.716 0 2.44-1.42 3.696-3.315 3.696ZM11.63 16.365c-.96 0-1.695.556-2.149.898l-.05.038v-.017a.117.117 0 0 1-.03.033l-.018.018c-.152-.567-.56-.733-.929-.776h-.613v7.075h1.59V18.45l.043-.024c.332-.19 1.02-.584 1.652-.584.89 0 1.073.465 1.073 1.493v4.299h1.575V19.14c0-1.451-.13-2.776-2.144-2.776Zm19.943.914c.447-.341 1.197-.914 2.17-.914 2.008 0 2.144 1.325 2.144 2.776v4.493h-1.58v-4.299c0-1.028-.178-1.493-1.069-1.493-.631 0-1.32.394-1.652.584l-.042.024v5.184h-1.59v-7.075h.606c.375.043.776.209.935.776.01-.013.02-.023.032-.035a.585.585 0 0 0 .017-.016v.017l.03-.022Zm-27.29-.72h1.574v7.075H4.284v-7.075Z" fill="#263779"/></svg>