<svg width="58" height="40" fill="none" xmlns="http://www.w3.org/2000/svg"><rect x=".5" y=".5" width="57" height="39" rx="3.5" fill="#fff" stroke="#F3F3F3"/><path fill-rule="evenodd" clip-rule="evenodd" d="M38.39 20.111h2.848a1.8 1.8 0 0 1 .189.014 1.38 1.38 0 0 1 .122.018l.02.004a1.114 1.114 0 0 1 .187.06 1.312 1.312 0 0 1 .33.197 1.3 1.3 0 0 1 .283.33 1.233 1.233 0 0 1 .141.357 1.329 1.329 0 0 1-.188 1.027 1.242 1.242 0 0 1-.754.511l-.019.004a.507.507 0 0 1-.075.013 1.689 1.689 0 0 1-.189.017l-.047.002H38.39v-2.554Zm3.791-2.89a1.26 1.26 0 0 1-.094.81 1.133 1.133 0 0 1-.753.596 1.24 1.24 0 0 1-.094.02l-.012.002a.77.77 0 0 1-.083.01 2.264 2.264 0 0 1-.188.012h-2.568v-2.357h2.588l.027.001a1.96 1.96 0 0 1 .189.015l.035.005.012.002a1.225 1.225 0 0 1 .706.403 1.159 1.159 0 0 1 .188.322c.02.05.035.104.047.159ZM48.023 5h.02v24.205a4.871 4.871 0 0 1-.35 1.8 5.226 5.226 0 0 1-.235.499 4.903 4.903 0 0 1-.188.316l-.048.071a5.181 5.181 0 0 1-.33.435l-.046.054a4.76 4.76 0 0 1-.095.105l-.047.05-.047.048-.047.048-.047.045-.047.045a4.848 4.848 0 0 1-.189.168c-.015.013-.03.027-.047.04l-.047.038-.047.038-.047.036-.047.036-.047.034-.047.034-.047.033-.047.032-.048.031c-.015.01-.03.021-.047.031a6.11 6.11 0 0 1-.094.06l-.047.027-.047.028-.047.027a4.34 4.34 0 0 1-.047.026l-.048.026-.047.025-.047.024-.047.024-.047.023-.047.022-.047.022-.047.021a4.785 4.785 0 0 1-.047.02l-.047.02-.047.02-.048.019-.047.018a3.795 3.795 0 0 1-.047.018l-.047.017-.047.016-.047.017-.047.015-.047.015-.047.015-.048.013c-.015.005-.03.01-.047.014l-.047.013-.047.012-.047.012-.047.012-.047.01c-.016.004-.032.008-.047.01l-.047.011-.047.01-.048.008-.047.01-.047.007-.047.008-.047.007-.047.006-.047.007-.047.005-.047.005-.047.005-.048.005a.389.389 0 0 0-.047.004l-.047.003-.047.003c-.016 0-.031.002-.047.003l-.047.001-.047.002-.047.001-.047.001h-7.216v-9.868h7.591l.047-.001.047-.001.048-.001.047-.002.047-.002.047-.003.047-.003.047-.004.047-.004.047-.005.047-.005.048-.006.047-.006.047-.007a3.32 3.32 0 0 0 .047-.007l.047-.008.047-.008.047-.009.047-.01.047-.01a5.492 5.492 0 0 0 .236-.06l.047-.014.047-.014.047-.016a2.608 2.608 0 0 0 .095-.032l.047-.018.047-.018.047-.02a3.333 3.333 0 0 0 .47-.245 3.207 3.207 0 0 0 .236-.17 2.568 2.568 0 0 0 .283-.27 2.442 2.442 0 0 0 .188-.246 2.128 2.128 0 0 0 .283-.64 2.187 2.187 0 0 0 .068-.555 2.184 2.184 0 0 0-.068-.538 1.955 1.955 0 0 0-.377-.743 1.934 1.934 0 0 0-.188-.207 2.465 2.465 0 0 0-.566-.41 2.097 2.097 0 0 0-.14-.073 2.538 2.538 0 0 0-.19-.084l-.046-.018a3.282 3.282 0 0 0-.047-.018l-.047-.018a5.175 5.175 0 0 0-.048-.016l-.047-.016a6.485 6.485 0 0 0-.094-.029l-.047-.014-.047-.013a3.625 3.625 0 0 0-.047-.012l-.047-.012a5.435 5.435 0 0 0-.142-.032l-.047-.01-.047-.008-.047-.009a5.76 5.76 0 0 0-.047-.008l-.047-.007-.047-.007-.047-.006-.047-.006-.048-.005-.047-.005-.047-.005-.047-.004-.043-.003v-.056l.043-.006.047-.008.047-.008.047-.01c.016-.002.032-.006.047-.009l.048-.01.047-.01.047-.013a3.236 3.236 0 0 0 .33-.102l.047-.018a2.566 2.566 0 0 0 .33-.154 5.26 5.26 0 0 0 .14-.084 2.25 2.25 0 0 0 .33-.253 2.233 2.233 0 0 0 .33-.386 2.213 2.213 0 0 0 .142-.25 2.113 2.113 0 0 0 .14-.4 2.122 2.122 0 0 0 .06-.501 2.357 2.357 0 0 0-.06-.517 2.014 2.014 0 0 0-.188-.49 1.95 1.95 0 0 0-.518-.605 2.455 2.455 0 0 0-.612-.358l-.047-.02a2.886 2.886 0 0 0-.283-.099l-.047-.014a2.324 2.324 0 0 0-.094-.025l-.047-.012a3.59 3.59 0 0 0-.095-.022l-.047-.01-.047-.01-.047-.008-.047-.008-.047-.008-.047-.007-.047-.007-.047-.006-.047-.005-.047-.005-.048-.005-.047-.004-.047-.004-.047-.003-.047-.003h-.019l-.028-.003-.047-.002-.047-.003-.047-.002-.048-.003-.047-.002-.047-.001-.047-.002h-.047l-.047-.001h-6.932V9.84a4.826 4.826 0 0 1 .526-2.187 4.39 4.39 0 0 1 .235-.41 4.163 4.163 0 0 1 .094-.14l.047-.068.047-.064L37 6.91c.015-.02.03-.04.047-.06l.047-.059a5.65 5.65 0 0 1 .094-.112l.047-.053.047-.052.047-.05a5.45 5.45 0 0 1 .095-.097l.047-.046.047-.045.047-.044.047-.043.047-.041a4.716 4.716 0 0 1 .094-.08l.047-.04.047-.037.048-.037.047-.036.047-.035c.016-.01.031-.022.047-.034l.047-.033.047-.032.047-.032.047-.03.048-.03.047-.03c.015-.01.03-.02.047-.029l.047-.027.047-.028.047-.026.047-.026.047-.025.047-.024.047-.024.047-.023.048-.023.047-.022.047-.021.047-.02.047-.021.047-.02.047-.018.047-.019.047-.018.048-.017.047-.017.047-.016.047-.015.047-.016.047-.014.047-.014.047-.014.047-.013.047-.013.048-.012.047-.011.047-.011.047-.01.047-.01.047-.01.047-.01.047-.008.047-.008.048-.008.047-.007.047-.007.047-.007.047-.005.047-.006.047-.005.047-.004.047-.004.047-.003.048-.003c.015-.001.03-.003.047-.003l.047-.002.047-.002.047-.002h.094L40.874 5h7.148Z" fill="#54B230"/><path fill-rule="evenodd" clip-rule="evenodd" d="M9 21.797V9.84a4.823 4.823 0 0 1 .571-2.274 4.86 4.86 0 0 1 .282-.461l.047-.067.047-.064.047-.063.047-.06.047-.058.048-.057.046-.055.047-.053.048-.052.046-.05a4.958 4.958 0 0 1 .095-.097l.047-.046.047-.046.047-.043c.015-.015.03-.03.047-.043l.047-.042c.015-.013.03-.027.047-.04a4.464 4.464 0 0 1 .094-.079l.047-.037a4.348 4.348 0 0 1 .14-.108l.048-.034a3.967 3.967 0 0 1 .188-.128l.047-.03.047-.03.047-.028.047-.028.047-.027a.55.55 0 0 1 .047-.026l.047-.026.047-.025.047-.025.047-.024.047-.023a4.06 4.06 0 0 1 .047-.022l.047-.022.047-.022.047-.02.047-.02.047-.02.047-.02.047-.018.047-.017.047-.018.047-.017.048-.016.046-.016.047-.015.048-.015.046-.013.048-.014.047-.013.047-.013.047-.012.047-.011.047-.012.047-.01.047-.01.047-.01.047-.01.047-.008.047-.008.047-.008.047-.007.047-.007.047-.006.047-.006.047-.006.047-.005.047-.004.047-.004.047-.004.047-.003c.016 0 .031-.002.047-.003l.047-.002.047-.002.047-.002h7.281v24.205a4.844 4.844 0 0 1-.369 1.85 4.578 4.578 0 0 1-.329.646l-.047.076a5.024 5.024 0 0 1-.33.458l-.046.057-.047.056a6.015 6.015 0 0 1-.047.053l-.047.053-.047.05-.047.05-.047.048a5.185 5.185 0 0 1-.094.092l-.047.044-.047.044-.047.041-.047.042-.047.04-.047.038a3.362 3.362 0 0 1-.047.038l-.047.037-.048.036a3.206 3.206 0 0 1-.046.035l-.047.035c-.016.01-.032.022-.047.033l-.047.033-.048.032-.047.03c-.015.01-.03.021-.047.031l-.047.03-.047.029-.047.027-.047.028a7.124 7.124 0 0 1-.047.026c-.015.01-.031.018-.047.026a4.25 4.25 0 0 1-.047.026l-.047.024a6.917 6.917 0 0 1-.047.024l-.047.024-.047.023-.047.022-.047.021-.047.021-.047.02-.047.02-.047.02-.047.018-.047.018-.047.018-.047.016-.047.017-.047.016-.047.015-.047.015-.047.014-.047.014-.047.013a3.603 3.603 0 0 1-.047.013l-.047.012-.047.012-.047.011-.047.01-.047.011-.047.01-.047.01-.047.008-.047.008-.047.008-.047.008-.047.007-.047.006a6.676 6.676 0 0 1-.047.006l-.047.006-.048.005a2.411 2.411 0 0 1-.047.005l-.047.004-.047.004-.047.003-.047.003-.047.002-.047.002-.047.002h-.047l-.047.001H9v-10.2l.101.026.047.011.047.012.047.011.047.011.047.01.047.011.047.011.047.01.047.01.047.01.047.01.047.01.047.01.047.01.047.01.047.009.047.009.047.009.047.009.047.009.047.009.048.008.046.009.047.008.048.008.046.008.048.009.047.008.047.007.047.008.047.008.047.007.047.008.047.007.047.007.047.008.047.007.047.006.047.007.047.007.047.007.047.006.047.007.047.006.047.006.047.006.047.006.047.006.047.006.047.006.047.005.047.006.047.005.047.006.047.005.047.005.047.005.047.005.047.005.047.005.047.004.047.005.047.004.047.004.047.005.047.004.047.004.048.004.046.003.047.004.048.004.046.003.048.004.047.003.047.003.047.003.047.003.047.003.047.003.047.003.047.002.047.003.047.002.047.002.047.002.047.002.047.002.047.002.047.002.047.002.047.001.047.001.047.002.047.001.047.001.047.001h.047l.047.002h.094l.047.001h.094l.047.001h.141l.047-.001h.047l.047-.001h.047l.047-.002h.047l.047-.002.047-.001.048-.002.046-.001.047-.002.048-.002.046-.002.048-.002.047-.002.047-.003.047-.002.047-.003.047-.003.047-.003.047-.003.047-.003.047-.004.047-.003.047-.005.047-.004.047-.004.047-.004.047-.005.047-.005.047-.004.047-.006.047-.005.047-.005.047-.006.047-.006.047-.006.047-.006.047-.007.047-.007.047-.007.047-.007.047-.007.047-.008.047-.008.047-.008.047-.008.047-.01.047-.008.047-.009.047-.01.047-.01.047-.009.047-.01.047-.011.047-.01.047-.012.047-.011.048-.012.047-.012.047-.013.047-.012.047-.013.047-.014.047-.013.047-.015.047-.014.047-.015.047-.015.047-.016.047-.016.047-.017.047-.017.047-.017.047-.018.047-.019.047-.019.047-.02.047-.019.047-.02.047-.022.047-.021.047-.023.047-.023.047-.023.047-.024.047-.026a7.039 7.039 0 0 0 .094-.052l.047-.027.047-.028.047-.03.047-.029.047-.03.047-.032.047-.033.047-.034.047-.035a3.43 3.43 0 0 0 .094-.074l.047-.04a.585.585 0 0 0 .047-.04.614.614 0 0 0 .047-.042l.047-.043a2.907 2.907 0 0 0 .236-.247 3.04 3.04 0 0 0 .658-1.305 3.769 3.769 0 0 0 .094-.554c.016-.158.023-.319.023-.482v-5.617h-4.161l-.036 5.617a2.908 2.908 0 0 1-.058.576 2.502 2.502 0 0 1-.141.447 2.21 2.21 0 0 1-.33.536 2.148 2.148 0 0 1-.799.59 2.216 2.216 0 0 1-.282.107 2.89 2.89 0 0 1-.235.062l-.047.01a3.256 3.256 0 0 1-.14.026l-.048.007-.047.006-.047.006-.047.005-.047.005-.047.004-.047.003a3.514 3.514 0 0 1-.047.003l-.047.002-.047.001-.047.002h-.141l-.047-.001-.047-.001-.047-.001-.047-.002-.047-.002-.047-.002-.047-.002-.047-.003-.047-.003-.047-.003-.047-.004-.047-.004-.047-.004-.048-.004-.046-.005-.047-.005-.048-.006-.046-.005-.047-.006-.048-.006-.047-.007-.047-.007-.047-.006-.047-.008-.047-.007-.047-.008-.047-.008-.047-.009-.047-.008-.047-.01-.047-.009-.047-.009-.047-.01-.047-.01-.047-.01-.047-.01-.047-.011-.047-.011-.047-.011-.047-.012-.047-.012-.047-.012-.047-.012-.047-.013-.047-.013-.047-.013-.047-.013-.047-.014-.047-.013-.047-.014-.047-.015-.047-.014-.047-.015-.047-.015-.047-.015-.047-.016-.047-.016-.047-.015-.047-.017-.048-.016-.046-.017-.047-.017-.048-.017-.046-.017-.048-.018-.047-.017-.047-.018-.047-.019-.047-.018-.047-.019-.047-.019-.047-.019-.047-.02-.047-.019-.047-.02-.047-.02-.047-.02-.047-.02-.047-.02-.047-.022-.047-.02-.047-.022-.047-.021-.047-.022-.047-.022-.047-.022A14.482 14.482 0 0 1 9 21.797Z" fill="#006CB9"/><path fill-rule="evenodd" clip-rule="evenodd" d="M22.603 16.096a4.423 4.423 0 0 0-.101.083V9.841a4.825 4.825 0 0 1 .524-2.184 4.92 4.92 0 0 1 .33-.55l.046-.068.047-.064.047-.062.047-.06.047-.059a4.563 4.563 0 0 1 .094-.112l.047-.053.047-.052.047-.05a5.565 5.565 0 0 1 .141-.143l.047-.045.047-.044.048-.043.046-.041.047-.041.047-.04a4.949 4.949 0 0 1 .33-.25c.015-.012.031-.022.047-.033a4.833 4.833 0 0 1 .14-.093l.048-.029.047-.029c.015-.01.031-.018.047-.027l.047-.028.047-.026.047-.026.047-.025.047-.025.047-.023.047-.024.047-.022.047-.022.047-.022.047-.02.047-.02.047-.02.047-.019.047-.019.047-.017.047-.018.047-.016.047-.017.047-.015.047-.016.047-.014.047-.014.047-.014.047-.013.047-.013.047-.012.048-.011.047-.012.047-.01.047-.01.047-.01.047-.01.047-.008.047-.008.047-.008.047-.007.047-.007.047-.006.047-.006.047-.006.047-.005.047-.004.047-.004.047-.004.047-.003c.016 0 .031-.002.047-.003l.047-.002.047-.002.047-.002h.094l.02-.001h7.168v24.205a4.84 4.84 0 0 1-.37 1.849 5.04 5.04 0 0 1-.376.722 5.024 5.024 0 0 1-.047.073 6.219 6.219 0 0 1-.282.386 1.18 1.18 0 0 1-.047.057l-.047.055a3.93 3.93 0 0 1-.047.054l-.047.053-.047.05-.047.05a5.266 5.266 0 0 1-.188.184c-.016.014-.031.03-.047.043l-.047.042-.047.041-.047.04-.047.04-.047.037-.047.037-.047.036-.047.035-.047.034-.047.034-.047.033-.047.032-.047.03-.047.031-.047.03-.047.028-.047.028-.047.028-.047.026-.047.026-.048.026-.047.024-.047.024a.514.514 0 0 1-.047.023l-.047.024-.047.021-.047.022-.047.02-.047.021-.047.02-.047.02-.047.018-.047.018-.047.018-.047.016-.047.017-.047.016-.047.015-.047.015-.047.014-.047.014-.047.013a3.603 3.603 0 0 1-.047.013l-.047.012-.047.012a4.027 4.027 0 0 1-.047.011l-.047.01-.047.011-.047.01-.047.01-.047.008-.047.008a3.54 3.54 0 0 1-.047.008l-.047.008-.047.007-.047.006-.047.006-.047.006-.047.005-.047.005-.047.004-.047.004-.048.003-.047.003-.047.002-.047.002-.047.002h-.047l-.047.001h-7.201V22.87a4.7 4.7 0 0 0 .1.083l.048.037.047.036.047.036.047.034a5.64 5.64 0 0 0 .094.066l.047.032.047.031.047.03.047.03.047.03.047.028.047.028.047.027.047.026.047.026.047.025.047.025.047.024.047.024.047.023.047.023.047.022.047.021.047.022.047.02.047.02.047.02.047.02.047.02.047.018.048.018.046.018.047.018.047.017.048.017.047.016.047.016.047.016.047.015.047.015.047.015.047.014.047.015.047.014.047.013.047.013.047.014.047.012.047.013.047.012.047.012.047.011.047.012.047.011.047.01.047.012.047.01.047.01.047.01.047.01.047.01.047.008.047.01.047.008.047.009.047.008.047.009.047.008.047.007.047.008.047.008.047.007.047.007.047.007.047.006.048.007.047.006.047.006.047.006.047.006.047.006.047.005.047.005.047.005.047.005.047.005.047.005.047.004.047.004.047.004.047.004.047.004.047.004.047.003.047.004.047.003.047.003.047.003.047.003.047.003.047.003.047.002.047.002.047.002.047.002.047.002.047.002.047.002.047.001.047.002h.047l.047.002.047.001h.047l.047.002h.048l.046.001h.094l.048.001h.282l.047-.002h.094l.047-.002h.047l.047-.002h.047l.047-.002.047-.001.047-.002.047-.001.047-.002.047-.002.047-.002.047-.002.047-.001.023-.001.024-.001.047-.003.047-.002.047-.003.047-.003.047-.003.047-.003.047-.003.047-.003.047-.004.047-.003.047-.004.047-.004.047-.004.047-.005.047-.004.047-.005.047-.004.048-.005.047-.005.047-.005.047-.005.047-.005.047-.006.047-.005.047-.006.047-.005.047-.006.047-.006.047-.006.047-.006.047-.007.047-.006.047-.007.047-.006.047-.007.047-.007.047-.007.047-.007.047-.007.047-.007.047-.007.047-.008.047-.007.047-.008.047-.008.047-.007.047-.008.047-.008.047-.008.047-.009.047-.008.047-.008.047-.009.047-.008.047-.009.047-.009.047-.008.047-.01.047-.008.048-.01.047-.009.047-.009.047-.01.047-.009.047-.01.047-.009.047-.01.047-.01.047-.01.047-.01.047-.01.047-.01.047-.01.047-.01.047-.011.047-.01.047-.012.047-.01.047-.012.047-.01.047-.012v-2.048l-.047.023-.047.023-.047.023-.047.023-.047.022-.047.022-.047.022-.047.022-.047.021-.047.022-.047.02-.047.021-.047.021-.047.02-.047.02-.047.02-.047.02-.047.02-.047.018-.047.019-.047.019-.047.018-.047.018-.047.018-.047.017-.048.018-.047.017-.047.016-.047.017-.047.016-.047.016-.047.016-.047.015-.047.015-.047.015-.047.015-.047.014-.047.014-.047.014-.047.014-.047.013-.047.013-.047.013-.047.012-.047.013-.047.011-.047.012-.047.012-.047.01-.047.012-.047.01-.047.01-.047.01-.047.01-.047.01-.047.01-.047.009-.047.009-.047.008-.047.008-.047.009-.047.007-.047.008-.047.007-.047.007-.047.007-.047.007-.048.006-.047.006-.047.006-.047.005-.047.006-.047.005-.047.005-.047.004-.047.004-.047.004-.047.004-.028.002-.019.002-.047.003-.047.003-.047.002-.047.003-.047.002-.047.002-.047.001-.047.001h-.047l-.047.001h-.141l-.047-.002-.047-.001-.047-.002-.047-.002-.047-.002-.047-.003-.047-.003-.047-.004-.047-.004-.047-.004-.047-.005-.047-.006-.047-.005-.047-.006-.048-.007-.046-.007-.048-.008-.047-.008-.047-.008-.047-.009-.047-.01-.047-.01-.047-.01-.047-.011-.047-.012a3.238 3.238 0 0 1-.047-.012l-.047-.013a3.623 3.623 0 0 1-.188-.057l-.047-.016-.047-.017-.047-.017-.047-.018a3.818 3.818 0 0 1-.047-.019l-.047-.02a3.336 3.336 0 0 1-.235-.11l-.047-.025a3.547 3.547 0 0 1-.047-.027l-.047-.026a3.07 3.07 0 0 1-.094-.058l-.047-.03-.047-.032a2.626 2.626 0 0 1-.094-.067l-.047-.036a2.847 2.847 0 0 1-.047-.037l-.047-.039a2.298 2.298 0 0 1-.142-.128 2.565 2.565 0 0 1-.376-.451 2.74 2.74 0 0 1-.235-.426 3.08 3.08 0 0 1-.188-.55 3.68 3.68 0 0 1-.094-.563 4.522 4.522 0 0 1 .047-1.18 3.7 3.7 0 0 1 .141-.535 3.111 3.111 0 0 1 .282-.589 2.735 2.735 0 0 1 .33-.428l.047-.05a2.935 2.935 0 0 1 .14-.133l.048-.041.047-.039c.015-.012.03-.025.047-.037l.047-.036a2.63 2.63 0 0 1 .094-.067c.015-.011.03-.022.047-.032a2.089 2.089 0 0 1 .14-.088l.048-.027a2.68 2.68 0 0 1 .14-.075c.017-.007.032-.015.048-.023l.047-.022.047-.021.047-.02.047-.02.047-.019.047-.018.047-.017.047-.017.047-.016a5.203 5.203 0 0 1 .141-.044l.047-.013a3.613 3.613 0 0 1 .094-.025l.047-.012.047-.011.047-.01.047-.01.047-.01.047-.01.047-.008.047-.008.048-.007.046-.007.047-.007.047-.006.048-.006.047-.005.047-.005.047-.005.047-.003.047-.004.047-.003.047-.003.047-.003c.015 0 .031 0 .047-.002l.047-.001.047-.002h.047l.047-.001h.188l.047.002.047.001.047.002.047.002.047.002.047.003.047.003.047.003.019.001.028.002.047.004.047.004.047.004.047.005.047.005.047.005.047.005.047.005.047.006.047.006.047.006.047.007.047.006.047.007.048.008.047.007.047.008.047.008.047.008.047.008.047.01.047.008.047.01.047.009.047.01.047.01.047.01.047.01.047.011.047.012.047.011.047.012.047.012.047.012.047.012.047.013.047.013.047.013.047.014.047.014.047.014.047.014.047.015.047.014.047.016.047.015.047.016.047.016.047.016.047.017.047.016.047.017.047.018.047.017.047.018.047.019.048.018.047.018.047.02.047.019.047.02.047.019.047.02.047.02.047.02.047.021.047.021.047.021.047.022.047.022.047.021.047.023.047.022.047.023.047.022.047.024.047.023.047.023V15.2l-.047-.01-.047-.012-.047-.01-.047-.012-.047-.01-.047-.011-.047-.01-.047-.011-.047-.01-.047-.01-.047-.011-.047-.01-.047-.01-.047-.01-.047-.01-.047-.01-.047-.009-.047-.01-.047-.008-.047-.01-.047-.009-.047-.009-.047-.009-.047-.009-.047-.009-.048-.008-.047-.01-.047-.008-.047-.008-.047-.008-.047-.009-.047-.008-.047-.008-.047-.008-.047-.008-.047-.008-.047-.007-.047-.008-.047-.007-.047-.008-.047-.007-.047-.007-.047-.007-.047-.007-.047-.007-.047-.007-.047-.007-.047-.006-.047-.007-.047-.006-.047-.007-.047-.006-.047-.006-.047-.006-.047-.005-.047-.006-.047-.006-.047-.005-.047-.006-.047-.005-.047-.005-.047-.005-.047-.005-.047-.005-.047-.004-.047-.005-.047-.004-.048-.004-.047-.004-.047-.004-.047-.004-.047-.004-.047-.003-.047-.004-.047-.003-.047-.003-.047-.003-.047-.003-.047-.002-.047-.003-.047-.002-.024-.001h-.023l-.047-.003-.047-.002-.047-.002-.047-.001-.047-.002-.047-.002-.047-.001-.047-.001-.047-.002h-.047l-.047-.002h-.047l-.047-.002h-.094l-.047-.002h-.425l-.046.001-.048.001h-.047l-.047.002h-.047l-.047.002-.047.001-.047.002-.047.001-.047.002-.047.002-.047.002-.047.001-.047.003-.047.002-.047.002-.047.003-.047.003-.047.002-.047.003-.047.004-.047.003-.047.003-.047.004-.047.004-.047.003-.047.004-.047.004-.047.005-.047.004-.047.005-.047.005-.047.005-.047.005-.047.005-.047.005-.047.006-.047.006-.047.006-.047.006-.047.006-.047.007-.047.006-.047.007-.047.007-.048.007-.047.008-.047.007-.047.008-.047.008-.047.008-.047.009-.047.008-.047.01-.047.008-.047.01-.047.01-.047.009-.047.01-.047.01-.047.01-.047.011-.047.01-.047.012-.047.012-.047.011-.047.012-.047.012-.047.013-.047.013-.047.013-.047.013-.047.014-.047.013-.047.015-.047.014-.047.015-.047.015-.047.016-.047.015-.047.016-.047.017a.375.375 0 0 0-.047.017.375.375 0 0 0-.047.017l-.048.017-.046.018-.048.018-.047.02-.047.018-.047.02-.047.02-.047.02-.047.02-.047.022-.047.021-.047.023-.047.022-.047.024-.047.023-.047.024-.047.025-.047.025-.047.026-.047.027-.047.027-.047.028-.047.028-.047.029-.047.03-.047.03-.047.031-.047.032-.047.033a4 4 0 0 0-.047.034l-.047.034a5.772 5.772 0 0 0-.141.109Z" fill="#E10238"/></svg>