<svg width="58" height="40" viewBox="0 0 58 40" fill="none" xmlns="http://www.w3.org/2000/svg">
<rect x="0.5" y="0.5" width="57" height="39" rx="3.5" fill="white" stroke="#F3F3F3"/>
<path fill-rule="evenodd" clip-rule="evenodd" d="M38.3892 20.1113H38.4135H38.4606H38.5077H38.5548H38.6019H38.649H38.6961H38.7432H38.7903H38.8374H38.8845H38.9316H38.9787H39.0258H39.0729H39.12H39.1671H39.2142H39.2613H39.3084H39.3555H39.4026H39.4496H39.4968H39.5439H39.5909H39.6381H39.6851H39.7322H39.7794H39.8264H39.8736H39.9206H39.9677H40.0149H40.0619H40.109H40.1561H40.2032H40.2503H40.2974H40.3445H40.3916H40.4387H40.4858H40.5329H40.58H40.6271H40.6742H40.7213H40.7684H40.8155H40.8626H40.9097H40.9568H41.0039H41.051H41.0981H41.1452H41.1923H41.2315L41.2394 20.1115C41.2539 20.1119 41.2698 20.1125 41.2865 20.1134C41.3016 20.1142 41.3174 20.1153 41.3336 20.1165C41.3491 20.1176 41.3649 20.1189 41.3807 20.1203C41.3965 20.1218 41.4123 20.1234 41.4278 20.1251C41.444 20.1268 41.4598 20.1287 41.4748 20.1308C41.4917 20.133 41.5076 20.1353 41.522 20.1378C41.5323 20.1395 41.5419 20.1413 41.5504 20.1431L41.5691 20.1473C41.5848 20.1509 41.6005 20.1549 41.6161 20.1592C41.6319 20.1635 41.6476 20.1681 41.6633 20.173C41.6791 20.178 41.6948 20.1833 41.7103 20.189C41.7262 20.1947 41.7419 20.2007 41.7574 20.207C41.7733 20.2134 41.789 20.2202 41.8046 20.2272C41.8204 20.2344 41.8361 20.2419 41.8516 20.2498C41.8675 20.2577 41.8832 20.2661 41.8987 20.2748C41.9146 20.2836 41.9303 20.2929 41.9458 20.3025C41.9617 20.3123 41.9775 20.3225 41.9929 20.333C42.0089 20.3438 42.0246 20.355 42.04 20.3665C42.056 20.3785 42.0717 20.3908 42.0871 20.4036C42.1031 20.4168 42.1188 20.4305 42.1342 20.4445C42.1503 20.4592 42.166 20.4742 42.1813 20.4897C42.1975 20.506 42.2132 20.5228 42.2284 20.5401C42.2446 20.5584 42.2603 20.5772 42.2755 20.5965C42.2919 20.6173 42.3076 20.6387 42.3226 20.6606C42.3391 20.6846 42.3548 20.7092 42.3697 20.7345C42.3865 20.763 42.4022 20.7924 42.4168 20.8225C42.4341 20.8582 42.4499 20.895 42.4639 20.9328C42.4828 20.9837 42.4986 21.0364 42.511 21.0908C42.5326 21.1851 42.5442 21.2844 42.5442 21.3881C42.5442 21.4923 42.5326 21.5921 42.511 21.6867C42.4986 21.7413 42.4828 21.7941 42.4639 21.8451C42.4499 21.883 42.4341 21.9198 42.4168 21.9557C42.4022 21.9858 42.3865 22.0152 42.3697 22.0437C42.3548 22.0691 42.3391 22.0937 42.3226 22.1177C42.3076 22.1396 42.2918 22.161 42.2755 22.1818C42.2603 22.2011 42.2446 22.2199 42.2284 22.2382C42.2132 22.2554 42.1975 22.2723 42.1813 22.2886C42.166 22.304 42.1503 22.319 42.1342 22.3337C42.1188 22.3477 42.1031 22.3612 42.0871 22.3744C42.0717 22.3871 42.056 22.3995 42.04 22.4114C42.0246 22.4229 42.0089 22.434 41.9929 22.4448C41.9775 22.4553 41.9617 22.4654 41.9458 22.4752C41.9303 22.4847 41.9146 22.4939 41.8987 22.5028C41.8832 22.5114 41.8675 22.5197 41.8516 22.5276C41.8361 22.5354 41.8204 22.5429 41.8046 22.55C41.789 22.557 41.7733 22.5637 41.7574 22.5701C41.7419 22.5763 41.7262 22.5823 41.7103 22.588C41.6948 22.5935 41.6791 22.5987 41.6633 22.6036C41.6476 22.6085 41.6319 22.613 41.6161 22.6173C41.6005 22.6215 41.5848 22.6254 41.5691 22.629L41.5504 22.6331C41.5419 22.6351 41.5323 22.637 41.522 22.6388C41.5076 22.6413 41.4917 22.6437 41.4748 22.646C41.4598 22.648 41.444 22.65 41.4278 22.6517C41.4123 22.6534 41.3965 22.655 41.3807 22.6564C41.3649 22.6578 41.3491 22.6591 41.3336 22.6602C41.3174 22.6613 41.3016 22.6623 41.2865 22.6631C41.2698 22.664 41.2539 22.6646 41.2394 22.6649L41.2141 22.6653H41.1923H41.1452H41.0981H41.051H41.0039H40.9568H40.9097H40.8626H40.8155H40.7684H40.7213H40.6742H40.6271H40.58H40.5329H40.4858H40.4387H40.3916H40.3445H40.2974H40.2503H40.2032H40.1561H40.109H40.0619H40.0149H39.9677H39.9206H39.8736H39.8264H39.7794H39.7322H39.6851H39.6381H39.5909H39.5439H39.4968H39.4496H39.4026H39.3555H39.3084H39.2613H39.2142H39.1671H39.12H39.0729H39.0258H38.9787H38.9316H38.8845H38.8374H38.7903H38.7432H38.6961H38.649H38.6019H38.5548H38.5077H38.4606H38.4135H38.3892V20.1113ZM42.1815 17.2208C42.2004 17.3065 42.2106 17.3973 42.2106 17.4929C42.2106 17.5884 42.2004 17.6791 42.1815 17.7648C42.1693 17.8198 42.1535 17.8727 42.1344 17.9235C42.1204 17.9605 42.1047 17.9963 42.0873 18.0309C42.0727 18.0599 42.057 18.088 42.0402 18.1153C42.0253 18.1394 42.0096 18.1628 41.9931 18.1854C41.978 18.2061 41.9623 18.2262 41.946 18.2457C41.9308 18.2638 41.9152 18.2814 41.8989 18.2984C41.8836 18.3145 41.868 18.33 41.8518 18.3451C41.8365 18.3594 41.8208 18.3733 41.8047 18.3867C41.7893 18.3996 41.7736 18.412 41.7576 18.4241C41.7422 18.4357 41.7265 18.4469 41.7105 18.4577C41.6951 18.4682 41.6793 18.4783 41.6634 18.488C41.6479 18.4974 41.6322 18.5065 41.6163 18.5152C41.6008 18.5238 41.5851 18.532 41.5692 18.5398C41.5537 18.5475 41.538 18.5548 41.5221 18.5618C41.5066 18.5686 41.4909 18.5752 41.475 18.5813C41.4595 18.5874 41.4438 18.5932 41.428 18.5987C41.4124 18.604 41.3967 18.6091 41.3809 18.6138C41.3653 18.6185 41.3496 18.6229 41.3338 18.627C41.3182 18.631 41.3025 18.6348 41.2867 18.6382C41.2711 18.6416 41.2554 18.6446 41.2396 18.6474L41.2281 18.6494C41.219 18.651 41.2068 18.6528 41.1925 18.6546C41.1786 18.6563 41.1626 18.6581 41.1454 18.6598C41.1305 18.6614 41.1146 18.6628 41.0983 18.6642C41.0829 18.6655 41.067 18.6666 41.0512 18.6676C41.0354 18.6686 41.0195 18.6694 41.0041 18.6701C40.9878 18.6707 40.9719 18.6712 40.957 18.6712L40.9495 18.6713H40.9099H40.8628H40.8157H40.7686H40.7215H40.6744H40.6273H40.5803H40.5331H40.486H40.439H40.3918H40.3448H40.2977H40.2505H40.2035H40.1564H40.1093H40.0622H40.0151H39.968H39.9209H39.8738H39.8267H39.7796H39.7325H39.6854H39.6383H39.5912H39.5441H39.497H39.4499H39.4028H39.3558H39.3087H39.2615H39.2145H39.1674H39.1203H39.0732H39.0261H38.979H38.9319H38.8848H38.8377H38.7906H38.7435H38.6964H38.6493H38.6022H38.5551H38.508H38.4609H38.4138H38.3892V16.3145H38.4138H38.4609H38.508H38.5551H38.6022H38.6493H38.6964H38.7435H38.7906H38.8377H38.8848H38.9319H38.979H39.0261H39.0732H39.1203H39.1674H39.2145H39.2615H39.3087H39.3558H39.4028H39.4499H39.497H39.5441H39.5912H39.6383H39.6854H39.7325H39.7796H39.8267H39.8738H39.9209H39.968H40.0151H40.0622H40.1093H40.1564H40.2035H40.2505H40.2977H40.3448H40.3918H40.439H40.486H40.5331H40.5803H40.6273H40.6744H40.7215H40.7686H40.8157H40.8628H40.9099H40.957H40.9768L41.0041 16.3154C41.0195 16.316 41.0354 16.3169 41.0512 16.3179C41.067 16.3189 41.0829 16.3201 41.0983 16.3213C41.1146 16.3227 41.1305 16.3241 41.1454 16.3256C41.1626 16.3272 41.1786 16.3289 41.1925 16.3305C41.2068 16.3321 41.219 16.3337 41.2281 16.3349L41.2396 16.337C41.2554 16.3398 41.2711 16.343 41.2867 16.3464C41.3025 16.3498 41.3182 16.3536 41.3338 16.3577C41.3496 16.3618 41.3653 16.3662 41.3809 16.3709C41.3967 16.3757 41.4124 16.3808 41.428 16.3862C41.4438 16.3917 41.4595 16.3975 41.475 16.4036C41.4909 16.4099 41.5066 16.4165 41.5221 16.4233C41.538 16.4304 41.5537 16.4377 41.5692 16.4453C41.5851 16.4532 41.6008 16.4614 41.6163 16.4699C41.6322 16.4787 41.6479 16.4878 41.6634 16.4972C41.6793 16.507 41.6951 16.517 41.7105 16.5275C41.7265 16.5383 41.7422 16.5496 41.7576 16.5613C41.7736 16.5733 41.7893 16.5857 41.8047 16.5986C41.8208 16.6121 41.8365 16.626 41.8518 16.6403C41.868 16.6554 41.8836 16.6709 41.8989 16.6869C41.9152 16.704 41.9308 16.7216 41.946 16.7397C41.9623 16.7592 41.978 16.7793 41.9931 16.8C42.0096 16.8227 42.0253 16.846 42.0402 16.8701C42.057 16.8974 42.0727 16.9255 42.0873 16.9545C42.1047 16.9891 42.1204 17.025 42.1344 17.062C42.1535 17.1128 42.1693 17.1657 42.1815 17.2208ZM48.0222 5H48.0415L48.0415 29.2048C48.0415 29.3494 48.0347 29.4925 48.0222 29.6339C48.0112 29.7583 47.9954 29.8814 47.9751 30.0029C47.9614 30.0846 47.9457 30.1655 47.928 30.2458C47.9136 30.311 47.8979 30.3759 47.8809 30.4401C47.8662 30.4956 47.8504 30.5506 47.8338 30.6052C47.8188 30.6546 47.8032 30.7038 47.7867 30.7526C47.7716 30.7968 47.7558 30.8406 47.7396 30.8843C47.7244 30.9249 47.7087 30.9652 47.6925 31.0054C47.6772 31.043 47.6616 31.0804 47.6454 31.1177C47.6301 31.1529 47.6143 31.1879 47.5983 31.2228C47.5829 31.2559 47.5672 31.2889 47.5512 31.3216C47.5358 31.353 47.5201 31.3843 47.5041 31.4152C47.4887 31.4449 47.4729 31.4745 47.457 31.5038C47.4416 31.5321 47.4258 31.56 47.4099 31.5879C47.3944 31.6149 47.3787 31.6417 47.3628 31.6683C47.3473 31.6943 47.3316 31.72 47.3156 31.7457C47.3001 31.7706 47.2845 31.7955 47.2685 31.8202C47.2531 31.8441 47.2372 31.8677 47.2214 31.8913C47.2059 31.9142 47.1902 31.9369 47.1743 31.9596C47.1588 31.9819 47.1431 32.0041 47.1272 32.0261C47.1117 32.0475 47.096 32.0689 47.0801 32.0901C47.0646 32.1108 47.0488 32.1312 47.033 32.1516C47.0174 32.1717 47.0018 32.1918 46.9859 32.2116C46.9703 32.2311 46.9547 32.2504 46.9388 32.2696C46.9232 32.2884 46.9075 32.307 46.8917 32.3256C46.876 32.3439 46.8605 32.3624 46.8446 32.3805C46.829 32.3982 46.8133 32.4157 46.7975 32.4331C46.7819 32.4504 46.7662 32.4675 46.7504 32.4846C46.7347 32.5014 46.7191 32.5182 46.7033 32.5347C46.6877 32.551 46.6719 32.567 46.6562 32.5831C46.6405 32.599 46.6249 32.6151 46.609 32.6308C46.5935 32.6462 46.5777 32.6612 46.5619 32.6764C46.5463 32.6915 46.5307 32.7066 46.5148 32.7214C46.4992 32.736 46.4835 32.7505 46.4677 32.7649C46.4521 32.7792 46.4364 32.7934 46.4206 32.8075C46.405 32.8214 46.3893 32.8352 46.3735 32.8489C46.3579 32.8624 46.3422 32.8758 46.3264 32.8892C46.3108 32.9024 46.2951 32.9157 46.2793 32.9287C46.2638 32.9416 46.248 32.9542 46.2322 32.9669C46.2165 32.9795 46.2009 32.9921 46.1851 33.0045C46.1695 33.0167 46.1537 33.0287 46.138 33.0407C46.1223 33.0527 46.1067 33.0647 46.0909 33.0765C46.0753 33.0881 46.0595 33.0995 46.0438 33.111C46.0281 33.1224 46.0125 33.1339 45.9967 33.1451C45.9811 33.1562 45.9653 33.167 45.9496 33.1778C45.9339 33.1887 45.9183 33.1996 45.9025 33.2102C45.8868 33.2208 45.8711 33.231 45.8554 33.2414C45.8397 33.2517 45.8241 33.2621 45.8083 33.2722C45.7926 33.2822 45.7769 33.2921 45.7612 33.3019C45.7455 33.3117 45.7298 33.3215 45.714 33.3311C45.6984 33.3406 45.6827 33.35 45.667 33.3594L45.6198 33.3871C45.6042 33.3961 45.5885 33.4052 45.5728 33.4141C45.5571 33.4229 45.5414 33.4316 45.5256 33.4402C45.5099 33.4489 45.4943 33.4576 45.4785 33.466C45.4629 33.4744 45.4472 33.4825 45.4314 33.4907C45.4157 33.4989 45.4001 33.5073 45.3843 33.5154C45.3687 33.5233 45.3529 33.5309 45.3372 33.5386C45.3215 33.5464 45.3059 33.5543 45.2901 33.5618C45.2745 33.5694 45.2587 33.5767 45.243 33.5841L45.1959 33.6059L45.1488 33.6271C45.1331 33.634 45.1174 33.6408 45.1017 33.6475C45.086 33.6543 45.0704 33.6612 45.0546 33.6678C45.039 33.6743 45.0232 33.6805 45.0075 33.6869C44.9918 33.6932 44.9762 33.6998 44.9604 33.706C44.9447 33.7121 44.929 33.718 44.9133 33.724C44.8976 33.73 44.882 33.7359 44.8662 33.7417L44.8191 33.759C44.8034 33.7646 44.7876 33.77 44.7719 33.7754C44.7562 33.7809 44.7407 33.7865 44.7249 33.7918C44.7092 33.7971 44.6934 33.8019 44.6777 33.807L44.6306 33.8222C44.615 33.8271 44.5993 33.8318 44.5835 33.8366L44.5364 33.8505C44.5207 33.855 44.5051 33.8597 44.4893 33.8641C44.4737 33.8685 44.4579 33.8726 44.4422 33.8768C44.4265 33.881 44.4109 33.8854 44.3951 33.8894L44.348 33.9012L44.3009 33.9126L44.2538 33.9237C44.2382 33.9273 44.2224 33.9305 44.2067 33.9339C44.191 33.9373 44.1753 33.9409 44.1596 33.9441L44.1125 33.9534L44.0654 33.9624C44.0497 33.9653 44.034 33.9684 44.0183 33.9712C44.0026 33.9739 43.9869 33.9763 43.9712 33.9789L43.9241 33.9867L43.877 33.9937L43.8299 34.0002C43.8141 34.0024 43.7985 34.0048 43.7827 34.0068C43.7671 34.0087 43.7513 34.0103 43.7357 34.0121C43.72 34.0139 43.7043 34.0158 43.6885 34.0175C43.6728 34.0191 43.6572 34.0208 43.6415 34.0223C43.6258 34.0238 43.61 34.0251 43.5943 34.0265C43.5786 34.0278 43.5629 34.0294 43.5472 34.0306C43.5316 34.0318 43.5158 34.0328 43.5001 34.0339L43.453 34.0368C43.4373 34.0378 43.4216 34.0389 43.4059 34.0396C43.3903 34.0404 43.3745 34.0408 43.3588 34.0414L43.3117 34.0432L43.2646 34.0444C43.2489 34.0448 43.2332 34.0448 43.2175 34.045L43.1704 34.0456L43.1607 34.0457H43.1233H43.0762H43.0291H42.982H42.9348H42.8878H42.8406H42.7935H42.7464H42.6993H42.6522H42.6051H42.558H42.5109H42.4638H42.4167H42.3696H42.3225H42.2754H42.2283H42.1812H42.1341H42.087H42.0399H41.9928H41.9456H41.8986H41.8514H41.8043H41.7572H41.7101H41.663H41.6159H41.5688H41.5217H41.4746H41.4275H41.3804H41.3333H41.2862H41.2391H41.192H41.1449H41.0977H41.0507H41.0035H40.9565H40.9093H40.8622H40.8151H40.768H40.7209H40.6738H40.6267H40.5796H40.5325H40.4854H40.4383H40.3912H40.3441H40.297H40.2499H40.2028H40.1557H40.1086H40.0615H40.0143H39.9672H39.9201H39.873H39.8259H39.7788H39.7317H39.6846H39.6375H39.5904H39.5433H39.4962H39.4491H39.402H39.3549H39.3078H39.2606H39.2136H39.1664H39.1194H39.0722H39.0252H38.978H38.9309H38.8838H38.8367H38.7896H38.7425H38.6954H38.6483H38.6012H38.5541H38.507H38.4599H38.4128H38.3657H38.3186H38.2715H38.2244H38.1772H38.1301H38.083H38.0359H37.9888H37.9417H37.8946H37.8475H37.8004H37.7533H37.7062H37.6591H37.612H37.5649H37.5178H37.4707H37.4236H37.3765H37.3293H37.2823H37.2351H37.1881H37.1409H37.0938H37.0467H36.9996H36.9525H36.9054H36.8583H36.8112H36.7641H36.717H36.6699H36.6228H36.5757H36.5286H36.4815H36.4344H36.3873H36.3402H36.293H36.2459H36.1988H36.1517H36.1046H36.003V24.1766H36.1046H36.1517H36.1988H36.2459H36.293H36.3402H36.3873H36.4344H36.4815H36.5286H36.5757H36.6228H36.6699H36.717H36.7641H36.8112H36.8583H36.9054H36.9525H36.9996H37.0467H37.0938H37.1409H37.1881H37.2351H37.2823H37.3293H37.3765H37.4236H37.4707H37.5178H37.5649H37.612H37.6591H37.7062H37.7533H37.8004H37.8475H37.8946H37.9417H37.9888H38.0359H38.083H38.1301H38.1772H38.2244H38.2715H38.3186H38.3657H38.4128H38.4599H38.507H38.5541H38.6012H38.6483H38.6954H38.7425H38.7896H38.8367H38.8838H38.9309H38.978H39.0252H39.0722H39.1194H39.1664H39.2136H39.2606H39.3078H39.3549H39.402H39.4491H39.4962H39.5433H39.5904H39.6375H39.6846H39.7317H39.7788H39.8259H39.873H39.9201H39.9672H40.0143H40.0615H40.1086H40.1557H40.2028H40.2499H40.297H40.3441H40.3912H40.4383H40.4854H40.5325H40.5796H40.6267H40.6738H40.7209H40.768H40.8151H40.8622H40.9093H40.9565H41.0035H41.0507H41.0977H41.1449H41.192H41.2391H41.2862H41.3333H41.3804H41.4275H41.4746H41.5217H41.5688H41.6159H41.663H41.7101H41.7572H41.8043H41.8514H41.8986H41.9456H41.9928H42.0399H42.087H42.1341H42.1812H42.2283H42.2754H42.3225H42.3696H42.4167H42.4638H42.5109H42.558H42.6051H42.6522H42.6993H42.7464H42.7935H42.8406H42.8878H42.9348H42.982H43.0291H43.0762H43.1233H43.1704H43.2175H43.2646H43.3117H43.3588H43.4059H43.453H43.5001H43.5472H43.5722L43.5943 24.1764L43.6415 24.176L43.6885 24.175C43.7043 24.1747 43.72 24.1744 43.7357 24.1739C43.7514 24.1733 43.767 24.1726 43.7827 24.1719L43.8299 24.1697L43.877 24.1669L43.9241 24.1637L43.9712 24.1601L44.0183 24.1558C44.034 24.1543 44.0497 24.1529 44.0654 24.1512C44.0811 24.1496 44.0968 24.1477 44.1125 24.1459L44.1596 24.1402C44.1753 24.1382 44.191 24.1363 44.2067 24.1341C44.2225 24.1319 44.2381 24.1295 44.2538 24.1272C44.2696 24.1249 44.2853 24.1225 44.3009 24.12L44.348 24.1122L44.3951 24.1037C44.4108 24.1008 44.4266 24.098 44.4422 24.095C44.458 24.0919 44.4737 24.0885 44.4893 24.0853L44.5364 24.0752C44.5522 24.0717 44.5679 24.0682 44.5835 24.0646C44.5993 24.0609 44.615 24.057 44.6306 24.0531C44.6464 24.0492 44.6621 24.0453 44.6777 24.0412C44.6935 24.0371 44.7092 24.033 44.7249 24.0287C44.7406 24.0244 44.7563 24.0199 44.7719 24.0153C44.7877 24.0108 44.8034 24.0062 44.8191 24.0015L44.8662 23.9868C44.882 23.9818 44.8976 23.9766 44.9133 23.9714C44.929 23.9662 44.9448 23.9609 44.9604 23.9554C44.9762 23.9499 44.9919 23.9444 45.0075 23.9387C45.0233 23.933 45.0389 23.9269 45.0546 23.921C45.0704 23.9149 45.0861 23.9088 45.1017 23.9026C45.1175 23.8962 45.1332 23.89 45.1488 23.8835C45.1646 23.8769 45.1803 23.8701 45.1959 23.8633C45.2117 23.8564 45.2274 23.8494 45.243 23.8423C45.2588 23.8351 45.2745 23.8278 45.2901 23.8204C45.3059 23.8129 45.3216 23.8054 45.3372 23.7977C45.3531 23.7898 45.3687 23.7819 45.3843 23.7738C45.4001 23.7656 45.4158 23.7572 45.4314 23.7487C45.4473 23.7402 45.463 23.7315 45.4785 23.7228C45.4944 23.7138 45.5101 23.7048 45.5256 23.6956C45.5414 23.6864 45.5572 23.677 45.5728 23.6674C45.5886 23.6576 45.6043 23.6477 45.6198 23.6377C45.6357 23.6274 45.6514 23.6171 45.667 23.6066C45.6828 23.5959 45.6985 23.5851 45.714 23.5741C45.7299 23.5629 45.7456 23.5516 45.7612 23.5402C45.7771 23.5285 45.7928 23.5166 45.8083 23.5046C45.8241 23.4923 45.8399 23.4799 45.8554 23.4673C45.8713 23.4544 45.887 23.4414 45.9025 23.4282C45.9184 23.4146 45.9341 23.4008 45.9496 23.3869C45.9655 23.3726 45.9812 23.3581 45.9967 23.3435C46.0126 23.3284 46.0283 23.3131 46.0438 23.2976C46.0598 23.2815 46.0755 23.2654 46.0909 23.2489C46.1069 23.232 46.1226 23.2147 46.138 23.1974C46.154 23.1793 46.1697 23.1609 46.1851 23.1424C46.2012 23.1231 46.2169 23.1035 46.2322 23.0837C46.2483 23.063 46.2641 23.0421 46.2793 23.0208C46.2955 22.9983 46.3111 22.9753 46.3264 22.9521C46.3426 22.9276 46.3583 22.9027 46.3735 22.8775C46.3899 22.8505 46.4055 22.823 46.4206 22.7952C46.437 22.765 46.4528 22.7344 46.4677 22.7033C46.4844 22.6685 46.5001 22.6332 46.5148 22.5974C46.5318 22.5564 46.5475 22.5148 46.5619 22.4724C46.5797 22.4202 46.5953 22.367 46.609 22.3128C46.6291 22.2336 46.6449 22.1523 46.6562 22.0691C46.6698 21.968 46.677 21.8642 46.677 21.7575C46.677 21.6536 46.6699 21.5527 46.6562 21.4547C46.6449 21.3741 46.6291 21.2956 46.609 21.2192C46.5953 21.1672 46.5796 21.1161 46.5619 21.066C46.5475 21.0249 46.5318 20.9844 46.5148 20.9446C46.5001 20.9102 46.4844 20.8763 46.4677 20.8429C46.4528 20.8128 46.4371 20.7832 46.4206 20.754C46.4055 20.7271 46.3899 20.7006 46.3735 20.6744C46.3584 20.6502 46.3426 20.6262 46.3264 20.6026C46.3111 20.5803 46.2955 20.5581 46.2793 20.5364C46.2641 20.5159 46.2483 20.4957 46.2322 20.4757C46.2169 20.4566 46.2012 20.4377 46.1851 20.4191C46.1697 20.4012 46.154 20.3834 46.138 20.366C46.1226 20.3492 46.1069 20.3326 46.0909 20.3162C46.0755 20.3004 46.0598 20.2848 46.0438 20.2694C46.0283 20.2544 46.0126 20.2397 45.9967 20.2251C45.9812 20.211 45.9655 20.1971 45.9496 20.1833C45.9341 20.1698 45.9184 20.1565 45.9025 20.1435C45.887 20.1307 45.8713 20.1181 45.8554 20.1056C45.8398 20.0934 45.8241 20.0814 45.8083 20.0695C45.7927 20.0579 45.777 20.0465 45.7612 20.0351C45.7456 20.0241 45.7299 20.0131 45.714 20.0023C45.6985 19.9917 45.6828 19.9812 45.667 19.9709C45.6514 19.9607 45.6357 19.9507 45.6198 19.9408C45.6043 19.9312 45.5886 19.9216 45.5728 19.9121C45.5572 19.9029 45.5415 19.8937 45.5256 19.8847C45.5101 19.8758 45.4944 19.8671 45.4785 19.8584C45.463 19.8499 45.4473 19.8415 45.4314 19.8333C45.4158 19.8251 45.4001 19.8171 45.3843 19.8091C45.3687 19.8013 45.353 19.7935 45.3372 19.7859C45.3216 19.7783 45.3059 19.7709 45.2901 19.7636C45.2745 19.7563 45.2588 19.7493 45.243 19.7424C45.2274 19.7355 45.2117 19.7287 45.1959 19.722C45.1803 19.7154 45.1646 19.7089 45.1488 19.7024C45.1331 19.6961 45.1175 19.6897 45.1017 19.6836C45.0861 19.6775 45.0704 19.6715 45.0546 19.6656C45.039 19.6598 45.0232 19.6542 45.0075 19.6485C44.9919 19.643 44.9762 19.6375 44.9604 19.6321C44.9447 19.6268 44.9291 19.6215 44.9133 19.6163C44.8976 19.6112 44.882 19.6062 44.8662 19.6012C44.8506 19.5964 44.8348 19.5916 44.8191 19.587L44.7719 19.5732C44.7563 19.5688 44.7406 19.5643 44.7249 19.5601C44.7092 19.5559 44.6935 19.5518 44.6777 19.5478C44.6621 19.5437 44.6464 19.5399 44.6306 19.536C44.615 19.5322 44.5993 19.5284 44.5835 19.5247C44.5679 19.5211 44.5522 19.5176 44.5364 19.5141C44.5208 19.5107 44.5051 19.5074 44.4893 19.5041C44.4737 19.5009 44.458 19.4976 44.4422 19.4946L44.3951 19.4856L44.348 19.4773C44.3324 19.4746 44.3167 19.4719 44.3009 19.4693L44.2538 19.462C44.2382 19.4596 44.2224 19.4574 44.2067 19.4552L44.1596 19.4489L44.1125 19.443L44.0654 19.4377L44.0183 19.4328L43.9712 19.4284L43.9241 19.4245L43.8806 19.4212L43.8805 19.3652L43.9241 19.3585L43.9712 19.3508C43.9869 19.3481 44.0027 19.3455 44.0183 19.3426L44.0654 19.3336C44.0812 19.3305 44.0969 19.3273 44.1125 19.324L44.1596 19.3139C44.1753 19.3103 44.1911 19.3068 44.2067 19.3031C44.2225 19.2993 44.2382 19.2953 44.2538 19.2914C44.2696 19.2874 44.2853 19.2832 44.3009 19.279C44.3167 19.2747 44.3324 19.2704 44.348 19.266C44.3638 19.2615 44.3795 19.2569 44.3951 19.2522C44.4109 19.2475 44.4267 19.2426 44.4422 19.2377C44.458 19.2326 44.4737 19.2275 44.4893 19.2222C44.5052 19.2169 44.5208 19.2115 44.5364 19.206C44.5523 19.2004 44.5679 19.1947 44.5835 19.1889C44.5993 19.183 44.6151 19.1771 44.6306 19.171C44.6465 19.1648 44.6622 19.1585 44.6777 19.1521C44.6936 19.1456 44.7093 19.139 44.7249 19.1323C44.7407 19.1255 44.7564 19.1185 44.7719 19.1114C44.7878 19.1042 44.8035 19.0969 44.8191 19.0894C44.8349 19.0819 44.8506 19.0742 44.8662 19.0664C44.882 19.0585 44.8977 19.0504 44.9133 19.0422C44.9291 19.0339 44.9449 19.0254 44.9604 19.0169C44.9762 19.0081 44.9919 18.9992 45.0075 18.9903C45.0233 18.9811 45.0391 18.9717 45.0546 18.9623C45.0705 18.9527 45.0861 18.9429 45.1017 18.933C45.1176 18.9229 45.1333 18.9125 45.1488 18.9021C45.1647 18.8915 45.1804 18.8807 45.1959 18.8697C45.2118 18.8585 45.2275 18.8471 45.243 18.8356C45.2589 18.8238 45.2746 18.8119 45.2901 18.7998C45.306 18.7873 45.3218 18.7747 45.3372 18.762C45.3531 18.7488 45.3688 18.7354 45.3843 18.722C45.4003 18.708 45.416 18.6938 45.4314 18.6796C45.4474 18.6648 45.4631 18.6499 45.4785 18.6348C45.4945 18.6191 45.5102 18.6033 45.5256 18.5873C45.5417 18.5706 45.5574 18.5537 45.5728 18.5366C45.5888 18.5188 45.6045 18.5007 45.6198 18.4824C45.6359 18.4633 45.6517 18.444 45.667 18.4244C45.6831 18.4038 45.6988 18.3829 45.714 18.3617C45.7302 18.3393 45.7459 18.3166 45.7612 18.2937C45.7774 18.2692 45.7931 18.2445 45.8083 18.2194C45.8246 18.1923 45.8403 18.1648 45.8554 18.1371C45.8719 18.1065 45.8876 18.0756 45.9025 18.0444C45.9192 18.0092 45.9349 17.9735 45.9496 17.9375C45.9667 17.8955 45.9824 17.853 45.9967 17.8099C46.0146 17.7557 46.0304 17.7006 46.0438 17.6449C46.0655 17.5544 46.0812 17.462 46.0909 17.3681C46.0986 17.294 46.1025 17.2188 46.1025 17.143C46.1025 17.0628 46.0985 16.9847 46.0909 16.9086C46.0812 16.8112 46.0654 16.7172 46.0438 16.6264C46.0303 16.5697 46.0146 16.5143 45.9967 16.4602C45.9823 16.417 45.9666 16.3746 45.9496 16.333C45.9349 16.2971 45.9192 16.2619 45.9025 16.2274C45.8875 16.1966 45.8718 16.1662 45.8554 16.1364C45.8403 16.1091 45.8246 16.0822 45.8083 16.0558C45.7931 16.0312 45.7774 16.0069 45.7612 15.9831C45.7459 15.9607 45.7302 15.9387 45.714 15.917C45.6988 15.8965 45.6831 15.8763 45.667 15.8563C45.6516 15.8373 45.636 15.8184 45.6198 15.7999C45.6045 15.7822 45.5888 15.7649 45.5728 15.7478C45.5574 15.7313 45.5416 15.715 45.5256 15.6989C45.5102 15.6834 45.4945 15.6682 45.4785 15.6531C45.4631 15.6385 45.4474 15.6241 45.4314 15.6099C45.416 15.5962 45.4002 15.5826 45.3843 15.5692C45.3688 15.5561 45.3531 15.5433 45.3372 15.5306C45.3217 15.5183 45.306 15.5061 45.2901 15.4941C45.2746 15.4825 45.2589 15.471 45.243 15.4596C45.2275 15.4485 45.2118 15.4376 45.1959 15.4268C45.1803 15.4162 45.1647 15.4059 45.1488 15.3956C45.1333 15.3855 45.1175 15.3756 45.1017 15.3658C45.0861 15.3563 45.0704 15.3469 45.0546 15.3376C45.039 15.3284 45.0233 15.3195 45.0075 15.3106C44.9919 15.3019 44.9762 15.2933 44.9604 15.2848C44.9448 15.2765 44.9291 15.2684 44.9133 15.2603C44.8977 15.2523 44.882 15.2445 44.8662 15.2368C44.8506 15.2292 44.8349 15.2217 44.8191 15.2143C44.8035 15.2071 44.7877 15.1999 44.7719 15.193C44.7564 15.1861 44.7407 15.1794 44.7249 15.1727C44.7093 15.1661 44.6935 15.1597 44.6777 15.1533C44.6622 15.147 44.6464 15.1408 44.6306 15.1347C44.615 15.1287 44.5993 15.1228 44.5835 15.117C44.5679 15.1112 44.5523 15.1056 44.5364 15.1001C44.5208 15.0946 44.5051 15.0893 44.4893 15.084C44.4737 15.0788 44.458 15.0738 44.4422 15.0688C44.4266 15.0638 44.4109 15.0589 44.3951 15.0542C44.3795 15.0495 44.3638 15.0447 44.348 15.0402C44.3324 15.0357 44.3167 15.0314 44.3009 15.0272C44.2853 15.0229 44.2696 15.0188 44.2538 15.0148L44.2067 15.0029C44.191 14.999 44.1754 14.9953 44.1596 14.9916C44.144 14.988 44.1283 14.9845 44.1125 14.9811L44.0654 14.9712C44.0497 14.968 44.0341 14.9647 44.0183 14.9617C44.0027 14.9587 43.9869 14.9559 43.9712 14.953L43.9241 14.9448C43.9084 14.9422 43.8928 14.9395 43.877 14.937L43.8299 14.9299L43.7827 14.9234L43.7357 14.9172L43.6885 14.9116L43.6415 14.9066L43.5943 14.9019L43.5472 14.8978L43.5001 14.8942L43.453 14.8909L43.4059 14.8882L43.3872 14.8871L43.3588 14.8854L43.3117 14.8827L43.2646 14.8801L43.2175 14.8776L43.1704 14.8754L43.1233 14.8734L43.0762 14.8717L43.0291 14.8702L42.982 14.8692L42.9348 14.8686L42.9089 14.8685H42.8878H42.8406H42.7935H42.7464H42.6993H42.6522H42.6051H42.558H42.5109H42.4638H42.4167H42.3696H42.3225H42.2754H42.2283H42.1812H42.1341H42.087H42.0399H41.9928H41.9456H41.8986H41.8514H41.8043H41.7572H41.7101H41.663H41.6159H41.5688H41.5217H41.4746H41.4275H41.3804H41.3333H41.2862H41.2391H41.192H41.1449H41.0977H41.0507H41.0035H40.9565H40.9093H40.8622H40.8151H40.768H40.7209H40.6738H40.6267H40.5796H40.5325H40.4854H40.4383H40.3912H40.3441H40.297H40.2499H40.2028H40.1557H40.1086H40.0615H40.0143H39.9672H39.9201H39.873H39.8259H39.7788H39.7317H39.6846H39.6375H39.5904H39.5433H39.4962H39.4491H39.402H39.3549H39.3078H39.2606H39.2136H39.1664H39.1194H39.0722H39.0252H38.978H38.9309H38.8838H38.8367H38.7896H38.7425H38.6954H38.6483H38.6012H38.5541H38.507H38.4599H38.4128H38.3657H38.3186H38.2715H38.2244H38.1772H38.1301H38.083H38.0359H37.9888H37.9417H37.8946H37.8475H37.8004H37.7533H37.7062H37.6591H37.612H37.5649H37.5178H37.4707H37.4236H37.3765H37.3293H37.2823H37.2351H37.1881H37.1409H37.0938H37.0467H36.9996H36.9525H36.9054H36.8583H36.8112H36.7641H36.717H36.6699H36.6228H36.5757H36.5286H36.4815H36.4344H36.3873H36.3402H36.293H36.2459H36.1988H36.1517H36.1046H36.003V9.84136C36.003 9.50316 36.0381 9.17313 36.1046 8.85449C36.1189 8.78625 36.1346 8.7186 36.1517 8.65148C36.1664 8.59405 36.1822 8.53705 36.1988 8.48047C36.2137 8.42993 36.2294 8.37974 36.2459 8.3299C36.261 8.28436 36.2766 8.23905 36.293 8.19412C36.3082 8.15245 36.3238 8.11102 36.3402 8.06989C36.3554 8.03147 36.3711 7.99325 36.3873 7.95534C36.4026 7.91955 36.4182 7.88392 36.4344 7.84857C36.4497 7.81499 36.4654 7.78165 36.4815 7.7485C36.4968 7.71686 36.5126 7.68545 36.5286 7.6542C36.5439 7.62415 36.5597 7.59433 36.5757 7.56462C36.5911 7.53601 36.6068 7.50758 36.6228 7.47931C36.6382 7.45189 36.6539 7.42471 36.6699 7.39764C36.6854 7.37138 36.701 7.34524 36.717 7.31933C36.7325 7.2942 36.7482 7.26926 36.7641 7.24443C36.7795 7.22038 36.7953 7.19657 36.8112 7.17283C36.8267 7.14959 36.8424 7.12643 36.8583 7.10347C36.8739 7.08097 36.8894 7.05847 36.9054 7.03624C36.9209 7.01471 36.9367 6.99345 36.9525 6.97219C36.968 6.95127 36.9838 6.93052 36.9996 6.90988C37.0153 6.88954 37.0308 6.86913 37.0467 6.84907C37.0622 6.82956 37.0781 6.81035 37.0938 6.79106C37.1094 6.77205 37.1251 6.75319 37.1409 6.73444C37.1565 6.71593 37.1722 6.69742 37.1881 6.67914C37.2036 6.66133 37.2194 6.64382 37.2351 6.62624C37.2508 6.60882 37.2664 6.59135 37.2823 6.57415C37.2978 6.55731 37.3136 6.54062 37.3293 6.52397C37.3449 6.50755 37.3607 6.49124 37.3765 6.47502C37.3921 6.45902 37.4077 6.44303 37.4236 6.42723C37.4391 6.4117 37.4549 6.3964 37.4707 6.3811C37.4863 6.36588 37.5019 6.35051 37.5178 6.33552C37.5333 6.32084 37.5491 6.30652 37.5649 6.29203C37.5805 6.27763 37.5962 6.26318 37.612 6.24897C37.6276 6.23499 37.6434 6.22128 37.6591 6.20753C37.6747 6.19386 37.6904 6.18019 37.7062 6.16671C37.7218 6.15343 37.7375 6.14034 37.7533 6.12725C37.769 6.11428 37.7846 6.10134 37.8004 6.08856C37.816 6.0759 37.8317 6.06339 37.8475 6.05096L37.8946 6.01421L37.9417 5.97843C37.9574 5.96669 37.9731 5.95503 37.9888 5.94349C38.0045 5.93207 38.0201 5.92068 38.0359 5.90941L38.083 5.87623C38.0987 5.86534 38.1144 5.85454 38.1301 5.84385L38.1772 5.81221L38.2244 5.78142C38.24 5.77132 38.2557 5.76125 38.2715 5.75133L38.3186 5.72213C38.3343 5.71249 38.3499 5.70285 38.3657 5.6934C38.3813 5.68403 38.3971 5.67493 38.4128 5.66575C38.4285 5.65657 38.4441 5.64731 38.4599 5.63833C38.4754 5.62946 38.4913 5.6209 38.507 5.61219C38.5227 5.60348 38.5383 5.59461 38.5541 5.58609C38.5697 5.57768 38.5855 5.56955 38.6012 5.5613C38.6169 5.55305 38.6325 5.54477 38.6483 5.53667C38.6639 5.52866 38.6797 5.52087 38.6954 5.51305C38.7111 5.50526 38.7268 5.49744 38.7425 5.48981L38.7896 5.46724C38.8053 5.45984 38.821 5.45264 38.8367 5.44539C38.8524 5.43819 38.868 5.43087 38.8838 5.42382C38.8994 5.41685 38.9152 5.41019 38.9309 5.40338C38.9466 5.39656 38.9623 5.38963 38.978 5.38297C38.9936 5.37638 39.0095 5.37011 39.0252 5.36368C39.0408 5.35729 39.0565 5.35082 39.0722 5.34459L39.1194 5.32619L39.1664 5.30842C39.1822 5.30253 39.1978 5.29657 39.2136 5.29087C39.2292 5.28522 39.245 5.27992 39.2606 5.27442C39.2764 5.26892 39.292 5.2633 39.3078 5.25796C39.3234 5.25265 39.3392 5.24766 39.3549 5.24251L39.402 5.22736C39.4177 5.22241 39.4333 5.21741 39.4491 5.21261C39.4647 5.20785 39.4805 5.20335 39.4962 5.19874C39.5119 5.1941 39.5275 5.1893 39.5433 5.18484C39.5589 5.18043 39.5747 5.17632 39.5904 5.17206C39.6061 5.1678 39.6217 5.1635 39.6375 5.1594L39.6846 5.14732C39.7003 5.1434 39.716 5.13969 39.7317 5.13593C39.7474 5.13217 39.763 5.12815 39.7788 5.12454C39.7944 5.12098 39.8102 5.11773 39.8259 5.11428L39.873 5.1041L39.9201 5.09445C39.9358 5.09136 39.9515 5.08845 39.9672 5.08551C39.983 5.08253 39.9986 5.07935 40.0143 5.07652C40.03 5.0737 40.0458 5.0713 40.0615 5.06866L40.1086 5.06092C40.1242 5.05844 40.1399 5.05588 40.1557 5.05356C40.1713 5.05124 40.1871 5.04918 40.2028 5.04701C40.2185 5.04485 40.2341 5.04248 40.2499 5.04047C40.2655 5.03846 40.2813 5.03667 40.297 5.03482L40.3441 5.02947C40.3598 5.02777 40.3754 5.02587 40.3912 5.02432C40.4068 5.02277 40.4226 5.02157 40.4383 5.02018L40.4854 5.01603L40.5325 5.01251C40.5482 5.01139 40.5639 5.01049 40.5796 5.00953C40.5953 5.0086 40.6109 5.0074 40.6267 5.00658C40.6424 5.00577 40.6581 5.00531 40.6738 5.00465L40.7209 5.0029C40.7367 5.0024 40.7523 5.00174 40.768 5.00139C40.7837 5.00105 40.7994 5.00101 40.8151 5.00077C40.8308 5.00054 40.8465 5.00027 40.8622 5.00019L40.8741 5.00004H40.9093H40.9565H41.0035H41.0507H41.0977H41.1449H41.192H41.2391H41.2862H41.3333H41.3804H41.4275H41.4746H41.5217H41.5688H41.6159H41.663H41.7101H41.7572H41.8043H41.8514H41.8986H41.9456H41.9928H42.0399H42.087H42.1341H42.1812H42.2283H42.2754H42.3225H42.3696H42.4167H42.4638H42.5109H42.558H42.6051H42.6522H42.6993H42.7464H42.7935H42.8406H42.8878H42.9348H42.982H43.0291H43.0762H43.1233H43.1704H43.2175H43.2646H43.3117H43.3588H43.4059H43.453H43.5001H43.5472H43.5943H43.6415H43.6885H43.7357H43.7827H43.8299H43.877H43.9241H43.9712H44.0183H44.0654H44.1125H44.1596H44.2067H44.2538H44.3009H44.348H44.3951H44.4422H44.4893H44.5364H44.5835H44.6306H44.6777H44.7249H44.7719H44.8191H44.8662H44.9133H44.9604H45.0075H45.0546H45.1017H45.1488H45.1959H45.243H45.2901H45.3372H45.3843H45.4314H45.4785H45.5256H45.5728H45.6198H45.667H45.714H45.7612H45.8083H45.8554H45.9025H45.9496H45.9967H46.0438H46.0909H46.138H46.1851H46.2322H46.2793H46.3264H46.3735H46.4206H46.4677H46.5148H46.5619H46.609H46.6562H46.7033H46.7504H46.7975H46.8446H46.8917H46.9388H46.9859H47.033H47.0801H47.1272H47.1743H47.2214H47.2685H47.3156H47.3628H47.4099H47.457H47.5041H47.5512H47.5983H47.6454H47.6925H47.7396H47.7867H47.8338H47.8809H47.928H47.9751H48.0222V5Z" fill="#54B230"/>
<path fill-rule="evenodd" clip-rule="evenodd" d="M9 21.7969V9.84132C9 9.50409 9.03482 9.17491 9.101 8.85712C9.11521 8.78889 9.13098 8.72127 9.14805 8.65412C9.16265 8.59661 9.17838 8.53956 9.19505 8.48291C9.20993 8.43241 9.22562 8.3823 9.24206 8.33249C9.25713 8.28691 9.2727 8.24152 9.2891 8.19652C9.30429 8.15489 9.31983 8.11349 9.33611 8.07241C9.3513 8.03399 9.36699 7.99569 9.38315 7.95774C9.39842 7.92195 9.41407 7.8864 9.43016 7.85108C9.44546 7.81751 9.46116 7.7842 9.47716 7.75105C9.49247 7.71938 9.50824 7.68793 9.52421 7.65664C9.53955 7.62659 9.55525 7.59677 9.57122 7.5671C9.5866 7.53848 9.60229 7.51006 9.61822 7.48179C9.63364 7.45441 9.6493 7.42718 9.66527 7.40015C9.68073 7.3739 9.6963 7.34772 9.71227 7.32177C9.72773 7.29668 9.74343 7.27177 9.75932 7.24699C9.7747 7.22298 9.79051 7.19912 9.80632 7.17538C9.82182 7.15215 9.83744 7.12899 9.85333 7.10602C9.86895 7.08349 9.88441 7.06099 9.90037 7.03872C9.9158 7.01723 9.93161 6.996 9.94738 6.97474C9.96292 6.95383 9.97857 6.93307 9.99442 6.91243C10.01 6.89214 10.0255 6.87169 10.0414 6.85163C10.0569 6.83215 10.0727 6.81298 10.0884 6.79373C10.104 6.77472 10.1196 6.75578 10.1355 6.737C10.1511 6.71853 10.1666 6.70009 10.1825 6.68185C10.198 6.664 10.2138 6.64646 10.2295 6.62884C10.2451 6.61137 10.2607 6.59394 10.2765 6.57675C10.292 6.5599 10.3078 6.54329 10.3235 6.52668C10.3391 6.51022 10.3548 6.49391 10.3706 6.47769C10.3862 6.46169 10.4018 6.4457 10.4176 6.4299C10.4331 6.41437 10.4489 6.39907 10.4646 6.38378C10.4803 6.36856 10.4958 6.35322 10.5116 6.33823C10.5271 6.32356 10.543 6.30923 10.5587 6.29474C10.5743 6.2803 10.5898 6.26581 10.6057 6.2516C10.6212 6.23766 10.637 6.22399 10.6527 6.21024C10.6684 6.19657 10.6839 6.18286 10.6997 6.16939C10.7153 6.1561 10.731 6.14305 10.7468 6.12996C10.7623 6.11699 10.778 6.10402 10.7938 6.09124C10.8093 6.07861 10.8251 6.0661 10.8408 6.05363C10.8564 6.04128 10.872 6.02904 10.8878 6.01688C10.9034 6.00484 10.9191 5.99295 10.9349 5.9811C10.9505 5.96936 10.9661 5.95767 10.9819 5.94613L11.0289 5.91213C11.0445 5.90093 11.0601 5.88982 11.0759 5.87882C11.0915 5.86794 11.1072 5.85717 11.1229 5.84648C11.1385 5.83583 11.1542 5.82526 11.1699 5.81481C11.1855 5.80447 11.2012 5.79428 11.217 5.7841C11.2326 5.77399 11.2482 5.7638 11.264 5.75385C11.2796 5.74401 11.2953 5.73441 11.311 5.72473C11.3267 5.71508 11.3423 5.70533 11.358 5.69588C11.3736 5.68654 11.3893 5.67748 11.405 5.6683C11.4207 5.65913 11.4363 5.64979 11.4521 5.64077C11.4676 5.6319 11.4834 5.62342 11.4991 5.61471C11.5148 5.60599 11.5304 5.59716 11.5461 5.5886C11.5617 5.58016 11.5774 5.57203 11.5931 5.56378C11.6088 5.55553 11.6244 5.54724 11.6401 5.53915C11.6558 5.53113 11.6715 5.52327 11.6872 5.51541L11.7342 5.49225C11.7498 5.48462 11.7655 5.47699 11.7812 5.46956C11.7969 5.46216 11.8125 5.455 11.8282 5.44776C11.8439 5.44051 11.8595 5.43312 11.8752 5.42607C11.8908 5.41906 11.9066 5.41248 11.9223 5.40566C11.9379 5.39884 11.9536 5.39191 11.9693 5.38525C11.9849 5.37867 12.0006 5.37232 12.0163 5.36589L12.0633 5.34683L12.1104 5.32832L12.1574 5.31059C12.1731 5.3047 12.1886 5.29862 12.2044 5.29289C12.22 5.28723 12.2358 5.28197 12.2515 5.27647C12.2671 5.27097 12.2827 5.26539 12.2985 5.26005L12.3455 5.24444L12.3925 5.2293C12.4082 5.22434 12.4238 5.21927 12.4395 5.21447C12.4551 5.2097 12.4709 5.20517 12.4865 5.20056C12.5022 5.19592 12.5178 5.19119 12.5336 5.1867C12.5492 5.18225 12.5649 5.1781 12.5806 5.1738L12.6276 5.16114C12.6433 5.15704 12.6589 5.15285 12.6746 5.1489C12.6902 5.14495 12.706 5.14135 12.7216 5.13756C12.7373 5.13376 12.7529 5.12981 12.7687 5.12617C12.7843 5.12257 12.8 5.1192 12.8157 5.11575L12.8627 5.10561C12.8784 5.10228 12.894 5.09891 12.9097 5.09577C12.9253 5.09267 12.9411 5.08981 12.9567 5.08682C12.9724 5.08384 12.988 5.08074 13.0038 5.07792C13.0194 5.07509 13.0351 5.07253 13.0508 5.06986L13.0978 5.06212C13.1135 5.05964 13.1291 5.05697 13.1448 5.0546C13.1605 5.05224 13.1762 5.05027 13.1918 5.04806C13.2075 5.04589 13.2232 5.04357 13.2389 5.04151L13.2859 5.03567L13.3329 5.03036C13.3486 5.02862 13.3642 5.02661 13.3799 5.02502C13.3956 5.02343 13.4113 5.02227 13.4269 5.02083L13.474 5.01673C13.4897 5.01541 13.5053 5.01414 13.521 5.01301C13.5367 5.01189 13.5524 5.011 13.568 5.01003C13.5837 5.00906 13.5994 5.00794 13.6151 5.00709C13.6307 5.00623 13.6464 5.00565 13.6621 5.00496L13.7091 5.00318C13.7248 5.00263 13.7404 5.00182 13.7561 5.00143C13.7717 5.00105 13.7875 5.00108 13.8031 5.00085C13.8188 5.00062 13.8345 5.00035 13.8502 5.00027L13.8972 5H13.9442H13.9912H14.0382H14.0853H14.1323H14.1793H14.2263H14.2733H14.3204H14.3674H14.4144H14.4614H14.5084H14.5555H14.6025H14.6495H14.6965H14.7435H14.7906H14.8376H14.8846H14.9316H14.9787H15.0257H15.0727H15.1197H15.1668H15.2138H15.2608H15.3078H15.3549H15.4019H15.4489H15.4959H15.5429H15.5899H15.637H15.684H15.731H15.778H15.825H15.8721H15.9191H15.9661H16.0131H16.0601H16.1072H16.1542H16.2012H16.2482H16.2952H16.3423H16.3893H16.4363H16.4833H16.5304H16.5774H16.6244H16.6714H16.7185H16.7655H16.8125H16.8595H16.9066H16.9536H17.0006H17.0476H17.0946H17.1416H17.1887H17.2357H17.2827H17.3297H17.3767H17.4238H17.4708H17.5178H17.5648H17.6118H17.6589H17.7059H17.7529H17.7999H17.847H17.894H17.941H17.988H18.0351H18.0821H18.1291H18.1761H18.2232H18.2702H18.3172H18.3642H18.4112H18.4583H18.5053H18.5523H18.5993H18.6463H18.6933H18.7404H18.7874H18.8344H18.8814H18.9285H18.9755H19.0225H19.0695H19.1165H19.1635H19.2106H19.2576H19.3046H19.3516H19.3987H19.4457H19.4927H19.5397H19.5868H19.6338H19.6808H19.7278H19.7749H19.8219H19.8689H19.9159H19.9629H20.0099H20.057H20.104H20.151H20.198H20.245H20.2921H20.3391H20.3861H20.4331H20.4801H20.5272H20.5742H20.6212H20.6682H20.7152H20.7623H20.8093H20.8563H20.9033H20.9504H20.9974H21.0373V29.2048C21.0373 29.4154 21.0237 29.6228 20.9974 29.8262C20.9848 29.9242 20.9688 30.0212 20.9504 30.1172C20.9363 30.1902 20.9207 30.2627 20.9033 30.3346C20.8887 30.3951 20.8731 30.4552 20.8563 30.5148C20.8415 30.5672 20.8258 30.6191 20.8093 30.6706C20.7943 30.7173 20.7786 30.7637 20.7623 30.8098C20.7472 30.8524 20.7315 30.8948 20.7152 30.9369C20.7001 30.9762 20.6844 31.0153 20.6682 31.0541C20.653 31.0906 20.6373 31.127 20.6212 31.163C20.6059 31.1972 20.5902 31.2312 20.5742 31.2651C20.5589 31.2973 20.5432 31.3294 20.5272 31.3612C20.5118 31.3918 20.4961 31.4222 20.4801 31.4524C20.4648 31.4815 20.4491 31.5105 20.4331 31.5392C20.4177 31.567 20.4021 31.5947 20.3861 31.6221C20.3707 31.6486 20.355 31.675 20.3391 31.7012C20.3237 31.7265 20.3079 31.7515 20.2921 31.7766C20.2766 31.801 20.2609 31.8253 20.245 31.8494C20.2295 31.873 20.214 31.8965 20.198 31.9198C20.1826 31.9424 20.1668 31.9648 20.151 31.9871C20.1356 32.0089 20.1198 32.0305 20.104 32.0521C20.0884 32.0733 20.0728 32.0944 20.057 32.1153C20.0415 32.1357 20.0258 32.156 20.0099 32.1762C19.9944 32.1959 19.9787 32.2154 19.9629 32.2349C19.9473 32.2542 19.9318 32.2734 19.9159 32.2924C19.9004 32.3109 19.8846 32.3293 19.8689 32.3476C19.8533 32.3656 19.8377 32.3835 19.8219 32.4013C19.8062 32.4189 19.7907 32.4366 19.7749 32.4539C19.7594 32.4709 19.7435 32.4875 19.7278 32.5043C19.7122 32.5209 19.6967 32.5376 19.6808 32.5539C19.6653 32.57 19.6495 32.5859 19.6338 32.6017C19.6182 32.6174 19.6026 32.633 19.5868 32.6485C19.5712 32.6638 19.5555 32.679 19.5397 32.6941C19.5242 32.7089 19.5084 32.7235 19.4927 32.7382C19.4771 32.7527 19.4615 32.7673 19.4457 32.7816C19.4302 32.7956 19.4144 32.8094 19.3987 32.8233C19.383 32.8371 19.3675 32.8511 19.3516 32.8646C19.3361 32.878 19.3203 32.8909 19.3046 32.9041C19.289 32.9172 19.2734 32.9305 19.2576 32.9434C19.2421 32.9561 19.2263 32.9686 19.2106 32.981C19.1949 32.9935 19.1794 33.0061 19.1635 33.0184C19.148 33.0304 19.1322 33.0422 19.1165 33.0541C19.1009 33.066 19.0853 33.0779 19.0695 33.0895C19.054 33.101 19.0382 33.1122 19.0225 33.1236C19.0068 33.1348 18.9913 33.1462 18.9755 33.1573C18.9599 33.1683 18.9442 33.179 18.9285 33.1897C18.9128 33.2004 18.8972 33.2113 18.8814 33.2219C18.8659 33.2323 18.8501 33.2424 18.8344 33.2526C18.8187 33.2628 18.8032 33.2733 18.7874 33.2833C18.7718 33.2932 18.756 33.3027 18.7404 33.3124C18.7247 33.3221 18.7091 33.332 18.6933 33.3415C18.6778 33.3509 18.662 33.3601 18.6463 33.3693C18.6307 33.3785 18.6151 33.3878 18.5993 33.3969C18.5837 33.4058 18.568 33.4146 18.5523 33.4234C18.5367 33.4321 18.521 33.4409 18.5053 33.4494C18.4897 33.4579 18.474 33.4664 18.4583 33.4747L18.4112 33.4993C18.3956 33.5074 18.3799 33.5155 18.3642 33.5235C18.3486 33.5313 18.3329 33.539 18.3172 33.5467C18.3015 33.5543 18.2859 33.5622 18.2702 33.5697C18.2546 33.5772 18.2388 33.5843 18.2232 33.5915C18.2075 33.5988 18.1919 33.6062 18.1761 33.6133C18.1605 33.6204 18.1448 33.6271 18.1291 33.634L18.0821 33.6544L18.0351 33.6742C18.0194 33.6807 18.0037 33.687 17.988 33.6933C17.9724 33.6996 17.9567 33.706 17.941 33.7122C17.9254 33.7183 17.9097 33.724 17.894 33.7299C17.8783 33.7358 17.8627 33.7418 17.847 33.7476C17.8313 33.7533 17.8156 33.7588 17.7999 33.7644L17.7529 33.7808L17.7059 33.7968C17.6903 33.802 17.6745 33.8069 17.6589 33.8119C17.6432 33.817 17.6276 33.8222 17.6118 33.8271C17.5963 33.8319 17.5805 33.8364 17.5648 33.8411L17.5178 33.8549L17.4708 33.8682C17.4552 33.8725 17.4395 33.8766 17.4238 33.8808C17.4081 33.885 17.3925 33.8894 17.3767 33.8934C17.3612 33.8974 17.3453 33.901 17.3297 33.9048C17.3141 33.9086 17.2984 33.9125 17.2827 33.9162L17.2357 33.9269L17.1887 33.9371C17.173 33.9405 17.1574 33.9441 17.1416 33.9473C17.126 33.9505 17.1103 33.9532 17.0946 33.9562C17.079 33.9592 17.0633 33.9623 17.0476 33.9651L17.0006 33.9735C16.985 33.9763 16.9693 33.9787 16.9536 33.9813C16.9379 33.9838 16.9223 33.9866 16.9066 33.989C16.8909 33.9914 16.8752 33.9934 16.8595 33.9957L16.8125 34.0022C16.7969 34.0043 16.7812 34.0064 16.7655 34.0084C16.7498 34.0103 16.7341 34.0119 16.7185 34.0137C16.7028 34.0155 16.6871 34.0174 16.6714 34.019C16.6558 34.0207 16.6401 34.0221 16.6244 34.0235L16.5774 34.0277C16.5617 34.029 16.5461 34.0306 16.5304 34.0318C16.5147 34.033 16.499 34.0337 16.4833 34.0347L16.4363 34.0377L16.3893 34.0402C16.3737 34.0409 16.3579 34.0414 16.3423 34.0419C16.3266 34.0425 16.3109 34.0433 16.2952 34.0437C16.2796 34.0441 16.2639 34.0443 16.2482 34.0446L16.2012 34.0452C16.1867 34.0453 16.1722 34.0457 16.1576 34.0457H16.1072H16.0601H16.0131H15.9661H15.9191H15.8721H15.825H15.778H15.731H15.684H15.637H15.5899H15.5429H15.4959H15.4489H15.4019H15.3549H15.3078H15.2608H15.2138H15.1668H15.1197H15.0727H15.0257H14.9787H14.9316H14.8846H14.8376H14.7906H14.7435H14.6965H14.6495H14.6025H14.5555H14.5084H14.4614H14.4144H14.3674H14.3204H14.2733H14.2263H14.1793H14.1323H14.0853H14.0382H13.9912H13.9442H13.8972H13.8502H13.8031H13.7561H13.7091H13.6621H13.6151H13.568H13.521H13.474H13.4269H13.3799H13.3329H13.2859H13.2389H13.1918H13.1448H13.0978H13.0508H13.0038H12.9567H12.9097H12.8627H12.8157H12.7687H12.7216H12.6746H12.6276H12.5806H12.5336H12.4865H12.4395H12.3925H12.3455H12.2985H12.2515H12.2044H12.1574H12.1104H12.0633H12.0163H11.9693H11.9223H11.8752H11.8282H11.7812H11.7342H11.6872H11.6401H11.5931H11.5461H11.4991H11.4521H11.405H11.358H11.311H11.264H11.217H11.1699H11.1229H11.0759H11.0289H10.9819H10.9349H10.8878H10.8408H10.7938H10.7468H10.6997H10.6527H10.6057H10.5587H10.5116H10.4646H10.4176H10.3706H10.3235H10.2765H10.2295H10.1825H10.1355H10.0884H10.0414H9.99442H9.94738H9.90037H9.85333H9.80632H9.75932H9.71227H9.66527H9.61822H9.57122H9.52421H9.47716H9.43016H9.38315H9.33611H9.2891H9.24206H9.19505H9.14805H9.101H9V23.8437C9 23.8437 9.03475 23.8531 9.101 23.8697L9.14805 23.8814L9.19505 23.8928L9.24206 23.904L9.2891 23.915L9.33611 23.9258L9.38315 23.9365L9.43016 23.9471L9.47716 23.9574L9.52421 23.9677L9.57122 23.9778L9.61822 23.9877L9.66527 23.9976L9.71227 24.0073L9.75932 24.0168L9.80632 24.0263L9.85333 24.0356L9.90037 24.0448L9.94738 24.0539L9.99442 24.0629L10.0414 24.0718L10.0884 24.0805L10.1355 24.0891L10.1825 24.0976L10.2295 24.106L10.2765 24.1144L10.3235 24.1225L10.3706 24.1306L10.4176 24.1386L10.4646 24.1464L10.5116 24.1542L10.5587 24.1618L10.6057 24.1694L10.6527 24.1768L10.6997 24.1842L10.7468 24.1914L10.7938 24.1986L10.8408 24.2056L10.8878 24.2125L10.9349 24.2193L10.9819 24.2261L11.0289 24.2327L11.0759 24.2393L11.1229 24.2456L11.1699 24.252L11.217 24.2582L11.264 24.2643L11.311 24.2703L11.358 24.2762L11.405 24.2821L11.4521 24.2878L11.4991 24.2934L11.5461 24.2989L11.5931 24.3043L11.6401 24.3096L11.6872 24.3149L11.7342 24.32L11.7812 24.325L11.8282 24.3299L11.8752 24.3347L11.9223 24.3395L11.9693 24.344L12.0163 24.3486L12.0633 24.353L12.1104 24.3573L12.1574 24.3616L12.2044 24.3656L12.2515 24.3696L12.2985 24.3736L12.3455 24.3773L12.3925 24.3811L12.4395 24.3846L12.4865 24.3882L12.5336 24.3916L12.5806 24.3949L12.6276 24.3981L12.6746 24.4011L12.7216 24.4041L12.7687 24.4071L12.8157 24.4098L12.8627 24.4126L12.9097 24.4151L12.9567 24.4175L13.0038 24.4199L13.0508 24.4222L13.0978 24.4244L13.1448 24.4264L13.1918 24.4283L13.2389 24.4303L13.2859 24.4319L13.3329 24.4335L13.3799 24.4351L13.4269 24.4364L13.474 24.4378L13.521 24.439L13.568 24.44L13.6151 24.4411L13.6621 24.4419L13.7091 24.4427L13.7561 24.4434L13.8031 24.4438L13.8502 24.4443L13.8972 24.4447L13.9442 24.4448L13.9912 24.445L14.0382 24.4449L14.0853 24.4446L14.1323 24.4443L14.1793 24.444L14.2263 24.4438L14.2733 24.4429L14.3204 24.4421L14.3674 24.4412L14.4144 24.4404L14.4614 24.4392L14.5084 24.4377L14.5555 24.4363L14.6025 24.4349L14.6495 24.4333L14.6965 24.4313L14.7435 24.4292L14.7906 24.4271L14.8376 24.4251L14.8846 24.4225L14.9316 24.4198L14.9787 24.4171L15.0257 24.4144L15.0727 24.4113L15.1197 24.4079L15.1668 24.4046L15.2138 24.4012L15.2608 24.3975L15.3078 24.3935L15.3549 24.3894L15.4019 24.3854L15.4489 24.381L15.4959 24.3762L15.5429 24.3715L15.5899 24.3667L15.637 24.3615L15.684 24.3561L15.731 24.3506L15.778 24.3451L15.825 24.339L15.8721 24.3328L15.9191 24.3266L15.9661 24.3202C15.982 24.318 15.9974 24.3155 16.0131 24.3132L16.0601 24.3062L16.1072 24.2992L16.1542 24.2918C16.17 24.2892 16.1855 24.2865 16.2012 24.2839L16.2482 24.2761C16.2638 24.2734 16.2798 24.2709 16.2952 24.2682C16.3111 24.2654 16.3265 24.2624 16.3423 24.2596L16.3893 24.2509L16.4363 24.2422L16.4833 24.233C16.4992 24.2299 16.5147 24.2266 16.5304 24.2234L16.5774 24.2138L16.6244 24.204C16.6403 24.2007 16.6557 24.197 16.6714 24.1936L16.7185 24.183C16.734 24.1795 16.75 24.1761 16.7655 24.1725C16.7814 24.1688 16.7968 24.1649 16.8125 24.1611L16.8595 24.1496C16.8751 24.1458 16.8911 24.1421 16.9066 24.1382C16.9224 24.1342 16.9379 24.13 16.9536 24.1259L17.0006 24.1135C17.0162 24.1093 17.0321 24.1052 17.0476 24.101C17.0634 24.0967 17.079 24.0922 17.0946 24.0878L17.1416 24.0742C17.1573 24.0697 17.1732 24.0653 17.1887 24.0607L17.2357 24.0464L17.2827 24.0318C17.2983 24.0269 17.3143 24.0221 17.3297 24.0171L17.3767 24.0016L17.4238 23.9858C17.4394 23.9805 17.4554 23.9754 17.4708 23.97C17.4867 23.9644 17.5021 23.9587 17.5178 23.9531L17.5648 23.9361C17.5805 23.9303 17.5963 23.9246 17.6118 23.9188C17.6277 23.9128 17.6432 23.9066 17.6589 23.9005C17.6746 23.8945 17.6904 23.8884 17.7059 23.8823L17.7529 23.8633L17.7999 23.8437C17.8156 23.8372 17.8315 23.8308 17.847 23.8241C17.8629 23.8173 17.8783 23.8101 17.894 23.8032L17.941 23.7822L17.988 23.7605C18.0038 23.7531 18.0194 23.7456 18.0351 23.7381C18.0507 23.7305 18.0666 23.7231 18.0821 23.7155C18.098 23.7076 18.1134 23.6994 18.1291 23.6915C18.1448 23.6835 18.1606 23.6756 18.1761 23.6675C18.192 23.6592 18.2075 23.6507 18.2232 23.6423C18.2389 23.6338 18.2546 23.6253 18.2702 23.6167C18.286 23.6079 18.3016 23.5991 18.3172 23.5902C18.333 23.5812 18.3486 23.572 18.3642 23.5629C18.3799 23.5536 18.3957 23.5443 18.4112 23.535C18.4271 23.5253 18.4426 23.5156 18.4583 23.5058C18.474 23.496 18.4898 23.4862 18.5053 23.4763C18.5212 23.466 18.5367 23.4555 18.5523 23.4452C18.568 23.4347 18.5839 23.4243 18.5993 23.4137C18.6152 23.4028 18.6307 23.3916 18.6463 23.3806C18.6621 23.3694 18.6779 23.3582 18.6933 23.3469C18.7093 23.3353 18.7248 23.3234 18.7404 23.3116C18.7562 23.2997 18.7719 23.2876 18.7874 23.2755C18.8032 23.2631 18.8189 23.2505 18.8344 23.2379C18.8503 23.225 18.8659 23.2119 18.8814 23.1989C18.8972 23.1855 18.9131 23.1723 18.9285 23.1588C18.9444 23.1448 18.9599 23.1306 18.9755 23.1165C18.9913 23.1022 19.0071 23.0879 19.0225 23.0734C19.0385 23.0583 19.054 23.0431 19.0695 23.0278C19.0854 23.0122 19.1011 22.9964 19.1165 22.9805C19.1324 22.9643 19.1482 22.9482 19.1635 22.9318C19.1796 22.9146 19.1951 22.8973 19.2106 22.8799C19.2266 22.8621 19.2422 22.8441 19.2576 22.826C19.2735 22.8073 19.2893 22.7887 19.3046 22.7698C19.3206 22.7501 19.3363 22.7305 19.3516 22.7106C19.3677 22.6898 19.3832 22.6689 19.3987 22.6478C19.4147 22.6259 19.4303 22.6038 19.4457 22.5816C19.4617 22.5584 19.4774 22.5351 19.4927 22.5115C19.5087 22.4869 19.5244 22.4621 19.5397 22.4371C19.5558 22.4107 19.5715 22.3841 19.5868 22.3573C19.6029 22.3289 19.6186 22.3004 19.6338 22.2716C19.65 22.2407 19.6657 22.2097 19.6808 22.1785C19.6971 22.1448 19.7127 22.1109 19.7278 22.0768C19.7442 22.0397 19.7599 22.0024 19.7749 21.9647C19.7913 21.9231 19.8071 21.8812 19.8219 21.839C19.8387 21.791 19.8542 21.7426 19.8689 21.6938C19.886 21.6367 19.9016 21.579 19.9159 21.5208C19.9336 21.4486 19.9494 21.3755 19.9629 21.3017C19.9831 21.1917 19.9986 21.0801 20.0099 20.9669C20.0257 20.8091 20.0334 20.6485 20.0334 20.4853V14.8685H19.9629H19.9159H19.8689H19.8219H19.7749H19.7278H19.6808H19.6338H19.5868H19.5397H19.4927H19.4457H19.3987H19.3516H19.3046H19.2576H19.2106H19.1635H19.1165H19.0695H19.0225H18.9755H18.9285H18.8814H18.8344H18.7874H18.7404H18.6933H18.6463H18.5993H18.5523H18.5053H18.4583H18.4112H18.3642H18.3172H18.2702H18.2232H18.1761H18.1291H18.0821H18.0351H17.988H17.941H17.894H17.847H17.7999H17.7529H17.7059H17.6589H17.6118H17.5648H17.5178H17.4708H17.4238H17.3767H17.3297H17.2827H17.2357H17.1887H17.1416H17.0946H17.0476H17.0006H16.9536H16.9066H16.8595H16.8125H16.7655H16.7185H16.6714H16.6244H16.5774H16.5304H16.4833H16.4363H16.3893H16.3423H16.2952H16.2482H16.2012H16.1542H16.1072H16.0601H16.0131H15.9661H15.9191H15.8721L15.8364 20.4853C15.8364 20.5732 15.8326 20.6597 15.825 20.7446C15.8154 20.8527 15.7997 20.958 15.778 21.0605C15.7646 21.1238 15.7489 21.1859 15.731 21.2469C15.7167 21.2954 15.7011 21.3432 15.684 21.3902C15.6694 21.4302 15.6536 21.4695 15.637 21.5083C15.6221 21.543 15.6064 21.577 15.5899 21.6106C15.5749 21.6412 15.5593 21.6715 15.5429 21.7012C15.5278 21.7285 15.5121 21.7553 15.4959 21.7819C15.4807 21.8069 15.4651 21.8315 15.4489 21.8558C15.4336 21.8786 15.4179 21.9011 15.4019 21.9232C15.3866 21.9443 15.371 21.9653 15.3549 21.9858C15.3396 22.0054 15.3238 22.0245 15.3078 22.0435C15.2925 22.0616 15.2768 22.0795 15.2608 22.0972C15.2454 22.1143 15.2298 22.1311 15.2138 22.1476C15.1983 22.1636 15.1827 22.1794 15.1668 22.1949C15.1513 22.2099 15.1357 22.2248 15.1197 22.2393C15.1043 22.2534 15.0886 22.2673 15.0727 22.281C15.0573 22.2943 15.0416 22.3074 15.0257 22.3203C15.0102 22.3328 14.9945 22.3452 14.9787 22.3574C14.9632 22.3692 14.9475 22.3809 14.9316 22.3925C14.9161 22.4037 14.9005 22.4148 14.8846 22.4256C14.8691 22.4363 14.8535 22.4468 14.8376 22.4571C14.8221 22.4672 14.8064 22.4771 14.7906 22.4868C14.7751 22.4964 14.7594 22.5057 14.7435 22.515C14.728 22.524 14.7124 22.5328 14.6965 22.5416C14.681 22.5501 14.6653 22.5584 14.6495 22.5667C14.634 22.5749 14.6183 22.5828 14.6025 22.5906C14.5869 22.5983 14.5713 22.6058 14.5555 22.6133C14.5399 22.6206 14.5243 22.6278 14.5084 22.6348C14.4929 22.6417 14.4772 22.6485 14.4614 22.6551C14.4459 22.6616 14.4302 22.6679 14.4144 22.6742C14.3989 22.6803 14.3832 22.6863 14.3674 22.6922C14.3518 22.698 14.3362 22.7037 14.3204 22.7093C14.3048 22.7148 14.2891 22.7202 14.2733 22.7255C14.2578 22.7306 14.2421 22.7357 14.2263 22.7406C14.2108 22.7454 14.1951 22.7501 14.1793 22.7547C14.1637 22.7592 14.148 22.7637 14.1323 22.768C14.1167 22.7723 14.101 22.7766 14.0853 22.7806C14.0697 22.7846 14.054 22.7884 14.0382 22.7922C14.0227 22.7959 14.007 22.7995 13.9912 22.803C13.9756 22.8064 13.96 22.8098 13.9442 22.8131C13.9286 22.8163 13.913 22.8194 13.8972 22.8224C13.8816 22.8253 13.8659 22.8281 13.8502 22.8308C13.8345 22.8336 13.8189 22.8363 13.8031 22.8388L13.7561 22.8459C13.7405 22.8482 13.7248 22.8502 13.7091 22.8523C13.6935 22.8543 13.6779 22.8563 13.6621 22.8581L13.6151 22.8633C13.5995 22.8649 13.5838 22.8663 13.568 22.8678C13.5524 22.8691 13.5368 22.8706 13.521 22.8718C13.5054 22.873 13.4897 22.874 13.474 22.875C13.4584 22.876 13.4427 22.8769 13.4269 22.8777C13.4113 22.8785 13.3957 22.8793 13.3799 22.8799C13.3644 22.8806 13.3486 22.8809 13.3329 22.8814L13.2859 22.8825C13.2703 22.8827 13.2546 22.8828 13.2389 22.8829L13.1918 22.883L13.1448 22.8827L13.0978 22.882L13.0508 22.881L13.0038 22.8798L12.9567 22.8783L12.9097 22.8764L12.8627 22.8742L12.8157 22.8719L12.7687 22.8691L12.7216 22.866L12.6746 22.8628L12.6276 22.8591L12.5806 22.8552L12.5336 22.851L12.4865 22.8466L12.4395 22.8418L12.3925 22.8367L12.3455 22.8314L12.2985 22.8258L12.2515 22.8198L12.2044 22.8137L12.1574 22.8072L12.1104 22.8004L12.0633 22.7935L12.0163 22.7862L11.9693 22.7786L11.9223 22.7708L11.8752 22.7627L11.8282 22.7542L11.7812 22.7456L11.7342 22.7367L11.6872 22.7275L11.6401 22.718L11.5931 22.7083L11.5461 22.6984L11.4991 22.6881L11.4521 22.6776L11.405 22.6668L11.358 22.6558L11.311 22.6445L11.264 22.633L11.217 22.6212L11.1699 22.6091L11.1229 22.5967L11.0759 22.5842L11.0289 22.5714L10.9819 22.5584L10.9349 22.545L10.8878 22.5315L10.8408 22.5177L10.7938 22.5036L10.7468 22.4894L10.6997 22.4748L10.6527 22.46L10.6057 22.445L10.5587 22.4298L10.5116 22.4143L10.4646 22.3985L10.4176 22.3825L10.3706 22.3664L10.3235 22.3499L10.2765 22.3332L10.2295 22.3164L10.1825 22.2992L10.1355 22.2819L10.0884 22.2643L10.0414 22.2465L9.99442 22.2285L9.94738 22.2103L9.90037 22.1918L9.85333 22.1731L9.80632 22.1542L9.75932 22.135L9.71227 22.1157L9.66527 22.0961L9.61822 22.0763L9.57122 22.0564L9.52421 22.0362L9.47716 22.0157L9.43016 21.9951L9.38315 21.9743L9.33611 21.9533L9.2891 21.932L9.24206 21.9105L9.19505 21.8889L9.14805 21.867L9.101 21.845C9.06731 21.8291 9.03365 21.8131 9 21.7969Z" fill="#006CB9"/>
<path fill-rule="evenodd" clip-rule="evenodd" d="M22.6027 16.0958C22.5685 16.1233 22.5347 16.151 22.5018 16.1791V9.84132C22.5018 9.50428 22.5366 9.1753 22.6027 8.85762C22.6169 8.78943 22.6327 8.72185 22.6497 8.65474C22.6644 8.59715 22.6801 8.54003 22.6968 8.48329C22.7117 8.43276 22.7274 8.38257 22.7438 8.33273C22.7589 8.28718 22.7745 8.24187 22.7908 8.19695C22.806 8.15532 22.8216 8.11388 22.8379 8.07279C22.8531 8.03438 22.8687 7.99615 22.8849 7.9582C22.9001 7.92242 22.9158 7.88687 22.9319 7.85151C22.9472 7.81793 22.9629 7.78459 22.9789 7.75144C22.9942 7.71976 23.01 7.68839 23.0259 7.6571C23.0413 7.62705 23.057 7.59723 23.073 7.56753C23.0884 7.53891 23.1041 7.51048 23.12 7.48221C23.1354 7.45483 23.1511 7.42757 23.167 7.40054C23.1825 7.37428 23.1981 7.34814 23.214 7.3222C23.2295 7.29714 23.2452 7.27224 23.261 7.24749C23.2765 7.2234 23.2922 7.19959 23.3081 7.17581C23.3236 7.15254 23.3392 7.12942 23.3551 7.10645C23.3707 7.08391 23.3862 7.06137 23.4021 7.03914C23.4176 7.01761 23.4334 6.99643 23.4492 6.97521C23.4647 6.95429 23.4803 6.9335 23.4962 6.91286C23.5118 6.89253 23.5273 6.87216 23.5432 6.8521C23.5586 6.83262 23.5745 6.81341 23.5902 6.79416C23.6058 6.77515 23.6214 6.75621 23.6373 6.73746C23.6528 6.71895 23.6684 6.70052 23.6843 6.68228C23.6998 6.66447 23.7156 6.64688 23.7313 6.6293C23.7469 6.61187 23.7625 6.59437 23.7783 6.57714C23.7938 6.56029 23.8096 6.54364 23.8253 6.52702C23.8409 6.5106 23.8565 6.4943 23.8723 6.47807C23.8879 6.46208 23.9036 6.44609 23.9194 6.43029C23.9349 6.4148 23.9506 6.3995 23.9664 6.3842C23.982 6.36898 23.9976 6.35365 24.0134 6.33862C24.0289 6.32394 24.0447 6.30961 24.0604 6.29513C24.076 6.28069 24.0916 6.2662 24.1075 6.25199C24.123 6.23805 24.1388 6.22434 24.1545 6.21059C24.1701 6.19688 24.1857 6.18321 24.2015 6.16973C24.2171 6.15645 24.2328 6.1434 24.2485 6.13031C24.2641 6.11734 24.2798 6.10436 24.2956 6.09155C24.3111 6.07892 24.3268 6.06641 24.3426 6.05398C24.3582 6.04163 24.3738 6.02935 24.3896 6.01719C24.4052 6.00519 24.4209 5.9933 24.4366 5.98145C24.4522 5.96971 24.4679 5.95802 24.4836 5.94648C24.4992 5.93501 24.5149 5.9237 24.5307 5.91244C24.5463 5.90128 24.5619 5.89013 24.5777 5.87913C24.5933 5.86825 24.609 5.85752 24.6247 5.84679C24.6403 5.83614 24.656 5.82553 24.6717 5.81508C24.6873 5.80474 24.703 5.79455 24.7188 5.78437C24.7344 5.77422 24.75 5.76407 24.7658 5.75412C24.7814 5.74428 24.7971 5.73468 24.8128 5.725C24.8285 5.71536 24.8441 5.7056 24.8598 5.69615C24.8754 5.68678 24.8912 5.67771 24.9069 5.66854C24.9226 5.65936 24.9381 5.64999 24.9539 5.641C24.9694 5.63213 24.9853 5.62361 25.0009 5.6149C25.0166 5.60619 25.0322 5.5974 25.0479 5.58888C25.0635 5.58043 25.0792 5.5723 25.0949 5.56401C25.1106 5.55576 25.1262 5.54748 25.142 5.53938L25.189 5.51564L25.236 5.49245C25.2517 5.48486 25.2673 5.47719 25.283 5.46975C25.2987 5.46236 25.3144 5.45519 25.3301 5.44795C25.3458 5.44075 25.3613 5.43331 25.3771 5.42626C25.3927 5.41925 25.4084 5.41267 25.4241 5.40585C25.4398 5.39904 25.4554 5.39211 25.4711 5.38544C25.4868 5.37886 25.5025 5.37247 25.5182 5.36604L25.5652 5.34699C25.5809 5.34075 25.5965 5.33452 25.6122 5.32844C25.6278 5.3224 25.6436 5.31659 25.6592 5.3107C25.6749 5.30482 25.6905 5.29874 25.7063 5.293C25.7218 5.28735 25.7376 5.28208 25.7533 5.27658C25.769 5.27109 25.7846 5.26551 25.8003 5.26016C25.8159 5.25482 25.8317 5.24971 25.8473 5.24456L25.8944 5.22942C25.91 5.22446 25.9257 5.21939 25.9414 5.21454C25.957 5.20978 25.9728 5.20529 25.9884 5.20068C26.0041 5.19603 26.0197 5.19127 26.0355 5.18678C26.0511 5.18232 26.0668 5.17818 26.0825 5.17388L26.1295 5.16122C26.1452 5.15711 26.1608 5.15293 26.1765 5.14898C26.1921 5.14507 26.2079 5.14139 26.2235 5.1376C26.2392 5.1338 26.2548 5.12985 26.2706 5.12621C26.2862 5.12261 26.3019 5.11924 26.3176 5.11579L26.3646 5.10565C26.3803 5.10235 26.3959 5.09895 26.4116 5.09581C26.4272 5.09267 26.443 5.08985 26.4587 5.08686C26.4743 5.08388 26.4899 5.08074 26.5057 5.07792L26.5527 5.06986L26.5997 5.06216C26.6154 5.05964 26.631 5.05697 26.6468 5.0546C26.6624 5.05224 26.6781 5.05027 26.6938 5.04806C26.7094 5.04589 26.7251 5.04361 26.7408 5.04155L26.7878 5.03571L26.8348 5.03036C26.8505 5.02862 26.8661 5.02661 26.8819 5.02502C26.8975 5.02343 26.9132 5.02227 26.9289 5.02083L26.9759 5.01673C26.9916 5.01541 27.0072 5.01414 27.0229 5.01301C27.0386 5.01189 27.0543 5.011 27.0699 5.01003C27.0856 5.00906 27.1012 5.00794 27.117 5.00709C27.1326 5.00623 27.1483 5.00565 27.164 5.00496L27.211 5.00318C27.2267 5.00263 27.2423 5.00182 27.2581 5.00143C27.2737 5.00105 27.2894 5.00108 27.3051 5.00085C27.3208 5.00062 27.3364 5.00035 27.3521 5.00027L27.3729 5H27.3991H27.4462H27.4932H27.5402H27.5872H27.6342H27.6813H27.7283H27.7753H27.8223H27.8694H27.9164H27.9634H28.0104H28.0574H28.1045H28.1515H28.1985H28.2455H28.2926H28.3396H28.3866H28.4337H28.4807H28.5277H28.5747H28.6218H28.6688H28.7158H28.7628H28.8099H28.8569H28.9039H28.9509H28.998H29.045H29.092H29.139H29.186H29.2331H29.2801H29.3271H29.3741H29.4212H29.4682H29.5152H29.5622H29.6092H29.6563H29.7033H29.7503H29.7973H29.8444H29.8914H29.9384H29.9854H30.0325H30.0795H30.1265H30.1735H30.2206H30.2676H30.3146H30.3616H30.4086H30.4557H30.5027H30.5497H30.5967H30.6438H30.6908H30.7378H30.7848H30.8319H30.8789H30.9259H30.9729H31.02H31.067H31.114H31.161H31.2081H31.2551H31.3021H31.3491H31.3962H31.4432H31.4902H31.5372H31.5843H31.6313H31.6783H31.7253H31.7724H31.8194H31.8664H31.9134H31.9604H32.0075H32.0545H32.1015H32.1485H32.1956H32.2426H32.2896H32.3366H32.3836H32.4307H32.4777H32.5247H32.5717H32.6188H32.6658H32.7128H32.7598H32.8068H32.8539H32.9009H32.9479H32.995H33.042H33.089H33.136H33.183H33.2301H33.2771H33.3241H33.3711H33.4182H33.4652H33.5122H33.5592H33.6063H33.6533H33.7003H33.7473H33.7944H33.8414H33.8884H33.9354H33.9825H34.0295H34.0765H34.1235H34.1706H34.2176H34.2646H34.3116H34.3586H34.4057H34.4527H34.4997H34.5396V29.2048C34.5396 29.4153 34.526 29.6225 34.4997 29.8259C34.4871 29.9239 34.4712 30.0208 34.4527 30.1168C34.4387 30.1898 34.423 30.2624 34.4057 30.3343C34.3911 30.3948 34.3755 30.4549 34.3586 30.5146C34.3438 30.5669 34.3281 30.6188 34.3116 30.6704C34.2967 30.7171 34.2809 30.7634 34.2646 30.8095C34.2495 30.8521 34.2338 30.8946 34.2176 30.9367C34.2024 30.9759 34.1868 31.0149 34.1706 31.0537C34.1553 31.0903 34.1396 31.1266 34.1235 31.1627C34.1082 31.197 34.0926 31.2309 34.0765 31.2647C34.0612 31.297 34.0455 31.3291 34.0295 31.361C34.0141 31.3916 33.9984 31.422 33.9825 31.4522C33.967 31.4813 33.9514 31.5102 33.9354 31.539C33.92 31.5668 33.9044 31.5945 33.8884 31.622C33.873 31.6484 33.8573 31.6747 33.8414 31.7008C33.826 31.7262 33.8102 31.7513 33.7944 31.7763C33.7789 31.8007 33.7632 31.825 33.7473 31.8491C33.7318 31.8727 33.7163 31.8963 33.7003 31.9196C33.6848 31.9421 33.6691 31.9645 33.6533 31.9868C33.6378 32.0086 33.6221 32.0302 33.6063 32.0518C33.5907 32.073 33.5751 32.0941 33.5592 32.1151C33.5437 32.1355 33.5281 32.1557 33.5122 32.1759C33.4967 32.1956 33.481 32.2152 33.4652 32.2346C33.4496 32.2539 33.4341 32.2731 33.4182 32.2921C33.4027 32.3107 33.3869 32.329 33.3711 32.3473C33.3556 32.3654 33.34 32.3832 33.3241 32.4011C33.3085 32.4186 33.2929 32.4363 33.2771 32.4536C33.2616 32.4706 33.2458 32.4873 33.2301 32.504C33.2145 32.5206 33.1989 32.5373 33.183 32.5538C33.1675 32.5698 33.1518 32.5856 33.136 32.6015C33.1205 32.6171 33.1048 32.6327 33.089 32.6482C33.0735 32.6635 33.0578 32.6787 33.042 32.6938C33.0264 32.7086 33.0107 32.7233 32.995 32.7379C32.9793 32.7524 32.9637 32.7671 32.9479 32.7814C32.9324 32.7954 32.9166 32.8092 32.9009 32.8231C32.8852 32.8369 32.8697 32.8509 32.8539 32.8645C32.8383 32.8778 32.8225 32.8908 32.8068 32.904C32.7912 32.9171 32.7756 32.9303 32.7598 32.9432C32.7443 32.9559 32.7285 32.9683 32.7128 32.9808C32.6972 32.9933 32.6816 33.0058 32.6658 33.0181C32.6502 33.0302 32.6345 33.042 32.6188 33.0539C32.6031 33.0657 32.5875 33.0776 32.5717 33.0893C32.5562 33.1008 32.5404 33.1121 32.5247 33.1234C32.5091 33.1346 32.4935 33.1461 32.4777 33.1572C32.4621 33.1681 32.4464 33.1787 32.4307 33.1895C32.415 33.2003 32.3994 33.2111 32.3836 33.2217C32.3681 33.2321 32.3523 33.2422 32.3366 33.2524C32.321 33.2626 32.3054 33.2731 32.2896 33.2831C32.274 33.293 32.2582 33.3025 32.2426 33.3123C32.2269 33.322 32.2113 33.3318 32.1956 33.3413C32.18 33.3507 32.1642 33.3598 32.1485 33.3691C32.1329 33.3783 32.1173 33.3876 32.1015 33.3967C32.0859 33.4056 32.0702 33.4144 32.0545 33.4232L32.0075 33.4493L31.9604 33.4746L31.9134 33.4991C31.8978 33.5072 31.8821 33.5154 31.8664 33.5233C31.8508 33.5312 31.8351 33.5388 31.8194 33.5465C31.8037 33.5542 31.7881 33.5621 31.7724 33.5696C31.7568 33.577 31.741 33.5841 31.7253 33.5914C31.7097 33.5987 31.694 33.6061 31.6783 33.6132C31.6627 33.6202 31.6469 33.627 31.6313 33.6339L31.5843 33.6543L31.5372 33.6741L31.4902 33.6932C31.4745 33.6995 31.4589 33.7059 31.4432 33.7121C31.4276 33.7181 31.4118 33.7238 31.3962 33.7298C31.3805 33.7357 31.3649 33.7417 31.3491 33.7475C31.3335 33.7532 31.3178 33.7587 31.3021 33.7643L31.2551 33.7807L31.2081 33.7967C31.1924 33.8019 31.1767 33.8068 31.161 33.8118C31.1453 33.8169 31.1297 33.8221 31.114 33.827C31.0984 33.8318 31.0827 33.8363 31.067 33.8409L31.02 33.8548L30.9729 33.8681C30.9573 33.8724 30.9416 33.8766 30.9259 33.8807C30.9102 33.8849 30.8947 33.8893 30.8789 33.8933C30.8633 33.8973 30.8475 33.9009 30.8319 33.9047C30.8162 33.9086 30.8005 33.9124 30.7848 33.9161L30.7378 33.9269L30.6908 33.937C30.6751 33.9404 30.6595 33.944 30.6438 33.9472C30.6282 33.9503 30.6124 33.9531 30.5967 33.9562L30.5497 33.9651L30.5027 33.9735C30.4871 33.9762 30.4714 33.9787 30.4557 33.9812C30.44 33.9838 30.4244 33.9865 30.4086 33.9889C30.393 33.9913 30.3773 33.9934 30.3616 33.9956L30.3146 34.0022C30.2989 34.0043 30.2833 34.0064 30.2676 34.0083C30.252 34.0103 30.2362 34.0119 30.2206 34.0137C30.2049 34.0154 30.1893 34.0174 30.1735 34.019C30.1579 34.0206 30.1422 34.022 30.1265 34.0235L30.0795 34.0277C30.0638 34.029 30.0482 34.0306 30.0325 34.0317C30.0169 34.0329 30.0011 34.0337 29.9854 34.0347L29.9384 34.0377L29.8914 34.0402C29.8758 34.0409 29.86 34.0413 29.8444 34.0419C29.8287 34.0425 29.813 34.0432 29.7973 34.0437C29.7817 34.0441 29.766 34.0443 29.7503 34.0446L29.7033 34.0452C29.6886 34.0453 29.6741 34.0457 29.6594 34.0457H29.6563H29.6092H29.5622H29.5152H29.4682H29.4212H29.3741H29.3271H29.2801H29.2331H29.186H29.139H29.092H29.045H28.998H28.9509H28.9039H28.8569H28.8099H28.7628H28.7158H28.6688H28.6218H28.5747H28.5277H28.4807H28.4337H28.3866H28.3396H28.2926H28.2455H28.1985H28.1515H28.1045H28.0574H28.0104H27.9634H27.9164H27.8694H27.8223H27.7753H27.7283H27.6813H27.6342H27.5872H27.5402H27.4932H27.4462H27.3991H27.3521H27.3051H27.2581H27.211H27.164H27.117H27.0699H27.0229H26.9759H26.9289H26.8819H26.8348H26.7878H26.7408H26.6938H26.6468H26.5997H26.5527H26.5057H26.4587H26.4116H26.3646H26.3176H26.2706H26.2235H26.1765H26.1295H26.0825H26.0355H25.9884H25.9414H25.8944H25.8473H25.8003H25.7533H25.7063H25.6592H25.6122H25.5652H25.5182H25.4711H25.4241H25.3771H25.3301H25.283H25.236H25.189H25.142H25.0949H25.0479H25.0009H24.9539H24.9069H24.8598H24.8128H24.7658H24.7188H24.6717H24.6247H24.5777H24.5307H24.4836H24.4366H24.3896H24.3426H24.2956H24.2485H24.2015H24.1545H24.1075H24.0604H24.0134H23.9664H23.9194H23.8723H23.8253H23.7783H23.7313H23.6843H23.6373H23.5902H23.5432H23.4962H23.4492H23.4021H23.3551H23.3081H23.261H23.214H23.167H23.12H23.073H23.0259H22.9789H22.9319H22.8849H22.8379H22.7908H22.7438H22.6968H22.6497H22.6027H22.5018V22.8686C22.5347 22.8966 22.5685 22.9243 22.6027 22.9518C22.6183 22.9643 22.634 22.9766 22.6497 22.989C22.6653 23.0011 22.681 23.0132 22.6968 23.0253C22.7124 23.0371 22.728 23.049 22.7438 23.0608C22.7593 23.0723 22.7751 23.0836 22.7908 23.095C22.8064 23.1062 22.8221 23.1174 22.8379 23.1285C22.8535 23.1395 22.8691 23.1505 22.8849 23.1613L22.9319 23.1933C22.9474 23.2037 22.9632 23.214 22.9789 23.2243L23.0259 23.2548C23.0415 23.2648 23.0572 23.2747 23.073 23.2846C23.0885 23.2943 23.1043 23.3039 23.12 23.3135L23.167 23.3419C23.1827 23.3512 23.1983 23.3605 23.214 23.3696C23.2296 23.3787 23.2453 23.3876 23.261 23.3966L23.3081 23.4231L23.3551 23.4489L23.4021 23.4742C23.4178 23.4825 23.4333 23.4908 23.4492 23.499C23.4647 23.5071 23.4805 23.5151 23.4962 23.523L23.5432 23.5467L23.5902 23.5699L23.6373 23.5925C23.6529 23.5999 23.6685 23.6074 23.6843 23.6148L23.7313 23.6363L23.7783 23.6577L23.8253 23.6783L23.8723 23.6987L23.9194 23.7186L23.9664 23.738L24.0134 23.7571L24.0604 23.7757L24.1075 23.7942L24.1545 23.8119C24.1701 23.8178 24.1857 23.8238 24.2015 23.8296L24.2485 23.8466C24.2642 23.8522 24.2798 23.858 24.2956 23.8636C24.3111 23.8691 24.3269 23.8744 24.3426 23.8798L24.3896 23.8961L24.4366 23.9117C24.4523 23.9169 24.4678 23.9222 24.4836 23.9273C24.4992 23.9323 24.515 23.9372 24.5307 23.9422L24.5777 23.9572L24.6247 23.9715L24.6717 23.9858L24.7188 23.9995L24.7658 24.0132L24.8128 24.0264L24.8598 24.0395L24.9069 24.0522L24.9539 24.0646L25.0009 24.0768L25.0479 24.0887L25.0949 24.1004L25.142 24.1117L25.189 24.123L25.236 24.1338L25.283 24.1445L25.3301 24.1549L25.3771 24.1651L25.4241 24.1751L25.4711 24.1847L25.5182 24.1943L25.5652 24.2035L25.6122 24.2126L25.6592 24.2214L25.7063 24.23L25.7533 24.2385L25.8003 24.2466L25.8473 24.2547L25.8944 24.2624L25.9414 24.27L25.9884 24.2775L26.0355 24.2846L26.0825 24.2918L26.1295 24.2986L26.1765 24.3052L26.2235 24.3118L26.2706 24.3179L26.3176 24.3241L26.3646 24.3301L26.4116 24.3358L26.4587 24.3415L26.5057 24.3468L26.5527 24.3521L26.5997 24.3573L26.6468 24.3621L26.6938 24.3669L26.7408 24.3715L26.7878 24.3759L26.8348 24.3803L26.8819 24.3844L26.9289 24.3883L26.9759 24.3923L27.0229 24.3959L27.0699 24.3994L27.117 24.403L27.164 24.4061L27.211 24.4093L27.2581 24.4124L27.3051 24.4151L27.3521 24.4178L27.3991 24.4205L27.4462 24.4227L27.4932 24.4251L27.5402 24.4273L27.5872 24.4292L27.6342 24.4312L27.6813 24.433L27.7283 24.4346L27.7753 24.4361L27.8223 24.4376L27.8694 24.4388L27.9164 24.44L27.9634 24.4411L28.0104 24.4419L28.0574 24.4427L28.1045 24.4435L28.1515 24.444L28.1985 24.4444L28.2455 24.4448L28.2926 24.445L28.3396 24.4451L28.3866 24.4452L28.4337 24.4451L28.4807 24.4448L28.5277 24.4445L28.5747 24.4442L28.6218 24.4435L28.6688 24.4429L28.7158 24.4423L28.7628 24.4413L28.8099 24.4404L28.8569 24.4394L28.9039 24.4382L28.9509 24.4369L28.998 24.4356L29.045 24.4342L29.092 24.4326L29.139 24.431L29.186 24.4294L29.2331 24.4275L29.2801 24.4255L29.3271 24.4236L29.3501 24.4226L29.3741 24.4215L29.4212 24.4192L29.4682 24.4167L29.5152 24.4142L29.5622 24.4114L29.6092 24.4085L29.6563 24.4053L29.7033 24.4022L29.7503 24.3987L29.7973 24.3952L29.8444 24.3915L29.8914 24.3877L29.9384 24.3837L29.9854 24.3796L30.0325 24.3754L30.0795 24.371L30.1265 24.3665L30.1735 24.3619L30.2206 24.3572L30.2676 24.3522L30.3146 24.3472L30.3616 24.3421L30.4086 24.3368L30.4557 24.3314L30.5027 24.3259L30.5497 24.3203L30.5967 24.3146L30.6438 24.3087L30.6908 24.3028L30.7378 24.2968L30.7848 24.2905L30.8319 24.2843L30.8789 24.2779L30.9259 24.2714L30.9729 24.2648L31.02 24.258L31.067 24.2513L31.114 24.2443L31.161 24.2373L31.2081 24.2302L31.2551 24.2229L31.3021 24.2156L31.3491 24.2082L31.3962 24.2007L31.4432 24.1931L31.4902 24.1854L31.5372 24.1776L31.5843 24.1697L31.6313 24.1617L31.6783 24.1536L31.7253 24.1455L31.7724 24.1372L31.8194 24.1288L31.8664 24.1204L31.9134 24.1118L31.9604 24.1032L32.0075 24.0945L32.0545 24.0856L32.1015 24.0767L32.1485 24.0677L32.1956 24.0586L32.2426 24.0495L32.2896 24.0402L32.3366 24.0308L32.3836 24.0214L32.4307 24.0118L32.4777 24.0021L32.5247 23.9924L32.5717 23.9826L32.6188 23.9726L32.6658 23.9626L32.7128 23.9525L32.7598 23.9423L32.8068 23.9319L32.8539 23.9215L32.9009 23.9109L32.9479 23.9002L32.995 23.8894L33.042 23.8785L33.089 23.8674L33.136 23.8562L33.1828 23.8447V21.7969L33.136 21.82L33.089 21.843L33.042 21.8659L32.995 21.8885L32.9479 21.9109L32.9009 21.9331L32.8539 21.955L32.8068 21.9768L32.7598 21.9983L32.7128 22.0196L32.6658 22.0406L32.6188 22.0615L32.5717 22.082L32.5247 22.1023L32.4777 22.1224L32.4307 22.1422L32.3836 22.1618L32.3366 22.1812L32.2896 22.2002L32.2426 22.219L32.1956 22.2376L32.1485 22.256L32.1015 22.274L32.0545 22.2918L32.0075 22.3093L31.9604 22.3266L31.9134 22.3436L31.8664 22.3604L31.8194 22.3769L31.7724 22.3931L31.7253 22.409L31.6783 22.4247L31.6313 22.4401L31.5843 22.4553L31.5372 22.4702L31.4902 22.4848L31.4432 22.4992L31.3962 22.5132L31.3491 22.5271L31.3021 22.5407L31.2551 22.554L31.2081 22.567L31.161 22.5797L31.114 22.5923L31.067 22.6045L31.02 22.6165L30.9729 22.6282L30.9259 22.6396L30.8789 22.6508L30.8319 22.6617L30.7848 22.6723L30.7378 22.6828L30.6908 22.6929L30.6438 22.7028L30.5967 22.7123L30.5497 22.7217L30.5027 22.7309L30.4557 22.7396L30.4086 22.7482L30.3616 22.7565L30.3146 22.7646L30.2676 22.7724L30.2206 22.7799L30.1735 22.7873L30.1265 22.7943L30.0795 22.8011L30.0325 22.8076L29.9854 22.8139L29.9384 22.8199L29.8914 22.8257L29.8444 22.8313L29.7973 22.8366L29.7503 22.8416L29.7033 22.8465L29.6563 22.8509L29.6092 22.8553L29.5622 22.8594L29.5152 22.8632L29.4867 22.8654L29.4682 22.8667L29.4212 22.8698L29.3741 22.8729L29.3271 22.8754L29.2801 22.8778L29.2331 22.8799L29.186 22.8815L29.139 22.883L29.092 22.884L29.045 22.8847L28.998 22.8853C28.9822 22.8853 28.9666 22.8851 28.9509 22.8851L28.9039 22.8849L28.8569 22.8842L28.8099 22.8832L28.7628 22.882C28.747 22.8815 28.7315 22.8808 28.7158 22.8801C28.7001 22.8795 28.6844 22.879 28.6688 22.8782L28.6218 22.8757L28.5747 22.8729L28.5277 22.8696L28.4807 22.8659C28.465 22.8647 28.4492 22.8636 28.4337 22.8621C28.4179 22.8607 28.4023 22.859 28.3866 22.8575L28.3396 22.8528L28.2926 22.8473L28.2455 22.8417L28.1985 22.8355L28.1515 22.8289C28.1358 22.8266 28.1201 22.8244 28.1045 22.822C28.0887 22.8195 28.0731 22.8169 28.0574 22.8143C28.0418 22.8117 28.026 22.8093 28.0104 22.8065C27.9946 22.8037 27.9791 22.8007 27.9634 22.7978C27.9477 22.7949 27.9319 22.7921 27.9164 22.7891C27.9006 22.786 27.8851 22.7826 27.8694 22.7793C27.8537 22.776 27.8379 22.7729 27.8223 22.7695C27.8066 22.7661 27.791 22.7624 27.7753 22.7588L27.7283 22.7478C27.7125 22.744 27.6969 22.74 27.6813 22.736C27.6655 22.7321 27.6498 22.7281 27.6342 22.724C27.6185 22.7198 27.6028 22.7154 27.5872 22.7111C27.5715 22.7067 27.5558 22.7023 27.5402 22.6977C27.5244 22.6931 27.5088 22.6884 27.4932 22.6836C27.4774 22.6788 27.4618 22.674 27.4462 22.669C27.4304 22.664 27.4147 22.6588 27.3991 22.6536C27.3834 22.6484 27.3677 22.6432 27.3521 22.6378C27.3363 22.6323 27.3207 22.6266 27.3051 22.621C27.2894 22.6153 27.2736 22.6097 27.2581 22.6038C27.2423 22.5979 27.2267 22.5917 27.211 22.5855C27.1953 22.5794 27.1796 22.5733 27.164 22.567C27.1482 22.5605 27.1326 22.5537 27.117 22.5471C27.1012 22.5404 27.0855 22.5337 27.0699 22.5268C27.0541 22.5198 27.0385 22.5126 27.0229 22.5053C27.0072 22.4981 26.9915 22.4908 26.9759 22.4834C26.9601 22.4758 26.9445 22.4681 26.9289 22.4603C26.9131 22.4524 26.8974 22.4444 26.8819 22.4363C26.8661 22.4281 26.8503 22.42 26.8348 22.4116C26.819 22.403 26.8034 22.3942 26.7878 22.3854C26.7721 22.3765 26.7563 22.3677 26.7408 22.3586C26.725 22.3494 26.7093 22.3399 26.6938 22.3305C26.678 22.3209 26.6623 22.311 26.6468 22.3012C26.631 22.2912 26.6152 22.2813 26.5997 22.2711C26.5838 22.2607 26.5683 22.2499 26.5527 22.2391C26.5369 22.2283 26.5212 22.2173 26.5057 22.2062C26.4899 22.1949 26.4741 22.1836 26.4587 22.1721C26.4428 22.1603 26.4272 22.1481 26.4116 22.136C26.3958 22.1237 26.3801 22.1113 26.3646 22.0987C26.3488 22.0859 26.333 22.0732 26.3176 22.06C26.3017 22.0466 26.2861 22.0328 26.2706 22.019C26.2547 22.005 26.2391 21.9907 26.2235 21.9763C26.2077 21.9616 26.192 21.9468 26.1765 21.9318C26.1607 21.9165 26.1449 21.9012 26.1295 21.8855C26.1135 21.8693 26.098 21.8528 26.0825 21.8362C26.0665 21.8192 26.0509 21.802 26.0355 21.7846C26.0195 21.7667 26.0038 21.7486 25.9884 21.7303C25.9725 21.7115 25.9568 21.6925 25.9414 21.6732C25.9255 21.6533 25.9097 21.6332 25.8944 21.6128C25.8784 21.5918 25.8627 21.5705 25.8473 21.5489C25.8314 21.5265 25.8156 21.5038 25.8003 21.4809C25.7843 21.4569 25.7686 21.4327 25.7533 21.4081C25.7372 21.3824 25.7216 21.3564 25.7063 21.3301C25.6901 21.3024 25.6745 21.2743 25.6592 21.2459C25.643 21.2158 25.6274 21.1853 25.6122 21.1545C25.596 21.1216 25.5803 21.0883 25.5652 21.0547C25.549 21.0184 25.5331 20.9819 25.5182 20.9447C25.5016 20.9036 25.4861 20.8617 25.4711 20.8194C25.4546 20.7725 25.4388 20.7251 25.4241 20.6767C25.4072 20.6207 25.3914 20.5637 25.3771 20.5058C25.3593 20.4337 25.3438 20.3601 25.3301 20.2851C25.3098 20.174 25.2941 20.0597 25.283 19.9424C25.2704 19.8069 25.2639 19.6673 25.2639 19.5236C25.2639 19.3799 25.2704 19.2402 25.283 19.1046C25.2941 18.9872 25.3098 18.873 25.3301 18.7617C25.3438 18.6868 25.3593 18.613 25.3771 18.5409C25.3914 18.483 25.4072 18.426 25.4241 18.3699C25.4388 18.3216 25.4546 18.2741 25.4711 18.2271C25.4861 18.1848 25.5016 18.1429 25.5182 18.1018C25.5331 18.0646 25.549 18.028 25.5652 17.9918C25.5803 17.9581 25.596 17.9248 25.6122 17.892C25.6274 17.8611 25.643 17.8306 25.6592 17.8005C25.6745 17.7721 25.6901 17.744 25.7063 17.7162C25.7216 17.6899 25.7372 17.6638 25.7533 17.6381C25.7686 17.6136 25.7843 17.5893 25.8003 17.5654C25.8156 17.5424 25.8314 17.5197 25.8473 17.4973C25.8627 17.4757 25.8784 17.4544 25.8944 17.4333C25.9097 17.413 25.9255 17.3929 25.9414 17.3729C25.9568 17.3537 25.9725 17.3347 25.9884 17.3158C26.0038 17.2975 26.0195 17.2794 26.0355 17.2615C26.0509 17.2442 26.0665 17.2268 26.0825 17.2098C26.098 17.1933 26.1135 17.1767 26.1295 17.1605C26.1449 17.1449 26.1607 17.1295 26.1765 17.1142C26.192 17.0992 26.2077 17.0844 26.2235 17.0697C26.2391 17.0553 26.2547 17.041 26.2706 17.0269C26.2861 17.0132 26.3017 16.9994 26.3176 16.9859C26.333 16.9728 26.3488 16.9601 26.3646 16.9472C26.3801 16.9347 26.3958 16.9222 26.4116 16.9099C26.4272 16.8977 26.4428 16.8856 26.4587 16.8738C26.4741 16.8622 26.4899 16.851 26.5057 16.8397C26.5212 16.8285 26.5369 16.8176 26.5527 16.8067C26.5683 16.796 26.5838 16.7852 26.5997 16.7748C26.6152 16.7645 26.631 16.7546 26.6468 16.7447C26.6623 16.7348 26.678 16.725 26.6938 16.7154C26.7093 16.7059 26.725 16.6965 26.7408 16.6872C26.7563 16.6781 26.7721 16.6693 26.7878 16.6604C26.8034 16.6516 26.819 16.6428 26.8348 16.6343C26.8503 16.6259 26.8661 16.6177 26.8819 16.6095C26.8974 16.6015 26.9131 16.5934 26.9289 16.5855C26.9445 16.5778 26.9601 16.57 26.9759 16.5625C26.9915 16.555 27.0072 16.5477 27.0229 16.5404C27.0385 16.5332 27.0541 16.5259 27.0699 16.5189C27.0855 16.512 27.1012 16.5054 27.117 16.4987C27.1326 16.492 27.1482 16.4853 27.164 16.4788C27.1796 16.4725 27.1953 16.4664 27.211 16.4602C27.2267 16.4541 27.2423 16.4479 27.2581 16.4419C27.2736 16.4361 27.2894 16.4304 27.3051 16.4247C27.3207 16.4191 27.3363 16.4134 27.3521 16.4079C27.3677 16.4025 27.3834 16.3973 27.3991 16.3921C27.4147 16.3869 27.4304 16.3817 27.4462 16.3766C27.4618 16.3717 27.4774 16.3669 27.4932 16.3621C27.5088 16.3573 27.5244 16.3526 27.5402 16.348L27.5872 16.3347C27.6028 16.3303 27.6185 16.3259 27.6342 16.3217C27.6498 16.3176 27.6655 16.3136 27.6813 16.3096C27.6969 16.3057 27.7125 16.3017 27.7283 16.2979L27.7753 16.2869C27.791 16.2833 27.8066 16.2796 27.8223 16.2762C27.8379 16.2728 27.8537 16.2696 27.8694 16.2664C27.8851 16.2631 27.9006 16.2597 27.9164 16.2566C27.9319 16.2535 27.9477 16.2508 27.9634 16.2479C27.9791 16.245 27.9946 16.2419 28.0104 16.2391C28.026 16.2364 28.0418 16.234 28.0574 16.2314C28.0731 16.2288 28.0887 16.2261 28.1045 16.2237L28.1515 16.2167L28.1985 16.2101L28.2455 16.2039L28.2926 16.1983L28.3396 16.1929L28.3866 16.1882C28.4023 16.1866 28.4179 16.1849 28.4337 16.1835C28.4492 16.182 28.465 16.181 28.4807 16.1797L28.5277 16.176L28.5747 16.1728L28.6218 16.17L28.6688 16.1674C28.6844 16.1666 28.7001 16.1661 28.7158 16.1655C28.7315 16.1649 28.747 16.1641 28.7628 16.1636L28.8099 16.1624L28.8569 16.1614L28.9039 16.1607L28.9509 16.1605C28.9666 16.1605 28.9822 16.1603 28.998 16.1604L29.045 16.1609L29.092 16.1616L29.139 16.1626L29.186 16.1642L29.2331 16.1657L29.2801 16.1678L29.3271 16.1702L29.3741 16.1727L29.4212 16.1758L29.4682 16.1789L29.4867 16.1802L29.5152 16.1824L29.5622 16.1862L29.6092 16.1902L29.6563 16.1944L29.7033 16.1989L29.7503 16.2037L29.7973 16.2087L29.8444 16.2138L29.8914 16.2193L29.9384 16.225L29.9854 16.231L30.0325 16.2372L30.0795 16.2437L30.1265 16.2503L30.1735 16.2573L30.2206 16.2645L30.2676 16.272L30.3146 16.2796L30.3616 16.2877L30.4086 16.2959L30.4557 16.3044L30.5027 16.3131L30.5497 16.3221L30.5967 16.3314L30.6438 16.3409L30.6908 16.3507L30.7378 16.3608L30.7848 16.3711L30.8319 16.3816L30.8789 16.3925L30.9259 16.4036L30.9729 16.415L31.02 16.4266L31.067 16.4386L31.114 16.4508L31.161 16.4632L31.2081 16.4759L31.2551 16.489L31.3021 16.5022L31.3491 16.5158L31.3962 16.5296L31.4432 16.5437L31.4902 16.558L31.5372 16.5726L31.5843 16.5875L31.6313 16.6027L31.6783 16.6181L31.7253 16.6339L31.7724 16.6498L31.8194 16.666L31.8664 16.6826L31.9134 16.6994L31.9604 16.7165L32.0075 16.7338L32.0545 16.7514L32.1015 16.7693L32.1485 16.7875L32.1956 16.8059L32.2426 16.8245L32.2896 16.8435L32.3366 16.8627L32.3836 16.8821L32.4307 16.9019L32.4777 16.9218L32.5247 16.9421L32.5717 16.9625L32.6188 16.9832L32.6658 17.0042L32.7128 17.0254L32.7598 17.0469L32.8068 17.0686L32.8539 17.0905L32.9009 17.1127L32.9479 17.1351L32.995 17.1577L33.042 17.1805L33.089 17.2036L33.136 17.2268L33.1828 17.2502V15.2009L33.136 15.1894L33.089 15.1782L33.042 15.1671L32.995 15.1562L32.9479 15.1454L32.9009 15.1347L32.8539 15.1242L32.8068 15.1137L32.7598 15.1034L32.7128 15.0931L32.6658 15.083L32.6188 15.073L32.5717 15.063L32.5247 15.0532L32.4777 15.0435L32.4307 15.0339L32.3836 15.0243L32.3366 15.0149L32.2896 15.0055L32.2426 14.9962L32.1956 14.9871L32.1485 14.978L32.1015 14.969L32.0545 14.9601L32.0075 14.9513L31.9604 14.9426L31.9134 14.9339L31.8664 14.9254L31.8194 14.917L31.7724 14.9086L31.7253 14.9004L31.6783 14.8922L31.6313 14.8841L31.5843 14.8761L31.5372 14.8682L31.4902 14.8605L31.4432 14.8528L31.3962 14.8452L31.3491 14.8377L31.3021 14.8303L31.2551 14.823L31.2081 14.8157L31.161 14.8086L31.114 14.8016L31.067 14.7947L31.02 14.7879L30.9729 14.7812L30.9259 14.7746L30.8789 14.7682L30.8319 14.7618L30.7848 14.7555L30.7378 14.7493L30.6908 14.7433L30.6438 14.7374L30.5967 14.7315L30.5497 14.7258L30.5027 14.7202L30.4557 14.7147L30.4086 14.7094L30.3616 14.7041L30.3146 14.699L30.2676 14.694L30.2206 14.6891L30.1735 14.6844L30.1265 14.6798L30.0795 14.6753L30.0325 14.6709L29.9854 14.6667L29.9384 14.6626L29.8914 14.6587L29.8444 14.6549L29.7973 14.6512L29.7503 14.6477L29.7033 14.6443L29.6563 14.6412L29.6092 14.638L29.5622 14.6352L29.5152 14.6324L29.4682 14.6298L29.4212 14.6274L29.3741 14.6252L29.3501 14.624L29.3271 14.6231L29.2801 14.6211L29.2331 14.6192L29.186 14.6173L29.139 14.6156L29.092 14.614L29.045 14.6124L28.998 14.611L28.9509 14.6097L28.9039 14.6084L28.8569 14.6072L28.8099 14.6063L28.7628 14.6053L28.7158 14.6044L28.6688 14.6037L28.6218 14.6031L28.5747 14.6025L28.5277 14.6021L28.4807 14.6019L28.4337 14.6016L28.3866 14.6015L28.3396 14.6016L28.2926 14.6017L28.2455 14.6018L28.1985 14.6022L28.1515 14.6027L28.1045 14.6032L28.0574 14.604L28.0104 14.6048L27.9634 14.6056L27.9164 14.6067L27.8694 14.6079L27.8223 14.6091L27.7753 14.6106L27.7283 14.6121L27.6813 14.6137L27.6342 14.6156L27.5872 14.6175L27.5402 14.6194L27.4932 14.6217L27.4462 14.624L27.3991 14.6263L27.3521 14.629L27.3051 14.6317L27.2581 14.6344L27.211 14.6375L27.164 14.6406L27.117 14.6438L27.0699 14.6473L27.0229 14.6508L26.9759 14.6545L26.9289 14.6584L26.8819 14.6623L26.8348 14.6665L26.7878 14.6709L26.7408 14.6752L26.6938 14.6799L26.6468 14.6847L26.5997 14.6895L26.5527 14.6948L26.5057 14.7L26.4587 14.7053L26.4116 14.7111L26.3646 14.7168L26.3176 14.7228L26.2706 14.7289L26.2235 14.7351L26.1765 14.7417L26.1295 14.7483L26.0825 14.7551L26.0355 14.7622L25.9884 14.7693L25.9414 14.7768L25.8944 14.7844L25.8473 14.7922L25.8003 14.8003L25.7533 14.8084L25.7063 14.8169L25.6592 14.8255L25.6122 14.8344L25.5652 14.8435L25.5182 14.8526L25.4711 14.8622L25.4241 14.8719L25.3771 14.8819L25.3301 14.8921L25.283 14.9024L25.236 14.9132L25.189 14.9239L25.142 14.9352L25.0949 14.9466L25.0479 14.9583L25.0009 14.9702L24.9539 14.9824L24.9069 14.9949L24.8598 15.0076L24.8128 15.0206L24.7658 15.0339L24.7188 15.0476L24.6717 15.0613L24.6247 15.0756L24.5777 15.09L24.5307 15.1049C24.515 15.1099 24.4992 15.1148 24.4836 15.1199L24.4366 15.1355C24.421 15.1407 24.4052 15.1458 24.3896 15.1511L24.3426 15.1673L24.2956 15.1836C24.2798 15.1892 24.2642 15.1949 24.2485 15.2006C24.2328 15.2063 24.2171 15.2118 24.2015 15.2176L24.1545 15.2353C24.1388 15.2412 24.123 15.247 24.1075 15.253L24.0604 15.2715L24.0134 15.2901L23.9664 15.3092L23.9194 15.3287L23.8723 15.3486L23.8253 15.3689L23.7783 15.3896L23.7313 15.411L23.6843 15.4325C23.6685 15.4399 23.6529 15.4474 23.6373 15.4548L23.5902 15.4774L23.5432 15.5006L23.4962 15.5243C23.4805 15.5323 23.4647 15.5402 23.4492 15.5483C23.4333 15.5565 23.4178 15.5649 23.4021 15.5732L23.3551 15.5985L23.3081 15.6243C23.2923 15.6331 23.2767 15.642 23.261 15.6509C23.2453 15.6598 23.2296 15.6687 23.214 15.6778C23.1983 15.687 23.1827 15.6963 23.167 15.7056C23.1512 15.715 23.1356 15.7245 23.12 15.734C23.1043 15.7436 23.0885 15.7532 23.073 15.7629C23.0572 15.7727 23.0415 15.7827 23.0259 15.7927L22.9789 15.8232C22.9632 15.8335 22.9474 15.8438 22.9319 15.8542L22.8849 15.8862C22.8691 15.8971 22.8535 15.9081 22.8379 15.919C22.8221 15.9301 22.8064 15.9413 22.7908 15.9526C22.7751 15.964 22.7593 15.9753 22.7438 15.9868C22.728 15.9986 22.7124 16.0104 22.6968 16.0223C22.681 16.0344 22.6653 16.0465 22.6497 16.0587C22.634 16.071 22.6183 16.0834 22.6027 16.0958V16.0958Z" fill="#E10238"/>
</svg>
