<svg width="58" height="40" fill="none" xmlns="http://www.w3.org/2000/svg"><rect x=".5" y=".5" width="57" height="39" rx="3.5" fill="#fff" stroke="#F3F3F3"/><path fill-rule="evenodd" clip-rule="evenodd" d="M35.419 11.517c0 3.594-2.902 6.518-6.47 6.518-3.568 0-6.47-2.924-6.47-6.518S25.38 5 28.948 5c3.567 0 6.47 2.923 6.47 6.517Zm-7.894 7.97c2.792 0 4.955-1.36 6.193-2.7 7.34-.391 13.754-.354 13.754-.354v5.94H10v-2.886s5.25-1.043 12.312-1.788c1.183.95 3.05 1.788 5.213 1.788Z" fill="#00AEEF"/><path fill-rule="evenodd" clip-rule="evenodd" d="M43.812 34.44c1.22 0 2.606-.206 3.66-.522v-3.184c-.887.521-1.775.856-3.013.856-1.646 0-3.272-.819-3.272-1.992s1.645-1.992 3.272-1.992c1.257 0 2.144.335 3.013.875v-3.203c-1.183-.391-2.699-.521-3.882-.521-4.27 0-7.413 1.433-7.413 4.748 0 3.668 3.235 4.934 7.635 4.934Zm-29.357-3.632v3.501H10V24.98h4.455v4.19h.019l2.625-4.19h5.342l-3.919 4.823 3.698 4.506h-5.103l-2.643-3.5h-.019Zm8.707-5.828h9.003c2.33 0 3.106.912 3.106 2.346 0 1.602-1.423 2.29-2.865 2.365v.019c1.497.111 2.939.279 2.939 2.178 0 1.23-.758 2.44-3.346 2.44h-8.837V24.98Zm4.456 7.43h2.329c.869 0 1.165-.354 1.165-.894s-.296-.912-1.165-.912h-2.33v1.806Zm2.218-3.482h-2.218V27.12h2.292c.795 0 1.128.298 1.128.913 0 .54-.352.894-1.202.894Z" fill="#003665"/></svg>