<svg width="58" height="40" fill="none" xmlns="http://www.w3.org/2000/svg"><rect x=".5" y=".5" width="57" height="39" rx="3.5" fill="#fff" stroke="#F3F3F3"/><path d="M34.294 26.085h-9.916V8.404h9.916v17.68Z" fill="#6C6BBD"/><path d="M25.007 17.245c0-3.587 1.693-6.782 4.328-8.84A11.34 11.34 0 0 0 22.332 6C16.073 6 11 11.034 11 17.245c0 6.21 5.073 11.244 11.332 11.244a11.34 11.34 0 0 0 7.003-2.404c-2.635-2.059-4.328-5.254-4.328-8.84" fill="#EB001B"/><path d="M47.671 17.245c0 6.21-5.073 11.244-11.332 11.244a11.34 11.34 0 0 1-7.004-2.404c2.637-2.059 4.33-5.254 4.33-8.84 0-3.587-1.693-6.782-4.33-8.84A11.343 11.343 0 0 1 36.34 6c6.259 0 11.332 5.034 11.332 11.245" fill="#0099DF"/><path d="M37.648 31.081c.132 0 .322.025.467.082l-.202.611a1.07 1.07 0 0 0-.41-.075c-.427 0-.641.275-.641.768v1.675h-.655v-2.986h.648v.363a.89.89 0 0 1 .794-.438Zm-2.419.669h-1.07v1.348c0 .3.107.5.434.5.17 0 .384-.056.58-.169l.188.556c-.208.144-.535.232-.818.232-.774 0-1.045-.413-1.045-1.106v-1.362h-.61v-.593h.61v-.906h.661v.906h1.07v.593Z" fill="#231F20"/><path fill-rule="evenodd" clip-rule="evenodd" d="M27.662 31.08c.844 0 1.423.638 1.43 1.569 0 .086-.007.166-.013.247v.002h-2.235c.095.537.479.73.9.73.302 0 .623-.111.875-.312l.321.482c-.365.305-.78.418-1.233.418-.9 0-1.543-.619-1.543-1.567 0-.931.617-1.568 1.498-1.568Zm-.012.581c-.466 0-.73.294-.8.725h1.561c-.069-.462-.34-.725-.761-.725Z" fill="#231F20"/><path d="M31.968 31.918a1.942 1.942 0 0 0-.938-.256c-.358 0-.572.131-.572.35 0 .2.226.256.51.293l.308.044c.654.094 1.05.368 1.05.893 0 .569-.503.975-1.371.975-.492 0-.945-.126-1.304-.388l.309-.506c.22.169.548.312 1.001.312.447 0 .686-.13.686-.362 0-.168-.17-.263-.529-.312l-.308-.043c-.674-.095-1.039-.394-1.039-.881 0-.594.491-.956 1.253-.956.478 0 .913.107 1.227.312l-.283.525Z" fill="#231F20"/><path fill-rule="evenodd" clip-rule="evenodd" d="M40.69 31.202a1.706 1.706 0 0 0-.649-.121c-.233 0-.45.04-.648.12a1.537 1.537 0 0 0-.976 1.457 1.54 1.54 0 0 0 .463 1.126c.143.142.314.252.513.332.199.08.415.12.648.12.234 0 .45-.04.649-.12a1.52 1.52 0 0 0 .857-.831c.082-.192.123-.401.123-.626 0-.225-.041-.434-.123-.627a1.518 1.518 0 0 0-.857-.83Zm-1.024.566a.998.998 0 0 1 .375-.07.99.99 0 0 1 .376.07.899.899 0 0 1 .502.501c.048.118.072.248.072.39 0 .142-.024.271-.072.39a.91.91 0 0 1-.878.57.985.985 0 0 1-.375-.07.902.902 0 0 1-.499-.5 1.017 1.017 0 0 1-.072-.39c0-.142.024-.272.072-.39a.9.9 0 0 1 .499-.501Zm-14.204-.612v2.985h-.655v-.362c-.208.269-.522.438-.95.438-.844 0-1.505-.657-1.505-1.568 0-.913.661-1.568 1.505-1.568.428 0 .742.169.95.438v-.363h.655Zm-1.524.537c-.566 0-.912.431-.912.956 0 .524.346.955.912.955.542 0 .907-.412.907-.955 0-.544-.365-.956-.907-.956Z" fill="#231F20"/><path d="M21.773 34.142v-1.874c0-.706-.453-1.18-1.183-1.187-.384-.006-.781.112-1.058.531-.207-.33-.535-.531-.995-.531-.32 0-.635.094-.88.443v-.368h-.655v2.986h.66v-1.656c0-.518.29-.793.737-.793.434 0 .655.28.655.787v1.662h.66v-1.656c0-.518.303-.793.737-.793.447 0 .662.28.662.787v1.662h.66Z" fill="#231F20"/></svg>