<svg width="58" height="40" fill="none" xmlns="http://www.w3.org/2000/svg"><rect x=".5" y=".5" width="57" height="39" rx="3.5" fill="#fff" stroke="#F3F3F3"/><path d="M34.31 28.977H23.96V10.512h10.35v18.465Z" fill="#FF5F00"/><path d="M24.622 19.743c0-3.746 1.767-7.082 4.519-9.232A11.835 11.835 0 0 0 21.829 8C15.296 8 10 13.257 10 19.743c0 6.485 5.296 11.743 11.83 11.743 2.76 0 5.299-.939 7.31-2.511-2.75-2.15-4.518-5.487-4.518-9.232" fill="#EB001B"/><path d="M48.27 19.743c0 6.485-5.296 11.743-11.829 11.743a11.84 11.84 0 0 1-7.312-2.511c2.752-2.15 4.52-5.487 4.52-9.232 0-3.746-1.768-7.082-4.52-9.232A11.839 11.839 0 0 1 36.441 8c6.533 0 11.83 5.257 11.83 11.743" fill="#F79E1B"/></svg>