<svg width="58" height="40" fill="none" xmlns="http://www.w3.org/2000/svg"><rect x=".5" y=".5" width="57" height="39" rx="3.5" fill="#fff" stroke="#F3F3F3"/><path fill-rule="evenodd" clip-rule="evenodd" d="M21.249 30.89v2.954h-.647v-.358c-.206.266-.517.433-.94.433-.835 0-1.49-.649-1.49-1.552 0-.901.655-1.55 1.49-1.55.423 0 .734.166.94.432v-.358h.647Zm-1.507.532c-.56 0-.903.426-.903.945 0 .52.343.946.903.946.535 0 .897-.408.897-.946 0-.537-.362-.945-.897-.945Zm23.38.945c0-.519.344-.945.904-.945.536 0 .897.408.897.945 0 .538-.36.946-.897.946-.56 0-.903-.426-.903-.946Zm2.412-2.663v4.14h-.648v-.358c-.206.266-.517.433-.94.433-.835 0-1.49-.649-1.49-1.552 0-.901.655-1.55 1.49-1.55.423 0 .734.166.94.432v-1.545h.648Zm-16.25 1.687c.417 0 .685.26.753.717h-1.544c.069-.427.33-.717.79-.717Zm-1.47.976c0-.92.61-1.55 1.483-1.55.834 0 1.407.63 1.413 1.55 0 .087-.006.167-.013.247h-2.21c.093.532.473.724.89.724.299 0 .617-.112.866-.31l.318.477c-.362.302-.773.414-1.22.414-.892 0-1.527-.612-1.527-1.552Zm9.299 0c0-.519.343-.945.903-.945.535 0 .897.408.897.945 0 .538-.362.946-.897.946-.56 0-.903-.426-.903-.946Zm2.41-1.476v2.953h-.648v-.358c-.206.266-.516.433-.94.433-.835 0-1.489-.649-1.489-1.552 0-.901.654-1.55 1.49-1.55.423 0 .733.166.94.432v-.358h.647Zm-6.066 1.476c0 .897.629 1.552 1.588 1.552.449 0 .747-.1 1.071-.353l-.31-.519a1.315 1.315 0 0 1-.78.266c-.517-.006-.897-.377-.897-.946 0-.568.38-.939.897-.945.28 0 .536.092.78.266l.31-.52c-.324-.253-.622-.352-1.07-.352-.96 0-1.59.655-1.59 1.551Zm7.56-1.118a.88.88 0 0 1 .786-.433c.13 0 .318.025.46.08l-.199.606a1.057 1.057 0 0 0-.405-.074c-.423 0-.635.272-.635.76v1.656h-.648v-2.953h.642v.358Zm-16.567-.124c-.311-.203-.74-.309-1.214-.309-.754 0-1.24.359-1.24.946 0 .482.362.779 1.028.871l.306.043c.355.05.522.143.522.31 0 .228-.236.358-.678.358-.449 0-.772-.142-.99-.309l-.306.5c.355.26.804.384 1.29.384.859 0 1.357-.402 1.357-.964 0-.52-.392-.791-1.04-.884l-.305-.044c-.28-.037-.505-.092-.505-.29 0-.216.212-.346.567-.346.38 0 .748.143.928.254l.28-.52Zm7.568.124a.878.878 0 0 1 .785-.433c.13 0 .318.025.46.08l-.199.606a1.056 1.056 0 0 0-.405-.074c-.423 0-.635.272-.635.76v1.656h-.647v-2.953h.641v.358Zm-4.74-.358H26.22v-.897h-.655v.897h-.603v.587h.603v1.347c0 .685.268 1.094 1.034 1.094.28 0 .605-.087.81-.229l-.187-.55a1.205 1.205 0 0 1-.573.167c-.324 0-.43-.198-.43-.495v-1.334h1.06v-.587Zm-9.678 1.1v1.853h-.655V32.2c0-.5-.211-.778-.653-.778-.43 0-.729.272-.729.785v1.637h-.654V32.2c0-.5-.218-.778-.648-.778-.442 0-.729.272-.729.785v1.637h-.654v-2.953h.648v.364c.244-.346.554-.439.872-.439.455 0 .779.198.984.526.274-.415.667-.532 1.046-.526.723.007 1.172.476 1.172 1.174Z" fill="#231F20"/><path d="M34.047 25.872h-9.811V8.378h9.81v17.494Z" fill="#FF5F00"/><path d="M24.858 17.125c0-3.548 1.675-6.71 4.282-8.746A11.22 11.22 0 0 0 22.212 6C16.02 6 11 10.98 11 17.125s5.02 11.126 11.211 11.126c2.616 0 5.023-.89 6.93-2.38-2.608-2.036-4.283-5.197-4.283-8.746" fill="#EB001B"/><path d="M47.282 17.125c0 6.145-5.02 11.126-11.212 11.126-2.615 0-5.022-.89-6.93-2.38 2.609-2.036 4.283-5.197 4.283-8.746 0-3.548-1.674-6.71-4.283-8.746A11.223 11.223 0 0 1 36.07 6c6.192 0 11.212 4.98 11.212 11.125" fill="#F79E1B"/></svg>