<svg width="58" height="40" fill="none" xmlns="http://www.w3.org/2000/svg"><rect x=".5" y=".5" width="57" height="39" rx="3.5" fill="#fff" stroke="#F3F3F3"/><path fill-rule="evenodd" clip-rule="evenodd" d="M42.901 27.01v-2.324h-.56v1.348a.978.978 0 0 0-.81-.377 1.348 1.348 0 1 0 0 2.696.979.979 0 0 0 .81-.377v.312h.56V27.01Zm-16.73-1.289h.918v.504h-.912v1.187c0 .259.102.431.372.431.175-.013.344-.07.49-.167l.163.48c-.21.131-.454.2-.701.2-.664 0-.896-.356-.896-.955v-1.176h-.523v-.504h.523v-.782h.567v.782Zm-7.458 2.586V26.69a.96.96 0 0 0-1.014-1.024.998.998 0 0 0-.906.458.946.946 0 0 0-.852-.459.852.852 0 0 0-.756.383v-.318h-.56v2.578h.566v-1.429a.604.604 0 0 1 .63-.685c.373 0 .562.243.562.68v1.434h.566v-1.429a.607.607 0 0 1 .631-.685c.383 0 .566.243.566.68v1.434h.567Zm22.242 5.318h-.515l.002-3.031h-.383v4.854h.405v-1.486h.515l1.348 1.486h.488l-1.537-1.675 1.51-1.496h-.485l-1.348 1.348Zm-11.569-1.06a1.25 1.25 0 0 0-.221.27l-.014-2.225h-.383v4.854h.383v-1.807a1.078 1.078 0 0 1 .084-.426.998.998 0 0 1 .564-.55 1.13 1.13 0 0 1 .415-.075c.147-.003.293.02.431.07a.858.858 0 0 1 .52.531 1.3 1.3 0 0 1 .068.431v1.826h.386V33.52a1.405 1.405 0 0 0-.097-.54 1.112 1.112 0 0 0-.693-.655 1.582 1.582 0 0 0-.863-.054 1.201 1.201 0 0 0-.58.294Zm-3.517-1.887a2.533 2.533 0 0 1 1.117.261c.162.082.312.185.448.305.132.118.248.254.342.404l-.342.23a1.669 1.669 0 0 0-.289-.335 1.791 1.791 0 0 0-.798-.412 2.03 2.03 0 0 0-.477-.057 2.092 2.092 0 0 0-.785.146 1.867 1.867 0 0 0-1.052 1.046 2.279 2.279 0 0 0 0 1.645 1.865 1.865 0 0 0 1.052 1.046c.25.099.516.148.785.146.16 0 .319-.018.474-.054.3-.066.579-.207.81-.41a1.69 1.69 0 0 0 .288-.337l.337.245c-.098.147-.215.28-.348.397a2.3 2.3 0 0 1-.968.49 2.635 2.635 0 0 1-1.54-.113 2.318 2.318 0 0 1-.766-.496 2.281 2.281 0 0 1-.507-.763 2.68 2.68 0 0 1 0-1.95 2.28 2.28 0 0 1 .507-.763c.22-.215.48-.383.766-.496.301-.118.622-.178.946-.175Zm0 0h-.01.01Zm-7.599.053c.361-.005.72.05 1.063.165.3.099.575.26.809.472.223.208.396.462.51.744a2.774 2.774 0 0 1 0 1.958 2.065 2.065 0 0 1-.51.744c-.234.212-.51.373-.81.472-.341.114-.7.17-1.062.165h-1.723v-4.72h1.723Zm-3.548 4.72h.412v-4.72h-.412v4.72Zm28.584-.16h-.06v.16h-.029v-.16h-.06v-.03h.152l-.003.03Zm.232.16h-.03v-.154l-.054.135h-.032l-.054-.135v.154h-.03v-.19h.046l.054.136.054-.135h.046v.189ZM16.96 35.06v-3.938l1.313.006c.309-.006.616.041.909.137.247.084.473.219.663.397.181.174.32.387.408.623a2.456 2.456 0 0 1 0 1.618 1.653 1.653 0 0 1-.408.62c-.19.177-.416.313-.663.396a2.718 2.718 0 0 1-.912.14h-1.31Zm17.177-2.824a1.407 1.407 0 0 1 1.058.453c.136.15.242.324.312.513.079.208.12.43.119.652v.159h-2.659c.01.17.053.337.124.491a1.138 1.138 0 0 0 .65.593c.146.053.3.08.456.079.205.003.408-.038.596-.122.176-.082.337-.194.474-.332l.205.27a1.67 1.67 0 0 1-.628.415 1.57 1.57 0 0 1-.332.084 2.492 2.492 0 0 1-.34.024 1.674 1.674 0 0 1-.639-.118 1.49 1.49 0 0 1-.504-.335 1.511 1.511 0 0 1-.329-.515 1.8 1.8 0 0 1-.119-.663 1.772 1.772 0 0 1 .12-.658 1.55 1.55 0 0 1 .32-.529 1.586 1.586 0 0 1 1.127-.47l-.01.01Zm-.442.424c.14-.057.291-.085.442-.084a1.06 1.06 0 0 1 .753.307c.1.1.18.218.237.348.062.143.1.295.11.45H32.97c.016-.154.058-.304.124-.444a1.19 1.19 0 0 1 .248-.348c.102-.098.222-.176.353-.23Zm4.282-.424a1.68 1.68 0 0 1 .656.127c.197.081.373.207.515.367L38.9 33a1.25 1.25 0 0 0-.93-.391 1.19 1.19 0 0 0-.871.367 1.215 1.215 0 0 0-.27.404 1.45 1.45 0 0 0 0 1.022c.115.3.35.541.647.666.152.065.317.098.483.097.179.002.356-.035.52-.108a1.45 1.45 0 0 0 .42-.286l.24.27a1.444 1.444 0 0 1-.514.367 1.667 1.667 0 0 1-.653.126 1.687 1.687 0 0 1-.655-.124 1.532 1.532 0 0 1-.85-.86 1.826 1.826 0 0 1 0-1.3 1.53 1.53 0 0 1 .85-.863c.209-.098.435-.152.666-.159l-.006.008Zm-6.105-6.58a.76.76 0 0 0-.68.378v-.313h-.555V28.3h.561v-1.445c0-.426.183-.664.54-.664a.91.91 0 0 1 .35.065l.173-.54a1.199 1.199 0 0 0-.4-.07l.011.012Zm-8.284 0c.37-.012.734.081 1.052.27l-.248.453a1.66 1.66 0 0 0-.81-.221c-.307 0-.49.13-.49.302 0 .173.194.221.437.253l.27.038c.56.081.9.28.9.771s-.431.842-1.176.842a1.86 1.86 0 0 1-1.116-.335l.27-.436c.247.183.55.278.857.27.383 0 .588-.114.588-.314 0-.145-.145-.226-.453-.27l-.27-.037c-.577-.08-.89-.34-.89-.76 0-.513.427-.825 1.08-.825Zm16.075 0a.76.76 0 0 0-.68.378v-.313h-.555V28.3h.56v-1.445c0-.426.184-.664.54-.664.12-.001.24.02.35.065l.173-.54a1.199 1.199 0 0 0-.399-.07l.01.012Zm-6.837 2.327a1.303 1.303 0 0 1-.39-.978v-.011a1.303 1.303 0 0 1 1.375-1.348c.337-.018.668.092.928.307l-.27.453a1.133 1.133 0 0 0-.674-.232.828.828 0 0 0 0 1.65c.244-.002.48-.084.674-.231l.27.453c-.26.215-.591.324-.928.307a1.303 1.303 0 0 1-.985-.37Zm4.863-.978v-1.29h-.561v.314a.979.979 0 0 0-.809-.378 1.348 1.348 0 1 0 0 2.697.979.979 0 0 0 .809-.378v.313h.56v-1.278Zm-1.28-.733a.78.78 0 1 0-.058 1.558.78.78 0 0 0 .058-1.558Zm-7.576-.615a1.348 1.348 0 1 0 .038 2.696c.385.014.761-.115 1.057-.361l-.27-.416a1.225 1.225 0 0 1-.75.27.715.715 0 0 1-.77-.63h1.917v-.217c0-.809-.502-1.348-1.224-1.348l.002.006Zm.456.679a.64.64 0 0 0-.456-.178h-.01a.664.664 0 0 0-.686.626h1.349a.64.64 0 0 0-.197-.448Zm12.332-.059a.78.78 0 1 0-.058 1.558.78.78 0 0 0 .058-1.558Zm-19.745.733v-1.289h-.561v.313a.979.979 0 0 0-.809-.377 1.348 1.348 0 1 0 0 2.696.98.98 0 0 0 .809-.377v.312h.56V27.01Zm-1.28-.733a.78.78 0 1 0-.058 1.558.78.78 0 0 0 .058-1.558Zm23.238 1.647a.27.27 0 0 1 .187.073.25.25 0 0 1-.084.415.253.253 0 0 1-.102.022.27.27 0 0 1-.243-.156.253.253 0 0 1 .056-.28.268.268 0 0 1 .186-.074Zm.079.44a.193.193 0 0 1-.078.016v.003a.2.2 0 0 1-.079-.02.199.199 0 0 1-.064-.042.2.2 0 0 1 0-.27.204.204 0 0 1 .143-.06.196.196 0 0 1 .14.06.2.2 0 0 1 0 .27.201.201 0 0 1-.062.043Zm-.062-.305a.108.108 0 0 1 .07.022.067.067 0 0 1 .024.056.065.065 0 0 1-.019.049.095.095 0 0 1-.056.024l.078.09h-.062l-.073-.09h-.024v.09h-.052v-.238l.114-.003Zm-.06.11v-.064l.06.016a.056.056 0 0 1 .032 0 .027.027 0 0 1 0 .024.027.027 0 0 1 0 .025.056.056 0 0 1-.032 0h-.06Z" fill="#000"/><path fill="#FF5F00" d="M24.459 6.076h8.494v15.266h-8.494z"/><path d="M24.999 13.71a9.692 9.692 0 0 1 3.707-7.634 9.708 9.708 0 1 0 0 15.266A9.691 9.691 0 0 1 25 13.71Z" fill="#EB001B"/><path d="M44.414 13.71a9.708 9.708 0 0 1-15.708 7.632 9.708 9.708 0 0 0 0-15.266 9.708 9.708 0 0 1 15.708 7.632v.002Z" fill="#F79E1B"/></svg>