<svg width="58" height="40" fill="none" xmlns="http://www.w3.org/2000/svg"><rect x=".5" y=".5" width="57" height="39" rx="3.5" fill="#fff" stroke="#F3F3F3"/><path fill-rule="evenodd" clip-rule="evenodd" d="M21.547 4h17.046c1.199 0 2.178 1.037 2.178 2.306v1.096c0 1.558-2.11 1.551-2.11 0v-.586a.697.697 0 0 0-.695-.697H20.883a.7.7 0 0 0-.694.697v.588c0 1.55-2.01 1.534-2.01.035V6.306c0-1.27.98-2.306 2.176-2.306h1.192Zm7.816 25.7H40.42c2.525 0 2.549-2.682 2.292-4.008-.14-.89-1.652-.877-1.819 0v1.035a.864.864 0 0 1-.86.859H18.837a.861.861 0 0 1-.859-.86v-1.034c-.167-.877-1.679-.89-1.82 0-.258 1.326-.232 4.009 2.293 4.009h10.913Z" fill="#1866AC"/><path fill-rule="evenodd" clip-rule="evenodd" d="M36.197 15.82h1.754v-.02a1.681 1.681 0 0 0 1.422-1.656 1.681 1.681 0 0 0-1.677-1.677h-3.54v8.767h4.503a1.738 1.738 0 0 0 1.731-1.732 1.736 1.736 0 0 0-1.731-1.731h-2.446a.978.978 0 0 1-.974-.973.978.978 0 0 1 .974-.973l-.016-.005Zm4.145.862a3.369 3.369 0 0 1 1.994 3.018c0 1.856-1.62 3.373-3.6 3.373h-5.552a.918.918 0 0 1-.945-.877V11.627a.932.932 0 0 1 .93-.927h4.622a3.548 3.548 0 0 1 3.54 3.536 3.523 3.523 0 0 1-.99 2.446Z" fill="#373536"/><path d="M22.251 32.964a.298.298 0 1 1 .596 0v1.605c0 .737-.598 1.334-1.335 1.334a1.334 1.334 0 0 1-1.339-1.334v-1.61a.298.298 0 1 1 .596 0v1.61c.003.41.334.74.743.743a.745.745 0 0 0 .739-.743v-1.605Zm2.814 2.352a.298.298 0 0 1 0 .596h-.822a1.122 1.122 0 0 1-1.12-1.118v-1.827a.298.298 0 1 1 .596 0v1.82a.53.53 0 0 0 .526.527h.822l-.002.002Zm6.293-13.297a1.114 1.114 0 1 1-2.216.236l-.912-8.4-3.235 8.22v.09c-.056.11-.13.21-.22.294l-.017.015a.93.93 0 0 1-.192.136l-.02.011h-.101a1.073 1.073 0 0 1-.327.062h-.08a1.139 1.139 0 0 1-.367-.075h-.092l-.017-.01h-.011a1.191 1.191 0 0 1-.171-.12l-.037-.032-.027-.026a.348.348 0 0 0-.028-.029l-.033-.037a.919.919 0 0 1-.119-.171v-.107l-3.456-8.222-.914 8.401a1.113 1.113 0 0 1-2.214-.236l1.076-9.903a1.89 1.89 0 0 1 .209-.664 1.844 1.844 0 0 1 1.383-.962h.061c.09-.017.182-.027.274-.03a1.828 1.828 0 0 1 1.63 1.166l2.769 7.002 2.755-6.996c.22-.565.705-.985 1.295-1.12a2.021 2.021 0 0 1 .618-.053h.062a1.846 1.846 0 0 1 1.525 1.315c.035.112.06.228.073.344l1.076 9.9ZM20.061 35.58a.298.298 0 1 1-.591.07l-.255-2.144-.91 2.108a.298.298 0 0 1-.547 0l-.91-2.108-.254 2.143a.298.298 0 1 1-.592-.07l.298-2.49a.471.471 0 0 1 .259-.368l.06-.026h.021a.513.513 0 0 1 .566.182l.035.057.015.033.771 1.788.772-1.788a.496.496 0 0 1 .436-.294h.1c.154.018.29.105.371.237a.506.506 0 0 1 .055.142.125.125 0 0 1 0 .04l.3 2.487Zm6.304.034a.298.298 0 1 1-.596 0v-2.36h-.846a.298.298 0 1 1 0-.596h2.29a.298.298 0 1 1 0 .596h-.848v2.36Zm1.856 0a.298.298 0 1 1-.594 0v-2.65a.298.298 0 1 1 .594 0v2.65Zm6.109-.037a.298.298 0 0 1-.592.072l-.105-.84h-1.03a.298.298 0 1 1 0-.595h.957l-.028-.22v-.02a1.017 1.017 0 0 0-.035-.153.92.92 0 0 0-.06-.155.675.675 0 0 0-.602-.401.602.602 0 0 0-.283.068.837.837 0 0 0-.416.657l-.184 1.655a.298.298 0 0 1-.592-.066l.186-1.655a1.43 1.43 0 0 1 .735-1.128 1.216 1.216 0 0 1 .555-.13c.486.004.927.29 1.13.732.041.081.075.165.1.252.026.08.043.161.053.244a.105.105 0 0 1 0 .026l.21 1.657Zm.91.037a.298.298 0 1 1-.595 0v-2.461a.36.36 0 0 1 .022-.147.297.297 0 0 1 .027-.053.412.412 0 0 1 .232-.195l.04-.01h.114a.408.408 0 0 1 .313.162l1.584 2.018V32.98a.298.298 0 0 1 .597 0v2.45a.42.42 0 0 1-.217.368l-.035.018h-.025a.415.415 0 0 1-.416-.081l-.037-.04-.011-.01-1.585-2.021-.008 1.95Zm4.65-.298a.298.298 0 1 1 0 .596h-.876a1.175 1.175 0 0 1-1.175-1.172v-.897a1.175 1.175 0 0 1 1.172-1.172h.877a.298.298 0 1 1 0 .596h-.877a.583.583 0 0 0-.578.58v.897c.001.32.26.58.58.58h.877v-.008Z" fill="#373536"/><path fill-rule="evenodd" clip-rule="evenodd" d="M42.589 33.056a1.403 1.403 0 0 0-.976-.39l-.002.005a1.398 1.398 0 0 0-.973.39 1.315 1.315 0 0 0-.412.953v.555c0 .36.148.705.41.953.263.252.613.391.977.39.364.002.713-.138.976-.39a1.32 1.32 0 0 0 .412-.953v-.56a1.318 1.318 0 0 0-.412-.953Zm-1.54.423a.815.815 0 0 1 .564-.219v-.006a.815.815 0 0 1 .566.234.725.725 0 0 1 .219.526v.555a.725.725 0 0 1-.22.526.815.815 0 0 1-.563.219.817.817 0 0 1-.565-.22.744.744 0 0 1-.23-.525v-.564a.743.743 0 0 1 .23-.526Zm-12.578-.502v1.294l-.009-.002v1.343a.298.298 0 0 0 .299.298h1.457a.969.969 0 0 0 .967-.966.962.962 0 0 0-.266-.658l-.017-.02a1.017 1.017 0 0 0-.169-.136.938.938 0 0 0 .143-.508.951.951 0 0 0-.95-.95h-1.165a.296.296 0 0 0-.266.187.292.292 0 0 0-.024.118Zm.596 2.33V33.25h.86a.357.357 0 0 1 .355.358.348.348 0 0 1-.106.25.357.357 0 0 1-.219.105h-.136a.298.298 0 1 0 0 .596h.397a.374.374 0 0 1 .263.112l.011.01c.064.07.1.159.1.253a.375.375 0 0 1-.11.263.37.37 0 0 1-.264.111h-1.15Z" fill="#373536"/></svg>