<svg width="58" height="40" fill="none" xmlns="http://www.w3.org/2000/svg"><rect x=".5" y=".5" width="57" height="39" rx="3.5" fill="#fff" stroke="#F3F3F3"/><path fill-rule="evenodd" clip-rule="evenodd" d="M21.547 4h17.046c1.199 0 2.178 1.037 2.178 2.306v1.096c0 1.558-2.11 1.551-2.11 0v-.586a.697.697 0 0 0-.695-.697H20.883a.7.7 0 0 0-.694.697v.588c0 1.55-2.01 1.534-2.01.035V6.306c0-1.27.98-2.306 2.176-2.306h1.192Zm7.816 25.7H40.42c2.525 0 2.549-2.682 2.292-4.008-.14-.89-1.652-.877-1.819 0v1.035a.864.864 0 0 1-.86.859H18.837a.861.861 0 0 1-.859-.86v-1.034c-.167-.877-1.679-.89-1.82 0-.258 1.326-.232 4.009 2.293 4.009h10.913Z" fill="#D60510"/><path fill-rule="evenodd" clip-rule="evenodd" d="M36.197 15.82h1.754v-.02a1.681 1.681 0 0 0 1.422-1.656 1.681 1.681 0 0 0-1.677-1.677h-3.54v8.767h4.503a1.738 1.738 0 0 0 1.731-1.732 1.736 1.736 0 0 0-1.731-1.731h-2.446a.978.978 0 0 1-.974-.973.978.978 0 0 1 .974-.973l-.016-.005Zm4.145.862a3.369 3.369 0 0 1 1.994 3.018c0 1.856-1.62 3.373-3.6 3.373h-5.552a.918.918 0 0 1-.945-.877V11.627a.932.932 0 0 1 .93-.927h4.622a3.548 3.548 0 0 1 3.54 3.536 3.523 3.523 0 0 1-.99 2.446Z" fill="#373536"/><path d="M24.514 33.053c-.091.341-.187.706-.288 1.094-.096.386-.198.757-.295 1.11-.098.354-.188.663-.275.93a3.152 3.152 0 0 1-.217.549c-.102.175-.283.261-.54.261a1.228 1.228 0 0 1-.281-.043.47.47 0 0 1-.289-.237 3.15 3.15 0 0 1-.217-.576 28.654 28.654 0 0 1-.275-.986 40.75 40.75 0 0 1-.288-1.181 74.511 74.511 0 0 1-.26-1.16c-.077-.358-.143-.66-.193-.911a12.376 12.376 0 0 1-.096-.516v-.038a.308.308 0 0 1 .125-.256.484.484 0 0 1 .308-.093.519.519 0 0 1 .281.071c.08.062.135.15.153.247 0 .012.02.103.053.27.034.166.082.382.135.64.054.26.117.552.184.876.067.324.137.651.212.982.075.331.148.651.222.963.074.312.143.576.208.798.064-.209.134-.45.212-.72a46.265 46.265 0 0 0 .453-1.702l.198-.806c.062-.246.114-.465.159-.66.045-.194.08-.335.106-.43a.502.502 0 0 1 .512-.38.547.547 0 0 1 .348.107c.087.07.148.166.172.274.072.304.15.645.231 1.023.083.372.171.754.26 1.139.09.385.185.762.28 1.131.094.37.192.697.281.98.064-.222.134-.489.208-.798.074-.308.148-.63.225-.96.076-.329.15-.65.222-.976.07-.324.135-.612.192-.87.056-.257.104-.464.14-.627.035-.163.052-.246.052-.252a.398.398 0 0 1 .155-.246.508.508 0 0 1 .279-.07c.11-.006.22.027.308.092a.308.308 0 0 1 .126.256v.037a5.397 5.397 0 0 1-.106.516c-.06.253-.12.559-.197.912-.077.354-.164.745-.261 1.155-.097.41-.192.805-.283 1.176-.09.37-.183.7-.27.982a3.137 3.137 0 0 1-.218.571.5.5 0 0 1-.294.248c-.092.03-.187.047-.284.051a1 1 0 0 1-.281-.047.624.624 0 0 1-.172-.087.399.399 0 0 1-.136-.165 4.047 4.047 0 0 1-.207-.585 42.611 42.611 0 0 1-.536-2.005c-.09-.376-.174-.728-.25-1.055" fill="#373536"/><path fill-rule="evenodd" clip-rule="evenodd" d="M29.045 36.103c.073-.253.158-.528.253-.825h2.389l.063.198c.07.223.138.433.204.628.085.252.161.464.224.624a.48.48 0 0 0 .129.2.36.36 0 0 0 .244.07.471.471 0 0 0 .334-.106.36.36 0 0 0 .115-.274.458.458 0 0 0-.02-.122c-.01-.04-.034-.11-.068-.21l-.08-.236a46.32 46.32 0 0 0-.142-.418l-.143-.418a69.893 69.893 0 0 0-.774-2.167 48.398 48.398 0 0 0-.39-1.014 11.95 11.95 0 0 0-.32-.744.375.375 0 0 0-.206-.224 1.069 1.069 0 0 0-.706-.01.427.427 0 0 0-.206.215 6.47 6.47 0 0 0-.37.786 35.95 35.95 0 0 0-.817 2.19l-.171.51-.186.55c-.11.322-.195.592-.262.809l-.12.38a.42.42 0 0 0 .08.396.42.42 0 0 0 .321.107.406.406 0 0 0 .42-.27c.063-.16.132-.372.205-.625Zm1.991-2.745c.12.336.246.707.38 1.11h-1.82c.132-.403.258-.774.375-1.11.119-.338.241-.66.368-.963.027-.056.053-.123.083-.197l.019-.049a.802.802 0 0 1 .062-.153l.026.069.035.091a18.856 18.856 0 0 1 .473 1.201Z" fill="#373536"/><path d="M34.597 34.655a.86.86 0 0 1-.084-.102 6.213 6.213 0 0 1-.362-.58 14.486 14.486 0 0 1-.581-1.164c-.092-.201-.179-.388-.251-.558l-.193-.451a1.785 1.785 0 0 1-.1-.267.361.361 0 0 1-.021-.07.58.58 0 0 1-.005-.07.38.38 0 0 1 .11-.279.42.42 0 0 1 .312-.112.311.311 0 0 1 .254.093.656.656 0 0 1 .112.186c.012.032.041.098.09.203.047.105.1.237.164.391a25.127 25.127 0 0 0 .481 1.061l.25.517c.068.14.144.275.229.404a6.96 6.96 0 0 0 .368-.68 38.078 38.078 0 0 0 .685-1.515c.087-.204.138-.332.157-.381a.73.73 0 0 1 .112-.186.312.312 0 0 1 .255-.093.417.417 0 0 1 .31.112.38.38 0 0 1 .11.28.354.354 0 0 1-.024.139l-.104.27c-.05.13-.114.278-.19.455a18.32 18.32 0 0 1-.25.558 32.31 32.31 0 0 1-.285.601c-.098.2-.197.388-.297.567-.099.18-.19.333-.273.456-.05.077-.108.148-.17.213v1.928a.414.414 0 0 1-.113.303.421.421 0 0 1-.581 0 .415.415 0 0 1-.114-.303v-1.926Zm-3.239-12.636a1.114 1.114 0 1 1-2.216.236l-.912-8.4-3.235 8.22v.09c-.056.11-.13.21-.22.294l-.017.015a.93.93 0 0 1-.192.136l-.02.011h-.101a1.073 1.073 0 0 1-.327.062h-.08a1.139 1.139 0 0 1-.367-.075h-.092l-.017-.01h-.011a1.191 1.191 0 0 1-.171-.12l-.037-.032-.027-.026a.348.348 0 0 0-.028-.029l-.033-.037a.919.919 0 0 1-.119-.171v-.107l-3.456-8.222-.914 8.401a1.113 1.113 0 0 1-2.214-.236l1.076-9.903a1.89 1.89 0 0 1 .209-.664 1.844 1.844 0 0 1 1.383-.962h.061c.09-.017.182-.027.274-.03a1.828 1.828 0 0 1 1.63 1.166l2.769 7.002 2.755-6.996c.22-.565.705-.985 1.295-1.12a2.021 2.021 0 0 1 .618-.053h.062a1.846 1.846 0 0 1 1.525 1.315c.035.112.06.228.073.344l1.076 9.9Z" fill="#373536"/></svg>