<svg width="58" height="40" fill="none" xmlns="http://www.w3.org/2000/svg"><rect x=".5" y=".5" width="57" height="39" rx="3.5" fill="#fff" stroke="#F3F3F3"/><path fill-rule="evenodd" clip-rule="evenodd" d="M9.382 14.002h.067c.476-.009 1.64-.029 2.148 1.683.359 1.212.93 3.196 1.715 5.954h.32c.841-2.907 1.42-4.892 1.734-5.954.506-1.709 1.727-1.692 2.318-1.684l.105.001h4.155v12.924h-4.235V19.31h-.284l-2.36 7.616h-3.186l-2.36-7.622h-.285v7.622H5V14.002h4.382Zm18.642 0v7.622h.338l2.872-6.267c.557-1.247 1.745-1.355 1.745-1.355h4.098v12.924h-4.323v-7.622h-.338L29.6 25.572c-.558 1.241-1.802 1.354-1.802 1.354H23.7V14.002h4.323Zm19.401 9.074c2.097 0 3.99-1.224 4.593-2.932H38.781v6.782h4.11v-3.85h4.534Z" fill="#40A548"/><path d="M47.623 14.002h-9.058c.216 2.877 2.694 5.34 5.259 5.34h8.48c.49-2.39-1.195-5.34-4.68-5.34Z" fill="#1291D0"/></svg>