<svg width="58" height="40" fill="none" xmlns="http://www.w3.org/2000/svg"><rect x=".5" y=".5" width="57" height="39" rx="3.5" fill="#fff" stroke="#F3F3F3"/><path fill-rule="evenodd" clip-rule="evenodd" d="M51.621 19.928c-.295.206-.724.308-1.312.308h-.582l.447-2.415h.427c.487 0 .843.078 1.089.238.191.125.418.372.418.842 0 .566-.264.87-.488 1.027Zm-34.738 3.031h-4.507l.291-1.579h2.827l.321-1.778h-2.8l.271-1.563h4.5l-.903 4.92Zm37.166-6.275c-.663-.455-1.665-.684-2.98-.684h-3.443l-1.28 6.96h-4.51l.29-1.58h2.717l.323-1.773-2.716.005.291-1.572h2.798l.372-2.04h-5.684l-1.214 6.602h-2.085L38.152 16H35.18l-1.214 6.602h-2.033L33.158 16H30.19l-1.283 6.96h-4.543l.287-1.58h2.73l.32-1.762-2.725-.003.29-1.575h2.829l.37-2.04H10.757l-1.008 5.515L7.741 16H4.659L3 25h2.943l1.004-5.667L8.896 25h10.55l1.282-6.96h1.65L21.095 25h27.759l.804-4.394L50.96 25h2.945l-1.35-3.59.309-.067c.678-.145 1.21-.46 1.578-.929.37-.474.557-1.083.557-1.814 0-.852-.31-1.478-.95-1.916Z" fill="#8DC640"/></svg>