<svg width="58" height="40" fill="none" xmlns="http://www.w3.org/2000/svg"><rect x=".5" y=".5" width="57" height="39" rx="3.5" fill="#fff" stroke="#F3F3F3"/><path fill-rule="evenodd" clip-rule="evenodd" d="M40.44 13.53c2.703 0 4.91 2.226 4.927 4.961 0 .263-.021.643-.039.833h-7.972c.405 1.84 1.887 2.654 3.123 2.654.973 0 1.995-.437 2.536-1.085l.012-.013h2.015s-.005.021-.026.065c-1.001 2.047-3.107 2.769-4.61 2.769-1.316 0-2.554-.541-3.492-1.523a5.178 5.178 0 0 1-1.434-3.578c0-2.85 2.18-5.082 4.96-5.082Zm-.016 1.734c-1.585 0-2.764 1.204-3.01 2.436h6.015c-.242-1.232-1.42-2.436-3.005-2.436Zm-13.244 2.81c0-1.905.913-2.868 2.71-2.868 1.796 0 2.703.963 2.703 2.869v5.643h1.843v-5.776c-.01-1.012-.196-1.728-.605-2.4-.489-.755-1.652-2.025-3.941-2.025-2.295 0-3.455 1.27-3.944 2.024-.413.673-.593 1.389-.61 2.401v5.776h1.844v-5.643Zm23.889 4.932 3.888-9.487h-1.932l-2.916 7.134-2.91-7.134h-2.026l3.975 9.49-1.488 3.643h1.917l.53-1.298.962-2.348ZM15.9 18.626c0 1.882 1.477 3.358 3.291 3.358 1.802 0 3.286-1.476 3.286-3.358 0-1.883-1.484-3.362-3.286-3.362-1.814 0-3.291 1.479-3.291 3.362Zm-1.798 0c0-2.865 2.235-5.107 5.089-5.107 2.847 0 5.08 2.242 5.08 5.106 0 2.863-2.233 5.107-5.08 5.107-2.854 0-5.09-2.244-5.09-5.107Zm-4.328.945.447.793h1.004l-.935-1.377.918-1.354h-1.004l-.43.77-.43-.77H8.341l.923 1.354-.94 1.377h1.003l.447-.793Zm-4.68-.538c0 .838.543 1.416 1.523 1.416.754 0 1.429-.436 1.429-1.19 0-.504-.29-.827-.646-.957.317-.108.583-.431.583-.878 0-.743-.652-1.111-1.383-1.111-.98 0-1.4.595-1.4 1.269h.919c0-.346.113-.578.504-.578.266 0 .454.141.454.442 0 .289-.12.487-.527.487h-.357v.709h.357c.43 0 .583.22.583.55a.504.504 0 0 1-.527.521c-.35 0-.595-.25-.595-.68h-.918ZM3 18.61c0-2.857 2.23-5.093 5.076-5.093 2.84 0 5.068 2.236 5.068 5.093 0 2.855-2.228 5.094-5.068 5.094C5.229 23.704 3 21.465 3 18.61Z" fill="#87BC2B"/></svg>