<svg width="58" height="40" fill="none" xmlns="http://www.w3.org/2000/svg"><rect x=".5" y=".5" width="57" height="39" rx="3.5" fill="#fff" stroke="#F3F3F3"/><path fill-rule="evenodd" clip-rule="evenodd" d="M40.864 13.537c2.732 0 4.963 2.248 4.98 5.012 0 .266-.022.65-.04.842h-8.057c.41 1.86 1.908 2.683 3.157 2.683.983 0 2.015-.442 2.563-1.097l.011-.014h2.037s-.005.022-.026.066c-1.012 2.07-3.14 2.799-4.66 2.799-1.33 0-2.58-.547-3.528-1.539a5.233 5.233 0 0 1-1.45-3.616c0-2.88 2.204-5.136 5.013-5.136Zm-.015 1.751c-1.603 0-2.794 1.217-3.042 2.462h6.078c-.244-1.245-1.436-2.462-3.036-2.462Zm-13.386 2.84c0-1.925.923-2.899 2.739-2.899 1.815 0 2.732.974 2.732 2.9v5.703h1.863v-5.837c-.011-1.024-.198-1.747-.612-2.426-.494-.763-1.67-2.046-3.983-2.046-2.32 0-3.492 1.283-3.986 2.046-.418.679-.6 1.402-.617 2.426v5.837h1.864v-5.703Zm24.143 4.984 3.93-9.587h-1.953l-2.947 7.209-2.94-7.21h-2.048l4.016 9.59-1.503 3.683H50.1l.536-1.312.971-2.373Zm-35.542-4.426c0 1.902 1.493 3.393 3.326 3.393 1.821 0 3.321-1.491 3.321-3.393 0-1.903-1.5-3.398-3.32-3.398-1.834 0-3.327 1.495-3.327 3.398Zm-1.817-.001c0-2.895 2.259-5.16 5.143-5.16 2.877 0 5.135 2.265 5.135 5.16 0 2.893-2.258 5.161-5.135 5.161-2.884 0-5.143-2.268-5.143-5.161Zm-4.343.963.453.802h1.013l-.945-1.392.928-1.369H10.34l-.435.78-.435-.78H8.455l.934 1.369-.95 1.392h1.013l.452-.802Zm-2.118-.303h.486v-.785h-.486v-1.105h-.923v1.105h-.675v-2.119H5.26v2.904h1.603v1.105h.923v-1.105ZM3 18.677c0-2.888 2.253-5.148 5.13-5.148 2.87 0 5.122 2.26 5.122 5.148 0 2.885-2.252 5.148-5.122 5.148-2.877 0-5.13-2.263-5.13-5.148Z" fill="#87BC2B"/></svg>