<svg width="58" height="40" fill="none" xmlns="http://www.w3.org/2000/svg"><rect x=".5" y=".5" width="57" height="39" rx="3.5" fill="#fff" stroke="#F3F3F3"/><path fill-rule="evenodd" clip-rule="evenodd" d="m11.223 12.847-.448-.793-.447.793H9.325l.94-1.377-.923-1.354h1.002l.43.77.431-.77h1.004l-.918 1.354.934 1.377h-1.002Zm-3.605.085c-.98 0-1.524-.578-1.524-1.417h.918c0 .431.244.68.595.68.34 0 .527-.249.527-.52 0-.33-.153-.55-.583-.55h-.357v-.709h.357c.408 0 .527-.198.527-.487 0-.3-.188-.442-.454-.442-.39 0-.504.232-.504.578h-.918c0-.675.42-1.27 1.4-1.27.73 0 1.382.369 1.382 1.111 0 .448-.266.77-.583.878.356.13.646.454.646.958 0 .754-.675 1.19-1.429 1.19ZM9.076 6C6.229 6 4 8.236 4 11.092c0 2.856 2.23 5.094 5.076 5.094 2.84 0 5.068-2.238 5.068-5.094C14.144 8.236 11.916 6 9.076 6ZM23.32 21.058c-2.198 0-3.316 1.173-3.316 3.495v6.874h-2.258V24.39c.022-1.233.242-2.105.747-2.924.598-.92 2.019-2.467 4.827-2.467 2.801 0 4.226 1.547 4.823 2.467.501.819.728 1.691.742 2.924v7.036H26.63v-6.874c0-2.322-1.11-3.495-3.309-3.495ZM4 25.224c0-3.491 2.735-6.22 6.228-6.22 3.484 0 6.219 2.729 6.219 6.22 0 3.486-2.735 6.22-6.219 6.22C6.735 31.444 4 28.71 4 25.224Zm2.2 0c0 2.293 1.808 4.09 4.028 4.09 2.205 0 4.022-1.797 4.022-4.09 0-2.294-1.817-4.095-4.022-4.095-2.22 0-4.027 1.801-4.027 4.095Zm36.063-.165c-.02-3.331-2.723-6.042-6.03-6.042-3.402 0-6.07 2.72-6.07 6.192a6.29 6.29 0 0 0 1.755 4.358c1.148 1.196 2.663 1.854 4.274 1.854 1.84 0 4.416-.878 5.641-3.372l.032-.08H39.4l-.014.018c-.663.788-1.913 1.32-3.104 1.32-1.512 0-3.326-.992-3.822-3.232h9.756c.022-.232.048-.696.048-1.016Zm-6.048-3.93c-1.94 0-3.384 1.466-3.684 2.967h7.36c-.296-1.501-1.738-2.967-3.676-2.967Zm13.027 9.43L54 19.004h-2.365l-3.568 8.69-3.56-8.69h-2.48l4.863 11.559L45.07 35h2.346l.65-1.58 1.176-2.86ZM23.048 12.12l.453.802h1.014l-.946-1.392.928-1.369h-1.013l-.436.78-.435-.78H21.6l.934 1.369-.95 1.392h1.013l.452-.803Zm-2.118-.304h.486v-.784h-.486V9.926h-.923v1.105h-.675V8.91h-.928v2.904h1.603v1.106h.923v-1.106Zm-4.786-.668C16.144 8.26 18.397 6 21.274 6c2.87 0 5.123 2.26 5.123 5.147 0 2.886-2.253 5.148-5.123 5.148-2.877 0-5.13-2.262-5.13-5.148Z" fill="#87BC2B"/></svg>