<svg width="58" height="40" fill="none" xmlns="http://www.w3.org/2000/svg"><rect x=".5" y=".5" width="57" height="39" rx="3.5" fill="#fff" stroke="#F3F3F3"/><path fill-rule="evenodd" clip-rule="evenodd" d="M23.26 14.058c-2.191 0-3.305 1.173-3.305 3.495v6.874h-2.251V17.39c.022-1.233.24-2.105.745-2.924.596-.92 2.012-2.467 4.811-2.467 2.793 0 4.213 1.547 4.808 2.467.5.819.726 1.691.74 2.924v7.036h-2.25v-6.874c0-2.322-1.106-3.495-3.298-3.495ZM4 18.224c0-3.491 2.726-6.22 6.208-6.22 3.473 0 6.2 2.729 6.2 6.22 0 3.486-2.727 6.22-6.2 6.22C6.726 24.444 4 21.71 4 18.224Zm2.194 0c0 2.293 1.801 4.09 4.014 4.09 2.199 0 4.01-1.797 4.01-4.09s-1.811-4.095-4.01-4.095c-2.213 0-4.014 1.802-4.014 4.095Zm35.949-.165c-.02-3.331-2.715-6.042-6.011-6.042-3.392 0-6.051 2.72-6.051 6.192a6.3 6.3 0 0 0 1.749 4.358c1.145 1.196 2.654 1.854 4.26 1.854 1.834 0 4.403-.878 5.624-3.372l.032-.08h-2.458l-.015.018c-.66.788-1.906 1.32-3.093 1.32-1.508 0-3.316-.992-3.81-3.232h9.725c.022-.232.048-.696.048-1.016Zm-6.03-3.93c-1.934 0-3.373 1.466-3.672 2.967h7.337c-.295-1.501-1.733-2.967-3.664-2.967Zm12.986 9.43 4.744-11.556h-2.358l-3.557 8.69-3.549-8.69h-2.472l4.848 11.559L44.94 28h2.34l.647-1.58 1.172-2.86Z" fill="#87BC2B"/></svg>