<svg width="58" height="40" fill="none" xmlns="http://www.w3.org/2000/svg"><rect x=".5" y=".5" width="57" height="39" rx="3.5" fill="#fff" stroke="#F3F3F3"/><path d="M53.682 12.242h-2.217a.438.438 0 0 1-.438-.438V9.56c0-.243.196-.439.438-.439h2.217c.242 0 .438.196.438.439v2.244a.439.439 0 0 1-.438.438Zm-2.955-3.121h-1.506a.298.298 0 0 1-.298-.298V7.298c0-.165.134-.298.298-.298h1.506c.165 0 .298.133.298.298v1.525a.298.298 0 0 1-.298.298Z" fill="#BCCF00"/><path fill-rule="evenodd" clip-rule="evenodd" d="M6.492 13.242h3.225c3.32 0 4.866 1.471 4.864 4.627 0 3.157-1.545 4.627-4.866 4.627h-3.74v4.306c0 .666-.213.879-.878.879h-.218c-.666 0-.879-.213-.879-.879V15.734c0-1.724.77-2.492 2.492-2.492Zm3.223 7.408c2.43 0 2.89-.977 2.89-2.781 0-2.308-1.058-2.759-2.888-2.759H6.863c-.647 0-.886.241-.886.886v4.654h3.738Zm9.022-4.233c-1.277 0-2.08.16-2.383.222-.537.116-.762.265-.762.877v.175c0 .239.034.405.11.521.089.137.233.205.425.205.094 0 .203-.016.333-.049.307-.076 1.29-.236 2.362-.236 1.929 0 2.715.534 2.715 1.844v1.168h-2.433c-3.126 0-4.583 1.056-4.583 3.319 0 2.197 1.504 3.407 4.233 3.407 3.244 0 4.691-1.104 4.691-3.58v-4.314c.006-2.396-1.537-3.56-4.708-3.56Zm2.802 7.807v-1.518h-2.41c-1.938 0-2.693.492-2.693 1.757 0 1.154.752 1.714 2.301 1.714 2.343 0 2.802-.716 2.802-1.953Zm12.647-6.6L31.68 27.649c-.734 2.94-1.989 4.2-4.332 4.353-.06.005-.118.009-.171.009-.505 0-.664-.28-.758-.728l-.043-.194c-.044-.204-.07-.435.05-.594.116-.155.322-.2.641-.227 1.569-.162 2.1-.888 2.624-2.532a2.761 2.761 0 0 1-.866.128c-1.725 0-2.186-1.201-2.574-2.651l-2.07-7.582c-.068-.257-.113-.52.02-.695.133-.175.395-.2.659-.2h.175c.651 0 .9.193 1.07.822l2.049 7.516c.265.937.53 1.097 1.196 1.097.542 0 .86-.168 1.084-1.092l1.808-7.516c.144-.624.398-.825 1.05-.825h.196c.261 0 .522.025.658.198.136.17.1.431.04.69Zm14.732-.037v-2.891c0-1.229-.5-1.45-1.85-1.45h-.425c-1.349 0-1.85.223-1.85 1.45v2.875l-.001.019v.63a.64.64 0 0 1-.002.063v4.014c0 .49-.093.88-.29 1.183-.367.567-1.094.823-2.259.825-1.163-.002-1.89-.26-2.258-.825-.194-.303-.29-.695-.29-1.185v-4.046l-.001-.032v-.629l-.001-.01v-2.882c0-1.229-.502-1.45-1.85-1.45h-.425c-1.348 0-1.849.223-1.849 1.45v7.599c0 1.222.278 2.258.81 3.092 1.03 1.616 3.022 2.478 5.855 2.478h.021c2.834 0 4.826-.862 5.856-2.478.533-.834.809-1.87.809-3.092v-4.708Z" fill="url(#a)"/><path d="m50.434 16.441-2.985-.002a.589.589 0 0 1-.59-.589l.002-3.022a.59.59 0 0 1 .59-.59l2.985.002a.59.59 0 0 1 .59.59l-.002 3.022a.588.588 0 0 1-.59.589Z" fill="#BCCF00"/><defs><linearGradient id="a" x1="3.612" y1="17.203" x2="3.612" y2="36.295" gradientUnits="userSpaceOnUse"><stop stop-color="#BCCF00"/><stop offset="1" stop-color="#438F29"/></linearGradient></defs></svg>