<svg width="58" height="40" fill="none" xmlns="http://www.w3.org/2000/svg"><rect x=".5" y=".5" width="57" height="39" rx="3.5" fill="#fff" stroke="#F3F3F3"/><path fill-rule="evenodd" clip-rule="evenodd" d="m20.761 15.8-.014-.59 1.625.015.013 8.33h-1.963l.002-.454c-.469.306-1.086.45-1.907.45-1.133 0-1.953-.266-2.506-.815-.631-.626-.922-1.62-.916-3.131l.003-.719c.013-2.7.969-3.801 3.3-3.801 1.045 0 1.798.225 2.363.716Zm-3.25 5.833c.24.238.621.349 1.2.349 1.204 0 1.72-.468 1.723-1.563l.007-2.17c.002-.59-.109-.976-.349-1.213-.248-.246-.678-.365-1.311-.365-1.348 0-1.72.514-1.727 2.393l-.003.526c-.004 1.108.133 1.72.46 2.043Zm12.793-6.41h-1.928l-.006 5.389c-.002.567-.083.844-.301 1.024-.252.208-.633.306-1.2.306-.56 0-.931-.086-1.169-.27-.221-.172-.311-.47-.31-1.029l.015-5.42h-1.946l.009 5.628c-.003.974.306 1.664.944 2.105.594.421 1.315.593 2.486.593.576 0 1.06-.05 1.47-.15l.009.72c-.001.582-.09.7-.533.7h-.88v1.602h1.198c1.514 0 2.134-.593 2.137-2.047l.005-9.15ZM9.692 21.931l.004 1.626 1.182.003c2.386 0 3.41-1.17 3.422-3.914l.003-.718c.007-1.487-.275-2.462-.889-3.069-.528-.522-1.293-.766-2.408-.766-1.036 0-1.818.235-2.38.717l-.005-.575L7 15.225l.02 11.195h1.963l.001-8.13c.007-1.19.437-1.61 1.692-1.61.596 0 .984.11 1.224.347.319.315.452.917.447 2.011l-.002.527c-.009 1.878-.4 2.361-1.715 2.364l-.938.002Zm34.563-1.447V10.298c4.4 1.023 7.68 4.946 7.68 9.632 0 5.466-4.458 9.896-9.957 9.896-.32 0-.636-.017-.949-.046V18.165h-2.055v11.202c-4.031-1.267-6.954-5.012-6.954-9.437 0-2.424.878-4.644 2.335-6.365v7.793c-.002.782.158 1.312.507 1.666.356.362.902.53 1.719.53h1.204l.001-.477.002-.725v-.492h-.937c-.203 0-.332-.032-.398-.098-.08-.082-.115-.27-.114-.609v-9.378a9.954 9.954 0 0 1 5.64-1.74c.083 0 .165.002.248.005l.074.003v10.54c-.002.995.229 1.714.716 2.196.557.552 1.422.798 2.803.798 2.645 0 3.774-1.18 3.778-3.946l.001-.644c.002-1.467-.29-2.34-.917-2.96-.526-.519-1.294-.783-2.347-.8v.001l-1.315-.001v1.648h1.175c.49.032.805.144 1.012.359.297.308.423.778.422 1.806l-.001.515c-.002 2.2-.573 2.44-1.784 2.44-.672 0-1.04-.097-1.27-.326-.222-.219-.32-.596-.32-1.185Zm-4.187-3.012c.697 0 1.097-.384 1.1-1.055v-.109c0-.333-.097-.6-.289-.789-.195-.193-.484-.295-.834-.295h-.082c-.697 0-1.114.394-1.116 1.055v.109c-.002.326.097.587.29.779.203.2.495.305.849.305h.082Z" fill="#16D6FF"/></svg>