<svg width="58" height="40" fill="none" xmlns="http://www.w3.org/2000/svg"><rect x=".5" y=".5" width="57" height="39" rx="3.5" fill="#fff" stroke="#F3F3F3"/><path fill-rule="evenodd" clip-rule="evenodd" d="M12.82 19.264a.27.27 0 0 1 0 .222l-1.382 2.885h-.001c-.108.211-.295.38-.55.38l-1.482-.001a.286.286 0 0 1-.29-.281.27.27 0 0 1 .024-.113l1.394-2.846v-.002a.272.272 0 0 0 .036-.133c0-.048-.036-.135-.036-.135l-1.394-2.846a.27.27 0 0 1-.025-.113c0-.155.13-.28.29-.28L10.889 16c.254 0 .452.168.549.378v.001l1.383 2.885Zm4.848 2.114h-.77v2.71h-1.262V16.9h2.177c1.562 0 2.745.712 2.745 2.18 0 1.5-1.093 2.298-2.89 2.298Zm.044-3.518h-.815v2.558h.782c1.127 0 1.607-.442 1.607-1.306 0-.777-.447-1.252-1.574-1.252Zm3.797 6.227h-1.26l2.835-7.187H24.3l2.891 7.187h-1.373l-.58-1.543H22.09l-.58 1.543Zm2.579-4.586a31.326 31.326 0 0 1-.424-1.241h-.023s-.19.647-.424 1.24c0 0-.759 2.051-.77 2.051h2.411l-.77-2.05Zm5.516 4.586v-2.72l2.41-4.467h-1.227l-1.752 3.335h-.012L27.271 16.9h-1.407l2.478 4.468v2.72h1.262Zm6.098.013-1.507-4.166c-.168-.485-.335-1.014-.335-1.014h-.023s-.044.561-.1 1.047l-.525 4.133h-1.15l1.017-7.187h1.216l1.652 4.64c.212.572.413 1.273.413 1.273h.023s.211-.701.424-1.273l1.674-4.64h1.216l1.016 7.187H39.43l-.546-4.155c-.067-.496-.123-1.025-.123-1.025h-.022s-.157.529-.324 1.014L36.929 24.1h-1.227Zm6.164-7.187V24.1h1.26v-7.187h-1.26Zm2.618 7.187v-7.187h1.26v6.194h2.836v.993h-4.096Zm5.42-7.187V24.1H54v-.993h-2.835v-6.194h-1.261ZM9.294 18.53a.286.286 0 0 0-.292-.28H7.52a.57.57 0 0 0-.504.281l-2.991 6.075a.27.27 0 0 0-.025.113c0 .155.13.28.29.28L5.775 25c.254 0 .467-.21.55-.379l2.945-5.977a.273.273 0 0 0 .025-.113Z" fill="#F05000"/></svg>