<svg width="58" height="40" fill="none" xmlns="http://www.w3.org/2000/svg"><rect x=".5" y=".5" width="57" height="39" rx="3.5" fill="#fff" stroke="#F3F3F3"/><path fill-rule="evenodd" clip-rule="evenodd" d="M33.172 11c.163.037.326.093.49.117.677.112 1.22.483 1.686.972.115.117.23.352.182.476-.055.136-.272.266-.436.29a18.347 18.347 0 0 0-4.425 1.238c-.823.346-1.627.767-2.413 1.194-1.71.94-3.101 2.294-4.462 3.686-1.439 1.472-2.78 3.031-3.954 4.732a51.743 51.743 0 0 0-2.067 3.266c-.327.557-.538 1.182-.804 1.775-.043.087-.134.242-.164.23-.115-.038-.284-.106-.314-.199-.073-.229-.145-.495-.103-.723.23-1.244.738-2.388 1.3-3.508a27.551 27.551 0 0 1 4.069-5.932 61.834 61.834 0 0 1 2.83-2.969c1.463-1.44 3.095-2.66 4.915-3.6.84-.433 1.71-.76 2.636-.94.157-.03.308-.068.46-.099.199-.006.386-.006.574-.006Z" fill="#F78223"/><path fill-rule="evenodd" clip-rule="evenodd" d="M4 24.819c.085-.464.151-.891.236-1.318.435-2.344.876-4.682 1.312-7.027.03-.148.072-.247.217-.272 1.131-.173 2.268-.297 3.398-.006.986.247 1.675.959 1.79 1.794.236 1.664-.714 2.994-2.122 3.47a5.43 5.43 0 0 1-2.268.235c-.18-.019-.235.03-.266.21-.163.91-.332 1.813-.507 2.716-.012.074-.079.191-.121.191-.55.013-1.089.007-1.669.007Zm2.6-4.596c.369 0 .701.03 1.022-.006.628-.069 1.13-.36 1.414-.972.32-.692.091-1.428-.514-1.645-.429-.155-.87-.124-1.312-.062-.054.006-.127.093-.139.149L6.6 20.223Zm8.12 3.407c-.303.323-.545.65-.853.892-.635.5-1.36.612-2.092.266-.725-.34-1.022-1.003-1.052-1.782-.066-1.639.496-2.994 1.844-3.934.847-.594 1.82-.773 2.83-.717.514.03 1.021.154 1.535.228.206.031.236.149.2.328-.23 1.225-.472 2.444-.665 3.668-.103.65-.133 1.318-.176 1.973-.012.198-.06.279-.26.273a17 17 0 0 0-1.124 0c-.194.006-.26-.068-.242-.26.024-.297.036-.606.055-.934Zm.423-3.822c-.587-.167-1.077-.05-1.488.303-.773.668-1.124 1.534-1.058 2.567.019.316.14.619.466.755s.623.037.877-.186c.15-.136.296-.29.405-.464.574-.896.586-1.948.798-2.975Zm11.414 5.159c-1.602 0-2.515-.606-2.847-1.695-.55-1.794.508-4.596 3.095-4.893.774-.086 1.5.013 2.134.495.605.458.901 1.101.944 1.862.048.792-.085 1.546-.448 2.252-.683 1.311-1.777 1.948-2.878 1.979Zm-1.124-2.697c0 .093-.006.192 0 .285.048.65.502 1.064 1.1 1.008.333-.031.593-.21.798-.47.538-.7.744-1.503.671-2.375-.06-.712-.586-1.09-1.227-.94-.314.074-.55.271-.737.531-.418.588-.587 1.25-.605 1.961Zm5.889-3.76h1.535a50.83 50.83 0 0 1-.078.983c.175-.167.332-.328.495-.47.599-.532 1.282-.767 2.074-.637.653.11 1.107.6 1.18 1.286.084.767-.073 1.51-.212 2.252-.17.897-.333 1.794-.508 2.684-.018.08-.11.198-.17.204-.52.013-1.04.006-1.56 0-.024 0-.048-.018-.096-.043a118.618 118.618 0 0 0 .677-3.94 1.362 1.362 0 0 0-.006-.415c-.048-.476-.393-.692-.84-.55-.436.142-.696.488-.907.872-.315.563-.423 1.188-.532 1.812-.121.687-.236 1.367-.37 2.054-.017.08-.108.204-.168.21-.532.019-1.07.013-1.663.013.399-2.128.774-4.213 1.149-6.316Zm7.69 3.834c-.042.644.387 1.101 1.028 1.182a3.662 3.662 0 0 0 1.802-.254c.06-.024.127-.05.193-.074.012-.006.03 0 .079 0 .036.377.078.755.096 1.132.007.074-.078.192-.15.223-1.01.42-2.056.569-3.12.29-.992-.26-1.536-.99-1.645-2.01-.157-1.441.254-2.703 1.348-3.656.901-.785 1.96-1.033 3.108-.68.768.235 1.197.823 1.251 1.633.055.798-.284 1.41-1.01 1.781-.567.291-1.178.396-1.8.433-.388.019-.78 0-1.18 0Zm.175-1.342c.466.1 1.421-.018 1.79-.216.254-.137.38-.353.339-.613-.043-.266-.218-.396-.46-.457-.72-.18-1.572.463-1.669 1.286Zm5.865 1.368c-.054.605.369 1.07 1.016 1.156.604.074 1.185-.019 1.753-.23.097-.036.188-.073.314-.123.037.402.085.78.103 1.157.006.074-.078.192-.145.223-1.028.432-2.086.581-3.168.278-.973-.272-1.481-.996-1.602-1.986-.151-1.268.17-2.412 1.034-3.352.93-1.008 2.074-1.367 3.392-.996.804.229 1.233.823 1.281 1.658.049.816-.314 1.428-1.07 1.787-.762.359-1.572.415-2.394.433-.163-.006-.333-.006-.514-.006Zm.175-1.319c.387-.024.75-.03 1.107-.08.242-.03.483-.105.701-.21.236-.105.35-.328.314-.6-.036-.26-.205-.384-.44-.446-.714-.198-1.603.47-1.682 1.337Zm3.906 3.768c.079-.458.151-.873.23-1.293.314-1.602.635-3.204.768-4.844.006-.068.096-.179.145-.185.46-.012.919-.006 1.414-.006-.036.439-.066.853-.096 1.262.556-.835 1.197-1.516 2.346-1.392-.115.587-.212 1.132-.327 1.67-.012.043-.09.099-.139.105-1.191.16-1.693.594-1.99 1.843-.205.866-.344 1.757-.52 2.635-.011.075-.078.192-.12.192-.556.019-1.113.012-1.711.012Z" fill="#616161"/><path fill-rule="evenodd" clip-rule="evenodd" d="M19.967 16.981a7.805 7.805 0 0 1-.453 2.506.818.818 0 0 1-.151.235c-.133.179-.278.198-.381 0a3.705 3.705 0 0 1-.308-.817 75.182 75.182 0 0 1-.539-2.635c-.211-1.126-.399-2.258-.592-3.383-.03-.161-.042-.328-.055-.49-.012-.185.091-.277.248-.216.158.056.315.149.43.266.961 1.046 1.566 2.264 1.729 3.7.036.278.048.556.072.834Z" fill="#F78223"/></svg>