<svg width="58" height="40" fill="none" xmlns="http://www.w3.org/2000/svg"><rect x=".5" y=".5" width="57" height="39" rx="3.5" fill="#fff" stroke="#F3F3F3"/><path fill-rule="evenodd" clip-rule="evenodd" d="m26.439 20.256.252-1.608-.562-.013h-2.686l1.866-11.87a.157.157 0 0 1 .053-.093.152.152 0 0 1 .1-.037h4.528c1.504 0 2.541.314 3.083.933.254.29.416.594.494.929.082.35.084.769.003 1.28l-.005.037v.328l.254.144c.213.114.383.244.514.393.217.248.358.564.417.938.061.385.041.843-.06 1.362-.115.597-.303 1.116-.556 1.541a3.168 3.168 0 0 1-.88.969 3.6 3.6 0 0 1-1.188.537 5.908 5.908 0 0 1-1.483.172h-.352c-.252 0-.497.09-.69.254a1.07 1.07 0 0 0-.359.643l-.026.145-.446 2.835-.02.104c-.006.033-.015.05-.029.06a.074.074 0 0 1-.046.017h-2.176" fill="#28356A"/><path fill-rule="evenodd" clip-rule="evenodd" d="M34.059 9.852a7.652 7.652 0 0 1-.046.266c-.598 3.075-2.641 4.138-5.25 4.138h-1.33a.646.646 0 0 0-.637.548l-.873 5.553a.34.34 0 0 0 .335.394h2.357a.568.568 0 0 0 .56-.479l.023-.12.444-2.824.029-.155a.567.567 0 0 1 .56-.48h.352c2.283 0 4.07-.93 4.593-3.62.218-1.124.105-2.063-.472-2.723a2.252 2.252 0 0 0-.645-.498" fill="#298FC2"/><path fill-rule="evenodd" clip-rule="evenodd" d="M33.434 9.602a4.674 4.674 0 0 0-.58-.13 7.365 7.365 0 0 0-1.172-.085h-3.55a.562.562 0 0 0-.56.48l-.755 4.797-.021.14a.646.646 0 0 1 .637-.548h1.33c2.609 0 4.652-1.063 5.25-4.138.018-.09.032-.18.046-.266a3.173 3.173 0 0 0-.625-.25" fill="#22284F"/><path fill-rule="evenodd" clip-rule="evenodd" d="M27.573 9.867a.565.565 0 0 1 .56-.48h3.549c.42 0 .813.028 1.171.086a4.675 4.675 0 0 1 .715.17c.177.06.34.129.492.209.177-1.137-.002-1.91-.615-2.611-.675-.771-1.894-1.102-3.454-1.102h-4.53a.648.648 0 0 0-.64.549L22.936 18.68a.39.39 0 0 0 .384.45h2.796l1.458-9.263M13.095 23.52H9.792a.46.46 0 0 0-.453.39L8.003 32.4a.275.275 0 0 0 .273.32h1.576a.46.46 0 0 0 .454-.39l.36-2.29a.459.459 0 0 1 .453-.388h1.045c2.175 0 3.43-1.056 3.759-3.148.147-.915.006-1.634-.422-2.138-.469-.553-1.301-.845-2.406-.845Zm.38 3.102c-.18 1.189-1.085 1.189-1.96 1.189h-.5l.35-2.22a.275.275 0 0 1 .272-.233h.229c.596 0 1.159 0 1.45.341.173.204.226.506.16.923Zm9.575-.102h-1.582a.276.276 0 0 0-.272.233l-.07.443-.11-.16c-.342-.499-1.106-.665-1.868-.665-1.747 0-3.24 1.327-3.53 3.189-.151.928.063 1.817.589 2.436.482.57 1.171.807 1.991.807 1.409 0 2.19-.908 2.19-.908l-.071.44a.276.276 0 0 0 .271.32h1.424a.46.46 0 0 0 .454-.389l.854-5.427a.275.275 0 0 0-.27-.32Zm-2.205 3.086c-.152.906-.87 1.514-1.784 1.514-.459 0-.826-.147-1.061-.427-.234-.278-.323-.674-.249-1.114.143-.899.872-1.527 1.772-1.527.45 0 .814.15 1.055.432.24.285.337.684.267 1.122Zm10.505-2.95h-1.59a.46.46 0 0 0-.38.202l-2.191 3.237-.93-3.111a.46.46 0 0 0-.44-.328h-1.56a.276.276 0 0 0-.262.365l1.75 5.15-1.645 2.33c-.13.184 0 .436.224.436h1.587c.15 0 .292-.073.377-.197l5.285-7.651a.276.276 0 0 0-.226-.433" fill="#28356A"/><path fill-rule="evenodd" clip-rule="evenodd" d="M36.647 23.52h-3.303a.46.46 0 0 0-.453.39l-1.335 8.49a.275.275 0 0 0 .271.32h1.695a.321.321 0 0 0 .317-.273l.379-2.407a.459.459 0 0 1 .453-.388h1.045c2.175 0 3.43-1.056 3.758-3.148.149-.915.006-1.634-.421-2.138-.469-.553-1.3-.845-2.406-.845Zm.38 3.102c-.18 1.189-1.085 1.189-1.96 1.189h-.498l.35-2.22a.274.274 0 0 1 .271-.233h.229c.595 0 1.158 0 1.449.341.173.204.226.506.16.923Zm9.573-.102h-1.58a.274.274 0 0 0-.272.233l-.07.443-.11-.16c-.343-.499-1.106-.665-1.868-.665-1.747 0-3.24 1.327-3.53 3.189-.15.928.063 1.817.588 2.436.483.57 1.172.807 1.992.807 1.408 0 2.189-.908 2.189-.908l-.07.44a.276.276 0 0 0 .272.32h1.424a.46.46 0 0 0 .453-.389l.855-5.427a.276.276 0 0 0-.273-.32Zm-2.204 3.086c-.152.906-.87 1.514-1.784 1.514-.459 0-.826-.147-1.062-.427-.234-.278-.322-.674-.248-1.114.143-.899.871-1.527 1.772-1.527.449 0 .814.15 1.054.432.242.285.338.684.268 1.122Zm3.936-5.852-1.355 8.647a.275.275 0 0 0 .271.319h1.363a.458.458 0 0 0 .453-.389l1.337-8.491a.276.276 0 0 0-.272-.32h-1.525a.279.279 0 0 0-.272.234" fill="#298FC2"/></svg>