<svg width="58" height="40" fill="none" xmlns="http://www.w3.org/2000/svg"><rect x=".5" y=".5" width="57" height="39" rx="3.5" fill="#fff" stroke="#F3F3F3"/><path fill-rule="evenodd" clip-rule="evenodd" d="M32.379 17.796a.938.938 0 0 1 .347-.74c.219-.188.506-.284.861-.29h.715v1.101h-.433c-.238.006-.36.118-.364.334v.242h.797v1.14h-.797v3.364h-1.126v-5.15Zm-20.07 2.06c-.005-.177-.09-.268-.254-.274h-.876c-.208.012-.314.125-.32.335v1.555c.006.217.124.328.354.335h.803c.084 0 .153-.03.209-.093a.221.221 0 0 0 .085-.182v-1.676Zm-2.575-.22c.006-.39.094-.685.264-.887.09-.085.201-.155.337-.214.141-.062.278-.093.41-.093h1.61c.709.006 1.07.389 1.08 1.149v2.339a.96.96 0 0 1-.319.7c-.205.205-.45.31-.735.316h-1.522v1.687H9.734v-4.998Zm5.733 1.945c0 .065.03.117.09.155.053.047.12.07.204.07h.865c.195 0 .296-.074.302-.225v-.318c0-.174-.103-.261-.31-.261h-.857c-.112 0-.19.018-.234.053-.04.041-.06.122-.06.243v.283Zm1.461-1.753c.006-.17-.095-.252-.303-.246H14.36v-1.14h2.552c.743.012 1.12.367 1.133 1.065v2.384c-.006.302-.1.55-.282.748a.958.958 0 0 1-.735.307h-1.543c-.75-.006-1.13-.344-1.142-1.015v-.92c.005-.702.37-1.059 1.09-1.071h1.496v-.112Zm4.506 3.571a.366.366 0 0 1-.23.094h-2.246v1.14h2.627c.326-.006.582-.12.77-.343.183-.223.28-.517.285-.884v-4.963h-1.116v3.082a.234.234 0 0 1-.1.189.352.352 0 0 1-.244.093h-.795c-.202 0-.301-.12-.301-.361v-3.004h-1.126v3.365a1.134 1.134 0 0 0 .32.833c.119.113.237.193.355.236.113.047.263.07.45.07h1.441v.271c0 .069-.03.13-.09.182Zm2.09-1.592h2.005c.184-.007.279-.079.285-.218v-.102a.23.23 0 0 0-.027-.098c-.045-.086-.1-.129-.165-.129h-.994a1.118 1.118 0 0 1-.759-.3.854.854 0 0 1-.33-.655v-.85c.012-.663.377-1 1.097-1.012h2.326v1.14h-1.97c-.232 0-.348.069-.348.208v.11c0 .145.119.218.356.218h.99c.265.006.49.105.678.3a1 1 0 0 1 .294.699v.831c-.006.233-.116.466-.327.699a.906.906 0 0 1-.313.237c-.109.04-.256.061-.445.061h-2.353v-1.14Zm5.454-.07c-.06-.04-.09-.09-.09-.156v-.283c0-.12.02-.202.06-.243.043-.035.121-.053.233-.053h.857c.207 0 .311.087.311.26v.32c-.005.15-.106.225-.302.225h-.866a.294.294 0 0 1-.203-.07Zm1.068-2.155c.208-.006.308.076.303.246v.112h-1.497c-.72.012-1.084.369-1.09 1.07v.92c.011.672.392 1.01 1.142 1.016h1.544c.3 0 .546-.102.735-.307a1.1 1.1 0 0 0 .28-.748v-2.384c-.01-.698-.388-1.053-1.13-1.065H27.78v1.14h2.266Zm7.456.199v.026l-1.411.524v-.457a.24.24 0 0 1 .118-.207.349.349 0 0 1 .244-.085h.783c.077 0 .141.017.194.053a.176.176 0 0 1 .072.146Zm-1.393 1.708v-.071l2.539-.984v-.9c-.012-.716-.367-1.08-1.068-1.091h-1.517c-.717.011-1.082.362-1.095 1.051l.01 2.281c0 .218.023.393.069.524.042.127.127.25.25.37.106.1.228.172.362.215.124.042.299.062.523.062h2.458v-1.14h-2.312c-.063 0-.11-.034-.146-.1a.305.305 0 0 1-.073-.217Zm4.92 1.457c-.17 0-.325-.015-.466-.043a1.006 1.006 0 0 1-.446-.206 1.056 1.056 0 0 1-.32-.445 1.528 1.528 0 0 1-.092-.55v-2.127a1.373 1.373 0 0 1 .053-.458.954.954 0 0 1 .237-.387c.137-.133.277-.22.425-.264.142-.035.302-.053.481-.053h1.724v.267h-1.684c-.297 0-.531.06-.702.18-.175.132-.264.359-.264.678v2.129c0 .15.023.295.07.435a.87.87 0 0 0 .238.366.906.906 0 0 0 .364.172c.124.027.257.04.398.04h1.608v.266H41.03Zm3.771-2.759h2.262v1.599c0 .59-.289.888-.861.894h-1.37a1 1 0 0 1-.648-.239.559.559 0 0 1-.212-.303 1.409 1.409 0 0 1-.042-.36v-.68c0-.28.078-.502.236-.663.153-.16.364-.242.635-.248Zm2.495 1.986c.022-.132.035-.282.035-.453v-2.044a1.405 1.405 0 0 0-.304-.912.798.798 0 0 0-.468-.307 3.509 3.509 0 0 0-.576-.044h-2.316v.267h2.443c.156 0 .296.016.42.048a.68.68 0 0 1 .324.243c.144.186.217.403.217.65v.3h-2.24c-.77.018-1.161.414-1.172 1.188v.685c0 .361.113.642.337.845.22.205.503.307.852.307h1.344c.35.007.643-.113.879-.358a1.02 1.02 0 0 0 .225-.415Zm2.564-3.493c-.627.011-.936.348-.925 1.012v3.254h-.27v-3.253c-.012-.854.4-1.28 1.238-1.28h.3v.267h-.343Zm2.423.001h2.132v2.987c-.008.368-.12.626-.34.775-.218.16-.503.238-.851.238h-.932c-.153 0-.291-.016-.416-.048a1.238 1.238 0 0 1-.337-.132c-.206-.126-.307-.36-.307-.706V19.72c-.006-.16.011-.299.05-.414a.79.79 0 0 1 .214-.343.734.734 0 0 1 .372-.233c.124-.032.262-.049.415-.049Zm1.018 4.267c.898.018 1.359-.403 1.383-1.262v-4.742h-.27v1.47H52.3c-.88-.006-1.326.427-1.338 1.3v1.936a1.65 1.65 0 0 0 .053.497c.03.15.107.296.226.44.158.161.323.265.494.308.167.035.356.053.567.053h.999Z" fill="#008ACA"/><path fill-rule="evenodd" clip-rule="evenodd" d="M3.748 18.184a1.456 1.456 0 0 0-.626.31 3.18 3.18 0 0 1 .006-.326A2.281 2.281 0 0 1 5.418 16c1.197 0 2.18.907 2.284 2.062.018.133.024.274.017.42a1.237 1.237 0 0 0-.625-.297 1.704 1.704 0 0 0-1.673-1.339c-.823 0-1.51.574-1.673 1.338Zm-.147.351c.141-.062.278-.092.41-.092H6.76c.71.006 1.07.388 1.082 1.148v2.207c-.011.758-.372 1.142-1.082 1.148H4.012c-.133 0-.27-.03-.41-.091a1.12 1.12 0 0 1-.338-.216c-.17-.201-.258-.496-.264-.886v-2.118c.006-.389.093-.684.264-.886.09-.085.201-.155.337-.214Z" fill="#E2001A"/></svg>