<svg width="58" height="40" fill="none" xmlns="http://www.w3.org/2000/svg"><rect x=".5" y=".5" width="57" height="39" rx="3.5" fill="#fff" stroke="#F3F3F3"/><path fill-rule="evenodd" clip-rule="evenodd" d="M29.502 12.5c-1.545-2.172-4.101-3.5-6.98-3.5C17.835 9 14 12.632 14 17.474v.111-.001 12.985c0 .77.64 1.431 1.491 1.431.853 0 1.492-.66 1.492-1.43v-6.383l-.093-.206c1.505 1.31 3.479 2.076 5.632 2.076 2.06 0 3.956-.701 5.433-1.908v6.42c0 .77.64 1.431 1.492 1.431s1.491-.66 1.491-1.43v-6.383l-.093-.206c1.505 1.31 3.479 2.076 5.633 2.076 4.687 0 8.522-3.631 8.522-8.583C45 12.52 41.165 9 36.478 9c-2.922 0-5.448 1.35-6.976 3.5Zm-6.98-.749c2.983 0 5.433 2.421 5.433 5.833 0 3.411-2.45 5.832-5.433 5.832-2.982 0-5.433-2.53-5.433-5.832 0-3.412 2.45-5.833 5.433-5.833Zm13.956 11.665c2.983 0 5.433-2.42 5.433-5.832s-2.45-5.833-5.433-5.833c-2.983 0-5.433 2.421-5.433 5.833 0 3.301 2.45 5.832 5.433 5.832Z" fill="#223066"/></svg>