<svg width="58" height="40" fill="none" xmlns="http://www.w3.org/2000/svg"><rect x=".5" y=".5" width="57" height="39" rx="3.5" fill="#FBE200" stroke="#F3F3F3"/><path fill-rule="evenodd" clip-rule="evenodd" d="m7.432 16.8-.003.002v.664a2.298 2.298 0 0 0-.495.237c-.31.214-.571.521-.76.904-.214.38-.379.832-.498 1.33-.119.521-.142.927-.119 1.26.024.38.165.667.403.905.238.214.548.333.927.333.19 0 .375-.023.542-.07v.948H7.22a2.47 2.47 0 0 1-1.142-.261 2.502 2.502 0 0 1-.832-.759l-.759 3.303H3.224v-.003l1.64-7.2.071-.416c.024-.137.048-.274.071-.416.023-.284.047-.548.073-.832h1.142l-.096.974c.356-.357.713-.64 1.07-.809a.912.912 0 0 1 .214-.088l.023-.008v.003Zm.003 6.512H7.43h.006Zm0 0v-.95l-.006.002v-.002c.165-.046.333-.118.475-.191.31-.191.57-.475.785-.855.215-.38.38-.785.498-1.234.12-.452.142-.878.12-1.284-.047-.429-.192-.759-.43-1.023-.26-.26-.594-.38-.973-.38-.165 0-.333.024-.475.073v-.002h.003V16.8c.283-.117.615-.163.924-.163.617 0 1.142.191 1.521.57.403.38.617.928.69 1.591.046.476 0 .997-.142 1.545a4.261 4.261 0 0 1-.57 1.425 2.943 2.943 0 0 1-1.143 1.142c-.377.237-.804.355-1.277.402Zm30.128-5.522c.12-.02.227-.038.351-.038.31 0 .548.096.733.28.168.169.287.43.31.786.023.307 0 .663-.096 1.092a5.71 5.71 0 0 1-.402 1.188c-.169.334-.334.571-.548.736a.891.891 0 0 1-.403.192v.007a1.17 1.17 0 0 1-.28.045c-.334 0-.594-.118-.786-.333-.214-.214-.31-.524-.356-.927-.07-.786.072-1.498.452-2.139.26-.448.594-.758.973-.877v-.004l.052-.008Zm-.052-.912v-.007a.789.789 0 0 0 .165-.072 2.498 2.498 0 0 1 1.116-.238c.617 0 1.115.191 1.472.548.356.356.57.877.617 1.567.118 1.284-.12 2.376-.736 3.254-.594.904-1.403 1.353-2.4 1.353a.858.858 0 0 1-.118-.012.95.95 0 0 0-.116-.011v-1.228l-.003.001v1.227h.003v.006a2.227 2.227 0 0 1-.927-.26c-.333-.165-.594-.452-.785-.809l-.76 3.4h-1.973l1.522-6.891c.191-.878.31-1.544.356-1.973h1.782l-.046.785c.284-.26.548-.475.831-.64Zm7.815 3.227c-.046-.023-.096-.023-.142-.023h-.215c-.31 0-.594.023-.831.096-.26.072-.475.165-.667.31-.402.26-.57.594-.521.973 0 .215.072.38.214.499.12.118.284.165.499.165.165 0 .333-.023.475-.096v-.003c.191-.096.38-.238.57-.452.31-.377.525-.875.618-1.469Zm-1.188-.977v.004c.26-.024.57-.024.878-.024h.547l.041-.194c.03-.14.055-.251.055-.353.023-.12.023-.215.023-.31-.023-.192-.096-.334-.237-.43-.12-.095-.31-.141-.548-.141-.284 0-.498.072-.64.191l-.036.033c-.034.03-.066.057-.083.109-.096.119-.142.284-.192.475H42.07c.046-.594.333-1.046.808-1.38.36-.21.762-.352 1.26-.425.238-.046.5-.046.76-.046.831 0 1.449.119 1.9.402.43.284.667.69.713 1.235.023.165.023.333 0 .521-.019.136-.056.306-.094.482l-.024.112-.499 2.185c-.052.187-.078.374-.107.572-.01.077-.022.155-.035.236-.023.284-.023.548-.023.832h-1.805v-.452c0-.085.006-.163.012-.24.006-.077.011-.153.011-.236-.237.334-.521.594-.808.736v.004l-.046.023c-.31.165-.64.26-1.047.26-.57 0-1.023-.165-1.379-.475-.356-.31-.548-.713-.594-1.234-.073-.809.238-1.426.904-1.855.522-.333 1.235-.547 2.162-.617Z" fill="#004A99"/><path d="m47.847 25.57 1.567-2.376-1.141-6.511h1.95l.544 4.468 2.518-4.468h1.855l-4.04 6.772-1.164 2.115h-2.089Z" fill="#004A99"/><path fill-rule="evenodd" clip-rule="evenodd" d="M13.827 17.42a1.58 1.58 0 0 1 .469-.07c.452 0 .785.118 1.02.36.237.214.382.57.429 1.069.023.379-.023.808-.142 1.33-.12.498-.284.95-.522 1.352-.214.357-.452.62-.736.786a1.644 1.644 0 0 1-.518.213v-.002a2.72 2.72 0 0 1-.452.046c-.429 0-.762-.119-1.023-.356a1.426 1.426 0 0 1-.429-.974c-.023-.38 0-.831.119-1.353.119-.521.284-.95.498-1.306a2.78 2.78 0 0 1 .76-.878c.164-.096.356-.169.52-.215h.007v-.002Zm0-.83c.19-.023.399-.023.61-.023.76 0 1.354.192 1.806.548.475.38.713.905.785 1.568.047.521 0 1.092-.165 1.686-.142.594-.356 1.116-.64 1.544-.333.499-.713.855-1.188 1.07-.333.165-.736.26-1.211.31v-.003h.003v-.83l-.003.001v.829c-.079 0-.163.005-.25.01a4.701 4.701 0 0 1-.294.013c-.76 0-1.38-.192-1.829-.594-.475-.38-.736-.928-.785-1.617a4.57 4.57 0 0 1 .191-1.76c.165-.616.403-1.141.736-1.59.31-.402.69-.69 1.165-.904.31-.119.69-.214 1.07-.26v.002Zm0 0h-.006v.832l.006-.002v-.83Z" fill="#004A99"/><path d="M18.335 21.079a.854.854 0 0 0-.073.31.414.414 0 0 0 0 .237c.024.261.12.452.31.571.192.142.453.192.832.192.499 0 .878-.096 1.165-.284.284-.215.403-.475.38-.785 0-.192-.096-.357-.261-.499-.165-.142-.498-.333-1.023-.57-.667-.31-1.142-.595-1.402-.855a1.236 1.236 0 0 1-.453-.878c-.046-.571.165-1.023.617-1.403.476-.356 1.116-.547 1.924-.547.736 0 1.284.118 1.64.333.38.214.571.521.618.973v.238c0 .073 0 .191-.024.356h-1.164v-.356c-.023-.238-.12-.43-.31-.548-.166-.119-.43-.191-.786-.191-.403 0-.713.095-.927.26-.238.165-.334.403-.31.69a.648.648 0 0 0 .26.452c.142.142.498.334 1.046.594.76.357 1.284.667 1.498.904.215.238.357.548.38.905.046.594-.191 1.115-.759 1.52-.548.404-1.284.618-2.185.618-.712 0-1.26-.142-1.686-.38a1.399 1.399 0 0 1-.666-1.092.917.917 0 0 1 0-.356c.023-.119.046-.26.072-.403h1.287v-.006Zm7.818 2.138c-.238.023-.452.046-.64.073-.192 0-.38.023-.548.023-.475 0-.832-.073-1.046-.238-.238-.142-.357-.402-.38-.759-.023-.119 0-.333.023-.594.023-.284.096-.57.142-.878l.736-3.23h-1.188l.215-.832h1.165l.333-1.472 1.26-.31-.38 1.782h1.403l-.191.832h-1.402l-.713 3.372c-.073.26-.12.452-.12.571-.022.142-.045.238-.022.31 0 .192.072.31.191.38.119.096.334.142.617.142.096 0 .238-.023.38-.046.119 0 .26-.047.38-.073l-.215.947Z" fill="#004A99"/><path fill-rule="evenodd" clip-rule="evenodd" d="M30.265 19.227h1.617l.016-.146c.017-.145.03-.262.03-.352a.7.7 0 0 0 0-.31c-.023-.357-.165-.617-.403-.809-.26-.191-.594-.31-1.023-.31a.897.897 0 0 0-.119.012.897.897 0 0 1-.118.011v.003c-.38.047-.713.192-.974.476-.333.307-.57.782-.69 1.425h1.664Zm0 .875v.003h-1.878a2.174 2.174 0 0 0-.119.548c-.023.165-.023.333-.023.475.046.403.191.713.429.927.26.215.594.334 1.046.334.19 0 .377-.023.545-.095v.973h.003a6.478 6.478 0 0 1-.69.046c-.759 0-1.353-.192-1.805-.548-.429-.357-.69-.878-.736-1.544-.046-.499 0-1.07.165-1.71.142-.617.38-1.165.64-1.617a2.789 2.789 0 0 1 1.116-.996c.38-.215.808-.31 1.307-.357v-.003h.26c.832 0 1.472.165 1.901.475.403.31.667.808.713 1.498.023.238.023.498 0 .76 0 .26-.046.547-.119.83h-2.755Zm.003 3.164c.52-.073.97-.238 1.35-.498a2.46 2.46 0 0 0 1.069-1.498h-1.403a1.59 1.59 0 0 1-.617.832c-.119.072-.26.145-.402.191v.002l.003-.002v.973Z" fill="#004A99"/></svg>