<svg width="58" height="40" fill="none" xmlns="http://www.w3.org/2000/svg"><rect x=".5" y=".5" width="57" height="39" rx="3.5" fill="#FC0" stroke="#F3F3F3"/><path d="M57 35.564V4.234C57.153 2.355 55.584.801 53.761 1H41.01c1.922 5.963 3.238 18.495-4.15 27.691-4.655 5.862-12 9.4-21.817 10.309h2.73c8.5-1.314 15.039-4.75 19.39-10.106 6.58-8.085 6.377-18.798 4.96-25.367 1.72 6.266 2.53 16.978-3.542 25.468-3.239 4.547-7.996 7.883-14.27 10.005h1.72c5.567-2.122 9.918-5.356 12.955-9.601 3.036-4.245 4.655-9.601 4.857-15.564.102-2.223-.1-4.245-.303-5.963 1.214 6.064 1.113 14.25-3.34 21.325-2.631 4.143-6.275 7.377-11.234 9.803h1.72c4.352-2.325 7.692-5.458 10.121-9.399 3.644-5.862 4.453-12.532 3.947-18.191.709 5.457.304 11.824-2.834 17.787-2.125 3.941-5.26 7.276-9.308 9.803h1.799a28.695 28.695 0 0 0 8.42-9.399 27.2 27.2 0 0 0 3.239-12.128c0 3.84-.709 7.782-2.53 11.623-1.822 3.84-4.464 7.175-8.006 9.904H37.4c3.138-2.628 5.633-5.862 7.252-9.399.91-1.92 1.518-3.84 2.024-5.963-.303 1.718-.81 3.537-1.417 5.256-1.518 3.739-3.835 7.276-7.073 10.106h2.259c2.732-2.83 4.915-6.064 6.332-9.5-1.214 3.436-3.238 6.67-5.97 9.5h12.834c2.376.147 3.517-1.746 3.358-3.436Z" fill="#FFE666"/><path d="m46.445 24.501.52-2.477H4.521L4 24.501h42.445" fill="#fff"/><path d="M51.558 18.649s.569-2.624.577-2.649h-3.617c0 .017-.748 3.482-.748 3.499h.927c.008 0 .569-2.616.569-2.616h1.755s-.553 2.624-.569 2.64h2.674l-.35 1.619H50.12c0 .016-.537 2.468-.537 2.468h-2.007c0 .008-.179.883-.187.891h2.958c0-.008.529-2.477.529-2.477h2.658c0-.008.699-3.36.699-3.375h-2.674" fill="#ED1C24"/><path fill-rule="evenodd" clip-rule="evenodd" d="M11.665 22.85c1.276 0 2.137-.932 2.332-2.15.204-1.218-.47-2.15-1.747-2.15-1.276 0-2.138.932-2.333 2.15-.203 1.218.472 2.15 1.748 2.15Zm34.38-1.144-.211.973a3.751 3.751 0 0 1-1.155.171c-1.162 0-1.91-.662-1.91-1.79 0-1.316.878-2.51 2.325-2.51 1.114 0 1.634.736 1.634 1.635 0 .295-.057.613-.154.932H43.89c.025.63.48.81 1 .81.447 0 .797-.099 1.154-.221Zm-.39-1.586c0-.433-.26-.695-.642-.695-.488 0-.854.36-1.024.907h1.65l.003-.026c.007-.063.013-.121.013-.186Zm-4.235 1.733c-.528 0-.886-.229-.886-.891 0-.777.488-1.422 1.26-1.422.244 0 .52.073.797.18l.195-.932a3.206 3.206 0 0 0-1.065-.197c-1.276 0-2.365.957-2.365 2.428 0 1.21.74 1.782 1.804 1.782.358 0 .658-.065.878-.155l.211-.957c-.243.09-.512.164-.829.164Zm-5.169-1.194-.447 2.069h-1.162l.87-4.055h1.08l-.105.482c.39-.417.845-.605 1.317-.605.853 0 1.397.622 1.145 1.807l-.511 2.37h-1.163l.488-2.313c.106-.466.04-.875-.504-.875-.422 0-.83.287-1.008 1.12Zm-4.624.9c0-.409.357-.638.95-.638.114 0 .366.008.594.04l-.05.23c-.138.482-.527.81-.99.81-.334 0-.505-.164-.505-.442Zm-.139-2.804a4.87 4.87 0 0 1 1.26-.18c1.341 0 1.723.613 1.723 1.308 0 .172-.016.351-.057.523l-.504 2.322h-1.032l.09-.426c-.277.327-.7.524-1.195.524-.7 0-1.235-.417-1.235-1.112 0-1.063.926-1.512 2.08-1.512.13 0 .406.024.699.057l.016-.082c.017-.065.017-.13.017-.188 0-.319-.22-.507-.83-.507-.455 0-.967.14-1.227.213l.195-.94Zm-4.372 3.973.447-2.069c.178-.833.585-1.12 1.008-1.12.544 0 .61.41.504.875l-.488 2.313h1.162l.512-2.37c.252-1.185-.293-1.807-1.146-1.807-.472 0-.927.188-1.317.605l.106-.482h-1.081l-.87 4.055h1.163Zm-1.48-4.52a.595.595 0 0 1-.601-.655.688.688 0 0 1 .707-.654c.357 0 .626.286.601.654a.688.688 0 0 1-.707.654Zm-.764.465-.87 4.055h1.155l.87-4.055h-1.155Zm-2.829 1.937-.455 2.117h-1.186l1.154-5.493h3.048l-.227 1.038h-1.845l-.269 1.3h1.748l-.212 1.038h-1.756Zm-1.6-1.046.186-.89h-1.243l.244-1.129-1.211.27-.756 3.465c-.211.982.325 1.52 1.3 1.52.204 0 .545-.04.789-.121l.195-.892c-.195.05-.44.099-.65.099-.334 0-.57-.115-.488-.524l.382-1.798h1.251Zm-5.137 2.354c.333 0 .731-.057.731-.384 0-.227-.246-.33-.54-.452-.433-.181-.971-.405-.971-1.142 0-.842.683-1.349 1.812-1.349.374 0 .789.058 1.138.156l-.195.923h-.003c-.174-.05-.682-.196-1.046-.196-.381 0-.625.09-.625.344 0 .225.242.325.532.445.436.18.98.405.98 1.165 0 .98-.846 1.373-1.886 1.373-.44 0-.902-.073-1.268-.163l.195-.916a4.09 4.09 0 0 0 1.146.196ZM11.112 20.7c-.17.842.195 1.21.659 1.21.463 0 .86-.376 1.031-1.21.18-.834-.186-1.21-.65-1.21-.463 0-.87.368-1.04 1.21Zm-4.243.352h.512c1.634 0 2.545-.81 2.545-2.158 0-1.006-.708-1.66-1.919-1.66H6.496L5.34 22.727h1.17l.358-1.675Zm.585-2.812-.382 1.806h.488c.764 0 1.178-.408 1.178-1.07 0-.515-.26-.736-.796-.736h-.488Zm45.25 14.566-.212.973a3.754 3.754 0 0 1-1.154.172c-1.162 0-1.91-.662-1.91-1.79 0-1.316.878-2.51 2.325-2.51 1.113 0 1.633.736 1.633 1.635 0 .294-.056.613-.154.932H50.55c.024.63.48.809 1 .809.447 0 .796-.098 1.154-.22Zm-.39-1.585c0-.434-.26-.695-.643-.695-.487 0-.853.36-1.024.907h1.65l.003-.026c.007-.063.014-.122.014-.186Zm-4.235 1.732c-.528 0-.886-.228-.886-.89 0-.777.488-1.423 1.26-1.423.244 0 .52.074.796.18l.196-.932a3.207 3.207 0 0 0-1.065-.196c-1.276 0-2.366.956-2.366 2.428 0 1.21.74 1.782 1.805 1.782.357 0 .658-.066.878-.155l.211-.957c-.244.09-.512.163-.829.163Zm-5.17-1.193-.446 2.068H41.3l.87-4.054h1.081l-.106.482c.39-.417.846-.605 1.317-.605.854 0 1.398.621 1.146 1.807l-.512 2.37h-1.162l.488-2.313c.105-.466.04-.875-.504-.875-.423 0-.83.286-1.008 1.12Zm-4.624.9c0-.41.358-.638.95-.638.115 0 .367.008.594.04l-.048.23c-.139.481-.529.809-.992.809-.333 0-.504-.164-.504-.442Zm-.138-2.804c.179-.058.723-.18 1.26-.18 1.34 0 1.723.613 1.723 1.308 0 .171-.017.35-.057.523l-.504 2.321h-1.032l.09-.425c-.277.327-.7.523-1.196.523-.699 0-1.235-.417-1.235-1.111 0-1.063.927-1.512 2.08-1.512.13 0 .407.024.7.056l.016-.081c.016-.065.016-.131.016-.188 0-.319-.22-.507-.829-.507-.455 0-.967.14-1.227.213l.195-.94Zm-4.373 3.972.447-2.068c.18-.834.585-1.12 1.008-1.12.545 0 .61.41.504.875l-.488 2.313h1.163l.511-2.37c.253-1.186-.292-1.807-1.145-1.807-.472 0-.927.188-1.317.605l.105-.482h-1.08l-.87 4.054h1.162Zm-1.48-4.52a.595.595 0 0 1-.6-.654A.688.688 0 0 1 32.4 28c.357 0 .625.286.6.654a.688.688 0 0 1-.706.654Zm-.763.466-.87 4.054h1.154l.87-4.054h-1.154Zm-2.829 1.937-.455 2.117H27.06l1.154-5.493h3.048l-.228 1.038H29.19l-.268 1.3h1.748l-.212 1.038h-1.756Z" fill="#000"/><path d="M21.2 28.8h3.1l-.2.8h-2l-.3 1.3h1.8l-.2.8h-1.8l-.3 1.5h2.1l-.2.8H20l1.2-5.2Zm3.4 2.8h2l-.2.8h-2l.2-.8Z" fill="#000"/></svg>