<svg width="58" height="40" fill="none" xmlns="http://www.w3.org/2000/svg"><rect x=".5" y=".5" width="57" height="39" rx="3.5" fill="#FC0" stroke="#F3F3F3"/><path d="M57 36.514V3.698C57 2.56 55.734 1 54.633 1H33.016c-1.4 8.801-4.403 19.155-10.108 27.542C19.806 33.098 16.203 36.515 12 39h1.902c3.502-2.382 6.705-5.591 9.507-9.63 5.504-7.972 8.506-17.602 10.108-26.196-1.201 8.284-3.903 17.706-9.007 25.886-2.502 4.038-5.405 7.351-8.707 9.94h1.901c2.802-2.485 5.204-5.488 7.406-9.008 3.403-5.488 5.805-11.493 7.406-17.395-1.401 5.695-3.403 11.493-6.405 16.774A44.278 44.278 0 0 1 18.805 39h2.002c2.302-2.485 4.403-5.384 6.205-8.594a50.277 50.277 0 0 0 3.903-8.49 69.356 69.356 0 0 1-3.203 7.455c-1.801 3.52-4.029 6.833-6.53 9.629h2.227a47.455 47.455 0 0 0 5.404-8.387c-1.501 3.003-3.295 5.902-5.196 8.387h31.016c1.1 0 2.367-1.347 2.367-2.486Z" fill="#FFE57F"/><path d="m46.445 11.501.52-2.477H4.521L4 11.501h42.445" fill="#fff"/><path d="M51.558 5.649s.569-2.624.577-2.649h-3.617c0 .017-.748 3.482-.748 3.499h.927c.008 0 .569-2.616.569-2.616h1.755s-.553 2.624-.569 2.64h2.674l-.35 1.619H50.12c0 .016-.537 2.468-.537 2.468h-2.007c0 .008-.179.883-.187.891h2.958c0-.008.529-2.477.529-2.477h2.658c0-.008.699-3.36.699-3.375h-2.674" fill="#ED1C24"/><path fill-rule="evenodd" clip-rule="evenodd" d="M11.665 9.85c1.276 0 2.137-.932 2.332-2.15.204-1.218-.47-2.15-1.747-2.15-1.276 0-2.138.932-2.333 2.15-.203 1.218.472 2.15 1.748 2.15Zm34.38-1.144-.211.973a3.753 3.753 0 0 1-1.155.171c-1.162 0-1.91-.662-1.91-1.79 0-1.316.878-2.51 2.325-2.51 1.114 0 1.634.736 1.634 1.635 0 .295-.057.613-.154.932H43.89c.025.63.48.81 1 .81.447 0 .797-.099 1.154-.221Zm-.39-1.586c0-.433-.26-.695-.642-.695-.488 0-.854.36-1.024.907h1.65l.003-.026c.007-.063.013-.121.013-.186ZM41.42 8.853c-.528 0-.886-.229-.886-.891 0-.777.488-1.423 1.26-1.423.244 0 .52.074.797.18l.195-.931a3.208 3.208 0 0 0-1.065-.197c-1.276 0-2.365.957-2.365 2.428 0 1.21.74 1.782 1.804 1.782.358 0 .658-.065.878-.155l.211-.957c-.243.09-.512.164-.829.164Zm-5.169-1.194-.447 2.068h-1.162l.87-4.054h1.08l-.105.482c.39-.417.845-.605 1.317-.605.853 0 1.397.622 1.145 1.807l-.511 2.37h-1.163l.488-2.313c.106-.466.04-.875-.504-.875-.422 0-.83.287-1.008 1.12Zm-4.624.9c0-.409.357-.638.95-.638.114 0 .366.008.594.04l-.05.23c-.138.482-.527.81-.99.81-.334 0-.505-.164-.505-.442Zm-.139-2.804a4.87 4.87 0 0 1 1.26-.18c1.341 0 1.723.613 1.723 1.308 0 .172-.016.351-.057.523l-.504 2.321h-1.032l.09-.425c-.277.327-.7.524-1.195.524-.7 0-1.235-.417-1.235-1.112 0-1.063.926-1.512 2.08-1.512.13 0 .406.024.699.057l.016-.082c.017-.065.017-.13.017-.188 0-.319-.22-.507-.83-.507-.455 0-.967.14-1.227.213l.195-.94Zm-4.372 3.972.447-2.068c.178-.833.585-1.12 1.008-1.12.544 0 .61.41.504.875l-.488 2.313h1.162l.512-2.37c.252-1.185-.293-1.807-1.146-1.807-.472 0-.927.188-1.317.605l.106-.482h-1.081l-.87 4.054h1.163Zm-1.48-4.52a.595.595 0 0 1-.601-.654.688.688 0 0 1 .707-.654c.357 0 .626.286.601.654a.688.688 0 0 1-.707.654Zm-.764.466-.87 4.054h1.155l.87-4.054h-1.155ZM22.043 7.61l-.455 2.117h-1.186l1.154-5.493h3.048l-.227 1.038h-1.845l-.269 1.3h1.748l-.212 1.038h-1.756Zm-1.6-1.046.186-.89h-1.243l.244-1.129-1.211.27-.756 3.465c-.211.982.325 1.52 1.3 1.52.204 0 .545-.04.789-.121l.195-.892c-.195.05-.44.099-.65.099-.334 0-.57-.115-.488-.524l.382-1.798h1.251Zm-5.137 2.354c.333 0 .731-.057.731-.384 0-.227-.246-.33-.54-.452-.433-.181-.971-.405-.971-1.142 0-.842.683-1.349 1.812-1.349.374 0 .789.058 1.138.156l-.195.923h-.003c-.174-.05-.682-.196-1.046-.196-.381 0-.625.09-.625.344 0 .225.242.325.532.445.436.18.98.405.98 1.165 0 .98-.846 1.373-1.886 1.373a5.53 5.53 0 0 1-1.268-.164l.195-.915a4.09 4.09 0 0 0 1.146.196ZM11.112 7.7c-.17.842.195 1.21.659 1.21.463 0 .86-.376 1.031-1.21.18-.834-.186-1.21-.65-1.21-.463 0-.87.368-1.04 1.21Zm-4.243.352h.512c1.634 0 2.545-.81 2.545-2.158 0-1.006-.708-1.66-1.919-1.66H6.496L5.34 9.727h1.17l.358-1.675Zm.585-2.812-.382 1.806h.488c.764 0 1.178-.408 1.178-1.07 0-.515-.26-.736-.796-.736h-.488Z" fill="#000"/><rect x="4.32" y="16" width="11.095" height="8.453" rx="1.172" fill="#DBB931"/><path fill-rule="evenodd" clip-rule="evenodd" d="M15.415 17.172A1.17 1.17 0 0 0 14.244 16H5.492c-.647 0-1.172.524-1.172 1.172v6.11a1.17 1.17 0 0 0 1.172 1.171h8.752a1.17 1.17 0 0 0 1.171-1.171v-6.11Zm-9.923-.983h8.752l.057.002c.516.03.925.457.925.98v6.11l-.002.059a.982.982 0 0 1-.98.924H5.492l-.058-.002a.982.982 0 0 1-.925-.98v-6.11l.002-.058a.982.982 0 0 1 .98-.925Z" fill="#646464"/><path fill-rule="evenodd" clip-rule="evenodd" d="M9.868 23.657a.242.242 0 0 0 .24-.243.242.242 0 0 0-.24-.242.242.242 0 0 0-.242.242c0 .134.108.242.242.242Z" fill="#646464"/><path d="M8.093 18.953v.19H4.398v-.19h3.695Zm7.193 2.477v.19h-3.73v-.19h3.73Zm0-2.477v.19h-3.661v-.19h3.66Z" fill="#646464"/><path d="M9.917 16.292c.917.327 1.509 1.209 1.778 2.631l.023.127-.009.06c-.285.552-.318 1.305-.092 2.258l.03.126.001.045c-.305 1.28-.85 2.14-1.638 2.575l-.083.043-.063.008c-.466-.107-.9-.544-1.319-1.257a.095.095 0 0 1 .164-.096c.377.642.76 1.04 1.142 1.153l.022.006.046-.024c.71-.391 1.215-1.164 1.513-2.326l.026-.104-.025-.102c-.226-.954-.204-1.726.07-2.316l.023-.047-.017-.095c-.25-1.32-.778-2.135-1.58-2.458l-.043-.016-.04.015c-.731.314-1.276 1.13-1.628 2.46l-.026.104.028.08c.29.869.262 1.649-.085 2.336l-.045.085a.095.095 0 0 1-.063.047l-.02.002h-3.61a.095.095 0 0 1-.021-.187l.022-.003H7.95l.017-.033c.321-.638.347-1.364.074-2.183l-.037-.108L8 19.043c.363-1.46.952-2.37 1.773-2.72l.077-.03.066-.001Z" fill="#646464"/><path fill="#000" d="M4 33h24v1H4zm0-3h12v1H4z"/></svg>