<svg width="58" height="40" fill="none" xmlns="http://www.w3.org/2000/svg"><rect x=".5" y=".5" width="57" height="39" rx="3.5" fill="#fff" stroke="#F3F3F3"/><path fill-rule="evenodd" clip-rule="evenodd" d="M5.449 16.113H3v6.561h1.091v-2.109h1.234c1.366 0 2.484-.768 2.484-2.24v-.019c0-1.322-.905-2.194-2.36-2.194Zm1.251 2.24c0 .684-.515 1.172-1.34 1.172H4.091v-2.362h1.27c.816 0 1.34.403 1.34 1.17v.02Z" fill="#DCA126"/><path d="M15.645 16.113h1.18l1.482 4.864 1.526-4.883h.923l1.526 4.883 1.482-4.864h1.145l-2.156 6.608h-.95l-1.526-4.715-1.527 4.715h-.94l-2.165-6.608m10.382 0h4.605v1.03h-3.514v1.706h3.115v1.032h-3.115v1.762h3.559v1.031h-4.65v-6.561" fill="#DCA126"/><path fill-rule="evenodd" clip-rule="evenodd" d="M34.74 16.113h-2.768v6.561h1.091v-2.287h1.367l1.526 2.287h1.296l-1.678-2.484c.861-.262 1.474-.909 1.474-1.987v-.019c0-.571-.187-1.06-.515-1.415-.4-.413-1.011-.656-1.792-.656Zm1.198 2.156c0 .665-.496 1.096-1.277 1.096h-1.598v-2.202h1.589c.807 0 1.286.384 1.286 1.087v.019Z" fill="#DCA126"/><path d="m13.946 16.715-.592.843c.428.43.783 1.148.783 1.835v.019c0 1.275-.995 2.403-2.228 2.403s-2.243-1.146-2.243-2.422v-.018c0-.689.3-1.347.726-1.772l-.53-.877c-.755.626-1.21 1.595-1.21 2.668v.018c0 1.847 1.331 3.375 3.24 3.375 1.907 0 3.256-1.547 3.256-3.393v-.019c0-1.074-.45-2.04-1.202-2.66" fill="#DCA126"/><path d="M12.387 19a.502.502 0 0 1-.487.516.502.502 0 0 1-.487-.515v-2.486c0-.285.218-.515.487-.515a.5.5 0 0 1 .487.515V19m-2.526-2.274c.178-.188.465-.111.67.105.205.216.039.585-.14.772-.177.188-.306.116-.511-.1-.205-.216-.196-.59-.019-.777m4.085-.011c-.178-.187-.476-.1-.681.116-.205.217-.089.54.089.727.178.188.357.162.562-.055.205-.216.207-.6.03-.788" fill="#DCA126"/><path fill-rule="evenodd" clip-rule="evenodd" d="M40.56 16.047h-2.448v6.56h1.092v-2.109h1.233c1.366 0 2.484-.768 2.484-2.24v-.018c0-1.321-.905-2.193-2.36-2.193Zm1.252 2.24c0 .684-.515 1.171-1.34 1.171h-1.268v-2.361h1.268c.816 0 1.34.403 1.34 1.171v.019ZM46.63 16h-1.01l-2.733 6.607h1.118l.639-1.584h2.936l.63 1.584h1.153L46.63 16Zm-.523 1.378 1.073 2.624h-2.138l1.065-2.624Z" fill="#467BA8"/><path d="m51.29 20.02-2.467-3.973h1.295l1.73 2.896 1.757-2.896h1.25l-2.466 3.945v2.615h-1.1V20.02" fill="#467BA8"/></svg>