<svg width="58" height="40" fill="none" xmlns="http://www.w3.org/2000/svg"><rect x=".5" y=".5" width="57" height="39" rx="3.5" fill="#fff" stroke="#F3F3F3"/><path fill-rule="evenodd" clip-rule="evenodd" d="M9.533 19.784c.14.058.268.13.356.224.068.07.12.143.164.224.125.228.148.468.145.626a.984.984 0 0 1-.015.187l-.021.162a37.89 37.89 0 0 1-.15 1.008c-.055.323-.12.588-.12.588s-.159.715-.752 1.03c-.593.314-1.43.28-1.43.28l-2.147-.01-.437 2.652H4.018l1.186-7.16h3.102s.083 0 .213.005c.14.005.338.02.54.057.162.029.326.07.474.127Zm-.726 2.756a49.949 49.949 0 0 0 .23-1.28c.004-.03.016-.112.007-.207a.44.44 0 0 0-.083-.234c-.042-.052-.172-.086-.336-.106a5.296 5.296 0 0 0-.595-.037c-.153-.002-.263 0-.263 0l-1.625-.005-.395 2.379 1.794.005s.408.016.788-.065c.229-.05.429-.19.478-.45Zm9.597-.954-4.066.005-.164 1.01h2.602l-3.26 3.122-.177 1.032 4.204-.003.167-.998-2.855.005 3.4-3.247.149-.926Zm5.515-1.991h1.066l-1.194 7.16-1.068-.003 1.196-7.157Zm6.71 1.994-1.022.002.52 5.164 1.238-.005 1.589-3.614.364 3.614h1.258l2.252-5.161h-1.061l-1.57 3.648-.372-3.65-1.261-.003-1.573 3.64-.362-3.635Zm-9.934-.068c.439-.005.956.016 1.255.112.89.291 1.012 1.032.84 2.005l-.148.858-3.471.01s-.068.159-.096.767c-.003.016-.003.026-.003.034-.048.498.501.508.67.511l.032.001.035.002c.14.007.454.023.997-.038.598-.068.658-.799.658-.799l1.105-.002-.067.278-.002.007a2.078 2.078 0 0 1-.147.412c-.109.234-.262.431-.262.431s-.343.458-.993.611c-.65.154-1.514.086-1.514.086s-.41.01-.894-.177c-.484-.184-.616-.582-.692-1.009-.075-.429.18-1.71.18-1.71s.127-1.16.556-1.69c.43-.53 1.183-.64 1.183-.64.159-.034.354-.055.778-.06Zm-1.355 1.992 2.379.002s.088-.426.005-.707c-.036-.12-.171-.2-.314-.229-.43-.088-.957-.049-1.155-.03-.197.017-.408.04-.574.166-.164.124-.247.42-.247.42l-.094.378Zm9.16-1.877c-.3-.097-.817-.117-1.256-.112-.424.005-.619.026-.777.06 0 0-.754.109-1.183.64-.43.53-.557 1.69-.557 1.69s-.255 1.281-.18 1.71c.076.426.209.824.692 1.009.484.187.895.177.895.177s.863.067 1.513-.086c.65-.154.993-.611.993-.611s.154-.198.263-.432c.1-.216.137-.373.146-.411l.002-.007.068-.279-1.105.003s-.06.73-.658.798a5.95 5.95 0 0 1-.977.041l-.055-.002h-.03c-.169-.004-.72-.015-.672-.512 0-.008 0-.018.002-.034.029-.608.096-.767.096-.767l3.471-.01.149-.858c.171-.975.049-1.719-.84-2.007Zm-.242 1.88-2.379-.003.094-.377s.083-.297.247-.421c.163-.125.377-.149.574-.167.198-.018.726-.057 1.155.031.143.029.278.11.314.23.083.277-.005.706-.005.706Zm9.797-1.925.684 3.776 1.931-3.778 1.087.01-2.784 5.395s-.505.978-.817 1.225c-.312.247-.504.359-.759.385l-.068.007a1.56 1.56 0 0 1-.535-.007l-.26-.047.161-.965s.432.08.686-.02c.258-.102.463-.539.463-.539l.13-.218-1.006-5.226 1.087.002Zm-26.255.354c.346-.19.751-.359 1.18-.359h.62l-.178.999-.587.002c-.843 0-1.274.715-1.378 1.292l-.505 2.847H9.814l.91-5.14h1.136l-.06.359Z" fill="#D13239"/><path fill-rule="evenodd" clip-rule="evenodd" d="m33.835 14.673 1.32-2.655s2.895-.057 5.39.33c2.497.385 4.78.978 4.73 1.004l-6.328 3.31s-1.48-.936-3.315-1.51a32.296 32.296 0 0 0-1.797-.48Zm-8.367-1.248.276 1.547s1.274-.338 2.8-.52c1.96-.268 4.048.018 4.048.018l.785-2.39s-2.373.16-4.165.492a59.03 59.03 0 0 0-3.744.853Zm-5.891 4.082-1.584-1.066s1.433-.814 3.339-1.573c1.903-.76 2.92-1.077 2.92-1.077l.322 1.511s-1.833.614-2.884 1.11a18.365 18.365 0 0 0-2.113 1.095Zm-3.924 2.678H12.24s1.332-1.02 2.002-1.459c.692-.476 2.322-1.484 2.322-1.484l1.93.902s-.989.626-1.532 1.024-1.308 1.017-1.308 1.017Zm26.5 1.919 1.12.002.068-.434s.12-.785.387-.936c.086-.05.224-.094.382-.122.294-.052.666-.057.97-.047h.025c.447.016.626.022 1.09.075.474.055.354.513.354.513l-.094.683s-.041.307-.15.497c-.097.169-.362.283-.515.333-.37.12-1.633.442-1.633.442l-.993.286s-.611.177-.952.554a2.28 2.28 0 0 0-.525 1.032c-.047.223-.31 1.77-.31 1.77l5.362.003.18-1.071-4.241.005.075-.437s.05-.45.231-.598a.535.535 0 0 0 .026-.023c.048-.044.112-.104.398-.206.203-.072.895-.257.895-.257l1.599-.437s.873-.223 1.216-.702c.344-.476.476-1.388.476-1.388s.094-.887.021-1.165c-.07-.278-.333-.611-.653-.754-.32-.143-.652-.226-1.617-.213-.964.013-1.443.057-1.932.239-.488.18-.772.507-.951.97-.195.44-.31 1.386-.31 1.386Zm10.093 1.991.751-4.503h-1.331l-4.145 4.451-.187 1.129h3.625l-.266 1.58 1.113.003.263-1.583 1.027.002.184-1.079h-1.034Zm-1.108.003-2.343-.003 2.853-3.04-.51 3.043Zm-9.667-5.66-1.39-1.056 7.924-3.058.061.028c1.01.458 1.57.713 2.56 1.356.395.257.92.668 1.053.798.361.361.707.71.897 1.037.304.525.327.895.327.895H41.471Z" fill="#B3B2B1"/></svg>