<svg width="58" height="40" viewBox="0 0 58 40" fill="none" xmlns="http://www.w3.org/2000/svg">
<rect x="0.5" y="0.5" width="57" height="39" rx="3.5" fill="white" stroke="#F3F3F3"/>
<path fill-rule="evenodd" clip-rule="evenodd" d="M7.82446 26.3484L8.26705 26.3038C8.29365 26.453 8.34773 26.5625 8.42912 26.6326C8.51066 26.7026 8.62052 26.7376 8.75884 26.7376C8.90532 26.7376 9.01561 26.7065 9.08999 26.6444C9.16423 26.5821 9.20128 26.5094 9.20128 26.4261C9.20128 26.3727 9.18569 26.3274 9.15465 26.2897C9.12347 26.2522 9.06911 26.2197 8.99144 26.1918C8.93822 26.1737 8.8172 26.141 8.62824 26.0941C8.38492 26.034 8.21441 25.9598 8.11628 25.8718C7.97838 25.7482 7.90943 25.5973 7.90943 25.4193C7.90943 25.3049 7.9419 25.1977 8.00699 25.0981C8.07193 24.9984 8.16577 24.9224 8.28808 24.8703C8.41052 24.8182 8.55829 24.792 8.73138 24.792C9.01404 24.792 9.22675 24.8542 9.36965 24.9785C9.51255 25.1028 9.58751 25.2687 9.59466 25.4762L9.13877 25.4941C9.11932 25.3782 9.07755 25.2949 9.01346 25.244C8.94952 25.1932 8.85354 25.1677 8.72551 25.1677C8.59334 25.1677 8.49006 25.1949 8.41524 25.2493C8.36704 25.284 8.34301 25.3307 8.34301 25.3891C8.34301 25.4425 8.36561 25.488 8.41067 25.5261C8.46789 25.5741 8.60707 25.6244 8.82822 25.6763C9.04923 25.7284 9.21273 25.7824 9.31873 25.8385C9.42458 25.8944 9.50755 25.971 9.56748 26.068C9.62728 26.1654 9.65732 26.2853 9.65732 26.4281C9.65732 26.5578 9.62141 26.679 9.5496 26.7921C9.47779 26.9051 9.37637 26.9892 9.2452 27.0441C9.11403 27.0991 8.95052 27.1267 8.75469 27.1267C8.46974 27.1267 8.25088 27.0604 8.09811 26.9279C7.94548 26.7954 7.85422 26.6023 7.82446 26.3484Z" fill="#0B4A8E"/>
<path fill-rule="evenodd" clip-rule="evenodd" d="M10.1298 25.4539H10.5634V27.0863H10.1298V25.4539ZM10.1298 24.8322H10.5634V25.2303H10.1298V24.8322Z" fill="#0B4A8E"/>
<path fill-rule="evenodd" clip-rule="evenodd" d="M12.5871 27.0863H12.1535V26.2514C12.1535 26.0748 12.1442 25.9606 12.1259 25.9087C12.1074 25.8569 12.0777 25.8164 12.0363 25.7877C11.995 25.759 11.9452 25.7446 11.8871 25.7446C11.8126 25.7446 11.7458 25.7652 11.6866 25.8063C11.6274 25.8473 11.5869 25.9017 11.565 25.9696C11.543 26.0373 11.5321 26.1625 11.5321 26.3454V27.0863H11.0985V25.4539H11.5008V25.6938C11.6431 25.507 11.8225 25.4137 12.0385 25.4137C12.1337 25.4137 12.2209 25.431 12.2997 25.4654C12.3785 25.4997 12.4381 25.5436 12.4786 25.597C12.5191 25.6504 12.5473 25.711 12.5632 25.7788C12.579 25.8465 12.5871 25.9435 12.5871 26.0698V27.0863Z" fill="#0B4A8E"/>
<path fill-rule="evenodd" clip-rule="evenodd" d="M13.4639 26.2349C13.4639 26.4087 13.4971 26.5359 13.5638 26.6165C13.6303 26.6973 13.7124 26.7375 13.8101 26.7375C13.9147 26.7375 14.0031 26.6962 14.0753 26.6135C14.1474 26.5307 14.1836 26.4081 14.1836 26.2456C14.1836 26.0762 14.149 25.9503 14.0799 25.868C14.0106 25.7858 13.9234 25.7446 13.8177 25.7446C13.715 25.7446 13.6303 25.7851 13.5638 25.8657C13.4971 25.9465 13.4639 26.0695 13.4639 26.2349ZM13.075 27.1937L13.5666 27.2473C13.5749 27.3082 13.5939 27.35 13.6237 27.3729C13.6649 27.4055 13.7297 27.4218 13.8181 27.4218C13.9312 27.4218 14.0161 27.4049 14.0727 27.3711C14.1106 27.3485 14.1395 27.3122 14.1591 27.2619C14.1724 27.2259 14.1791 27.1599 14.1791 27.0634L14.1804 26.8251C14.0526 26.9993 13.8903 27.0863 13.6935 27.0863C13.4739 27.0863 13.3003 26.9936 13.1721 26.8077C13.0715 26.6608 13.0213 26.4779 13.0213 26.2592C13.0213 25.985 13.0871 25.7756 13.2189 25.6308C13.3506 25.4861 13.5146 25.4137 13.7104 25.4137C13.9124 25.4137 14.079 25.5026 14.2103 25.68V25.4539H14.6127V26.9213C14.6127 27.1144 14.5968 27.2586 14.5649 27.354C14.5332 27.4496 14.4886 27.5244 14.4311 27.5788C14.3735 27.6332 14.2969 27.6758 14.2009 27.7066C14.1049 27.7374 13.9836 27.7528 13.837 27.7528C13.5599 27.7528 13.3634 27.705 13.2473 27.6096C13.1313 27.5141 13.0734 27.393 13.0734 27.2463C13.0734 27.2319 13.074 27.2144 13.075 27.1937Z" fill="#0B4A8E"/>
<path fill-rule="evenodd" clip-rule="evenodd" d="M15.132 24.8322H15.5656V27.0863H15.132V24.8322Z" fill="#0B4A8E"/>
<path fill-rule="evenodd" clip-rule="evenodd" d="M17.0751 26.1337C17.0721 26.0066 17.0396 25.9102 16.9777 25.8439C16.9159 25.7778 16.8407 25.7446 16.752 25.7446C16.6571 25.7446 16.5788 25.7797 16.517 25.8494C16.455 25.9191 16.4247 26.0139 16.4257 26.1337H17.0751ZM17.0528 26.5721L17.4819 26.6437C17.4264 26.801 17.3388 26.9209 17.219 27.0032C17.0993 27.0856 16.9494 27.1267 16.7696 27.1267C16.4848 27.1267 16.2741 27.0335 16.1375 26.8473C16.0295 26.6982 15.9755 26.51 15.9755 26.2824C15.9755 26.0111 16.0463 25.7983 16.1882 25.6444C16.33 25.4906 16.5092 25.4137 16.7259 25.4137C16.9696 25.4137 17.1617 25.4944 17.3024 25.6557C17.4432 25.8173 17.5104 26.0645 17.5043 26.3976H16.4181C16.4211 26.5262 16.4563 26.6261 16.5235 26.6976C16.5908 26.7689 16.6746 26.8047 16.775 26.8047C16.8432 26.8047 16.9007 26.7864 16.9472 26.7496C16.9937 26.7129 17.0291 26.6537 17.0528 26.5721Z" fill="#0B4A8E"/>
<path fill-rule="evenodd" clip-rule="evenodd" d="M18.923 27.0863V24.8322H20.5905V25.2124H19.379V25.7133H20.5055V26.0935H19.379V26.7062H20.6351V27.0863H18.923Z" fill="#0B4A8E"/>
<path fill-rule="evenodd" clip-rule="evenodd" d="M22.1849 27.0863V26.8418C22.1252 26.929 22.047 26.9983 21.9499 27.0496C21.8527 27.1009 21.7503 27.1266 21.6425 27.1266C21.5325 27.1266 21.434 27.1024 21.3466 27.0542C21.2594 27.006 21.1962 26.9381 21.1571 26.851C21.1181 26.7637 21.0986 26.643 21.0986 26.489V25.4539H21.5322V26.2047C21.5322 26.4345 21.54 26.5753 21.5561 26.627C21.5719 26.6791 21.6008 26.72 21.6429 26.7504C21.6849 26.7806 21.7382 26.7956 21.8028 26.7956C21.8766 26.7956 21.9429 26.7756 22.0012 26.7349C22.0597 26.6944 22.0996 26.6442 22.1212 26.5841C22.1427 26.5241 22.1536 26.3771 22.1536 26.1433V25.4539H22.5871V27.0863H22.1849Z" fill="#0B4A8E"/>
<path fill-rule="evenodd" clip-rule="evenodd" d="M23.54 27.0863H23.1064V25.4539H23.5086V25.6861C23.5774 25.5764 23.6392 25.5037 23.6942 25.4677C23.7491 25.4317 23.8113 25.4137 23.8811 25.4137C23.9795 25.4137 24.0745 25.441 24.1658 25.4956L24.0339 25.8735C23.9609 25.8265 23.8929 25.8028 23.8302 25.8028C23.7694 25.8028 23.7181 25.8196 23.6759 25.8528C23.6337 25.8863 23.6005 25.9465 23.5763 26.0337C23.5521 26.1208 23.54 26.3036 23.54 26.5815V27.0863Z" fill="#0B4A8E"/>
<path fill-rule="evenodd" clip-rule="evenodd" d="M24.7832 26.2701C24.7832 26.4328 24.8217 26.5572 24.8988 26.6437C24.9759 26.7301 25.0709 26.7733 25.184 26.7733C25.297 26.7733 25.3919 26.7301 25.4684 26.6437C25.5449 26.5572 25.5833 26.4317 25.5833 26.2671C25.5833 26.1067 25.5449 25.983 25.4684 25.8967C25.3919 25.8103 25.297 25.7671 25.184 25.7671C25.0709 25.7671 24.9759 25.8103 24.8988 25.8967C24.8217 25.983 24.7832 26.1077 24.7832 26.2701ZM24.3406 26.2469C24.3406 26.103 24.3759 25.9636 24.4467 25.8287C24.5174 25.6941 24.6175 25.5912 24.7473 25.5202C24.8769 25.4492 25.0218 25.4137 25.1817 25.4137C25.4288 25.4137 25.6312 25.4941 25.7891 25.6551C25.9469 25.8161 26.0258 26.0197 26.0258 26.2655C26.0258 26.5134 25.946 26.7191 25.7867 26.8821C25.6273 27.0451 25.4266 27.1267 25.1847 27.1267C25.0351 27.1267 24.8923 27.0926 24.7566 27.0249C24.6207 26.957 24.5174 26.8575 24.4467 26.7262C24.3759 26.595 24.3406 26.4354 24.3406 26.2469Z" fill="#0B4A8E"/>
<path fill-rule="evenodd" clip-rule="evenodd" d="M27.8937 25.2124V25.8565H28.1421C28.3209 25.8565 28.4404 25.8447 28.5008 25.821C28.561 25.7972 28.6084 25.76 28.6426 25.7093C28.6768 25.6588 28.6939 25.6 28.6939 25.5329C28.6939 25.4503 28.6699 25.3822 28.6218 25.3285C28.5738 25.2748 28.513 25.2413 28.4394 25.2279C28.3852 25.2176 28.2765 25.2124 28.1129 25.2124H27.8937ZM27.4378 27.0863V24.8322H28.1677C28.4442 24.8322 28.6245 24.8436 28.7085 24.8661C28.8375 24.8998 28.9455 24.9736 29.0327 25.0869C29.1198 25.2001 29.1633 25.3465 29.1633 25.526C29.1633 25.6644 29.1382 25.7806 29.088 25.8752C29.038 25.9694 28.9742 26.0435 28.8969 26.0973C28.8197 26.1513 28.7411 26.1868 28.6613 26.2042C28.5527 26.2258 28.3957 26.2366 28.1901 26.2366H27.8937V27.0863H27.4378Z" fill="#0B4A8E"/>
<path fill-rule="evenodd" clip-rule="evenodd" d="M30.5253 26.3038C30.47 26.3224 30.3826 26.3444 30.263 26.3702C30.1434 26.3958 30.0651 26.4211 30.0285 26.4457C29.9722 26.4859 29.9443 26.5369 29.9443 26.5986C29.9443 26.6594 29.9666 26.7118 30.0115 26.7562C30.0566 26.8004 30.1138 26.8226 30.1834 26.8226C30.2611 26.8226 30.3351 26.7968 30.4057 26.7454C30.4578 26.7062 30.4921 26.6584 30.5085 26.6017C30.5196 26.5647 30.5253 26.4941 30.5253 26.3901V26.3038ZM29.9443 25.9504L29.5553 25.8788C29.5994 25.7207 29.6752 25.6038 29.7828 25.5278C29.8905 25.4518 30.0504 25.4137 30.2626 25.4137C30.4552 25.4137 30.5989 25.4366 30.6931 25.4821C30.7874 25.528 30.8539 25.586 30.8922 25.6563C30.9307 25.7266 30.95 25.8558 30.95 26.0437L30.9456 26.5489C30.9456 26.6926 30.9525 26.7988 30.9662 26.8669C30.9801 26.9352 31.006 27.0083 31.0439 27.0863H30.6147C30.6033 27.0581 30.5896 27.0162 30.5731 26.9607C30.566 26.9353 30.5608 26.9187 30.5579 26.9106C30.4841 26.9826 30.4053 27.0367 30.3213 27.0727C30.2374 27.1087 30.148 27.1267 30.0527 27.1267C29.8848 27.1267 29.7523 27.0809 29.6556 26.9896C29.5589 26.8981 29.5106 26.7825 29.5106 26.6428C29.5106 26.5505 29.5326 26.4681 29.5765 26.3956C29.6207 26.3232 29.6825 26.2677 29.7619 26.2292C29.8414 26.1908 29.956 26.1569 30.1056 26.1281C30.3075 26.0902 30.4474 26.0549 30.5253 26.022V25.9783C30.5253 25.8941 30.5047 25.8342 30.4635 25.7983C30.4222 25.7625 30.3445 25.7446 30.2301 25.7446C30.1528 25.7446 30.0926 25.7599 30.0493 25.7902C30.0059 25.8207 29.9709 25.8741 29.9443 25.9504Z" fill="#0B4A8E"/>
<path fill-rule="evenodd" clip-rule="evenodd" d="M31.2613 25.4539H31.7216L32.1129 26.6128L32.4951 25.4539H32.9421L32.2621 27.312C32.224 27.4076 32.1878 27.4804 32.1535 27.5308C32.1192 27.581 32.0795 27.622 32.0349 27.6532C31.9901 27.6845 31.9355 27.7091 31.8703 27.7264C31.805 27.7441 31.7314 27.7528 31.6493 27.7528C31.5662 27.7528 31.4843 27.7441 31.4044 27.7266L31.364 27.3881C31.432 27.4017 31.4935 27.4083 31.548 27.4083C31.6491 27.4083 31.7236 27.3784 31.7721 27.3188C31.8206 27.259 31.8577 27.183 31.8834 27.0909L31.2613 25.4539Z" fill="#0B4A8E"/>
<path fill-rule="evenodd" clip-rule="evenodd" d="M33.2803 25.4539H33.6781V25.6769C33.821 25.5014 33.9911 25.4137 34.1885 25.4137C34.2932 25.4137 34.3842 25.4352 34.4613 25.4782C34.5384 25.5215 34.6016 25.5867 34.6508 25.6739C34.7226 25.5867 34.8003 25.5215 34.8833 25.4782C34.9665 25.4352 35.055 25.4137 35.1495 25.4137C35.2696 25.4137 35.3712 25.438 35.4543 25.487C35.5374 25.5355 35.5996 25.6072 35.6407 25.7018C35.6703 25.7715 35.6852 25.8844 35.6852 26.0406V27.0863H35.2516V26.1513C35.2516 25.989 35.2367 25.8844 35.2071 25.8372C35.1671 25.7754 35.1057 25.7446 35.0229 25.7446C34.9624 25.7446 34.9054 25.7631 34.8522 25.8001C34.799 25.8372 34.7607 25.8913 34.7372 25.9627C34.7136 26.034 34.7017 26.1468 34.7017 26.3007V27.0863H34.2682V26.19C34.2682 26.0305 34.2606 25.9281 34.2451 25.8817C34.2298 25.8355 34.2061 25.8011 34.1737 25.7785C34.1414 25.756 34.0978 25.7446 34.0424 25.7446C33.9759 25.7446 33.916 25.7626 33.8628 25.7985C33.8095 25.8345 33.7715 25.8864 33.7483 25.9541C33.7253 26.022 33.7138 26.1343 33.7138 26.2914V27.0863H33.2803V25.4539Z" fill="#0B4A8E"/>
<path fill-rule="evenodd" clip-rule="evenodd" d="M37.1787 26.1337C37.1756 26.0066 37.1432 25.9102 37.0812 25.8439C37.0195 25.7778 36.9441 25.7446 36.8554 25.7446C36.7607 25.7446 36.6822 25.7797 36.6206 25.8494C36.5586 25.9191 36.5283 26.0139 36.5293 26.1337H37.1787ZM37.1564 26.5721L37.5855 26.6437C37.5299 26.801 37.4424 26.9209 37.3226 27.0032C37.2028 27.0856 37.053 27.1267 36.873 27.1267C36.5884 27.1267 36.3777 27.0335 36.2409 26.8473C36.1329 26.6982 36.079 26.51 36.079 26.2824C36.079 26.0111 36.1501 25.7983 36.2917 25.6444C36.4336 25.4906 36.6127 25.4137 36.8295 25.4137C37.0732 25.4137 37.2651 25.4944 37.4059 25.6557C37.5466 25.8173 37.614 26.0645 37.6079 26.3976H36.5216C36.5247 26.5262 36.5599 26.6261 36.6271 26.6976C36.6942 26.7689 36.778 26.8047 36.8786 26.8047C36.9468 26.8047 37.0042 26.7864 37.0507 26.7496C37.0975 26.7129 37.1327 26.6537 37.1564 26.5721Z" fill="#0B4A8E"/>
<path fill-rule="evenodd" clip-rule="evenodd" d="M39.5374 27.0863H39.1038V26.2514C39.1038 26.0748 39.0945 25.9606 39.0764 25.9087C39.0579 25.8569 39.028 25.8164 38.9867 25.7877C38.9453 25.759 38.8955 25.7446 38.8375 25.7446C38.7631 25.7446 38.6961 25.7652 38.6371 25.8063C38.5778 25.8473 38.5374 25.9017 38.5153 25.9696C38.4934 26.0373 38.4824 26.1625 38.4824 26.3454V27.0863H38.0489V25.4539H38.4511V25.6938C38.5936 25.507 38.7728 25.4137 38.9888 25.4137C39.0841 25.4137 39.1713 25.431 39.25 25.4654C39.3288 25.4997 39.3886 25.5436 39.4291 25.597C39.4696 25.6504 39.4976 25.711 39.5135 25.7788C39.5295 25.8465 39.5374 25.9435 39.5374 26.0698V27.0863Z" fill="#0B4A8E"/>
<path fill-rule="evenodd" clip-rule="evenodd" d="M40.8167 25.4539V25.7983H40.5216V26.4587C40.5216 26.5924 40.5243 26.6704 40.5299 26.6925C40.5353 26.7146 40.5479 26.7328 40.5675 26.7473C40.5872 26.7616 40.611 26.7689 40.6391 26.7689C40.6786 26.7689 40.7353 26.755 40.8099 26.7274L40.8478 27.062C40.7479 27.1051 40.6347 27.1267 40.5084 27.1267C40.4307 27.1267 40.3611 27.1135 40.2988 27.0873C40.2368 27.0613 40.1911 27.0272 40.1619 26.9856C40.1329 26.9441 40.1129 26.8878 40.1017 26.817C40.0924 26.7666 40.088 26.6648 40.088 26.5118V25.7983H39.8913V25.4539H40.088V25.1275L40.5216 24.8726V25.4539H40.8167Z" fill="#0B4A8E"/>
<path fill-rule="evenodd" clip-rule="evenodd" d="M41.0606 26.6258L41.4942 26.5587C41.5126 26.6421 41.5499 26.7053 41.6062 26.7487C41.6625 26.7921 41.7412 26.8135 41.8425 26.8135C41.9542 26.8135 42.0382 26.7929 42.0944 26.7517C42.1323 26.7227 42.1513 26.6842 42.1513 26.6355C42.1513 26.6026 42.1409 26.5751 42.1203 26.5536C42.0985 26.5329 42.0502 26.5139 41.9749 26.4963C41.6246 26.4188 41.4025 26.3483 41.3089 26.2846C41.179 26.1963 41.1142 26.0733 41.1142 25.9163C41.1142 25.7744 41.1702 25.6551 41.2824 25.5587C41.3949 25.4621 41.569 25.4137 41.8048 25.4137C42.0294 25.4137 42.1962 25.4499 42.3055 25.5222C42.4147 25.5946 42.4899 25.7015 42.5312 25.8431L42.1244 25.9191C42.1068 25.8556 42.0733 25.8068 42.0241 25.7731C41.9748 25.7391 41.9046 25.7223 41.8134 25.7223C41.6984 25.7223 41.6159 25.7381 41.5662 25.7703C41.5329 25.793 41.5165 25.8223 41.5165 25.8584C41.5165 25.8894 41.5308 25.9158 41.5597 25.9375C41.5987 25.9663 41.7339 26.0071 41.9649 26.0597C42.1959 26.1124 42.3573 26.1768 42.449 26.2531C42.5394 26.3304 42.5849 26.4381 42.5849 26.5763C42.5849 26.7267 42.5222 26.8561 42.3973 26.9643C42.2722 27.0726 42.0874 27.1267 41.8425 27.1267C41.6203 27.1267 41.4444 27.0816 41.3148 26.9919C41.1852 26.9019 41.1005 26.7801 41.0606 26.6258Z" fill="#0B4A8E"/>
<path fill-rule="evenodd" clip-rule="evenodd" d="M45.2236 26.1964L44.9087 25.36L44.6043 26.1964H45.2236ZM46.0598 27.0863H45.5688L45.374 26.5765H44.4659L44.2803 27.0863H43.7978L44.6705 24.8322H45.15L46.0598 27.0863Z" fill="#0B4A8E"/>
<path fill-rule="evenodd" clip-rule="evenodd" d="M46.8042 27.0863H46.3706V25.4539H46.7729V25.6861C46.8417 25.5764 46.9033 25.5037 46.9584 25.4677C47.0132 25.4317 47.0754 25.4137 47.1453 25.4137C47.2438 25.4137 47.3386 25.441 47.43 25.4956L47.2981 25.8735C47.225 25.8265 47.1571 25.8028 47.0944 25.8028C47.0335 25.8028 46.9821 25.8196 46.9399 25.8528C46.8977 25.8863 46.8645 25.9465 46.8405 26.0337C46.8162 26.1208 46.8042 26.3036 46.8042 26.5815V27.0863Z" fill="#0B4A8E"/>
<path fill-rule="evenodd" clip-rule="evenodd" d="M48.6821 26.1337C48.6789 26.0066 48.6465 25.9102 48.5847 25.8439C48.5227 25.7778 48.4475 25.7446 48.3589 25.7446C48.264 25.7446 48.1857 25.7797 48.1239 25.8494C48.062 25.9191 48.0315 26.0139 48.0326 26.1337H48.6821ZM48.6598 26.5721L49.0889 26.6437C49.0334 26.801 48.9457 26.9209 48.826 27.0032C48.7063 27.0856 48.5563 27.1267 48.3765 27.1267C48.0917 27.1267 47.8809 27.0335 47.7443 26.8473C47.6363 26.6982 47.5823 26.51 47.5823 26.2824C47.5823 26.0111 47.6533 25.7983 47.7952 25.6444C47.9368 25.4906 48.1162 25.4137 48.3329 25.4137C48.5764 25.4137 48.7685 25.4944 48.9094 25.6557C49.05 25.8173 49.1174 26.0645 49.1112 26.3976H48.0249C48.0281 26.5262 48.0633 26.6261 48.1303 26.6976C48.1977 26.7689 48.2815 26.8047 48.3818 26.8047C48.4502 26.8047 48.5076 26.7864 48.5542 26.7496C48.6007 26.7129 48.6359 26.6537 48.6598 26.5721Z" fill="#0B4A8E"/>
<path fill-rule="evenodd" clip-rule="evenodd" d="M50.4551 26.3038C50.3999 26.3224 50.3124 26.3444 50.1928 26.3702C50.0732 26.3958 49.9951 26.4211 49.9583 26.4457C49.902 26.4859 49.8741 26.5369 49.8741 26.5986C49.8741 26.6594 49.8964 26.7118 49.9415 26.7562C49.9864 26.8004 50.0436 26.8226 50.1133 26.8226C50.1909 26.8226 50.2649 26.7968 50.3356 26.7454C50.3876 26.7062 50.422 26.6584 50.4383 26.6017C50.4494 26.5647 50.4551 26.4941 50.4551 26.3901V26.3038ZM49.8741 25.9504L49.4852 25.8788C49.5292 25.7207 49.605 25.6038 49.7126 25.5278C49.8203 25.4518 49.9802 25.4137 50.1924 25.4137C50.3851 25.4137 50.5287 25.4366 50.6229 25.4821C50.7172 25.528 50.7837 25.586 50.8221 25.6563C50.8605 25.7266 50.8799 25.8558 50.8799 26.0437L50.8754 26.5489C50.8754 26.6926 50.8823 26.7988 50.896 26.8669C50.9099 26.9352 50.9358 27.0083 50.9735 27.0863H50.5446C50.5331 27.0581 50.5195 27.0162 50.5029 26.9607C50.4959 26.9353 50.4906 26.9187 50.4878 26.9106C50.414 26.9826 50.3353 27.0367 50.2513 27.0727C50.1673 27.1087 50.0778 27.1267 49.9825 27.1267C49.8146 27.1267 49.6821 27.0809 49.5854 26.9896C49.4889 26.8981 49.4405 26.7825 49.4405 26.6428C49.4405 26.5505 49.4624 26.4681 49.5065 26.3956C49.5505 26.3232 49.6123 26.2677 49.6917 26.2292C49.7712 26.1908 49.8858 26.1569 50.0355 26.1281C50.2373 26.0902 50.3772 26.0549 50.4551 26.022V25.9783C50.4551 25.8941 50.4346 25.8342 50.3934 25.7983C50.3522 25.7625 50.2743 25.7446 50.1599 25.7446C50.0827 25.7446 50.0224 25.7599 49.9791 25.7902C49.9359 25.8207 49.9007 25.8741 49.8741 25.9504Z" fill="#0B4A8E"/>
<path fill-rule="evenodd" clip-rule="evenodd" d="M17.3991 15.9749H14.4469C14.4469 15.4902 14.39 15.1649 14.2767 14.9993C14.101 14.7543 13.6161 14.6316 12.8225 14.6316C12.0518 14.6316 11.5408 14.7022 11.2915 14.8434C11.0423 14.9851 10.9176 15.2933 10.9176 15.7677C10.9176 16.1972 11.028 16.48 11.2494 16.6155C11.4081 16.7117 11.6176 16.7683 11.879 16.7851L12.4743 16.8272C13.7503 16.9119 14.5472 16.9716 14.8651 17.0055C15.8741 17.1073 16.6056 17.3758 17.0595 17.8109C17.4167 18.1504 17.6297 18.594 17.6977 19.1419C17.7374 19.4696 17.7572 19.8405 17.7572 20.2525C17.7572 21.2022 17.6666 21.8978 17.4852 22.3386C17.1565 23.1474 16.4181 23.6582 15.2692 23.8727C14.7878 23.9634 14.0514 24.0088 13.061 24.0088C11.4076 24.0088 10.2554 23.9103 9.60482 23.7124C8.80633 23.47 8.27992 22.9788 8.02516 22.2391C7.88325 21.8274 7.81302 21.1417 7.81302 20.1818H10.7652C10.7652 20.2888 10.7655 20.3707 10.7655 20.4271C10.7655 20.9393 10.9127 21.2688 11.2064 21.4155C11.4099 21.5167 11.6557 21.5698 11.9446 21.5761H13.0299C13.5838 21.5761 13.9373 21.5477 14.0897 21.4908C14.3611 21.384 14.5392 21.2121 14.6243 20.9742C14.6695 20.8278 14.692 20.6383 14.692 20.4065C14.692 19.8871 14.5024 19.5711 14.1241 19.4578C13.9826 19.413 13.3243 19.3506 12.1493 19.2714C11.2058 19.204 10.5504 19.1392 10.1833 19.0763C9.21673 18.8954 8.57259 18.5235 8.25117 17.9587C7.96865 17.4788 7.82732 16.7528 7.82732 15.7816C7.82732 15.042 7.90371 14.4489 8.05634 14.0028C8.20911 13.5565 8.4553 13.2178 8.79503 12.986C9.29269 12.6304 9.92953 12.4216 10.7047 12.3592C11.3497 12.3029 12.0652 12.2742 12.8523 12.2742C14.0913 12.2742 14.9743 12.3454 15.5008 12.4867C16.7855 12.832 17.4277 13.7994 17.4277 15.389C17.4277 15.5194 17.4182 15.7143 17.3991 15.9749Z" fill="#0B4A8E"/>
<path fill-rule="evenodd" clip-rule="evenodd" d="M33.5548 18.2264H35.5331C36.1604 18.2038 36.5419 18.1555 36.6792 18.08C36.8667 17.9768 36.9926 17.7703 37.0553 17.4604C37.0953 17.2542 37.1153 16.9476 37.1153 16.5403C37.1153 16.0414 37.0756 15.6716 36.9956 15.43C36.8815 15.0916 36.6081 14.8855 36.1751 14.8107C36.0896 14.7994 35.8846 14.7934 35.5599 14.7934H33.5548V18.2264ZM30.3814 24.0088V12.2118H36.2937C37.1046 12.2118 37.7234 12.2781 38.1486 12.4104C39.121 12.7153 39.7734 13.3394 40.1076 14.2827C40.2801 14.7778 40.3664 15.5231 40.3664 16.5184C40.3664 17.715 40.2707 18.575 40.0814 19.0985C39.7022 20.1339 38.9216 20.7303 37.7429 20.8848C37.6043 20.908 37.0145 20.9288 35.9736 20.9454L35.4467 20.963H33.5548V24.0088H30.3814Z" fill="#0B4A8E"/>
<path fill-rule="evenodd" clip-rule="evenodd" d="M46.5101 19.6717L45.0232 14.5579L43.5803 19.6717H46.5101ZM47.1403 21.9699H42.8974L42.3274 24.0088H39.0442L42.5869 12.2118H47.3738L50.96 24.0088H47.7457L47.1403 21.9699Z" fill="#0B4A8E"/>
<path fill-rule="evenodd" clip-rule="evenodd" d="M26.0015 13.8716C27.3104 13.8716 28.4785 14.4748 29.2464 15.4197L29.9304 13.9523C28.8606 12.9406 27.4045 12.3169 25.7985 12.3169C23.2981 12.3169 21.1591 13.8278 20.2812 15.9666H18.9473L18.1597 17.656H19.8757C19.8628 17.8127 19.8545 17.9695 19.8545 18.1295C19.8545 18.3232 19.8645 18.5145 19.8837 18.7036H19.0213L18.2338 20.3935H20.3221C21.225 22.4782 23.3373 23.9418 25.7985 23.9418C27.0389 23.9418 28.1898 23.5699 29.1428 22.9348V20.8637C28.3754 21.7379 27.2529 22.2903 26.0015 22.2903C24.5387 22.2903 23.252 21.5356 22.5027 20.3935H26.8758L27.6633 18.7036H21.8593C21.8294 18.5002 21.8134 18.2924 21.8134 18.0807C21.8134 17.9376 21.8208 17.7959 21.8346 17.656H28.1513L28.9388 15.9666H22.3809C23.1061 14.7143 24.4557 13.8716 26.0015 13.8716Z" fill="#F6BC25"/>
</svg>
