<svg width="58" height="40" fill="none" xmlns="http://www.w3.org/2000/svg"><rect x=".5" y=".5" width="57" height="39" rx="3.5" fill="#fff" stroke="#F3F3F3"/><path fill-rule="evenodd" clip-rule="evenodd" d="m7.824 26.348.443-.044c.027.149.08.259.162.329s.192.105.33.105c.146 0 .257-.032.331-.094a.278.278 0 0 0 .111-.218.207.207 0 0 0-.046-.136.375.375 0 0 0-.164-.098 5.849 5.849 0 0 0-.363-.098c-.243-.06-.414-.134-.512-.222a.585.585 0 0 1-.109-.774.61.61 0 0 1 .281-.228 1.13 1.13 0 0 1 .443-.078c.283 0 .496.062.639.186.143.125.218.29.225.498l-.456.018c-.02-.116-.061-.2-.126-.25-.063-.05-.16-.076-.287-.076a.519.519 0 0 0-.31.081.164.164 0 0 0-.073.14c0 .053.023.099.068.137.057.048.196.098.417.15.221.052.385.106.49.163a.634.634 0 0 1 .25.229c.06.097.09.217.09.36a.667.667 0 0 1-.413.616 1.273 1.273 0 0 1-.49.083c-.285 0-.504-.067-.657-.2-.153-.132-.244-.325-.274-.579m2.306-.894h.433v1.632h-.433v-1.632Zm0-.622h.433v.398h-.433v-.398Zm2.457 2.254h-.434v-.835a1.3 1.3 0 0 0-.027-.342.24.24 0 0 0-.09-.121.255.255 0 0 0-.149-.043.343.343 0 0 0-.2.061.31.31 0 0 0-.122.164 1.416 1.416 0 0 0-.033.375v.741h-.434v-1.632h.403v.24a.65.65 0 0 1 .538-.28c.095 0 .182.017.26.051a.437.437 0 0 1 .18.132c.04.053.068.114.084.182.016.067.024.165.024.29v1.017m.877-.851c0 .174.033.3.1.381a.306.306 0 0 0 .246.122.339.339 0 0 0 .265-.125c.072-.082.109-.205.109-.367 0-.17-.035-.296-.104-.378a.328.328 0 0 0-.262-.123.315.315 0 0 0-.254.12c-.067.082-.1.205-.1.37Zm-.389.959.492.053c.008.061.027.103.057.126.04.032.106.049.194.049a.507.507 0 0 0 .255-.05.21.21 0 0 0 .086-.11.658.658 0 0 0 .02-.199l.001-.238a.581.581 0 0 1-.486.261.601.601 0 0 1-.522-.278.949.949 0 0 1-.15-.549c0-.274.065-.483.197-.628a.638.638 0 0 1 .491-.217.6.6 0 0 1 .5.266v-.226h.403v1.467c0 .193-.016.338-.048.433a.534.534 0 0 1-.134.225.593.593 0 0 1-.23.128 1.21 1.21 0 0 1-.364.046c-.277 0-.474-.048-.59-.143a.45.45 0 0 1-.174-.364l.002-.052Zm2.057-2.362h.434v2.254h-.434v-2.254Zm1.943 1.302c-.003-.127-.035-.224-.097-.29a.297.297 0 0 0-.226-.1.3.3 0 0 0-.235.105.407.407 0 0 0-.091.285h.65Zm-.022.438.429.072a.705.705 0 0 1-.263.36.775.775 0 0 1-.45.123c-.284 0-.495-.093-.631-.28a.938.938 0 0 1-.163-.565c0-.27.071-.484.213-.638a.7.7 0 0 1 .538-.23c.244 0 .436.08.576.242.141.161.208.409.202.742h-1.086a.437.437 0 0 0 .105.3.332.332 0 0 0 .252.107.269.269 0 0 0 .172-.055.34.34 0 0 0 .106-.178Zm1.87.514v-2.254h1.668v.38h-1.212v.501h1.127v.38h-1.127v.613h1.256v.38h-1.712m3.262 0v-.244a.644.644 0 0 1-.235.208.65.65 0 0 1-.603.004.429.429 0 0 1-.19-.203.908.908 0 0 1-.058-.362v-1.035h.433v.75c0 .23.008.371.024.423a.23.23 0 0 0 .087.123c.042.03.095.046.16.046a.338.338 0 0 0 .318-.212c.022-.06.033-.207.033-.44v-.69h.433v1.632h-.402m1.355 0h-.434v-1.632h.403v.232a.722.722 0 0 1 .185-.218.333.333 0 0 1 .187-.054c.099 0 .194.027.285.082l-.132.378a.383.383 0 0 0-.204-.071.242.242 0 0 0-.154.05c-.042.033-.075.093-.1.18-.024.088-.036.27-.036.548v.505m1.243-.816c0 .163.039.287.116.374.077.086.172.13.285.13a.365.365 0 0 0 .284-.13c.077-.087.115-.212.115-.377 0-.16-.038-.284-.115-.37a.365.365 0 0 0-.284-.13.367.367 0 0 0-.285.13c-.077.086-.116.21-.116.373Zm-.442-.023c0-.144.035-.283.106-.418a.73.73 0 0 1 .3-.309.89.89 0 0 1 .435-.106c.247 0 .45.08.607.241a.836.836 0 0 1 .237.61c0 .248-.08.454-.24.617a.807.807 0 0 1-.601.245.947.947 0 0 1-.428-.102.696.696 0 0 1-.31-.299.997.997 0 0 1-.106-.48Zm3.553-1.035v.645h.248c.179 0 .298-.012.359-.036a.299.299 0 0 0 .193-.288.295.295 0 0 0-.072-.205.312.312 0 0 0-.183-.1 2.161 2.161 0 0 0-.326-.016h-.22Zm-.456 1.874v-2.254h.73c.276 0 .457.012.54.034a.59.59 0 0 1 .325.22.7.7 0 0 1 .13.44.737.737 0 0 1-.075.35.616.616 0 0 1-.191.221.654.654 0 0 1-.236.107 2.582 2.582 0 0 1-.47.033h-.297v.85h-.456Zm3.087-.782a2.9 2.9 0 0 1-.262.066.783.783 0 0 0-.235.076.181.181 0 0 0-.084.153c0 .06.023.113.068.157a.235.235 0 0 0 .171.067.372.372 0 0 0 .223-.078.272.272 0 0 0 .103-.143.871.871 0 0 0 .016-.212v-.086Zm-.58-.354-.39-.071a.612.612 0 0 1 .228-.351c.107-.076.267-.114.48-.114.192 0 .336.023.43.068a.43.43 0 0 1 .2.174c.038.07.057.2.057.388l-.004.505c0 .144.006.25.02.318s.04.141.078.22h-.43a1.522 1.522 0 0 1-.056-.176.78.78 0 0 1-.237.162.673.673 0 0 1-.268.054.555.555 0 0 1-.397-.137.457.457 0 0 1-.145-.347c0-.093.022-.175.066-.247a.434.434 0 0 1 .185-.167c.08-.038.194-.072.344-.1a2.47 2.47 0 0 0 .42-.107v-.044c0-.084-.021-.144-.063-.18-.04-.035-.119-.053-.233-.053a.311.311 0 0 0-.18.045.316.316 0 0 0-.106.16Zm1.316-.496h.46l.392 1.159.382-1.16h.447l-.68 1.859a1.175 1.175 0 0 1-.108.219.473.473 0 0 1-.284.195.846.846 0 0 1-.22.027 1.18 1.18 0 0 1-.246-.026l-.04-.339a.92.92 0 0 0 .184.02c.101 0 .176-.03.224-.09a.623.623 0 0 0 .111-.227l-.622-1.637m2.019 0h.398v.223c.143-.176.313-.263.51-.263.105 0 .196.021.273.064.077.043.14.109.19.196a.76.76 0 0 1 .232-.196.57.57 0 0 1 .267-.064.59.59 0 0 1 .304.073c.083.049.146.12.187.215.03.07.044.182.044.339v1.045h-.433v-.935c0-.162-.015-.267-.045-.314-.04-.062-.101-.092-.184-.092a.294.294 0 0 0-.17.055.308.308 0 0 0-.116.163 1.169 1.169 0 0 0-.035.338v.785h-.434v-.896c0-.16-.007-.262-.023-.308a.196.196 0 0 0-.071-.104.226.226 0 0 0-.132-.033.297.297 0 0 0-.294.21c-.023.067-.034.18-.034.336v.795h-.434v-1.632m3.899.68c-.003-.127-.036-.224-.098-.29a.298.298 0 0 0-.226-.1.3.3 0 0 0-.234.105.407.407 0 0 0-.092.285h.65Zm-.023.438.43.072a.705.705 0 0 1-.263.36.775.775 0 0 1-.45.123c-.285 0-.495-.093-.632-.28a.938.938 0 0 1-.162-.565c0-.27.071-.484.213-.638a.7.7 0 0 1 .538-.23c.243 0 .435.08.576.242.14.161.208.409.202.742h-1.086a.437.437 0 0 0 .105.3c.067.07.151.107.252.107a.269.269 0 0 0 .172-.055.337.337 0 0 0 .105-.178Zm2.381.514h-.433v-.835c0-.176-.01-.29-.028-.342a.242.242 0 0 0-.09-.121.256.256 0 0 0-.148-.043.343.343 0 0 0-.2.061.31.31 0 0 0-.123.164 1.42 1.42 0 0 0-.033.375v.741h-.433v-1.632h.402v.24a.65.65 0 0 1 .538-.28c.095 0 .182.017.261.051a.438.438 0 0 1 .18.132c.04.053.068.114.084.182.015.067.023.165.023.29v1.017m1.28-1.632v.344h-.295v.66c0 .134.002.212.008.235a.09.09 0 0 0 .038.054c.02.015.043.022.071.022.04 0 .096-.014.17-.042l.039.335a.85.85 0 0 1-.34.065.535.535 0 0 1-.21-.04.307.307 0 0 1-.136-.101.403.403 0 0 1-.06-.169 2.102 2.102 0 0 1-.014-.305v-.714h-.197v-.344h.197v-.326l.434-.255v.58h.295m.243 1.173.434-.067a.315.315 0 0 0 .112.19.379.379 0 0 0 .236.065.425.425 0 0 0 .252-.062.139.139 0 0 0 .057-.116c0-.033-.01-.06-.03-.082a.347.347 0 0 0-.146-.058c-.35-.077-.572-.148-.666-.211a.421.421 0 0 1-.195-.369c0-.142.056-.26.168-.357.113-.097.287-.145.523-.145.224 0 .391.036.5.108.11.073.185.18.226.321l-.407.076a.252.252 0 0 0-.1-.146.369.369 0 0 0-.21-.05.474.474 0 0 0-.248.047.102.102 0 0 0-.05.088c0 .031.015.058.044.08.039.028.174.07.405.122.23.052.392.117.484.193.09.077.136.185.136.323 0 .15-.063.28-.188.388-.125.109-.31.163-.554.163-.223 0-.399-.045-.528-.135a.62.62 0 0 1-.254-.366m4.163-.43-.315-.836-.305.836h.62Zm.836.89h-.491l-.195-.51h-.908l-.186.51h-.482l.872-2.254h.48l.91 2.254Zm.744 0h-.433v-1.632h.402v.232a.72.72 0 0 1 .185-.218.333.333 0 0 1 .187-.054c.099 0 .194.027.285.082l-.132.378a.383.383 0 0 0-.204-.071.242.242 0 0 0-.154.05c-.042.033-.075.093-.1.18-.024.088-.036.27-.036.548v.505m1.878-.952c-.003-.127-.035-.224-.097-.29a.298.298 0 0 0-.226-.1.3.3 0 0 0-.235.105.407.407 0 0 0-.091.285h.65Zm-.022.438.429.072a.705.705 0 0 1-.263.36.775.775 0 0 1-.45.123c-.284 0-.495-.093-.632-.28a.938.938 0 0 1-.162-.565c0-.27.071-.484.213-.638a.7.7 0 0 1 .538-.23c.243 0 .436.08.576.242.141.161.208.409.202.742h-1.086a.438.438 0 0 0 .105.3.332.332 0 0 0 .252.107.27.27 0 0 0 .172-.055.34.34 0 0 0 .106-.178Zm1.795-.268a2.68 2.68 0 0 1-.262.066.785.785 0 0 0-.235.076.181.181 0 0 0-.084.153c0 .06.022.113.067.157a.235.235 0 0 0 .172.067.372.372 0 0 0 .223-.078.272.272 0 0 0 .102-.143.871.871 0 0 0 .017-.212v-.086Zm-.58-.354-.39-.071a.611.611 0 0 1 .228-.351c.107-.076.267-.114.48-.114.192 0 .336.023.43.068.094.046.16.104.2.174.038.07.057.2.057.388l-.005.505c0 .144.007.25.021.318a.94.94 0 0 0 .078.22h-.43a1.515 1.515 0 0 1-.056-.176.779.779 0 0 1-.237.162.675.675 0 0 1-.268.054.555.555 0 0 1-.398-.137.458.458 0 0 1-.145-.347c0-.093.022-.175.067-.247a.432.432 0 0 1 .185-.167c.08-.038.194-.072.343-.1.202-.039.342-.074.42-.107v-.044c0-.084-.02-.144-.062-.18-.04-.035-.119-.053-.233-.053a.312.312 0 0 0-.18.045.317.317 0 0 0-.106.16ZM17.4 15.975h-2.953c0-.485-.057-.81-.17-.976-.176-.245-.66-.367-1.454-.367-.771 0-1.282.07-1.532.211-.249.142-.373.45-.373.925 0 .43.11.712.331.848.16.096.369.152.63.17l.595.041a90.51 90.51 0 0 1 2.391.178c1.01.102 1.74.37 2.194.806.358.34.57.783.639 1.33.04.329.06.7.06 1.112 0 .95-.091 1.645-.273 2.086-.328.808-1.067 1.32-2.216 1.534-.481.09-1.218.136-2.208.136-1.653 0-2.806-.099-3.456-.297-.799-.242-1.325-.733-1.58-1.473-.142-.412-.212-1.097-.212-2.057h2.952v.245c0 .512.148.842.441.989.204.1.45.154.739.16h1.085c.554 0 .907-.028 1.06-.085.271-.107.45-.279.534-.517a1.97 1.97 0 0 0 .068-.567c0-.52-.19-.836-.568-.95-.141-.044-.8-.106-1.975-.186-.943-.067-1.599-.132-1.966-.195-.966-.18-1.61-.553-1.932-1.117-.282-.48-.424-1.206-.424-2.177 0-.74.077-1.333.23-1.78.152-.446.398-.784.738-1.016.498-.356 1.135-.564 1.91-.627.645-.056 1.36-.085 2.147-.085 1.24 0 2.122.071 2.649.213 1.284.345 1.927 1.312 1.927 2.902 0 .13-.01.325-.029.586m16.156 2.251h1.978c.627-.022 1.009-.07 1.146-.146.188-.103.314-.31.376-.62.04-.206.06-.512.06-.92 0-.499-.04-.868-.12-1.11-.113-.338-.387-.544-.82-.62a6.417 6.417 0 0 0-.615-.017h-2.005v3.433ZM30.38 24.01V12.212h5.913c.81 0 1.43.066 1.855.198.972.305 1.624.93 1.959 1.873.172.495.258 1.24.258 2.235 0 1.197-.095 2.057-.285 2.58-.379 1.036-1.16 1.632-2.338 1.787-.139.023-.729.044-1.77.06l-.526.018h-1.892v3.046H30.38Zm16.13-4.338-1.487-5.114-1.443 5.114h2.93Zm.63 2.298h-4.243l-.57 2.039h-3.283l3.543-11.797h4.787l3.586 11.797h-3.214l-.606-2.04Z" fill="#0B4A8E"/><path fill-rule="evenodd" clip-rule="evenodd" d="M26.002 13.872a4.17 4.17 0 0 1 3.244 1.548l.684-1.468a5.995 5.995 0 0 0-4.131-1.635c-2.5 0-4.64 1.51-5.518 3.65h-1.334l-.787 1.689h1.716a5.747 5.747 0 0 0 .008 1.048h-.863l-.787 1.69h2.088c.903 2.084 3.015 3.548 5.477 3.548 1.24 0 2.39-.372 3.344-1.007v-2.071A4.169 4.169 0 0 1 26 22.29a4.18 4.18 0 0 1-3.498-1.896h4.373l.787-1.69H21.86a4.279 4.279 0 0 1-.024-1.048h6.316l.788-1.69h-6.56A4.181 4.181 0 0 1 26 13.873" fill="#F6BC25"/></svg>