<svg width="58" height="40" fill="none" xmlns="http://www.w3.org/2000/svg"><rect x=".5" y=".5" width="57" height="39" rx="3.5" fill="#fff" stroke="#F3F3F3"/><path fill-rule="evenodd" clip-rule="evenodd" d="M48.65 12.721v14.515h3.993V12.011l-3.994.71m-5.829 0 3.991-.71v15.225h-3.99V12.721m-5.685 14.515V16.1h3.993v11.136h-3.993m.028-14.158c0-1.08.881-1.957 1.967-1.957 1.088 0 1.969.877 1.969 1.957s-.881 1.955-1.969 1.955a1.961 1.961 0 0 1-1.967-1.955m-2.28 2.859c-3.689.118-5.563 1.764-5.563 5.035v6.264h4.026v-5.11c0-1.957.258-2.796 2.596-2.876v-3.255c-.393-.083-1.059-.058-1.059-.058m-10.832.151c-.088.222-.726 2.017-2.273 3.877V12.01l-4.12.81v14.415h4.12V22.78c1.193 1.779 1.782 4.456 1.782 4.456h4.935c-.488-2.017-2.623-5.734-2.623-5.734 1.917-2.415 2.758-4.988 2.892-5.414h-4.713m-13.303 1.587c-.505-.032-1.674-.108-1.674-1.153 0-1.26 1.682-1.26 2.313-1.26 1.11 0 2.546.324 3.573.63 0 0 .572.2 1.058.405l.046.013v-3.454l-.061-.019c-1.212-.42-2.62-.825-5.23-.825-4.501 0-6.096 2.604-6.096 4.837 0 1.286.555 4.315 5.708 4.664.438.027 1.598.093 1.598 1.173 0 .892-.95 1.417-2.546 1.417-1.75 0-3.448-.442-4.479-.863v3.557c1.544.403 3.284.602 5.324.602 4.4 0 6.371-2.464 6.371-4.908 0-2.769-2.205-4.569-5.905-4.816" fill="#862165"/></svg>