<svg width="58" height="40" fill="none" xmlns="http://www.w3.org/2000/svg"><rect x=".5" y=".5" width="57" height="39" rx="3.5" fill="#fff" stroke="#F3F3F3"/><path fill-rule="evenodd" clip-rule="evenodd" d="M40.207 10.949c-.489.029-.88-.27-1.044-.691-.136-.357.033-.836.402-1.07.522-.33 1.23-.226 1.573.311.31.483.115 1.005-.33 1.289-.19.122-.392.186-.6.161ZM5.07 19.751a6.045 6.045 0 0 1-.069.123v.502a.291.291 0 0 1 .06.052c.038.058.073.117.108.177.079.132.157.264.258.377.328.367.75.609 1.2.802a5.511 5.511 0 0 0 1.813.43c.325.021.653 0 .98-.02l.13-.008a3.947 3.947 0 0 0 1.817-.567c.462-.271.843-.66 1.104-1.13.407-.738.543-1.533.48-2.375a4.526 4.526 0 0 0-.24-1.216 3.255 3.255 0 0 0-1.084-1.476c-.642-.503-1.389-.815-2.14-1.12l-.183-.075c-.497-.2-.993-.399-1.43-.723-.371-.274-.623-.622-.664-1.077-.068-.76.26-1.342 1.033-1.613.312-.11.633-.143.96-.175.346-.034.676.013 1.01.065.456.07.866.274 1.27.484.373.194.653.157.895-.157.217-.282.346-.6.226-.963-.089-.272-.307-.434-.55-.556-.712-.357-1.485-.454-2.262-.498-.351-.02-.707.013-1.061.045l-.191.017a4.066 4.066 0 0 0-1.667.517c-.631.358-1.093.865-1.347 1.567-.19.523-.204 1.056-.19 1.597.012.372.097.738.25 1.077.348.78.955 1.306 1.696 1.673.415.207.836.398 1.258.59.378.172.757.344 1.13.527.279.138.537.313.768.52.56.503.731 1.149.607 1.883-.112.67-.518 1.086-1.131 1.316-.504.187-1.024.2-1.555.138-.611-.07-1.128-.333-1.59-.726l-.152-.13a8.079 8.079 0 0 0-.467-.385c-.123-.091-.254-.162-.436-.115a.83.83 0 0 0-.477.35 2.696 2.696 0 0 0-.167.276Zm.056 5.002c.142-.404.46-.573.846-.653.252-.046.512-.037.76.026.587.128.853.59.868 1.1a29.95 29.95 0 0 1 0 2.176c-.031.668-.415 1.092-1.134 1.12a2.64 2.64 0 0 1-.682-.069c-.356-.081-.574-.324-.685-.673-.026-.056-.008-2.95.027-3.027Zm1.978 1.56s-.022-.786-.037-1.181c-.01-.282-.192-.468-.444-.549-.281-.09-.569-.089-.825.105s-.288.49-.29.772c-.004.358.004.717.012 1.076.007.27.013.54.014.81.002.67.67.854 1.128.665.319-.133.426-.41.44-.726.01-.219.007-.445.005-.67l-.003-.301Zm23.975-9.036v-.792h.44c.432 0 .856-.001 1.28.003a.189.189 0 0 1 .127.095c.181.345.358.691.534 1.038l.124.243.243.474a229.307 229.307 0 0 1 1.012 1.994c.194.384.387.769.582 1.152.06.123.129.24.21.35.154.201.371.327.62.31.366-.023.703-.206.922-.501.196-.26.261-.476.095-.773-.117-.21-.233-.42-.345-.63l-1.503-2.848-.61-1.153.03-.016c.017-.009.03-.016.043-.021a.517.517 0 0 1 .061-.02 3.073 3.073 0 0 0 1.744-1.208c.383-.534.551-1.15.594-1.792.046-.683.019-1.365-.224-2.023-.223-.601-.59-1.092-1.122-1.44-.654-.426-1.396-.621-2.163-.639a99.194 99.194 0 0 0-2.787-.011c-.401.002-.802.004-1.203.004-.186 0-.357.07-.436.241-.078.16-.122.333-.13.51a11247.322 11247.322 0 0 0-.005 11.555c.036.298.087.477.458.619.266.106.559.123.835.05.308-.086.59-.25.582-.696-.016-.976-.013-1.952-.01-2.928v-.001l.002-1.146Zm.011-2.301v-4.227h.626c.518.001 1.034.002 1.549-.002a2.83 2.83 0 0 1 1.103.193c.505.203.81.58.946 1.09.162.605.162 1.213-.06 1.81-.192.52-.562.84-1.084 1.003-.367.114-.74.133-1.12.133h-1.96Zm-14.135 2.079v.198l-.001 1.131a238.1 238.1 0 0 0 .006 2.928c.004.429-.182.613-.532.717-.336.11-.702.081-1.017-.08a.544.544 0 0 1-.328-.525c.004-3.907.005-7.815.002-11.723 0-.367.258-.629.627-.629.38 0 .761 0 1.143-.002.96-.002 1.92-.005 2.88.01.488.007.963.133 1.422.322.353.145.676.354.954.617.299.283.533.628.687 1.01.228.56.318 1.142.341 1.746.027.686-.02 1.359-.243 2.008-.372 1.086-1.13 1.76-2.224 2.076a5.7 5.7 0 0 1-1.657.198c-.475-.006-.95-.004-1.434-.003h-.626Zm.006-1.51h2.479c.115-.002.23-.016.34-.044.704-.167 1.162-.607 1.358-1.297a3.968 3.968 0 0 0 .045-1.95c-.214-.98-.922-1.511-1.923-1.505-.471.003-.942.002-1.413.001h-.889l.002 4.795Zm28.777-4.763h-.445c-.212 0-.425-.001-.637-.003-.505-.004-1.01-.008-1.515.01-.45.017-.64-.229-.73-.558a1.096 1.096 0 0 1 .145-.94.45.45 0 0 1 .411-.22h7.358c.326 0 .561.205.626.53.055.259.033.527-.063.773-.1.254-.29.407-.553.407H47.64v2.879c-.001 2.516-.002 5.033.005 7.549 0 .644-.343.808-.82.871a1.164 1.164 0 0 1-.832-.18.552.552 0 0 1-.261-.495V11.01l.005-.228Zm-19 10.514V17.56c0-1.291 0-2.582.002-3.873 0-.175-.08-.29-.216-.395-.302-.233-.656-.237-.992-.18-.463.078-.66.292-.66.675-.005 2.525-.005 5.05 0 7.576 0 .213.075.4.274.528.313.208.706.256 1.06.13.386-.124.532-.325.532-.724Zm14.423-2.665c-.004.846-.007 1.693.01 2.539.011.613-.293.818-.792.907-.383.067-.75-.04-1.008-.367a.365.365 0 0 1-.075-.21c-.003-2.615-.002-5.23.005-7.846a.473.473 0 0 1 .182-.343c.169-.106.357-.175.553-.204.246-.039.497-.008.725.089.286.121.401.339.402.633.002 1.25.002 2.501 0 3.753 0 .35 0 .7-.002 1.049Zm-22.503 7.631v-1.91c0-.21.072-.285.288-.286.113 0 .226-.002.34-.004.248-.004.497-.008.744.008.57.036.984.218 1.176.83.034.11.052.223.053.338.004.698.009 1.397 0 2.097-.005.305-.094.594-.314.821-.21.212-.495.332-.792.334-.289.012-.577.009-.866.007l-.369-.003c-.198 0-.26-.063-.26-.27v-1.962Zm.538 1.795.155.001c.095.001.185.002.276 0 .064-.003.13-.01.196-.016.076-.007.154-.014.23-.015.472-.007.697-.363.704-.761.012-.64.007-1.28.001-1.92v-.056c0-.335-.21-.665-.496-.709a6.076 6.076 0 0 0-.744-.05 11.681 11.681 0 0 1-.324-.01l.002 3.536Zm11.883-2.197v1.475c0 .711-.475 1.194-1.192 1.192-.246 0-.486 0-.73-.09-.358-.128-.673-.532-.678-.922a216.49 216.49 0 0 1-.03-2.458l-.006-.736c0-.163.086-.248.25-.256a.251.251 0 0 1 .282.255c.003.186.002.372 0 .558v2.478a.696.696 0 0 0 .626.709c.309.036.568-.017.79-.24.145-.146.18-.335.182-.527v-.2c.005-.91.01-1.822-.005-2.735-.003-.247.176-.346.388-.267.108.04.121.109.12.205l.003 1.56Zm-13.71 1.627h-.31c-.393 0-.784-.001-1.176.005a.182.182 0 0 0-.126.108c-.048.144-.091.29-.135.435a17.07 17.07 0 0 1-.104.342c-.036.112-.18.157-.321.108-.129-.043-.206-.168-.17-.279l.174-.552v-.002h.001v-.002a170.324 170.324 0 0 0 .784-2.518l.267-.87c.048-.155.174-.237.346-.23.157.006.273.082.32.235.103.335.203.67.304 1.007l.206.686.12.398c.184.61.368 1.22.558 1.827.044.14-.013.24-.174.3-.16.06-.265.006-.31-.14a55.993 55.993 0 0 1-.253-.858Zm-.774-2.644-.03.003-.656 2.198h1.332l-.646-2.2Zm8.946 2.907.077-.263c.132 0 .264 0 .396.002.33.002.658.004.986-.007.178-.007.238.065.273.218.05.216.112.43.175.643.042.141.174.194.338.145a.225.225 0 0 0 .157-.304l-.166-.545v-.001l-.001-.001v-.003l-.001-.001c-.09-.294-.178-.587-.269-.88l-.222-.72-.001-.005c-.182-.587-.363-1.174-.538-1.764-.055-.184-.185-.22-.33-.227-.147-.008-.268.043-.32.216-.085.293-.176.584-.267.875l-.14.447-.8 2.613c-.052.166-.014.238.157.296.156.053.279 0 .324-.148.059-.194.115-.388.172-.586Zm.887-2.903.648 2.196h-1.332l.654-2.196h.03Zm-3.823 1.231v-1.544h1.79c.16 0 .234-.06.24-.222.005-.162-.072-.247-.238-.247-.69-.002-1.38-.002-2.07 0-.16 0-.23.076-.23.233l-.001 1.814c0 .726 0 1.452-.002 2.177 0 .15.066.202.195.202h2.153c.15 0 .199-.093.193-.224-.006-.132-.049-.213-.202-.213H22.61V26.51l.278.002c.181.001.358.003.535-.002.118-.002.252-.008.275-.17.025-.186-.044-.262-.236-.262h-.858Zm-10.492.232v-1.023c0-.634.403-1.126 1.04-1.195.455-.049.86.018 1.226.306.202.157.389.629.31.859-.056.16-.168.154-.285.149l-.018-.001a.19.19 0 0 1-.2-.197c-.009-.286-.123-.503-.393-.604-.327-.122-.654-.118-.939.114-.178.143-.234.357-.236.573v.073c-.008.658-.016 1.315.003 1.972.01.367.177.694.641.719.144.015.29.012.434-.009.274-.052.474-.314.489-.598.01-.218.107-.293.337-.262.124.016.216.175.196.329-.094.72-.64.992-1.2 1.012-.274.01-.542.006-.8-.129-.403-.21-.578-.553-.6-.98a11.638 11.638 0 0 1-.008-.77l.003-.338Zm-3.165-.232v-1.543l1.724-.003c.21 0 .27-.054.27-.24 0-.174-.063-.23-.261-.23H8.76c-.281 0-.356.079-.356.367v3.738a.659.659 0 0 0 .006.133c.035.16.121.212.321.192.148-.015.209-.102.209-.245v-1.726a1.07 1.07 0 0 0 .035-.004.35.35 0 0 1 .044-.004l.256.002c.17 0 .34.002.511-.002.187-.003.26-.081.256-.244-.005-.179-.123-.19-.26-.19h-.835ZM24.842 10.43c.194.342.564.545.956.524 0 0 .393-.051.562-.138a.925.925 0 0 0 .488-1.08c-.163-.596-.948-.904-1.554-.613-.554.265-.698.904-.452 1.307Z" fill="#514D57"/><path fill-rule="evenodd" clip-rule="evenodd" d="M41.677 30.708a204.08 204.08 0 0 1-.675-1.946L54 23c-.22.036-13.316 2.61-13.988 2.745l-.293-.91-.36-1.117c-.143-.44-.883-2.52-.925-2.565-.024.03-.52 1.443-.74 2.12-.249.77-.967 2.47-.967 2.47l-4.597.055a67.837 67.837 0 0 0 2.19 1.691c.539.406 1.078.811 1.61 1.228l-1.932 3.815.57-.25a310.82 310.82 0 0 1 3.873-1.685s.536.431.76.636a902.9 902.9 0 0 1 2.331 2.144c.463.428 1.497 1.32 1.582 1.344-.044-.133-.989-2.772-1.437-4.013ZM40.4 27.876 39 28l.854 1.186-1.119-.837-.19 1.389s-.15-1.386-.171-1.464l-1.122.963s.794-1.06.913-1.202l-1.483-.15 1.477-.17-.954-1.131 1.162.882c.02-.121.207-1.453.207-1.453l.266 1.387 1.022-.835-.827 1.1 1.365.21Z" fill="#1D5FA9"/></svg>