<svg width="58" height="40" viewBox="0 0 58 40" fill="none" xmlns="http://www.w3.org/2000/svg">
<rect x="0.5" y="0.5" width="57" height="39" rx="3.5" fill="white" stroke="#F3F3F3"/>
<path fill-rule="evenodd" clip-rule="evenodd" d="M40.2071 10.949C39.7181 10.9778 39.3262 10.6785 39.1634 10.2576C39.0267 9.90116 39.1958 9.42204 39.5647 9.18825C40.0865 8.85853 40.7941 8.9618 41.138 9.4991C41.4475 9.98188 41.2528 10.5045 40.8077 10.7876C40.6177 10.9102 40.4158 10.9742 40.2071 10.949ZM5.06924 19.7507C5.04645 19.792 5.02366 19.8333 5 19.8739V20.3756C5.02248 20.3902 5.04285 20.4078 5.06053 20.428C5.09786 20.4858 5.13308 20.5452 5.16827 20.6046C5.24671 20.737 5.32494 20.869 5.42581 20.9816C5.75404 21.3495 6.17567 21.5907 6.62601 21.7841C7.20188 22.0295 7.81503 22.175 8.43935 22.2145C8.76378 22.2353 9.09227 22.2145 9.41874 22.1938H9.41875H9.41876H9.41877H9.41878H9.41879H9.4188H9.41881H9.41882H9.41883H9.41884H9.41885H9.41886H9.41887H9.41888L9.5498 22.1856C10.192 22.1476 10.8153 21.9529 11.3658 21.6185C11.8275 21.348 12.2087 20.9583 12.4699 20.4899C12.8775 19.7513 13.0126 18.9561 12.95 18.1142C12.9261 17.6997 12.8454 17.2904 12.71 16.8981C12.4969 16.3121 12.1207 15.7999 11.6261 15.4225C10.9843 14.9187 10.237 14.6068 9.48666 14.3018C9.42537 14.2768 9.36398 14.2521 9.30257 14.2274L9.30252 14.2274L9.30246 14.2273L9.3024 14.2273L9.30234 14.2273L9.30229 14.2273L9.30223 14.2272L9.30217 14.2272L9.30212 14.2272C8.80634 14.0277 8.31033 13.828 7.87213 13.5039C7.50163 13.2298 7.24959 12.8822 7.20889 12.4267C7.14105 11.6677 7.4698 11.0848 8.2421 10.8138C8.55363 10.7042 8.87456 10.6707 9.20226 10.6387C9.54771 10.6051 9.87803 10.6518 10.2115 10.7042C10.6676 10.7739 11.0777 10.9784 11.4821 11.1881C11.8552 11.382 12.1349 11.3453 12.3771 11.0308C12.5941 10.7493 12.723 10.4301 12.6035 10.0678C12.5143 9.79579 12.2956 9.63434 12.0525 9.5122C11.3412 9.1547 10.5679 9.05773 9.79088 9.01422C9.43975 8.99467 9.08411 9.02671 8.7297 9.05863L8.7297 9.05863C8.66591 9.06437 8.60217 9.07011 8.5385 9.07555C7.95247 9.12533 7.38408 9.30183 6.87231 9.59293C6.2409 9.95095 5.77856 10.4578 5.52548 11.1603C5.33553 11.6834 5.32144 12.2165 5.33553 12.757C5.34682 13.1291 5.43179 13.4953 5.58549 13.8342C5.9325 14.6137 6.53991 15.1405 7.2809 15.5074C7.6956 15.7135 8.11725 15.9053 8.5389 16.0971C8.91737 16.2693 9.29585 16.4414 9.6693 16.6239C9.94773 16.7615 10.2062 16.9366 10.4374 17.1445C10.9973 17.6466 11.168 18.293 11.0443 19.0268C10.9316 19.6962 10.5261 20.1135 9.91299 20.3426C9.40943 20.5302 8.88917 20.5423 8.35847 20.481C7.74689 20.4102 7.23028 20.1476 6.76795 19.7549C6.71726 19.7118 6.66685 19.6682 6.61644 19.6247L6.61642 19.6246L6.61639 19.6246L6.61635 19.6246L6.61633 19.6246L6.6163 19.6245L6.61629 19.6245C6.46331 19.4923 6.3102 19.3599 6.14854 19.2397C6.02591 19.149 5.89493 19.0782 5.71281 19.1254C5.51653 19.1792 5.34679 19.3037 5.23587 19.475C5.17342 19.5618 5.12134 19.6562 5.06924 19.7507ZM5.12524 24.7531C5.26717 24.3495 5.58549 24.1802 5.9706 24.1C6.22312 24.0539 6.48254 24.0626 6.73142 24.1257C7.31795 24.2541 7.58356 24.7159 7.59869 25.2265C7.62009 25.9514 7.63 26.6785 7.59869 27.4024C7.56791 28.0697 7.18436 28.4943 6.46477 28.5216C6.23544 28.5286 6.00618 28.5057 5.78274 28.4534C5.42738 28.3716 5.20873 28.1289 5.09758 27.7798C5.07197 27.7237 5.09042 24.8296 5.12524 24.7531ZM7.10348 26.3137C7.10348 26.3137 7.08104 25.5274 7.06643 25.1316C7.05599 24.8496 6.8744 24.664 6.62236 24.5833C6.34057 24.4931 6.05304 24.4942 5.79683 24.6881C5.54061 24.8821 5.5093 25.1777 5.50669 25.4597C5.50312 25.8184 5.51126 26.1772 5.5194 26.5359C5.52553 26.8062 5.53166 27.0765 5.53278 27.3468C5.53539 28.0157 6.20281 28.2002 6.66097 28.0105C6.97981 27.8784 7.08678 27.6006 7.10087 27.2845C7.1106 27.0661 7.10814 26.8401 7.10568 26.6149C7.10458 26.514 7.10348 26.4134 7.10348 26.3137ZM31.0782 17.2766V16.485C31.2258 16.485 31.3721 16.4849 31.5175 16.4847C31.9499 16.4842 32.3739 16.4837 32.7977 16.4876C32.8522 16.4989 32.899 16.5338 32.9255 16.5831C33.1062 16.9277 33.2827 17.2744 33.4593 17.6213L33.4593 17.6213L33.4593 17.6214L33.4593 17.6214L33.4594 17.6214L33.4594 17.6215L33.4594 17.6215L33.4594 17.6215L33.4594 17.6216L33.4594 17.6216L33.583 17.8642C33.6638 18.0222 33.7447 18.1803 33.8257 18.3384L33.8259 18.3389C34.0086 18.6955 34.1913 19.0522 34.372 19.4095C34.5277 19.7167 34.6828 20.0243 34.8378 20.3319C35.0316 20.7162 35.2253 21.1006 35.4204 21.4843C35.4792 21.607 35.549 21.724 35.6291 21.8339C35.7836 22.0352 36.0012 22.161 36.2501 22.1432C36.6156 22.1206 36.9527 21.9375 37.1716 21.6426C37.3678 21.3836 37.433 21.1671 37.2671 20.8699C37.1502 20.6602 37.0344 20.4506 36.9222 20.2409L35.4193 17.3919C35.2162 17.0075 35.0128 16.6231 34.8093 16.2387C34.8211 16.2326 34.8311 16.2274 34.8399 16.2227L34.8399 16.2227C34.8564 16.214 34.8689 16.2074 34.8818 16.202C34.902 16.1942 34.9225 16.1878 34.9434 16.1826C35.6487 16.0001 36.2666 15.5719 36.6868 14.9743C37.0699 14.4396 37.2384 13.8232 37.2812 13.1816C37.3266 12.4991 37.2995 11.8166 37.0568 11.1587C36.834 10.558 36.4671 10.0668 35.9349 9.71926C35.281 9.29309 34.539 9.09757 33.7719 9.08027C32.8437 9.05903 31.9143 9.06388 30.9848 9.06874L30.9848 9.06874C30.5839 9.07084 30.1829 9.07293 29.782 9.07293C29.5963 9.07345 29.4246 9.14317 29.3463 9.31406C29.2683 9.4732 29.2241 9.64688 29.2164 9.8241C29.2125 13.6479 29.2106 17.4717 29.2106 21.2956C29.2089 21.3235 29.2089 21.3515 29.2106 21.3794C29.2472 21.6766 29.2983 21.8564 29.6693 21.998C29.9351 22.1042 30.2279 22.1215 30.5042 22.0472C30.8116 21.9618 31.0934 21.7972 31.0861 21.3516C31.0703 20.3759 31.0732 19.4001 31.076 18.4242V18.4241V18.424V18.4239V18.4238V18.4237V18.4237V18.4236V18.4235V18.4234V18.4233V18.4232V18.4231V18.423V18.4229C31.0771 18.0409 31.0782 17.6587 31.0782 17.2766ZM31.0892 14.9759V10.7493V10.7488C31.2984 10.7488 31.507 10.7491 31.715 10.7495C32.2334 10.7503 32.7487 10.7512 33.2637 10.7467C33.6405 10.7369 34.0155 10.8024 34.3668 10.9396C34.8724 11.143 35.1772 11.5204 35.3134 12.0294C35.4746 12.6348 35.4746 13.2434 35.2534 13.8405C35.0613 14.3599 34.6908 14.6808 34.169 14.8433C33.8022 14.9575 33.4286 14.9759 33.0492 14.9759H31.0892ZM16.954 17.0548V17.253C16.954 17.63 16.9533 18.0071 16.9526 18.3841C16.9508 19.36 16.949 20.3359 16.9592 21.3118C16.9634 21.7406 16.7771 21.9246 16.4275 22.0289C16.0913 22.139 15.7254 22.1101 15.4104 21.9487C15.2017 21.8439 15.0812 21.6798 15.0817 21.4245C15.0858 17.5168 15.0867 13.6091 15.0843 9.70144C15.0843 9.3345 15.3415 9.07241 15.7105 9.07241C16.0915 9.07241 16.4725 9.07135 16.8535 9.07029C17.8138 9.06763 18.774 9.06496 19.7338 9.07922C20.2222 9.08656 20.697 9.21341 21.1557 9.40212C21.5089 9.54722 21.8324 9.75637 22.1101 10.0191C22.4089 10.3023 22.6432 10.647 22.7969 11.0297C23.0254 11.5891 23.1147 12.1709 23.1381 12.7748C23.1653 13.4615 23.1178 14.134 22.895 14.7835C22.5229 15.8686 21.7647 16.5437 20.671 16.8588C20.1313 17.0058 19.5731 17.0725 19.0142 17.0569C18.539 17.0514 18.0638 17.0526 17.58 17.0538C17.3732 17.0543 17.1647 17.0548 16.954 17.0548ZM16.9597 15.5451H17.1043H19.441C19.5559 15.5434 19.6702 15.5286 19.7818 15.5011C20.4847 15.3344 20.9433 14.8936 21.1385 14.2043C21.3158 13.5683 21.3316 12.8979 21.1844 12.2543C20.97 11.274 20.2618 10.743 19.261 10.7493C18.7899 10.7524 18.3189 10.7514 17.8479 10.7503C17.6124 10.7498 17.3768 10.7493 17.1413 10.7493H16.9582L16.9597 15.5451ZM45.7374 10.7823H45.2923C45.0799 10.7823 44.8674 10.7806 44.655 10.7789C44.1496 10.7749 43.6441 10.7708 43.1397 10.7897C42.6894 10.8064 42.5 10.5601 42.4092 10.2314C42.3123 9.91214 42.3661 9.56591 42.5553 9.29152C42.6409 9.14721 42.7989 9.06229 42.966 9.07083H50.3237C50.6504 9.07083 50.8852 9.27632 50.9499 9.60132C51.0049 9.85951 50.983 10.1283 50.8868 10.374C50.7866 10.6277 50.5961 10.7813 50.3341 10.7813H47.6405V10.9815C47.6405 11.8724 47.6401 12.7635 47.6397 13.6547V13.6551V13.6554V13.6558V13.6562V13.6566V13.657V13.6574V13.6578V13.6582V13.6586V13.659C47.6386 16.1749 47.6375 18.6919 47.6452 21.208C47.6452 21.8517 47.3023 22.0163 46.8249 22.0792C46.5349 22.1267 46.2377 22.0627 45.9926 21.8999C45.8221 21.7948 45.7221 21.6048 45.7316 21.4041V11.0098L45.7374 10.7823ZM26.7372 21.2961V17.5586C26.7372 16.268 26.7377 14.9773 26.7387 13.6864C26.7393 13.5113 26.6584 13.3954 26.5227 13.2906C26.2211 13.0578 25.8673 13.0537 25.5312 13.1103C25.0679 13.1889 24.8706 13.4028 24.8706 13.786C24.8661 16.3115 24.8661 18.8369 24.8706 21.3621C24.8706 21.5749 24.9463 21.7626 25.1446 21.8895C25.458 22.0978 25.8507 22.1461 26.2049 22.02C26.5911 21.8958 26.7372 21.695 26.7372 21.2961ZM41.1598 18.6311V18.6312C41.1564 19.4774 41.1531 20.3237 41.1693 21.1697C41.1813 21.7831 40.8766 21.9885 40.3777 22.0766C39.9947 22.1442 39.6284 22.0368 39.3701 21.7097C39.324 21.6493 39.2979 21.576 39.2954 21.5C39.2916 18.885 39.2932 16.2698 39.3001 13.6544C39.3089 13.5189 39.3752 13.3938 39.4823 13.311C39.6506 13.2052 39.8389 13.1356 40.0354 13.1066C40.2805 13.068 40.5316 13.0989 40.7602 13.1957C41.0456 13.3173 41.1615 13.5349 41.162 13.8289C41.1637 15.0793 41.1639 16.3304 41.1625 17.5822C41.1625 17.9316 41.1611 18.2811 41.1598 18.6307V18.6307V18.6308V18.6308V18.6309V18.631V18.631V18.6311V18.6311ZM18.6567 26.2623V24.3511C18.6567 24.1414 18.7287 24.067 18.9448 24.0659C19.058 24.0659 19.1713 24.0641 19.2846 24.0622H19.2846C19.5332 24.0582 19.7818 24.0541 20.0291 24.0696C20.5989 24.1058 21.0127 24.2882 21.2053 24.8999C21.2391 25.0094 21.2567 25.1233 21.2575 25.238C21.2622 25.9362 21.2669 26.635 21.2575 27.3348C21.2528 27.6404 21.1641 27.9287 20.9444 28.1562C20.7342 28.3679 20.4494 28.4879 20.1517 28.4901C19.8635 28.5015 19.575 28.499 19.2865 28.4965H19.2864H19.2864H19.2863H19.2863H19.2862H19.2862H19.2862H19.2861H19.2861C19.1631 28.4954 19.0401 28.4943 18.9171 28.4943C18.7188 28.4943 18.6562 28.4314 18.6562 28.2249C18.6562 27.5703 18.6564 26.9161 18.6567 26.2623ZM19.1952 28.0571C19.2489 28.0571 19.3003 28.0576 19.3501 28.0581C19.4454 28.059 19.5352 28.0599 19.6257 28.0571C19.6897 28.0552 19.7554 28.0488 19.8217 28.0424C19.8983 28.035 19.9755 28.0276 20.0515 28.0267C20.5243 28.0199 20.7492 27.664 20.7565 27.2656C20.7682 26.6256 20.7626 25.9857 20.757 25.3453L20.7565 25.2899C20.7565 24.9549 20.5478 24.6252 20.2608 24.5812C20.0164 24.5446 19.7672 24.5381 19.5168 24.5317H19.5168H19.5167H19.5167H19.5167H19.5167H19.5167H19.5167H19.5167H19.5167C19.4088 24.5289 19.3007 24.5261 19.1926 24.5209L19.1952 28.0571ZM31.0782 25.8602V27.3353C31.0782 28.0461 30.6034 28.5294 29.8864 28.5268C29.6401 28.5268 29.3995 28.5268 29.1558 28.4377C28.7984 28.3093 28.4827 27.9051 28.4775 27.5151C28.4614 26.6959 28.4546 25.8768 28.4478 25.0574C28.4458 24.8118 28.4437 24.5663 28.4415 24.3207C28.4415 24.1582 28.5276 24.0733 28.6925 24.0654C28.7645 24.0569 28.8366 24.0801 28.8905 24.1288C28.9443 24.1776 28.9747 24.2473 28.9737 24.3201C28.9769 24.5061 28.9758 24.6921 28.9748 24.8782V24.8783V24.8784V24.8785V24.8786V24.8787V24.8789V24.879L28.9748 24.8799C28.9742 24.9728 28.9737 25.0658 28.9737 25.1589V27.3547C28.9655 27.7193 29.2386 28.0286 29.5999 28.0639C29.9088 28.0996 30.1682 28.0472 30.3894 27.8244C30.535 27.6776 30.5705 27.4889 30.5716 27.297L30.5725 27.0976V27.0974C30.577 26.1863 30.5815 25.2746 30.5674 24.3616C30.5637 24.1152 30.7427 24.0161 30.9551 24.0947C31.0626 24.1346 31.0762 24.2038 31.0756 24.2997C31.0772 24.8208 31.0782 25.3402 31.0782 25.8602ZM17.3688 27.4868L17.0578 27.4866H17.0574H17.0574H17.0574H17.0573H17.0573H17.0573H17.0573C16.6646 27.4861 16.2739 27.4857 15.8822 27.4915C15.8253 27.5053 15.7785 27.5457 15.7564 27.6C15.7078 27.7441 15.6645 27.8898 15.6211 28.0355C15.5872 28.1496 15.5533 28.2636 15.5169 28.3769C15.4814 28.4891 15.3379 28.5341 15.196 28.4854C15.0671 28.4419 14.9904 28.3166 15.0253 28.206C15.0835 28.0219 15.142 27.838 15.2004 27.654L15.2007 27.6532L15.2009 27.6524L15.2012 27.6516L15.2015 27.6507L15.2017 27.6499C15.3299 27.2464 15.4582 26.8429 15.5837 26.4384C15.7186 26.0034 15.8519 25.5679 15.9851 25.1324C16.074 24.842 16.1628 24.5516 16.2521 24.2614C16.2996 24.1068 16.4259 24.025 16.5981 24.0318C16.7547 24.0381 16.871 24.1141 16.918 24.2667C17.0207 24.6018 17.1212 24.9378 17.2217 25.2738C17.2902 25.5028 17.3586 25.7317 17.4278 25.9604L17.5477 26.3576L17.5478 26.3579L17.5479 26.3579L17.5479 26.358L17.5479 26.358L17.5479 26.3581L17.5479 26.3582L17.5479 26.3582C17.7319 26.9679 17.9159 27.5775 18.1062 28.185C18.1505 28.3255 18.0926 28.4251 17.9324 28.4849C17.7722 28.5446 17.6673 28.4912 17.6224 28.3449C17.564 28.153 17.5075 27.96 17.4495 27.7617C17.4231 27.6713 17.3963 27.5798 17.3688 27.4868ZM16.5939 24.8433L16.5637 24.8459L15.9082 27.0444H17.2399L16.5939 24.8433ZM25.5404 27.7498L25.5406 27.7492C25.5657 27.6624 25.5911 27.575 25.6168 27.4868C25.7488 27.4868 25.8808 27.4877 26.0127 27.4885H26.0128C26.3423 27.4907 26.6712 27.4928 26.9991 27.4816C27.1766 27.4753 27.2366 27.5466 27.272 27.6996C27.3221 27.9161 27.3837 28.13 27.4469 28.3433C27.4886 28.4843 27.6212 28.5368 27.785 28.4875C27.8486 28.4724 27.9025 28.4301 27.9326 28.3718C27.9627 28.3135 27.966 28.2449 27.9416 28.184C27.8861 28.0023 27.8309 27.8206 27.7757 27.6389L27.7754 27.6378L27.775 27.6367L27.7747 27.6356L27.7744 27.6345L27.7739 27.6329C27.6847 27.3394 27.5955 27.0458 27.5053 26.7524C27.4316 26.5124 27.3574 26.2725 27.2832 26.0327L27.2819 26.0283C27.1002 25.4409 26.9185 24.8537 26.744 24.2641C26.6892 24.0795 26.5592 24.0439 26.4131 24.0366C26.267 24.0292 26.146 24.0795 26.0938 24.2531C26.0092 24.5459 25.9179 24.837 25.8267 25.1282C25.7801 25.2769 25.7335 25.4256 25.6878 25.5745L24.8873 28.1876C24.8351 28.3543 24.8732 28.4256 25.0439 28.4838C25.2004 28.5368 25.323 28.4843 25.3679 28.3365C25.4266 28.1425 25.4831 27.9477 25.5404 27.7498ZM26.4272 24.847L27.0748 27.0433L25.7426 27.0439L26.3969 24.847H26.4272ZM22.6043 26.0783V24.5351V24.534H24.3931C24.5549 24.534 24.628 24.4732 24.6337 24.3118C24.6394 24.1503 24.5622 24.0654 24.3957 24.0654C23.7055 24.0629 23.0155 24.0629 22.3257 24.0654C22.1655 24.0659 22.0961 24.1409 22.0961 24.2981C22.0946 24.9028 22.0948 25.5075 22.095 26.1122C22.0953 26.8379 22.0955 27.5636 22.0929 28.2893C22.0924 28.4387 22.1592 28.4912 22.2876 28.4912H24.4411C24.5909 28.4912 24.64 28.3984 24.6342 28.2668C24.6285 28.1352 24.5852 28.0535 24.4323 28.0535H22.7797H22.6095V26.5102C22.7037 26.5102 22.7965 26.511 22.8883 26.5118H22.8884H22.8884H22.8885H22.8885C23.0693 26.5133 23.2463 26.5147 23.4231 26.5102C23.541 26.5076 23.6751 26.5024 23.6975 26.3404C23.7231 26.1543 23.6537 26.0783 23.4622 26.0783H22.6043ZM12.112 26.3095V25.2868C12.112 24.6525 12.5148 24.1608 13.1514 24.0921C13.607 24.0434 14.0125 24.1099 14.3777 24.3977C14.5797 24.555 14.7665 25.0268 14.6872 25.2569C14.632 25.4171 14.5201 25.4115 14.4028 25.4056L14.385 25.4047C14.3319 25.4072 14.2801 25.3874 14.2421 25.35C14.2041 25.3126 14.1833 25.261 14.1847 25.2076C14.1763 24.9224 14.0615 24.7049 13.7922 24.6043C13.4651 24.4821 13.1379 24.4863 12.853 24.7175C12.6755 24.8611 12.6192 25.075 12.6171 25.2915L12.6163 25.3645C12.6087 26.0216 12.6011 26.6787 12.6197 27.3358C12.6301 27.7028 12.7966 28.0304 13.261 28.055C13.4054 28.0695 13.551 28.0665 13.6947 28.0461C13.9691 27.9937 14.169 27.7316 14.1836 27.4485C14.1946 27.2305 14.2906 27.155 14.5207 27.1864C14.6454 27.2022 14.7367 27.3615 14.7169 27.5146C14.6235 28.2359 14.0772 28.5074 13.5167 28.5273C13.2428 28.5368 12.9745 28.5326 12.7168 28.3984C12.3144 28.1887 12.1386 27.8453 12.1161 27.4171C12.1027 27.1607 12.1059 26.904 12.1091 26.6475C12.1106 26.5348 12.112 26.4221 12.112 26.3095ZM8.94657 26.0783V24.5351L10.6707 24.5319C10.8815 24.5314 10.9405 24.4779 10.9405 24.2924C10.9405 24.1178 10.8778 24.0622 10.6796 24.0622H8.7608C8.47901 24.0622 8.40387 24.1409 8.40387 24.4292V28.1667C8.40113 28.2111 8.40305 28.2558 8.40961 28.2998C8.44457 28.4608 8.5312 28.5116 8.73106 28.4917C8.87873 28.477 8.93979 28.3905 8.93979 28.2474V27.1749V26.5212C8.95319 26.5199 8.96456 26.5185 8.97462 26.5172L8.9747 26.5172L8.97476 26.5172C8.99202 26.515 9.00541 26.5134 9.01858 26.5134C9.10403 26.5134 9.18941 26.514 9.27476 26.5147C9.44534 26.5159 9.61576 26.5172 9.78619 26.5134C9.973 26.5097 10.0466 26.4316 10.0424 26.2686C10.0372 26.0903 9.91925 26.0783 9.78149 26.0783H8.94657ZM24.8419 10.429C25.0364 10.7712 25.4062 10.974 25.7979 10.9532C25.7979 10.9532 26.1913 10.9018 26.3599 10.8148C26.7615 10.6211 26.9673 10.1663 26.8483 9.73499C26.685 9.13898 25.9002 8.83128 25.2943 9.12168C24.7402 9.38692 24.5961 10.0264 24.8419 10.429Z" fill="#514D57"/>
<path fill-rule="evenodd" clip-rule="evenodd" d="M41.677 30.708C41.4728 30.1404 41.0022 28.7616 41.0022 28.7616L54 23C53.7803 23.0356 40.6845 25.6096 40.0124 25.7454C39.9138 25.44 39.8161 25.1368 39.7188 24.835C39.5984 24.4614 39.4786 24.0898 39.3586 23.7184C39.2163 23.2787 38.4756 21.1975 38.4344 21.153C38.4099 21.1828 37.914 22.5955 37.6945 23.2728C37.445 24.0439 36.7275 25.7438 36.7275 25.7438L32.1297 25.7984C32.8445 26.3811 33.5818 26.9352 34.3192 27.4894C34.8587 27.8948 35.3982 28.3003 35.9291 28.7171L33.9984 32.5321C34.1912 32.4474 34.381 32.3641 34.5687 32.2818C35.0616 32.0655 35.5394 31.8558 36.0168 31.6447C36.8011 31.2982 38.4417 30.5971 38.4417 30.5971C38.4417 30.5971 38.9766 31.0282 39.2004 31.2332C39.5876 31.5876 39.9745 31.9423 40.361 32.2973C40.7527 32.6562 41.1432 33.016 41.5325 33.3766C41.9953 33.8054 43.0286 34.6971 43.1136 34.7207C43.0703 34.588 42.1251 31.9492 41.677 30.708ZM40.3996 27.8757L39 28L39.8542 29.1858L38.7351 28.3494L38.5455 29.7377C38.5455 29.7377 38.3953 28.3525 38.3739 28.2741L37.2519 29.2371C37.2519 29.2371 38.0462 28.1771 38.1651 28.0351L36.6816 27.8846C36.6816 27.8846 38.0336 27.73 38.1594 27.7148L37.205 26.5836L38.3671 27.4663C38.3869 27.3447 38.5742 26.0128 38.5742 26.0128L38.84 27.4L39.8621 26.5653L39.035 27.6645L40.3996 27.8757Z" fill="#1D5FA9"/>
</svg>
