<svg width="58" height="40" fill="none" xmlns="http://www.w3.org/2000/svg"><rect x=".5" y=".5" width="57" height="39" rx="3.5" fill="#fff" stroke="#F3F3F3"/><path fill-rule="evenodd" clip-rule="evenodd" d="m49.67 6.008-11.053-.003h-.003l-.025.002c-1.518.046-3.41 1.25-3.754 2.733l-5.227 22.849c-.345 1.497.592 2.715 2.1 2.738H43.32c1.484-.073 2.927-1.262 3.265-2.729L51.813 8.75c.35-1.512-.61-2.74-2.143-2.74" fill="#01798A"/><path fill-rule="evenodd" clip-rule="evenodd" d="M29.608 31.588 34.835 8.74c.344-1.484 2.236-2.687 3.754-2.733l-4.395-.003-7.918-.001c-1.522.03-3.438 1.242-3.782 2.737l-5.23 22.849c-.345 1.497.594 2.715 2.1 2.738h12.344c-1.507-.023-2.445-1.241-2.1-2.738" fill="#024381"/><path fill-rule="evenodd" clip-rule="evenodd" d="M17.265 31.588 22.494 8.74c.344-1.495 2.26-2.707 3.782-2.737L16.133 6c-1.531 0-3.494 1.225-3.844 2.74L7.06 31.589c-.032.139-.05.276-.06.41v.423c.102 1.092.946 1.887 2.16 1.905h10.204c-1.506-.023-2.445-1.241-2.1-2.738" fill="#DD0228"/><path fill-rule="evenodd" clip-rule="evenodd" d="M26.49 22.652h.192c.177 0 .295-.059.35-.174l.5-.738h1.335l-.278.485h1.602l-.204.743h-1.905c-.22.327-.49.48-.815.462h-.993l.216-.778Zm-.22 1.065h3.51l-.224.807h-1.411l-.215.78h1.373l-.224.807h-1.373l-.319 1.151c-.079.193.025.28.31.26h1.119l-.207.75H26.46c-.407 0-.547-.23-.42-.692l.409-1.47h-.878l.223-.806h.878l.215-.78h-.84l.224-.807Zm5.602-1.982-.056.472s.662-.49 1.263-.49h2.222l-.85 3.037c-.07.348-.372.52-.906.52h-2.518l-.59 2.133c-.033.115.015.173.142.173h.495l-.182.663h-1.26c-.483 0-.684-.144-.604-.433l1.666-6.075h1.178Zm1.88.858H31.77l-.237.82s.33-.235.882-.244c.55-.008 1.178 0 1.178 0l.16-.576Zm-.718 1.902c.147.02.229-.038.239-.173l.121-.432H31.41l-.167.605h1.792Zm-1.339.982h1.145l-.022.489h.305c.154 0 .23-.049.23-.145l.09-.317h.952l-.127.462c-.108.385-.392.585-.855.605h-.61l-.003.836c-.011.134.111.203.364.203h.573l-.185.662h-1.374c-.386.018-.574-.163-.57-.548l.087-2.247Zm-13.87-7.79c-.155.752-.515 1.329-1.073 1.739-.553.403-1.267.605-2.14.605-.822 0-1.425-.206-1.81-.62-.266-.295-.399-.668-.399-1.12 0-.187.023-.388.068-.604l.93-4.433h1.406l-.918 4.383c-.028.121-.04.234-.038.336a.85.85 0 0 0 .17.552c.166.213.436.32.812.32.433 0 .79-.105 1.066-.316.276-.209.457-.506.538-.892l.921-4.383h1.398l-.93 4.433m5.902-1.744h1.101l-.862 3.957h-1.099l.86-3.957Zm.347-1.441h1.11l-.207.96h-1.11l.207-.96Zm1.729 5.097c-.288-.272-.434-.639-.435-1.105a2.91 2.91 0 0 1 .059-.558c.13-.642.408-1.152.836-1.529s.944-.567 1.548-.567c.495 0 .887.137 1.174.41.287.275.431.645.431 1.117 0 .08-.006.174-.017.274-.012.102-.028.2-.046.296-.127.633-.404 1.137-.833 1.507-.428.372-.943.558-1.542.558-.497 0-.888-.134-1.175-.403m2.098-.784c.194-.208.333-.523.417-.942a2.203 2.203 0 0 0 .041-.389c0-.244-.063-.434-.189-.568-.125-.135-.304-.202-.535-.202a.968.968 0 0 0-.748.318c-.196.212-.335.533-.423.96a4.922 4.922 0 0 0-.03.194 1.17 1.17 0 0 0-.008.183c0 .243.063.43.189.562.125.132.303.198.537.198a.974.974 0 0 0 .749-.314m8.658 3.87.265-.922h1.342l-.058.338s.686-.338 1.18-.338h1.66l-.264.922h-.261l-1.252 4.353h.26l-.247.864h-.262l-.108.375h-1.3l.109-.375h-2.565l.25-.864h.257l1.253-4.353h-.26Zm1.448 0-.342 1.178s.585-.221 1.088-.284c.112-.411.257-.894.257-.894h-1.003Zm-.5 1.73-.343 1.234s.648-.315 1.092-.341c.129-.477.257-.892.257-.892h-1.006Zm.251 2.623.257-.895h-1.002l-.258.895h1.003Zm3.246-5.333h1.262l.053.46c-.008.117.063.173.212.173h.223l-.226.78h-.927c-.354.018-.536-.116-.553-.405l-.044-1.008Zm-.37 1.672h4.087l-.24.836h-1.3l-.224.778h1.3l-.241.835h-1.448l-.328.49h.709l.164.98c.02.098.107.145.256.145h.22l-.23.807h-.78c-.404.02-.612-.114-.63-.403l-.187-.895-.645.952c-.152.27-.387.395-.703.375h-1.19l.232-.807h.371c.153 0 .28-.067.394-.202l1.01-1.442H39.93l.241-.835h1.411l.225-.778h-1.413l.241-.836ZM19.12 15.942h.993l-.114.571.143-.163c.322-.34.712-.509 1.174-.509.418 0 .719.12.908.361.186.242.237.575.149 1.003l-.547 2.696h-1.02l.494-2.444c.05-.252.037-.44-.042-.562-.078-.121-.226-.18-.44-.18a.961.961 0 0 0-.663.24c-.18.162-.3.387-.358.672l-.456 2.274H18.32l.801-3.96m11.384.001h.994l-.113.571.14-.163a1.56 1.56 0 0 1 1.175-.509c.418 0 .72.12.908.361.185.242.238.575.148 1.003l-.545 2.696H32.19l.494-2.444c.051-.252.037-.44-.04-.562-.081-.121-.227-.18-.44-.18a.968.968 0 0 0-.664.24c-.18.162-.3.387-.357.672l-.457 2.274h-1.021l.8-3.96m4.912-2.453H38.3c.555 0 .984.124 1.279.368.293.247.44.6.44 1.062v.014c0 .088-.006.187-.014.294a4.366 4.366 0 0 1-.056.325 2.5 2.5 0 0 1-.878 1.474c-.458.37-1 .558-1.623.558h-1.547l-.478 2.318h-1.34l1.333-6.413m.72 2.98h1.284c.334 0 .6-.078.793-.23.192-.153.319-.387.39-.705.01-.058.017-.111.026-.16.004-.046.01-.092.01-.137 0-.227-.082-.392-.246-.495-.163-.104-.42-.154-.776-.154h-1.09l-.39 1.88m9.878 4.2c-.423.89-.827 1.408-1.064 1.649-.237.238-.707.793-1.839.751l.098-.679c.952-.29 1.467-1.596 1.76-2.175l-.35-4.26.738-.01h.618l.066 2.673 1.158-2.673h1.173l-2.358 4.724m-3.279-4.402-.466.317c-.487-.377-.932-.61-1.79-.216-1.168.535-2.145 4.64 1.073 3.288l.183.215 1.266.032.831-3.73-1.097.094m-.72 2.04c-.204.593-.658.984-1.014.873-.355-.11-.482-.68-.276-1.275.203-.594.66-.984 1.013-.872.356.108.484.68.277 1.274Z" fill="#fff"/><path fill-rule="evenodd" clip-rule="evenodd" d="m38.614 6.013-4.42-.009 4.395.019c.008 0 .017-.01.025-.01" fill="#E02F41"/><path fill-rule="evenodd" clip-rule="evenodd" d="M34.194 6.027 26.337 6c-.02 0-.04.009-.06.018l7.917.01" fill="#2E4F7D"/></svg>