<svg width="58" height="40" fill="none" xmlns="http://www.w3.org/2000/svg"><rect x=".5" y=".5" width="57" height="39" rx="3.5" fill="#fff" stroke="#F3F3F3"/><path fill-rule="evenodd" clip-rule="evenodd" d="M24.041 17.027h2.087l.335-1.715h-2.086l-.335 1.715Zm-.216 1.104h2.087l-1.325 6.773c-.097.034-.396.155-.808.155-.557 0-1.068-.22-1.068-1.001 0-.147.017-.314.054-.504.415-2.114 1.06-5.423 1.06-5.423Zm20.72-.155c-1.389 0-1.941.826-2.2 1.328h-.025l.08-1.172h-2.062a16.86 16.86 0 0 1-.235 1.77l-.566 2.93c-.069.36-.194.891-.194 1.2 0 .657.328 1.027 1.06 1.027.412 0 .708-.114.816-.155l.69-3.527c.19-.974.885-1.612 1.71-1.612.666 0 .984.493.984.896 0 .35-.087.74-.154 1.083l-.296 1.51c-.036.182-.111.53-.111.803 0 .668.371 1.002 1.076 1.002.384 0 .628-.098.801-.155l.619-3.162c.134-.715.184-1.091.184-1.546 0-1.31-.755-2.22-2.177-2.22Zm-9.269 1.638c-1.166 0-1.812 1.21-1.812 2.289 0 .91.405 1.519 1.325 1.519 1.04 0 1.855-.899 1.855-2.433 0-.701-.368-1.375-1.368-1.375Zm-.615 5.445c-2.234 0-3.303-1.36-3.303-3.093 0-2.378 1.609-3.99 4.095-3.99 2.158 0 3.303 1.326 3.303 3.028 0 2.551-1.718 4.055-4.095 4.055Zm-7.814-1.63a3.073 3.073 0 0 0-.077.623c0 .777.511 1.007 1.053 1.007.433 0 .701-.12.8-.155l1.003-5.134h1.622l.32-1.64h-1.622l.08-.403c.146-.757.497-1.09 1.104-1.09.406 0 .734.074.848.104l.305-1.559A6.613 6.613 0 0 0 30.666 15c-1.414 0-2.34.871-2.614 2.275l-.168.856h-1.056l-.32 1.639h1.056l-.717 3.658Zm-4.803-5.453c-1.047 0-1.623.738-1.849 1.327h-.024l.08-1.172H18.19c-.018.406-.102 1.093-.312 2.173-.213 1.095-.42 2.187-.635 3.25a2.6 2.6 0 0 0-.053.51c0 .556.27.994 1.072.994.396 0 .672-.104.804-.154l.614-3.14c.22-1.201.622-1.996 1.788-1.996.53 0 1.033.115 1.139.146l.353-1.806c-.077-.027-.383-.132-.915-.132Zm30.265 2.9c.112-.621-.244-1.262-1.049-1.262-.982 0-1.413.68-1.606 1.262h2.655Zm.931 2.52c0 .942-.899 1.665-2.49 1.665-2.2 0-3.275-1.39-3.275-3.093 0-1.69 1.105-3.99 3.803-3.99 1.779 0 3.108.897 3.108 2.95 0 .505-.11 1.054-.158 1.274H49.5c-.008.492.401 1.346 2.045 1.346.732 0 1.561-.262 1.695-.33v.178Zm-38.633-2.52c.112-.621-.244-1.262-1.049-1.262-.982 0-1.413.68-1.606 1.262h2.655Zm.931 2.52c0 .942-.899 1.665-2.49 1.665-2.2 0-3.275-1.39-3.275-3.093 0-1.69 1.105-3.99 3.803-3.99 1.779 0 3.109.897 3.109 2.95 0 .505-.111 1.054-.159 1.274h-4.728c-.008.492.401 1.346 2.045 1.346.732 0 1.562-.262 1.695-.33v.178ZM3 15.826h2.1v6.735c0 1.012.496 1.53 1.293 1.53.081 0 .13-.011.145-.015-.35.537-.803.977-1.843.977-1.1 0-1.695-.776-1.695-1.94v-7.287Z" fill="#1A1919"/><path fill-rule="evenodd" clip-rule="evenodd" d="M5.684 21.865v.707c0 .683.363.927.76.927.405 0 .622-.279.821-.596.334-.531 4.411-7.077 4.411-7.077H9.494l-3.81 6.039" fill="#00A3DA"/></svg>