<svg width="58" height="40" fill="none" xmlns="http://www.w3.org/2000/svg"><rect x=".5" y=".5" width="57" height="39" rx="3.5" fill="#fff" stroke="#F3F3F3"/><path d="M25.752 27.433H21.89l2.415-14h3.862l-2.415 14ZM39.75 13.775a10.074 10.074 0 0 0-3.464-.596c-3.813 0-6.498 1.906-6.515 4.632-.031 2.01 1.923 3.127 3.385 3.798 1.494.685 2.001 1.132 2.001 1.743-.015.938-1.207 1.37-2.319 1.37-1.541 0-2.367-.223-3.623-.744l-.508-.224-.54 3.143c.905.387 2.574.73 4.306.745 4.052 0 6.69-1.877 6.72-4.782.016-1.593-1.016-2.815-3.24-3.813-1.351-.64-2.178-1.072-2.178-1.727.016-.596.7-1.207 2.224-1.207a6.935 6.935 0 0 1 2.877.536l.349.15.525-3.024Z" fill="#15195A"/><path fill-rule="evenodd" clip-rule="evenodd" d="M46.662 13.432h2.987l3.115 14.001h-3.576s-.35-1.609-.46-2.1H43.77l-.81 2.1h-4.052l5.736-12.839c.397-.909 1.097-1.162 2.018-1.162Zm-.238 5.124s-1.224 3.113-1.542 3.917h3.21c-.159-.7-.89-4.051-.89-4.051l-.27-1.206c-.114.31-.278.737-.389 1.025-.075.196-.126.327-.12.315ZM5.159 13.432h6.213c.842.03 1.525.283 1.747 1.177l1.35 6.433.001.001.413 1.937 3.782-9.548h4.083l-6.07 13.986h-4.083L9.153 15.253c-1.187-.65-2.542-1.174-4.058-1.538l.064-.283Z" fill="#15195A"/></svg>