<svg width="58" height="40" fill="none" xmlns="http://www.w3.org/2000/svg"><rect x=".5" y=".5" width="57" height="39" rx="3.5" fill="#fff" stroke="#F3F3F3"/><path d="M25.752 27.433H21.89l2.415-14h3.862l-2.415 14ZM39.75 13.775a10.074 10.074 0 0 0-3.464-.596c-3.813 0-6.498 1.906-6.515 4.632-.031 2.01 1.923 3.127 3.385 3.798 1.494.685 2.001 1.132 2.001 1.743-.015.938-1.207 1.37-2.319 1.37-1.541 0-2.367-.223-3.623-.744l-.508-.224-.54 3.143c.905.387 2.574.73 4.306.745 4.052 0 6.69-1.877 6.72-4.782.016-1.593-1.016-2.815-3.24-3.813-1.351-.64-2.178-1.072-2.178-1.727.016-.596.7-1.207 2.224-1.207a6.935 6.935 0 0 1 2.877.536l.349.15.525-3.024Z" fill="#15195A"/><path fill-rule="evenodd" clip-rule="evenodd" d="M46.662 13.432h2.987l3.115 14.001h-3.576s-.35-1.609-.46-2.1H43.77l-.81 2.1h-4.052l5.736-12.839c.397-.909 1.097-1.162 2.018-1.162Zm-.238 5.124s-1.224 3.113-1.542 3.917h3.21c-.159-.7-.89-4.051-.89-4.051l-.27-1.206c-.114.31-.278.737-.389 1.025-.075.196-.126.327-.12.315ZM5.159 13.432h6.213c.842.03 1.525.283 1.747 1.177l1.35 6.433.001.001.413 1.937 3.782-9.548h4.083l-6.07 13.986h-4.083L9.153 15.253c-1.187-.65-2.542-1.174-4.058-1.538l.064-.283ZM33.36 35.07c-.051.01-.117.014-.196.014-.22 0-.376-.065-.469-.196-.093-.13-.14-.322-.14-.574v-4.298h.574v4.34c0 .093.016.159.049.196.033.037.07.056.112.056h.053c.016 0 .04-.005.073-.014l.077.434a.493.493 0 0 1-.133.042Zm-1.722-.567V35h-2.716v-4.592h2.646v.49h-2.065v1.442h1.743v.497h-1.743v1.666h2.135Zm4.081.581c.233 0 .441-.035.623-.105a2.9 2.9 0 0 0 .497-.245l-.203-.378c-.126.08-.258.143-.396.192a1.338 1.338 0 0 1-.451.074c-.327 0-.592-.106-.794-.319-.203-.212-.317-.5-.34-.864h2.296a.863.863 0 0 0 .017-.15 3.51 3.51 0 0 0 .004-.179c0-.243-.03-.462-.091-.658a1.479 1.479 0 0 0-.263-.504 1.126 1.126 0 0 0-.427-.322 1.424 1.424 0 0 0-.577-.112c-.196 0-.385.04-.567.123a1.472 1.472 0 0 0-.486.353 1.76 1.76 0 0 0-.343.564c-.087.221-.13.472-.13.752s.042.53.126.749c.084.22.2.405.346.556.148.152.32.269.518.35.199.082.412.123.641.123Zm-1.071-2.058h1.82c0-.345-.074-.608-.22-.788-.148-.18-.354-.269-.62-.269a.875.875 0 0 0-.644.276 1.13 1.13 0 0 0-.22.333c-.059.13-.097.28-.116.448Zm4.508 2.058c.205 0 .401-.039.588-.116.187-.077.357-.183.511-.318l-.252-.385a1.77 1.77 0 0 1-.36.242.95.95 0 0 1-.438.101.944.944 0 0 1-.76-.36 1.285 1.285 0 0 1-.213-.41 1.724 1.724 0 0 1-.077-.532c0-.196.027-.374.08-.535.054-.162.128-.3.221-.417a.96.96 0 0 1 .763-.364c.135 0 .258.028.367.084.11.056.214.128.312.217l.294-.378a1.936 1.936 0 0 0-.42-.28 1.273 1.273 0 0 0-.574-.119c-.22 0-.428.04-.627.119-.198.08-.372.196-.521.35-.15.154-.268.342-.357.564a2.032 2.032 0 0 0-.133.759c0 .28.04.53.122.753.082.221.194.408.337.56.142.151.311.267.507.346.196.08.406.119.63.119Zm3.175-.039c-.11.026-.219.039-.326.039a1.11 1.11 0 0 1-.459-.084.788.788 0 0 1-.3-.231.9.9 0 0 1-.165-.357 2.032 2.032 0 0 1-.049-.462v-1.883h-.504v-.434l.532-.035.07-.952h.483v.952h.917v.469h-.917v1.89c0 .21.038.372.115.486.078.115.214.172.41.172.06 0 .126-.01.196-.028.07-.019.133-.04.189-.063l.112.434a2.971 2.971 0 0 1-.304.087ZM43.873 35v-2.184c.117-.29.253-.492.41-.609.156-.117.306-.175.451-.175a.917.917 0 0 1 .329.056l.112-.504a.904.904 0 0 0-.364-.07.877.877 0 0 0-.542.189 1.572 1.572 0 0 0-.424.511h-.021l-.049-.616H43.3V35h.574Zm3.706-.035c-.188.08-.388.119-.598.119-.21 0-.41-.04-.599-.119a1.473 1.473 0 0 1-.5-.347 1.686 1.686 0 0 1-.347-.56 2.061 2.061 0 0 1-.129-.752c0-.285.043-.538.13-.76a1.72 1.72 0 0 1 .346-.563c.145-.154.311-.27.5-.35.19-.08.389-.119.599-.119a1.472 1.472 0 0 1 1.099.469c.145.154.26.342.346.564.087.221.13.474.13.759 0 .28-.043.53-.13.753a1.686 1.686 0 0 1-.346.56 1.473 1.473 0 0 1-.5.346Zm-.598-.357a.853.853 0 0 1-.399-.094.917.917 0 0 1-.311-.267 1.265 1.265 0 0 1-.2-.409 1.882 1.882 0 0 1-.07-.532c0-.196.023-.374.07-.535.047-.162.113-.3.2-.417a.853.853 0 0 1 .71-.364.853.853 0 0 1 .71.364c.087.117.153.255.2.416.047.161.07.34.07.536s-.023.373-.07.532a1.265 1.265 0 0 1-.2.41.917.917 0 0 1-.311.266.853.853 0 0 1-.399.094Zm3.045-2.072V35h-.574v-3.402h.476l.049.49h.021c.163-.163.335-.3.514-.41.18-.11.389-.164.627-.164.36 0 .622.112.788.336.165.224.248.555.248.994V35h-.574v-2.079c0-.322-.051-.554-.154-.697-.103-.142-.266-.213-.49-.213a.836.836 0 0 0-.469.133c-.135.089-.29.22-.462.392Z" fill="#15195A"/></svg>