<svg width="58" height="40" viewBox="0 0 58 40" fill="none" xmlns="http://www.w3.org/2000/svg">
<g clip-path="url(#clip0_1503_2372)">
<g clip-path="url(#clip1_1503_2372)">
<rect width="58" height="40" fill="white"/>
<path d="M3.5614 0.5H54.4386C56.1256 0.5 57.5 1.87958 57.5 3.58974V36.4103C57.5 38.1204 56.1256 39.5 54.4386 39.5H3.5614C1.87437 39.5 0.5 38.1204 0.5 36.4103V3.58974C0.5 1.87958 1.87437 0.5 3.5614 0.5Z" fill="white" stroke="#F3F3F3"/>
<path d="M47 8H11V32H47V8Z" fill="#9A4B21"/>
<path fill-rule="evenodd" clip-rule="evenodd" d="M14 11H15V11.9H14.9375V12H14V11ZM14 28V29H15V28.1H14.9375V28H14ZM43 29H44V28H43.0625V28.1H43V29ZM44 12V11H43V11.9H43.0625V12H44ZM16.8125 11V12H18.6875V11H16.8125ZM20.5625 11V12H22.4375V11H20.5625ZM24.3125 11V12H26.1875V11H24.3125ZM28.0625 11V12H29.9375V11H28.0625ZM31.8125 11V12H33.6875V11H31.8125ZM35.5625 11V12H37.4375V11H35.5625ZM39.3125 11V12H41.1875V11H39.3125ZM44 13.7H43V15.5H44V13.7ZM44 17.3H43V19.1H44V17.3ZM44 20.9H43V22.7H44V20.9ZM44 24.5H43V26.3H44V24.5ZM41.1875 29V28H39.3125V29H41.1875ZM37.4375 29V28H35.5625V29H37.4375ZM33.6875 29V28H31.8125V29H33.6875ZM29.9375 29V28H28.0625V29H29.9375ZM26.1875 29V28H24.3125V29H26.1875ZM22.4375 29V28H20.5625V29H22.4375ZM18.6875 29V28H16.8125V29H18.6875ZM14 26.3H15V24.5H14V26.3ZM14 22.7H15V20.9H14V22.7ZM14 19.1H15V17.3H14V19.1ZM14 15.5H15V13.7H14V15.5Z" fill="#673216"/>
<path d="M22 16H8V24H22V16Z" fill="#673216"/>
<path d="M18 22C19.1046 22 20 21.1046 20 20C20 18.8954 19.1046 18 18 18C16.8954 18 16 18.8954 16 20C16 21.1046 16.8954 22 18 22Z" fill="#FFEA28"/>
</g>
</g>
<defs>
<clipPath id="clip0_1503_2372">
<rect width="58" height="40" fill="white"/>
</clipPath>
<clipPath id="clip1_1503_2372">
<rect width="58" height="40" fill="white"/>
</clipPath>
</defs>
</svg>
