<svg width="58" height="40" fill="none" xmlns="http://www.w3.org/2000/svg"><rect x=".5" y=".5" width="57" height="39" rx="3.5" fill="#fff" stroke="#F3F3F3"/><path fill-rule="evenodd" clip-rule="evenodd" d="M19.971 28.102c.306-.16.826-.367 1.377-.367 1.264 0 1.948.852 1.948 2.44 0 1.853-.918 2.755-2.397 2.755-.54 0-1.377-.169-1.989-.486v-6.92l1.061-.248v2.826Zm-.01 3.975c.326.139.683.159.938.159.755 0 1.326-.456 1.326-2.062 0-1.26-.47-1.666-1.152-1.666-.409 0-.704.11-1.112.327v3.242ZM9.1 27.863h.071l1.387 4.948h1.1l1.653-7.03h-1.193l-1.04 5.245h-.071l-1.418-5.245H8.68l-1.325 5.245h-.072l-1.142-5.245H5l1.652 7.03h1.101L9.1 27.863Zm8.73 4.61v-.753c-.56.327-1.07.516-1.621.516-1.05 0-1.55-.526-1.55-1.716h3.324v-.366c0-1.616-.785-2.42-2.06-2.42-1.53 0-2.315 1.091-2.315 2.598 0 1.567.704 2.598 2.417 2.598.734 0 1.346-.198 1.805-.456Zm-.816-2.617H14.68c.112-.99.591-1.457 1.214-1.457.55 0 1.07.416 1.121 1.457Zm10.973 1.468h-.051L25.65 25.78h-1.234v7.03h.918v-4.977h.092l2.08 4.977h.653l2.08-5.096h.092v5.096h1.102v-7.03h-1.265l-2.182 5.543Zm4.568-.992c0-1.735.98-2.597 2.325-2.597 1.346 0 2.326.862 2.326 2.597 0 1.696-.928 2.598-2.326 2.598-1.397 0-2.325-.902-2.325-2.598Zm3.58 0c0-1.338-.561-1.903-1.255-1.903-.673 0-1.254.565-1.254 1.903 0 1.359.53 1.904 1.254 1.904s1.255-.545 1.255-1.904Zm4.64-2.597c-1.173 0-2.142.466-2.6.733v4.343h1.06v-3.926c.316-.178.836-.357 1.244-.357.52 0 .917.139.917.922v3.361h1.06v-3.59c0-1.02-.458-1.486-1.682-1.486Zm6.852 3.985v.754a3.67 3.67 0 0 1-1.805.456c-1.713 0-2.417-1.031-2.417-2.598 0-1.507.786-2.597 2.315-2.597 1.275 0 2.06.803 2.06 2.419v.366h-3.324c0 1.19.5 1.716 1.55 1.716.55 0 1.06-.189 1.62-.516Zm-3.15-1.864h2.335c-.051-1.04-.572-1.457-1.122-1.457-.623 0-1.101.466-1.214 1.457Zm8.362-1.953h-1.092l-1.163 3.648h-.06l-1.306-3.648h-1.121l1.957 4.957c-.245.734-.672 1.27-1.366 1.27v.812c1.172 0 1.794-.713 2.305-2.082l1.846-4.957ZM28.236 5c1.403 0 2.732.318 3.916.882.186.086.371.18.557.284l-.823.716-1.236-1.243-2.086 1.81-1.24-1.315-3.886 3.406 2.492 2.67-.98.837 2.454 2.673-.973.836 3.507 3.795 2.082-1.863 1.8 1.996a9.58 9.58 0 0 1-1.178.76 9.065 9.065 0 0 1-4.406 1.135c-4.923 0-8.938-3.904-8.938-8.69S23.313 5 28.236 5Zm-1.63 8.14 2.126-1.86 1.914 2.067-2.125 1.86-1.914-2.066Zm3.637 1.71-2.125 1.861 1.914 2.067 2.125-1.861-1.913-2.066Zm-5.157-5.238 2.125-1.86 1.914 2.066-2.126 1.86-1.913-2.066Zm5.494-2.397L28.986 8.61l1.435 1.55 1.594-1.395-1.435-1.55Zm1.238 7.787 1.595-1.396 1.435 1.55-1.594 1.395-1.436-1.55Zm2.996 1.734-1.593 1.396 1.435 1.55 1.594-1.396-1.436-1.55Zm-.951-5.778 1.062-.93.957 1.033-1.062.93-.957-1.033Zm-.295-4-1.063.93.956 1.033 1.063-.93-.956-1.033Zm1.653 7.07 1.063-.93.957 1.032-1.063.93-.957-1.033ZM32.05 10.33l-1.594 1.396 1.436 1.55 1.593-1.396-1.435-1.55Z" fill="#0068A3"/></svg>