<svg width="58" height="40" fill="none" xmlns="http://www.w3.org/2000/svg"><rect x=".5" y=".5" width="57" height="39" rx="3.5" fill="#333" stroke="#F3F3F3"/><path fill-rule="evenodd" clip-rule="evenodd" d="M43.807 24.682c0-.377.307-.682.686-.682.378 0 .685.305.685.682a.678.678 0 0 1-.17.449h-1.03a.676.676 0 0 1-.17-.45Zm-5.827 3.141s.083 1.262-1.305 1.262c-1.387 0-1.304-1.269-1.304-1.269v-3.251h-.954v3.221c0 1.347.887 2.214 2.258 2.214s2.258-.867 2.258-2.207v-3.228h-.954v3.258h.002Zm-15.968 1.951-.2-.74-.07.037a.854.854 0 0 1-.436.103c-.273-.016-.45-.197-.45-.46v-2.061h.953v-.748h-.953v-1.313l-.904.24v1.073H19.2v.748h.753v2.175c0 .723.455 1.172 1.187 1.172.335 0 .553-.071.776-.178l.096-.048Zm22.03.182v-4.052h.902v4.052h-.903Zm5.753-2.026c0 1.18-.891 2.07-2.074 2.07-1.188 0-2.083-.89-2.083-2.07 0-1.18.895-2.07 2.083-2.07 1.183 0 2.074.89 2.074 2.07ZM47.72 26.7c.68 0 1.174.518 1.174 1.23s-.494 1.23-1.174 1.23c-.686 0-1.183-.518-1.183-1.23s.497-1.23 1.183-1.23Zm-18.955-.832a1.605 1.605 0 0 0-.81.329v-.293h-.903v4.052h.903v-2.464c0-.083.014-.165.046-.242a.881.881 0 0 1 .852-.556c.13 0 .322.02.456.09v-.866h-.002a1.454 1.454 0 0 0-.542-.05ZM9.434 28.4l1.032-3.834h.952l-1.453 5.39h-.95L7.71 25.958l-1.306 3.998h-.95L4 24.565h.95L5.984 28.4l1.24-3.834h.97l1.24 3.834Zm3.952 1.6c-1.188-.003-2.076-.888-2.079-2.069 0-.26.045-.523.137-.767.14-.37.388-.696.711-.927.353-.25.786-.377 1.217-.377.572 0 1.034.197 1.367.552.228.244.382.554.471.873.08.287.088.575.088.87h-3.1l.018.088c.114.544.582.909 1.17.91a1.413 1.413 0 0 0 1.016-.414l.619.573c-.375.427-.987.687-1.635.688Zm.984-2.496v.001Zm-.375-.655a.99.99 0 0 1 .375.655h-2.15s.076-.263.243-.455a1.12 1.12 0 0 1 .844-.399c.24 0 .461.032.688.2ZM24.447 30c-1.188-.003-2.077-.888-2.08-2.069 0-.26.046-.523.137-.767.14-.37.388-.696.712-.927a2.11 2.11 0 0 1 1.217-.377c.571 0 1.033.197 1.366.552.228.244.382.554.472.873.08.287.088.575.088.87h-3.1l.018.088c.114.544.582.909 1.17.91.508-.001.84-.238 1.016-.414l.618.573c-.376.427-.986.687-1.634.688Zm.983-2.496v.001Zm-.375-.655a.99.99 0 0 1 .375.655h-2.15s.076-.263.243-.455a1.12 1.12 0 0 1 .844-.399c.24 0 .46.032.688.2Zm-7.535.627c-.393-.092-.67-.192-.675-.422-.006-.309.267-.402.74-.402l.814-.002v-.747l-.807.001c-.709 0-1.6.152-1.6 1.205.008.472.332.838.934 1.027.126.039.254.07.378.1l.038.008c.419.1.78.2.784.51.005.281-.371.45-.686.455-.556 0-.922-.318-1.038-.434l-.589.547s.515.676 1.662.676c.751 0 1.52-.485 1.506-1.275-.014-.783-.747-1.077-1.462-1.247Zm23.116-1.325c.327-.238.7-.291 1.02-.291.941 0 1.588.637 1.588 1.64v2.456h-.903v-2.397c0-.505-.339-.844-.841-.844-.573 0-.864.432-.864.794v2.447h-.903v-4.052h.903v.247Zm-8.603-.291c-.32 0-.694.053-1.021.29v-.246h-.903v4.052h.903v-2.447c0-.362.292-.794.864-.794.502 0 .841.339.841.844v2.397h.903V27.5c0-1.004-.647-1.641-1.587-1.641Zm19.359.29c.327-.236.7-.29 1.02-.29.942 0 1.588.637 1.588 1.64v2.456h-.903v-2.397c0-.505-.339-.844-.84-.844-.574 0-.865.432-.865.794v2.447h-.903v-4.052h.903v.247Zm-19.923-4.87 3.01-11.06h-2.34l-1.82 7.052-2.213-7.051h-2.188l-2.175 6.998-1.86-6.998h-2.366l3.038 11.059h2.17l2.28-7.332 2.28 7.332h2.184Zm9.962-4.248v-6.811h2.383v6.751c0 1.363-.441 2.52-1.276 3.34-.836.822-2.01 1.256-3.392 1.256-1.384 0-2.556-.434-3.39-1.255-.836-.823-1.278-1.978-1.278-3.341v-1.6l1.402-5.151h.982v6.83c-.002.05-.035.949.55 1.57.388.413.971.621 1.734.621.764 0 1.347-.208 1.736-.621.583-.621.551-1.52.55-1.57v-.019Z" fill="#FD0"/><path fill-rule="evenodd" clip-rule="evenodd" d="m15.23 10.22 3.039 11.06h.777l-3.04-11.06h-.776Zm2.921 0 3.039 11.06h-.778l-3.036-11.06h.775Z" fill="#fff"/></svg>