<svg width="16" height="16" viewBox="0 0 16 16" fill="none" xmlns="http://www.w3.org/2000/svg">
<path d="M7.32858 7.32852V4.66252H8.66158V7.32852H11.3276V8.66152H8.66158V11.3275H7.32858V8.66152H4.66258V7.32852H7.32858ZM7.99508 14.66C4.314 14.66 1.33008 11.6761 1.33008 7.99502C1.33008 4.31394 4.314 1.33002 7.99508 1.33002C11.6762 1.33002 14.6601 4.31394 14.6601 7.99502C14.6601 11.6761 11.6762 14.66 7.99508 14.66ZM7.99508 13.327C9.40921 13.327 10.7654 12.7653 11.7654 11.7653C12.7653 10.7654 13.3271 9.40915 13.3271 7.99502C13.3271 6.58088 12.7653 5.22467 11.7654 4.22472C10.7654 3.22478 9.40921 2.66302 7.99508 2.66302C6.58094 2.66302 5.22473 3.22478 4.22478 4.22472C3.22484 5.22467 2.66308 6.58088 2.66308 7.99502C2.66308 9.40915 3.22484 10.7654 4.22478 11.7653C5.22473 12.7653 6.58094 13.327 7.99508 13.327V13.327Z" fill="#001018"/>
</svg>
