<svg width="16" height="16" viewBox="0 0 16 16" xmlns="http://www.w3.org/2000/svg"><path d="M8.26469 2.3333L14.6154 13.3333C14.6739 13.4346 14.7047 13.5496 14.7047 13.6666C14.7047 13.7837 14.6739 13.8986 14.6154 14C14.5569 14.1013 14.4727 14.1855 14.3714 14.244C14.27 14.3025 14.155 14.3333 14.038 14.3333H1.33669C1.21967 14.3333 1.10471 14.3025 1.00337 14.244C0.902023 14.1855 0.817866 14.1013 0.759356 14C0.700846 13.8986 0.670043 13.7837 0.670044 13.6666C0.670045 13.5496 0.700849 13.4346 0.75936 13.3333L7.11003 2.3333C7.16854 2.23197 7.2527 2.14781 7.35404 2.08931C7.45538 2.0308 7.57034 2 7.68736 2C7.80438 2 7.91934 2.0308 8.02068 2.08931C8.12202 2.14781 8.20618 2.23197 8.26469 2.3333ZM7.02069 11V12.3333H8.35403V11H7.02069ZM7.02069 6.3333V9.66664H8.35403V6.3333H7.02069Z"/></svg>