<svg width="16" height="16" viewBox="0 0 16 16" fill="none" xmlns="http://www.w3.org/2000/svg">
<path fill-rule="evenodd" clip-rule="evenodd" d="M14.612 13.3333L8.26131 2.3333C8.14221 2.12705 7.92214 2 7.68397 2C7.44581 2 7.22573 2.12705 7.10664 2.3333L0.755973 13.3333C0.636886 13.5396 0.636884 13.7937 0.755969 14C0.875053 14.2062 1.09513 14.3333 1.33331 14.3333H14.0346C14.2728 14.3333 14.4929 14.2062 14.612 14C14.7311 13.7937 14.7311 13.5396 14.612 13.3333ZM12.88 13H2.48799L7.68399 3.99996L12.88 13ZM7.01734 11H8.35067V12.3333H7.01734V11ZM8.35067 6.33329H7.01734V9.66662H8.35067V6.33329Z" fill="#001018"/>
</svg>
