<svg width="16" height="16" viewBox="0 0 16 16" fill="none" xmlns="http://www.w3.org/2000/svg">
<path fill-rule="evenodd" clip-rule="evenodd" d="M14.612 13.3333L8.26134 2.3333C8.14224 2.12705 7.92217 2 7.684 2C7.44584 2 7.22576 2.12705 7.10667 2.3333L0.756003 13.3333C0.636916 13.5396 0.636915 13.7937 0.755999 14C0.875084 14.2062 1.09516 14.3333 1.33334 14.3333H14.0347C14.2728 14.3333 14.4929 14.2062 14.612 14C14.7311 13.7937 14.7311 13.5396 14.612 13.3333ZM12.88 13H2.48802L7.68402 3.99996L12.88 13ZM7.01737 11H8.3507V12.3333H7.01737V11ZM8.3507 6.33329H7.01737V9.66662H8.3507V6.33329Z" fill="#001018"/>
</svg>
