<svg width="16" height="16" xmlns="http://www.w3.org/2000/svg"><path d="M14.664 12.153c0 .485-.27 1.418-.876 1.931-.121.093-.243.04-.19-.095.177-.432.582-1.432.391-1.662-.133-.174-.686-.162-1.158-.121-.216.027-.405.04-.552.07-.136.011-.163-.109-.027-.202a2.07 2.07 0 0 1 .58-.285c.766-.23 1.653-.092 1.78.055.024.028.053.107.053.309zm-1.28.863a5.109 5.109 0 0 1-.554.367c-1.415.85-3.247 1.295-4.839 1.295-2.562 0-4.853-.945-6.592-2.525-.148-.122-.025-.298.15-.202 1.872 1.093 4.191 1.754 6.592 1.754 1.51 0 3.139-.282 4.69-.89.108-.041.23-.096.335-.135.245-.11.46.162.217.336zM9.27 5.663c0-.694.027-1.103-.203-1.454-.204-.288-.555-.462-1.045-.434-.532.029-1.103.378-1.25 1.017-.027.147-.113.29-.29.322l-1.624-.207c-.116-.026-.292-.115-.235-.347.35-1.835 1.917-2.474 3.4-2.56h.348c.813 0 1.858.233 2.527.843.81.757.725 1.774.725 2.88V8.34c0 .785.318 1.133.639 1.542.086.146.115.318-.03.437-.32.29-.93.813-1.278 1.103-.117.088-.326.098-.407.03-.514-.43-.639-.669-.957-1.106-.553.581-1.017.902-1.57 1.076a4.694 4.694 0 0 1-1.19.144c-1.393 0-2.497-.869-2.497-2.587 0-1.366.727-2.295 1.8-2.734 1.074-.44 2.634-.58 3.136-.583h.001zm-.319 3.461c.347-.581.318-1.057.318-2.123-.434 0-.87.03-1.247.118-.697.202-1.25.641-1.25 1.57 0 .727.379 1.222 1.017 1.222a.856.856 0 0 0 .233-.03c.447-.124.725-.348.93-.757z"/></svg>