<svg width="16" height="16" xmlns="http://www.w3.org/2000/svg"><path fill-rule="evenodd" clip-rule="evenodd" d="M7.333 11.336c1.265 0 2.346-.51 3.084-1.59.285.716.439.981.788 1.416l1.04-.834c-.266-.33-.352-.48-.59-1.075-.213-.534-.322-1.939-.322-3.705 0-1.896-1.264-3.348-3-3.348-1.538 0-2.705.87-3.296 2.583l1.26.434c.41-1.186 1.078-1.684 2.036-1.684.955 0 1.667.818 1.667 2.015v.143l-.092.007c-.865.064-1.03.078-1.431.127C6.23 6.1 4.88 6.848 4.67 8.587c-.188 1.567 1.126 2.749 2.662 2.749zm6.486 2.067c-.142.348.172.427.352.294.64-.474 1.017-1.833.774-2.186-.11-.159-1.014-.285-1.78-.056a1.972 1.972 0 0 0-.58.286c-.135.095-.076.302.06.293.073-.005.14-.013.209-.022.124-.015.258-.031.455-.031.373 0 .544.084.684.254.19.23.002.736-.174 1.168zm-.436-.429a5.038 5.038 0 0 1-.553.463c-1.415 1.078-3.247 1.64-4.839 1.64-2.562 0-4.853-1.195-6.592-3.196-.148-.154-.025-.378.149-.256 1.873 1.384 4.192 2.222 6.593 2.222 1.51 0 3.138-.358 4.69-1.129.053-.025.11-.055.166-.084.058-.03.115-.06.169-.085.245-.14.46.204.217.425zM8.64 7.148c.37-.045.529-.058 1.368-.12h.008c-.337 2.156-1.322 2.975-2.682 2.975-.798 0-1.422-.561-1.338-1.256.112-.93.942-1.39 2.644-1.599z"/></svg>