<svg width="24" height="24" viewBox="0 0 24 24" fill="none" xmlns="http://www.w3.org/2000/svg">
<path d="M21.9961 18.23C21.9961 18.957 21.5911 20.357 20.6821 21.126C20.5001 21.266 20.3171 21.187 20.3971 20.983C20.6621 20.335 21.2691 18.836 20.9841 18.491C20.7841 18.229 19.9541 18.248 19.2461 18.309C18.9221 18.35 18.6391 18.369 18.4181 18.414C18.2151 18.431 18.1731 18.251 18.3771 18.111C18.6391 17.926 18.9221 17.786 19.2471 17.683C20.3971 17.339 21.7271 17.546 21.9171 17.766C21.9531 17.808 21.9971 17.926 21.9971 18.229L21.9961 18.23ZM20.0751 19.524C19.811 19.7257 19.5337 19.9094 19.2451 20.074C17.1231 21.349 14.3751 22.017 11.9871 22.017C8.14405 22.017 4.70705 20.6 2.09905 18.229C1.87605 18.047 2.06105 17.783 2.32205 17.926C5.13205 19.566 8.61005 20.558 12.2111 20.558C14.4761 20.558 16.9191 20.134 19.2461 19.222C19.4081 19.161 19.5901 19.078 19.7491 19.02C20.1161 18.855 20.4391 19.263 20.0751 19.524ZM13.9051 8.494C13.9051 7.453 13.9461 6.84 13.6011 6.314C13.2951 5.881 12.7681 5.621 12.0331 5.662C11.2351 5.706 10.3781 6.229 10.1591 7.188C10.1171 7.408 9.98805 7.624 9.72305 7.671L7.28705 7.361C7.11305 7.321 6.84905 7.188 6.93505 6.84C7.45805 4.088 9.81005 3.129 12.0331 3H12.5561C13.7761 3 15.3431 3.349 16.3461 4.264C17.5631 5.4 17.4341 6.926 17.4341 8.584V12.511C17.4341 13.689 17.9111 14.211 18.3921 14.825C18.5221 15.044 18.5661 15.302 18.3471 15.48C17.8671 15.915 16.9531 16.699 16.4301 17.134C16.2561 17.267 15.9421 17.281 15.8201 17.179C15.0501 16.534 14.8621 16.176 14.3851 15.521C13.5551 16.392 12.8591 16.873 12.0301 17.134C11.4471 17.282 10.8475 17.3546 10.2461 17.35C8.15605 17.35 6.50005 16.047 6.50005 13.47C6.50005 11.421 7.59005 10.028 9.20005 9.369C10.8101 8.709 13.1501 8.499 13.9041 8.495L13.9051 8.494ZM13.4271 13.686C13.9471 12.814 13.9041 12.1 13.9041 10.501C13.2531 10.501 12.5981 10.546 12.0331 10.679C10.9881 10.982 10.1591 11.64 10.1591 13.034C10.1591 14.124 10.7261 14.866 11.6841 14.866C11.8161 14.866 11.9321 14.85 12.0331 14.821C12.7031 14.635 13.1211 14.299 13.4271 13.686Z" fill="#001018"/>
</svg>
