<svg width="16" height="16" fill="none" xmlns="http://www.w3.org/2000/svg"><path d="M12.667 8.667H3.333v4.666h9.334V8.667zm0-1.334a4.667 4.667 0 0 0-9.334 0h9.334zM4.255 2.645A5.975 5.975 0 0 1 8 1.333c1.417 0 2.719.491 3.745 1.312l.969-.968.943.942-.969.969A5.974 5.974 0 0 1 14 7.333V14a.666.666 0 0 1-.667.667H2.667A.667.667 0 0 1 2 14V7.333c0-1.416.49-2.718 1.312-3.745l-.969-.968.943-.943.969.969zM6 6a.667.667 0 1 1 0-1.333A.667.667 0 0 1 6 6zm4 0a.667.667 0 1 1 0-1.333A.667.667 0 0 1 10 6z" fill="#001018"/></svg>