<svg width="16" height="16" fill="none" xmlns="http://www.w3.org/2000/svg"><path fill-rule="evenodd" clip-rule="evenodd" d="M8 1.333a5.975 5.975 0 0 0-3.745 1.312v.001l-.969-.969-.943.943.969.968A5.974 5.974 0 0 0 2 7.333V14c0 .368.298.667.667.667h10.666A.667.667 0 0 0 14 14V7.333a5.974 5.974 0 0 0-1.312-3.745l.969-.969-.943-.942-.969.968A5.974 5.974 0 0 0 8 1.333zm4.667 6a4.667 4.667 0 0 0-9.334 0h9.334zM3.333 8.667v4.666h9.334V8.667H3.333zM6 6a.667.667 0 1 1 0-1.333A.667.667 0 0 1 6 6zm3.333-.667a.667.667 0 1 0 1.334 0 .667.667 0 0 0-1.334 0z" fill="#001018"/></svg>