<svg width="16" height="16" viewBox="0 0 16 16" fill="none" xmlns="http://www.w3.org/2000/svg">
<path fill-rule="evenodd" clip-rule="evenodd" d="M8 1.33332C6.63854 1.33115 5.31716 1.79403 4.25467 2.64532V2.64599L3.286 1.67732L2.34333 2.61999L3.312 3.58799C2.49067 4.61465 2 5.91665 2 7.33332V7.99999H14V7.33332C14.0022 5.97186 13.5393 4.65048 12.688 3.58799L13.6567 2.61932L12.714 1.67665L11.7453 2.64532C10.7187 1.82399 9.41667 1.33332 8 1.33332ZM14 14V9.33332H2V14C2 14.3682 2.29848 14.6667 2.66667 14.6667H13.3333C13.7015 14.6667 14 14.3682 14 14ZM6 5.99999C6.36819 5.99999 6.66667 5.70151 6.66667 5.33332C6.66667 4.96513 6.36819 4.66666 6 4.66666C5.63181 4.66666 5.33333 4.96513 5.33333 5.33332C5.33333 5.70151 5.63181 5.99999 6 5.99999ZM10.6667 5.33332C10.6667 5.70151 10.3682 5.99999 10 5.99999C9.63181 5.99999 9.33333 5.70151 9.33333 5.33332C9.33333 4.96513 9.63181 4.66666 10 4.66666C10.3682 4.66666 10.6667 4.96513 10.6667 5.33332Z" fill="#001018"/>
</svg>
