<svg width="16" height="16" viewBox="0 0 16 16" fill="none" xmlns="http://www.w3.org/2000/svg">
<path d="M12.6667 8.66665H3.33333V13.3333H12.6667V8.66665ZM12.6667 7.33332C12.6667 6.09564 12.175 4.90866 11.2998 4.03349C10.4247 3.15832 9.23768 2.66665 8 2.66665C6.76232 2.66665 5.57534 3.15832 4.70017 4.03349C3.825 4.90866 3.33333 6.09564 3.33333 7.33332H12.6667ZM4.25467 2.64532C5.31716 1.79403 6.63854 1.33115 8 1.33332C9.41667 1.33332 10.7187 1.82399 11.7453 2.64532L12.714 1.67665L13.6567 2.61932L12.688 3.58799C13.5393 4.65048 14.0022 5.97186 14 7.33332V14C14 14.1768 13.9298 14.3464 13.8047 14.4714C13.6797 14.5964 13.5101 14.6667 13.3333 14.6667H2.66667C2.48986 14.6667 2.32029 14.5964 2.19526 14.4714C2.07024 14.3464 2 14.1768 2 14V7.33332C2 5.91665 2.49067 4.61465 3.312 3.58799L2.34333 2.61999L3.286 1.67732L4.25467 2.64599V2.64532ZM6 5.99999C5.82319 5.99999 5.65362 5.92975 5.5286 5.80472C5.40357 5.6797 5.33333 5.51013 5.33333 5.33332C5.33333 5.15651 5.40357 4.98694 5.5286 4.86192C5.65362 4.73689 5.82319 4.66665 6 4.66665C6.17681 4.66665 6.34638 4.73689 6.4714 4.86192C6.59643 4.98694 6.66667 5.15651 6.66667 5.33332C6.66667 5.51013 6.59643 5.6797 6.4714 5.80472C6.34638 5.92975 6.17681 5.99999 6 5.99999ZM10 5.99999C9.82319 5.99999 9.65362 5.92975 9.5286 5.80472C9.40357 5.6797 9.33333 5.51013 9.33333 5.33332C9.33333 5.15651 9.40357 4.98694 9.5286 4.86192C9.65362 4.73689 9.82319 4.66665 10 4.66665C10.1768 4.66665 10.3464 4.73689 10.4714 4.86192C10.5964 4.98694 10.6667 5.15651 10.6667 5.33332C10.6667 5.51013 10.5964 5.6797 10.4714 5.80472C10.3464 5.92975 10.1768 5.99999 10 5.99999Z" fill="#001018"/>
</svg>
