<svg width="16" height="16" fill="none" xmlns="http://www.w3.org/2000/svg"><path fill-rule="evenodd" clip-rule="evenodd" d="M8 1.333a5.975 5.975 0 0 0-3.745 1.312v.001l-.969-.969-.943.943.969.968A5.974 5.974 0 0 0 2 7.333V8h12v-.667a5.974 5.974 0 0 0-1.312-3.745l.969-.969-.943-.942-.969.968A5.974 5.974 0 0 0 8 1.333zM14 14V9.333H2V14c0 .368.298.667.667.667h10.666A.667.667 0 0 0 14 14zM6 6a.667.667 0 1 0 0-1.333A.667.667 0 0 0 6 6zm4.667-.667a.667.667 0 1 1-1.334 0 .667.667 0 0 1 1.334 0z" fill="#001018"/></svg>