<svg width="24" height="24" viewBox="0 0 24 24" fill="none" xmlns="http://www.w3.org/2000/svg">
<path fill-rule="evenodd" clip-rule="evenodd" d="M15.8959 0.850006C16.0399 2.14601 15.5239 3.45401 14.7439 4.39001C13.9639 5.32601 12.6919 6.05801 11.4559 5.96201C11.2879 4.69001 11.9119 3.35801 12.6319 2.53001C13.4359 1.59401 14.7799 0.898006 15.8959 0.850006ZM10.2541 6.82838C10.7783 7.03643 11.2458 7.22201 11.6239 7.22201C11.9561 7.22201 12.3894 7.05171 12.902 6.85026C13.7226 6.52775 14.7465 6.12537 15.8839 6.21401C16.5919 6.26201 18.6199 6.47801 19.9399 8.41001C19.8319 8.47001 17.5159 9.81401 17.5399 12.622C17.5759 15.982 20.4799 17.098 20.5159 17.11C20.4919 17.194 20.0479 18.706 18.9799 20.266C18.0559 21.622 17.0959 22.966 15.5839 22.99C14.8537 23.0077 14.3662 22.797 13.8591 22.5779C13.3329 22.3505 12.7856 22.114 11.9239 22.114C11.0083 22.114 10.4323 22.36 9.87741 22.5969C9.39962 22.8009 8.93754 22.9982 8.28794 23.026C6.82394 23.074 5.71994 21.562 4.78394 20.218C2.87594 17.458 1.42394 12.442 3.37994 9.04601C4.35194 7.35401 6.07994 6.28601 7.96394 6.26201C8.77554 6.24155 9.56389 6.55444 10.2541 6.82838Z" fill="#001018"/>
</svg>
