<svg width="16" height="16" fill="none" xmlns="http://www.w3.org/2000/svg"><path fill-rule="evenodd" clip-rule="evenodd" d="M10.597.567c.096.864-.248 1.736-.768 2.36-.52.624-1.368 1.112-2.192 1.048-.112-.848.304-1.736.784-2.288.536-.624 1.432-1.088 2.176-1.12zm-3.76 3.985c.349.139.66.263.912.263.222 0 .51-.114.852-.248.547-.215 1.23-.483 1.988-.424.472.032 1.824.176 2.704 1.464-.072.04-1.616.936-1.6 2.808.024 2.24 1.96 2.984 1.984 2.992a8.04 8.04 0 0 1-1.024 2.104c-.616.904-1.256 1.8-2.264 1.816-.487.011-.811-.129-1.15-.275-.35-.152-.715-.31-1.29-.31-.61 0-.994.165-1.364.323-.319.136-.627.267-1.06.286-.976.032-1.712-.976-2.336-1.872-1.272-1.84-2.24-5.184-.936-7.448.648-1.128 1.8-1.84 3.056-1.856.541-.014 1.067.195 1.527.377z" fill="#001018"/></svg>