<svg width="16" height="16" fill="none" xmlns="http://www.w3.org/2000/svg"><path fill-rule="evenodd" clip-rule="evenodd" d="M7.637 3.975c.824.064 1.672-.424 2.192-1.048.52-.624.864-1.496.768-2.36-.744.032-1.64.496-2.176 1.12-.48.552-.896 1.44-.784 2.288zm2.952.168c.472.032 1.824.176 2.704 1.464-.072.04-1.616.936-1.6 2.808.024 2.24 1.96 2.984 1.984 2.992a8.04 8.04 0 0 1-1.024 2.104c-.616.904-1.256 1.8-2.264 1.816-.487.011-.811-.129-1.15-.275-.35-.152-.715-.31-1.29-.31-.61 0-.994.165-1.364.323-.319.136-.627.267-1.06.286-.976.032-1.712-.976-2.336-1.872-1.272-1.84-2.24-5.184-.936-7.448.648-1.128 1.8-1.84 3.056-1.856.541-.014 1.067.195 1.527.377.35.139.661.263.913.263.222 0 .51-.114.852-.248.547-.215 1.23-.483 1.988-.424zm-.103 1.329c-.315-.025-.654.05-1.173.249.044-.017-.494.193-.645.246-.335.117-.61.181-.919.181-.305 0-.586-.061-.91-.17a7.909 7.909 0 0 1-.337-.124l-.119-.047a21.371 21.371 0 0 0-.18-.071c-.432-.17-.675-.233-.877-.228-.768.01-1.495.453-1.917 1.188-.862 1.496-.385 4.2.874 6.02.67.963 1.038 1.307 1.186 1.303.148-.007.256-.038.522-.15l.11-.048c.67-.286 1.14-.412 1.848-.412.68 0 1.136.124 1.779.402l.112.048c.265.113.361.138.528.134.239-.003.533-.278 1.185-1.236.179-.26.337-.535.474-.813a4.901 4.901 0 0 1-.262-.231c-.86-.819-1.39-1.923-1.405-3.287a4.417 4.417 0 0 1 .94-2.787 2.75 2.75 0 0 0-.814-.167z" fill="#001018"/></svg>