<svg width="16" height="16" viewBox="0 0 16 16" xmlns="http://www.w3.org/2000/svg"><path fill-rule="evenodd" clip-rule="evenodd" d="M10.5973 0.566681C10.6933 1.43068 10.3493 2.30268 9.82933 2.92668C9.30933 3.55068 8.46133 4.03868 7.63732 3.97468C7.52532 3.12668 7.94132 2.23868 8.42133 1.68668C8.95732 1.06268 9.85332 0.598681 10.5973 0.566681ZM6.83601 4.55226C7.18546 4.69096 7.49717 4.81467 7.74925 4.81467C7.97071 4.81467 8.25958 4.70115 8.6013 4.56684C9.14838 4.35184 9.83093 4.08358 10.5893 4.14267C11.0613 4.17467 12.4133 4.31867 13.2933 5.60667C13.2213 5.64668 11.6773 6.54268 11.6933 8.41468C11.7173 10.6547 13.6533 11.3987 13.6773 11.4067C13.6613 11.4627 13.3653 12.4707 12.6533 13.5107C12.0373 14.4147 11.3973 15.3107 10.3893 15.3267C9.90243 15.3385 9.57744 15.198 9.23938 15.0519C8.88858 14.9004 8.52368 14.7427 7.94925 14.7427C7.33886 14.7427 6.95481 14.9067 6.5849 15.0646C6.26637 15.2006 5.95832 15.3322 5.52525 15.3507C4.54925 15.3827 3.81325 14.3747 3.18925 13.4787C1.91725 11.6387 0.949252 8.29467 2.25325 6.03067C2.90125 4.90267 4.05325 4.19067 5.30925 4.17467C5.85032 4.16103 6.37589 4.36963 6.83601 4.55226Z"/></svg>