<svg width="16" height="16" viewBox="0 0 16 16" xmlns="http://www.w3.org/2000/svg"><path fill-rule="evenodd" clip-rule="evenodd" d="M8.00004 1.33331C11.68 1.33331 14.6667 4.31998 14.6667 7.99998C14.6667 11.68 11.68 14.6666 8.00004 14.6666C4.32004 14.6666 1.33337 11.68 1.33337 7.99998C1.33337 4.31998 4.32004 1.33331 8.00004 1.33331ZM8.00004 13.3333C10.9467 13.3333 13.3334 10.9466 13.3334 7.99998C13.3334 5.05331 10.9467 2.66665 8.00004 2.66665C5.05337 2.66665 2.66671 5.05331 2.66671 7.99998C2.66671 10.9466 5.05337 13.3333 8.00004 13.3333ZM10.6667 7.99998H8.66671V5.33331H7.33337V7.99998H5.33337L8.00004 10.6666L10.6667 7.99998Z"/></svg>