<svg width="16" height="16" viewBox="0 0 16 16" fill="none" xmlns="http://www.w3.org/2000/svg">
<path fill-rule="evenodd" clip-rule="evenodd" d="M8 1.33333C11.68 1.33333 14.6667 4.31999 14.6667 8C14.6667 11.68 11.68 14.6667 8 14.6667C4.31999 14.6667 1.33333 11.68 1.33333 8C1.33333 4.31999 4.31999 1.33333 8 1.33333ZM7.99999 13.3333C10.9467 13.3333 13.3333 10.9467 13.3333 7.99999C13.3333 5.05333 10.9467 2.66666 7.99999 2.66666C5.05333 2.66666 2.66666 5.05333 2.66666 7.99999C2.66666 10.9467 5.05333 13.3333 7.99999 13.3333ZM10.6667 8H8.66666V5.33333H7.33333V8H5.33333L8 10.6667L10.6667 8Z" fill="#001018"/>
</svg>
