<svg width="16" height="16" viewBox="0 0 16 16" fill="none" xmlns="http://www.w3.org/2000/svg">
<path fill-rule="evenodd" clip-rule="evenodd" d="M8 1.33333C11.68 1.33333 14.6667 4.31999 14.6667 8C14.6667 11.68 11.68 14.6667 8 14.6667C4.32 14.6667 1.33334 11.68 1.33334 8C1.33334 4.31999 4.32 1.33333 8 1.33333ZM8 7.33333V5.33333L10.6667 8L8 10.6667V8.66666H5.33334V7.33333H8ZM13.3333 7.99999C13.3333 10.9467 10.9467 13.3333 8 13.3333C5.05334 13.3333 2.66667 10.9467 2.66667 7.99999C2.66667 5.05333 5.05334 2.66666 8 2.66666C10.9467 2.66666 13.3333 5.05333 13.3333 7.99999Z" fill="#001018"/>
</svg>
