<svg width="16" height="16" viewBox="0 0 16 16" fill="none" xmlns="http://www.w3.org/2000/svg">
<path fill-rule="evenodd" clip-rule="evenodd" d="M8.00001 1.33333C11.68 1.33333 14.6667 4.31999 14.6667 8C14.6667 11.68 11.68 14.6667 8.00001 14.6667C4.32001 14.6667 1.33334 11.68 1.33334 8C1.33334 4.31999 4.32001 1.33333 8.00001 1.33333ZM8.00001 13.3333C10.9467 13.3333 13.3333 10.9467 13.3333 7.99999C13.3333 5.05333 10.9467 2.66666 8.00001 2.66666C5.05334 2.66666 2.66668 5.05333 2.66668 7.99999C2.66668 10.9467 5.05334 13.3333 8.00001 13.3333ZM8.66668 10.6667V8H10.6667L8.00001 5.33333L5.33334 8H7.33334V10.6667H8.66668Z" fill="#001018"/>
</svg>
