<svg width="16" height="16" viewBox="0 0 16 16" fill="none" xmlns="http://www.w3.org/2000/svg">
<path fill-rule="evenodd" clip-rule="evenodd" d="M8 1.33334C11.68 1.33334 14.6667 4.32 14.6667 8C14.6667 11.68 11.68 14.6667 8 14.6667C4.32 14.6667 1.33333 11.68 1.33333 8C1.33333 4.32 4.32 1.33334 8 1.33334ZM8 13.3333C10.9467 13.3333 13.3333 10.9467 13.3333 8C13.3333 5.05334 10.9467 2.66667 8 2.66667C5.05333 2.66667 2.66667 5.05334 2.66667 8C2.66667 10.9467 5.05333 13.3333 8 13.3333ZM10.6667 7.33334H8V5.33334L5.33333 8L8 10.6667V8.66667H10.6667V7.33334Z" fill="#001018"/>
</svg>
