<svg width="16" height="16" viewBox="0 0 16 16" fill="none" xmlns="http://www.w3.org/2000/svg">
<path d="M9.88535 5.17136L6.11468 8.94269C5.94138 9.11008 5.87187 9.35795 5.93288 9.59103C5.99389 9.82412 6.17592 10.0061 6.40901 10.0672C6.64209 10.1282 6.88996 10.0587 7.05735 9.88536L10.8287 6.11469C11.6098 5.33358 11.6098 4.06714 10.8287 3.28603C10.0476 2.50491 8.78113 2.50491 8.00001 3.28603L4.22868 7.05736C3.36884 7.89579 3.0265 9.13194 3.3325 10.2932C3.63851 11.4546 4.54556 12.3615 5.70692 12.6673C6.86827 12.9732 8.10437 12.6306 8.94268 11.7707L12.714 8.00003L13.6567 8.94269L9.88535 12.714C8.70637 13.893 6.98797 14.3534 5.37746 13.9219C3.76695 13.4904 2.509 12.2324 2.07746 10.6219C1.64593 9.0114 2.10637 7.293 3.28535 6.11403L7.05735 2.34336C8.36528 1.08012 10.4443 1.09819 11.7301 2.38397C13.0159 3.66974 13.0339 5.74876 11.7707 7.05669L8.00001 10.8294C7.4946 11.3347 6.75801 11.5319 6.06771 11.3469C5.37741 11.1618 4.83827 10.6226 4.65338 9.93221C4.46848 9.24186 4.66593 8.50532 5.17135 8.00003L8.94268 4.22869L9.88535 5.17136Z" fill="#001018"/>
</svg>
