<svg width="24" height="24" viewBox="0 0 24 24" fill="none" xmlns="http://www.w3.org/2000/svg">
<path d="M14.828 7.75699L9.17196 13.414C8.912 13.6651 8.80775 14.0369 8.89926 14.3865C8.99078 14.7361 9.26382 15.0092 9.61345 15.1007C9.96308 15.1922 10.3349 15.088 10.586 14.828L16.243 9.17199C17.4146 8.00032 17.4146 6.10067 16.243 4.92899C15.0713 3.75732 13.1716 3.75732 12 4.92899L6.34296 10.586C5.05321 11.8436 4.53968 13.6979 4.99869 15.4398C5.45771 17.1818 6.81828 18.5422 8.56032 19.0009C10.3023 19.4597 12.1565 18.9459 13.414 17.656L19.071 12L20.485 13.414L14.828 19.071C13.0595 20.8395 10.4819 21.5301 8.06613 20.8828C5.65036 20.2355 3.76344 18.3486 3.11613 15.9328C2.46883 13.5171 3.15949 10.9395 4.92796 9.17099L10.586 3.51499C12.5479 1.62013 15.6664 1.64723 17.5951 3.5759C19.5237 5.50457 19.5508 8.6231 17.656 10.585L12 16.244C11.2418 17.0019 10.137 17.2978 9.1015 17.0203C8.06605 16.7427 7.25734 15.9338 6.98 14.8983C6.70267 13.8627 6.99884 12.7579 7.75696 12L13.414 6.34299L14.828 7.75699Z" fill="#001018"/>
</svg>
