<svg width="16" height="16" viewBox="0 0 16 16" fill="none" xmlns="http://www.w3.org/2000/svg">
<path d="M9.88535 5.17134L6.11468 8.94267C5.94138 9.11005 5.87187 9.35792 5.93288 9.59101C5.99389 9.82409 6.17592 10.0061 6.40901 10.0671C6.64209 10.1281 6.88996 10.0586 7.05735 9.88534L10.8287 6.11467C11.6098 5.33356 11.6098 4.06712 10.8287 3.286C10.0476 2.50489 8.78113 2.50489 8.00001 3.286L4.22868 7.05734C3.36884 7.89577 3.0265 9.13191 3.3325 10.2932C3.63851 11.4545 4.54556 12.3615 5.70692 12.6673C6.86827 12.9731 8.10437 12.6306 8.94268 11.7707L12.714 8L13.6567 8.94267L9.88535 12.714C8.70637 13.893 6.98797 14.3534 5.37746 13.9219C3.76695 13.4904 2.509 12.2324 2.07746 10.6219C1.64593 9.01138 2.10637 7.29298 3.28535 6.114L7.05735 2.34334C8.36528 1.0801 10.4443 1.09816 11.7301 2.38394C13.0159 3.66972 13.0339 5.74874 11.7707 7.05667L8.00001 10.8293C7.4946 11.3346 6.75801 11.5319 6.06771 11.3469C5.37741 11.1618 4.83827 10.6225 4.65338 9.93218C4.46848 9.24184 4.66593 8.5053 5.17135 8L8.94268 4.22867L9.88535 5.17134Z" fill="#001018"/>
</svg>
