<svg width="16" height="16" viewBox="0 0 16 16" xmlns="http://www.w3.org/2000/svg"><path d="M9.88535 5.17133L6.11468 8.94266C5.94138 9.11005 5.87187 9.35791 5.93288 9.591C5.99389 9.82409 6.17592 10.0061 6.40901 10.0671C6.64209 10.1281 6.88996 10.0586 7.05735 9.88533L10.8287 6.11466C11.6098 5.33355 11.6098 4.06711 10.8287 3.286C10.0476 2.50488 8.78113 2.50488 8.00001 3.286L4.22868 7.05733C3.36884 7.89576 3.0265 9.13191 3.3325 10.2932C3.63851 11.4545 4.54556 12.3615 5.70692 12.6673C6.86827 12.9731 8.10437 12.6306 8.94268 11.7707L12.714 8L13.6567 8.94266L9.88535 12.714C8.70637 13.893 6.98797 14.3534 5.37746 13.9219C3.76695 13.4903 2.509 12.2324 2.07746 10.6219C1.64593 9.01137 2.10637 7.29297 3.28535 6.114L7.05735 2.34333C8.36528 1.08009 10.4443 1.09816 11.7301 2.38393C13.0159 3.66971 13.0339 5.74873 11.7707 7.05666L8.00001 10.8293C7.4946 11.3346 6.75801 11.5319 6.06771 11.3468C5.37741 11.1618 4.83827 10.6225 4.65338 9.93218C4.46848 9.24183 4.66593 8.50529 5.17135 8L8.94268 4.22866L9.88535 5.17133Z"/></svg>