<svg width="16" height="16" viewBox="0 0 16 16" fill="none" xmlns="http://www.w3.org/2000/svg">
<path fill-rule="evenodd" clip-rule="evenodd" d="M11.3335 10.164V14.7447C11.3335 14.8648 11.2689 14.9756 11.1645 15.0348C11.06 15.094 10.9318 15.0924 10.8288 15.0307L8.00014 13.3334L5.17147 15.0307C5.06837 15.0925 4.94001 15.094 4.8355 15.0346C4.73099 14.9752 4.66654 14.8642 4.6668 14.744V10.164C2.89898 8.74864 2.21778 6.37115 2.9678 4.23434C3.71782 2.09752 5.73552 0.667358 8.00014 0.667358C10.2648 0.667358 12.2825 2.09752 13.0325 4.23434C13.7825 6.37115 13.1013 8.74864 11.3335 10.164ZM8 10C10.2091 10 12 8.20914 12 6C12 3.79086 10.2091 2 8 2C5.79086 2 4 3.79086 4 6C4 8.20914 5.79086 10 8 10ZM5.33346 6.00002C5.33346 7.47277 6.52737 8.66668 8.00013 8.66668C9.47288 8.66668 10.6668 7.47277 10.6668 6.00002C10.6668 4.52726 9.47288 3.33335 8.00013 3.33335C6.52737 3.33335 5.33346 4.52726 5.33346 6.00002Z" fill="#001018"/>
</svg>
