<svg width="16" height="16" viewBox="0 0 16 16" fill="none" xmlns="http://www.w3.org/2000/svg">
<path fill-rule="evenodd" clip-rule="evenodd" d="M11.3333 10.164V14.7447C11.3334 14.8647 11.2688 14.9755 11.1644 15.0347C11.0599 15.0939 10.9317 15.0924 10.8287 15.0307L8.00002 13.3333L5.17135 15.0307C5.06825 15.0924 4.93988 15.0939 4.83538 15.0346C4.73087 14.9752 4.66642 14.8642 4.66668 14.744V10.164C2.89886 8.7486 2.21765 6.37112 2.96768 4.23431C3.7177 2.09749 5.73539 0.667328 8.00002 0.667328C10.2646 0.667328 12.2823 2.09749 13.0324 4.23431C13.7824 6.37112 13.1012 8.7486 11.3333 10.164ZM8 9.99998C10.2091 9.99998 12 8.20912 12 5.99998C12 3.79085 10.2091 1.99998 8 1.99998C5.79086 1.99998 4 3.79085 4 5.99998C4 8.20912 5.79086 9.99998 8 9.99998ZM5.33334 5.99998C5.33334 7.47274 6.52724 8.66665 8 8.66665C9.47276 8.66665 10.6667 7.47274 10.6667 5.99998C10.6667 4.52723 9.47276 3.33332 8 3.33332C6.52724 3.33332 5.33334 4.52723 5.33334 5.99998Z" fill="#001018"/>
</svg>
