<svg width="16" height="16" viewBox="0 0 16 16" fill="none" xmlns="http://www.w3.org/2000/svg">
<path d="M2.66671 10.6667V13.3334H5.33337V14.6667H1.33337V10.6667H2.66671ZM14.6667 10.6667V14.6667H10.6667V13.3334H13.3334V10.6667H14.6667ZM5.00004 4.66671C5.00004 5.46236 5.31611 6.22542 5.87872 6.78803C6.44133 7.35064 7.20439 7.66671 8.00004 7.66671C8.79569 7.66671 9.55875 7.35064 10.1214 6.78803C10.684 6.22542 11 5.46236 11 4.66671H12.3334C12.3335 5.45964 12.1161 6.23741 11.7048 6.91532C11.2935 7.59323 10.7041 8.14529 10.0007 8.51137L10 12.6667H6.00004V8.51204C5.29646 8.14599 4.70683 7.59386 4.29539 6.91582C3.88396 6.23777 3.6665 5.45982 3.66671 4.66671H5.00004ZM8.00004 3.33337C8.44207 3.33337 8.86599 3.50897 9.17855 3.82153C9.49111 4.13409 9.66671 4.55801 9.66671 5.00004C9.66671 5.44207 9.49111 5.86599 9.17855 6.17855C8.86599 6.49111 8.44207 6.66671 8.00004 6.66671C7.55801 6.66671 7.13409 6.49111 6.82153 6.17855C6.50897 5.86599 6.33337 5.44207 6.33337 5.00004C6.33337 4.55801 6.50897 4.13409 6.82153 3.82153C7.13409 3.50897 7.55801 3.33337 8.00004 3.33337ZM5.33337 1.33337V2.66671L2.66671 2.66604V5.33337H1.33337V1.33337H5.33337ZM14.6667 1.33337V5.33337H13.3334V2.66671H10.6667V1.33337H14.6667Z" fill="#001018"/>
</svg>
