<svg width="16" height="16" viewBox="0 0 16 16" fill="none" xmlns="http://www.w3.org/2000/svg">
<path d="M2.66665 10.6667V13.3334H5.33331V14.6667H1.33331V10.6667H2.66665ZM14.6666 10.6667V14.6667H10.6666V13.3334H13.3333V10.6667H14.6666ZM4.99998 4.66671C4.99999 5.3466 5.23085 6.00635 5.65475 6.53792C6.07865 7.06949 6.67047 7.44138 7.33331 7.59271V11.3334H8.66665L8.66731 7.59204C9.32992 7.44061 9.92151 7.06876 10.3453 6.53734C10.769 6.00592 10.9999 5.3464 11 4.66671H12.3333C12.3335 5.45964 12.116 6.23741 11.7047 6.91532C11.2934 7.59323 10.704 8.14529 10.0006 8.51137L9.99998 12.6667H5.99998V8.51204C5.2964 8.14599 4.70677 7.59386 4.29533 6.91582C3.8839 6.23777 3.66644 5.45982 3.66665 4.66671H4.99998ZM7.99998 3.33337C8.44201 3.33337 8.86593 3.50897 9.17849 3.82153C9.49105 4.13409 9.66665 4.55801 9.66665 5.00004C9.66665 5.44207 9.49105 5.86599 9.17849 6.17855C8.86593 6.49111 8.44201 6.66671 7.99998 6.66671C7.55795 6.66671 7.13403 6.49111 6.82147 6.17855C6.50891 5.86599 6.33331 5.44207 6.33331 5.00004C6.33331 4.55801 6.50891 4.13409 6.82147 3.82153C7.13403 3.50897 7.55795 3.33337 7.99998 3.33337ZM5.33331 1.33337V2.66671L2.66665 2.66604V5.33337H1.33331V1.33337H5.33331ZM14.6666 1.33337V5.33337H13.3333V2.66671H10.6666V1.33337H14.6666Z" fill="#001018"/>
</svg>
