<svg width="16" height="16" viewBox="0 0 16 16" fill="none" xmlns="http://www.w3.org/2000/svg">
<path d="M2.66683 10.6667V13.3334H5.3335V14.6667H1.3335V10.6667H2.66683ZM14.6668 10.6667V14.6667H10.6668V13.3334H13.3335V10.6667H14.6668ZM5.00016 4.66671C5.00017 5.3466 5.23103 6.00635 5.65493 6.53792C6.07883 7.06949 6.67065 7.44138 7.3335 7.59271V11.3334H8.66683L8.6675 7.59204C9.3301 7.44061 9.92169 7.06876 10.3454 6.53734C10.7692 6.00592 11 5.3464 11.0002 4.66671H12.3335C12.3336 5.45964 12.1162 6.23741 11.7049 6.91532C11.2936 7.59323 10.7042 8.14529 10.0008 8.51137L10.0002 12.6667H6.00016V8.51204C5.29658 8.14599 4.70695 7.59386 4.29551 6.91582C3.88408 6.23777 3.66662 5.45982 3.66683 4.66671H5.00016ZM8.00016 3.33337C8.44219 3.33337 8.86611 3.50897 9.17867 3.82153C9.49123 4.13409 9.66683 4.55801 9.66683 5.00004C9.66683 5.44207 9.49123 5.86599 9.17867 6.17855C8.86611 6.49111 8.44219 6.66671 8.00016 6.66671C7.55814 6.66671 7.13421 6.49111 6.82165 6.17855C6.50909 5.86599 6.3335 5.44207 6.3335 5.00004C6.3335 4.55801 6.50909 4.13409 6.82165 3.82153C7.13421 3.50897 7.55814 3.33337 8.00016 3.33337ZM5.3335 1.33337V2.66671L2.66683 2.66604V5.33337H1.3335V1.33337H5.3335ZM14.6668 1.33337V5.33337H13.3335V2.66671H10.6668V1.33337H14.6668Z" fill="#001018"/>
</svg>
