<svg width="16" height="16" viewBox="0 0 16 16" fill="none" xmlns="http://www.w3.org/2000/svg">
<path fill-rule="evenodd" clip-rule="evenodd" d="M14 2.66666H11.3333V1.33333H10V2.66666H6V1.33333H4.66667V2.66666H2C1.63181 2.66666 1.33334 2.96514 1.33334 3.33333V14C1.33334 14.3682 1.63181 14.6667 2 14.6667H14C14.3682 14.6667 14.6667 14.3682 14.6667 14V3.33333C14.6667 2.96514 14.3682 2.66666 14 2.66666ZM5.33334 8.66666V7.33333H4V8.66666H5.33334ZM5.33334 10V11.3333H4V10H5.33334ZM8.66667 7.33333H7.33334V8.66666H8.66667V7.33333ZM7.33334 10H8.66667V11.3333H7.33334V10ZM12 8.66666V7.33333H10.6667V8.66666H12ZM12 10V11.3333H10.6667V10H12ZM6 3.99999H10V5.33333H11.3333V3.99999H13.3333V13.3267H2.66667V3.99999H4.66667V5.33333H6V3.99999Z" fill="#001018"/>
</svg>
