<svg width="16" height="16" fill="none" xmlns="http://www.w3.org/2000/svg"><path fill-rule="evenodd" clip-rule="evenodd" d="M11.333 2.667H14c.368 0 .667.298.667.666V14a.667.667 0 0 1-.667.667H2A.667.667 0 0 1 1.333 14V3.333c0-.368.299-.666.667-.666h2.667V1.333H6v1.334h4V1.333h1.333v1.334zm-5.816 9.411c.607 0 1.094-.152 1.463-.457.368-.305.553-.71.553-1.215 0-.312-.08-.583-.237-.812-.157-.23-.396-.401-.717-.516.258-.117.467-.285.625-.504a1.19 1.19 0 0 0 .239-.719c0-.505-.17-.901-.512-1.189-.341-.288-.813-.432-1.414-.432-.346 0-.663.067-.951.2a1.6 1.6 0 0 0-.672.552c-.16.236-.24.502-.24.8h1.129a.57.57 0 0 1 .218-.464.833.833 0 0 1 .543-.177c.24 0 .428.063.565.19.136.129.205.307.205.536 0 .237-.07.427-.207.57-.138.144-.35.215-.637.215h-.602v.883h.598c.625 0 .938.284.938.852a.735.735 0 0 1-.229.564c-.152.142-.362.213-.63.213a.885.885 0 0 1-.593-.203.654.654 0 0 1-.24-.524H3.583c0 .493.18.888.541 1.188.361.3.825.45 1.393.45zm4.703 0c.628 0 1.104-.208 1.43-.625.325-.416.488-1.018.488-1.805V8.602c-.008-.763-.176-1.349-.504-1.756-.328-.408-.802-.612-1.422-.612-.62 0-1.094.206-1.424.618-.329.411-.494 1.014-.494 1.808v1.047c.008.763.176 1.349.504 1.758.328.409.802.613 1.422.613zm-.607-1.248c.126.225.328.338.607.338.276 0 .475-.108.598-.324.122-.216.186-.547.191-.992V8.5c0-.471-.064-.814-.193-1.03-.13-.214-.33-.322-.604-.322-.265 0-.461.103-.588.307-.126.205-.193.524-.2.96v1.382c0 .463.062.808.189 1.033zM6 4h4v1.333h1.333V4h2v9.327H2.667V4h2v1.333H6V4z" fill="#001018"/></svg>