<svg width="16" height="16" viewBox="0 0 16 16" fill="none" xmlns="http://www.w3.org/2000/svg">
<path fill-rule="evenodd" clip-rule="evenodd" d="M14 2.66668H11.3333V1.33334H10V2.66668H6V1.33334H4.66667V2.66668H2C1.63181 2.66668 1.33334 2.96515 1.33334 3.33334V14C1.33334 14.3682 1.63181 14.6667 2 14.6667H14C14.3682 14.6667 14.6667 14.3682 14.6667 14V3.33334C14.6667 2.96515 14.3682 2.66668 14 2.66668ZM5.33334 8.66668V7.33334H4V8.66668H5.33334ZM5.33334 10V11.3333H4V10H5.33334ZM8.66667 7.33334H7.33334V8.66668H8.66667V7.33334ZM7.33334 10H8.66667V11.3333H7.33334V10ZM12 8.66668V7.33334H10.6667V8.66668H12ZM12 10V11.3333H10.6667V10H12ZM2.66667 5.33334H13.3333V13.3333H2.66667V5.33334Z" fill="#001018"/>
</svg>
