<svg width="16" height="16" viewBox="0 0 16 16" fill="none" xmlns="http://www.w3.org/2000/svg">
<path fill-rule="evenodd" clip-rule="evenodd" d="M6 1.33334V2.66668H10V1.33334H11.3333V2.66668H14C14.3682 2.66668 14.6667 2.96515 14.6667 3.33334V14C14.6667 14.3682 14.3682 14.6667 14 14.6667H2C1.63181 14.6667 1.33334 14.3682 1.33334 14V3.33334C1.33334 2.96515 1.63181 2.66668 2 2.66668H4.66667V1.33334H6ZM13.3333 6.00001H2.66667V13.3333H13.3333V6.00001ZM10.0244 7.42435L10.024 7.42401H10.0247L10.0244 7.42435ZM10.0244 7.42435L7.66738 9.78135L6.25338 8.36668L5.30938 9.30935L7.66671 11.6667L10.9667 8.36668L10.0244 7.42435Z" fill="#001018"/>
</svg>
