<svg width="24" height="24" viewBox="0 0 24 24" fill="none" xmlns="http://www.w3.org/2000/svg">
<path d="M16.9914 3.99443H20.9904C21.5425 3.99443 21.9901 4.44204 21.9901 4.99418V20.9902C21.9901 21.5423 21.5425 21.9899 20.9904 21.9899H2.99487C2.44272 21.9899 1.99512 21.5423 1.99512 20.9902V4.99418C1.99512 4.44204 2.44272 3.99443 2.99487 3.99443H6.99387V1.99493H8.99337V3.99443H14.9919V1.99493H16.9914V3.99443ZM8.26894 18.1081C9.17887 18.1081 9.91013 17.8796 10.4627 17.4227C11.0153 16.9658 11.2916 16.3585 11.2916 15.6009C11.2916 15.1323 11.1735 14.7261 10.9372 14.3825C10.7009 14.0388 10.3426 13.781 9.86229 13.6092C10.2489 13.4335 10.5613 13.1816 10.7996 12.8535C11.0378 12.5255 11.1569 12.1662 11.1569 11.7757C11.1569 11.0181 10.9011 10.4235 10.3895 9.99196C9.87791 9.56042 9.17106 9.34466 8.26894 9.34466C7.74954 9.34466 7.27407 9.44424 6.84254 9.64341C6.411 9.84258 6.07515 10.1189 5.83498 10.4723C5.5948 10.8257 5.47472 11.225 5.47472 11.6702H7.16765C7.16765 11.3852 7.277 11.1538 7.49569 10.9761C7.71439 10.7984 7.98581 10.7096 8.30994 10.7096C8.66923 10.7096 8.95139 10.8052 9.15641 10.9966C9.36144 11.1879 9.46395 11.4555 9.46395 11.7991C9.46395 12.1545 9.36046 12.4396 9.15348 12.6544C8.9465 12.8692 8.62822 12.9766 8.19864 12.9766H7.29653V14.3004H8.19279C9.13005 14.3004 9.59868 14.7261 9.59868 15.5775C9.59868 15.9289 9.48445 16.2111 9.256 16.4239C9.02754 16.6368 8.71219 16.7432 8.30994 16.7432C7.95847 16.7432 7.66264 16.6417 7.42247 16.4386C7.1823 16.2355 7.06221 15.9739 7.06221 15.6536H5.36927C5.36927 16.3917 5.63971 16.9853 6.18059 17.4344C6.72147 17.8835 7.41759 18.1081 8.26894 18.1081ZM15.3219 18.1081C16.263 18.1081 16.9777 17.7957 17.4659 17.1708C17.954 16.546 18.1981 15.6439 18.1981 14.4645V12.8946C18.1864 11.7503 17.9345 10.8726 17.4424 10.2614C16.9504 9.65025 16.2396 9.34466 15.3101 9.34466C14.3807 9.34466 13.669 9.65317 13.1749 10.2702C12.6809 10.8872 12.4339 11.7913 12.4339 12.9824V14.5523C12.4456 15.6966 12.6975 16.5753 13.1896 17.1884C13.6816 17.8015 14.3924 18.1081 15.3219 18.1081ZM15.3219 16.7432C14.904 16.7432 14.6004 16.5743 14.411 16.2365C14.2215 15.8987 14.1268 15.3822 14.1268 14.6871V12.6134C14.1386 11.9612 14.2391 11.4818 14.4285 11.1753C14.6179 10.8687 14.9118 10.7154 15.3101 10.7154C15.7202 10.7154 16.0219 10.8765 16.2152 11.1987C16.4085 11.5209 16.5052 12.0354 16.5052 12.7422V14.7691C16.4973 15.4369 16.4017 15.9329 16.2181 16.257C16.0346 16.5811 15.7358 16.7432 15.3219 16.7432ZM3.99462 8.00006V19.9804H19.9906V8.00006H3.99462Z" fill="#001018"/>
</svg>
