<svg width="16" height="16" xmlns="http://www.w3.org/2000/svg"><path d="M11.328 2.663h2.666c.368 0 .666.298.666.667v10.663a.666.666 0 0 1-.666.667H1.997a.666.666 0 0 1-.667-.667V3.33c0-.368.298-.666.667-.666h2.666V1.33h1.333v1.333h3.999V1.33h1.333v1.333zm-5.815 9.41c.606 0 1.094-.153 1.462-.458.369-.304.553-.71.553-1.214 0-.313-.079-.584-.237-.813-.157-.229-.396-.4-.716-.515.258-.117.466-.285.625-.504.159-.219.238-.458.238-.718 0-.506-.17-.902-.512-1.19-.34-.287-.812-.431-1.413-.431-.347 0-.664.066-.951.199a1.6 1.6 0 0 0-.672.553c-.16.235-.24.501-.24.798h1.128c0-.19.073-.344.22-.463a.833.833 0 0 1 .542-.177c.24 0 .428.064.564.191.137.128.205.306.205.535 0 .237-.069.427-.207.57-.138.143-.35.215-.636.215h-.602v.883h.598c.625 0 .937.283.937.851a.735.735 0 0 1-.228.564c-.153.142-.363.213-.631.213a.885.885 0 0 1-.592-.203.654.654 0 0 1-.24-.523H3.58c0 .492.18.888.54 1.187.361.3.825.45 1.393.45zm4.702 0c.627 0 1.104-.21 1.429-.626.325-.416.488-1.018.488-1.804V8.596c-.008-.762-.176-1.348-.504-1.755-.328-.407-.802-.611-1.421-.611-.62 0-1.094.205-1.424.617-.329.411-.494 1.014-.494 1.808v1.047c.008.762.176 1.348.504 1.757.328.409.802.613 1.422.613zm0-.91c-.279 0-.481-.113-.608-.339-.126-.225-.19-.57-.19-1.033V8.41c.009-.435.076-.754.202-.959.126-.204.322-.306.588-.306.273 0 .474.107.603.322.129.215.193.558.193 1.029v1.351c-.005.445-.069.776-.19.992-.123.216-.322.324-.598.324zm-.22-7.167h-4v1.333H4.664V3.996h-2v9.324h10.664V3.996h-2v1.333H9.996V3.996z"/></svg>