<svg width="24" height="24" viewBox="0 0 24 24" fill="none" xmlns="http://www.w3.org/2000/svg">
<path d="M2.00002 6C2.00002 5.448 2.45502 5 2.99202 5H21.008C21.556 5 22 5.445 22 6V20C22 20.552 21.545 21 21.008 21H2.99202C2.86115 20.9997 2.73161 20.9736 2.61085 20.9232C2.4901 20.8727 2.38049 20.7989 2.28832 20.706C2.19615 20.6131 2.12324 20.5029 2.07376 20.3818C2.02429 20.2606 1.99923 20.1309 2.00002 20V6ZM4.00002 7V19H20V7H4.00002ZM14 16C14.7957 16 15.5587 15.6839 16.1213 15.1213C16.6839 14.5587 17 13.7956 17 13C17 12.2044 16.6839 11.4413 16.1213 10.8787C15.5587 10.3161 14.7957 10 14 10C13.2044 10 12.4413 10.3161 11.8787 10.8787C11.3161 11.4413 11 12.2044 11 13C11 13.7956 11.3161 14.5587 11.8787 15.1213C12.4413 15.6839 13.2044 16 14 16ZM14 18C12.6739 18 11.4022 17.4732 10.4645 16.5355C9.5268 15.5979 9.00002 14.3261 9.00002 13C9.00002 11.6739 9.5268 10.4021 10.4645 9.46447C11.4022 8.52678 12.6739 8 14 8C15.3261 8 16.5979 8.52678 17.5356 9.46447C18.4732 10.4021 19 11.6739 19 13C19 14.3261 18.4732 15.5979 17.5356 16.5355C16.5979 17.4732 15.3261 18 14 18ZM4.00002 2H10V4H4.00002V2Z" fill="#001018"/>
</svg>
