<svg width="16" height="16" viewBox="0 0 16 16" fill="none" xmlns="http://www.w3.org/2000/svg">
<path d="M1.33333 3.99998C1.33333 3.63198 1.63666 3.33331 1.99466 3.33331H14.0053C14.3707 3.33331 14.6667 3.62998 14.6667 3.99998V13.3333C14.6667 13.7013 14.3633 14 14.0053 14H1.99466C1.90741 13.9998 1.82106 13.9824 1.74055 13.9488C1.66004 13.9151 1.58697 13.8659 1.52553 13.804C1.46408 13.7421 1.41547 13.6686 1.38249 13.5878C1.34951 13.5071 1.3328 13.4206 1.33333 13.3333V3.99998ZM2.66666 4.66665V12.6666H13.3333V4.66665H2.66666ZM9.33333 10.6666C9.86376 10.6666 10.3725 10.4559 10.7475 10.0809C11.1226 9.70579 11.3333 9.19708 11.3333 8.66665C11.3333 8.13621 11.1226 7.62751 10.7475 7.25243C10.3725 6.87736 9.86376 6.66665 9.33333 6.66665C8.80289 6.66665 8.29418 6.87736 7.91911 7.25243C7.54404 7.62751 7.33333 8.13621 7.33333 8.66665C7.33333 9.19708 7.54404 9.70579 7.91911 10.0809C8.29418 10.4559 8.80289 10.6666 9.33333 10.6666V10.6666ZM9.33333 12C8.44927 12 7.60142 11.6488 6.9763 11.0237C6.35118 10.3985 5.99999 9.5507 5.99999 8.66665C5.99999 7.78259 6.35118 6.93475 6.9763 6.30962C7.60142 5.6845 8.44927 5.33331 9.33333 5.33331C10.2174 5.33331 11.0652 5.6845 11.6903 6.30962C12.3155 6.93475 12.6667 7.78259 12.6667 8.66665C12.6667 9.5507 12.3155 10.3985 11.6903 11.0237C11.0652 11.6488 10.2174 12 9.33333 12V12ZM2.66666 1.33331H6.66666V2.66665H2.66666V1.33331Z" fill="#001018"/>
</svg>
