<svg width="16" height="16" viewBox="0 0 16 16" fill="none" xmlns="http://www.w3.org/2000/svg">
<path d="M12.6666 13.3334H3.33331V14C3.33331 14.1768 3.26307 14.3464 3.13805 14.4714C3.01303 14.5965 2.84346 14.6667 2.66665 14.6667H1.99998C1.82317 14.6667 1.6536 14.5965 1.52858 14.4714C1.40355 14.3464 1.33331 14.1768 1.33331 14V7.33335L2.98665 3.47469C3.08953 3.23469 3.26062 3.03018 3.47868 2.88654C3.69675 2.7429 3.95219 2.66646 4.21331 2.66669H11.7866C12.0475 2.66672 12.3027 2.74329 12.5205 2.88691C12.7383 3.03053 12.9092 3.2349 13.012 3.47469L14.6666 7.33335V14C14.6666 14.1768 14.5964 14.3464 14.4714 14.4714C14.3464 14.5965 14.1768 14.6667 14 14.6667H13.3333C13.1565 14.6667 12.9869 14.5965 12.8619 14.4714C12.7369 14.3464 12.6666 14.1768 12.6666 14V13.3334ZM13.3333 8.66669H2.66665V12H13.3333V8.66669ZM2.78398 7.33335H13.216L11.7873 4.00002H4.21331L2.78465 7.33335H2.78398ZM4.33331 11.3334C4.0681 11.3334 3.81374 11.228 3.62621 11.0405C3.43867 10.8529 3.33331 10.5986 3.33331 10.3334C3.33331 10.0681 3.43867 9.81378 3.62621 9.62625C3.81374 9.43871 4.0681 9.33336 4.33331 9.33336C4.59853 9.33336 4.85288 9.43871 5.04042 9.62625C5.22796 9.81378 5.33331 10.0681 5.33331 10.3334C5.33331 10.5986 5.22796 10.8529 5.04042 11.0405C4.85288 11.228 4.59853 11.3334 4.33331 11.3334V11.3334ZM11.6666 11.3334C11.4014 11.3334 11.1471 11.228 10.9595 11.0405C10.772 10.8529 10.6666 10.5986 10.6666 10.3334C10.6666 10.0681 10.772 9.81378 10.9595 9.62625C11.1471 9.43871 11.4014 9.33336 11.6666 9.33336C11.9319 9.33336 12.1862 9.43871 12.3738 9.62625C12.5613 9.81378 12.6666 10.0681 12.6666 10.3334C12.6666 10.5986 12.5613 10.8529 12.3738 11.0405C12.1862 11.228 11.9319 11.3334 11.6666 11.3334V11.3334Z" fill="#001018"/>
</svg>
