<svg width="16" height="16" viewBox="0 0 16 16" fill="none" xmlns="http://www.w3.org/2000/svg">
<path d="M12.6668 13.3334H3.3335V14C3.3335 14.1768 3.26326 14.3464 3.13823 14.4714C3.01321 14.5965 2.84364 14.6667 2.66683 14.6667H2.00016C1.82335 14.6667 1.65378 14.5965 1.52876 14.4714C1.40373 14.3464 1.3335 14.1768 1.3335 14V7.33335L2.98683 3.47469C3.08971 3.23469 3.2608 3.03018 3.47887 2.88654C3.69693 2.7429 3.95237 2.66646 4.2135 2.66669H11.7868C12.0477 2.66672 12.3029 2.74329 12.5207 2.88691C12.7385 3.03053 12.9094 3.2349 13.0122 3.47469L14.6668 7.33335V14C14.6668 14.1768 14.5966 14.3464 14.4716 14.4714C14.3465 14.5965 14.177 14.6667 14.0002 14.6667H13.3335C13.1567 14.6667 12.9871 14.5965 12.8621 14.4714C12.7371 14.3464 12.6668 14.1768 12.6668 14V13.3334ZM13.3335 8.66669H2.66683V12H13.3335V8.66669ZM2.78416 7.33335H13.2162L11.7875 4.00002H4.2135L2.78483 7.33335H2.78416ZM4.3335 11.3334C4.06828 11.3334 3.81393 11.228 3.62639 11.0405C3.43885 10.8529 3.3335 10.5986 3.3335 10.3334C3.3335 10.0681 3.43885 9.81378 3.62639 9.62625C3.81393 9.43871 4.06828 9.33335 4.3335 9.33335C4.59871 9.33335 4.85307 9.43871 5.0406 9.62625C5.22814 9.81378 5.3335 10.0681 5.3335 10.3334C5.3335 10.5986 5.22814 10.8529 5.0406 11.0405C4.85307 11.228 4.59871 11.3334 4.3335 11.3334ZM11.6668 11.3334C11.4016 11.3334 11.1473 11.228 10.9597 11.0405C10.7722 10.8529 10.6668 10.5986 10.6668 10.3334C10.6668 10.0681 10.7722 9.81378 10.9597 9.62625C11.1473 9.43871 11.4016 9.33335 11.6668 9.33335C11.932 9.33335 12.1864 9.43871 12.3739 9.62625C12.5615 9.81378 12.6668 10.0681 12.6668 10.3334C12.6668 10.5986 12.5615 10.8529 12.3739 11.0405C12.1864 11.228 11.932 11.3334 11.6668 11.3334Z" fill="#001018"/>
</svg>
