<svg width="16" height="16" viewBox="0 0 16 16" fill="none" xmlns="http://www.w3.org/2000/svg">
<path d="M12.6668 13.3334H3.3335V14C3.3335 14.1768 3.26326 14.3464 3.13823 14.4714C3.01321 14.5964 2.84364 14.6667 2.66683 14.6667H2.00016C1.82335 14.6667 1.65378 14.5964 1.52876 14.4714C1.40373 14.3464 1.3335 14.1768 1.3335 14V8.00002L3.00883 3.53202C3.10412 3.27782 3.27473 3.05876 3.49787 2.90412C3.721 2.74949 3.98602 2.66665 4.2575 2.66669H11.7428C12.0143 2.66665 12.2793 2.74949 12.5025 2.90412C12.7256 3.05876 12.8962 3.27782 12.9915 3.53202L14.6668 8.00002V14C14.6668 14.1768 14.5966 14.3464 14.4716 14.4714C14.3465 14.5964 14.177 14.6667 14.0002 14.6667H13.3335C13.1567 14.6667 12.9871 14.5964 12.8621 14.4714C12.7371 14.3464 12.6668 14.1768 12.6668 14V13.3334ZM2.7575 8.00002H13.2428L11.7428 4.00002H4.2575L2.7575 8.00002ZM4.3335 11.3334C4.59871 11.3334 4.85307 11.228 5.0406 11.0405C5.22814 10.8529 5.3335 10.5986 5.3335 10.3334C5.3335 10.0681 5.22814 9.81378 5.0406 9.62625C4.85307 9.43871 4.59871 9.33335 4.3335 9.33335C4.06828 9.33335 3.81393 9.43871 3.62639 9.62625C3.43885 9.81378 3.3335 10.0681 3.3335 10.3334C3.3335 10.5986 3.43885 10.8529 3.62639 11.0405C3.81393 11.228 4.06828 11.3334 4.3335 11.3334ZM11.6668 11.3334C11.932 11.3334 12.1864 11.228 12.3739 11.0405C12.5615 10.8529 12.6668 10.5986 12.6668 10.3334C12.6668 10.0681 12.5615 9.81378 12.3739 9.62625C12.1864 9.43871 11.932 9.33335 11.6668 9.33335C11.4016 9.33335 11.1473 9.43871 10.9597 9.62625C10.7722 9.81378 10.6668 10.0681 10.6668 10.3334C10.6668 10.5986 10.7722 10.8529 10.9597 11.0405C11.1473 11.228 11.4016 11.3334 11.6668 11.3334Z" fill="#001018"/>
</svg>
