<svg width="16" height="16" viewBox="0 0 16 16" xmlns="http://www.w3.org/2000/svg"><path d="M12.6667 13.3334H3.33337V14C3.33337 14.1768 3.26314 14.3464 3.13811 14.4714C3.01309 14.5964 2.84352 14.6667 2.66671 14.6667H2.00004C1.82323 14.6667 1.65366 14.5964 1.52864 14.4714C1.40361 14.3464 1.33337 14.1768 1.33337 14V8.00002L3.00871 3.53202C3.104 3.27782 3.27461 3.05876 3.49774 2.90412C3.72088 2.74949 3.9859 2.66665 4.25737 2.66669H11.7427C12.0142 2.66665 12.2792 2.74949 12.5023 2.90412C12.7255 3.05876 12.8961 3.27782 12.9914 3.53202L14.6667 8.00002V14C14.6667 14.1768 14.5965 14.3464 14.4714 14.4714C14.3464 14.5964 14.1769 14.6667 14 14.6667H13.3334C13.1566 14.6667 12.987 14.5964 12.862 14.4714C12.7369 14.3464 12.6667 14.1768 12.6667 14V13.3334ZM2.75737 8.00002H13.2427L11.7427 4.00002H4.25737L2.75737 8.00002ZM4.33337 11.3334C4.59859 11.3334 4.85294 11.228 5.04048 11.0405C5.22802 10.8529 5.33337 10.5986 5.33337 10.3334C5.33337 10.0681 5.22802 9.81378 5.04048 9.62625C4.85294 9.43871 4.59859 9.33335 4.33337 9.33335C4.06816 9.33335 3.8138 9.43871 3.62627 9.62625C3.43873 9.81378 3.33337 10.0681 3.33337 10.3334C3.33337 10.5986 3.43873 10.8529 3.62627 11.0405C3.8138 11.228 4.06816 11.3334 4.33337 11.3334ZM11.6667 11.3334C11.9319 11.3334 12.1863 11.228 12.3738 11.0405C12.5613 10.8529 12.6667 10.5986 12.6667 10.3334C12.6667 10.0681 12.5613 9.81378 12.3738 9.62625C12.1863 9.43871 11.9319 9.33335 11.6667 9.33335C11.4015 9.33335 11.1471 9.43871 10.9596 9.62625C10.7721 9.81378 10.6667 10.0681 10.6667 10.3334C10.6667 10.5986 10.7721 10.8529 10.9596 11.0405C11.1471 11.228 11.4015 11.3334 11.6667 11.3334Z"/></svg>