<svg width="16" height="16" fill="none" xmlns="http://www.w3.org/2000/svg"><path fill-rule="evenodd" clip-rule="evenodd" d="M4.667 2v2.667h-2.66a.67.67 0 0 0-.672.671l-.002 8.657a.67.67 0 0 0 .672.672h8.657a.67.67 0 0 0 .671-.672v-2.662H14a.667.667 0 0 0 .667-.666V2A.667.667 0 0 0 14 1.333H5.333A.667.667 0 0 0 4.667 2zm5.995 2.667H6v-2h7.333V10h-2V5.338a.67.67 0 0 0-.671-.671zM10 6H2.669l-.002 7.333H10V6zM3.311 9.643 5.67 12l3.77-3.771-.942-.943-2.828 2.829L4.254 8.7l-.943.943z" fill="#001018"/></svg>