<svg width="24" height="24" viewBox="0 0 24 24" fill="none" xmlns="http://www.w3.org/2000/svg">
<path fill-rule="evenodd" clip-rule="evenodd" d="M12 2.00001C9.19807 1.99682 6.52402 3.17235 4.632 5.23901L7.401 10.035C8.18817 8.19387 9.99765 6.99975 12 7.00001H20.662C18.876 3.90485 15.5735 1.99856 12 2.00001ZM2 12C2 16.777 5.35 20.771 9.827 21.763L12.598 16.965C10.5751 17.2092 8.60636 16.2011 7.622 14.417L3.339 6.99801C2.487 8.47001 2 10.178 2 12ZM16.287 14.575L12 22C17.523 22 22 17.523 22 12C22 10.955 21.84 9.94701 21.542 9.00001H16C16.6505 9.86474 17.0016 10.9179 17 12C17.0015 12.9073 16.7549 13.7977 16.287 14.575ZM14.572 13.545C14.0253 14.4564 13.0369 15.0104 11.9741 15.0012C10.9113 14.9919 9.9328 14.4208 9.402 13.5L9.373 13.45C8.67315 12.1818 8.97942 10.5946 10.1009 9.67787C11.2224 8.7611 12.8387 8.77657 13.9424 9.71463C15.0462 10.6527 15.322 12.2454 14.598 13.5L14.572 13.545Z" fill="#001018"/>
</svg>
