<svg width="16" height="16" xmlns="http://www.w3.org/2000/svg"><path fill-rule="evenodd" clip-rule="evenodd" d="M8 1.333a6.65 6.65 0 0 0-4.912 2.16L4.934 6.69A3.334 3.334 0 0 1 8 4.667h5.775A6.664 6.664 0 0 0 8 1.333zM1.333 8a6.67 6.67 0 0 0 5.218 6.509L8.4 11.31a3.333 3.333 0 0 1-3.32-1.699L2.226 4.665A6.635 6.635 0 0 0 1.333 8zm9.525 1.717L8 14.667A6.667 6.667 0 0 0 14.361 6h-3.694c.433.576.667 1.279.666 2a3.317 3.317 0 0 1-.475 1.717zM9.715 9.03A2 2 0 0 1 6.268 9l-.02-.033A2 2 0 1 1 9.733 9l-.017.03z"/></svg>