<svg width="16" height="16" xmlns="http://www.w3.org/2000/svg"><path d="m6.91 13.222 1.287-2.228a3 3 0 0 1-2.823-1.543L3.196 5.68a5.335 5.335 0 0 0 3.713 7.542h.001zm1.483.097a5.332 5.332 0 0 0 4.675-6.986h-2.573a2.998 2.998 0 0 1 .077 3.212L8.393 13.32zM9.43 8.86l.014-.026a1.667 1.667 0 1 0-2.902-.028l.016.028a1.666 1.666 0 0 0 2.872.026zM4.023 4.445 5.31 6.672A3 3 0 0 1 8 5h4.41A5.328 5.328 0 0 0 8 2.667a5.32 5.32 0 0 0-3.977 1.779zM8 14.667A6.667 6.667 0 1 1 8 1.334a6.667 6.667 0 0 1 0 13.333z"/></svg>