<svg width="16" height="16" viewBox="0 0 16 16" fill="none" xmlns="http://www.w3.org/2000/svg">
<path d="M6.90998 13.222L8.19665 10.994C7.62815 11.0314 7.06077 10.9061 6.56089 10.6328C6.06101 10.3595 5.64932 9.94944 5.37398 9.45068L3.19598 5.68001C2.84374 6.40967 2.6623 7.20998 2.66545 8.02021C2.66859 8.83044 2.85623 9.62931 3.21412 10.3562C3.57202 11.0831 4.09077 11.719 4.73102 12.2155C5.37128 12.7121 6.11621 13.0563 6.90931 13.222H6.90998ZM8.39331 13.3193C9.20138 13.2599 9.98527 13.0171 10.6855 12.6094C11.3857 12.2017 11.9838 11.6398 12.4344 10.9664C12.885 10.293 13.1762 9.52579 13.286 8.72301C13.3958 7.92024 13.3212 7.103 13.068 6.33334H10.4946C10.8249 6.82636 11.0009 7.40659 11 8.00001C11.0008 8.5445 10.8528 9.07888 10.572 9.54534L8.39331 13.3187V13.3193ZM9.42865 8.85868L9.44331 8.83334C9.58889 8.58116 9.66586 8.29523 9.66654 8.00404C9.66723 7.71285 9.59162 7.42657 9.44723 7.1737C9.30285 6.92082 9.09473 6.71019 8.84361 6.56278C8.59249 6.41537 8.30713 6.33632 8.01596 6.33352C7.72478 6.33071 7.43795 6.40423 7.18404 6.54677C6.93012 6.68931 6.71798 6.89589 6.56874 7.14593C6.41951 7.39597 6.33838 7.68074 6.33345 7.97189C6.32853 8.26304 6.39996 8.5504 6.54065 8.80534L6.55665 8.83334C6.70154 9.08475 6.90958 9.29396 7.16018 9.44025C7.41078 9.58655 7.69524 9.66485 7.9854 9.66741C8.27556 9.66997 8.56136 9.59669 8.8145 9.45485C9.06764 9.313 9.27934 9.10749 9.42865 8.85868ZM4.02331 4.44534L5.30931 6.67201C5.55713 6.17002 5.94046 5.74739 6.41596 5.45191C6.89146 5.15643 7.44015 4.9999 7.99998 5.00001H12.41C11.9212 4.2807 11.2637 3.69198 10.495 3.28525C9.72626 2.87852 8.86967 2.66615 7.99998 2.66668C7.2491 2.66583 6.50655 2.82394 5.82116 3.13062C5.13576 3.43729 4.52305 3.88558 4.02331 4.44601V4.44534ZM7.99998 14.6667C4.31798 14.6667 1.33331 11.682 1.33331 8.00001C1.33331 4.31801 4.31798 1.33334 7.99998 1.33334C11.682 1.33334 14.6666 4.31801 14.6666 8.00001C14.6666 11.682 11.682 14.6667 7.99998 14.6667Z" fill="#001018"/>
</svg>
