<svg width="16" height="16" viewBox="0 0 16 16" xmlns="http://www.w3.org/2000/svg"><path d="M9.33327 12V9.33795H1.3826C0.891473 8.08475 0.892355 6.6922 1.38507 5.43962C1.87778 4.18705 2.82589 3.16709 4.0392 2.58435C5.25251 2.00161 6.64129 1.89918 7.92697 2.29762C9.21264 2.69605 10.3001 3.56588 10.9713 4.73262C11.4728 4.63615 11.989 4.64552 12.4867 4.76014C12.9844 4.87475 13.4526 5.09207 13.8615 5.39818C14.2703 5.70428 14.6107 6.09242 14.8608 6.53772C15.1109 6.98302 15.2652 7.47565 15.3138 7.98406C15.3625 8.49246 15.3044 9.00542 15.1432 9.49006C14.9821 9.97471 14.7215 10.4203 14.3781 10.7984C14.0348 11.1765 13.6162 11.4787 13.1493 11.6856C12.6823 11.8925 12.1773 11.9996 11.6666 12H9.33393H9.33327ZM3.99993 13.3333H10.6666V14.6666H3.99993V13.3333ZM1.33327 10.6666H7.99993V12H1.33327V10.6666Z"/></svg>