<svg width="16" height="16" viewBox="0 0 16 16" xmlns="http://www.w3.org/2000/svg"><path d="M9.33336 12V10.6666H11.6667C12.0514 10.6666 12.4301 10.5714 12.7691 10.3896C13.1081 10.2078 13.3969 9.945 13.6098 9.62458C13.8227 9.30417 13.9531 8.93609 13.9893 8.5531C14.0255 8.17012 13.9665 7.78412 13.8175 7.42947C13.6685 7.07481 13.4341 6.7625 13.1352 6.52033C12.8363 6.27816 12.4822 6.11365 12.1043 6.04145C11.7265 5.96925 11.3366 5.99159 10.9695 6.10648C10.6023 6.22137 10.2693 6.42526 10 6.69998V6.66665C10 5.60578 9.5786 4.58837 8.82845 3.83822C8.0783 3.08808 7.06089 2.66665 6.00002 2.66665C4.93916 2.66665 3.92174 3.08808 3.1716 3.83822C2.42145 4.58837 2.00002 5.60578 2.00002 6.66665V6.67132H0.666689V6.66665C0.665679 5.42209 1.09996 4.21636 1.89431 3.25827C2.68867 2.30018 3.79308 1.65006 5.01629 1.4205C6.2395 1.19094 7.50447 1.39639 8.59215 2.00128C9.67983 2.60617 10.5217 3.5724 10.972 4.73265C11.4736 4.63618 11.9898 4.64556 12.4875 4.76019C12.9852 4.87481 13.4535 5.09216 13.8623 5.39831C14.2712 5.70445 14.6116 6.09263 14.8616 6.53797C15.1117 6.9833 15.266 7.47598 15.3146 7.98442C15.3632 8.49286 15.3051 9.00584 15.1439 9.49049C14.9827 9.97514 14.722 10.4208 14.3786 10.7988C14.0351 11.1769 13.6165 11.479 13.1495 11.6858C12.6825 11.8927 12.1774 11.9997 11.6667 12H9.33336ZM4.00002 13.3333H10.6667V14.6666H4.00002V13.3333ZM4.00002 7.99998H9.33336V9.33331H4.00002V7.99998ZM1.33336 10.6666H8.00002V12H1.33336V10.6666Z"/></svg>