<svg width="16" height="16" viewBox="0 0 16 16" fill="none" xmlns="http://www.w3.org/2000/svg">
<path d="M5.99996 13.9907C5.02932 13.9332 4.08981 13.6269 3.27178 13.1013C2.45376 12.5757 1.78474 11.8484 1.32908 10.9894C0.87342 10.1305 0.646449 9.16872 0.669997 8.19667C0.693545 7.22462 0.96682 6.27498 1.46354 5.43909C1.96025 4.6032 2.6637 3.90919 3.50622 3.4238C4.34874 2.93841 5.30198 2.67798 6.27426 2.66756C7.24654 2.65714 8.20514 2.89707 9.05787 3.36429C9.9106 3.8315 10.6288 4.51028 11.1433 5.33532C12.2516 5.37072 13.3041 5.82965 14.0843 6.61764C14.8645 7.40562 15.3129 8.46271 15.3372 9.57131C15.3616 10.6799 14.96 11.7557 14.2152 12.5771C13.4704 13.3986 12.439 13.9033 11.3333 13.9873V14H5.99996V13.9907Z" fill="#001018"/>
</svg>
