<svg width="16" height="16" viewBox="0 0 16 16" fill="none" xmlns="http://www.w3.org/2000/svg">
<path d="M6.33335 3.99996C5.18407 3.99996 4.08187 4.45651 3.26922 5.26916C2.45656 6.08182 2.00001 7.18402 2.00001 8.33329C2.00001 9.48256 2.45656 10.5848 3.26922 11.3974C4.08187 12.2101 5.18407 12.6666 6.33335 12.6666H11C11.4208 12.6662 11.8368 12.5773 12.221 12.4056C12.6052 12.234 12.9489 11.9834 13.23 11.6702C13.511 11.3571 13.723 10.9883 13.8522 10.5878C13.9814 10.1874 14.0249 9.76419 13.9799 9.34582C13.9349 8.92745 13.8024 8.52322 13.591 8.1594C13.3796 7.79557 13.094 7.48029 12.7528 7.23403C12.4116 6.98778 12.0224 6.81605 11.6105 6.73001C11.1986 6.64397 10.7733 6.64554 10.362 6.73463C10.0416 5.92779 9.48623 5.23576 8.76793 4.74818C8.04964 4.2606 7.20149 3.99994 6.33335 3.99996ZM11 14H6.33335C5.34684 13.9997 4.37748 13.742 3.52115 13.2521C2.66483 12.7623 1.95121 12.0575 1.45089 11.2072C0.950564 10.357 0.680868 9.3909 0.668477 8.40447C0.656086 7.41804 0.90143 6.44546 1.38024 5.58294C1.85905 4.72041 2.55474 3.99783 3.39849 3.48667C4.24224 2.9755 5.20481 2.69346 6.19101 2.66845C7.1772 2.64343 8.15284 2.87631 9.02142 3.34404C9.89 3.81177 10.6214 4.49815 11.1433 5.33529C12.2818 5.36974 13.3609 5.85103 14.1473 6.67503C14.9336 7.49904 15.3639 8.59949 15.345 9.73832C15.3262 10.8771 14.8597 11.9628 14.0466 12.7603C13.2334 13.5578 12.139 14.0032 11 14Z" fill="#001018"/>
</svg>
