<svg viewBox="0 0 24 24" xmlns="http://www.w3.org/2000/svg"><path d="M14 18V16H17.5C18.077 16 18.6451 15.8572 19.1536 15.5845C19.6622 15.3118 20.0954 14.9176 20.4147 14.4369C20.734 13.9563 20.9296 13.4042 20.9839 12.8297C21.0383 12.2552 20.9498 11.6762 20.7262 11.1443C20.5027 10.6123 20.1511 10.1438 19.7028 9.78055C19.2544 9.4173 18.7232 9.17054 18.1564 9.06224C17.5896 8.95393 17.0049 8.98744 16.4542 9.15978C15.9035 9.33212 15.4039 9.63795 15 10.05V10C15 8.40873 14.3679 6.88261 13.2426 5.75739C12.1174 4.63217 10.5913 4.00003 9 4.00003C7.4087 4.00003 5.88258 4.63217 4.75736 5.75739C3.63214 6.88261 3 8.40873 3 10V10.007H1V10C0.998489 8.13319 1.6499 6.3246 2.84144 4.88746C4.03297 3.45032 5.68959 2.47515 7.5244 2.13081C9.35922 1.78647 11.2567 2.09465 12.8882 3.00199C14.5197 3.90932 15.7826 5.35867 16.458 7.09903C17.2103 6.95433 17.9846 6.9684 18.7312 7.14034C19.4778 7.31228 20.1802 7.63831 20.7935 8.09752C21.4067 8.55673 21.9173 9.139 22.2924 9.80701C22.6676 10.475 22.899 11.214 22.9719 11.9767C23.0448 12.7393 22.9575 13.5088 22.7158 14.2358C22.474 14.9628 22.083 15.6312 21.5678 16.1983C21.0527 16.7654 20.4247 17.2186 19.7242 17.5288C19.0237 17.8391 18.2661 17.9996 17.5 18H14ZM6 20H16V22H6V20ZM6 12H14V14H6V12ZM2 16H12V18H2V16Z"/></svg>