<svg width="16" height="16" viewBox="0 0 16 16" fill="none" xmlns="http://www.w3.org/2000/svg">
<path d="M7.99992 1.33331C11.6819 1.33331 14.6666 4.31798 14.6666 7.99998C14.6666 11.682 11.6819 14.6666 7.99992 14.6666C4.31792 14.6666 1.33325 11.682 1.33325 7.99998C1.33325 4.31798 4.31792 1.33331 7.99992 1.33331ZM11.0639 4.93598C10.9279 4.79931 10.7133 4.78065 10.5553 4.89131C8.62859 6.24331 7.54192 7.04465 7.29259 7.29265C6.90259 7.68331 6.90259 8.31665 7.29259 8.70731C7.68325 9.09731 8.31659 9.09731 8.70725 8.70731C8.85325 8.56065 9.65259 7.47331 11.1059 5.44265C11.2179 5.28665 11.1999 5.07198 11.0639 4.93598ZM11.6666 7.33331C11.2986 7.33331 10.9999 7.63198 10.9999 7.99998C10.9999 8.36798 11.2986 8.66665 11.6666 8.66665C12.0346 8.66665 12.3333 8.36798 12.3333 7.99998C12.3333 7.63198 12.0346 7.33331 11.6666 7.33331ZM4.33325 7.33331C3.96525 7.33331 3.66659 7.63198 3.66659 7.99998C3.66659 8.36798 3.96525 8.66665 4.33325 8.66665C4.70125 8.66665 4.99992 8.36798 4.99992 7.99998C4.99992 7.63198 4.70125 7.33331 4.33325 7.33331ZM5.87859 4.93598C5.61859 4.67598 5.19592 4.67598 4.93592 4.93598C4.67592 5.19598 4.67592 5.61798 4.93592 5.87865C5.19592 6.13865 5.61792 6.13865 5.87859 5.87865C6.13859 5.61865 6.13859 5.19598 5.87859 4.93598ZM7.99992 3.66665C7.63192 3.66665 7.33325 3.96531 7.33325 4.33331C7.33325 4.70131 7.63192 4.99998 7.99992 4.99998C8.36792 4.99998 8.66659 4.70131 8.66659 4.33331C8.66659 3.96531 8.36792 3.66665 7.99992 3.66665Z" fill="#001018"/>
</svg>
