<svg width="16" height="16" xmlns="http://www.w3.org/2000/svg"><path d="M8 1.333a6.667 6.667 0 1 1 0 13.333A6.667 6.667 0 0 1 8 1.333zm3.064 3.603a.396.396 0 0 0-.509-.045C8.63 6.243 7.542 7.045 7.293 7.293a1.001 1.001 0 0 0 1.414 1.414c.146-.146.946-1.234 2.399-3.264a.393.393 0 0 0-.042-.507zm.603 2.397a.667.667 0 1 0 0 1.334.667.667 0 0 0 0-1.334zm-7.334 0a.667.667 0 1 0 0 1.334.667.667 0 0 0 0-1.334zM5.88 4.936a.667.667 0 1 0-.943.944.667.667 0 0 0 .943-.944zM8 3.666A.667.667 0 1 0 8 5a.667.667 0 0 0 0-1.333z"/></svg>