<svg width="16" height="16" viewBox="0 0 16 16" xmlns="http://www.w3.org/2000/svg"><path d="M8.00004 1.33331C11.682 1.33331 14.6667 4.31798 14.6667 7.99998C14.6667 11.682 11.682 14.6666 8.00004 14.6666C4.31804 14.6666 1.33337 11.682 1.33337 7.99998C1.33337 4.31798 4.31804 1.33331 8.00004 1.33331ZM8.00004 2.66665C5.05471 2.66665 2.66671 5.05465 2.66671 7.99998C2.66671 10.9453 5.05471 13.3333 8.00004 13.3333C10.9454 13.3333 13.3334 10.9453 13.3334 7.99998C13.3334 5.05465 10.9454 2.66665 8.00004 2.66665ZM10.5554 4.89131C10.7134 4.78065 10.928 4.79931 11.064 4.93598C11.2 5.07198 11.2174 5.28665 11.106 5.44265C9.65271 7.47331 8.85271 8.56131 8.70737 8.70731C8.31671 9.09731 7.68337 9.09731 7.29271 8.70731C6.90271 8.31665 6.90271 7.68331 7.29271 7.29265C7.54204 7.04398 8.62937 6.24331 10.5554 4.89131ZM11.6667 7.33331C12.0347 7.33331 12.3334 7.63198 12.3334 7.99998C12.3334 8.36798 12.0347 8.66665 11.6667 8.66665C11.2987 8.66665 11 8.36798 11 7.99998C11 7.63198 11.2987 7.33331 11.6667 7.33331ZM4.33337 7.33331C4.70137 7.33331 5.00004 7.63198 5.00004 7.99998C5.00004 8.36798 4.70137 8.66665 4.33337 8.66665C3.96537 8.66665 3.66671 8.36798 3.66671 7.99998C3.66671 7.63198 3.96537 7.33331 4.33337 7.33331ZM5.87871 4.93598C6.13871 5.19598 6.13871 5.61798 5.87871 5.87865C5.61871 6.13865 5.19604 6.13865 4.93604 5.87865C4.67604 5.61865 4.67604 5.19598 4.93604 4.93598C5.19604 4.67598 5.61804 4.67598 5.87871 4.93598ZM8.00004 3.66665C8.36804 3.66665 8.66671 3.96531 8.66671 4.33331C8.66671 4.70131 8.36804 4.99998 8.00004 4.99998C7.63204 4.99998 7.33337 4.70131 7.33337 4.33331C7.33337 3.96531 7.63204 3.66665 8.00004 3.66665Z"/></svg>