<svg width="16" height="16" viewBox="0 0 16 16" fill="none" xmlns="http://www.w3.org/2000/svg">
<path d="M14 5.33331C14.3536 5.33331 14.6927 5.47378 14.9428 5.72383C15.1928 5.97388 15.3333 6.31302 15.3333 6.66664V9.33331C15.3333 9.68693 15.1928 10.0261 14.9428 10.2761C14.6927 10.5262 14.3536 10.6666 14 10.6666H13.292C13.1294 11.9555 12.5021 13.1408 11.5278 14C10.5534 14.8592 9.29903 15.3333 7.99996 15.3333V14C9.06083 14 10.0782 13.5785 10.8284 12.8284C11.5785 12.0783 12 11.0608 12 9.99997V5.99997C12 4.93911 11.5785 3.92169 10.8284 3.17155C10.0782 2.4214 9.06083 1.99997 7.99996 1.99997C6.93909 1.99997 5.92168 2.4214 5.17153 3.17155C4.42139 3.92169 3.99996 4.93911 3.99996 5.99997V10.6666H1.99996C1.64634 10.6666 1.3072 10.5262 1.05715 10.2761C0.807102 10.0261 0.666626 9.68693 0.666626 9.33331V6.66664C0.666626 6.31302 0.807102 5.97388 1.05715 5.72383C1.3072 5.47378 1.64634 5.33331 1.99996 5.33331H2.70796C2.87065 4.04457 3.49801 2.85949 4.47234 2.00042C5.44667 1.14136 6.70099 0.667358 7.99996 0.667358C9.29892 0.667358 10.5532 1.14136 11.5276 2.00042C12.5019 2.85949 13.1293 4.04457 13.292 5.33331H14ZM5.17329 10.5233L5.87996 9.39264C6.51534 9.79066 7.2502 10.0012 7.99996 9.99997C8.74972 10.0012 9.48458 9.79066 10.12 9.39264L10.8266 10.5233C9.97947 11.0541 8.99965 11.3348 7.99996 11.3333C7.00027 11.3348 6.02045 11.0541 5.17329 10.5233Z" fill="#001018"/>
</svg>
