<svg width="16" height="16" viewBox="0 0 16 16" fill="none" xmlns="http://www.w3.org/2000/svg">
<path d="M13.292 5.33331H14C14.3536 5.33331 14.6928 5.47378 14.9428 5.72383C15.1929 5.97388 15.3334 6.31302 15.3334 6.66664V9.33331C15.3334 9.68693 15.1929 10.0261 14.9428 10.2761C14.6928 10.5262 14.3536 10.6666 14 10.6666H13.292C13.1295 11.9555 12.5022 13.1408 11.5279 14C10.5535 14.8592 9.29909 15.3333 8.00002 15.3333V14C9.06089 14 10.0783 13.5785 10.8284 12.8284C11.5786 12.0783 12 11.0608 12 9.99997V5.99997C12 4.93911 11.5786 3.92169 10.8284 3.17155C10.0783 2.4214 9.06089 1.99997 8.00002 1.99997C6.93915 1.99997 5.92174 2.4214 5.17159 3.17155C4.42145 3.92169 4.00002 4.93911 4.00002 5.99997V10.6666H2.00002C1.6464 10.6666 1.30726 10.5262 1.05721 10.2761C0.807163 10.0261 0.666687 9.68693 0.666687 9.33331V6.66664C0.666687 6.31302 0.807163 5.97388 1.05721 5.72383C1.30726 5.47378 1.6464 5.33331 2.00002 5.33331H2.70802C2.87071 4.04457 3.49807 2.85949 4.4724 2.00042C5.44673 1.14136 6.70106 0.667358 8.00002 0.667358C9.29899 0.667358 10.5533 1.14136 11.5276 2.00042C12.502 2.85949 13.1293 4.04457 13.292 5.33331V5.33331ZM2.00002 6.66664V9.33331H2.66669V6.66664H2.00002ZM13.3334 6.66664V9.33331H14V6.66664H13.3334ZM5.17335 10.5233L5.88002 9.39264C6.5154 9.79066 7.25026 10.0012 8.00002 9.99997C8.74978 10.0012 9.48464 9.79066 10.12 9.39264L10.8267 10.5233C9.97953 11.0541 8.99972 11.3348 8.00002 11.3333C7.00033 11.3348 6.02051 11.0541 5.17335 10.5233Z" fill="#001018"/>
</svg>
