<svg width="16" height="16" viewBox="0 0 16 16" fill="none" xmlns="http://www.w3.org/2000/svg">
<path fill-rule="evenodd" clip-rule="evenodd" d="M2 11.6667V5C2 3.34333 4.68667 2 8 2C11.3133 2 14 3.34333 14 5V11.6667C14 13.3233 11.3133 14.6667 8 14.6667C4.68667 14.6667 2 13.3233 2 11.6667ZM4.35333 9.26201C3.64067 8.90534 3.33333 8.54201 3.33333 8.33334V6.88601C4.43333 7.56534 6.11533 8.00001 8 8.00001C9.88467 8.00001 11.5667 7.56601 12.6667 6.88601V8.33334C12.6667 8.54201 12.3593 8.90534 11.6467 9.26201C10.724 9.72334 9.41533 10 8 10C6.58467 10 5.276 9.72334 4.35333 9.26201ZM8 11.3333C9.88467 11.3333 11.5667 10.8993 12.6667 10.2193V11.6667C12.6667 11.8753 12.3593 12.2387 11.6467 12.5953C10.724 13.0567 9.41533 13.3333 8 13.3333C6.58467 13.3333 5.276 13.0567 4.35333 12.5953C3.64067 12.2387 3.33333 11.8753 3.33333 11.6667V10.2193C4.43333 10.8987 6.11533 11.3333 8 11.3333ZM11.6467 5.92867C10.724 6.39 9.41533 6.66667 8 6.66667C6.58467 6.66667 5.276 6.39 4.35333 5.92867C3.64067 5.572 3.33333 5.20867 3.33333 5C3.33333 4.79133 3.64067 4.428 4.35333 4.07133C5.276 3.61 6.58467 3.33333 8 3.33333C9.41533 3.33333 10.724 3.61 11.6467 4.07133C12.3593 4.428 12.6667 4.79133 12.6667 5C12.6667 5.20867 12.3593 5.572 11.6467 5.92867Z" fill="#001018"/>
</svg>
