<svg width="16" height="16" fill="none" xmlns="http://www.w3.org/2000/svg"><path fill-rule="evenodd" clip-rule="evenodd" d="M2 11.667V5c0-1.657 2.687-3 6-3s6 1.343 6 3v6.667c0 1.656-2.687 3-6 3s-6-1.344-6-3zm2.353-2.405c-.712-.357-1.02-.72-1.02-.929V6.886C4.433 7.566 6.115 8 8 8c1.885 0 3.567-.434 4.667-1.114v1.447c0 .209-.308.572-1.02.929C10.724 9.723 9.415 10 8 10c-1.415 0-2.724-.277-3.647-.738zM8 11.333c1.885 0 3.567-.434 4.667-1.114v1.448c0 .208-.308.572-1.02.928-.923.462-2.232.738-3.647.738-1.415 0-2.724-.276-3.647-.738-.712-.356-1.02-.72-1.02-.928v-1.448c1.1.68 2.782 1.114 4.667 1.114zm3.647-5.404c-.923.461-2.232.738-3.647.738-1.415 0-2.724-.277-3.647-.738-.712-.357-1.02-.72-1.02-.929 0-.209.308-.572 1.02-.929.923-.461 2.232-.738 3.647-.738 1.415 0 2.724.277 3.647.738.712.357 1.02.72 1.02.929 0 .209-.308.572-1.02.929z" fill="#001018"/></svg>