<svg width="16" height="16" xmlns="http://www.w3.org/2000/svg"><path d="M3.333 8.333c0 .209.308.572 1.02.929C5.276 9.723 6.585 10 8 10c1.415 0 2.724-.277 3.647-.738.712-.357 1.02-.72 1.02-.929V6.886C11.567 7.566 9.885 8 8 8c-1.885 0-3.567-.435-4.667-1.114v1.447zm9.334 1.886c-1.1.68-2.782 1.114-4.667 1.114-1.885 0-3.567-.434-4.667-1.114v1.448c0 .208.308.572 1.02.928.923.462 2.232.738 3.647.738 1.415 0 2.724-.276 3.647-.738.712-.356 1.02-.72 1.02-.928v-1.448zM2 11.667V5c0-1.657 2.687-3 6-3s6 1.343 6 3v6.667c0 1.656-2.687 3-6 3s-6-1.344-6-3zm6-5c1.415 0 2.724-.277 3.647-.738.712-.357 1.02-.72 1.02-.929 0-.209-.308-.572-1.02-.929-.923-.461-2.232-.738-3.647-.738-1.415 0-2.724.277-3.647.738-.712.357-1.02.72-1.02.929 0 .209.308.572 1.02.929.923.461 2.232.738 3.647.738z"/></svg>