<svg width="24" height="24" xmlns="http://www.w3.org/2000/svg"><path fill-rule="evenodd" clip-rule="evenodd" d="M7.224 11.836v.758h1.093v-.419h-.601v-.346h.52v-.41h-.52v-.311h.6v-.42H7.225v.763a1.282 1.282 0 0 1 0 .385zm9.668.103v-.603a.987.987 0 0 0-.254-.406.987.987 0 0 0-.692-.283.977.977 0 0 0-.705.28.953.953 0 0 0-.294.693c0 .21.05.393.15.552h.132v.168c.19.194.431.295.714.295a.987.987 0 0 0 .949-.696zm-1.795.233h-.441v-1.485h-.489v1.907h1.062v-.255l-.008-.007a1.015 1.015 0 0 1-.124-.16zM4.5 13.498V9.75h15v3.748h-15zm6.06-2.813s-.632 1.075-.694 1.172c-.072.114-.23.294-.466.291-.386-.006-.532-.272-.532-.512 0-.272.217-.506.501-.512.32-.006.56.3.56.3l.25-.403s-.283-.386-.805-.374c-.786.018-1.014.675-1.014.98 0 .642.494.963.898 1.002.582.056.9-.324.9-.324l.016-.001c.117-.001.426.001.426.001v.286h.473v-1.906h-.513zm.05 1.222h-.253l.253-.432v.432zm.947.687h.491v-1.452h.381v-.455h-1.253v.455h.381v1.452zm1.97-.73v.73h.49v-1.907h-.49v.724h-.506v-.724h-.49v1.907h.49v-.73h.505zm2.416.295a.526.526 0 0 1-.509-.533.506.506 0 0 1 1.013 0c0 .312-.226.533-.504.533zm.949-.22v.655h.492v-1.063l.749 1.063h.432v-1.907h-.492v1.059l-.737-1.06h-.444v.65a1.054 1.054 0 0 1 0 .603zm-9.667-.103v-.385a.882.882 0 0 0-.28-.536c-.208-.188-.43-.228-.75-.228H5.51v1.907h.753c.283 0 .472-.038.686-.236a.897.897 0 0 0 .277-.522zm-.474-.202c0 .375-.178.541-.554.541H6v-1.078h.195c.361 0 .556.193.556.537zM3 6v11.25h18V6H3zm0-1.5h18A1.5 1.5 0 0 1 22.5 6v11.25a1.5 1.5 0 0 1-1.5 1.5H3a1.5 1.5 0 0 1-1.5-1.5V6A1.5 1.5 0 0 1 3 4.5z"/></svg>