<svg width="24" height="24" viewBox="0 0 24 24" fill="none" xmlns="http://www.w3.org/2000/svg">
<path fill-rule="evenodd" clip-rule="evenodd" d="M12.707 1.39301L22.607 11.293C22.9974 11.6835 22.9974 12.3165 22.607 12.707L12.707 22.607C12.3165 22.9974 11.6835 22.9974 11.293 22.607L1.39301 12.707C1.00262 12.3165 1.00262 11.6835 1.39301 11.293L11.293 1.39301C11.6835 1.00262 12.3165 1.00262 12.707 1.39301ZM12 3.51501L3.51501 12L12 20.485L20.485 12L12 3.51501ZM13 7.50001V10H9.00001C8.44772 10 8.00001 10.4477 8.00001 11V15H10V12H13V14.5L16.5 11L13 7.50001Z" fill="#001018"/>
</svg>
