<svg width="16" height="16" viewBox="0 0 16 16" fill="none" xmlns="http://www.w3.org/2000/svg">
<path fill-rule="evenodd" clip-rule="evenodd" d="M8.47138 0.928666L15.0714 7.52867C15.3316 7.789 15.3316 8.211 15.0714 8.47133L8.47138 15.0713C8.21104 15.3316 7.78904 15.3316 7.52871 15.0713L0.928711 8.47133C0.668457 8.211 0.668457 7.789 0.928711 7.52867L7.52871 0.928666C7.78904 0.668411 8.21104 0.668411 8.47138 0.928666ZM8.00012 2.34333L2.34346 8L8.00012 13.6567L13.6568 8L8.00012 2.34333ZM8.66667 5V6.66667H6.00001C5.63182 6.66667 5.33334 6.96514 5.33334 7.33333V10H6.66667V8H8.66667V9.66667L11 7.33333L8.66667 5Z" fill="#001018"/>
</svg>
