<svg width="16" height="16" viewBox="0 0 16 16" fill="none" xmlns="http://www.w3.org/2000/svg">
<path fill-rule="evenodd" clip-rule="evenodd" d="M8.47138 0.92865L15.0714 7.52865C15.3316 7.78898 15.3316 8.21098 15.0714 8.47132L8.47138 15.0713C8.21104 15.3316 7.78904 15.3316 7.52871 15.0713L0.928711 8.47132C0.668457 8.21098 0.668457 7.78898 0.928711 7.52865L7.52871 0.92865C7.78904 0.668396 8.21104 0.668396 8.47138 0.92865ZM8.00012 2.34331L2.34346 7.99998L8.00012 13.6566L13.6568 7.99998L8.00012 2.34331ZM8.66667 4.99999V6.66665H6.00001C5.63182 6.66665 5.33334 6.96513 5.33334 7.33332V9.99999H6.66667V7.99999H8.66667V9.66665L11 7.33332L8.66667 4.99999Z" fill="#001018"/>
</svg>
