<svg width="24" height="24" fill="none" xmlns="http://www.w3.org/2000/svg"><path fill-rule="evenodd" clip-rule="evenodd" d="M9.128 16.5H3V21h18v-4.5h-6.128A2.251 2.251 0 0 1 12.75 18h-1.5a2.25 2.25 0 0 1-2.122-1.5zm0-1.5a2.25 2.25 0 0 1 2.122-1.5h1.5c.98 0 1.813.626 2.122 1.5H21V7.5H3V15h6.128zM15 6a3 3 0 1 0-6 0h6zm1.5 0H21a1.5 1.5 0 0 1 1.5 1.5V21a1.5 1.5 0 0 1-1.5 1.5H3A1.5 1.5 0 0 1 1.5 21V7.5A1.5 1.5 0 0 1 3 6h4.5a4.5 4.5 0 0 1 9 0zm-5.25 9a.75.75 0 0 0 0 1.5h1.5a.75.75 0 0 0 0-1.5h-1.5z" fill="#001018"/></svg>