<svg width="24" height="24" viewBox="0 0 24 24" fill="none" xmlns="http://www.w3.org/2000/svg">
<path d="M17 18V16H17.5C18.0771 15.9999 18.6451 15.8571 19.1537 15.5844C19.6622 15.3117 20.0954 14.9175 20.4147 14.4369C20.7341 13.9562 20.9296 13.4041 20.984 12.8296C21.0383 12.2552 20.9498 11.6762 20.7263 11.1442C20.5028 10.6122 20.1512 10.1437 19.7028 9.78048C19.2545 9.41723 18.7232 9.17047 18.1565 9.06216C17.5897 8.95385 17.0049 8.98736 16.4542 9.1597C15.9035 9.33204 15.404 9.63787 15 10.05V9.99996C14.9996 8.90005 14.6969 7.82142 14.1249 6.88194C13.553 5.94246 12.7337 5.17828 11.7568 4.67292C10.7799 4.16756 9.68284 3.94046 8.58556 4.01644C7.48829 4.09242 6.43301 4.46855 5.53506 5.10374C4.63711 5.73893 3.93103 6.60873 3.494 7.61808C3.05697 8.62743 2.9058 9.73749 3.057 10.8269C3.20821 11.9164 3.65598 12.9433 4.35138 13.7955C5.04678 14.6477 5.96304 15.2923 7.00004 15.659V17.748C5.67375 17.4048 4.45781 16.7267 3.46874 15.7788C2.47966 14.8309 1.75058 13.6448 1.35136 12.3343C0.952139 11.0238 0.89615 9.63272 1.18876 8.29436C1.48136 6.956 2.11276 5.71521 3.02246 4.69086C3.93216 3.66652 5.08966 2.89295 6.38408 2.44427C7.6785 1.99559 9.06645 1.88684 10.415 2.12843C11.7635 2.37003 13.0273 2.95388 14.0855 3.82403C15.1436 4.69419 15.9605 5.8215 16.458 7.09796C17.2101 6.95406 17.9839 6.96878 18.7299 7.14117C19.4759 7.31356 20.1778 7.63982 20.7904 8.09906C21.4031 8.55831 21.9131 9.14042 22.2879 9.80813C22.6626 10.4758 22.8938 11.2144 22.9667 11.9767C23.0395 12.7389 22.9524 13.5079 22.711 14.2345C22.4695 14.9611 22.0789 15.6293 21.5644 16.1963C21.0498 16.7633 20.4225 17.2166 19.7226 17.5272C19.0227 17.8378 18.2657 17.9988 17.5 18L17 18.001V18ZM9.00004 16H11V20H9.00004V16ZM13 19H15V23H13V19Z" fill="#001018"/>
</svg>
