<svg width="16" height="16" viewBox="0 0 16 16" xmlns="http://www.w3.org/2000/svg"><path d="M7.33345 12V14H6.00011V12C5.02949 11.9997 4.07735 11.7346 3.2463 11.2331C2.41526 10.7316 1.73682 10.0128 1.28411 9.15426C0.831392 8.29567 0.621565 7.32982 0.677239 6.3608C0.732913 5.39177 1.05198 4.45631 1.60004 3.65522C2.14811 2.85414 2.9044 2.21781 3.78741 1.81481C4.67042 1.41181 5.64667 1.25742 6.61094 1.36828C7.57522 1.47914 8.49096 1.85105 9.25947 2.44392C10.028 3.03679 10.6201 3.82815 10.9721 4.73271C11.4737 4.63624 11.9899 4.64562 12.4876 4.76025C12.9853 4.87488 13.4536 5.09223 13.8624 5.39837C14.2713 5.70451 14.6116 6.09269 14.8617 6.53803C15.1118 6.98337 15.2661 7.47604 15.3147 7.98448C15.3633 8.49292 15.3051 9.0059 15.144 9.49055C14.9828 9.97521 14.7221 10.4208 14.3787 10.7989C14.0352 11.1769 13.6166 11.4791 13.1496 11.6859C12.6826 11.8928 12.1775 11.9998 11.6668 12H7.33345ZM8.66678 13.3334H10.0001V15.3334H8.66678V13.3334Z"/></svg>