<svg width="24" height="24" viewBox="0 0 24 24" fill="none" xmlns="http://www.w3.org/2000/svg">
<path d="M10.9999 18V21H8.99992V18C7.54399 17.9995 6.11578 17.6018 4.86921 16.8496C3.62264 16.0973 2.60499 15.0192 1.92592 13.7313C1.24684 12.4434 0.932104 10.9947 1.01561 9.54113C1.09913 8.08759 1.57772 6.6844 2.39982 5.48277C3.22192 4.28114 4.35636 3.32665 5.68087 2.72215C7.00539 2.11765 8.46976 1.88606 9.91617 2.05236C11.3626 2.21865 12.7362 2.77651 13.889 3.66582C15.0417 4.55512 15.93 5.74216 16.4579 7.099C17.2103 6.9543 17.9845 6.96837 18.7311 7.14031C19.4777 7.31225 20.1802 7.63828 20.7934 8.09749C21.4067 8.5567 21.9172 9.13897 22.2923 9.80698C22.6675 10.475 22.8989 11.214 22.9718 11.9767C23.0447 12.7393 22.9575 13.5088 22.7157 14.2358C22.4739 14.9627 22.0829 15.6312 21.5677 16.1983C21.0526 16.7653 20.4246 17.2185 19.7241 17.5288C19.0236 17.8391 18.2661 17.9996 17.4999 18H10.9999ZM12.9999 20H14.9999V23H12.9999V20Z" fill="#001018"/>
</svg>
