<svg width="16" height="16" fill="none" xmlns="http://www.w3.org/2000/svg"><path d="M4.157 4.302a5.333 5.333 0 0 0 5.878 8.63c.076-.5-.092-.98-.16-1.149-.154-.373-.659-1.011-1.502-1.896-.226-.236-.211-.418-.13-.958l.008-.06c.055-.37.147-.588 1.39-.786.632-.1.798.152 1.028.502l.078.115c.218.32.38.393.625.504.11.05.247.113.43.217.435.248.435.529.435 1.144v.07c0 .26-.026.49-.066.689a5.335 5.335 0 0 0-2.07-8.227c-.368.248-.874.601-1.051.843-.09.123-.218.755-.633.807a2.445 2.445 0 0 1-.409-.006c-.415-.027-.981-.064-1.163.429-.115.312-.135 1.16.238 1.6.06.07.071.2.03.346a.676.676 0 0 1-.194.332c-.064-.037-.192-.186-.28-.287-.208-.243-.47-.546-.807-.64-.123-.034-.257-.062-.389-.09-.366-.076-.78-.164-.876-.369-.071-.15-.07-.358-.07-.577 0-.278 0-.592-.136-.896a.85.85 0 0 0-.204-.287zM8 14.667A6.667 6.667 0 1 1 8 1.334a6.667 6.667 0 0 1 0 13.333z" fill="#000"/></svg>