<svg width="16" height="16" fill="none" xmlns="http://www.w3.org/2000/svg"><path d="M8 14.667A6.666 6.666 0 1 1 8 1.334a6.666 6.666 0 0 1 0 13.333zm4.237-4.032v-.07c0-.615 0-.896-.435-1.144a4.91 4.91 0 0 0-.43-.217c-.245-.111-.407-.184-.625-.504a8.517 8.517 0 0 1-.078-.115c-.23-.35-.396-.602-1.028-.502-1.243.198-1.335.416-1.39.786l-.008.06c-.081.54-.096.722.13.958.843.885 1.348 1.523 1.502 1.896.074.182.266.734.134 1.279a5.457 5.457 0 0 0 2.101-1.491c.073-.25.127-.56.127-.936zM8 2.555a5.43 5.43 0 0 0-3.93 1.678.84.84 0 0 1 .29.356c.137.304.137.618.137.896 0 .219 0 .427.07.577.096.205.51.293.876.37.132.027.266.055.389.09.337.093.599.396.807.64.087.1.216.249.28.286a.678.678 0 0 0 .194-.332c.041-.147.029-.276-.03-.347-.374-.44-.353-1.286-.238-1.599.182-.493.748-.456 1.163-.43.155.01.3.02.41.007.414-.052.542-.684.632-.807.195-.267.79-.669 1.16-.917A5.425 5.425 0 0 0 8 2.555z" fill="#000"/></svg>