<svg width="16" height="16" viewBox="0 0 16 16" xmlns="http://www.w3.org/2000/svg"><path d="M8.00004 1.33337C11.682 1.33337 14.6667 4.31804 14.6667 8.00004C14.6683 9.041 14.4251 10.0677 13.9567 10.9974C13.9078 10.8076 13.8171 10.6311 13.6914 10.4807L13.6094 10.3907L12.6667 9.44804L11.724 10.3907L11.646 10.4754C11.4771 10.6762 11.3712 10.9223 11.3416 11.183C11.3119 11.4437 11.3598 11.7074 11.4793 11.941C11.5988 12.1746 11.7846 12.3677 12.0134 12.4962C12.2421 12.6247 12.5037 12.6829 12.7654 12.6634C12.145 13.2985 11.4038 13.803 10.5854 14.1471C9.76692 14.4911 8.88786 14.6678 8.00004 14.6667C4.31804 14.6667 1.33337 11.682 1.33337 8.00004C1.33337 4.31804 4.31804 1.33337 8.00004 1.33337ZM8.00004 10C7.08004 10 6.24671 10.3734 5.64404 10.9754L5.53337 11.0914L6.16337 11.6647C6.69004 11.4547 7.32137 11.3334 8.00004 11.3334C8.60337 11.3334 9.16937 11.4294 9.65737 11.5974L9.83671 11.664L10.4667 11.0907C10.1546 10.7467 9.77379 10.4719 9.34894 10.284C8.92408 10.0962 8.46457 9.99942 8.00004 10ZM5.66671 6.66671C5.40149 6.66671 5.14714 6.77206 4.9596 6.9596C4.77206 7.14714 4.66671 7.40149 4.66671 7.66671C4.66671 7.93192 4.77206 8.18628 4.9596 8.37381C5.14714 8.56135 5.40149 8.66671 5.66671 8.66671C5.93192 8.66671 6.18628 8.56135 6.37381 8.37381C6.56135 8.18628 6.66671 7.93192 6.66671 7.66671C6.66671 7.40149 6.56135 7.14714 6.37381 6.9596C6.18628 6.77206 5.93192 6.66671 5.66671 6.66671ZM10.3334 6.66671C10.0682 6.66671 9.8138 6.77206 9.62627 6.9596C9.43873 7.14714 9.33337 7.40149 9.33337 7.66671C9.33337 7.93192 9.43873 8.18628 9.62627 8.37381C9.8138 8.56135 10.0682 8.66671 10.3334 8.66671C10.5986 8.66671 10.8529 8.56135 11.0405 8.37381C11.228 8.18628 11.3334 7.93192 11.3334 7.66671C11.3334 7.40149 11.228 7.14714 11.0405 6.9596C10.8529 6.77206 10.5986 6.66671 10.3334 6.66671Z"/></svg>