<svg width="16" height="16" viewBox="0 0 16 16" fill="none" xmlns="http://www.w3.org/2000/svg">
<path fill-rule="evenodd" clip-rule="evenodd" d="M8.00001 14.6667C4.31801 14.6667 1.33334 11.682 1.33334 8C1.33334 4.318 4.31801 1.33333 8.00001 1.33333C11.682 1.33333 14.6667 4.318 14.6667 8C14.6667 11.682 11.682 14.6667 8.00001 14.6667ZM8.00001 13.3333C10.9455 13.3333 13.3333 10.9455 13.3333 7.99999C13.3333 5.05448 10.9455 2.66666 8.00001 2.66666C5.05449 2.66666 2.66668 5.05448 2.66668 7.99999C2.66668 10.9455 5.05449 13.3333 8.00001 13.3333ZM10.6667 10.6667V9.33333H5.33334V10.6667H10.6667ZM5.33334 7.33333C4.78106 7.33333 4.33334 6.88561 4.33334 6.33333C4.33334 5.78104 4.78106 5.33333 5.33334 5.33333C5.88563 5.33333 6.33334 5.78104 6.33334 6.33333C6.33334 6.88561 5.88563 7.33333 5.33334 7.33333ZM9.66668 6.33333C9.66668 6.88561 10.1144 7.33333 10.6667 7.33333C11.219 7.33333 11.6667 6.88561 11.6667 6.33333C11.6667 5.78104 11.219 5.33333 10.6667 5.33333C10.1144 5.33333 9.66668 5.78104 9.66668 6.33333Z" fill="#001018"/>
</svg>
