<svg viewBox="0 0 24 24" xmlns="http://www.w3.org/2000/svg"><path fill-rule="evenodd" clip-rule="evenodd" d="M12 2C17.523 2 22 6.477 22 12C22 12.727 21.923 13.435 21.775 14.118L19.993 12.335C20.1438 8.72662 17.8584 5.46463 14.4154 4.37422C10.9724 3.28382 7.22576 4.63542 5.27187 7.67277C3.31798 10.7101 3.6414 14.6799 6.06116 17.361C8.48092 20.042 12.3969 20.7693 15.618 19.136C15.9997 19.7409 16.5367 20.2323 17.173 20.559C15.6132 21.5041 13.8238 22.0025 12 22C6.477 22 2 17.523 2 12C2 6.477 6.477 2 12 2ZM19 14.172L20.414 15.586C21.1815 16.3532 21.1971 17.5924 20.4493 18.3788C19.7014 19.1651 18.4629 19.2116 17.6582 18.4836C16.8535 17.7555 16.7762 16.5186 17.484 15.696L17.586 15.586L19 14.172ZM15.7 16.637C14.785 15.631 13.466 15 12 15C10.5909 14.9981 9.24682 15.5924 8.3 16.636L9.245 17.496C10.035 17.183 10.982 17 12 17C13.018 17 13.965 17.182 14.755 17.497L15.7 16.637ZM8.5 10C9.32843 10 10 10.6716 10 11.5C10 12.3284 9.32843 13 8.5 13C7.67157 13 7 12.3284 7 11.5C7 10.6716 7.67157 10 8.5 10ZM17 11.5C17 10.6716 16.3284 10 15.5 10C14.6716 10 14 10.6716 14 11.5C14 12.3284 14.6716 13 15.5 13C16.3284 13 17 12.3284 17 11.5Z"/></svg>