<svg width="16" height="16" viewBox="0 0 16 16" xmlns="http://www.w3.org/2000/svg"><path d="M8.00004 1.33337C11.682 1.33337 14.6667 4.31804 14.6667 8.00004C14.6667 11.682 11.682 14.6667 8.00004 14.6667C4.31804 14.6667 1.33337 11.682 1.33337 8.00004C1.33337 4.31804 4.31804 1.33337 8.00004 1.33337ZM8.00004 7.33337C6.66671 7.33337 5.55537 7.55537 4.66671 8.00004C4.66671 8.8841 5.0179 9.73194 5.64302 10.3571C6.26814 10.9822 7.11599 11.3334 8.00004 11.3334C8.8841 11.3334 9.73194 10.9822 10.3571 10.3571C10.9822 9.73194 11.3334 8.8841 11.3334 8.00004C10.4447 7.55537 9.33337 7.33337 8.00004 7.33337ZM5.66671 4.66671C4.89871 4.66671 4.25204 5.18671 4.05871 5.89337L4.03337 6.00004H7.30004C7.2232 5.62359 7.01865 5.28524 6.72101 5.04227C6.42337 4.7993 6.05092 4.66663 5.66671 4.66671ZM10.3334 4.66671C9.56537 4.66671 8.91871 5.18671 8.72537 5.89337L8.70004 6.00004H11.9667C11.8899 5.62359 11.6853 5.28524 11.3877 5.04227C11.09 4.7993 10.7176 4.66663 10.3334 4.66671Z"/></svg>