<svg width="16" height="16" viewBox="0 0 16 16" xmlns="http://www.w3.org/2000/svg"><path fill-rule="evenodd" clip-rule="evenodd" d="M7.99998 1.33337C11.682 1.33337 14.6666 4.31804 14.6666 8.00004C14.6666 11.682 11.682 14.6667 7.99998 14.6667C4.31798 14.6667 1.33331 11.682 1.33331 8.00004C1.33331 4.31804 4.31798 1.33337 7.99998 1.33337ZM7.99998 2.66671C5.05446 2.66671 2.66665 5.05452 2.66665 8.00004C2.66665 10.9456 5.05446 13.3334 7.99998 13.3334C10.9455 13.3334 13.3333 10.9456 13.3333 8.00004C13.3333 5.05452 10.9455 2.66671 7.99998 2.66671ZM11.3333 8.00004C10.4446 7.55537 9.33331 7.33337 7.99998 7.33337C6.66665 7.33337 5.55531 7.55537 4.66665 8.00004C4.66665 9.84099 6.15903 11.3334 7.99998 11.3334C9.84093 11.3334 11.3333 9.84099 11.3333 8.00004ZM5.66671 4.66671C6.45883 4.66655 7.14162 5.22393 7.30004 6.00004H4.03338C4.1918 5.22393 4.8746 4.66655 5.66671 4.66671ZM11.9667 6.00004C11.8083 5.22393 11.1255 4.66655 10.3334 4.66671C9.54126 4.66655 8.85847 5.22393 8.70005 6.00004H11.9667Z"/></svg>