<svg width="16" height="16" viewBox="0 0 16 16" fill="none" xmlns="http://www.w3.org/2000/svg">
<path fill-rule="evenodd" clip-rule="evenodd" d="M8 14.6667C4.318 14.6667 1.33333 11.682 1.33333 8C1.33333 4.318 4.318 1.33334 8 1.33334C11.682 1.33334 14.6667 4.318 14.6667 8C14.6667 11.682 11.682 14.6667 8 14.6667ZM7.99999 13.3333C10.9455 13.3333 13.3333 10.9455 13.3333 8C13.3333 5.05448 10.9455 2.66667 7.99999 2.66667C5.05448 2.66667 2.66666 5.05448 2.66666 8C2.66666 10.9455 5.05448 13.3333 7.99999 13.3333ZM8 11.3333C9.47275 11.3333 10.6667 10.1394 10.6667 8.66667H5.33333C5.33333 10.1394 6.52724 11.3333 8 11.3333ZM5.33333 7.33334C4.78104 7.33334 4.33333 6.88562 4.33333 6.33334C4.33333 5.78105 4.78104 5.33334 5.33333 5.33334C5.88561 5.33334 6.33333 5.78105 6.33333 6.33334C6.33333 6.88562 5.88561 7.33334 5.33333 7.33334ZM9.66666 6.33334C9.66666 6.88562 10.1144 7.33334 10.6667 7.33334C11.2189 7.33334 11.6667 6.88562 11.6667 6.33334C11.6667 5.78105 11.2189 5.33334 10.6667 5.33334C10.1144 5.33334 9.66666 5.78105 9.66666 6.33334Z" fill="#001018"/>
</svg>
