<svg width="16" height="16" viewBox="0 0 16 16" fill="none" xmlns="http://www.w3.org/2000/svg">
<path fill-rule="evenodd" clip-rule="evenodd" d="M1.33333 8.00001C1.33333 11.682 4.318 14.6667 8 14.6667C11.682 14.6667 14.6667 11.682 14.6667 8.00001C14.6667 4.31801 11.682 1.33334 8 1.33334C4.318 1.33334 1.33333 4.31801 1.33333 8.00001ZM8 11.3333C6.52724 11.3333 5.33333 10.1394 5.33333 8.66668H10.6667C10.6667 10.1394 9.47275 11.3333 8 11.3333ZM5.33333 7.33334C5.88561 7.33334 6.33333 6.88563 6.33333 6.33334C6.33333 5.78106 5.88561 5.33334 5.33333 5.33334C4.78104 5.33334 4.33333 5.78106 4.33333 6.33334C4.33333 6.88563 4.78104 7.33334 5.33333 7.33334ZM11.6667 6.33334C11.6667 6.88563 11.2189 7.33334 10.6667 7.33334C10.1144 7.33334 9.66666 6.88563 9.66666 6.33334C9.66666 5.78106 10.1144 5.33334 10.6667 5.33334C11.2189 5.33334 11.6667 5.78106 11.6667 6.33334Z" fill="#001018"/>
</svg>
