<svg width="16" height="16" viewBox="0 0 16 16" fill="none" xmlns="http://www.w3.org/2000/svg">
<path fill-rule="evenodd" clip-rule="evenodd" d="M1.33334 8.00001C1.33334 11.682 4.31801 14.6667 8.00001 14.6667C11.682 14.6667 14.6667 11.682 14.6667 8.00001C14.6667 4.31801 11.682 1.33334 8.00001 1.33334C4.31801 1.33334 1.33334 4.31801 1.33334 8.00001ZM5.33334 10.6667V9.33334H10.6667V10.6667H5.33334ZM5.33334 7.33334C5.88563 7.33334 6.33334 6.88563 6.33334 6.33334C6.33334 5.78106 5.88563 5.33334 5.33334 5.33334C4.78106 5.33334 4.33334 5.78106 4.33334 6.33334C4.33334 6.88563 4.78106 7.33334 5.33334 7.33334ZM11.6667 6.33334C11.6667 6.88563 11.219 7.33334 10.6667 7.33334C10.1144 7.33334 9.66668 6.88563 9.66668 6.33334C9.66668 5.78106 10.1144 5.33334 10.6667 5.33334C11.219 5.33334 11.6667 5.78106 11.6667 6.33334Z" fill="#001018"/>
</svg>
