<svg width="16" height="16" fill="none" xmlns="http://www.w3.org/2000/svg"><path d="M8 1.333a6.667 6.667 0 0 1 5.957 9.664 1.318 1.318 0 0 0-.266-.516l-.082-.09-.942-.943-.943.943-.078.084a1.334 1.334 0 0 0 1.12 2.188A6.647 6.647 0 0 1 8 14.667 6.667 6.667 0 1 1 8 1.333zM8 10c-.92 0-1.753.373-2.356.975l-.11.116.63.574A5.003 5.003 0 0 1 8 11.333c.603 0 1.17.096 1.657.264l.18.067.63-.573A3.324 3.324 0 0 0 8 10zM5.667 6.667a1 1 0 1 0 0 2 1 1 0 0 0 0-2zm4.666 0a1 1 0 1 0 0 2 1 1 0 0 0 0-2z" fill="#001018"/></svg>