<svg width="16" height="16" viewBox="0 0 16 16" fill="none" xmlns="http://www.w3.org/2000/svg">
<path fill-rule="evenodd" clip-rule="evenodd" d="M8.00001 1.33333C11.682 1.33333 14.6667 4.318 14.6667 8C14.6667 11.682 11.682 14.6667 8.00001 14.6667C4.31801 14.6667 1.33334 11.682 1.33334 8C1.33334 4.318 4.31801 1.33333 8.00001 1.33333ZM8.00001 2.66666C5.05449 2.66666 2.66668 5.05448 2.66668 7.99999C2.66668 10.9455 5.05449 13.3333 8.00001 13.3333C10.9455 13.3333 13.3333 10.9455 13.3333 7.99999C13.3333 5.05448 10.9455 2.66666 8.00001 2.66666ZM11.3333 7.99999C10.4447 7.55533 9.33334 7.33333 8.00001 7.33333C6.66668 7.33333 5.55534 7.55533 4.66668 7.99999C4.66668 9.84094 6.15906 11.3333 8.00001 11.3333C9.84096 11.3333 11.3333 9.84094 11.3333 7.99999ZM5.66674 4.66666C6.45886 4.6665 7.14165 5.22388 7.30008 5.99999H4.03341C4.19183 5.22388 4.87463 4.6665 5.66674 4.66666ZM11.9667 5.99999C11.8083 5.22388 11.1255 4.6665 10.3334 4.66666C9.5413 4.6665 8.8585 5.22388 8.70008 5.99999H11.9667Z" fill="#001018"/>
</svg>
