<svg width="16" height="16" fill="none" xmlns="http://www.w3.org/2000/svg"><path fill-rule="evenodd" clip-rule="evenodd" d="M14.667 8a6.667 6.667 0 1 0-1.902 4.663 1.333 1.333 0 0 1-1.119-2.188l.078-.084.943-.943.942.943.082.09c.126.15.217.326.266.516A6.64 6.64 0 0 0 14.667 8zm-9.023 2.975A3.325 3.325 0 0 1 8 10a3.325 3.325 0 0 1 2.467 1.09l-.63.574-.18-.067A5.128 5.128 0 0 0 8 11.333c-.679 0-1.31.122-1.837.332l-.63-.574.111-.116zm.023-4.308a1 1 0 1 0 0 2 1 1 0 0 0 0-2zm3.666 1a1 1 0 1 1 2 0 1 1 0 0 1-2 0z" fill="#001018"/></svg>