<svg width="16" height="16" fill="none" xmlns="http://www.w3.org/2000/svg"><path fill-rule="evenodd" clip-rule="evenodd" d="M8 1.333a6.667 6.667 0 0 1 6.517 8.079l-1.188-1.189a5.333 5.333 0 1 0-2.917 4.534c.254.404.612.731 1.037.949A6.667 6.667 0 1 1 8 1.333zm4.667 8.115.942.943a1.333 1.333 0 1 1-1.953.073l.068-.073.943-.943zm-2.2 1.643A3.325 3.325 0 0 0 8 10a3.325 3.325 0 0 0-2.467 1.09l.63.574A5.03 5.03 0 0 1 8 11.334c.679 0 1.31.12 1.837.33l.63-.573zm-4.8-4.424a1 1 0 1 1 0 2 1 1 0 0 1 0-2zm5.666 1a1 1 0 1 0-2 0 1 1 0 0 0 2 0z" fill="#001018"/></svg>