<svg width="24" height="24" viewBox="0 0 24 24" fill="none" xmlns="http://www.w3.org/2000/svg">
<path d="M12 2C17.523 2 22 6.477 22 12C22 17.523 17.523 22 12 22C6.477 22 2 17.523 2 12C2 6.477 6.477 2 12 2ZM12 4C7.58172 4 4 7.58172 4 12C4 16.4183 7.58172 20 12 20C16.4183 20 20 16.4183 20 12C20 7.58172 16.4183 4 12 4ZM17 12C15.667 11.333 14 11 12 11C10 11 8.333 11.333 7 12C7 14.7614 9.23858 17 12 17C14.7614 17 17 14.7614 17 12ZM8.5 7C9.68817 6.99976 10.7124 7.83583 10.95 9H6.05C6.28763 7.83583 7.31183 6.99976 8.5 7ZM17.95 9C17.7124 7.83583 16.6882 6.99976 15.5 7C14.3118 6.99976 13.2876 7.83583 13.05 9H17.95Z" fill="#001018"/>
</svg>
