<svg width="16" height="16" viewBox="0 0 16 16" xmlns="http://www.w3.org/2000/svg"><path fill-rule="evenodd" clip-rule="evenodd" d="M7.99998 1.33337C11.682 1.33337 14.6666 4.31804 14.6666 8.00004C14.6666 8.48471 14.6153 8.95671 14.5166 9.41204L13.3286 8.22337C13.4292 5.81779 11.9056 3.64313 9.61023 2.91619C7.3149 2.18925 4.81715 3.09032 3.51456 5.11522C2.21197 7.14012 2.42758 9.78666 4.04075 11.574C5.65393 13.3614 8.26459 13.8463 10.412 12.7574C10.6664 13.1607 11.0244 13.4883 11.4486 13.706C10.4088 14.3361 9.21583 14.6684 7.99998 14.6667C4.31798 14.6667 1.33331 11.682 1.33331 8.00004C1.33331 4.31804 4.31798 1.33337 7.99998 1.33337ZM12.6667 9.448L13.6093 10.3907C14.121 10.9021 14.1314 11.7283 13.6328 12.2525C13.1343 12.7767 12.3086 12.8077 11.7721 12.3224C11.2357 11.837 11.1841 11.0124 11.656 10.464L11.724 10.3907L12.6667 9.448ZM10.4667 11.0914C9.85671 10.4207 8.97738 10 8.00004 10C7.06066 9.99879 6.16459 10.395 5.53338 11.0907L6.16338 11.664C6.69004 11.4554 7.32138 11.3334 8.00004 11.3334C8.67871 11.3334 9.31004 11.4547 9.83671 11.6647L10.4667 11.0914ZM5.66665 6.66671C6.21893 6.66671 6.66665 7.11442 6.66665 7.66671C6.66665 8.21899 6.21893 8.66671 5.66665 8.66671C5.11436 8.66671 4.66665 8.21899 4.66665 7.66671C4.66665 7.11442 5.11436 6.66671 5.66665 6.66671ZM11.3333 7.66671C11.3333 7.11442 10.8856 6.66671 10.3333 6.66671C9.78103 6.66671 9.33331 7.11442 9.33331 7.66671C9.33331 8.21899 9.78103 8.66671 10.3333 8.66671C10.8856 8.66671 11.3333 8.21899 11.3333 7.66671Z"/></svg>