<svg width="16" height="16" viewBox="0 0 16 16" fill="none" xmlns="http://www.w3.org/2000/svg">
<path fill-rule="evenodd" clip-rule="evenodd" d="M7.99998 14.6667C4.31798 14.6667 1.33331 11.682 1.33331 8.00004C1.33331 4.31804 4.31798 1.33337 7.99998 1.33337C11.682 1.33337 14.6666 4.31804 14.6666 8.00004C14.6666 11.682 11.682 14.6667 7.99998 14.6667ZM7.99998 13.3334C10.9455 13.3334 13.3333 10.9456 13.3333 8.00004C13.3333 5.05452 10.9455 2.66671 7.99998 2.66671C5.05446 2.66671 2.66665 5.05452 2.66665 8.00004C2.66665 10.9456 5.05446 13.3334 7.99998 13.3334ZM10.6666 10.6667V9.33337H5.33331V10.6667H10.6666ZM5.33331 7.33337C4.78103 7.33337 4.33331 6.88566 4.33331 6.33337C4.33331 5.78109 4.78103 5.33337 5.33331 5.33337C5.8856 5.33337 6.33331 5.78109 6.33331 6.33337C6.33331 6.88566 5.8856 7.33337 5.33331 7.33337ZM9.66665 6.33337C9.66665 6.88566 10.1144 7.33337 10.6666 7.33337C11.2189 7.33337 11.6666 6.88566 11.6666 6.33337C11.6666 5.78109 11.2189 5.33337 10.6666 5.33337C10.1144 5.33337 9.66665 5.78109 9.66665 6.33337Z" fill="#001018"/>
</svg>
