<svg width="16" height="16" viewBox="0 0 16 16" xmlns="http://www.w3.org/2000/svg"><path d="M8.00004 14.6667C4.31804 14.6667 1.33337 11.682 1.33337 8.00004C1.33337 4.31804 4.31804 1.33337 8.00004 1.33337C11.682 1.33337 14.6667 4.31804 14.6667 8.00004C14.6667 11.682 11.682 14.6667 8.00004 14.6667ZM4.66671 11.3334H6.00004C6.00004 10.8029 6.21075 10.2942 6.58583 9.91916C6.9609 9.54409 7.46961 9.33337 8.00004 9.33337C8.53047 9.33337 9.03918 9.54409 9.41425 9.91916C9.78933 10.2942 10 10.8029 10 11.3334H11.3334C11.3334 10.4493 10.9822 9.60147 10.3571 8.97635C9.73194 8.35123 8.8841 8.00004 8.00004 8.00004C7.11599 8.00004 6.26814 8.35123 5.64302 8.97635C5.0179 9.60147 4.66671 10.4493 4.66671 11.3334ZM5.33337 7.33337C5.59859 7.33337 5.85294 7.22802 6.04048 7.04048C6.22802 6.85294 6.33337 6.59859 6.33337 6.33337C6.33337 6.06816 6.22802 5.8138 6.04048 5.62627C5.85294 5.43873 5.59859 5.33337 5.33337 5.33337C5.06816 5.33337 4.8138 5.43873 4.62627 5.62627C4.43873 5.8138 4.33337 6.06816 4.33337 6.33337C4.33337 6.59859 4.43873 6.85294 4.62627 7.04048C4.8138 7.22802 5.06816 7.33337 5.33337 7.33337ZM10.6667 7.33337C10.9319 7.33337 11.1863 7.22802 11.3738 7.04048C11.5613 6.85294 11.6667 6.59859 11.6667 6.33337C11.6667 6.06816 11.5613 5.8138 11.3738 5.62627C11.1863 5.43873 10.9319 5.33337 10.6667 5.33337C10.4015 5.33337 10.1471 5.43873 9.9596 5.62627C9.77206 5.8138 9.66671 6.06816 9.66671 6.33337C9.66671 6.59859 9.77206 6.85294 9.9596 7.04048C10.1471 7.22802 10.4015 7.33337 10.6667 7.33337Z"/></svg>