<svg width="16" height="16" fill="none" xmlns="http://www.w3.org/2000/svg"><path fill-rule="evenodd" clip-rule="evenodd" d="M4.113 2.668a2 2 0 0 1 3.774 0h6.78v1.334h-6.78a2 2 0 0 1-3.774 0h-2.78V2.668h2.78zM10 6a2 2 0 0 0-1.887 1.335h-6.78v1.333h6.78a2 2 0 0 0 3.774 0h2.78V7.335h-2.78A2 2 0 0 0 10 6zm-4 4.667a2 2 0 0 0-1.887 1.335h-2.78v1.333h2.78a2 2 0 0 0 3.774 0h6.78v-1.333h-6.78A2 2 0 0 0 6 10.667zm.667-7.332a.667.667 0 1 1-1.334 0 .667.667 0 0 1 1.334 0zM10 8.668a.667.667 0 1 0 0-1.333.667.667 0 0 0 0 1.333zm-3.333 4a.667.667 0 1 1-1.334 0 .667.667 0 0 1 1.334 0z" fill="#001018"/></svg>