<svg width="16" height="16" viewBox="0 0 16 16" fill="none" xmlns="http://www.w3.org/2000/svg">
<path d="M4.11331 12C4.25105 11.6097 4.50647 11.2716 4.84438 11.0326C5.18229 10.7935 5.58604 10.6651 5.99998 10.6651C6.41392 10.6651 6.81767 10.7935 7.15558 11.0326C7.49349 11.2716 7.74891 11.6097 7.88665 12H14.6666V13.3334H7.88665C7.74891 13.7237 7.49349 14.0617 7.15558 14.3008C6.81767 14.5399 6.41392 14.6683 5.99998 14.6683C5.58604 14.6683 5.18229 14.5399 4.84438 14.3008C4.50647 14.0617 4.25105 13.7237 4.11331 13.3334H1.33331V12H4.11331ZM8.11331 7.33336C8.25105 6.943 8.50647 6.60498 8.84438 6.36589C9.18229 6.12679 9.58604 5.99839 9.99998 5.99839C10.4139 5.99839 10.8177 6.12679 11.1556 6.36589C11.4935 6.60498 11.7489 6.943 11.8866 7.33336H14.6666V8.66669H11.8866C11.7489 9.05705 11.4935 9.39507 11.1556 9.63417C10.8177 9.87326 10.4139 10.0017 9.99998 10.0017C9.58604 10.0017 9.18229 9.87326 8.84438 9.63417C8.50647 9.39507 8.25105 9.05705 8.11331 8.66669H1.33331V7.33336H8.11331ZM4.11331 2.66669C4.25105 2.27634 4.50647 1.93832 4.84438 1.69922C5.18229 1.46012 5.58604 1.33173 5.99998 1.33173C6.41392 1.33173 6.81767 1.46012 7.15558 1.69922C7.49349 1.93832 7.74891 2.27634 7.88665 2.66669H14.6666V4.00003H7.88665C7.74891 4.39038 7.49349 4.7284 7.15558 4.9675C6.81767 5.2066 6.41392 5.33499 5.99998 5.33499C5.58604 5.33499 5.18229 5.2066 4.84438 4.9675C4.50647 4.7284 4.25105 4.39038 4.11331 4.00003H1.33331V2.66669H4.11331ZM5.99998 4.00003C6.17679 4.00003 6.34636 3.92979 6.47138 3.80476C6.59641 3.67974 6.66665 3.51017 6.66665 3.33336C6.66665 3.15655 6.59641 2.98698 6.47138 2.86196C6.34636 2.73693 6.17679 2.66669 5.99998 2.66669C5.82317 2.66669 5.6536 2.73693 5.52858 2.86196C5.40355 2.98698 5.33331 3.15655 5.33331 3.33336C5.33331 3.51017 5.40355 3.67974 5.52858 3.80476C5.6536 3.92979 5.82317 4.00003 5.99998 4.00003V4.00003ZM9.99998 8.66669C10.1768 8.66669 10.3464 8.59646 10.4714 8.47143C10.5964 8.34641 10.6666 8.17684 10.6666 8.00003C10.6666 7.82322 10.5964 7.65365 10.4714 7.52862C10.3464 7.4036 10.1768 7.33336 9.99998 7.33336C9.82317 7.33336 9.6536 7.4036 9.52857 7.52862C9.40355 7.65365 9.33331 7.82322 9.33331 8.00003C9.33331 8.17684 9.40355 8.34641 9.52857 8.47143C9.6536 8.59646 9.82317 8.66669 9.99998 8.66669V8.66669ZM5.99998 13.3334C6.17679 13.3334 6.34636 13.2631 6.47138 13.1381C6.59641 13.0131 6.66665 12.8435 6.66665 12.6667C6.66665 12.4899 6.59641 12.3203 6.47138 12.1953C6.34636 12.0703 6.17679 12 5.99998 12C5.82317 12 5.6536 12.0703 5.52858 12.1953C5.40355 12.3203 5.33331 12.4899 5.33331 12.6667C5.33331 12.8435 5.40355 13.0131 5.52858 13.1381C5.6536 13.2631 5.82317 13.3334 5.99998 13.3334V13.3334Z" fill="#001018"/>
</svg>
