<svg width="24" height="24" viewBox="0 0 24 24" fill="none" xmlns="http://www.w3.org/2000/svg">
<path fill-rule="evenodd" clip-rule="evenodd" d="M9 2C7.72753 2 6.5934 2.80249 6.17 4.00245H2V6.00245H6.17C6.5934 7.20241 7.72753 8.0049 9 8.0049C10.2725 8.0049 11.4066 7.20241 11.83 6.00245H22V4.00245H11.83C11.4066 2.80249 10.2725 2 9 2ZM12.17 11.0025C12.5934 9.80249 13.7275 9 15 9C16.2725 9 17.4066 9.80249 17.83 11.0025H22V13.0025H17.83C17.4066 14.2024 16.2725 15.0049 15 15.0049C13.7275 15.0049 12.5934 14.2024 12.17 13.0025H2V11.0025H12.17ZM6.17 18.0025C6.5934 16.8025 7.72753 16 9 16C10.2725 16 11.4066 16.8025 11.83 18.0025H22V20.0025H11.83C11.4066 21.2024 10.2725 22.0049 9 22.0049C7.72753 22.0049 6.5934 21.2024 6.17 20.0025H2V18.0025H6.17Z" fill="#001018"/>
</svg>
