<svg width="16" height="16" viewBox="0 0 16 16" fill="none" xmlns="http://www.w3.org/2000/svg">
<path fill-rule="evenodd" clip-rule="evenodd" d="M1.33333 8C1.33333 11.682 4.318 14.6667 8 14.6667C11.682 14.6667 14.6667 11.682 14.6667 8C14.6667 4.318 11.682 1.33333 8 1.33333C4.318 1.33333 1.33333 4.318 1.33333 8ZM13.3333 8C13.3333 10.9455 10.9455 13.3333 8 13.3333C5.05448 13.3333 2.66667 10.9455 2.66667 8C2.66667 5.05448 5.05448 2.66667 8 2.66667C10.9455 2.66667 13.3333 5.05448 13.3333 8ZM4.66667 8.66667H10.6667V10H8V12L4.66667 8.66667ZM8 4V6H5.33333V7.33333H11.3333L8 4Z" fill="#001018"/>
</svg>
