<svg width="24" height="24" xmlns="http://www.w3.org/2000/svg"><path fill-rule="evenodd" clip-rule="evenodd" d="M15 3.651V6.85l2.398-1.599L15 3.651zm-1.5 2.527-9 1.928V15A.75.75 0 0 1 3 15V7.5a.75.75 0 0 1 .593-.733L13.5 4.644V2.25a.75.75 0 0 1 1.166-.624l4.5 3a.75.75 0 0 1 0 1.248l-4.5 3A.75.75 0 0 1 13.5 8.25V6.178zm-3 11.643 9-1.929V9A.75.75 0 1 1 21 9v7.5a.75.75 0 0 1-.593.733L10.5 19.355v2.395a.75.75 0 0 1-1.166.624l-4.5-3a.75.75 0 0 1 0-1.248l4.5-3a.75.75 0 0 1 1.166.624v2.071zm-1.5-.67L6.602 18.75 9 20.349V17.15z"/></svg>