<svg width="16" height="16" viewBox="0 0 16 16" fill="none" xmlns="http://www.w3.org/2000/svg">
<path d="M1.33008 1.99649C1.33008 1.62839 1.62848 1.32999 1.99658 1.32999H13.9936C14.3617 1.32999 14.6601 1.62839 14.6601 1.99649V13.9935C14.6601 14.3616 14.3617 14.66 13.9936 14.66H1.99658C1.62848 14.66 1.33008 14.3616 1.33008 13.9935V1.99649ZM2.66308 2.66299V13.327H13.3271V2.66299H2.66308Z" fill="#001018"/>
<path d="M6.17076 7.54462L7.15339 8.44536L6.34432 9.32799H11.3276V10.661H6.34431L7.15339 11.5436L6.17077 12.4444L3.92505 9.9945L6.17076 7.54462Z" fill="#001018"/>
<path d="M9.81939 8.44537L12.0651 5.99549L9.81939 3.54562L8.83676 4.44636L9.64584 5.32899H4.66258V6.66199H9.64585L8.83676 7.54463L9.81939 8.44537Z" fill="#001018"/>
</svg>
