<svg width="16" height="16" viewBox="0 0 16 16" fill="none" xmlns="http://www.w3.org/2000/svg">
<path d="M11.9214 12.8646C10.7488 13.6084 9.38851 14.0022 8.00002 14C4.40535 14 1.41469 11.4133 0.787354 7.99998C1.07404 6.44713 1.85511 5.02858 3.01402 3.95598L0.92802 1.87198L1.87135 0.92865L15.0707 14.1286L14.1274 15.0713L11.9207 12.8646H11.9214ZM3.95669 4.89998C3.05069 5.72371 2.41956 6.80584 2.14869 7.99998C2.35688 8.91095 2.77486 9.76075 3.36936 10.4817C3.96385 11.2027 4.71844 11.7749 5.57306 12.1529C6.42767 12.5308 7.35872 12.704 8.29208 12.6587C9.22544 12.6134 10.1353 12.3509 10.9494 11.892L9.59735 10.54C9.02181 10.9025 8.34015 11.0587 7.66418 10.9829C6.9882 10.9072 6.35805 10.6039 5.87707 10.1229C5.39609 9.64196 5.09284 9.0118 5.01706 8.33582C4.94128 7.65985 5.09748 6.97819 5.46002 6.40265L3.95669 4.89998ZM8.60935 9.55198L6.44802 7.39065C6.3294 7.69261 6.30148 8.02262 6.36769 8.34021C6.4339 8.65781 6.59137 8.94917 6.82077 9.17857C7.05017 9.40797 7.34153 9.56543 7.65912 9.63165C7.97672 9.69786 8.30673 9.66994 8.60869 9.55132L8.60935 9.55198ZM13.8714 11.0613L12.9174 10.108C13.363 9.47285 13.6803 8.75677 13.8514 7.99998C13.6702 7.20647 13.3295 6.45808 12.8501 5.80031C12.3707 5.14254 11.7625 4.58913 11.0626 4.17372C10.3627 3.7583 9.58555 3.48956 8.77851 3.38383C7.97147 3.27809 7.15136 3.33757 6.36802 3.55865L5.31602 2.50665C6.14735 2.17998 7.05335 1.99998 8.00002 1.99998C11.5947 1.99998 14.5854 4.58665 15.2127 7.99998C15.0084 9.11045 14.5493 10.1584 13.8714 11.0613ZM7.81535 5.00532C8.23969 4.97909 8.66476 5.04336 9.06238 5.19386C9.46 5.34436 9.82109 5.57766 10.1217 5.87828C10.4223 6.17891 10.6556 6.54 10.8061 6.93762C10.9566 7.33524 11.0209 7.76031 10.9947 8.18465L7.81469 5.00532H7.81535Z" fill="#001018"/>
</svg>
