<svg width="16" height="16" viewBox="0 0 16 16" fill="none" xmlns="http://www.w3.org/2000/svg">
<path d="M8.00002 2C11.5947 2 14.5854 4.58667 15.2127 8C14.586 11.4133 11.5947 14 8.00002 14C4.40535 14 1.41469 11.4133 0.787354 8C1.41402 4.58667 4.40535 2 8.00002 2ZM8.00002 12.6667C9.35967 12.6664 10.6789 12.2045 11.7419 11.3568C12.8049 10.509 13.5486 9.32552 13.8514 8C13.5475 6.67554 12.8033 5.49334 11.7404 4.64668C10.6776 3.80003 9.35889 3.33902 8.00002 3.33902C6.64115 3.33902 5.32248 3.80003 4.2596 4.64668C3.19673 5.49334 2.45253 6.67554 2.14869 8C2.45142 9.32552 3.19514 10.509 4.25812 11.3568C5.3211 12.2045 6.64037 12.6664 8.00002 12.6667ZM8.00002 11C7.20437 11 6.44131 10.6839 5.8787 10.1213C5.31609 9.55871 5.00002 8.79565 5.00002 8C5.00002 7.20435 5.31609 6.44129 5.8787 5.87868C6.44131 5.31607 7.20437 5 8.00002 5C8.79567 5 9.55873 5.31607 10.1213 5.87868C10.6839 6.44129 11 7.20435 11 8C11 8.79565 10.6839 9.55871 10.1213 10.1213C9.55873 10.6839 8.79567 11 8.00002 11ZM8.00002 9.66667C8.44205 9.66667 8.86597 9.49107 9.17853 9.17851C9.49109 8.86595 9.66669 8.44203 9.66669 8C9.66669 7.55797 9.49109 7.13405 9.17853 6.82149C8.86597 6.50893 8.44205 6.33333 8.00002 6.33333C7.55799 6.33333 7.13407 6.50893 6.82151 6.82149C6.50895 7.13405 6.33335 7.55797 6.33335 8C6.33335 8.44203 6.50895 8.86595 6.82151 9.17851C7.13407 9.49107 7.55799 9.66667 8.00002 9.66667Z" fill="#001018"/>
</svg>
