<svg width="24" height="24" viewBox="0 0 24 24" fill="none" xmlns="http://www.w3.org/2000/svg">
<path fill-rule="evenodd" clip-rule="evenodd" d="M4.51991 5.93401L1.39291 2.80801L2.80791 1.39301L22.6069 21.193L21.1919 22.607L17.8819 19.297C16.1231 20.4126 14.0826 21.0033 11.9999 21C6.60791 21 2.12191 17.12 1.18091 12C1.61094 9.67072 2.78154 7.5429 4.51991 5.93401ZM14.7569 16.172L13.2929 14.708C12.1454 15.2571 10.7763 15.0227 9.87678 14.1231C8.97725 13.2236 8.74285 11.8545 9.29191 10.707L7.82791 9.24301C6.5161 11.2253 6.78122 13.8571 8.46203 15.5379C10.1428 17.2187 12.7746 17.4838 14.7569 16.172ZM11.9999 3.00001C10.5799 3.00001 9.22091 3.27001 7.97391 3.76001L11.2669 7.05201C12.8332 6.8195 14.417 7.34262 15.5366 8.46227C16.6563 9.58192 17.1794 11.1657 16.9469 12.732L20.8069 16.592C21.8238 15.2376 22.5125 13.6657 22.8189 12C21.8779 6.88001 17.3919 3.00001 11.9999 3.00001Z" fill="#001018"/>
</svg>
