<svg width="16" height="16" viewBox="0 0 16 16" xmlns="http://www.w3.org/2000/svg"><path fill-rule="evenodd" clip-rule="evenodd" d="M0.787354 8C1.41402 4.58667 4.40535 2 8.00002 2C11.5947 2 14.5854 4.58667 15.2127 8C14.586 11.4133 11.5947 14 8.00002 14C4.40535 14 1.41469 11.4133 0.787354 8ZM8.00003 11.3333C9.84098 11.3333 11.3334 9.84095 11.3334 8C11.3334 6.15905 9.84098 4.66667 8.00003 4.66667C6.15908 4.66667 4.6667 6.15905 4.6667 8C4.6667 9.84095 6.15908 11.3333 8.00003 11.3333ZM6.00003 8C6.00003 9.10457 6.89546 10 8.00003 10C9.1046 10 10 9.10457 10 8C10 6.89543 9.1046 6 8.00003 6C6.89546 6 6.00003 6.89543 6.00003 8Z"/></svg>