<svg width="24" height="24" viewBox="0 0 24 24" fill="none" xmlns="http://www.w3.org/2000/svg">
<path fill-rule="evenodd" clip-rule="evenodd" d="M1.18091 12C2.12091 6.88 6.60791 3 11.9999 3C17.3919 3 21.8779 6.88 22.8189 12C21.8789 17.12 17.3919 21 11.9999 21C6.60791 21 2.12191 17.12 1.18091 12ZM11.9999 17C14.7613 17 16.9999 14.7614 16.9999 12C16.9999 9.23858 14.7613 7 11.9999 7C9.23848 7 6.99991 9.23858 6.99991 12C6.99991 14.7614 9.23848 17 11.9999 17ZM8.99991 12C8.99991 13.6569 10.3431 15 11.9999 15C13.6568 15 14.9999 13.6569 14.9999 12C14.9999 10.3431 13.6568 9 11.9999 9C10.3431 9 8.99991 10.3431 8.99991 12Z" fill="#001018"/>
</svg>
