<svg width="16" height="16" viewBox="0 0 16 16" fill="none" xmlns="http://www.w3.org/2000/svg">
<path fill-rule="evenodd" clip-rule="evenodd" d="M0.787323 8C1.41399 4.58667 4.40532 2 7.99999 2C11.5947 2 14.5853 4.58667 15.2127 8C14.586 11.4133 11.5947 14 7.99999 14C4.40532 14 1.41466 11.4133 0.787323 8ZM8 11.3333C9.84095 11.3333 11.3333 9.84095 11.3333 8C11.3333 6.15905 9.84095 4.66667 8 4.66667C6.15905 4.66667 4.66667 6.15905 4.66667 8C4.66667 9.84095 6.15905 11.3333 8 11.3333ZM6 8C6 9.10457 6.89543 10 8 10C9.10457 10 10 9.10457 10 8C10 6.89543 9.10457 6 8 6C6.89543 6 6 6.89543 6 8Z" fill="#001018"/>
</svg>
