<svg width="16" height="16" fill="none" xmlns="http://www.w3.org/2000/svg"><path fill-rule="evenodd" clip-rule="evenodd" d="M8 14a7.3 7.3 0 0 0 3.921-1.135l2.206 2.206.944-.942L1.87.929l-.943.943 2.086 2.084A7.321 7.321 0 0 0 .787 8 7.336 7.336 0 0 0 8 14zM3.957 4.9A5.977 5.977 0 0 0 2.149 8a6.003 6.003 0 0 0 8.8 3.892L9.597 10.54A3 3 0 0 1 5.46 6.403L3.957 4.9zm2.491 2.49 2.16 2.161a1.667 1.667 0 0 1-2.16-2.16zm7.423 3.671-.954-.953A5.958 5.958 0 0 0 13.851 8a6.004 6.004 0 0 0-7.483-4.441L5.316 2.507A7.336 7.336 0 0 1 15.213 8a7.298 7.298 0 0 1-1.342 3.061zm-3.75-5.183a3 3 0 0 0-2.306-.873l3.18 3.18a3 3 0 0 0-.873-2.307z" fill="#001018"/></svg>