<svg width="16" height="16" viewBox="0 0 16 16" fill="none" xmlns="http://www.w3.org/2000/svg">
<path fill-rule="evenodd" clip-rule="evenodd" d="M15.2127 8C14.5853 4.58667 11.5947 2 7.99999 2C4.40532 2 1.41399 4.58667 0.787323 8C1.41466 11.4133 4.40532 14 7.99999 14C11.5947 14 14.586 11.4133 15.2127 8ZM13.8513 8C13.2279 10.7298 10.8001 12.6661 7.99999 12.6667C5.19991 12.6661 2.77211 10.7298 2.14866 8C2.77438 5.27246 5.20161 3.33901 7.99999 3.33901C10.7984 3.33901 13.2256 5.27246 13.8513 8ZM8 11C6.34315 11 5 9.65685 5 8C5 6.34315 6.34315 5 8 5C9.65685 5 11 6.34315 11 8C11 9.65685 9.65685 11 8 11ZM9.66667 8C9.66667 8.92048 8.92048 9.66667 8 9.66667C7.07953 9.66667 6.33333 8.92048 6.33333 8C6.33333 7.07953 7.07953 6.33333 8 6.33333C8.92048 6.33333 9.66667 7.07953 9.66667 8Z" fill="#001018"/>
</svg>
