<svg width="16" height="16" viewBox="0 0 16 16" fill="none" xmlns="http://www.w3.org/2000/svg">
<path d="M8.66667 6H11.6667L11.3333 7.33334H8.66667V13.3333H7.33334V7.33334H4.66667V6H7.33334V4.752C7.33334 3.56334 7.45734 3.132 7.68934 2.69734C7.91668 2.26787 8.26788 1.91668 8.69734 1.68934C9.13201 1.45734 9.56334 1.33334 10.752 1.33334C11.1 1.33334 11.4053 1.36667 11.6667 1.43334V2.66667H10.752C9.86934 2.66667 9.60067 2.71867 9.32667 2.86534C9.124 2.97334 8.97334 3.124 8.86534 3.32667C8.71867 3.60067 8.66667 3.86934 8.66667 4.752V6Z" fill="#001018"/>
</svg>
