<svg width="16" height="16" viewBox="0 0 16 16" fill="none" xmlns="http://www.w3.org/2000/svg">
<path d="M8.66669 6.00001H11.6667L11.3334 7.33334H8.66669V13.3333H7.33335V7.33334H4.66669V6.00001H7.33335V4.75201C7.33335 3.56334 7.45735 3.13201 7.68935 2.69734C7.91669 2.26788 8.26789 1.91668 8.69735 1.68934C9.13202 1.45734 9.56335 1.33334 10.752 1.33334C11.1 1.33334 11.4054 1.36668 11.6667 1.43334V2.66668H10.752C9.86935 2.66668 9.60069 2.71868 9.32669 2.86534C9.12402 2.97334 8.97335 3.12401 8.86535 3.32668C8.71869 3.60068 8.66669 3.86934 8.66669 4.75201V6.00001Z" fill="#001018"/>
</svg>
