<svg width="24" height="24" viewBox="0 0 24 24" fill="none" xmlns="http://www.w3.org/2000/svg">
<path d="M7 5V3C7 2.73474 7.10547 2.48047 7.29297 2.29285C7.37842 2.2074 7.47754 2.13904 7.58545 2.08997C7.71436 2.03125 7.85547 2 8 2H20C20.5523 2 21 2.44772 21 3V17C21 17.2653 20.8945 17.5195 20.707 17.7072C20.5195 17.8947 20.2651 18 20 18H18V6C18 5.44772 17.5523 5 17 5H7Z" fill="#001018"/>
<path d="M4.00977 6H16C16.5523 6 17 6.44772 17 7V21C17 21.552 16.5498 22 15.9932 22H4.00684C3.875 22.0007 3.74463 21.9755 3.62256 21.9257C3.57471 21.9061 3.52881 21.8829 3.48438 21.8564C3.41602 21.8152 3.35254 21.7659 3.2959 21.7094C3.27197 21.6857 3.24951 21.6609 3.22803 21.6351C3.16602 21.5594 3.11523 21.4749 3.07715 21.3842C3.02637 21.2625 3 21.1318 3 21L3.00293 7C3.00293 6.448 3.45312 6 4.00977 6Z" fill="#001018"/>
</svg>
