<svg width="16" height="16" viewBox="0 0 16 16" fill="none" xmlns="http://www.w3.org/2000/svg">
<path d="M4.66667 3.1V1.7C4.66667 1.51432 4.73698 1.33633 4.86198 1.20499C4.91895 1.14518 4.98503 1.09733 5.05697 1.06298C5.1429 1.02187 5.23698 1 5.33333 1H13.3333C13.7015 1 14 1.3134 14 1.7V11.5C14 11.6857 13.9297 11.8637 13.8047 11.995C13.6797 12.1262 13.5101 12.2 13.3333 12.2H12V10.8H12.6667V2.4H6V3.1H4.66667Z" fill="#001018"/>
<path fill-rule="evenodd" clip-rule="evenodd" d="M2.67318 3.8C2.30208 3.8 2.00195 4.1136 2.00195 4.5L2 14.3C2 14.3923 2.01758 14.4837 2.05143 14.5689C2.07682 14.6324 2.11068 14.6916 2.15202 14.7446C2.16634 14.7626 2.18132 14.78 2.19727 14.7965C2.23503 14.8361 2.27734 14.8706 2.32292 14.8995C2.35254 14.918 2.38314 14.9343 2.41504 14.948C2.49642 14.9828 2.58333 15.0005 2.67122 15H10.6621C11.0332 15 11.3333 14.6864 11.3333 14.3V4.5C11.3333 4.1134 11.0349 3.8 10.6667 3.8H2.67318ZM3.33529 5.2L3.33333 13.6H10V5.2H3.33529Z" fill="#001018"/>
</svg>
