<svg width="24" height="24" viewBox="0 0 24 24" fill="none" xmlns="http://www.w3.org/2000/svg">
<path d="M7 5V3C7 2.73474 7.10547 2.48047 7.29297 2.29285C7.37842 2.2074 7.47754 2.13904 7.58545 2.08997C7.71436 2.03125 7.85547 2 8 2H20C20.5523 2 21 2.44772 21 3V17C21 17.2653 20.8945 17.5195 20.707 17.7072C20.5195 17.8947 20.2651 18 20 18H18V16H19V4H9V5H7Z" fill="#001018"/>
<path fill-rule="evenodd" clip-rule="evenodd" d="M4.00977 6C3.45312 6 3.00293 6.448 3.00293 7L3 21C3 21.1318 3.02637 21.2625 3.07715 21.3842C3.11523 21.4749 3.16602 21.5594 3.22803 21.6351C3.24951 21.6609 3.27197 21.6857 3.2959 21.7094C3.35254 21.7659 3.41602 21.8152 3.48438 21.8564C3.52881 21.8829 3.57471 21.9061 3.62256 21.9257C3.74463 21.9755 3.875 22.0007 4.00684 22H15.9932C16.5498 22 17 21.552 17 21V7C17 6.44772 16.5523 6 16 6H4.00977ZM5.00293 8L5 20H15V8H5.00293Z" fill="#001018"/>
</svg>
