<svg width="16" height="16" viewBox="0 0 16 16" fill="none" xmlns="http://www.w3.org/2000/svg">
<path fill-rule="evenodd" clip-rule="evenodd" d="M1.33333 2.662C1.33587 2.2977 1.63037 2.00291 1.99466 2H14.0053C14.3707 2 14.6667 2.29667 14.6667 2.662V13.338C14.6641 13.7023 14.3696 13.9971 14.0053 14H1.99466C1.62931 13.9996 1.33333 13.7034 1.33333 13.338V2.662ZM2.66666 3.33333V4.66667H3.99999V3.33333H2.66666ZM12 4.66667V3.33333H13.3333V4.66667H12ZM2.66666 6V7.33333H3.99999V6H2.66666ZM12 7.33333V6H13.3333V7.33333H12ZM2.66666 8.66667V10H3.99999V8.66667H2.66666ZM12 10V8.66667H13.3333V10H12ZM2.66666 11.3333V12.6667H3.99999V11.3333H2.66666ZM12 12.6667V11.3333H13.3333V12.6667H12Z" fill="#001018"/>
</svg>
