<svg width="16" height="16" fill="none" xmlns="http://www.w3.org/2000/svg"><path fill-rule="evenodd" clip-rule="evenodd" d="M1.995 2a.667.667 0 0 0-.662.662v10.676c0 .365.296.662.662.662h12.01a.667.667 0 0 0 .662-.662V2.662A.662.662 0 0 0 14.005 2H1.995zm3.338 10.667V3.333h5.334v9.334H5.333zM2.667 3.333v1.334H4V3.333H2.667zM12 4.667V3.333h1.333v1.334H12zM2.667 6v1.333H4V6H2.667zM12 7.333V6h1.333v1.333H12zM2.667 8.667V10H4V8.667H2.667zM12 10V8.667h1.333V10H12zm-9.333 1.333v1.334H4v-1.334H2.667zM12 12.667v-1.334h1.333v1.334H12z" fill="#001018"/></svg>