<svg width="16" height="16" xmlns="http://www.w3.org/2000/svg"><path d="M8 1.333a6.667 6.667 0 1 1-6.08 3.93c.31-.626.822-1.25 1.233-1.463-.435.855-.648 1.693-.693 2.255.303-1 .877-1.838 1.68-2.429 1.377-1.013 3.232-1.058 3.97-.413-1.37.471-2.863 2.365-2.535 4.584.054.366.164.722.326 1.054-.256-.673-.278-1.622.135-2.238.461-.687 1.119-.832 1.47-.758-.138-.029-.445.558-.49.661a1.98 1.98 0 0 0-.167.833c.01.6.257 1.17.686 1.587 1.282 1.247 3.349.757 4.275-.668.635-.98.713-2.645-.103-3.968a4.608 4.608 0 0 0-.723-.88C9.751 2.243 7.997 1.707 6.329 1.95c-.737.118-1.364.33-1.882.637C5.17 1.865 6.607 1.333 8 1.333z"/></svg>