<svg width="16" height="16" viewBox="0 0 16 16" xmlns="http://www.w3.org/2000/svg"><path d="M8.00006 15.3333C6.99816 15.3332 6.0194 15.0322 5.19067 14.4691C4.36194 13.9061 3.72146 13.1071 3.35229 12.1757C2.98312 11.2443 2.90228 10.2235 3.12025 9.24555C3.33822 8.26765 3.84495 7.37779 4.57473 6.69133C5.4694 5.84933 7.66673 4.33333 7.3334 1C11.3334 3.66667 13.3334 6.33333 9.3334 10.3333C10.0001 10.3333 11.0001 10.3333 12.6667 8.68667C12.8467 9.202 13.0001 9.756 13.0001 10.3333C13.0001 11.6594 12.4733 12.9312 11.5356 13.8689C10.5979 14.8065 9.32615 15.3333 8.00006 15.3333Z"/></svg>