<svg width="16" height="16" xmlns="http://www.w3.org/2000/svg"><path d="M8 1.333a6.666 6.666 0 1 1-6.08 3.93c.31-.626.822-1.25 1.233-1.463-.435.855-.648 1.693-.693 2.255.303-1 .877-1.838 1.68-2.429 1.377-1.013 3.232-1.058 3.97-.413-1.37.471-2.863 2.365-2.535 4.584.054.366.164.722.326 1.054-.256-.673-.278-1.622.135-2.238.461-.687 1.119-.832 1.47-.758-.138-.029-.445.558-.49.661a1.98 1.98 0 0 0-.167.833c.01.6.256 1.17.686 1.587 1.282 1.247 3.349.757 4.275-.668.635-.98.713-2.645-.103-3.968a4.61 4.61 0 0 0-.723-.88C9.751 2.243 7.997 1.707 6.329 1.95c-.737.118-1.364.33-1.882.637C5.17 1.865 6.607 1.333 8 1.333zM4.583 5.137c-1.502.52-2.334 2.113-1.719 4.306a5.336 5.336 0 0 0 4.97 3.888l.166.002a5.333 5.333 0 0 0 5.323-5.002l.006-.142c-.086.233-.188.45-.308.654l-.094.151c-1.402 2.16-4.454 2.717-6.32.899a3.595 3.595 0 0 1-.641-.838l-.07-.134C4.737 8.663 4.172 8.037 4.2 7.043a5.777 5.777 0 0 1 .383-1.907z"/></svg>