<svg width="16" height="16" viewBox="0 0 16 16" fill="none" xmlns="http://www.w3.org/2000/svg">
<path d="M8.00004 1.33334C11.682 1.33334 14.6667 4.31801 14.6667 8.00001C14.6667 11.682 11.682 14.6667 8.00004 14.6667C4.31804 14.6667 1.33337 11.682 1.33337 8.00001C1.33337 7.02401 1.54271 6.09734 1.92004 5.26268C2.23071 4.63668 2.74204 4.01334 3.15337 3.80001C2.71804 4.65534 2.50471 5.49334 2.46004 6.05534C2.76271 5.05534 3.33671 4.21734 4.14004 3.62601C5.51737 2.61334 7.37204 2.56801 8.11071 3.21268C6.74004 3.68401 5.24671 5.57801 5.57537 7.79668C5.62871 8.16334 5.73871 8.51934 5.90137 8.85134C5.64537 8.17801 5.62271 7.22934 6.03604 6.61268C6.49737 5.92601 7.15471 5.78068 7.50671 5.85534C7.36804 5.82601 7.06137 6.41268 7.01604 6.51601C6.90071 6.77868 6.84337 7.06268 6.84871 7.34934C6.85862 7.94826 7.10555 8.51882 7.53537 8.93601C8.81671 10.1833 10.884 9.69268 11.81 8.26801C12.4454 7.28734 12.5227 5.62268 11.7067 4.30001C11.5031 3.97794 11.2604 3.68235 10.984 3.42001C9.75071 2.24268 7.99737 1.70668 6.32937 1.95001C5.59204 2.06801 4.96471 2.28068 4.44671 2.58734C5.17004 1.86534 6.60671 1.33334 8.00004 1.33334Z" fill="#001018"/>
</svg>
