<svg width="24" height="24" viewBox="0 0 24 24" fill="none" xmlns="http://www.w3.org/2000/svg">
<path d="M12 23C13.9891 23 15.8968 22.2098 17.3033 20.8033C18.7098 19.3968 19.5 17.4891 19.5 15.5C19.5 14.634 19.27 13.803 19 13.03C17.333 14.677 16.067 15.5 15.2 15.5C19.195 8.5 17 5.5 11 1.5C11.5 6.5 8.20397 8.774 6.86197 10.037C5.7673 11.0667 5.00721 12.4015 4.68025 13.8683C4.3533 15.3352 4.47456 16.8664 5.02832 18.2635C5.58207 19.6606 6.54278 20.8592 7.78588 21.7037C9.02898 22.5483 10.4971 22.9999 12 23ZM12.71 5.235C15.951 7.985 15.967 10.122 13.463 14.509C12.702 15.842 13.665 17.5 15.2 17.5C15.888 17.5 16.584 17.3 17.319 16.905C17.1011 17.728 16.6952 18.4892 16.1331 19.1286C15.5711 19.768 14.8683 20.2682 14.08 20.5899C13.2918 20.9115 12.4397 21.0458 11.5907 20.9821C10.7418 20.9184 9.91921 20.6585 9.18778 20.2229C8.45634 19.7873 7.83602 19.1878 7.37566 18.4717C6.91529 17.7556 6.62744 16.9424 6.53479 16.0961C6.44213 15.2498 6.5472 14.3936 6.84171 13.5948C7.13621 12.7961 7.61213 12.0766 8.23197 11.493C8.35797 11.375 8.99697 10.808 9.02497 10.783C9.44897 10.403 9.79797 10.066 10.143 9.697C11.373 8.379 12.257 6.917 12.709 5.235H12.71Z" fill="#001018"/>
</svg>
