<svg width="24" height="24" viewBox="0 0 24 24" fill="none" xmlns="http://www.w3.org/2000/svg">
<path d="M12 2C17.523 2 22 6.477 22 12C22 17.523 17.523 22 12 22C6.477 22 2 17.523 2 12C2 10.536 2.314 9.146 2.88 7.894C3.346 6.955 4.113 6.02 4.73 5.7C4.077 6.983 3.757 8.24 3.69 9.083C4.144 7.583 5.005 6.326 6.21 5.439C8.276 3.92 11.058 3.852 12.166 4.819C10.11 5.526 7.87 8.367 8.363 11.695C8.443 12.245 8.608 12.779 8.852 13.277C8.468 12.267 8.434 10.844 9.054 9.919C9.746 8.889 10.732 8.671 11.26 8.783C11.052 8.739 10.592 9.619 10.524 9.774C10.351 10.168 10.265 10.594 10.273 11.024C10.2879 11.9224 10.6583 12.7782 11.303 13.404C13.225 15.275 16.326 14.539 17.715 12.402C18.668 10.931 18.784 8.434 17.56 6.45C17.2546 5.96689 16.8905 5.52351 16.476 5.13C14.626 3.364 11.996 2.56 9.494 2.925C8.388 3.102 7.447 3.421 6.67 3.881C7.755 2.798 9.91 2 12 2Z" fill="#001018"/>
</svg>
