<svg width="16" height="16" viewBox="0 0 16 16" fill="none" xmlns="http://www.w3.org/2000/svg">
<path d="M8.00001 1.33334C11.682 1.33334 14.6667 4.31801 14.6667 8.00001C14.6667 11.682 11.682 14.6667 8.00001 14.6667C4.31801 14.6667 1.33334 11.682 1.33334 8.00001C1.33334 7.02401 1.54268 6.09734 1.92001 5.26268C2.23068 4.63668 2.74201 4.01334 3.15334 3.80001C2.71801 4.65534 2.50468 5.49334 2.46001 6.05534C2.76268 5.05534 3.33668 4.21734 4.14001 3.62601C5.51734 2.61334 7.37201 2.56801 8.11068 3.21268C6.74001 3.68401 5.24668 5.57801 5.57534 7.79668C5.62868 8.16334 5.73868 8.51934 5.90134 8.85134C5.64534 8.17801 5.62268 7.22934 6.03601 6.61268C6.49734 5.92601 7.15468 5.78068 7.50668 5.85534C7.36801 5.82601 7.06134 6.41268 7.01601 6.51601C6.90068 6.77868 6.84334 7.06268 6.84868 7.34934C6.85859 7.94826 7.10552 8.51882 7.53534 8.93601C8.81668 10.1833 10.884 9.69268 11.81 8.26801C12.4453 7.28734 12.5227 5.62268 11.7067 4.30001C11.5031 3.97794 11.2603 3.68235 10.984 3.42001C9.75068 2.24268 7.99734 1.70668 6.32934 1.95001C5.59201 2.06801 4.96468 2.28068 4.44668 2.58734C5.17001 1.86534 6.60668 1.33334 8.00001 1.33334Z" fill="#001018"/>
</svg>
