<svg width="16" height="16" viewBox="0 0 16 16" fill="none" xmlns="http://www.w3.org/2000/svg">
<path fill-rule="evenodd" clip-rule="evenodd" d="M8.66667 0.666664L8.66734 2.708C11.0839 3.01352 12.9868 4.91673 13.292 7.33333H15.3333V8.66666L13.292 8.66733C12.9866 11.0837 11.0837 12.9865 8.66734 13.292L8.66667 15.3333H7.33334V13.292C4.91673 12.9868 3.01352 11.0839 2.708 8.66733L0.666672 8.66666V7.33333H2.708C3.01324 4.91651 4.91652 3.01324 7.33334 2.708V0.666664H8.66667ZM8.00001 4C5.79087 4 4.00001 5.79086 4.00001 8C4.00001 10.2091 5.79087 12 8.00001 12C10.2091 12 12 10.2091 12 8C12 5.79086 10.2091 4 8.00001 4ZM9.33334 8C9.33334 7.26362 8.73638 6.66666 8 6.66666C7.26363 6.66666 6.66667 7.26362 6.66667 8C6.66667 8.73638 7.26363 9.33333 8 9.33333C8.73638 9.33333 9.33334 8.73638 9.33334 8Z" fill="#001018"/>
</svg>
