<svg width="24" height="24" viewBox="0 0 24 24" fill="none" xmlns="http://www.w3.org/2000/svg">
<path fill-rule="evenodd" clip-rule="evenodd" d="M13 1L13.001 4.062C16.6258 4.52028 19.4802 7.37509 19.938 11H23V13L19.938 13.001C19.4798 16.6255 16.6255 19.4798 13.001 19.938L13 23H11V19.938C7.37509 19.4802 4.52028 16.6258 4.062 13.001L1 13V11H4.062C4.51986 7.37477 7.37477 4.51986 11 4.062V1H13ZM12 6C8.68629 6 6 8.68629 6 12C6 15.3137 8.68629 18 12 18C15.3137 18 18 15.3137 18 12C18 8.68629 15.3137 6 12 6ZM14 12C14 10.8954 13.1046 10 12 10C10.8954 10 10 10.8954 10 12C10 13.1046 10.8954 14 12 14C13.1046 14 14 13.1046 14 12Z" fill="#001018"/>
</svg>
