<svg width="16" height="16" viewBox="0 0 16 16" fill="none" xmlns="http://www.w3.org/2000/svg">
<path d="M1.05602 8.67137C0.533718 7.35652 0.555135 5.88803 1.11556 4.58897C1.67598 3.2899 2.7295 2.26667 4.04435 1.74437C5.35921 1.22207 6.82769 1.24349 8.12676 1.80391C9.42582 2.36433 10.4491 3.41785 10.9714 4.73271C11.5301 4.62473 12.1063 4.6483 12.6544 4.80156C13.2025 4.95481 13.7074 5.23353 14.1291 5.61567C14.5508 5.9978 14.8778 6.47285 15.0841 7.00322C15.2905 7.53359 15.3706 8.10471 15.318 8.67137H13.976C14.0476 8.18396 13.9631 7.68639 13.7346 7.24995C13.5061 6.8135 13.1453 6.46059 12.7039 6.24175C12.2626 6.02291 11.7633 5.94939 11.2775 6.03172C10.7918 6.11404 10.3446 6.34799 10 6.70004V6.66671C9.99986 6.05302 9.8585 5.4476 9.58688 4.8973C9.31526 4.347 8.92066 3.86658 8.43362 3.49321C7.94658 3.11985 7.38016 2.86355 6.7782 2.74416C6.17624 2.62477 5.55489 2.64549 4.96222 2.80471C4.36955 2.96393 3.82146 3.25739 3.36037 3.66236C2.89928 4.06734 2.53756 4.57298 2.3032 5.14015C2.06883 5.70732 1.96811 6.32081 2.00883 6.93314C2.04955 7.54548 2.23062 8.14023 2.53802 8.67137H1.05602ZM2.66668 12.6667H14V14H2.66668V12.6667ZM1.33335 10H15.3334V11.3334H1.33335V10Z" fill="#001018"/>
</svg>
