<svg width="24" height="24" viewBox="0 0 24 24" fill="none" xmlns="http://www.w3.org/2000/svg">
<path d="M1.58403 13.007C0.800577 11.0347 0.832702 8.83199 1.67333 6.88339C2.51397 4.93479 4.09424 3.39995 6.06653 2.6165C8.03881 1.83305 10.2415 1.86517 12.1901 2.7058C14.1387 3.54644 15.6736 5.12672 16.457 7.099C17.2952 6.93704 18.1595 6.9724 18.9816 7.20227C19.8037 7.43215 20.561 7.85024 21.1936 8.42344C21.8262 8.99664 22.3167 9.70922 22.6262 10.5048C22.9357 11.3003 23.0559 12.157 22.977 13.007H20.964C21.0714 12.2759 20.9447 11.5295 20.6019 10.8749C20.2591 10.2202 19.718 9.69082 19.0559 9.36256C18.3939 9.03431 17.6449 8.92403 16.9163 9.04751C16.1877 9.171 15.5169 9.52192 15 10.05V10C14.9998 9.07947 14.7877 8.17134 14.3803 7.34589C13.9729 6.52044 13.381 5.79981 12.6504 5.23976C11.9199 4.67971 11.0702 4.29527 10.1673 4.11618C9.26437 3.9371 8.33233 3.96817 7.44332 4.20701C6.55432 4.44584 5.73219 4.88602 5.04056 5.49348C4.34893 6.10095 3.80634 6.85941 3.4548 7.71017C3.10325 8.56092 2.95217 9.48116 3.01325 10.3997C3.07433 11.3182 3.34593 12.2103 3.80703 13.007H1.58403ZM4.00003 19H21V21H4.00003V19ZM2.00003 15H23V17H2.00003V15Z" fill="#001018"/>
</svg>
