<svg width="16" height="16" viewBox="0 0 16 16" fill="none" xmlns="http://www.w3.org/2000/svg">
<path d="M1.05602 8.67137C0.533718 7.35652 0.555135 5.88803 1.11556 4.58897C1.67598 3.2899 2.7295 2.26667 4.04435 1.74437C5.35921 1.22207 6.82769 1.24349 8.12676 1.80391C9.42582 2.36433 10.4491 3.41785 10.9714 4.73271C11.5301 4.62473 12.1063 4.6483 12.6544 4.80156C13.2025 4.95481 13.7074 5.23353 14.1291 5.61567C14.5508 5.9978 14.8778 6.47285 15.0841 7.00322C15.2905 7.53359 15.3706 8.10471 15.318 8.67137H1.05602ZM2.66668 12.6667H14V14H2.66668V12.6667ZM1.33335 10H15.3334V11.3334H1.33335V10Z" fill="#001018"/>
</svg>
