<svg width="16" height="16" viewBox="0 0 16 16" xmlns="http://www.w3.org/2000/svg"><path d="M8 1.33325C11.682 1.33325 14.6667 4.31792 14.6667 7.99992C14.6667 11.6819 11.682 14.6666 8 14.6666C4.318 14.6666 1.33333 11.6819 1.33333 7.99992C1.33333 4.31792 4.318 1.33325 8 1.33325ZM9.11333 10.6666H6.88666L5.96666 11.9313L6.33599 13.0686C6.87312 13.2445 7.4348 13.3338 8 13.3333C8.58066 13.3333 9.14 13.2399 9.664 13.0686L10.0327 11.9313L9.11266 10.6666H9.11333ZM3.52933 7.24792L2.66799 7.87259L2.66666 7.99992C2.66666 9.15325 3.03266 10.2206 3.65466 11.0933H4.928L5.81 9.87992L5.12466 7.76659L3.52933 7.24792V7.24792ZM12.4707 7.24792L10.8753 7.76659L10.19 9.87992L11.0713 11.0933H12.3447C12.9892 10.1907 13.3349 9.10898 13.3333 7.99992L13.3313 7.87325L12.4707 7.24792V7.24792ZM8 6.35725L6.43733 7.49192L7.03466 9.33325H8.96466L9.562 7.49192L8 6.35725ZM9.52733 2.88859L8.66666 3.51525V5.19325L10.4627 6.49792L11.9553 6.01325L12.3247 4.87792C11.6364 3.92517 10.6532 3.22595 9.52733 2.88859V2.88859ZM6.472 2.88859C5.34627 3.22626 4.3633 3.9257 3.67533 4.87859L4.04466 6.01325L5.53733 6.49792L7.33333 5.19325V3.51525L6.472 2.88859V2.88859Z"/></svg>