<svg width="16" height="16" viewBox="0 0 16 16" fill="none" xmlns="http://www.w3.org/2000/svg">
<path d="M8.00004 1.33331C11.682 1.33331 14.6667 4.31798 14.6667 7.99998C14.6667 11.682 11.682 14.6666 8.00004 14.6666C4.31804 14.6666 1.33337 11.682 1.33337 7.99998C1.33337 4.31798 4.31804 1.33331 8.00004 1.33331ZM9.11337 10.6666H6.88671L5.96671 11.9313L6.33604 13.0686C6.87316 13.2446 7.43485 13.3339 8.00004 13.3333C8.58071 13.3333 9.14004 13.24 9.66404 13.0686L10.0327 11.9313L9.11271 10.6666H9.11337ZM3.52937 7.24798L2.66804 7.87265L2.66671 7.99998C2.66671 9.15331 3.03271 10.2206 3.65471 11.0933H4.92804L5.81004 9.87998L5.12471 7.76665L3.52937 7.24798ZM12.4707 7.24798L10.8754 7.76665L10.19 9.87998L11.0714 11.0933H12.3447C12.9893 10.1908 13.335 9.10904 13.3334 7.99998L13.3314 7.87265L12.4707 7.24798ZM9.52671 2.88865L8.66671 3.51531V5.19331L10.4627 6.49798L11.9554 6.01331L12.3247 4.87798C11.6365 3.92523 10.6533 3.22601 9.52737 2.88865H9.52671ZM6.47204 2.88865C5.34607 3.22619 4.36285 3.92564 3.67471 4.87865L4.04404 6.01331L5.53671 6.49798L7.33337 5.19331V3.51531L6.47271 2.88865H6.47204Z" fill="#001018"/>
</svg>
