<svg width="16" height="16" viewBox="0 0 16 16" fill="none" xmlns="http://www.w3.org/2000/svg">
<path d="M7.99998 1.33331C11.682 1.33331 14.6666 4.31798 14.6666 7.99998C14.6666 11.682 11.682 14.6666 7.99998 14.6666C4.31798 14.6666 1.33331 11.682 1.33331 7.99998C1.33331 4.31798 4.31798 1.33331 7.99998 1.33331ZM9.11331 10.6666H6.88665L5.96665 11.9313L6.33598 13.0686C6.8731 13.2446 7.43479 13.3339 7.99998 13.3333C8.58065 13.3333 9.13998 13.24 9.66398 13.0686L10.0326 11.9313L9.11265 10.6666H9.11331ZM3.52931 7.24798L2.66798 7.87265L2.66665 7.99998C2.66665 9.15331 3.03265 10.2206 3.65465 11.0933H4.92798L5.80998 9.87998L5.12465 7.76665L3.52931 7.24798ZM12.4706 7.24798L10.8753 7.76665L10.19 9.87998L11.0713 11.0933H12.3446C12.9892 10.1908 13.3349 9.10904 13.3333 7.99998L13.3313 7.87331L12.4706 7.24798ZM7.99998 6.35731L6.43731 7.49198L7.03465 9.33331H8.96465L9.56198 7.49198L7.99998 6.35731ZM9.52731 2.88865L8.66665 3.51531V5.19331L10.4626 6.49798L11.9553 6.01331L12.3246 4.87798C11.6364 3.92523 10.6532 3.22601 9.52731 2.88865ZM6.47198 2.88865C5.34625 3.22632 4.36328 3.92576 3.67531 4.87865L4.04465 6.01331L5.53731 6.49798L7.33331 5.19331V3.51531L6.47198 2.88865Z" fill="#001018"/>
</svg>
