<svg width="16" height="16" viewBox="0 0 16 16" fill="none" xmlns="http://www.w3.org/2000/svg">
<path d="M8.00016 14.6667C4.31816 14.6667 1.3335 11.682 1.3335 8.00004C1.3335 4.31804 4.31816 1.33337 8.00016 1.33337C11.6822 1.33337 14.6668 4.31804 14.6668 8.00004C14.6668 11.682 11.6822 14.6667 8.00016 14.6667ZM8.00016 13.3334C9.41465 13.3334 10.7712 12.7715 11.7714 11.7713C12.7716 10.7711 13.3335 9.41453 13.3335 8.00004C13.3335 6.58555 12.7716 5.229 11.7714 4.2288C10.7712 3.22861 9.41465 2.66671 8.00016 2.66671C6.58567 2.66671 5.22912 3.22861 4.22893 4.2288C3.22873 5.229 2.66683 6.58555 2.66683 8.00004C2.66683 9.41453 3.22873 10.7711 4.22893 11.7713C5.22912 12.7715 6.58567 13.3334 8.00016 13.3334ZM5.68216 4.73937L11.2608 10.318C11.0012 10.6825 10.6826 11.001 10.3182 11.2607L4.7395 5.68204C4.99922 5.31786 5.3178 4.9995 5.68216 4.74004V4.73937Z" fill="#001018"/>
</svg>
