<svg width="16" height="16" viewBox="0 0 16 16" fill="none" xmlns="http://www.w3.org/2000/svg">
<path d="M8.00004 14.6666C4.31804 14.6666 1.33337 11.682 1.33337 7.99998C1.33337 4.31798 4.31804 1.33331 8.00004 1.33331C11.682 1.33331 14.6667 4.31798 14.6667 7.99998C14.6667 11.682 11.682 14.6666 8.00004 14.6666ZM8.00004 13.3333C9.41453 13.3333 10.7711 12.7714 11.7713 11.7712C12.7715 10.771 13.3334 9.41447 13.3334 7.99998C13.3334 6.58549 12.7715 5.22894 11.7713 4.22874C10.7711 3.22855 9.41453 2.66665 8.00004 2.66665C6.58555 2.66665 5.229 3.22855 4.2288 4.22874C3.22861 5.22894 2.66671 6.58549 2.66671 7.99998C2.66671 9.41447 3.22861 10.771 4.2288 11.7712C5.229 12.7714 6.58555 13.3333 8.00004 13.3333ZM5.68204 4.73931L11.2607 10.318C11.001 10.6824 10.6825 11.001 10.318 11.2606L4.73937 5.68198C4.99909 5.3178 5.31768 4.99944 5.68204 4.73998V4.73931Z" fill="#001018"/>
</svg>
