<svg width="24" height="24" xmlns="http://www.w3.org/2000/svg"><path fill-rule="evenodd" clip-rule="evenodd" d="M16.023 16.875a2.479 2.479 0 0 1-.273-1.125c0-1.657 1.679-3 3.75-3 2.071 0 3.75 1.343 3.75 3 0 .398-.097.777-.273 1.125.176.347.273.727.273 1.125 0 1.657-1.679 3-3.75 3-2.071 0-3.75-1.343-3.75-3 0-.398.097-.778.273-1.125zm5.713 1.284a4.381 4.381 0 0 1-2.236.59 4.385 4.385 0 0 1-2.236-.59c.122.69 1.022 1.34 2.236 1.34 1.214 0 2.114-.65 2.236-1.34zm-11.025-8.55 8.039-1.546V3.157L4.5 5.87v4.933l5.31-1.022a2.428 2.428 0 0 1-.13-.275L9 9.615V8.77l.501-.08c-.006-.12-.006-.24.003-.36L9 8.41v-.845l.702-.112a3.44 3.44 0 0 1 .628-1.033c1.123-1.278 2.974-1.551 4.124-.609l-.547.64c-.795-.651-2.11-.421-2.931.514a2.704 2.704 0 0 0-.245.325l1.854-.295v.845l-2.207.351c-.02.122-.03.243-.029.364l2.236-.355v.845l-2.035.323c.047.086.1.166.161.241zM3 11.092V5.25c0-.36.256-.67.61-.737l15.75-3a.75.75 0 0 1 .89.737v5.525l1.358-.261a.75.75 0 0 1 .892.736V12a.75.75 0 0 1-1.5 0V9.158L3 12.62v8.226l11.112-2.083a.75.75 0 0 1 .276 1.474l-12 2.25a.75.75 0 0 1-.888-.737V12a.75.75 0 0 1 .608-.736L3 11.091zM12 15a1.5 1.5 0 1 1 0-3 1.5 1.5 0 0 1 0 3zm7.5 2.25c1.307 0 2.25-.755 2.25-1.5 0-.746-.943-1.5-2.25-1.5s-2.25.754-2.25 1.5c0 .745.943 1.5 2.25 1.5z"/></svg>