<svg width="16" height="16" xmlns="http://www.w3.org/2000/svg"><path d="M9.667 1.333a2.334 2.334 0 0 1 2.108 3.334H14a.667.667 0 0 1 .667.666V8a.667.667 0 0 1-.667.667h-.667V14a.667.667 0 0 1-.666.667H3.333A.667.667 0 0 1 2.667 14V8.667H2A.667.667 0 0 1 1.333 8V5.333A.667.667 0 0 1 2 4.667h2.225A2.333 2.333 0 0 1 8 2.034a2.32 2.32 0 0 1 1.666-.7zM12 8.667H4v4.666h8V8.667zM13.333 6H2.667v1.333h10.666V6zm-7-3.333a1 1 0 0 0-.096 1.995l.096.005h1v-1a1 1 0 0 0-.904-.996l-.096-.004zm3.334 0-.096.004a1 1 0 0 0-.9.9l-.004.096v1h1l.096-.005a1 1 0 0 0 0-1.99l-.096-.005z"/></svg>