<svg width="24" height="24" fill="none" xmlns="http://www.w3.org/2000/svg"><path fill-rule="evenodd" clip-rule="evenodd" d="M11.759 14.325c.765.592 1.315 1.196 1.651 1.82a.75.75 0 0 1-1.32.71c-.349-.646-1.122-1.345-2.321-2.07l-.019.003v4.756L21 17.38v-5.189l-9.241 2.133zm-5.384 1.242L3 16.347v4.495l5.25-1.01v-4.328c-.712.931-1.225 1.847-1.543 2.746a.75.75 0 0 1-1.414-.5 10.67 10.67 0 0 1 1.082-2.183zm.832-1.73c-3.426-.976-4.537-2.599-2.513-4.634C5.801 8.09 7 7.908 7.958 8.868c.1.1.198.214.292.34V5.61L3 6.62v8.188l4.207-.971zm4.765-1.1L21 10.654V3.158L9.75 5.32v2.72c.045-.071.09-.14.136-.204.91-1.272 2.189-1.296 3.344-.134 1.7 1.71 1.154 3.432-1.258 5.034zm10.528-1.5V18a.75.75 0 0 1-.608.736l-19.5 3.75a.75.75 0 0 1-.892-.736V6a.75.75 0 0 1 .608-.737l19.5-3.75a.75.75 0 0 1 .892.737v8.986zM11.107 8.708c-.43.601-.829 1.773-1.17 3.49 2.682-1.345 3.237-2.425 2.23-3.438-.53-.534-.719-.53-1.06-.052zm-4.21 1.22c-.29-.292-.56-.25-1.14.332-.938.943-.48 1.61 2.237 2.247-.33-1.324-.708-2.191-1.097-2.58z" fill="#001018"/></svg>