<svg width="16" height="16" xmlns="http://www.w3.org/2000/svg"><path d="M13.333 8.667v4.666a.667.667 0 0 1-.666.667H3.333a.666.666 0 0 1-.666-.667V8.667h10.666zM9.667 1.333a2.333 2.333 0 0 1 2.108 3.334H14a.666.666 0 0 1 .667.666v2A.666.666 0 0 1 14 8H2a.667.667 0 0 1-.667-.667v-2A.667.667 0 0 1 2 4.667h2.225A2.333 2.333 0 0 1 8 2.034a2.32 2.32 0 0 1 1.666-.7zM6.333 2.667a1 1 0 0 0-.096 1.995l.096.005h1v-1a1 1 0 0 0-.904-.996l-.096-.004zm3.334 0-.096.004a1 1 0 0 0-.9.9l-.004.096v1h1l.096-.005a1 1 0 0 0 0-1.99l-.096-.005z"/></svg>