<svg width="16" height="16" fill="none" xmlns="http://www.w3.org/2000/svg"><path fill-rule="evenodd" clip-rule="evenodd" d="M9.667 1.333a2.333 2.333 0 0 1 2.108 3.334H14c.368 0 .667.298.667.666V8a.667.667 0 0 1-.667.667h-.667V14a.667.667 0 0 1-.666.667H3.333A.667.667 0 0 1 2.667 14V8.667H2A.667.667 0 0 1 1.333 8V5.333c0-.368.299-.666.667-.666h2.225A2.333 2.333 0 0 1 8 2.034a2.32 2.32 0 0 1 1.666-.7zM12 8.667H4v4.666h8V8.667zM2.667 6h10.666v1.333H2.667V6zm3.666-3.333a1 1 0 0 0-.096 1.995l.096.005h1v-1a1 1 0 0 0-.904-.996l-.096-.004zm3.238.004.096-.004.096.004a1 1 0 0 1 0 1.991l-.096.005h-1v-1l.004-.096a1 1 0 0 1 .9-.9z" fill="#001018"/></svg>