<svg width="16" height="16" viewBox="0 0 16 16" xmlns="http://www.w3.org/2000/svg"><path d="M9.66665 1.33334C10.0604 1.3332 10.4478 1.43272 10.7928 1.62262C11.1377 1.81252 11.429 2.08664 11.6395 2.41942C11.8499 2.75221 11.9728 3.13286 11.9965 3.5259C12.0203 3.91895 11.9442 4.31162 11.7753 4.66734L14 4.66667C14.1768 4.66667 14.3464 4.73691 14.4714 4.86193C14.5964 4.98696 14.6666 5.15652 14.6666 5.33334V8C14.6666 8.17681 14.5964 8.34638 14.4714 8.47141C14.3464 8.59643 14.1768 8.66667 14 8.66667H13.3333V14C13.3333 14.1768 13.2631 14.3464 13.1381 14.4714C13.013 14.5964 12.8435 14.6667 12.6666 14.6667H3.33331C3.1565 14.6667 2.98693 14.5964 2.86191 14.4714C2.73688 14.3464 2.66665 14.1768 2.66665 14V8.66667H1.99998C1.82317 8.66667 1.6536 8.59643 1.52858 8.47141C1.40355 8.34638 1.33331 8.17681 1.33331 8V5.33334C1.33331 5.15652 1.40355 4.98696 1.52858 4.86193C1.6536 4.73691 1.82317 4.66667 1.99998 4.66667L4.22465 4.66734C3.98715 4.16845 3.9344 3.60147 4.07578 3.06734C4.21716 2.5332 4.5435 2.06657 4.99671 1.7505C5.44992 1.43444 6.00058 1.28947 6.55067 1.34138C7.10076 1.3933 7.61457 1.63873 8.00065 2.034C8.21734 1.81169 8.47644 1.63512 8.76261 1.51477C9.04878 1.39441 9.3562 1.33272 9.66665 1.33334ZM12 8.66667H3.99998V13.3333H12V8.66667ZM13.3333 6H2.66665V7.33334H13.3333V6ZM6.33331 2.66667C6.0765 2.6668 5.82958 2.76572 5.64372 2.94294C5.45786 3.12016 5.3473 3.3621 5.33496 3.61861C5.32262 3.87513 5.40944 4.12656 5.57743 4.3208C5.74542 4.51505 5.9817 4.63722 6.23731 4.662L6.33331 4.66667H7.33331V3.66667C7.3333 3.41808 7.2407 3.17841 7.07357 2.99439C6.90643 2.81037 6.67675 2.6952 6.42931 2.67134L6.33331 2.66667ZM9.66665 2.66667L9.57065 2.67134C9.33956 2.69348 9.12338 2.79532 8.95917 2.95941C8.79496 3.1235 8.69296 3.3396 8.67065 3.57067L8.66665 3.66667V4.66667H9.66665L9.76265 4.662C10.01 4.63802 10.2396 4.5228 10.4066 4.33879C10.5736 4.15479 10.6661 3.91518 10.6661 3.66667C10.6661 3.41816 10.5736 3.17855 10.4066 2.99454C10.2396 2.81054 10.01 2.69532 9.76265 2.67134L9.66665 2.66667Z"/></svg>