<svg width="16" height="16" viewBox="0 0 16 16" fill="none" xmlns="http://www.w3.org/2000/svg">
<path d="M13.3334 8.66667V13.3333C13.3334 13.5101 13.2631 13.6797 13.1381 13.8047C13.0131 13.9298 12.8435 14 12.6667 14H3.33337C3.15656 14 2.98699 13.9298 2.86197 13.8047C2.73695 13.6797 2.66671 13.5101 2.66671 13.3333V8.66667H13.3334ZM9.66671 1.33334C10.0605 1.3332 10.4479 1.43272 10.7928 1.62262C11.1378 1.81253 11.429 2.08664 11.6395 2.41942C11.85 2.75221 11.9728 3.13286 11.9966 3.52591C12.0203 3.91895 11.9442 4.31162 11.7754 4.66734L14 4.66667C14.1769 4.66667 14.3464 4.73691 14.4714 4.86193C14.5965 4.98696 14.6667 5.15652 14.6667 5.33334V7.33334C14.6667 7.51015 14.5965 7.67972 14.4714 7.80474C14.3464 7.92976 14.1769 8 14 8H2.00004C1.82323 8 1.65366 7.92976 1.52864 7.80474C1.40361 7.67972 1.33337 7.51015 1.33337 7.33334V5.33334C1.33337 5.15652 1.40361 4.98696 1.52864 4.86193C1.65366 4.73691 1.82323 4.66667 2.00004 4.66667L4.22471 4.66734C3.98721 4.16845 3.93446 3.60147 4.07584 3.06734C4.21722 2.5332 4.54357 2.06657 4.99677 1.7505C5.44998 1.43444 6.00064 1.28947 6.55073 1.34138C7.10082 1.3933 7.61463 1.63873 8.00071 2.034C8.2174 1.81169 8.4765 1.63512 8.76267 1.51477C9.04884 1.39441 9.35626 1.33272 9.66671 1.33334V1.33334ZM6.33337 2.66667C6.07656 2.6668 5.82964 2.76572 5.64378 2.94294C5.45792 3.12016 5.34737 3.3621 5.33502 3.61861C5.32268 3.87513 5.4095 4.12656 5.57749 4.3208C5.74548 4.51505 5.98176 4.63722 6.23737 4.662L6.33337 4.66667H7.33337V3.66667C7.33336 3.41808 7.24076 3.17841 7.07363 2.99439C6.9065 2.81037 6.67681 2.6952 6.42937 2.67134L6.33337 2.66667ZM9.66671 2.66667L9.57071 2.67134C9.33962 2.69348 9.12344 2.79532 8.95923 2.95941C8.79502 3.1235 8.69302 3.3396 8.67071 3.57067L8.66671 3.66667V4.66667H9.66671L9.76271 4.662C10.0101 4.63802 10.2396 4.5228 10.4066 4.33879C10.5737 4.15479 10.6662 3.91518 10.6662 3.66667C10.6662 3.41816 10.5737 3.17855 10.4066 2.99454C10.2396 2.81054 10.0101 2.69532 9.76271 2.67134L9.66671 2.66667Z" fill="#001018"/>
</svg>
