<svg width="16" height="16" viewBox="0 0 16 16" fill="none" xmlns="http://www.w3.org/2000/svg">
<path d="M3.92195 12.4353C3.72195 12.302 3.54995 12.132 3.34861 11.8913C3.24411 11.7634 3.14055 11.6348 3.03795 11.5053C2.72928 11.122 2.53461 10.9453 2.33328 10.8727C2.16681 10.8129 2.0309 10.6895 1.95545 10.5295C1.88 10.3695 1.87118 10.1861 1.93095 10.0197C1.99071 9.8532 2.11415 9.7173 2.27412 9.64184C2.43409 9.56639 2.61748 9.55758 2.78395 9.61734C3.28528 9.79734 3.62461 10.1073 4.08195 10.676C4.01928 10.598 4.30861 10.9607 4.37061 11.0353C4.49728 11.1867 4.59061 11.2787 4.66395 11.3273C4.79995 11.4187 5.05528 11.458 5.43061 11.4207C5.44595 11.166 5.49328 10.9187 5.56528 10.6907C3.58661 10.2067 2.46661 8.93067 2.46661 6.42667C2.46661 5.60001 2.71328 4.85601 3.17195 4.23201C3.02661 3.63601 3.04861 2.91534 3.37328 2.10401C3.41012 2.01223 3.46693 1.9298 3.53957 1.86269C3.61221 1.79558 3.69888 1.74548 3.79328 1.71601C3.84728 1.70001 3.87795 1.69267 3.93195 1.68467C4.46728 1.60267 5.22328 1.79801 6.20861 2.41534C6.79581 2.27806 7.39692 2.20916 7.99995 2.21001C8.60795 2.21001 9.21195 2.27934 9.78928 2.41534C10.7739 1.79334 11.5313 1.59801 12.0706 1.68467C12.1273 1.69334 12.1753 1.70467 12.2159 1.71801C12.3085 1.74852 12.3932 1.79896 12.4642 1.86577C12.5351 1.93257 12.5906 2.01412 12.6266 2.10467C12.9513 2.91534 12.9733 3.63601 12.8279 4.23134C13.2886 4.85534 13.5333 5.59467 13.5333 6.42667C13.5333 8.93134 12.4173 10.2033 10.4386 10.688C10.5219 10.9647 10.5653 11.274 10.5653 11.608C10.5653 12.2116 10.5627 12.8151 10.5573 13.4187C10.707 13.4513 10.8409 13.5346 10.9364 13.6544C11.032 13.7742 11.0833 13.9233 11.0818 14.0765C11.0803 14.2297 11.0261 14.3778 10.9283 14.4957C10.8304 14.6136 10.6949 14.6943 10.5446 14.724C9.78528 14.876 9.22261 14.3693 9.22261 13.7073L9.22395 13.41L9.22728 12.94C9.23061 12.468 9.23195 12.048 9.23195 11.608C9.23195 11.1433 9.10995 10.84 8.94861 10.7013C8.50795 10.3213 8.73128 9.59801 9.30861 9.53334C11.2866 9.31134 12.1999 8.54534 12.1999 6.42667C12.1999 5.79001 11.9919 5.26401 11.5913 4.82401C11.5069 4.7315 11.4502 4.61709 11.4278 4.49388C11.4054 4.37067 11.4182 4.24364 11.4646 4.12734C11.5753 3.85134 11.6226 3.48934 11.5286 3.05134L11.5219 3.05334C11.1946 3.14601 10.7819 3.34667 10.2833 3.68601C10.2029 3.74058 10.1115 3.77691 10.0156 3.79245C9.91964 3.808 9.82148 3.80239 9.72795 3.77601C9.16521 3.6202 8.58385 3.54192 7.99995 3.54334C7.40661 3.54334 6.81861 3.62267 6.27195 3.77667C6.17876 3.80284 6.08099 3.80841 5.98543 3.79298C5.88988 3.77755 5.79883 3.74151 5.71861 3.68734C5.21728 3.34934 4.80261 3.14934 4.47328 3.05601C4.37728 3.49134 4.42461 3.85201 4.53461 4.12734C4.58115 4.24358 4.59401 4.37057 4.57173 4.49378C4.54945 4.61699 4.49292 4.73143 4.40861 4.82401C4.01061 5.26001 3.79995 5.79601 3.79995 6.42667C3.79995 8.54134 4.71395 9.31201 6.68128 9.53334C7.25795 9.59801 7.48195 10.318 7.04395 10.6987C6.91595 10.8107 6.75795 11.1867 6.75795 11.608V13.708C6.75795 14.3653 6.20128 14.858 5.45128 14.7267C5.29912 14.7 5.16097 14.6212 5.06042 14.5039C4.95988 14.3867 4.90319 14.2381 4.90004 14.0836C4.89689 13.9292 4.94748 13.7784 5.04316 13.6571C5.13884 13.5359 5.27367 13.4516 5.42461 13.4187V12.7587C4.81795 12.7993 4.31661 12.7 3.92195 12.4353V12.4353Z" fill="#001018"/>
</svg>
