<svg viewBox="0 0 24 24" xmlns="http://www.w3.org/2000/svg"><path d="M5.88298 18.653C5.58298 18.453 5.32498 18.198 5.02298 17.837C4.86622 17.6451 4.71089 17.4521 4.55698 17.258C4.09398 16.683 3.80198 16.418 3.49998 16.309C3.25028 16.2193 3.04641 16.0342 2.93324 15.7942C2.82006 15.5543 2.80684 15.2792 2.89648 15.0295C2.98612 14.7798 3.17129 14.5759 3.41124 14.4627C3.65119 14.3496 3.92628 14.3363 4.17598 14.426C4.92798 14.696 5.43698 15.161 6.12298 16.014C6.02898 15.897 6.46298 16.441 6.55598 16.553C6.74598 16.78 6.88598 16.918 6.99598 16.991C7.19998 17.128 7.58298 17.187 8.14598 17.131C8.16898 16.749 8.23998 16.378 8.34798 16.036C5.37998 15.31 3.69998 13.396 3.69998 9.63999C3.69998 8.39999 4.06998 7.28399 4.75798 6.34799C4.53998 5.45399 4.57298 4.37299 5.05998 3.15599C5.11525 3.01833 5.20045 2.89468 5.30942 2.79402C5.41838 2.69336 5.54838 2.6182 5.68998 2.57399C5.77098 2.54999 5.81698 2.53899 5.89798 2.52699C6.70098 2.40399 7.83498 2.69699 9.31298 3.62299C10.1938 3.41708 11.0954 3.31372 12 3.31499C12.912 3.31499 13.818 3.41899 14.684 3.62299C16.161 2.68999 17.297 2.39699 18.106 2.52699C18.191 2.53999 18.263 2.55699 18.324 2.57699C18.4628 2.62277 18.5899 2.69843 18.6963 2.79864C18.8028 2.89884 18.8859 3.02117 18.94 3.15699C19.427 4.37299 19.46 5.45399 19.242 6.34699C19.933 7.28299 20.3 8.39199 20.3 9.63999C20.3 13.397 18.626 15.305 15.658 16.032C15.783 16.447 15.848 16.911 15.848 17.412C15.8481 18.3173 15.8441 19.2227 15.836 20.128C16.0606 20.177 16.2614 20.3018 16.4047 20.4816C16.548 20.6613 16.625 20.8849 16.6228 21.1147C16.6206 21.3446 16.5392 21.5666 16.3925 21.7435C16.2457 21.9204 16.0425 22.0414 15.817 22.086C14.678 22.314 13.834 21.554 13.834 20.561L13.836 20.115L13.841 19.41C13.846 18.702 13.848 18.072 13.848 17.412C13.848 16.715 13.665 16.26 13.423 16.052C12.762 15.482 13.097 14.397 13.963 14.3C16.93 13.967 18.3 12.818 18.3 9.63999C18.3 8.68499 17.988 7.89599 17.387 7.23599C17.2604 7.09724 17.1754 6.92562 17.1418 6.7408C17.1082 6.55599 17.1273 6.36544 17.197 6.19099C17.363 5.77699 17.434 5.23399 17.293 4.57699L17.283 4.57999C16.792 4.71899 16.173 5.01999 15.425 5.52899C15.3044 5.61085 15.1673 5.66534 15.0234 5.68866C14.8795 5.71198 14.7323 5.70356 14.592 5.66399C13.7479 5.43028 12.8758 5.31286 12 5.31499C11.11 5.31499 10.228 5.43399 9.40798 5.66499C9.2682 5.70425 9.12155 5.7126 8.97821 5.68946C8.83488 5.66632 8.69831 5.61224 8.57798 5.53099C7.82598 5.02399 7.20398 4.72399 6.70998 4.58399C6.56598 5.23699 6.63698 5.77799 6.80198 6.19099C6.87179 6.36535 6.89108 6.55584 6.85766 6.74065C6.82423 6.92547 6.73944 7.09713 6.61298 7.23599C6.01598 7.88999 5.69998 8.69399 5.69998 9.63999C5.69998 12.812 7.07098 13.968 10.022 14.3C10.887 14.397 11.223 15.477 10.566 16.048C10.374 16.216 10.137 16.78 10.137 17.412V20.562C10.137 21.548 9.30198 22.287 8.17698 22.09C7.94875 22.0499 7.74151 21.9318 7.5907 21.7559C7.43988 21.58 7.35484 21.3571 7.35012 21.1254C7.3454 20.8938 7.42128 20.6676 7.5648 20.4857C7.70832 20.3038 7.91057 20.1773 8.13698 20.128V19.138C7.22698 19.199 6.47498 19.05 5.88298 18.653Z"/></svg>