<svg width="16" height="16" viewBox="0 0 16 16" fill="none" xmlns="http://www.w3.org/2000/svg">
<path d="M7.99992 1.33334C4.31659 1.33334 1.33325 4.31668 1.33325 8.00001C1.3325 9.39953 1.77246 10.7637 2.59073 11.8991C3.409 13.0345 4.56402 13.8834 5.89192 14.3253C6.22525 14.3833 6.34992 14.1833 6.34992 14.008C6.34992 13.85 6.34125 13.3253 6.34125 12.7667C4.66659 13.0753 4.23325 12.3587 4.09992 11.9833C4.02459 11.7913 3.69992 11.2 3.41659 11.0413C3.18325 10.9167 2.84992 10.608 3.40792 10.6C3.93325 10.5913 4.30792 11.0833 4.43325 11.2833C5.03325 12.2913 5.99192 12.008 6.37459 11.8333C6.43325 11.4 6.60792 11.1087 6.79992 10.942C5.31659 10.7753 3.76659 10.2 3.76659 7.65001C3.76659 6.92468 4.02459 6.32534 4.44992 5.85801C4.38325 5.69134 4.14992 5.00801 4.51659 4.09134C4.51659 4.09134 5.07459 3.91668 6.34992 4.77534C6.89263 4.62472 7.45336 4.54891 8.01659 4.55001C8.58325 4.55001 9.14992 4.62468 9.68325 4.77468C10.9579 3.90801 11.5166 4.09201 11.5166 4.09201C11.8833 5.00868 11.6499 5.69201 11.5833 5.85868C12.0079 6.32534 12.2666 6.91668 12.2666 7.65001C12.2666 10.2087 10.7086 10.7753 9.22525 10.942C9.46659 11.15 9.67525 11.55 9.67525 12.1753C9.67525 13.0667 9.66659 13.7833 9.66659 14.0087C9.66659 14.1833 9.79192 14.3913 10.1253 14.3247C11.4486 13.8779 12.5985 13.0273 13.4132 11.8928C14.2278 10.7582 14.6662 9.39675 14.6666 8.00001C14.6666 4.31668 11.6833 1.33334 7.99992 1.33334Z" fill="#001018"/>
</svg>
