<svg width="16" height="16" viewBox="0 0 16 16" xmlns="http://www.w3.org/2000/svg"><path d="M8 7.33333H13.6887C13.718 7.59 13.7333 7.85333 13.7333 8.12267C13.7333 9.94533 13.08 11.48 11.948 12.5227C10.958 13.4367 9.60267 13.9727 7.98667 13.9727C6.3988 13.9734 4.87576 13.343 3.75291 12.2202C2.63006 11.0975 1.99947 9.57453 2 7.98667C1.99929 6.39869 2.6298 4.87554 3.75267 3.75267C4.87554 2.6298 6.39869 1.99929 7.98667 2C9.6 2 10.9553 2.59333 11.992 3.55933L11.0173 4.53333C10.2453 3.78733 9.202 3.33333 8 3.33333C6.33276 3.33333 4.79217 4.2228 3.95855 5.66667C3.12493 7.11054 3.12493 8.88946 3.95855 10.3333C4.79217 11.7772 6.33276 12.6667 8 12.6667C10.3507 12.6667 12.096 10.928 12.3847 8.66667H8V7.33333Z"/></svg>