<svg width="16" height="16" fill="none" xmlns="http://www.w3.org/2000/svg"><path d="M2.043 5.007A6.664 6.664 0 0 1 8 1.333c1.797 0 3.306.66 4.46 1.737l-1.911 1.912c-.692-.66-1.57-.997-2.549-.997-1.737 0-3.207 1.173-3.73 2.748-.133.4-.21.827-.21 1.267 0 .44.077.867.21 1.267.524 1.576 1.993 2.748 3.73 2.748.897 0 1.66-.236 2.257-.636a3.07 3.07 0 0 0 1.331-2.012H8V6.788h6.279c.078.436.121.89.121 1.363 0 2.031-.727 3.74-1.988 4.9C11.309 14.07 9.8 14.667 8 14.667a6.664 6.664 0 0 1-5.957-9.66z" fill="#001018"/></svg>