<svg width="24" height="24" viewBox="0 0 24 24" fill="none" xmlns="http://www.w3.org/2000/svg">
<path d="M3.064 7.51C4.76085 4.13111 8.21897 1.99881 12 2C14.695 2 16.959 2.99 18.69 4.605L15.823 7.473C14.786 6.482 13.468 5.977 12 5.977C9.395 5.977 7.19 7.737 6.405 10.1C6.205 10.7 6.091 11.34 6.091 12C6.091 12.66 6.205 13.3 6.405 13.9C7.191 16.264 9.395 18.023 12 18.023C13.345 18.023 14.49 17.668 15.386 17.068C16.4357 16.3769 17.1569 15.2864 17.382 14.05H12V10.182H21.418C21.536 10.836 21.6 11.518 21.6 12.227C21.6 15.273 20.51 17.837 18.618 19.577C16.964 21.105 14.7 22 12 22C9.34751 22.0011 6.80335 20.9478 4.92776 19.0722C3.05217 17.1966 1.99894 14.6525 2 12C2 10.386 2.386 8.86 3.064 7.51Z" fill="#001018"/>
</svg>
