<svg width="16" height="16" viewBox="0 0 16 16" fill="none" xmlns="http://www.w3.org/2000/svg">
<path d="M2.04266 5.00668C3.1739 2.75408 5.47931 1.33255 8 1.33334C9.79666 1.33334 11.306 1.99334 12.46 3.07001L10.5487 4.98201C9.85733 4.32134 8.97866 3.98468 8 3.98468C6.26333 3.98468 4.79333 5.15801 4.27 6.73334C4.13666 7.13334 4.06066 7.56001 4.06066 8.00001C4.06066 8.44001 4.13666 8.86668 4.27 9.26668C4.794 10.8427 6.26333 12.0153 8 12.0153C8.89666 12.0153 9.66 11.7787 10.2573 11.3787C10.9571 10.9179 11.4379 10.191 11.588 9.36668H8V6.78801H14.2787C14.3573 7.22401 14.4 7.67868 14.4 8.15134C14.4 10.182 13.6733 11.8913 12.412 13.0513C11.3093 14.07 9.8 14.6667 8 14.6667C6.23167 14.6674 4.53556 13.9652 3.28517 12.7148C2.03477 11.4644 1.33262 9.76834 1.33333 8.00001C1.33333 6.92401 1.59066 5.90668 2.04266 5.00668Z" fill="#001018"/>
</svg>
