<svg width="24" height="24" viewBox="0 0 24 24" fill="none" xmlns="http://www.w3.org/2000/svg">
<path d="M14 10H10V14H14V10ZM16 10V14H19V10H16ZM14 19V16H10V19H14ZM16 19H19V16H16V19ZM14 5H10V8H14V5ZM16 5V8H19V5H16ZM8 10H5V14H8V10ZM8 19V16H5V19H8ZM8 5H5V8H8V5ZM4 3H20C20.2652 3 20.5196 3.10536 20.7071 3.29289C20.8946 3.48043 21 3.73478 21 4V20C21 20.2652 20.8946 20.5196 20.7071 20.7071C20.5196 20.8946 20.2652 21 20 21H4C3.73478 21 3.48043 20.8946 3.29289 20.7071C3.10536 20.5196 3 20.2652 3 20V4C3 3.73478 3.10536 3.48043 3.29289 3.29289C3.48043 3.10536 3.73478 3 4 3Z" fill="#001018"/>
</svg>
