<svg width="16" height="16" viewBox="0 0 16 16" fill="none" xmlns="http://www.w3.org/2000/svg">
<path d="M9.33333 6.66667H6.66667V9.33333H9.33333V6.66667ZM10.6667 6.66667V9.33333H12.6667V6.66667H10.6667ZM9.33333 12.6667V10.6667H6.66667V12.6667H9.33333ZM10.6667 12.6667H12.6667V10.6667H10.6667V12.6667ZM9.33333 3.33333H6.66667V5.33333H9.33333V3.33333ZM10.6667 3.33333V5.33333H12.6667V3.33333H10.6667ZM5.33333 6.66667H3.33333V9.33333H5.33333V6.66667ZM5.33333 12.6667V10.6667H3.33333V12.6667H5.33333ZM5.33333 3.33333H3.33333V5.33333H5.33333V3.33333ZM2.66667 2H13.3333C13.5101 2 13.6797 2.07024 13.8047 2.19526C13.9298 2.32029 14 2.48986 14 2.66667V13.3333C14 13.5101 13.9298 13.6797 13.8047 13.8047C13.6797 13.9298 13.5101 14 13.3333 14H2.66667C2.48986 14 2.32029 13.9298 2.19526 13.8047C2.07024 13.6797 2 13.5101 2 13.3333V2.66667C2 2.48986 2.07024 2.32029 2.19526 2.19526C2.32029 2.07024 2.48986 2 2.66667 2V2Z" fill="#001018"/>
</svg>
