<svg width="16" height="16" viewBox="0 0 16 16" xmlns="http://www.w3.org/2000/svg"><path d="M9.33333 6.66667V9.33333H6.66667V6.66667H9.33333ZM10.6667 6.66667H14V9.33333H10.6667V6.66667ZM9.33333 14H6.66667V10.6667H9.33333V14ZM10.6667 14V10.6667H14V13.3333C14 13.5101 13.9298 13.6797 13.8047 13.8047C13.6797 13.9298 13.5101 14 13.3333 14H10.6667ZM9.33333 2V5.33333H6.66667V2H9.33333ZM10.6667 2H13.3333C13.5101 2 13.6797 2.07024 13.8047 2.19526C13.9298 2.32029 14 2.48986 14 2.66667V5.33333H10.6667V2ZM5.33333 6.66667V9.33333H2V6.66667H5.33333ZM5.33333 14H2.66667C2.48986 14 2.32029 13.9298 2.19526 13.8047C2.07024 13.6797 2 13.5101 2 13.3333V10.6667H5.33333V14ZM5.33333 2V5.33333H2V2.66667C2 2.48986 2.07024 2.32029 2.19526 2.19526C2.32029 2.07024 2.48986 2 2.66667 2H5.33333Z"/></svg>