<svg width="16" height="16" viewBox="0 0 16 16" xmlns="http://www.w3.org/2000/svg"><path d="M1.33337 14.6666C1.33337 13.2521 1.89528 11.8956 2.89547 10.8954C3.89567 9.8952 5.25222 9.33329 6.66671 9.33329C8.0812 9.33329 9.43775 9.8952 10.4379 10.8954C11.4381 11.8956 12 13.2521 12 14.6666H1.33337ZM6.66671 8.66663C4.45671 8.66663 2.66671 6.87663 2.66671 4.66663C2.66671 2.45663 4.45671 0.666626 6.66671 0.666626C8.87671 0.666626 10.6667 2.45663 10.6667 4.66663C10.6667 6.87663 8.87671 8.66663 6.66671 8.66663ZM11.5754 10.1553C12.5951 10.4174 13.5062 10.9945 14.1789 11.8045C14.8516 12.6145 15.2516 13.6161 15.322 14.6666H13.3334C13.3334 12.9266 12.6667 11.3426 11.5754 10.1553ZM10.2267 8.63796C10.7854 8.13828 11.2321 7.52618 11.5377 6.84179C11.8434 6.1574 12.0009 5.41615 12 4.66663C12.0015 3.7556 11.7684 2.85954 11.3234 2.06463C12.0785 2.21635 12.7577 2.62487 13.2457 3.22076C13.7336 3.81664 14.0002 4.56311 14 5.33329C14.0002 5.80827 13.8989 6.2778 13.7028 6.71041C13.5067 7.14302 13.2204 7.52872 12.8631 7.84165C12.5058 8.15459 12.0857 8.38753 11.631 8.52487C11.1763 8.66221 10.6975 8.70076 10.2267 8.63796Z"/></svg>