<svg width="16" height="16" viewBox="0 0 16 16" fill="none" xmlns="http://www.w3.org/2000/svg">
<path d="M1.33331 14.6666C1.33331 13.2521 1.89522 11.8956 2.89541 10.8954C3.8956 9.8952 5.25216 9.33329 6.66665 9.33329C8.08113 9.33329 9.43769 9.8952 10.4379 10.8954C11.4381 11.8956 12 13.2521 12 14.6666H10.6666C10.6666 13.6058 10.2452 12.5883 9.49507 11.8382C8.74493 11.0881 7.72751 10.6666 6.66665 10.6666C5.60578 10.6666 4.58836 11.0881 3.83822 11.8382C3.08807 12.5883 2.66665 13.6058 2.66665 14.6666H1.33331ZM6.66665 8.66663C4.45665 8.66663 2.66665 6.87663 2.66665 4.66663C2.66665 2.45663 4.45665 0.666626 6.66665 0.666626C8.87665 0.666626 10.6666 2.45663 10.6666 4.66663C10.6666 6.87663 8.87665 8.66663 6.66665 8.66663ZM6.66665 7.33329C8.13998 7.33329 9.33331 6.13996 9.33331 4.66663C9.33331 3.19329 8.13998 1.99996 6.66665 1.99996C5.19331 1.99996 3.99998 3.19329 3.99998 4.66663C3.99998 6.13996 5.19331 7.33329 6.66665 7.33329ZM12.1893 9.80196C13.1262 10.2239 13.9213 10.9075 14.479 11.7704C15.0368 12.6334 15.3334 13.6391 15.3333 14.6666H14C14.0001 13.8959 13.7777 13.1416 13.3594 12.4943C12.9411 11.8471 12.3447 11.3344 11.642 11.018L12.1886 9.80196H12.1893ZM11.7306 2.27529C12.4023 2.55216 12.9766 3.02232 13.3807 3.62611C13.7847 4.22991 14.0002 4.94012 14 5.66663C14.0003 6.58151 13.6584 7.46344 13.0417 8.13918C12.4249 8.81491 11.5778 9.23561 10.6666 9.31863V7.97663C11.1606 7.90588 11.6189 7.67864 11.9742 7.32827C12.3295 6.97789 12.5631 6.52284 12.6408 6.02992C12.7184 5.53699 12.636 5.03216 12.4056 4.58953C12.1752 4.1469 11.8089 3.78979 11.3606 3.57063L11.7306 2.27529V2.27529Z" fill="#001018"/>
</svg>
