<svg width="24" height="24" viewBox="0 0 24 24" fill="none" xmlns="http://www.w3.org/2000/svg">
<path d="M6.00002 17.418C4.28095 16.72 2.85782 15.4463 1.97408 13.8149C1.09034 12.1835 0.800904 10.2957 1.15528 8.47445C1.50965 6.65322 2.48581 5.01169 3.91679 3.83067C5.34776 2.64966 7.14463 2.00253 9.00002 2C10.6121 1.99991 12.1866 2.48665 13.5173 3.39648C14.8481 4.30631 15.8731 5.59682 16.458 7.099C17.8533 6.82318 19.3012 7.09862 20.4978 7.8675C21.6944 8.63638 22.5466 9.83891 22.8755 11.2227C23.2044 12.6064 22.9845 14.0638 22.2619 15.2889C21.5393 16.5139 20.3702 17.4115 19 17.793V15.663C19.4622 15.4437 19.8707 15.1257 20.1967 14.7315C20.5228 14.3373 20.7584 13.8764 20.8871 13.3813C21.0157 12.8861 21.0343 12.3688 20.9415 11.8657C20.8486 11.3627 20.6466 10.8861 20.3497 10.4695C20.0528 10.0529 19.6682 9.70646 19.2229 9.45458C18.7776 9.20269 18.2826 9.05148 17.7725 9.01158C17.2625 8.97169 16.75 9.04408 16.271 9.22366C15.7919 9.40325 15.3581 9.68565 15 10.051V10C14.9999 8.94682 14.7225 7.91222 14.1958 7.00021C13.6691 6.08819 12.9116 5.33087 11.9995 4.80438C11.0873 4.27788 10.0527 4.00075 8.99949 4.00085C7.94631 4.00094 6.9117 4.27825 5.99965 4.80491C5.08761 5.33156 4.33025 6.08901 3.80371 7.00112C3.27717 7.91324 2.99998 8.94788 3.00002 10.0011C3.00006 11.0542 3.27731 12.0889 3.80392 13.0009C4.33053 13.913 5.08794 14.6704 6.00002 15.197V17.418ZM10 17C9.46959 17 8.96088 16.7893 8.58581 16.4142C8.21074 16.0391 8.00002 15.5304 8.00002 15C8.00002 14.4696 8.21074 13.9609 8.58581 13.5858C8.96088 13.2107 9.46959 13 10 13C10.5305 13 11.0392 13.2107 11.4142 13.5858C11.7893 13.9609 12 14.4696 12 15C12 15.5304 11.7893 16.0391 11.4142 16.4142C11.0392 16.7893 10.5305 17 10 17ZM15 20C14.4696 20 13.9609 19.7893 13.5858 19.4142C13.2107 19.0391 13 18.5304 13 18C13 17.4696 13.2107 16.9609 13.5858 16.5858C13.9609 16.2107 14.4696 16 15 16C15.5305 16 16.0392 16.2107 16.4142 16.5858C16.7893 16.9609 17 17.4696 17 18C17 18.5304 16.7893 19.0391 16.4142 19.4142C16.0392 19.7893 15.5305 20 15 20ZM10 23C9.46959 23 8.96088 22.7893 8.58581 22.4142C8.21074 22.0391 8.00002 21.5304 8.00002 21C8.00002 20.4696 8.21074 19.9609 8.58581 19.5858C8.96088 19.2107 9.46959 19 10 19C10.5305 19 11.0392 19.2107 11.4142 19.5858C11.7893 19.9609 12 20.4696 12 21C12 21.5304 11.7893 22.0391 11.4142 22.4142C11.0392 22.7893 10.5305 23 10 23Z" fill="#001018"/>
</svg>
