<svg width="16" height="16" viewBox="0 0 16 16" fill="none" xmlns="http://www.w3.org/2000/svg">
<path d="M12.6634 11.8627C12.6429 11.4625 12.5325 11.0721 12.3403 10.7204C12.1482 10.3687 11.8793 10.0649 11.5535 9.8315C11.2278 9.59808 10.8537 9.44107 10.4589 9.37214C10.0642 9.30321 9.65895 9.32414 9.2734 9.43336C9.13316 8.79075 8.76045 8.22262 8.22684 7.83809C7.69324 7.45355 7.03637 7.27972 6.38241 7.35C5.72845 7.42027 5.12351 7.72969 4.68379 8.21882C4.24406 8.70795 4.00057 9.3423 4.00006 10C4.00006 10.72 4.2854 11.3727 4.74806 11.852C3.85683 11.6365 3.03623 11.1948 2.36548 10.5696C1.69474 9.94437 1.19651 9.1568 0.918893 8.2829C0.641281 7.40901 0.593664 6.47829 0.78064 5.58063C0.967616 4.68296 1.38287 3.84866 1.98631 3.15828C2.58975 2.4679 3.36099 1.94475 4.22557 1.63935C5.09014 1.33395 6.01886 1.25662 6.92204 1.41481C7.82523 1.57301 8.67237 1.96138 9.38169 2.54245C10.091 3.12352 10.6385 3.87765 10.9714 4.73202C11.9025 4.54656 12.8693 4.72951 13.6683 5.24237C14.4673 5.75524 15.0362 6.55803 15.2553 7.48183C15.4744 8.40563 15.3267 9.37841 14.8431 10.1955C14.3596 11.0126 13.578 11.6102 12.6627 11.8627H12.6634ZM6.66673 11.3334C6.31311 11.3334 5.97397 11.1929 5.72392 10.9428C5.47387 10.6928 5.3334 10.3536 5.3334 10C5.3334 9.6464 5.47387 9.30726 5.72392 9.05721C5.97397 8.80717 6.31311 8.66669 6.66673 8.66669C7.02035 8.66669 7.35949 8.80717 7.60954 9.05721C7.85959 9.30726 8.00006 9.6464 8.00006 10C8.00006 10.3536 7.85959 10.6928 7.60954 10.9428C7.35949 11.1929 7.02035 11.3334 6.66673 11.3334ZM10.0001 13.3334C9.64644 13.3334 9.3073 13.1929 9.05726 12.9428C8.80721 12.6928 8.66673 12.3536 8.66673 12C8.66673 11.6464 8.80721 11.3073 9.05726 11.0572C9.3073 10.8072 9.64644 10.6667 10.0001 10.6667C10.3537 10.6667 10.6928 10.8072 10.9429 11.0572C11.1929 11.3073 11.3334 11.6464 11.3334 12C11.3334 12.3536 11.1929 12.6928 10.9429 12.9428C10.6928 13.1929 10.3537 13.3334 10.0001 13.3334ZM6.66673 15.3334C6.31311 15.3334 5.97397 15.1929 5.72392 14.9428C5.47387 14.6928 5.3334 14.3536 5.3334 14C5.3334 13.6464 5.47387 13.3073 5.72392 13.0572C5.97397 12.8072 6.31311 12.6667 6.66673 12.6667C7.02035 12.6667 7.35949 12.8072 7.60954 13.0572C7.85959 13.3073 8.00006 13.6464 8.00006 14C8.00006 14.3536 7.85959 14.6928 7.60954 14.9428C7.35949 15.1929 7.02035 15.3334 6.66673 15.3334Z" fill="#001018"/>
</svg>
