<svg width="24" height="24" viewBox="0 0 24 24" fill="none" xmlns="http://www.w3.org/2000/svg">
<path d="M18.995 17.794C18.9643 17.1937 18.7987 16.608 18.5104 16.0805C18.2222 15.5531 17.8188 15.0973 17.3302 14.7472C16.8417 14.3971 16.2804 14.1615 15.6883 14.0582C15.0962 13.9548 14.4884 13.9861 13.91 14.15C13.6997 13.1861 13.1406 12.3339 12.3402 11.7571C11.5398 11.1803 10.5545 10.9195 9.57355 11.0249C8.59261 11.1303 7.6852 11.5945 7.02562 12.3282C6.36603 13.0619 6.00079 14.0134 6.00003 15C6.00003 16.08 6.42803 17.059 7.12203 17.778C5.78518 17.4546 4.55428 16.7921 3.54816 15.8543C2.54204 14.9165 1.7947 13.7351 1.37828 12.4243C0.96186 11.1134 0.890435 9.71738 1.1709 8.37088C1.45136 7.02438 2.07424 5.77293 2.9794 4.73736C3.88456 3.70178 5.04142 2.91707 6.33829 2.45897C7.63516 2.00087 9.02823 1.88487 10.383 2.12216C11.7378 2.35945 13.0085 2.94201 14.0725 3.81362C15.1364 4.68522 15.9577 5.81641 16.457 7.09797C17.8537 6.81978 19.3039 7.0942 20.5024 7.8635C21.7009 8.63279 22.5543 9.83698 22.8829 11.2227C23.2116 12.6084 22.99 14.0676 22.2647 15.2932C21.5393 16.5188 20.3669 17.4152 18.994 17.794H18.995ZM10 17C9.4696 17 8.96089 16.7893 8.58582 16.4142C8.21075 16.0391 8.00003 15.5304 8.00003 15C8.00003 14.4695 8.21075 13.9608 8.58582 13.5858C8.96089 13.2107 9.4696 13 10 13C10.5305 13 11.0392 13.2107 11.4142 13.5858C11.7893 13.9608 12 14.4695 12 15C12 15.5304 11.7893 16.0391 11.4142 16.4142C11.0392 16.7893 10.5305 17 10 17ZM15 20C14.4696 20 13.9609 19.7893 13.5858 19.4142C13.2107 19.0391 13 18.5304 13 18C13 17.4695 13.2107 16.9608 13.5858 16.5858C13.9609 16.2107 14.4696 16 15 16C15.5305 16 16.0392 16.2107 16.4142 16.5858C16.7893 16.9608 17 17.4695 17 18C17 18.5304 16.7893 19.0391 16.4142 19.4142C16.0392 19.7893 15.5305 20 15 20ZM10 23C9.4696 23 8.96089 22.7893 8.58582 22.4142C8.21075 22.0391 8.00003 21.5304 8.00003 21C8.00003 20.4695 8.21075 19.9608 8.58582 19.5858C8.96089 19.2107 9.4696 19 10 19C10.5305 19 11.0392 19.2107 11.4142 19.5858C11.7893 19.9608 12 20.4695 12 21C12 21.5304 11.7893 22.0391 11.4142 22.4142C11.0392 22.7893 10.5305 23 10 23Z" fill="#001018"/>
</svg>
