<svg width="16" height="16" viewBox="0 0 16 16" xmlns="http://www.w3.org/2000/svg"><path d="M3.99999 11.612C2.85394 11.1467 1.90519 10.2976 1.31603 9.20996C0.726874 8.12236 0.533915 6.86384 0.770164 5.64968C1.00641 4.43552 1.65719 3.34117 2.61117 2.55382C3.56515 1.76648 4.76307 1.33506 5.99999 1.33337C7.0747 1.33331 8.12437 1.65781 9.01154 2.26436C9.89871 2.87092 10.582 3.73126 10.972 4.73271C11.9022 4.54883 12.8675 4.73245 13.6652 5.24504C14.4629 5.75763 15.031 6.55931 15.2503 7.48182C15.4696 8.40432 15.323 9.3759 14.8412 10.1926C14.3595 11.0093 13.5801 11.6077 12.6667 11.862V10.442C12.9748 10.2958 13.2471 10.0839 13.4645 9.82105C13.6818 9.55824 13.8389 9.25097 13.9247 8.92088C14.0105 8.5908 14.0229 8.24592 13.961 7.91054C13.8991 7.57515 13.7644 7.25741 13.5665 6.97969C13.3685 6.70197 13.1121 6.47101 12.8152 6.30309C12.5184 6.13517 12.1884 6.03436 11.8483 6.00776C11.5083 5.98117 11.1666 6.02943 10.8473 6.14915C10.5279 6.26887 10.2387 6.45714 9.99999 6.70071V6.66671C9.9999 5.96458 9.81499 5.27486 9.46385 4.66684C9.11271 4.05883 8.60772 3.55396 7.99963 3.20296C7.39153 2.85196 6.70176 2.66721 5.99964 2.66727C5.29752 2.66733 4.60778 2.85221 3.99975 3.20331C3.39172 3.55442 2.88682 4.05938 2.53579 4.66746C2.18476 5.27553 1.99997 5.96529 1.99999 6.66741C2.00002 7.36954 2.18486 8.05928 2.53593 8.66733C2.887 9.27538 3.39194 9.78031 3.99999 10.1314V11.612ZM6.66666 11.3334C6.31304 11.3334 5.9739 11.1929 5.72385 10.9429C5.4738 10.6928 5.33333 10.3537 5.33333 10C5.33333 9.64642 5.4738 9.30728 5.72385 9.05723C5.9739 8.80718 6.31304 8.66671 6.66666 8.66671C7.02028 8.66671 7.35942 8.80718 7.60947 9.05723C7.85952 9.30728 7.99999 9.64642 7.99999 10C7.99999 10.3537 7.85952 10.6928 7.60947 10.9429C7.35942 11.1929 7.02028 11.3334 6.66666 11.3334ZM9.99999 13.3334C9.64637 13.3334 9.30723 13.1929 9.05719 12.9429C8.80714 12.6928 8.66666 12.3537 8.66666 12C8.66666 11.6464 8.80714 11.3073 9.05719 11.0572C9.30723 10.8072 9.64637 10.6667 9.99999 10.6667C10.3536 10.6667 10.6928 10.8072 10.9428 11.0572C11.1929 11.3073 11.3333 11.6464 11.3333 12C11.3333 12.3537 11.1929 12.6928 10.9428 12.9429C10.6928 13.1929 10.3536 13.3334 9.99999 13.3334ZM6.66666 15.3334C6.31304 15.3334 5.9739 15.1929 5.72385 14.9429C5.4738 14.6928 5.33333 14.3537 5.33333 14C5.33333 13.6464 5.4738 13.3073 5.72385 13.0572C5.9739 12.8072 6.31304 12.6667 6.66666 12.6667C7.02028 12.6667 7.35942 12.8072 7.60947 13.0572C7.85952 13.3073 7.99999 13.6464 7.99999 14C7.99999 14.3537 7.85952 14.6928 7.60947 14.9429C7.35942 15.1929 7.02028 15.3334 6.66666 15.3334Z"/></svg>