<svg width="16" height="16" xmlns="http://www.w3.org/2000/svg"><path d="M11 2c2.025 0 3.667 1.667 3.667 4 0 4.667-5 7.333-6.667 8.333-1.318-.79-4.722-2.624-6.087-5.666H.667V7.333h.806A6.357 6.357 0 0 1 1.333 6C1.333 3.667 3 2 5 2c1.24 0 2.333.667 3 1.333C8.667 2.667 9.76 2 11 2zm0 1.333c-.717 0-1.493.38-2.057.943L8 5.219l-.943-.943c-.564-.563-1.34-.943-2.057-.943-1.293 0-2.333 1.104-2.333 2.667 0 .457.06.901.178 1.333h1.444l1.378-2.296 2 3.334.622-1.038h3.044v1.334H9.044l-1.377 2.296-2-3.334-.623 1.038H3.405c.527.916 1.324 1.778 2.358 2.602a18.17 18.17 0 0 0 1.614 1.133c.2.126.397.247.623.381.226-.134.423-.255.623-.38.587-.371 1.117-.74 1.613-1.134 1.987-1.58 3.097-3.307 3.097-5.269 0-1.573-1.024-2.667-2.333-2.667z"/></svg>