<svg viewBox="0 0 24 24" xmlns="http://www.w3.org/2000/svg"><path fill-rule="evenodd" clip-rule="evenodd" d="M22 9C22 5.5 19.538 3 16.5 3C14.64 3 13 4 12 5C11 4 9.36 3 7.5 3C4.5 3 2 5.5 2 9C2 15.6009 8.66916 19.5341 11.5259 21.219C11.6987 21.3208 11.8575 21.4145 12 21.5C12.1425 21.4145 12.3013 21.3208 12.4741 21.219C15.3308 19.5341 22 15.6009 22 9ZM15.354 16.903C14.61 17.495 13.815 18.048 12.934 18.604C12.635 18.792 12.339 18.973 12 19.175C11.661 18.973 11.365 18.792 11.066 18.603C10.185 18.048 9.39 17.495 8.645 16.903C5.666 14.533 4 11.944 4 9C4 6.656 5.56 5 7.5 5C8.576 5 9.74 5.57 10.586 6.414L12 7.828L13.414 6.414C14.26 5.57 15.424 5 16.5 5C18.463 5 20 6.64 20 9C20 11.943 18.335 14.533 15.354 16.903Z"/></svg>