<svg width="16" height="16" viewBox="0 0 16 16" xmlns="http://www.w3.org/2000/svg"><path fill-rule="evenodd" clip-rule="evenodd" d="M14.6666 6C14.6666 3.66667 13.0253 2 11 2C9.75998 2 8.66665 2.66667 7.99998 3.33333C7.33331 2.66667 6.23998 2 4.99998 2C2.99998 2 1.33331 3.66667 1.33331 6C1.33331 10.4006 5.77942 13.0228 7.68394 14.146C7.7991 14.2139 7.90496 14.2763 7.99998 14.3333C8.095 14.2763 8.20086 14.2139 8.31601 14.146C10.2205 13.0228 14.6666 10.4006 14.6666 6ZM10.236 11.2687C9.73998 11.6633 9.20998 12.032 8.62265 12.4027C8.42331 12.528 8.22598 12.6487 7.99998 12.7833C7.77398 12.6487 7.57665 12.528 7.37731 12.402C6.78998 12.032 6.25998 11.6633 5.76331 11.2687C3.77731 9.68867 2.66665 7.96267 2.66665 6C2.66665 4.43733 3.70665 3.33333 4.99998 3.33333C5.71731 3.33333 6.49331 3.71333 7.05731 4.276L7.99998 5.21867L8.94265 4.276C9.50665 3.71333 10.2826 3.33333 11 3.33333C12.3086 3.33333 13.3333 4.42667 13.3333 6C13.3333 7.962 12.2233 9.68867 10.236 11.2687Z"/></svg>