<svg width="16" height="16" fill="none" xmlns="http://www.w3.org/2000/svg"><path fill-rule="evenodd" clip-rule="evenodd" d="M14.667 6c0-2.333-1.642-4-3.667-4-1.24 0-2.333.667-3 1.333C7.333 2.667 6.24 2 5 2 3 2 1.333 3.667 1.333 6c0 4.4 4.446 7.023 6.351 8.146l.316.187c.095-.057.2-.12.316-.187 1.905-1.123 6.35-3.745 6.35-8.146zm-4.431 5.269a17.99 17.99 0 0 1-1.613 1.134c-.2.125-.397.246-.623.38a26.93 26.93 0 0 1-.623-.381 17.952 17.952 0 0 1-1.614-1.133C3.777 9.689 2.667 7.963 2.667 6c0-1.563 1.04-2.667 2.333-2.667.717 0 1.493.38 2.057.943L8 5.219l.943-.943c.564-.563 1.34-.943 2.057-.943 1.309 0 2.333 1.094 2.333 2.667 0 1.962-1.11 3.689-3.097 5.269z" fill="#001018"/></svg>