<svg width="16" height="16" viewBox="0 0 16 16" fill="none" xmlns="http://www.w3.org/2000/svg">
<g clip-path="url(#clip0_7314_1569)">
<path d="M8 6.66666C8.73638 6.66666 9.33333 6.06971 9.33333 5.33333H6.66667C6.66667 6.06971 7.26362 6.66666 8 6.66666Z" fill="#001018"/>
<path d="M8 10.6666C7.26362 10.6666 6.66667 11.2636 6.66667 12V12.6666H9.33333V12C9.33333 11.2636 8.73638 10.6666 8 10.6666Z" fill="#001018"/>
<path fill-rule="evenodd" clip-rule="evenodd" d="M12 1.33331H4V2.66665H4.66667V5.33331C4.66667 6.42371 5.19023 7.39183 5.99968 7.99998C5.19023 8.60813 4.66667 9.57625 4.66667 10.6666V13.3333H4V14.6666H12V13.3333H11.3333V10.6666C11.3333 9.57625 10.8098 8.60813 10.0003 7.99998C10.8098 7.39183 11.3333 6.42371 11.3333 5.33331V2.66665H12V1.33331ZM8 7.33331C9.10457 7.33331 10 6.43788 10 5.33331V2.66665H6V5.33331C6 6.43788 6.89543 7.33331 8 7.33331ZM10 10.6666C10 9.56208 9.10457 8.66665 8 8.66665C6.89543 8.66665 6 9.56208 6 10.6666V13.3333H10V10.6666Z" fill="#001018"/>
</g>
<defs>
<clipPath id="clip0_7314_1569">
<rect width="16" height="16" fill="white"/>
</clipPath>
</defs>
</svg>
