<svg viewBox="0 0 24 24" xmlns="http://www.w3.org/2000/svg"><path d="M8.61196 20.12C5.86796 21.61 3.49896 21.919 2.18996 20.61C0.845958 19.27 1.56196 15.759 3.50296 12.237C4.48901 10.4455 5.70757 8.79216 7.12696 7.32001C7.31396 7.13301 8.25196 6.19601 8.31396 6.19601C8.31396 6.19601 7.81396 6.50901 7.75196 6.50901C5.80196 7.60401 4.08896 9.58901 3.71496 10.034C4.18802 7.92326 5.40515 6.05336 7.14371 4.76633C8.88227 3.47931 11.0261 2.86118 13.183 3.02501C16.278 1.62301 19.157 1.29901 20.375 2.51501C21.5 3.63801 21.437 5.51001 20.5 7.75701C20.49 7.77801 20.482 7.80001 20.473 7.82101C21.1497 9.1099 21.5022 10.5443 21.5 12C21.5 12.38 21.477 12.753 21.431 13.12H20.627C20.5796 13.1218 20.5323 13.1228 20.485 13.123H8.68896V13.31C8.75096 15.307 10.501 17.054 12.626 17.054C14.126 17.054 15.563 16.243 16.188 15.057H20.968C20.5407 16.2404 19.8702 17.3211 18.9996 18.2294C18.129 19.1377 17.0777 19.8535 15.9135 20.3305C14.7493 20.8076 13.4981 21.0353 12.2404 20.9991C10.9828 20.9628 9.74674 20.6633 8.61196 20.12ZM8.00496 19.799C6.16397 18.7353 4.75739 17.056 4.03296 15.057C2.87196 17.339 2.57296 19.247 3.56396 20.237C4.37696 21.049 6.00196 20.861 8.00196 19.801L8.00496 19.799ZM20.172 7.29201C20.1769 7.28066 20.1819 7.26933 20.187 7.25801C20.937 5.63601 21 4.26401 20.312 3.45201C19.443 2.58401 17.772 2.70201 15.79 3.62001C17.6097 4.33723 19.1474 5.62581 20.172 7.29201ZM16.563 10.752V10.691C16.438 8.63101 14.813 7.07101 12.813 7.07101C10.688 7.07101 8.87696 8.75601 8.75196 10.691V10.753H16.563V10.752Z"/></svg>