<svg width="16" height="16" fill="none" xmlns="http://www.w3.org/2000/svg"><path d="M5.741 13.413c-1.829.994-3.408 1.2-4.281.327-.896-.893-.419-3.234.875-5.582A15.47 15.47 0 0 1 4.751 4.88c.125-.125.75-.75.792-.75 0 0-.334.21-.375.21-1.3.73-2.442 2.053-2.691 2.35a6.003 6.003 0 0 1 6.312-4.673c2.063-.935 3.982-1.151 4.794-.34.75.748.708 1.996.084 3.494-.007.014-.012.029-.018.043a5.973 5.973 0 0 1 .638 3.533h-.536a2.714 2.714 0 0 1-.094.002H5.793v.124C5.834 10.205 7 11.37 8.417 11.37c1 0 1.958-.54 2.375-1.331h3.187a6.001 6.001 0 0 1-8.238 3.375zm-.404-.214a6.02 6.02 0 0 1-2.648-3.161c-.774 1.521-.974 2.793-.313 3.453.542.542 1.625.416 2.959-.29l.002-.002zm8.111-8.338.01-.022c.5-1.082.542-1.996.083-2.538-.579-.578-1.693-.5-3.014.112a6.021 6.021 0 0 1 2.921 2.448zm-2.406 2.307v-.04c-.083-1.374-1.167-2.414-2.5-2.414-1.417 0-2.624 1.123-2.707 2.413v.042h5.207v-.001z" fill="#001018"/></svg>