<svg width="16" height="16" xmlns="http://www.w3.org/2000/svg"><path d="M12.106 6.667a4.001 4.001 0 0 0-7.546 0h7.547-.001zm-7.717 2a4.001 4.001 0 0 0 7.386 1.371h2.203a6.003 6.003 0 0 1-8.237 3.375c-1.829.994-3.408 1.2-4.281.328-.896-.894-.419-3.234.875-5.582a15.749 15.749 0 0 1 1.666-2.444c.24-.288.49-.568.75-.834-.183.036-1.253.567-2.274 1.809a6.003 6.003 0 0 1 6.312-4.673c2.063-.934 3.982-1.15 4.794-.34.75.749.708 1.997.084 3.495-.007.014-.012.029-.018.043a5.973 5.973 0 0 1 .648 3.452H4.389zm.948 4.532a6.02 6.02 0 0 1-2.648-3.161c-.774 1.521-.974 2.793-.313 3.453.542.542 1.625.416 2.959-.29l.002-.002zm8.111-8.338a2.14 2.14 0 0 1 .01-.022c.5-1.082.542-1.996.083-2.538-.579-.578-1.693-.5-3.014.112a6.021 6.021 0 0 1 2.921 2.448z"/></svg>