<svg width="24" height="24" viewBox="0 0 24 24" fill="none" xmlns="http://www.w3.org/2000/svg">
<path d="M18.159 9.99999C17.7455 8.82927 16.9792 7.81556 15.9656 7.09855C14.952 6.38153 13.741 5.9965 12.4995 5.9965C11.2579 5.9965 10.0469 6.38153 9.03327 7.09855C8.01967 7.81556 7.25337 8.82927 6.83996 9.99999H18.16H18.159ZM6.58296 13C6.78861 14.2117 7.3613 15.3311 8.22364 16.2069C9.08598 17.0826 10.1964 17.6725 11.4048 17.8969C12.6132 18.1212 13.8614 17.9692 14.9806 17.4613C16.0998 16.9534 17.0361 16.1142 17.663 15.057H20.967C20.5397 16.2402 19.8692 17.3208 18.9987 18.2291C18.1282 19.1373 17.077 19.853 15.9129 20.33C14.7488 20.8071 13.4977 21.0348 12.2402 20.9987C10.9827 20.9625 9.74669 20.6632 8.61196 20.12C5.86796 21.611 3.49896 21.92 2.18996 20.611C0.845958 19.271 1.56196 15.76 3.50296 12.238C4.21916 10.9406 5.05585 9.71357 6.00196 8.57299C6.36096 8.13999 6.73696 7.72099 7.12696 7.32099C6.85196 7.37599 5.24696 8.17199 3.71496 10.035C4.18802 7.92424 5.40515 6.05434 7.14371 4.76731C8.88227 3.48028 11.0261 2.86215 13.183 3.02599C16.278 1.62399 19.157 1.29999 20.375 2.51599C21.5 3.63899 21.437 5.51099 20.5 7.75799C20.49 7.77899 20.482 7.80099 20.473 7.82199C21.1495 9.11057 21.502 10.5446 21.5 12C21.5 12.338 21.481 12.672 21.445 13H6.58296ZM8.00496 19.799C6.16397 18.7352 4.75739 17.056 4.03296 15.057C2.87196 17.339 2.57296 19.247 3.56396 20.237C4.37696 21.049 6.00196 20.861 8.00196 19.801L8.00496 19.799ZM20.172 7.29199C20.1769 7.28064 20.1819 7.26931 20.187 7.25799C20.937 5.63599 21 4.26399 20.312 3.45199C19.443 2.58399 17.772 2.70199 15.79 3.61999C17.6097 4.33721 19.1474 5.62579 20.172 7.29199Z" fill="#001018"/>
</svg>
