<svg width="16" height="16" fill="none" xmlns="http://www.w3.org/2000/svg"><path fill-rule="evenodd" clip-rule="evenodd" d="M7.603 11.931A4.002 4.002 0 0 1 4.39 8.667h9.908a5.975 5.975 0 0 0-.648-3.452l.006-.016a.455.455 0 0 1 .012-.027c.624-1.498.666-2.746-.084-3.495-.812-.81-2.731-.594-4.794.34A6.003 6.003 0 0 0 2.477 6.69C3.498 5.448 4.568 4.917 4.75 4.88c-.26.267-.51.547-.75.835A15.75 15.75 0 0 0 2.335 8.16c-1.294 2.347-1.771 4.687-.875 5.58.873.872 2.452.666 4.281-.328a6.002 6.002 0 0 0 8.237-3.375h-2.203a4.002 4.002 0 0 1-4.172 1.893zm.73-7.933a4.001 4.001 0 0 1 3.773 2.669H4.56a4.001 4.001 0 0 1 3.773-2.67zm-2.996 9.201a6.02 6.02 0 0 1-2.648-3.161c-.774 1.521-.974 2.793-.313 3.453.542.542 1.625.416 2.959-.29l.002-.002zm8.121-8.36-.01.022a6.021 6.021 0 0 0-2.921-2.448c1.321-.612 2.435-.69 3.014-.112.459.542.417 1.456-.083 2.538z" fill="#001018"/></svg>