<svg width="24" height="24" viewBox="0 0 24 24" fill="none" xmlns="http://www.w3.org/2000/svg">
<path fill-rule="evenodd" clip-rule="evenodd" d="M2 3.993C2.00381 3.44656 2.44556 3.00436 2.992 3H21.008C21.556 3 22 3.445 22 3.993V20.007C21.9962 20.5534 21.5544 20.9956 21.008 21H2.992C2.44397 20.9994 2 20.555 2 20.007V3.993ZM20 5H4V19L13.292 9.706C13.6825 9.31562 14.3155 9.31562 14.706 9.706L20 15.01V5ZM6 9C6 10.1046 6.89543 11 8 11C9.10457 11 10 10.1046 10 9C10 7.89543 9.10457 7 8 7C6.89543 7 6 7.89543 6 9Z" fill="#001018"/>
</svg>
