<svg width="24" height="24" fill="none" xmlns="http://www.w3.org/2000/svg"><path fill-rule="evenodd" clip-rule="evenodd" d="M14.544 11.25H12.75V9.456a5.22 5.22 0 0 1-.616-1.523 6.75 6.75 0 1 0 3.933 3.933 5.22 5.22 0 0 1-1.523-.616zm-2.526-4.934a5.25 5.25 0 1 1 5.666 5.666 8.25 8.25 0 1 1-5.667-5.667zM7.5 14.25a.75.75 0 1 1 0-1.5.75.75 0 0 1 0 1.5zm-.534 2.777a.75.75 0 1 1 1.068-1.054c.038.039.159.13.361.232.366.183.815.295 1.355.295.485 0 1.06-.23 1.65-.624a6.268 6.268 0 0 0 .818-.655.75.75 0 1 1 1.064 1.058 7.05 7.05 0 0 1-1.05.845c-.813.543-1.646.876-2.482.876-.78 0-1.458-.17-2.027-.455a2.924 2.924 0 0 1-.757-.518zM12 13.5a.75.75 0 1 1 0-1.5.75.75 0 0 1 0 1.5zm5.25-6.75v2.625c0 .207.168.375.375.375h.75a.375.375 0 0 0 0-.75H18V6.375A.375.375 0 0 0 17.625 6h-.75a.375.375 0 0 0 0 .75h.375zm0-1.5a.75.75 0 1 0 0-1.5.75.75 0 0 0 0 1.5z" fill="#001018"/></svg>