<svg width="16" height="16" viewBox="0 0 16 16" fill="none" xmlns="http://www.w3.org/2000/svg">
<path fill-rule="evenodd" clip-rule="evenodd" d="M1.33331 7.99998C1.33331 11.682 4.31798 14.6666 7.99998 14.6666C11.682 14.6666 14.6666 11.682 14.6666 7.99998C14.6666 4.31798 11.682 1.33331 7.99998 1.33331C4.31798 1.33331 1.33331 4.31798 1.33331 7.99998ZM13.3333 7.99998C13.3333 10.9455 10.9455 13.3333 7.99998 13.3333C5.05446 13.3333 2.66665 10.9455 2.66665 7.99998C2.66665 5.05446 5.05446 2.66665 7.99998 2.66665C10.9455 2.66665 13.3333 5.05446 13.3333 7.99998ZM8.66665 4.66665V5.99998H7.33331V4.66665H8.66665ZM8.66665 11.3333V7.33331H7.33331V11.3333H8.66665Z" fill="#001018"/>
</svg>
