<svg width="16" height="16" fill="none" xmlns="http://www.w3.org/2000/svg"><path d="M8 6a2 2 0 1 0 0 4 2 2 0 0 0 0-4zm0-1.333a3.333 3.333 0 1 1 0 6.666 3.333 3.333 0 0 1 0-6.666zm4.333-.167a.834.834 0 1 1-1.667 0 .834.834 0 0 1 1.667 0zM8 2.667c-1.65 0-1.919.004-2.686.038-.523.025-.873.095-1.199.222a1.933 1.933 0 0 0-.72.468 1.936 1.936 0 0 0-.469.72c-.127.327-.197.677-.22 1.199-.035.736-.04.993-.04 2.686 0 1.65.005 1.919.04 2.686.024.522.094.873.22 1.198.113.29.247.499.468.72.225.224.433.358.72.469.33.127.68.198 1.2.222.736.034.993.038 2.686.038 1.65 0 1.919-.004 2.686-.038.521-.025.873-.095 1.198-.221a1.95 1.95 0 0 0 .72-.468 1.93 1.93 0 0 0 .47-.72c.126-.329.197-.68.22-1.2.035-.736.04-.993.04-2.686 0-1.65-.005-1.919-.04-2.686-.024-.521-.094-.873-.22-1.199a1.94 1.94 0 0 0-.47-.72 1.924 1.924 0 0 0-.72-.469c-.326-.127-.677-.197-1.198-.22-.736-.035-.993-.04-2.686-.04zm0-1.334c1.811 0 2.037.007 2.748.04.71.034 1.193.145 1.619.31.44.17.81.399 1.181.769.339.333.601.736.769 1.181.164.425.276.909.31 1.619.031.71.04.937.04 2.748 0 1.811-.007 2.037-.04 2.748-.034.71-.146 1.193-.31 1.619-.167.445-.43.848-.769 1.181a3.277 3.277 0 0 1-1.181.769c-.425.164-.909.276-1.619.31-.71.031-.937.04-2.748.04-1.811 0-2.037-.007-2.748-.04-.71-.034-1.193-.146-1.619-.31a3.261 3.261 0 0 1-1.181-.769 3.27 3.27 0 0 1-.769-1.181c-.165-.425-.276-.909-.31-1.619-.031-.71-.04-.937-.04-2.748 0-1.811.007-2.037.04-2.748.034-.71.145-1.193.31-1.619.167-.445.43-.848.769-1.181.333-.34.736-.602 1.181-.769.426-.165.908-.276 1.619-.31.71-.031.937-.04 2.748-.04z" fill="#001018"/></svg>