<svg width="16" height="16" fill="none" xmlns="http://www.w3.org/2000/svg"><path d="M8 1.333c1.811 0 2.037.007 2.748.04.71.034 1.193.145 1.619.31.44.17.81.399 1.181.769.339.333.601.736.769 1.181.164.425.276.909.31 1.619.031.71.04.937.04 2.748 0 1.811-.007 2.037-.04 2.748-.034.71-.146 1.193-.31 1.619-.167.445-.43.848-.769 1.181a3.277 3.277 0 0 1-1.181.769c-.425.164-.909.276-1.619.31-.71.031-.937.04-2.748.04-1.811 0-2.037-.007-2.748-.04-.71-.034-1.193-.146-1.619-.31a3.26 3.26 0 0 1-1.181-.769 3.269 3.269 0 0 1-.769-1.181c-.165-.425-.276-.909-.31-1.619-.031-.71-.04-.937-.04-2.748 0-1.811.007-2.037.04-2.748.034-.71.145-1.193.31-1.619.167-.445.43-.848.769-1.181.333-.34.736-.601 1.181-.769.426-.165.908-.276 1.619-.31.71-.031.937-.04 2.748-.04zm0 3.334a3.333 3.333 0 1 0 0 6.666 3.333 3.333 0 0 0 0-6.666zm4.333-.167a.834.834 0 1 0-1.667 0 .834.834 0 0 0 1.667 0zM8 6a2 2 0 1 1 0 4 2 2 0 0 1 0-4z" fill="#001018"/></svg>