<svg width="16" height="16" fill="none" xmlns="http://www.w3.org/2000/svg"><path fill-rule="evenodd" clip-rule="evenodd" d="M10.748 1.373c-.71-.033-.937-.04-2.748-.04-1.811 0-2.037.009-2.748.04-.71.034-1.193.145-1.619.31-.445.167-.848.43-1.181.769-.34.333-.602.736-.769 1.181-.165.426-.276.908-.31 1.619-.033.71-.04.937-.04 2.748 0 1.811.009 2.037.04 2.748.034.71.145 1.194.31 1.619.168.445.43.848.769 1.181.333.34.736.602 1.181.769.426.164.909.276 1.619.31.71.033.937.04 2.748.04 1.811 0 2.037-.009 2.748-.04.71-.034 1.194-.146 1.619-.31.444-.168.848-.43 1.181-.769.34-.333.602-.736.769-1.181.164-.426.276-.909.31-1.619.033-.71.04-.937.04-2.748 0-1.811-.009-2.037-.04-2.748-.034-.71-.146-1.194-.31-1.619a3.272 3.272 0 0 0-.769-1.181 3.25 3.25 0 0 0-1.181-.769c-.426-.165-.909-.276-1.619-.31zM4.667 8a3.333 3.333 0 1 1 6.666 0 3.333 3.333 0 0 1-6.666 0zm7.666-3.5a.833.833 0 1 0-1.666 0 .833.833 0 0 0 1.666 0zM10 8a2 2 0 1 0-4 0 2 2 0 0 0 4 0z" fill="#001018"/></svg>