<svg width="24" height="24" xmlns="http://www.w3.org/2000/svg"><path fill-rule="evenodd" clip-rule="evenodd" d="m12.738 18.75 1.42-7.81A5.686 5.686 0 0 0 12 10.5a5.71 5.71 0 0 0-2.158.44l1.42 7.81h1.476zm1.566-.232 4.615-7.5c-.573-.35-1.127-.518-1.669-.518-.512 0-1.033.15-1.572.46l-1.374 7.558zm-4.608 0-1.374-7.557c-.539-.31-1.06-.461-1.572-.461-.542 0-1.096.169-1.67.519l4.616 7.5zm9.75-8.927a7.501 7.501 0 0 0-14.892 0C5.274 9.201 6.007 9 6.75 9c.778 0 1.547.22 2.298.649C10.024 9.218 11.01 9 12 9s1.976.218 2.952.649c.751-.43 1.52-.649 2.298-.649.743 0 1.477.2 2.195.591zM15 20.25v1.5a.75.75 0 0 1-.75.75h-4.5a.75.75 0 0 1-.75-.75v-1.5L3 10.5a9 9 0 0 1 18 0l-6 9.75zm-4.5 0V21h3v-.75h-3z"/></svg>