<svg width="24" height="24" fill="none" xmlns="http://www.w3.org/2000/svg"><path fill-rule="evenodd" clip-rule="evenodd" d="m16.28 11.03-2.25 2.25a.75.75 0 1 1-1.06-1.06l.97-.97H10.5V15A.75.75 0 0 1 9 15v-4.5a.75.75 0 0 1 .75-.75h4.19l-.97-.97a.75.75 0 0 1 1.06-1.06l2.25 2.25a.747.747 0 0 1 0 1.06zm-3.75-9.31 9.75 9.75a.75.75 0 0 1 0 1.06l-9.75 9.75a.747.747 0 0 1-1.06 0l-9.75-9.75a.75.75 0 0 1 0-1.06l9.75-9.75a.75.75 0 0 1 1.06 0zM12 3.31 3.31 12 12 20.69 20.69 12 12 3.31z" fill="#001018"/></svg>