<svg width="16" height="16" viewBox="0 0 16 16" fill="none" xmlns="http://www.w3.org/2000/svg">
<path d="M3.78533 12.082C2.06133 11.044 1 9.408 1 7.60333C1 4.46733 4.16533 2 8 2C11.8347 2 15 4.46733 15 7.60333C15 10.7393 11.8347 13.2067 8 13.2067C7.70533 13.2067 7.412 13.192 7.12133 13.1633L4.61133 14.802C4.20133 15.0193 3.97333 15.0853 3.62133 14.846C3.208 14.5633 3.224 14.2513 3.36733 13.806L3.78533 12.082V12.082ZM2.33333 7.60333C2.33333 9.02467 3.27867 10.352 4.854 11.15L5.32467 11.3893L5.20067 11.9027L4.93333 13.0013L6.8 11.7813L7.044 11.812C7.35933 11.8527 7.67867 11.8733 8 11.8733C11.1607 11.8733 13.6667 9.92 13.6667 7.60333C13.6667 5.28667 11.1607 3.33333 8 3.33333C4.83933 3.33333 2.33333 5.28667 2.33333 7.60333V7.60333ZM11.938 7.37267L12.9473 8.80933C12.9711 8.84317 12.988 8.88136 12.997 8.92172C13.006 8.96207 13.007 9.00381 12.9999 9.04454C12.9927 9.08528 12.9777 9.12421 12.9555 9.15912C12.9333 9.19403 12.9045 9.22423 12.8707 9.248C12.8368 9.27177 12.7986 9.28864 12.7583 9.29765C12.7179 9.30666 12.6762 9.30764 12.6355 9.30052C12.5947 9.2934 12.5558 9.27833 12.5209 9.25616C12.486 9.23399 12.4558 9.20517 12.432 9.17133L11.48 7.816L11.1953 8.09133V9C11.1953 9.08345 11.1622 9.16349 11.1032 9.2225C11.0442 9.28151 10.9641 9.31467 10.8807 9.31467C10.7972 9.31467 10.7172 9.28151 10.6582 9.2225C10.5992 9.16349 10.566 9.08345 10.566 9V8.04067C10.5542 7.99204 10.5542 7.94129 10.566 7.89267V6.188C10.566 6.10454 10.5992 6.02451 10.6582 5.9655C10.7172 5.90649 10.7972 5.87333 10.8807 5.87333C10.9641 5.87333 11.0442 5.90649 11.1032 5.9655C11.1622 6.02451 11.1953 6.10454 11.1953 6.188V7.216L12.4807 5.972C12.5412 5.91742 12.6206 5.88847 12.7021 5.89126C12.7836 5.89405 12.8608 5.92835 12.9175 5.98694C12.9742 6.04553 13.0059 6.12384 13.006 6.20536C13.0061 6.28689 12.9745 6.36527 12.918 6.424L11.938 7.37267V7.37267ZM9.966 8.656C10.0495 8.656 10.1295 8.68915 10.1885 8.74816C10.2475 8.80717 10.2807 8.88721 10.2807 8.97067C10.2807 9.05412 10.2475 9.13416 10.1885 9.19317C10.1295 9.25218 10.0495 9.28533 9.966 9.28533H8.678C8.59466 9.28516 8.5148 9.25193 8.45593 9.19293C8.39706 9.13394 8.364 9.05401 8.364 8.97067V6.198C8.36204 6.1555 8.36872 6.11305 8.38364 6.07321C8.39855 6.03337 8.42139 5.99696 8.45077 5.9662C8.48015 5.93543 8.51546 5.91094 8.55458 5.89421C8.59369 5.87748 8.63579 5.86885 8.67833 5.86885C8.72088 5.86885 8.76298 5.87748 8.80209 5.89421C8.8412 5.91094 8.87652 5.93543 8.9059 5.9662C8.93528 5.99696 8.95812 6.03337 8.97303 6.07321C8.98794 6.11305 8.99462 6.1555 8.99267 6.198V8.656H9.966V8.656ZM6.06133 7.928H6.95067L6.52533 6.79L6.06133 7.928ZM7.74333 8.25333L7.97333 8.87C7.98922 8.90899 7.99712 8.95078 7.99656 8.99288C7.99601 9.03499 7.987 9.07655 7.97009 9.11511C7.95318 9.15367 7.9287 9.18844 7.8981 9.21737C7.86751 9.2463 7.83142 9.26879 7.79197 9.28352C7.75252 9.29824 7.71052 9.3049 7.66845 9.3031C7.62639 9.3013 7.58511 9.29107 7.54707 9.27303C7.50902 9.25498 7.47499 9.22948 7.44698 9.19804C7.41897 9.16661 7.39755 9.12987 7.384 9.09L7.18533 8.55733H5.80533L5.58467 9.09933C5.56904 9.13759 5.54603 9.1724 5.51695 9.20176C5.48787 9.23113 5.45329 9.25448 5.41519 9.27048C5.37709 9.28649 5.33621 9.29483 5.29488 9.29503C5.25355 9.29523 5.21259 9.28729 5.17433 9.27167C5.13607 9.25604 5.10127 9.23303 5.0719 9.20395C5.04254 9.17487 5.01919 9.14029 5.00318 9.10219C4.98718 9.06409 4.97884 9.02321 4.97864 8.98188C4.97843 8.94055 4.98637 8.89959 5.002 8.86133L6.10867 6.14467C6.14242 6.05656 6.20224 5.98083 6.28013 5.92759C6.35803 5.87434 6.45031 5.84612 6.54467 5.84667C6.63822 5.85054 6.72837 5.88286 6.80306 5.93933C6.87775 5.9958 6.93344 6.07371 6.96267 6.16267L7.66 8.02933C7.71425 8.08714 7.74451 8.16339 7.74467 8.24267L7.74333 8.25333V8.25333ZM5.52867 6.20133C5.52867 6.37467 5.38867 6.516 5.21467 6.516H4.45467V9.00667C4.45467 9.09021 4.42148 9.17033 4.36241 9.2294C4.30333 9.28848 4.22321 9.32167 4.13967 9.32167C4.05612 9.32167 3.976 9.28848 3.91693 9.2294C3.85785 9.17033 3.82467 9.09021 3.82467 9.00667V6.516H3.05133C2.96788 6.516 2.88784 6.48285 2.82883 6.42384C2.76982 6.36482 2.73667 6.28479 2.73667 6.20133C2.73667 6.11788 2.76982 6.03784 2.82883 5.97883C2.88784 5.91982 2.96788 5.88667 3.05133 5.88667H5.21467C5.388 5.88667 5.52867 6.02733 5.52867 6.20133V6.20133Z" fill="#001018"/>
</svg>
