<svg width="16" height="16" viewBox="0 0 16 16" fill="none" xmlns="http://www.w3.org/2000/svg">
<path d="M8 2C11.866 2 15 4.44267 15 7.45667C15 10.47 11.866 12.9127 8 12.9127C7.61505 12.9129 7.23048 12.8884 6.84867 12.8393L3.91 14.7613C3.576 14.938 3.458 14.9187 3.59533 14.486L4.19 12.034C2.27 11.0607 1 9.374 1 7.45667C1 4.44333 4.134 2 8 2ZM11.938 7.37333L12.918 6.424C12.9745 6.36527 13.0061 6.28689 13.006 6.20536C13.0059 6.12384 12.9742 6.04553 12.9175 5.98694C12.8608 5.92835 12.7836 5.89405 12.7021 5.89126C12.6206 5.88847 12.5412 5.91742 12.4807 5.972L11.1953 7.216V6.188C11.1953 6.10454 11.1622 6.02451 11.1032 5.9655C11.0442 5.90649 10.9641 5.87333 10.8807 5.87333C10.7972 5.87333 10.7172 5.90649 10.6582 5.9655C10.5992 6.02451 10.566 6.10454 10.566 6.188V7.89267C10.5542 7.94129 10.5542 7.99204 10.566 8.04067V9C10.566 9.08345 10.5992 9.16349 10.6582 9.2225C10.7172 9.28151 10.7972 9.31467 10.8807 9.31467C10.9641 9.31467 11.0442 9.28151 11.1032 9.2225C11.1622 9.16349 11.1953 9.08345 11.1953 9V8.09133L11.48 7.816L12.432 9.17133C12.4558 9.20517 12.486 9.23399 12.5209 9.25616C12.5558 9.27833 12.5947 9.2934 12.6355 9.30052C12.6762 9.30764 12.7179 9.30666 12.7583 9.29765C12.7986 9.28864 12.8368 9.27177 12.8707 9.248C12.9045 9.22423 12.9333 9.19403 12.9555 9.15912C12.9777 9.12421 12.9927 9.08528 12.9999 9.04454C13.007 9.00381 13.006 8.96207 12.997 8.92172C12.988 8.88136 12.9711 8.84317 12.9473 8.80933L11.938 7.37267V7.37333ZM9.966 8.656H8.99267V6.198C8.98894 6.11714 8.9542 6.04082 8.89566 5.98492C8.83712 5.92901 8.75928 5.89781 8.67833 5.89781C8.59739 5.89781 8.51955 5.92901 8.46101 5.98492C8.40247 6.04082 8.36772 6.11714 8.364 6.198V8.97067C8.364 9.144 8.504 9.28533 8.678 9.28533H9.966C10.0495 9.28533 10.1295 9.25218 10.1885 9.19317C10.2475 9.13416 10.2807 9.05412 10.2807 8.97067C10.2807 8.88721 10.2475 8.80717 10.1885 8.74816C10.1295 8.68915 10.0495 8.656 9.966 8.656V8.656ZM6.06133 7.928L6.52533 6.79L6.95067 7.928H6.06133V7.928ZM7.74333 8.25333L7.74467 8.24267C7.74451 8.16339 7.71425 8.08714 7.66 8.02933L6.96267 6.16267C6.93344 6.07371 6.87775 5.9958 6.80306 5.93933C6.72837 5.88286 6.63822 5.85054 6.54467 5.84667C6.45043 5.84625 6.35829 5.87454 6.28053 5.92778C6.20276 5.98101 6.14305 6.05666 6.10933 6.14467L5.002 8.86133C4.98637 8.89959 4.97843 8.94055 4.97864 8.98188C4.97884 9.02321 4.98718 9.06409 5.00318 9.10219C5.01919 9.14029 5.04254 9.17487 5.0719 9.20395C5.10127 9.23303 5.13607 9.25604 5.17433 9.27167C5.21259 9.28729 5.25355 9.29523 5.29488 9.29503C5.33621 9.29483 5.37709 9.28649 5.41519 9.27048C5.45329 9.25448 5.48787 9.23113 5.51695 9.20176C5.54603 9.1724 5.56904 9.13759 5.58467 9.09933L5.80467 8.55733H7.18467L7.384 9.09067C7.39755 9.13053 7.41897 9.16727 7.44698 9.19871C7.47499 9.23015 7.50902 9.25565 7.54707 9.27369C7.58511 9.29174 7.62639 9.30196 7.66845 9.30377C7.71052 9.30557 7.75252 9.29891 7.79197 9.28418C7.83142 9.26946 7.86751 9.24696 7.8981 9.21804C7.9287 9.18911 7.95318 9.15433 7.97009 9.11577C7.987 9.07721 7.99601 9.03565 7.99656 8.99355C7.99712 8.95145 7.98922 8.90966 7.97333 8.87067L7.74333 8.25333V8.25333ZM5.52867 6.20133C5.52867 6.11799 5.49561 6.03806 5.43674 5.97907C5.37787 5.92007 5.29801 5.88684 5.21467 5.88667H3.05133C2.96788 5.88667 2.88784 5.91982 2.82883 5.97883C2.76982 6.03784 2.73667 6.11788 2.73667 6.20133C2.73667 6.28479 2.76982 6.36482 2.82883 6.42384C2.88784 6.48285 2.96788 6.516 3.05133 6.516H3.82467V9.00667C3.82467 9.09012 3.85782 9.17016 3.91683 9.22917C3.97584 9.28818 4.05588 9.32133 4.13933 9.32133C4.22279 9.32133 4.30282 9.28818 4.36184 9.22917C4.42085 9.17016 4.454 9.09012 4.454 9.00667V6.516H5.214C5.388 6.516 5.52867 6.37467 5.52867 6.20133Z" fill="#001018"/>
</svg>
