<svg width="16" height="16" viewBox="0 0 16 16" xmlns="http://www.w3.org/2000/svg"><path d="M14 2V3.33333C14 9.75133 10.418 12.6667 6 12.6667H3.49533C3.38667 13.2747 3.33333 13.938 3.33333 14.6667H2C2 13.758 2.07733 12.9333 2.23067 12.1787C2.07733 11.316 2 10.1453 2 8.66667C2 4.98467 4.98467 2 8.66667 2C10 2 11.3333 2.66667 14 2ZM8.66667 3.33333C5.72133 3.33333 3.33333 5.72133 3.33333 8.66667C3.33333 8.908 3.33533 9.14067 3.34 9.364C4.176 8.04533 5.40067 7.00333 7.00267 6.088L7.664 7.24533C5.76067 8.33333 4.498 9.56933 3.85067 11.3333H6C10.01 11.3333 12.5807 8.68467 12.6647 3.592C11.75 3.68067 10.9 3.624 9.85133 3.46667C9.08467 3.35133 8.934 3.33333 8.66667 3.33333Z"/></svg>