<svg width="16" height="16" viewBox="0 0 16 16" xmlns="http://www.w3.org/2000/svg"><path d="M7.33331 12H5.29397C5.09597 11.1513 4.20264 10.4573 3.83597 9.99998C3.2081 9.21551 2.81461 8.26963 2.70082 7.27129C2.58703 6.27296 2.75757 5.26279 3.19281 4.35715C3.62804 3.4515 4.31026 2.68723 5.16088 2.15237C6.01149 1.61751 6.9959 1.33382 8.00069 1.33398C9.00549 1.33415 9.98981 1.61815 10.8402 2.15328C11.6907 2.68841 12.3727 3.4529 12.8076 4.35869C13.2426 5.26447 13.4128 6.27469 13.2987 7.27299C13.1846 8.27129 12.7908 9.21705 12.1626 10.0013C11.796 10.458 10.904 11.152 10.706 12H8.66664V8.66665H7.33331V12ZM10.6666 13.3333V14C10.6666 14.3536 10.5262 14.6927 10.2761 14.9428C10.0261 15.1928 9.68693 15.3333 9.33331 15.3333H6.66664C6.31302 15.3333 5.97388 15.1928 5.72383 14.9428C5.47378 14.6927 5.33331 14.3536 5.33331 14V13.3333H10.6666Z"/></svg>