<svg width="16" height="16" viewBox="0 0 16 16" xmlns="http://www.w3.org/2000/svg"><path d="M6.64867 12H7.33333V8.66665H8.66667V12H9.35133C9.43933 11.1986 9.848 10.5373 10.5113 9.81532C10.5867 9.73398 11.066 9.23732 11.1227 9.16665C11.5935 8.5784 11.8887 7.86913 11.9741 7.1205C12.0595 6.37187 11.9317 5.61434 11.6055 4.93514C11.2793 4.25594 10.7678 3.6827 10.1301 3.28143C9.49232 2.88016 8.75421 2.66719 8.00072 2.66703C7.24723 2.66686 6.50903 2.87953 5.87111 3.28052C5.23319 3.68152 4.7215 4.25454 4.39497 4.9336C4.06845 5.61266 3.94036 6.37014 4.02546 7.1188C4.11056 7.86747 4.40539 8.57687 4.876 9.16532C4.93333 9.23665 5.414 9.73398 5.488 9.81465C6.152 10.5373 6.56067 11.1986 6.64867 12V12ZM6.66667 13.3333V14H9.33333V13.3333H6.66667ZM3.836 9.99998C3.20813 9.21551 2.81463 8.26963 2.70084 7.27129C2.58705 6.27296 2.7576 5.26279 3.19284 4.35715C3.62807 3.4515 4.31029 2.68723 5.1609 2.15237C6.01152 1.61751 6.99592 1.33382 8.00072 1.33398C9.00552 1.33415 9.98983 1.61815 10.8403 2.15328C11.6907 2.68841 12.3727 3.4529 12.8076 4.35869C13.2426 5.26447 13.4128 6.27469 13.2987 7.27299C13.1846 8.27129 12.7908 9.21705 12.1627 10.0013C11.7493 10.516 10.6667 11.3333 10.6667 12.3333V14C10.6667 14.3536 10.5262 14.6927 10.2761 14.9428C10.0261 15.1928 9.68695 15.3333 9.33333 15.3333H6.66667C6.31304 15.3333 5.97391 15.1928 5.72386 14.9428C5.47381 14.6927 5.33333 14.3536 5.33333 14V12.3333C5.33333 11.3333 4.25 10.516 3.836 9.99998Z"/></svg>