<svg width="16" height="16" viewBox="0 0 16 16" xmlns="http://www.w3.org/2000/svg"><path d="M7.33333 12H5.294C5.096 11.1513 4.20267 10.4573 3.836 9.99998C3.20813 9.21551 2.81463 8.26963 2.70084 7.27129C2.58705 6.27296 2.7576 5.26279 3.19284 4.35715C3.62807 3.4515 4.31029 2.68723 5.1609 2.15237C6.01152 1.61751 6.99592 1.33382 8.00072 1.33398C9.00552 1.33415 9.98983 1.61815 10.8403 2.15328C11.6907 2.68841 12.3727 3.4529 12.8076 4.35869C13.2426 5.26447 13.4128 6.27469 13.2987 7.27299C13.1846 8.27129 12.7908 9.21705 12.1627 10.0013C11.796 10.458 10.904 11.152 10.706 12H8.66667V8.66665H7.33333V12ZM10.6667 13.3333V14C10.6667 14.3536 10.5262 14.6927 10.2761 14.9428C10.0261 15.1928 9.68695 15.3333 9.33333 15.3333H6.66667C6.31304 15.3333 5.97391 15.1928 5.72386 14.9428C5.47381 14.6927 5.33333 14.3536 5.33333 14V13.3333H10.6667Z"/></svg>