<svg width="16" height="16" viewBox="0 0 16 16" fill="none" xmlns="http://www.w3.org/2000/svg">
<path d="M14.6667 7.12666C14.6667 8.31799 14.2087 9.39333 13.2514 10.4427C11.8514 12.052 8.72604 14.018 8.00871 14.3173C7.29271 14.618 7.40137 14.126 7.42604 13.9593L7.51737 13.3927C7.54004 13.218 7.56271 12.9593 7.49604 12.7927C7.42137 12.608 7.12537 12.51 6.90871 12.4647C3.70537 12.0393 1.33337 9.79999 1.33337 7.12666C1.33337 4.14333 4.32471 1.71466 8.00004 1.71466C11.6747 1.71466 14.6667 4.14333 14.6667 7.12666ZM12.2667 9.54333C13.0087 8.72999 13.3334 7.96933 13.3334 7.12666C13.3334 4.94799 10.9934 3.04799 8.00004 3.04799C5.00671 3.04799 2.66671 4.94799 2.66671 7.12666C2.66671 9.06333 4.48537 10.798 7.08404 11.1427L7.18204 11.16C7.90071 11.3107 8.43804 11.5693 8.73471 12.2987L8.75871 12.3627C9.96271 11.5787 11.5414 10.376 12.266 9.54333H12.2667ZM12.092 6.87666C12.1811 6.88216 12.2648 6.92143 12.3259 6.98646C12.3871 7.0515 12.4211 7.1374 12.4211 7.22666C12.4211 7.31592 12.3871 7.40182 12.3259 7.46686C12.2648 7.53189 12.1811 7.57116 12.092 7.57666H11.1167V8.20199H12.0914C12.1386 8.19993 12.1857 8.20745 12.2299 8.22409C12.2741 8.24073 12.3145 8.26616 12.3487 8.29883C12.3828 8.3315 12.41 8.37075 12.4285 8.4142C12.4471 8.45765 12.4566 8.50441 12.4566 8.55166C12.4566 8.59891 12.4471 8.64567 12.4285 8.68912C12.41 8.73257 12.3828 8.77182 12.3487 8.80449C12.3145 8.83716 12.2741 8.86259 12.2299 8.87923C12.1857 8.89587 12.1386 8.90339 12.0914 8.90133H10.7667C10.6744 8.90063 10.5861 8.86355 10.5209 8.79815C10.4558 8.73276 10.4191 8.64431 10.4187 8.55199V5.90133C10.4187 5.70999 10.5754 5.55133 10.7687 5.55133H12.094C12.1869 5.55159 12.2758 5.58872 12.3412 5.65455C12.4067 5.72037 12.4433 5.8095 12.443 5.90233C12.4428 5.99515 12.4056 6.08407 12.3398 6.14952C12.274 6.21497 12.1849 6.25159 12.092 6.25133H11.1174V6.87666H12.092ZM9.95004 8.55199C9.94987 8.59787 9.94066 8.64326 9.92294 8.68558C9.90522 8.72789 9.87934 8.7663 9.84678 8.79862C9.81422 8.83093 9.77561 8.85652 9.73316 8.87391C9.69071 8.89131 9.64525 8.90017 9.59937 8.89999C9.5445 8.90121 9.49014 8.88925 9.44084 8.86513C9.39154 8.841 9.34875 8.8054 9.31604 8.76133L7.95871 6.91866V8.55199C7.95204 8.63999 7.91238 8.72222 7.84766 8.78222C7.78295 8.84222 7.69796 8.87556 7.60971 8.87556C7.52146 8.87556 7.43647 8.84222 7.37175 8.78222C7.30704 8.72222 7.26737 8.63999 7.26071 8.55199V5.90133C7.26053 5.80915 7.29693 5.72066 7.36193 5.65529C7.42692 5.58992 7.51519 5.55301 7.60737 5.55266C7.71537 5.55266 7.81537 5.60999 7.88204 5.69333L9.25004 7.54333V5.90133C9.25004 5.70999 9.40671 5.55133 9.60004 5.55133C9.79137 5.55133 9.95004 5.70999 9.95004 5.90133V8.55199ZM6.76071 8.55199C6.76018 8.64471 6.72302 8.73346 6.65734 8.7989C6.59165 8.86433 6.50276 8.90115 6.41004 8.90133C6.31762 8.9008 6.22914 8.86381 6.16384 8.79839C6.09855 8.73297 6.06172 8.64442 6.06137 8.55199V5.90133C6.06137 5.70999 6.21871 5.55133 6.41137 5.55133C6.60404 5.55133 6.76071 5.70999 6.76071 5.90133V8.55199ZM5.39071 8.90133H4.06471C3.97216 8.9008 3.88354 8.86385 3.81803 8.79847C3.75253 8.73309 3.71541 8.64454 3.71471 8.55199V5.90133C3.72236 5.81378 3.76254 5.73227 3.82733 5.67289C3.89213 5.61351 3.97682 5.58057 4.06471 5.58057C4.15259 5.58057 4.23729 5.61351 4.30208 5.67289C4.36687 5.73227 4.40706 5.81378 4.41471 5.90133V8.20133H5.39071C5.48353 8.20133 5.57256 8.2382 5.63819 8.30384C5.70383 8.36948 5.74071 8.4585 5.74071 8.55133C5.74071 8.64415 5.70383 8.73318 5.63819 8.79881C5.57256 8.86445 5.48353 8.90133 5.39071 8.90133Z" fill="#001018"/>
</svg>
