<svg width="24" height="24" viewBox="0 0 24 24" fill="none" xmlns="http://www.w3.org/2000/svg">
<path d="M22 10.69C22 12.477 21.313 14.09 19.877 15.664C17.777 18.078 13.089 21.027 12.013 21.476C10.939 21.927 11.102 21.189 11.139 20.939L11.276 20.089C11.31 19.827 11.344 19.439 11.244 19.189C11.132 18.912 10.688 18.765 10.363 18.697C5.558 18.059 2 14.7 2 10.69C2 6.21499 6.487 2.57199 12 2.57199C17.512 2.57199 22 6.21499 22 10.69ZM18.4 14.315C19.513 13.095 20 11.954 20 10.69C20 7.42199 16.49 4.57199 12 4.57199C7.51 4.57199 4 7.42199 4 10.69C4 13.595 6.728 16.197 10.626 16.714L10.773 16.74C11.851 16.966 12.657 17.354 13.102 18.448L13.138 18.544C14.944 17.368 17.312 15.564 18.399 14.315H18.4ZM18.138 10.315C18.2716 10.3232 18.3971 10.3821 18.4888 10.4797C18.5805 10.5772 18.6316 10.7061 18.6316 10.84C18.6316 10.9739 18.5805 11.1027 18.4888 11.2003C18.3971 11.2978 18.2716 11.3567 18.138 11.365H16.675V12.303H18.137C18.2078 12.2999 18.2785 12.3112 18.3448 12.3361C18.4112 12.3611 18.4718 12.3992 18.5229 12.4482C18.5741 12.4973 18.6149 12.5561 18.6427 12.6213C18.6706 12.6865 18.6849 12.7566 18.6849 12.8275C18.6849 12.8984 18.6706 12.9685 18.6427 13.0337C18.6149 13.0989 18.5741 13.1577 18.5229 13.2067C18.4718 13.2557 18.4112 13.2939 18.3448 13.3188C18.2785 13.3438 18.2078 13.3551 18.137 13.352H16.15C16.0115 13.3509 15.8791 13.2953 15.7813 13.1972C15.6836 13.0991 15.6285 12.9665 15.628 12.828V8.85199C15.628 8.56499 15.863 8.32699 16.153 8.32699H18.141C18.2802 8.32739 18.4136 8.38308 18.5118 8.48182C18.61 8.58056 18.6649 8.71425 18.6645 8.85349C18.6641 8.99273 18.6084 9.12611 18.5097 9.22428C18.4109 9.32246 18.2772 9.37739 18.138 9.37699H16.676V10.315H18.138ZM14.925 12.828C14.9247 12.8968 14.9109 12.9649 14.8843 13.0284C14.8578 13.0918 14.819 13.1495 14.7701 13.1979C14.7213 13.2464 14.6634 13.2848 14.5997 13.3109C14.536 13.337 14.4678 13.3503 14.399 13.35C14.3167 13.3518 14.2351 13.3339 14.1612 13.2977C14.0872 13.2615 14.0231 13.2081 13.974 13.142L11.938 10.378V12.828C11.928 12.96 11.8685 13.0833 11.7714 13.1733C11.6744 13.2633 11.5469 13.3133 11.4145 13.3133C11.2821 13.3133 11.1546 13.2633 11.0576 13.1733C10.9605 13.0833 10.901 12.96 10.891 12.828V8.85199C10.8907 8.71372 10.9453 8.58099 11.0428 8.48294C11.1403 8.38489 11.2727 8.32952 11.411 8.32899C11.573 8.32899 11.723 8.41499 11.823 8.53999L13.875 11.315V8.85199C13.875 8.56499 14.11 8.32699 14.4 8.32699C14.687 8.32699 14.925 8.56499 14.925 8.85199V12.828ZM10.141 12.828C10.1402 12.9671 10.0845 13.1002 9.98594 13.1983C9.88741 13.2965 9.75408 13.3517 9.615 13.352C9.47636 13.3512 9.34364 13.2957 9.2457 13.1976C9.14776 13.0995 9.09253 12.9666 9.092 12.828V8.85199C9.092 8.56499 9.328 8.32699 9.617 8.32699C9.906 8.32699 10.141 8.56499 10.141 8.85199V12.828ZM8.086 13.352H6.097C5.95818 13.3512 5.82525 13.2958 5.72699 13.1977C5.62873 13.0996 5.57305 12.9668 5.572 12.828V8.85199C5.58347 8.72066 5.64375 8.5984 5.74094 8.50934C5.83813 8.42027 5.96517 8.37086 6.097 8.37086C6.22883 8.37086 6.35587 8.42027 6.45306 8.50934C6.55025 8.5984 6.61053 8.72066 6.622 8.85199V12.302H8.086C8.22524 12.302 8.35878 12.3573 8.45723 12.4558C8.55569 12.5542 8.611 12.6878 8.611 12.827C8.611 12.9662 8.55569 13.0998 8.45723 13.1982C8.35878 13.2967 8.22524 13.352 8.086 13.352Z" fill="#001018"/>
</svg>
