<svg width="16" height="16" viewBox="0 0 16 16" fill="none" xmlns="http://www.w3.org/2000/svg">
<path d="M12.4419 6.84534C12.4417 6.93823 12.4047 7.02725 12.339 7.09287C12.2732 7.15849 12.1841 7.19534 12.0913 7.19534H11.1166V7.82068H12.0913C12.1385 7.81862 12.1856 7.82613 12.2298 7.84277C12.274 7.85942 12.3144 7.88484 12.3486 7.91751C12.3827 7.95019 12.4098 7.98943 12.4284 8.03288C12.447 8.07634 12.4565 8.1231 12.4565 8.17034C12.4565 8.21759 12.447 8.26435 12.4284 8.3078C12.4098 8.35125 12.3827 8.3905 12.3486 8.42317C12.3144 8.45584 12.274 8.48127 12.2298 8.49791C12.1856 8.51455 12.1385 8.52207 12.0913 8.52001H10.7666C10.6743 8.51931 10.586 8.48224 10.5208 8.41684C10.4557 8.35144 10.4189 8.26299 10.4186 8.17068V5.52001C10.4186 5.32868 10.5753 5.17001 10.7686 5.17001H12.0939C12.1867 5.17027 12.2757 5.2074 12.3411 5.27323C12.4066 5.33906 12.4432 5.42818 12.4429 5.52101C12.4427 5.61384 12.4055 5.70275 12.3397 5.7682C12.2739 5.83365 12.1847 5.87028 12.0919 5.87001H11.1173V6.49534H12.0919C12.2859 6.49534 12.4426 6.65334 12.4426 6.84534H12.4419ZM9.70992 8.50201C9.67413 8.51332 9.63679 8.51895 9.59925 8.51868C9.54438 8.51989 9.49002 8.50794 9.44072 8.48381C9.39142 8.45968 9.34862 8.42409 9.31592 8.38001L7.95858 6.53734V8.17068C7.95192 8.25867 7.91226 8.3409 7.84754 8.4009C7.78283 8.4609 7.69783 8.49424 7.60959 8.49424C7.52134 8.49424 7.43634 8.4609 7.37163 8.4009C7.30691 8.3409 7.26725 8.25867 7.26058 8.17068V5.52001C7.26041 5.42783 7.29681 5.33934 7.3618 5.27398C7.4268 5.20861 7.51507 5.1717 7.60725 5.17134C7.71525 5.17134 7.81525 5.22868 7.88192 5.31201L9.24992 7.16201V5.52001C9.24992 5.32868 9.40658 5.17001 9.59992 5.17001C9.79125 5.17001 9.94992 5.32868 9.94992 5.52001V8.17068C9.94982 8.24412 9.92658 8.31567 9.8835 8.37515C9.84041 8.43463 9.77967 8.47902 9.70992 8.50201ZM6.40992 8.52001C6.31749 8.51948 6.22901 8.48249 6.16372 8.41707C6.09843 8.35165 6.0616 8.2631 6.06125 8.17068V5.52001C6.06125 5.32868 6.21858 5.17001 6.41125 5.17001C6.60392 5.17001 6.76058 5.32868 6.76058 5.52001V8.17068C6.76006 8.26339 6.7229 8.35214 6.65721 8.41758C6.59153 8.48302 6.50264 8.51984 6.40992 8.52001ZM5.38992 8.52001H4.06525C3.9727 8.51949 3.88408 8.48254 3.81858 8.41715C3.75307 8.35177 3.71595 8.26322 3.71525 8.17068V5.52001C3.7229 5.43246 3.76309 5.35095 3.82788 5.29157C3.89267 5.23219 3.97737 5.19926 4.06525 5.19926C4.15314 5.19926 4.23783 5.23219 4.30262 5.29157C4.36742 5.35095 4.4076 5.43246 4.41525 5.52001V7.82001H5.39125C5.48408 7.82001 5.5731 7.85688 5.63874 7.92252C5.70438 7.98816 5.74125 8.07718 5.74125 8.17001C5.74125 8.26284 5.70438 8.35186 5.63874 8.4175C5.5731 8.48313 5.48408 8.52001 5.39125 8.52001H5.38992ZM7.99992 1.33334C4.32459 1.33334 1.33325 3.76201 1.33325 6.74534C1.33325 9.41868 3.70525 11.658 6.90859 12.0833C7.12525 12.1287 7.42125 12.2267 7.49592 12.4113C7.56259 12.578 7.53992 12.8367 7.51725 13.0113L7.42592 13.578C7.40125 13.7447 7.29258 14.2367 8.00858 13.936C8.72592 13.6367 11.8513 11.6707 13.2513 10.0613C14.2086 9.01134 14.6666 7.93668 14.6666 6.74534C14.6666 3.76201 11.6746 1.33334 7.99992 1.33334Z" fill="#001018"/>
</svg>
