<svg width="16" height="16" viewBox="0 0 16 16" fill="none" xmlns="http://www.w3.org/2000/svg">
<path d="M12.2427 10.3573L11.3 9.41334L12.2427 8.47067C12.5545 8.16164 12.8021 7.79407 12.9714 7.38907C13.1407 6.98407 13.2284 6.54962 13.2294 6.11065C13.2303 5.67168 13.1446 5.23685 12.977 4.83111C12.8095 4.42538 12.5635 4.05673 12.2531 3.74633C11.9427 3.43593 11.574 3.1899 11.1683 3.02236C10.7625 2.85482 10.3277 2.76907 9.88874 2.77003C9.44977 2.77099 9.01532 2.85864 8.61032 3.02796C8.20532 3.19728 7.83775 3.44492 7.52872 3.75667L6.58605 4.70001L5.64271 3.75734L6.58672 2.81467C7.46193 1.93946 8.64897 1.44777 9.88671 1.44777C11.1245 1.44777 12.3115 1.93946 13.1867 2.81467C14.0619 3.68989 14.5536 4.87693 14.5536 6.11467C14.5536 7.35241 14.0619 8.53946 13.1867 9.41467L12.2434 10.3573H12.2427ZM10.3574 12.2427L9.41405 13.1853C8.53883 14.0606 7.35179 14.5522 6.11405 14.5522C4.87631 14.5522 3.68926 14.0606 2.81405 13.1853C1.93883 12.3101 1.44714 11.1231 1.44714 9.88534C1.44714 8.6476 1.93883 7.46056 2.81405 6.58534L3.75738 5.64267L4.70005 6.58667L3.75738 7.52934C3.44563 7.83838 3.19798 8.20594 3.02867 8.61094C2.85935 9.01594 2.7717 9.4504 2.77073 9.88936C2.76977 10.3283 2.85552 10.7632 3.02307 11.1689C3.19061 11.5746 3.43664 11.9433 3.74704 12.2537C4.05743 12.5641 4.42608 12.8101 4.83182 12.9777C5.23756 13.1452 5.67239 13.231 6.11136 13.23C6.55032 13.229 6.98478 13.1414 7.38978 12.9721C7.79478 12.8027 8.16235 12.5551 8.47138 12.2433L9.41405 11.3007L10.3574 12.2433V12.2427ZM9.88538 5.17134L10.8287 6.11467L6.11472 10.828L5.17138 9.88534L9.88538 5.17201V5.17134Z" fill="#001018"/>
</svg>
