<svg width="24" height="24" viewBox="0 0 24 24" fill="none" xmlns="http://www.w3.org/2000/svg">
<path d="M18.364 15.536L16.95 14.12L18.364 12.706C18.8316 12.2425 19.2031 11.6911 19.4571 11.0836C19.7111 10.4761 19.8425 9.82442 19.844 9.16597C19.8454 8.50752 19.7168 7.85527 19.4655 7.24666C19.2142 6.63806 18.8451 6.08508 18.3795 5.61949C17.9139 5.15389 17.361 4.78484 16.7524 4.53353C16.1437 4.28222 15.4915 4.15359 14.833 4.15503C14.1746 4.15647 13.5229 4.28796 12.9154 4.54193C12.3079 4.79591 11.7566 5.16737 11.293 5.635L9.87901 7.05L8.46401 5.636L9.88001 4.222C11.1928 2.90918 12.9734 2.17165 14.83 2.17165C16.6866 2.17165 18.4672 2.90918 19.78 4.222C21.0928 5.53483 21.8304 7.31539 21.8304 9.172C21.8304 11.0286 21.0928 12.8092 19.78 14.122L18.365 15.536H18.364ZM15.536 18.364L14.121 19.778C12.8082 21.0908 11.0276 21.8284 9.17101 21.8284C7.3144 21.8284 5.53383 21.0908 4.22101 19.778C2.90819 18.4652 2.17065 16.6846 2.17065 14.828C2.17065 12.9714 2.90819 11.1908 4.22101 9.878L5.63601 8.464L7.05001 9.88L5.63601 11.294C5.16838 11.7576 4.79692 12.3089 4.54294 12.9164C4.28896 13.5239 4.15748 14.1756 4.15604 14.834C4.1546 15.4925 4.28323 16.1447 4.53454 16.7533C4.78585 17.362 5.1549 17.9149 5.62049 18.3805C6.08609 18.8461 6.63906 19.2152 7.24767 19.4665C7.85628 19.7178 8.50853 19.8464 9.16698 19.845C9.82543 19.8435 10.4771 19.7121 11.0846 19.4581C11.6921 19.2041 12.2435 18.8326 12.707 18.365L14.121 16.951L15.536 18.365V18.364ZM14.828 7.757L16.243 9.172L9.17201 16.242L7.75701 14.828L14.828 7.758V7.757Z" fill="#001018"/>
</svg>
