<svg width="16" height="16" fill="none" xmlns="http://www.w3.org/2000/svg"><path d="M1.333 12H6v1.333H1.333V12zm0-4.667h6v1.334h-6V7.333zm0-4.666h13.334V4H1.333V2.667zm12.45 6.016.77-.26.667 1.154-.61.537c.076.364.076.74 0 1.105l.61.537-.667 1.155-.77-.261a2.656 2.656 0 0 1-.957.553l-.16.797h-1.333l-.16-.797a2.665 2.665 0 0 1-.956-.554l-.77.262-.667-1.155.61-.537a2.678 2.678 0 0 1 0-1.105l-.61-.537.667-1.154.77.26c.274-.246.599-.436.957-.553l.16-.797h1.333l.16.798c.357.116.682.306.956.553zM12 11.333A.667.667 0 1 0 12 10a.667.667 0 0 0 0 1.333z" fill="#001018"/></svg>