<svg width="16" height="16" viewBox="0 0 16 16" xmlns="http://www.w3.org/2000/svg"><path fill-rule="evenodd" clip-rule="evenodd" d="M4 5.33331V5.99998H2.66667C2.29848 5.99998 2 6.29846 2 6.66665V14.6666C2 15.0348 2.29848 15.3333 2.66667 15.3333H13.3333C13.7015 15.3333 14 15.0348 14 14.6666V6.66665C14 6.29846 13.7015 5.99998 13.3333 5.99998H12V5.33331C12 3.12417 10.2091 1.33331 8 1.33331C5.79086 1.33331 4 3.12417 4 5.33331ZM3.33333 14V7.33331H12.6667V14H3.33333ZM7.33335 11.1546C6.81073 10.8529 6.55593 10.2377 6.71212 9.65484C6.86831 9.07193 7.39655 8.6666 8.00002 8.6666C8.6035 8.6666 9.13173 9.07193 9.28792 9.65484C9.44411 10.2377 9.18931 10.8529 8.66669 11.1546V12.6666H7.33335V11.1546ZM10.6667 5.33331V5.99998H5.33333V5.33331C5.33333 3.86055 6.52724 2.66665 8 2.66665C9.47276 2.66665 10.6667 3.86055 10.6667 5.33331Z"/></svg>