<svg width="16" height="16" viewBox="0 0 16 16" fill="none" xmlns="http://www.w3.org/2000/svg">
<path d="M12 5.99668H13.3333C13.5101 5.99668 13.6797 6.06692 13.8047 6.19195C13.9298 6.31697 14 6.48654 14 6.66335V14.6634C14 14.8402 13.9298 15.0097 13.8047 15.1348C13.6797 15.2598 13.5101 15.33 13.3333 15.33H2.66667C2.48986 15.33 2.32029 15.2598 2.19526 15.1348C2.07024 15.0097 2 14.8402 2 14.6634V6.66335C2 6.48654 2.07024 6.31697 2.19526 6.19195C2.32029 6.06692 2.48986 5.99668 2.66667 5.99668H4V5.33002C4 4.26915 4.42143 3.25174 5.17157 2.50159C5.92172 1.75144 6.93913 1.33002 8 1.33002C9.06087 1.33002 10.0783 1.75144 10.8284 2.50159C11.5786 3.25174 12 4.26915 12 5.33002V5.99668ZM7.33333 11.1514V12.6634H8.66667V11.1514C8.92086 11.0046 9.11952 10.7781 9.23184 10.5069C9.34416 10.2357 9.36387 9.93507 9.2879 9.65156C9.21193 9.36805 9.04454 9.11752 8.81168 8.93885C8.57882 8.76017 8.29351 8.66332 8 8.66332C7.70649 8.66332 7.42118 8.76017 7.18832 8.93885C6.95546 9.11752 6.78807 9.36805 6.7121 9.65156C6.63613 9.93507 6.65584 10.2357 6.76816 10.5069C6.88048 10.7781 7.07914 11.0046 7.33333 11.1514V11.1514ZM10.6667 5.99668V5.33002C10.6667 4.62277 10.3857 3.9445 9.88562 3.4444C9.38552 2.9443 8.70724 2.66335 8 2.66335C7.29276 2.66335 6.61448 2.9443 6.11438 3.4444C5.61428 3.9445 5.33333 4.62277 5.33333 5.33002V5.99668H10.6667Z" fill="#001018"/>
</svg>
