<svg width="24" height="24" viewBox="0 0 24 24" fill="none" xmlns="http://www.w3.org/2000/svg">
<path fill-rule="evenodd" clip-rule="evenodd" d="M6 8V9H4C3.44772 9 3 9.44772 3 10V22C3 22.5523 3.44772 23 4 23H20C20.5523 23 21 22.5523 21 22V10C21 9.44772 20.5523 9 20 9H18V8C18 4.68629 15.3137 2 12 2C8.68629 2 6 4.68629 6 8ZM5 21V11H19V21H5ZM11 16.732C10.2161 16.2794 9.83386 15.3567 10.0681 14.4823C10.3024 13.6079 11.0948 12.9999 12 12.9999C12.9052 12.9999 13.6976 13.6079 13.9319 14.4823C14.1661 15.3567 13.7839 16.2794 13 16.732V19H11V16.732ZM16 8V9H8V8C8 5.79086 9.79086 4 12 4C14.2091 4 16 5.79086 16 8Z" fill="#001018"/>
</svg>
