<svg width="24" height="24" viewBox="0 0 24 24" fill="none" xmlns="http://www.w3.org/2000/svg">
<path d="M18 9H20C20.2652 9 20.5196 9.10536 20.7071 9.29289C20.8946 9.48043 21 9.73478 21 10V22C21 22.2652 20.8946 22.5196 20.7071 22.7071C20.5196 22.8946 20.2652 23 20 23H4C3.73478 23 3.48043 22.8946 3.29289 22.7071C3.10536 22.5196 3 22.2652 3 22V10C3 9.73478 3.10536 9.48043 3.29289 9.29289C3.48043 9.10536 3.73478 9 4 9H6V8C6 6.4087 6.63214 4.88258 7.75736 3.75736C8.88258 2.63214 10.4087 2 12 2C13.5913 2 15.1174 2.63214 16.2426 3.75736C17.3679 4.88258 18 6.4087 18 8V9ZM11 16.732V19H13V16.732C13.3813 16.5119 13.6793 16.1721 13.8478 15.7653C14.0162 15.3586 14.0458 14.9076 13.9319 14.4823C13.8179 14.057 13.5668 13.6813 13.2175 13.4132C12.8682 13.1452 12.4403 12.9999 12 12.9999C11.5597 12.9999 11.1318 13.1452 10.7825 13.4132C10.4332 13.6813 10.1821 14.057 10.0681 14.4823C9.9542 14.9076 9.98376 15.3586 10.1522 15.7653C10.3207 16.1721 10.6187 16.5119 11 16.732ZM16 9V8C16 6.93913 15.5786 5.92172 14.8284 5.17157C14.0783 4.42143 13.0609 4 12 4C10.9391 4 9.92172 4.42143 9.17157 5.17157C8.42143 5.92172 8 6.93913 8 8V9H16Z" fill="#001018"/>
</svg>
