<svg width="16" height="16" viewBox="0 0 16 16" fill="none" xmlns="http://www.w3.org/2000/svg">
<g clip-path="url(#clip0_8440_1575)">
<path d="M3.33317 14.6666C3.15636 14.6666 2.98679 14.5964 2.86177 14.4714C2.73674 14.3464 2.6665 14.1768 2.6665 14V1.99998C2.6665 1.82317 2.73674 1.6536 2.86177 1.52858C2.98679 1.40355 3.15636 1.33331 3.33317 1.33331H12.6665C12.8433 1.33331 13.0129 1.40355 13.1379 1.52858C13.2629 1.6536 13.3332 1.82317 13.3332 1.99998V14C13.3332 14.1768 13.2629 14.3464 13.1379 14.4714C13.0129 14.5964 12.8433 14.6666 12.6665 14.6666H3.33317ZM9.99984 10.6666L13.3332 7.99998L9.99984 5.33331V7.33331H5.99984V8.66665H9.99984V10.6666Z" fill="#001018"/>
</g>
<defs>
<clipPath id="clip0_8440_1575">
<rect width="16" height="16" fill="white"/>
</clipPath>
</defs>
</svg>
