<svg width="200" height="50" fill="none" xmlns="http://www.w3.org/2000/svg"><path d="M0 50h200V0H0v50z" fill="#0082C3"/><path d="M63.815 38.251c-.516 0-1.045-.026-1.571-.077a13.863 13.863 0 0 1-8.046-3.657 12.944 12.944 0 0 1-3.987-9.683 14.047 14.047 0 0 1 2.846-7.963 12.433 12.433 0 0 1 4.181-3.525 14.83 14.83 0 0 1 6.558-1.568h.31a13.74 13.74 0 0 1 10.42 4.9l.06.077-3.361 5.386-.224-.266-.157-.174-.306-.322-.25-.247c-1.163-1.118-3.543-2.995-6.417-2.995h-.133a6.833 6.833 0 0 0-6.715 6.819c0 3.1 1.864 6.741 7.116 6.822h.077c3.054 0 5.05-2.243 5.967-3.58l.2-.3c.111-.173.369-.6.791-1.3l8.501-14.311h6.878v25.39h-6.33v-3.809l-5.043-.022h-.673l-.184.008-.032.006-.136.15-.162.167-.229.222-.192.177-.222.2-.25.21a14.71 14.71 0 0 1-9.285 3.265zm16.538-15.445-3.393 5.75h3.393v-5.75zm71.416 15.433a12.89 12.89 0 0 1-9.571-3.934v3.389h-14.21V12.291h6.538V32.08h5.908a13.547 13.547 0 0 1-2.008-7.349 12.719 12.719 0 0 1 1.012-5.01 12.926 12.926 0 0 1 2.925-4.227 13.087 13.087 0 0 1 9.444-3.738c3.462 0 6.786 1.353 9.264 3.77a13.064 13.064 0 0 1 3.4 5.408v-8.648h5.942l9.878 14.11v-14.11h6.587v25.408h-5.787l-10.033-14.155v14.155h-6.583v-8.709a12.781 12.781 0 0 1-3.147 5.266 13.217 13.217 0 0 1-9.559 3.988zm.074-20.162a6.942 6.942 0 0 0-4.893 1.961 6.611 6.611 0 0 0-2 4.763 7.162 7.162 0 0 0 2.068 5.064 6.749 6.749 0 0 0 4.749 2.044 6.6 6.6 0 0 0 4.773-1.992 7.256 7.256 0 0 0 1.98-5.116 6.709 6.709 0 0 0-6.677-6.723v-.001zm-39.205 19.618h-6.57V12.284h6.57v9.648h6.766v-9.648h6.575v25.409h-6.575v-9.721h-6.766v9.723zm-13.032 0h-6.568V18.35h-5.112v-6.074h16.786v6.074h-5.1v19.343l-.006.002zm-77.483 0H12.038V12.287h9.188c4.214 0 7.21.5 10.05 3.035a11.708 11.708 0 0 1 3.738 7.2V12.287h14.624v5.589l-8.046.009v4.151l6.967-.006v5.464l-6.967.007v4.605h8.046v5.571H35.013V27.548a11.958 11.958 0 0 1-3.708 7c-2.867 2.645-5.44 3.146-9.179 3.146l-.003.001zM18.615 17.75v14.364h2.641c2.553 0 4.382-.566 5.592-1.73 1.21-1.164 1.818-2.97 1.818-5.48 0-4.613-2.642-7.154-7.44-7.154h-2.611z" fill="#FEFEFE"/></svg>