<svg width="16" height="16" viewBox="0 0 16 16" fill="none" xmlns="http://www.w3.org/2000/svg">
<g clip-path="url(#clip0_8440_1572)">
<path d="M3.33329 14.6666C3.15648 14.6666 2.98691 14.5964 2.86189 14.4714C2.73686 14.3464 2.66663 14.1768 2.66663 14V1.99998C2.66663 1.82317 2.73686 1.6536 2.86189 1.52858C2.98691 1.40355 3.15648 1.33331 3.33329 1.33331H12.6666C12.8434 1.33331 13.013 1.40355 13.138 1.52858C13.2631 1.6536 13.3333 1.82317 13.3333 1.99998V3.99998H12V2.66665H3.99996V13.3333H12V12H13.3333V14C13.3333 14.1768 13.2631 14.3464 13.138 14.4714C13.013 14.5964 12.8434 14.6666 12.6666 14.6666H3.33329ZM12 10.6666V8.66665H7.33329V7.33331H12V5.33331L15.3333 7.99998L12 10.6666Z" fill="#001018"/>
</g>
<defs>
<clipPath id="clip0_8440_1572">
<rect width="16" height="16" fill="white"/>
</clipPath>
</defs>
</svg>
