<svg width="24" height="24" xmlns="http://www.w3.org/2000/svg"><path fill-rule="evenodd" clip-rule="evenodd" d="M4.5 19.5h3.688a.75.75 0 0 1 0 1.5H3.75a.75.75 0 0 1-.75-.75v-18a.75.75 0 0 1 .75-.75H16.5a.75.75 0 0 1 .75.75V7.5a.75.75 0 0 1-1.5 0V3H4.5v16.5zM6 6a.75.75 0 0 1 0-1.5h8.25a.75.75 0 0 1 0 1.5H6zm0 2.25a.75.75 0 0 1 0-1.5h5.25a.75.75 0 0 1 0 1.5H6zm0 2.25A.75.75 0 0 1 6 9h6.75a.75.75 0 0 1 0 1.5H6zm8.77.712a4.5 4.5 0 0 1 4.825-1.008.75.75 0 0 1 .257 1.229l-1.9 1.9 1.06 1.06 1.9-1.9a.75.75 0 0 1 1.23.257 4.5 4.5 0 0 1-5.356 5.991l-3.608 3.608a.75.75 0 0 1-1.06 0l-2.122-2.122a.75.75 0 0 1 0-1.06l3.608-3.608a4.5 4.5 0 0 1 1.165-4.347zm1.06 1.06a3 3 0 0 0-.672 3.219.75.75 0 0 1-.168.804l-3.403 3.402 1.061 1.06 3.403-3.402a.75.75 0 0 1 .804-.168 3 3 0 0 0 4.09-2.606l-1.403 1.404a.75.75 0 0 1-1.06 0l-2.122-2.121a.75.75 0 0 1 0-1.061l1.404-1.404a2.996 2.996 0 0 0-1.934.874z"/></svg>