<svg width="16" height="16" viewBox="0 0 16 16" fill="none" xmlns="http://www.w3.org/2000/svg">
<path fill-rule="evenodd" clip-rule="evenodd" d="M12.2427 10.9093L8 15.1519L3.75733 10.9093C1.41421 8.56612 1.41422 4.76714 3.75737 2.42401C6.10051 0.080873 9.89949 0.080873 12.2426 2.42401C14.5858 4.76714 14.5858 8.56612 12.2427 10.9093ZM8 9.33329C9.47276 9.33329 10.6667 8.13938 10.6667 6.66662C10.6667 5.19386 9.47276 3.99995 8 3.99995C6.52724 3.99995 5.33333 5.19386 5.33333 6.66662C5.33333 8.13938 6.52724 9.33329 8 9.33329ZM6.66667 6.66662C6.66667 7.403 7.26362 7.99995 8 7.99995C8.73638 7.99995 9.33333 7.403 9.33333 6.66662C9.33333 5.93024 8.73638 5.33329 8 5.33329C7.26362 5.33329 6.66667 5.93024 6.66667 6.66662Z" fill="#001018"/>
</svg>
