<svg width="16" height="16" viewBox="0 0 16 16" fill="none" xmlns="http://www.w3.org/2000/svg">
<path fill-rule="evenodd" clip-rule="evenodd" d="M3.75733 10.9093L8 15.1519L12.2427 10.9093C14.5858 8.56612 14.5858 4.76715 12.2426 2.42401C9.89949 0.0808806 6.10051 0.0808806 3.75737 2.42401C1.41422 4.76715 1.41421 8.56612 3.75733 10.9093ZM11.3 9.96659L8 13.2666L4.7 9.96659C2.87769 8.1441 2.87779 5.18941 4.70022 3.36704C6.52266 1.54467 9.47734 1.54467 11.2998 3.36704C13.1222 5.18941 13.1223 8.1441 11.3 9.96659ZM8 7.99996C8.73638 7.99996 9.33333 7.40301 9.33333 6.66663C9.33333 5.93025 8.73638 5.33329 8 5.33329C7.26362 5.33329 6.66667 5.93025 6.66667 6.66663C6.66667 7.40301 7.26362 7.99996 8 7.99996ZM5.33333 6.66663C5.33333 8.13939 6.52724 9.33329 8 9.33329C9.47276 9.33329 10.6667 8.13939 10.6667 6.66663C10.6667 5.19387 9.47276 3.99996 8 3.99996C6.52724 3.99996 5.33333 5.19387 5.33333 6.66663Z" fill="#001018"/>
</svg>
