<svg width="16" height="16" viewBox="0 0 16 16" fill="none" xmlns="http://www.w3.org/2000/svg">
<path fill-rule="evenodd" clip-rule="evenodd" d="M1.81451 11.1377C3.34323 12.9502 5.95566 13.3972 8 12.196C10.0443 13.3972 12.6568 12.9502 14.1855 11.1377C15.7142 9.3252 15.7142 6.6748 14.1855 4.86231C12.6568 3.04982 10.0443 2.60285 8 3.804C5.95566 2.60285 3.34323 3.04982 1.81451 4.86231C0.285789 6.6748 0.285789 9.3252 1.81451 11.1377ZM13.2729 10.1447C12.3057 11.411 10.6107 11.8732 9.13462 11.2733C9.92062 10.4093 10.4 9.26 10.4 8C10.4017 6.78917 9.95032 5.62151 9.13462 4.72667C10.6107 4.12676 12.3057 4.58904 13.2729 5.85529C14.2401 7.12155 14.2401 8.87846 13.2729 10.1447ZM6.86537 4.72667C5.38925 4.12676 3.69425 4.58904 2.72709 5.85529C1.75993 7.12155 1.75993 8.87846 2.72709 10.1447C3.69425 11.411 5.38925 11.8732 6.86537 11.2733C6.04967 10.3785 5.5983 9.21083 5.60003 8C5.60003 6.74 6.07937 5.59067 6.86537 4.72667ZM6.93337 8C6.9321 7.04711 7.31693 6.13436 8.00003 5.47C8.68314 6.13436 9.06796 7.04711 9.0667 8C9.06796 8.9529 8.68314 9.86565 8.00003 10.53C7.34203 9.888 6.93337 8.992 6.93337 8Z" fill="#001018"/>
</svg>
