<svg width="16" height="16" viewBox="0 0 16 16" fill="none" xmlns="http://www.w3.org/2000/svg">
<path fill-rule="evenodd" clip-rule="evenodd" d="M7.42 4.048C6.26364 5.03506 5.59837 6.47964 5.6 8C5.59843 9.51967 6.26316 10.9636 7.41867 11.9507C5.51259 13.0207 3.11434 12.5777 1.71632 10.8973C0.318292 9.21694 0.318909 6.77812 1.71778 5.09847C3.11666 3.41882 5.51446 2.97702 7.42 4.048ZM7.99995 4.436C9.09366 5.2945 9.73185 6.60825 9.73061 7.99866C9.73144 9.3886 9.09329 10.7018 7.99995 11.56C6.90642 10.7016 6.26824 9.38817 6.26928 7.998C6.26824 6.60782 6.90642 5.29436 7.99995 4.436ZM10.4 8C10.4016 9.51967 9.73685 10.9636 8.58134 11.9507C10.4874 13.0207 12.8863 12.5777 14.2844 10.8973C15.6824 9.21694 15.6818 6.77812 14.2829 5.09847C12.884 3.41882 10.4855 2.97702 8.58001 4.048C9.73637 5.03506 10.4016 6.47964 10.4 8Z" fill="#001018"/>
</svg>
