<svg width="24" height="24" viewBox="0 0 24 24" fill="none" xmlns="http://www.w3.org/2000/svg">
<path fill-rule="evenodd" clip-rule="evenodd" d="M11.13 6.07201C9.39546 7.55261 8.39756 9.71947 8.4 12C8.39765 14.2795 9.39473 16.4455 11.128 17.926C8.26888 19.531 4.67151 18.8665 2.57447 16.346C0.477438 13.8254 0.478364 10.1672 2.57668 7.64772C4.67499 5.12825 8.27269 4.46555 11.131 6.07201H11.13ZM12 6.65401C13.6406 7.94177 14.5979 9.91239 14.596 11.998C14.5972 14.0829 13.64 16.0527 12 17.34C10.3597 16.0525 9.40245 14.0823 9.404 11.997C9.40245 9.91174 10.3597 7.94155 12 6.65401ZM15.6 12C15.6024 14.2795 14.6053 16.4455 12.872 17.926H12.873C15.7321 19.531 19.3295 18.8665 21.4265 16.346C23.5236 13.8254 23.5226 10.1672 21.4243 7.64772C19.326 5.12825 15.7283 4.46555 12.87 6.07201C14.6046 7.55261 15.6024 9.71947 15.6 12Z" fill="#001018"/>
</svg>
