<svg width="16" height="16" viewBox="0 0 16 16" fill="none" xmlns="http://www.w3.org/2000/svg">
<path fill-rule="evenodd" clip-rule="evenodd" d="M7.41996 4.04803C6.26359 5.03509 5.59833 6.47967 5.59996 8.00003C5.59838 9.5197 6.26311 10.9637 7.41862 11.9507C5.51254 13.0207 3.1143 12.5777 1.71627 10.8973C0.318246 9.21697 0.318863 6.77815 1.71774 5.0985C3.11661 3.41885 5.51508 2.97705 7.42062 4.04803H7.41996ZM7.9999 4.43603C9.09361 5.29453 9.73181 6.60828 9.73057 7.99869C9.7314 9.38863 9.09324 10.7018 7.9999 11.56C6.90637 10.7017 6.2682 9.3882 6.26923 7.99803C6.2682 6.60785 6.90637 5.29439 7.9999 4.43603ZM10.4 8.00003C10.4015 9.5197 9.73681 10.9637 8.58129 11.9507H8.58196C10.488 13.0207 12.8863 12.5777 14.2843 10.8973C15.6823 9.21697 15.6817 6.77815 14.2828 5.0985C12.884 3.41885 10.4855 2.97705 8.57996 4.04803C9.73633 5.03509 10.4016 6.47967 10.4 8.00003Z" fill="#001018"/>
</svg>
