<svg width="24" height="24" viewBox="0 0 24 24" fill="none" xmlns="http://www.w3.org/2000/svg">
<path d="M12 18.294C10.8911 18.9455 9.62977 19.2925 8.34366 19.2999C7.05755 19.3072 5.79232 18.9747 4.67606 18.3359C3.55979 17.697 2.63212 16.7746 1.98693 15.662C1.34174 14.5494 1.00195 13.2861 1.00195 12C1.00195 10.7139 1.34174 9.45058 1.98693 8.33798C2.63212 7.22538 3.55979 6.30299 4.67606 5.66417C5.79232 5.02535 7.05755 4.69278 8.34366 4.70013C9.62977 4.70748 10.8911 5.05448 12 5.70601C13.1089 5.05448 14.3702 4.70748 15.6563 4.70013C16.9425 4.69278 18.2077 5.02535 19.3239 5.66417C20.4402 6.30299 21.3679 7.22538 22.0131 8.33798C22.6583 9.45058 22.9981 10.7139 22.9981 12C22.9981 13.2861 22.6583 14.5494 22.0131 15.662C21.3679 16.7746 20.4402 17.697 19.3239 18.3359C18.2077 18.9747 16.9425 19.3072 15.6563 19.2999C14.3702 19.2925 13.1089 18.9455 12 18.294ZM13.702 16.91C14.5067 17.237 15.3794 17.3613 16.2434 17.2718C17.1074 17.1824 17.9361 16.8819 18.6567 16.3969C19.3773 15.912 19.9676 15.2573 20.3758 14.4906C20.784 13.7239 20.9975 12.8686 20.9975 12C20.9975 11.1314 20.784 10.2761 20.3758 9.50942C19.9676 8.7427 19.3773 8.08806 18.6567 7.60308C17.9361 7.11811 17.1074 6.81767 16.2434 6.7282C15.3794 6.63874 14.5067 6.76298 13.702 7.09001C14.9255 8.43228 15.6026 10.1838 15.6 12C15.6 13.89 14.881 15.614 13.702 16.91ZM10.298 7.09001C9.49332 6.76298 8.6206 6.63874 7.75662 6.7282C6.89265 6.81767 6.0639 7.11811 5.34331 7.60308C4.62271 8.08806 4.03236 8.7427 3.62418 9.50942C3.21601 10.2761 3.00253 11.1314 3.00253 12C3.00253 12.8686 3.21601 13.7239 3.62418 14.4906C4.03236 15.2573 4.62271 15.912 5.34331 16.3969C6.0639 16.8819 6.89265 17.1824 7.75662 17.2718C8.6206 17.3613 9.49332 17.237 10.298 16.91C9.07446 15.5677 8.3974 13.8163 8.4 12C8.4 10.11 9.119 8.38601 10.298 7.09001ZM12 8.20501C11.4928 8.69825 11.0899 9.28832 10.815 9.94021C10.5402 10.5921 10.3991 11.2926 10.4 12C10.4 13.488 11.013 14.832 12 15.795C12.5072 15.3018 12.9101 14.7117 13.185 14.0598C13.4598 13.4079 13.6009 12.7075 13.6 12C13.6009 11.2926 13.4598 10.5921 13.185 9.94021C12.9101 9.28832 12.5072 8.69825 12 8.20501Z" fill="#001018"/>
</svg>
