<svg width="16" height="16" viewBox="0 0 16 16" xmlns="http://www.w3.org/2000/svg"><path d="M8 12.196C7.26074 12.6304 6.41985 12.8617 5.56244 12.8666C4.70503 12.8715 3.86155 12.6498 3.11737 12.2239C2.3732 11.798 1.75474 11.1831 1.32462 10.4414C0.894496 9.69962 0.667969 8.85742 0.667969 8C0.667969 7.14258 0.894496 6.30037 1.32462 5.55864C1.75474 4.81691 2.3732 4.20198 3.11737 3.7761C3.86155 3.35022 4.70503 3.12851 5.56244 3.13341C6.41985 3.13831 7.26074 3.36964 8 3.804C8.73926 3.36964 9.58016 3.13831 10.4376 3.13341C11.295 3.12851 12.1385 3.35022 12.8826 3.7761C13.6268 4.20198 14.2453 4.81691 14.6754 5.55864C15.1055 6.30037 15.332 7.14258 15.332 8C15.332 8.85742 15.1055 9.69962 14.6754 10.4414C14.2453 11.1831 13.6268 11.798 12.8826 12.2239C12.1385 12.6498 11.295 12.8715 10.4376 12.8666C9.58016 12.8617 8.73926 12.6304 8 12.196ZM9.13467 11.2733C9.67112 11.4914 10.2529 11.5742 10.8289 11.5145C11.4049 11.4549 11.9574 11.2546 12.4378 10.9313C12.9182 10.608 13.3118 10.1715 13.5839 9.66039C13.856 9.14925 13.9983 8.57906 13.9983 8C13.9983 7.42093 13.856 6.85075 13.5839 6.3396C13.3118 5.82846 12.9182 5.39203 12.4378 5.06871C11.9574 4.74539 11.4049 4.5451 10.8289 4.48546C10.2529 4.42581 9.67112 4.50865 9.13467 4.72666C9.95037 5.62151 10.4017 6.78917 10.4 8C10.4 9.26 9.92067 10.4093 9.13467 11.2733ZM6.86533 4.72666C6.32888 4.50865 5.74707 4.42581 5.17108 4.48546C4.5951 4.5451 4.0426 4.74539 3.56221 5.06871C3.08181 5.39203 2.68824 5.82846 2.41612 6.3396C2.14401 6.85075 2.00169 7.42093 2.00169 8C2.00169 8.57906 2.14401 9.14925 2.41612 9.66039C2.68824 10.1715 3.08181 10.608 3.56221 10.9313C4.0426 11.2546 4.5951 11.4549 5.17108 11.5145C5.74707 11.5742 6.32888 11.4914 6.86533 11.2733C6.04964 10.3785 5.59827 9.21083 5.6 8C5.6 6.74 6.07934 5.59066 6.86533 4.72666ZM8 5.47C7.66189 5.79883 7.39326 6.1922 7.21003 6.6268C7.0268 7.06139 6.93271 7.52836 6.93333 8C6.93333 8.992 7.342 9.888 8 10.53C8.33811 10.2012 8.60675 9.8078 8.78997 9.3732C8.9732 8.9386 9.06729 8.47164 9.06667 8C9.06729 7.52836 8.9732 7.06139 8.78997 6.6268C8.60675 6.1922 8.33811 5.79883 8 5.47Z"/></svg>