<svg width="16" height="16" fill="none" xmlns="http://www.w3.org/2000/svg"><path fill-rule="evenodd" clip-rule="evenodd" d="M8 1.333c3.756 0 6.667 2.752 6.667 6.467S11.756 14.267 8 14.267a7.268 7.268 0 0 1-1.93-.256.533.533 0 0 0-.356.026l-1.323.584a.533.533 0 0 1-.748-.472l-.037-1.186a.531.531 0 0 0-.179-.38C2.13 11.423 1.333 9.745 1.333 7.8c0-3.715 2.912-6.467 6.667-6.467zM5.176 12.817a1.863 1.863 0 0 1 1.245-.093c.514.14 1.044.21 1.579.21 3.057 0 5.333-2.192 5.333-5.134S11.057 2.667 8 2.667c-3.057 0-5.333 2.191-5.333 5.133 0 1.513.597 2.848 1.644 3.784.384.34.611.824.628 1.337l.237-.104zm.779-6.232L3.997 9.69c-.188.299.178.634.459.422l2.103-1.597a.4.4 0 0 1 .482 0L8.6 9.683a1 1 0 0 0 1.446-.267l1.958-3.107c.188-.298-.178-.634-.46-.422L9.442 7.485a.4.4 0 0 1-.482 0L7.4 6.318a1 1 0 0 0-1.446.267z" fill="#001018"/></svg>