<svg width="24" height="24" viewBox="0 0 24 24" fill="none" xmlns="http://www.w3.org/2000/svg">
<path fill-rule="evenodd" clip-rule="evenodd" d="M22 11.7C22 6.127 17.634 2 12 2C6.367 2 2 6.127 2 11.7C2 14.617 3.195 17.135 5.141 18.874C5.30481 19.0191 5.40172 19.2253 5.409 19.444L5.464 21.224C5.47223 21.49 5.61219 21.7345 5.8374 21.8763C6.06261 22.0181 6.34359 22.0386 6.587 21.931L8.571 21.055C8.73924 20.9811 8.9278 20.9673 9.105 21.016C10.0484 21.2733 11.0221 21.4025 12 21.4C17.634 21.4 22 17.273 22 11.7ZM6.684 15.168C6.263 15.488 5.713 14.984 5.995 14.537L8.932 9.877C9.15542 9.5226 9.51687 9.27778 9.92887 9.2018C10.3409 9.12582 10.7659 9.22561 11.101 9.477L13.438 11.227C13.6519 11.3885 13.9471 11.3885 14.161 11.227L17.316 8.831C17.737 8.512 18.287 9.016 18.005 9.464L15.068 14.124C14.8446 14.4784 14.4831 14.7232 14.0711 14.7992C13.6591 14.8752 13.2341 14.7754 12.899 14.524L10.562 12.774C10.3481 12.6125 10.0529 12.6125 9.839 12.774L6.684 15.168Z" fill="#001018"/>
</svg>
