<svg width="16" height="16" viewBox="0 0 16 16" fill="none" xmlns="http://www.w3.org/2000/svg">
<path d="M4.30337 12.6667L1.33337 15V2.66667C1.33337 2.48986 1.40361 2.32029 1.52864 2.19526C1.65366 2.07024 1.82323 2 2.00004 2H14C14.1769 2 14.3464 2.07024 14.4714 2.19526C14.5965 2.32029 14.6667 2.48986 14.6667 2.66667V12C14.6667 12.1768 14.5965 12.3464 14.4714 12.4714C14.3464 12.5964 14.1769 12.6667 14 12.6667H4.30337ZM4.66671 6.66667V8H6.00004V6.66667H4.66671ZM7.33337 6.66667V8H8.66671V6.66667H7.33337ZM10 6.66667V8H11.3334V6.66667H10Z" fill="#001018"/>
</svg>
