<svg width="16" height="16" xmlns="http://www.w3.org/2000/svg"><path fill-rule="evenodd" clip-rule="evenodd" d="M14.667 7.8c0-3.715-2.911-6.467-6.667-6.467-3.755 0-6.667 2.752-6.667 6.467 0 1.945.797 3.623 2.094 4.783.11.096.174.234.179.38l.037 1.186a.533.533 0 0 0 .748.472l1.323-.584a.533.533 0 0 1 .356-.026 7.264 7.264 0 0 0 1.93.256c3.756 0 6.667-2.752 6.667-6.467zM4.456 10.112c-.28.213-.647-.123-.46-.42l1.959-3.107A1 1 0 0 1 7.4 6.318l1.558 1.167a.4.4 0 0 0 .482 0l2.103-1.598c.28-.212.647.124.46.422l-1.959 3.107a1 1 0 0 1-1.446.267L7.041 8.516a.4.4 0 0 0-.482 0l-2.103 1.596z"/></svg>