<svg width="16" height="16" viewBox="0 0 16 16" xmlns="http://www.w3.org/2000/svg"><path d="M7.99995 0.666687C8.43769 0.666687 8.87115 0.752906 9.27557 0.920422C9.67998 1.08794 10.0474 1.33347 10.357 1.643C10.6665 1.95253 10.912 2.31999 11.0796 2.72441C11.2471 3.12883 11.3333 3.56228 11.3333 4.00002V6.66669C11.3333 7.55074 10.9821 8.39859 10.357 9.02371C9.73185 9.64883 8.88401 10 7.99995 10C7.1159 10 6.26805 9.64883 5.64293 9.02371C5.01781 8.39859 4.66662 7.55074 4.66662 6.66669V4.00002C4.66662 3.11597 5.01781 2.26812 5.64293 1.643C6.26805 1.01788 7.1159 0.666687 7.99995 0.666687ZM2.03662 7.33335H3.37995C3.54148 8.44321 4.0972 9.45781 4.94544 10.1915C5.79368 10.9253 6.87774 11.3291 7.99929 11.3291C9.12083 11.3291 10.2049 10.9253 11.0531 10.1915C11.9014 9.45781 12.4571 8.44321 12.6186 7.33335H13.9626C13.811 8.68583 13.2044 9.94665 12.2421 10.909C11.2798 11.8714 10.0191 12.4783 8.66662 12.63V15.3334H7.33329V12.63C5.98071 12.4784 4.71981 11.8716 3.7574 10.9092C2.795 9.94683 2.18823 8.68593 2.03662 7.33335Z"/></svg>