<svg width="16" height="16" viewBox="0 0 16 16" fill="none" xmlns="http://www.w3.org/2000/svg">
<path d="M8.00008 2.00002C7.46964 2.00002 6.96094 2.21073 6.58586 2.58581C6.21079 2.96088 6.00008 3.46959 6.00008 4.00002V6.66669C6.00008 7.19712 6.21079 7.70583 6.58586 8.0809C6.96094 8.45597 7.46964 8.66669 8.00008 8.66669C8.53051 8.66669 9.03922 8.45597 9.41429 8.0809C9.78936 7.70583 10.0001 7.19712 10.0001 6.66669V4.00002C10.0001 3.46959 9.78936 2.96088 9.41429 2.58581C9.03922 2.21073 8.53051 2.00002 8.00008 2.00002ZM8.00008 0.666687C8.43782 0.666687 8.87127 0.752906 9.27569 0.920422C9.68011 1.08794 10.0476 1.33347 10.3571 1.643C10.6666 1.95253 10.9122 2.31999 11.0797 2.72441C11.2472 3.12883 11.3334 3.56228 11.3334 4.00002V6.66669C11.3334 7.55074 10.9822 8.39859 10.3571 9.02371C9.73198 9.64883 8.88413 10 8.00008 10C7.11602 10 6.26817 9.64883 5.64305 9.02371C5.01793 8.39859 4.66674 7.55074 4.66674 6.66669V4.00002C4.66674 3.11597 5.01793 2.26812 5.64305 1.643C6.26817 1.01788 7.11602 0.666687 8.00008 0.666687ZM2.03674 7.33335H3.38008C3.5416 8.44321 4.09732 9.45781 4.94556 10.1915C5.79381 10.9253 6.87786 11.3291 7.99941 11.3291C9.12096 11.3291 10.205 10.9253 11.0533 10.1915C11.9015 9.45781 12.4572 8.44321 12.6187 7.33335H13.9627C13.8112 8.68583 13.2045 9.94665 12.2422 10.909C11.2799 11.8714 10.0192 12.4783 8.66674 12.63V15.3334H7.33341V12.63C5.98083 12.4784 4.71993 11.8716 3.75753 10.9092C2.79512 9.94683 2.18835 8.68593 2.03674 7.33335Z" fill="#001018"/>
</svg>
