<svg width="24" height="24" viewBox="0 0 24 24" fill="none" xmlns="http://www.w3.org/2000/svg">
<path fill-rule="evenodd" clip-rule="evenodd" d="M3 3H21C21.5523 3 22 3.44772 22 4V20C22 20.5523 21.5523 21 21 21H3C2.44772 21 2 20.5523 2 20V4C2 3.44772 2.44772 3 3 3ZM4 5V19H20V5H4ZM8 13H9V15H8V17H16V15H11V13H14V11H11V10C10.998 9.33396 11.4357 8.74646 12.0745 8.55784C12.7133 8.36921 13.3999 8.6247 13.76 9.185L15.746 8.689C15.1191 7.13434 13.4778 6.24249 11.8323 6.56228C10.1868 6.88206 8.99904 8.32369 9 10V11H8V13Z" fill="#001018"/>
</svg>
