<svg viewBox="0 0 24 24" xmlns="http://www.w3.org/2000/svg"><path fill-rule="evenodd" clip-rule="evenodd" d="M21 3H3C2.44772 3 2 3.44772 2 4V20C2 20.5523 2.44772 21 3 21H21C21.5523 21 22 20.5523 22 20V4C22 3.44772 21.5523 3 21 3ZM8.5 16V14H14C14.2761 14 14.5 13.7761 14.5 13.5C14.5 13.2239 14.2761 13 14 13H10C8.61929 13 7.5 11.8807 7.5 10.5C7.5 9.11929 8.61929 8 10 8H11V6H13V8H15.5V10H10C9.72386 10 9.5 10.2239 9.5 10.5C9.5 10.7761 9.72386 11 10 11H14C15.3807 11 16.5 12.1193 16.5 13.5C16.5 14.8807 15.3807 16 14 16H13V18H11V16H8.5Z"/></svg>