<svg viewBox="0 0 24 24" xmlns="http://www.w3.org/2000/svg"><path fill-rule="evenodd" clip-rule="evenodd" d="M21 3H3C2.44772 3 2 3.44772 2 4V20C2 20.5523 2.44772 21 3 21H21C21.5523 21 22 20.5523 22 20V4C22 3.44772 21.5523 3 21 3ZM11.6803 9.13706C10.8459 9.42652 10.2262 10.1347 10.05 11L15 11.001V13.001L10.05 13C10.2265 13.8652 10.8463 14.573 11.6806 14.8623C12.5149 15.1515 13.4398 14.9792 14.114 14.409L15.815 15.543C14.6222 16.8431 12.7796 17.3261 11.1024 16.7784C9.4252 16.2308 8.22276 14.7535 8.027 13H7V11H8.028C8.2241 9.24698 9.42634 7.77019 11.1031 7.22259C12.78 6.675 14.6221 7.1576 15.815 8.457L14.114 9.59C13.4397 9.01977 12.5146 8.84759 11.6803 9.13706Z"/></svg>