<svg width="16" height="16" viewBox="0 0 16 16" xmlns="http://www.w3.org/2000/svg"><path fill-rule="evenodd" clip-rule="evenodd" d="M1.99998 2H14C14.3682 2 14.6666 2.29848 14.6666 2.66667V13.3333C14.6666 13.7015 14.3682 14 14 14H1.99998C1.63179 14 1.33331 13.7015 1.33331 13.3333V2.66667C1.33331 2.29848 1.63179 2 1.99998 2ZM2.66665 3.33333V12.6667H13.3333V3.33333H2.66665ZM5.33331 8.66667H5.99998V10H5.33331V11.3333H10.6666V10H7.33331V8.66667H9.33331V7.33333H7.33331V6.66667C7.33197 6.22264 7.62378 5.83098 8.04963 5.70523C8.47548 5.57948 8.93324 5.7498 9.17331 6.12333L10.4973 5.79267C10.0794 4.75623 8.9852 4.16166 7.88819 4.37485C6.79117 4.58804 5.99934 5.54913 5.99998 6.66667V7.33333H5.33331V8.66667Z"/></svg>