<svg width="24" height="24" viewBox="0 0 24 24" fill="none" xmlns="http://www.w3.org/2000/svg">
<path fill-rule="evenodd" clip-rule="evenodd" d="M3 3H21C21.5523 3 22 3.44772 22 4V20C22 20.5523 21.5523 21 21 21H3C2.44772 21 2 20.5523 2 20V4C2 3.44772 2.44772 3 3 3ZM4 5V19H20V5H4ZM14 14H8.5V16H11V18H13V16H14C15.3807 16 16.5 14.8807 16.5 13.5C16.5 12.1193 15.3807 11 14 11H10C9.72386 11 9.5 10.7761 9.5 10.5C9.5 10.2239 9.72386 10 10 10H15.5V8H13V6H11V8H10C8.61929 8 7.5 9.11929 7.5 10.5C7.5 11.8807 8.61929 13 10 13H14C14.2761 13 14.5 13.2239 14.5 13.5C14.5 13.7761 14.2761 14 14 14Z" fill="#001018"/>
</svg>
