<svg width="16" height="16" viewBox="0 0 16 16" fill="none" xmlns="http://www.w3.org/2000/svg">
<path fill-rule="evenodd" clip-rule="evenodd" d="M14 2H1.99999C1.63181 2 1.33333 2.29848 1.33333 2.66667V13.3333C1.33333 13.7015 1.63181 14 1.99999 14H14C14.3682 14 14.6667 13.7015 14.6667 13.3333V2.66667C14.6667 2.29848 14.3682 2 14 2ZM8.66666 8V8.66666H10.6667V10H8.66666V11.3333H7.33333V10H5.33333V8.66666H7.33333V8H5.33333V6.66667H7.05733L5.64266 5.25333L6.58599 4.30933L8 5.724L9.41399 4.30933L10.3573 5.25267L8.94266 6.66667H10.6667V8H8.66666Z" fill="#001018"/>
</svg>
