<svg width="16" height="16" viewBox="0 0 16 16" fill="none" xmlns="http://www.w3.org/2000/svg">
<path fill-rule="evenodd" clip-rule="evenodd" d="M1.99998 2H14C14.3682 2 14.6666 2.29848 14.6666 2.66667V13.3333C14.6666 13.7015 14.3682 14 14 14H1.99998C1.63179 14 1.33331 13.7015 1.33331 13.3333V2.66667C1.33331 2.29848 1.63179 2 1.99998 2ZM2.66665 3.33333V12.6667H13.3333V3.33333H2.66665ZM10.6666 8.66666H8.66665V8H10.6666V6.66667H8.94265L10.3573 5.25267L9.41398 4.30933L7.99998 5.724L6.58665 4.30933L5.64265 5.25267L7.05731 6.66667H5.33331V8H7.33331V8.66666H5.33331V10H7.33331V11.3333H8.66665V10H10.6666V8.66666Z" fill="#001018"/>
</svg>
