<svg width="16" height="16" viewBox="0 0 16 16" fill="none" xmlns="http://www.w3.org/2000/svg">
<path fill-rule="evenodd" clip-rule="evenodd" d="M1.99999 2H14C14.3682 2 14.6667 2.29848 14.6667 2.66667V13.3333C14.6667 13.7015 14.3682 14 14 14H1.99999C1.63181 14 1.33333 13.7015 1.33333 13.3333V2.66667C1.33333 2.29848 1.63181 2 1.99999 2ZM2.66666 3.33333V12.6667H13.3333V3.33333H2.66666ZM5.33333 8.66667H5.99999V10H5.33333V11.3333H10.6667V10H7.33333V8.66667H9.33333V7.33333H7.33333V6.66667C7.33199 6.22264 7.62379 5.83098 8.04965 5.70523C8.4755 5.57948 8.93325 5.7498 9.17333 6.12333L10.4973 5.79267C10.0794 4.75623 8.98522 4.16166 7.8882 4.37485C6.79118 4.58804 5.99936 5.54913 5.99999 6.66667V7.33333H5.33333V8.66667Z" fill="#001018"/>
</svg>
