<svg width="16" height="16" viewBox="0 0 16 16" fill="none" xmlns="http://www.w3.org/2000/svg">
<path fill-rule="evenodd" clip-rule="evenodd" d="M1.99998 2H14C14.3682 2 14.6666 2.29848 14.6666 2.66667V13.3333C14.6666 13.7015 14.3682 14 14 14H1.99998C1.63179 14 1.33331 13.7015 1.33331 13.3333V2.66667C1.33331 2.29848 1.63179 2 1.99998 2ZM2.66665 3.33333V12.6667H13.3333V3.33333H2.66665ZM9.33331 9.33333H5.66665V10.6667H7.33331V12H8.66665V10.6667H9.33331C10.2538 10.6667 11 9.92048 11 9C11 8.07953 10.2538 7.33333 9.33331 7.33333H6.66665C6.48255 7.33333 6.33331 7.18409 6.33331 7C6.33331 6.81591 6.48255 6.66667 6.66665 6.66667H10.3333V5.33333H8.66665V4H7.33331V5.33333H6.66665C5.74617 5.33333 4.99998 6.07953 4.99998 7C4.99998 7.92047 5.74617 8.66667 6.66665 8.66667H9.33331C9.51741 8.66667 9.66665 8.81591 9.66665 9C9.66665 9.18409 9.51741 9.33333 9.33331 9.33333Z" fill="#001018"/>
</svg>
