<svg width="16" height="16" viewBox="0 0 16 16" fill="none" xmlns="http://www.w3.org/2000/svg">
<path fill-rule="evenodd" clip-rule="evenodd" d="M14 2H2.00004C1.63185 2 1.33337 2.29848 1.33337 2.66667V13.3333C1.33337 13.7015 1.63185 14 2.00004 14H14C14.3682 14 14.6667 13.7015 14.6667 13.3333V2.66667C14.6667 2.29848 14.3682 2 14 2ZM8.66671 8V8.66666H10.6667V10H8.66671V11.3333H7.33337V10H5.33337V8.66666H7.33337V8H5.33337V6.66667H7.05737L5.64271 5.25333L6.58604 4.30933L8.00004 5.724L9.41404 4.30933L10.3574 5.25267L8.94271 6.66667H10.6667V8H8.66671Z" fill="#001018"/>
</svg>
