<svg width="16" height="16" viewBox="0 0 16 16" xmlns="http://www.w3.org/2000/svg"><path d="M7.58659 1.34595C7.09534 1.80369 6.70133 2.3557 6.42805 2.96903C6.15477 3.58236 6.00782 4.24444 5.99598 4.9158C5.98413 5.58715 6.10763 6.25401 6.3591 6.8766C6.61057 7.49919 6.98487 8.06474 7.45966 8.53954C7.93445 9.01433 8.50001 9.38862 9.1226 9.6401C9.74519 9.89157 10.4121 10.0151 11.0834 10.0032C11.7548 9.99138 12.4168 9.84443 13.0302 9.57115C13.6435 9.29787 14.1955 8.90386 14.6533 8.41261C14.4413 11.9026 11.5439 14.6666 8.00059 14.6666C4.31792 14.6666 1.33325 11.6819 1.33325 7.99995C1.33325 4.45661 4.09725 1.55928 7.58659 1.34595Z"/></svg>