<svg width="16" height="16" viewBox="0 0 16 16" xmlns="http://www.w3.org/2000/svg"><path d="M6.66671 4.66671C6.66657 5.5938 6.94258 6.49993 7.45953 7.26952C7.97647 8.03911 8.71093 8.63728 9.56923 8.98775C10.4275 9.33822 11.3708 9.42511 12.2786 9.23732C13.1865 9.04953 14.0179 8.59558 14.6667 7.93337V8.00004C14.6667 11.682 11.682 14.6667 8.00004 14.6667C4.31804 14.6667 1.33337 11.682 1.33337 8.00004C1.33337 4.31804 4.31804 1.33337 8.00004 1.33337H8.06671C7.62273 1.76746 7.27013 2.28602 7.02969 2.8585C6.78925 3.43097 6.66583 4.04579 6.66671 4.66671ZM2.66671 8.00004C2.66622 9.19003 3.06373 10.346 3.79597 11.284C4.52821 12.222 5.55313 12.8882 6.70765 13.1766C7.86217 13.465 9.07996 13.3589 10.1673 12.8754C11.2546 12.3918 12.1489 11.5585 12.708 10.508C11.713 10.7425 10.6746 10.7188 9.69126 10.4392C8.70795 10.1596 7.81238 9.63343 7.08951 8.91057C6.36665 8.18771 5.84047 7.29213 5.56089 6.30883C5.28132 5.32552 5.25762 4.28708 5.49204 3.29204C4.63843 3.7468 3.92456 4.42515 3.42688 5.25447C2.92919 6.08379 2.66643 7.03285 2.66671 8.00004Z"/></svg>