<svg width="16" height="16" viewBox="0 0 16 16" fill="none" xmlns="http://www.w3.org/2000/svg">
<path d="M5.77997 3.33804C6.21751 2.41246 6.94728 1.65645 7.85683 1.18649C8.76637 0.71654 9.80523 0.558728 10.8133 0.737374C10.6415 1.26396 10.6188 1.82784 10.7477 2.36653C10.8767 2.90523 11.1523 3.3977 11.544 3.78937C11.9356 4.18105 12.4281 4.45664 12.9668 4.58561C13.5055 4.71457 14.0694 4.69188 14.596 4.52004C14.6426 4.78404 14.6666 5.05604 14.6666 5.33337C14.6678 6.11965 14.4694 6.89336 14.09 7.58204C14.6489 8.07445 15.0446 8.72542 15.2245 9.44831C15.4043 10.1712 15.3596 10.9317 15.0965 11.6286C14.8334 12.3255 14.3642 12.9257 13.7515 13.3493C13.1388 13.773 12.4116 14 11.6666 14H5.99997C4.60507 13.9992 3.26599 13.452 2.26979 12.4756C1.2736 11.4992 0.69959 10.1713 0.670814 8.77673C0.642038 7.38212 1.16079 6.03174 2.11585 5.01507C3.07092 3.99841 4.38629 3.39638 5.77997 3.33804ZM7.23131 3.47604C8.07147 3.67624 8.85059 4.0771 9.50194 4.64428C10.1533 5.21145 10.6575 5.92805 10.9713 6.73271C11.6317 6.60615 12.3141 6.66263 12.9446 6.89604C13.0953 6.61271 13.2066 6.30604 13.27 5.98271C12.2618 5.88979 11.318 5.4469 10.6022 4.73089C9.88645 4.01487 9.44388 3.07089 9.35131 2.06271C8.48545 2.2347 7.72309 2.74294 7.23131 3.47604ZM11.6666 12.6667C12.0513 12.6667 12.43 12.5715 12.7691 12.3897C13.1081 12.2079 13.3969 11.9451 13.6098 11.6246C13.8227 11.3042 13.953 10.9361 13.9893 10.5532C14.0255 10.1702 13.9665 9.78418 13.8175 9.42952C13.6685 9.07487 13.4341 8.76255 13.1352 8.52039C12.8363 8.27822 12.4821 8.11371 12.1043 8.04151C11.7264 7.96931 11.3366 7.99164 10.9694 8.10654C10.6023 8.22143 10.2693 8.42532 9.99997 8.70004V8.66671C9.99997 7.87558 9.76538 7.10222 9.32585 6.44443C8.88632 5.78663 8.26161 5.27394 7.53071 4.97119C6.7998 4.66844 5.99554 4.58923 5.21961 4.74357C4.44369 4.89791 3.73096 5.27887 3.17155 5.83828C2.61214 6.39769 2.23117 7.11042 2.07683 7.88635C1.92249 8.66227 2.0017 9.46654 2.30445 10.1974C2.6072 10.9283 3.11989 11.5531 3.77769 11.9926C4.43549 12.4321 5.20885 12.6667 5.99997 12.6667H11.6666Z" fill="#001018"/>
</svg>
