<svg width="24" height="24" viewBox="0 0 24 24" fill="none" xmlns="http://www.w3.org/2000/svg">
<path d="M8.67008 5.00706C9.32639 3.61869 10.421 2.48467 11.7854 1.77974C13.1497 1.07481 14.708 0.838091 16.2201 1.10606C15.9623 1.89594 15.9283 2.74176 16.1217 3.5498C16.3152 4.35784 16.7286 5.09654 17.3161 5.68406C17.9036 6.27157 18.6423 6.68496 19.4503 6.87841C20.2584 7.07186 21.1042 7.03782 21.8941 6.78006C21.9641 7.17606 22.0001 7.58406 22.0001 8.00006C22.0018 9.17948 21.7042 10.34 21.1351 11.3731C21.9735 12.1117 22.5671 13.0881 22.8368 14.1725C23.1065 15.2568 23.0396 16.3976 22.6449 17.4429C22.2502 18.4882 21.5464 19.3886 20.6274 20.024C19.7083 20.6595 18.6175 20.9999 17.5001 21.0001H9.00008C6.90772 20.9989 4.8991 20.178 3.40481 18.7134C1.91052 17.2488 1.04951 15.257 1.00634 13.1651C0.963179 11.0732 1.7413 9.04761 3.1739 7.52261C4.6065 5.99761 6.57955 5.09456 8.67008 5.00706ZM10.8471 5.21406C12.1073 5.51436 13.276 6.11565 14.253 6.96641C15.2301 7.81718 15.9863 8.89208 16.4571 10.0991C17.4476 9.90922 18.4712 9.99395 19.4171 10.3441C19.6431 9.91906 19.8101 9.45906 19.9051 8.97406C18.3928 8.83468 16.9771 8.17035 15.9035 7.09633C14.8298 6.02231 14.1659 4.60634 14.0271 3.09406C12.7283 3.35205 11.5848 4.11441 10.8471 5.21406Z" fill="#001018"/>
</svg>
