<svg width="16" height="16" viewBox="0 0 16 16" fill="none" xmlns="http://www.w3.org/2000/svg">
<path d="M5.77997 3.33804C6.21751 2.41246 6.94728 1.65645 7.85683 1.18649C8.76638 0.71654 9.80523 0.558728 10.8133 0.737374C10.6415 1.26396 10.6188 1.82784 10.7477 2.36653C10.8767 2.90523 11.1523 3.3977 11.544 3.78937C11.9357 4.18105 12.4281 4.45664 12.9668 4.58561C13.5055 4.71457 14.0694 4.69188 14.596 4.52004C14.6426 4.78404 14.6666 5.05604 14.6666 5.33337C14.6678 6.11965 14.4694 6.89336 14.09 7.58204C14.6489 8.07445 15.0446 8.72542 15.2245 9.44831C15.4043 10.1712 15.3596 10.9317 15.0965 11.6286C14.8334 12.3255 14.3642 12.9257 13.7515 13.3493C13.1388 13.773 12.4116 14 11.6666 14H5.99997C4.60507 13.9992 3.26599 13.452 2.26979 12.4756C1.2736 11.4992 0.69959 10.1713 0.670814 8.77673C0.642038 7.38212 1.16079 6.03174 2.11585 5.01507C3.07092 3.99841 4.38629 3.39638 5.77997 3.33804V3.33804ZM7.23131 3.47604C8.07147 3.67624 8.85059 4.0771 9.50194 4.64428C10.1533 5.21145 10.6575 5.92805 10.9713 6.73271C11.6317 6.60615 12.3141 6.66263 12.9446 6.89604C13.0953 6.61271 13.2066 6.30604 13.27 5.98271C12.2618 5.88979 11.318 5.4469 10.6022 4.73089C9.88645 4.01487 9.44389 3.07089 9.35131 2.06271C8.48545 2.2347 7.72309 2.74294 7.23131 3.47604V3.47604Z" fill="#001018"/>
</svg>
