<svg width="24" height="24" viewBox="0 0 24 24" fill="none" xmlns="http://www.w3.org/2000/svg">
<path d="M10 7C9.9998 8.39064 10.4138 9.74983 11.1892 10.9042C11.9646 12.0586 13.0663 12.9559 14.3538 13.4816C15.6412 14.0073 17.0561 14.1376 18.4179 13.8559C19.7797 13.5742 21.0268 12.8933 22 11.9V12C22 17.523 17.523 22 12 22C6.477 22 2 17.523 2 12C2 6.477 6.477 2 12 2H12.1C11.434 2.65113 10.9051 3.42896 10.5445 4.28768C10.1838 5.1464 9.99869 6.06862 10 7ZM4 12C3.99927 13.785 4.59553 15.5189 5.69389 16.926C6.79226 18.333 8.32963 19.3323 10.0614 19.7648C11.7932 20.1974 13.6199 20.0383 15.2508 19.313C16.8818 18.5876 18.2233 17.3377 19.062 15.762C17.5694 16.1136 16.0118 16.0781 14.5368 15.6587C13.0619 15.2394 11.7185 14.4501 10.6342 13.3658C9.54992 12.2815 8.76065 10.9381 8.34128 9.46318C7.92192 7.98821 7.88636 6.43056 8.238 4.938C6.95758 5.62014 5.88678 6.63766 5.14026 7.88164C4.39373 9.12562 3.99958 10.5492 4 12Z" fill="#001018"/>
</svg>
