<svg width="16" height="16" viewBox="0 0 16 16" fill="none" xmlns="http://www.w3.org/2000/svg">
<path fill-rule="evenodd" clip-rule="evenodd" d="M8 2C7.26667 2 6.66667 2.6 6.66667 3.33333C6.66667 4.06667 7.26667 4.66667 8 4.66667C8.73333 4.66667 9.33333 4.06667 9.33333 3.33333C9.33333 2.6 8.73333 2 8 2ZM8 11.3333C7.26667 11.3333 6.66667 11.9333 6.66667 12.6667C6.66667 13.4 7.26667 14 8 14C8.73333 14 9.33333 13.4 9.33333 12.6667C9.33333 11.9333 8.73333 11.3333 8 11.3333ZM6.66667 8C6.66667 7.26667 7.26667 6.66667 8 6.66667C8.73333 6.66667 9.33333 7.26667 9.33333 8C9.33333 8.73333 8.73333 9.33333 8 9.33333C7.26667 9.33333 6.66667 8.73333 6.66667 8Z" fill="#001018"/>
</svg>
