<svg width="16" height="16" viewBox="0 0 16 16" xmlns="http://www.w3.org/2000/svg"><path fill-rule="evenodd" clip-rule="evenodd" d="M3.33333 6.66669C2.6 6.66669 2 7.26669 2 8.00002C2 8.73335 2.6 9.33335 3.33333 9.33335C4.06667 9.33335 4.66667 8.73335 4.66667 8.00002C4.66667 7.26669 4.06667 6.66669 3.33333 6.66669ZM12.6667 6.66669C11.9333 6.66669 11.3333 7.26669 11.3333 8.00002C11.3333 8.73335 11.9333 9.33335 12.6667 9.33335C13.4 9.33335 14 8.73335 14 8.00002C14 7.26669 13.4 6.66669 12.6667 6.66669ZM6.66667 8.00002C6.66667 7.26669 7.26667 6.66669 8 6.66669C8.73333 6.66669 9.33333 7.26669 9.33333 8.00002C9.33333 8.73335 8.73333 9.33335 8 9.33335C7.26667 9.33335 6.66667 8.73335 6.66667 8.00002Z"/></svg>