<svg width="16" height="16" viewBox="0 0 16 16" fill="none" xmlns="http://www.w3.org/2000/svg">
<path fill-rule="evenodd" clip-rule="evenodd" d="M3 7.33331C2.45 7.33331 2 7.78331 2 8.33331C2 8.88331 2.45 9.33331 3 9.33331C3.55 9.33331 4 8.88331 4 8.33331C4 7.78331 3.55 7.33331 3 7.33331ZM13 7.33331C12.45 7.33331 12 7.78331 12 8.33331C12 8.88331 12.45 9.33331 13 9.33331C13.55 9.33331 14 8.88331 14 8.33331C14 7.78331 13.55 7.33331 13 7.33331ZM7 8.33331C7 7.78331 7.45 7.33331 8 7.33331C8.55 7.33331 9 7.78331 9 8.33331C9 8.88331 8.55 9.33331 8 9.33331C7.45 9.33331 7 8.88331 7 8.33331Z" fill="#001018"/>
</svg>
