<svg width="16" height="16" viewBox="0 0 16 16" fill="none" xmlns="http://www.w3.org/2000/svg">
<path fill-rule="evenodd" clip-rule="evenodd" d="M7.99996 2C7.26663 2 6.66663 2.6 6.66663 3.33333C6.66663 4.06667 7.26663 4.66667 7.99996 4.66667C8.73329 4.66667 9.33329 4.06667 9.33329 3.33333C9.33329 2.6 8.73329 2 7.99996 2ZM7.99996 11.3333C7.26663 11.3333 6.66663 11.9333 6.66663 12.6667C6.66663 13.4 7.26663 14 7.99996 14C8.73329 14 9.33329 13.4 9.33329 12.6667C9.33329 11.9333 8.73329 11.3333 7.99996 11.3333ZM6.66663 8C6.66663 7.26667 7.26663 6.66667 7.99996 6.66667C8.73329 6.66667 9.33329 7.26667 9.33329 8C9.33329 8.73333 8.73329 9.33333 7.99996 9.33333C7.26663 9.33333 6.66663 8.73333 6.66663 8Z" fill="#001018"/>
</svg>
