<svg width="16" height="16" viewBox="0 0 16 16" fill="none" xmlns="http://www.w3.org/2000/svg">
<path fill-rule="evenodd" clip-rule="evenodd" d="M3 7.33334C2.45 7.33334 2 7.78334 2 8.33334C2 8.88334 2.45 9.33334 3 9.33334C3.55 9.33334 4 8.88334 4 8.33334C4 7.78334 3.55 7.33334 3 7.33334ZM13 7.33334C12.45 7.33334 12 7.78334 12 8.33334C12 8.88334 12.45 9.33334 13 9.33334C13.55 9.33334 14 8.88334 14 8.33334C14 7.78334 13.55 7.33334 13 7.33334ZM7 8.33334C7 7.78334 7.45 7.33334 8 7.33334C8.55 7.33334 9 7.78334 9 8.33334C9 8.88334 8.55 9.33334 8 9.33334C7.45 9.33334 7 8.88334 7 8.33334Z" fill="#001018"/>
</svg>
