<svg width="16" height="16" viewBox="0 0 16 16" fill="none" xmlns="http://www.w3.org/2000/svg">
<path fill-rule="evenodd" clip-rule="evenodd" d="M3.33333 6.66666C2.6 6.66666 2 7.26666 2 7.99999C2 8.73332 2.6 9.33332 3.33333 9.33332C4.06667 9.33332 4.66667 8.73332 4.66667 7.99999C4.66667 7.26666 4.06667 6.66666 3.33333 6.66666ZM12.6667 6.66666C11.9333 6.66666 11.3333 7.26666 11.3333 7.99999C11.3333 8.73332 11.9333 9.33332 12.6667 9.33332C13.4 9.33332 14 8.73332 14 7.99999C14 7.26666 13.4 6.66666 12.6667 6.66666ZM6.66667 7.99999C6.66667 7.26666 7.26667 6.66666 8 6.66666C8.73333 6.66666 9.33333 7.26666 9.33333 7.99999C9.33333 8.73332 8.73333 9.33332 8 9.33332C7.26667 9.33332 6.66667 8.73332 6.66667 7.99999Z" fill="#001018"/>
</svg>
