<svg width="16" height="16" viewBox="0 0 16 16" xmlns="http://www.w3.org/2000/svg"><path fill-rule="evenodd" clip-rule="evenodd" d="M8.33337 2C7.78337 2 7.33337 2.45 7.33337 3C7.33337 3.55 7.78337 4 8.33337 4C8.88337 4 9.33337 3.55 9.33337 3C9.33337 2.45 8.88337 2 8.33337 2ZM8.33337 12C7.78337 12 7.33337 12.45 7.33337 13C7.33337 13.55 7.78337 14 8.33337 14C8.88337 14 9.33337 13.55 9.33337 13C9.33337 12.45 8.88337 12 8.33337 12ZM7.33337 8C7.33337 7.45 7.78337 7 8.33337 7C8.88337 7 9.33337 7.45 9.33337 8C9.33337 8.55 8.88337 9 8.33337 9C7.78337 9 7.33337 8.55 7.33337 8Z"/></svg>