<svg width="24" height="24" viewBox="0 0 24 24" fill="none" xmlns="http://www.w3.org/2000/svg">
<path fill-rule="evenodd" clip-rule="evenodd" d="M4.5 11C3.675 11 3 11.675 3 12.5C3 13.325 3.675 14 4.5 14C5.325 14 6 13.325 6 12.5C6 11.675 5.325 11 4.5 11ZM19.5 11C18.675 11 18 11.675 18 12.5C18 13.325 18.675 14 19.5 14C20.325 14 21 13.325 21 12.5C21 11.675 20.325 11 19.5 11ZM10.5 12.5C10.5 11.675 11.175 11 12 11C12.825 11 13.5 11.675 13.5 12.5C13.5 13.325 12.825 14 12 14C11.175 14 10.5 13.325 10.5 12.5Z" fill="#001018"/>
</svg>
