<svg width="16" height="16" viewBox="0 0 16 16" fill="none" xmlns="http://www.w3.org/2000/svg">
<path fill-rule="evenodd" clip-rule="evenodd" d="M13.3333 2V11.3333C13.333 12.5402 12.5222 13.5965 11.3564 13.9087C10.1906 14.2208 8.96041 13.7111 8.35708 12.6658C7.75376 11.6205 7.92767 10.3004 8.78112 9.44701C9.63457 8.59366 10.9548 8.41989 12 9.02333V3.33333H5.99997V11.3333C5.9997 12.5402 5.18887 13.5965 4.02305 13.9087C2.85723 14.2208 1.62708 13.7111 1.02375 12.6658C0.420422 11.6205 0.594339 10.3004 1.44779 9.44701C2.30124 8.59366 3.62144 8.41989 4.66664 9.02333V2H13.3333ZM3.33333 12.6667C4.06971 12.6667 4.66667 12.0697 4.66667 11.3333C4.66667 10.597 4.06971 10 3.33333 10C2.59695 10 2 10.597 2 11.3333C2 12.0697 2.59695 12.6667 3.33333 12.6667ZM12 11.3333C12 12.0697 11.403 12.6667 10.6667 12.6667C9.93029 12.6667 9.33333 12.0697 9.33333 11.3333C9.33333 10.597 9.93029 10 10.6667 10C11.403 10 12 10.597 12 11.3333Z" fill="#001018"/>
</svg>
