<svg width="16" height="16" viewBox="0 0 16 16" fill="none" xmlns="http://www.w3.org/2000/svg">
<path d="M13.3334 2V11.3333C13.3332 11.9203 13.1394 12.4909 12.782 12.9565C12.4245 13.4221 11.9235 13.7568 11.3564 13.9087C10.7894 14.0605 10.1881 14.021 9.64586 13.7963C9.10357 13.5716 8.65058 13.1742 8.35714 12.6658C8.0637 12.1574 7.9462 11.5664 8.02287 10.9844C8.09953 10.4025 8.36608 9.86206 8.78118 9.44701C9.19627 9.03196 9.73672 8.76547 10.3187 8.68887C10.9007 8.61227 11.4917 8.72983 12 9.02333V3.33333H6.00002V11.3333C5.99989 11.9203 5.80608 12.4909 5.44865 12.9565C5.09121 13.4221 4.59013 13.7568 4.02311 13.9087C3.45608 14.0605 2.85481 14.021 2.31252 13.7963C1.77024 13.5716 1.31725 13.1742 1.02381 12.6658C0.730364 12.1574 0.612866 11.5664 0.689534 10.9844C0.766202 10.4025 1.03275 9.86206 1.44785 9.44701C1.86294 9.03196 2.40338 8.76547 2.98536 8.68887C3.56734 8.61227 4.15833 8.72983 4.66669 9.02333V2H13.3334ZM3.33336 12.6667C3.68698 12.6667 4.02612 12.5262 4.27617 12.2761C4.52622 12.0261 4.66669 11.687 4.66669 11.3333C4.66669 10.9797 4.52622 10.6406 4.27617 10.3905C4.02612 10.1405 3.68698 10 3.33336 10C2.97974 10 2.6406 10.1405 2.39055 10.3905C2.1405 10.6406 2.00002 10.9797 2.00002 11.3333C2.00002 11.687 2.1405 12.0261 2.39055 12.2761C2.6406 12.5262 2.97974 12.6667 3.33336 12.6667ZM10.6667 12.6667C11.0203 12.6667 11.3595 12.5262 11.6095 12.2761C11.8595 12.0261 12 11.687 12 11.3333C12 10.9797 11.8595 10.6406 11.6095 10.3905C11.3595 10.1405 11.0203 10 10.6667 10C10.3131 10 9.97393 10.1405 9.72388 10.3905C9.47383 10.6406 9.33336 10.9797 9.33336 11.3333C9.33336 11.687 9.47383 12.0261 9.72388 12.2761C9.97393 12.5262 10.3131 12.6667 10.6667 12.6667Z" fill="#001018"/>
</svg>
