<svg width="16" height="16" viewBox="0 0 16 16" fill="none" xmlns="http://www.w3.org/2000/svg">
<path d="M1.93332 1.53332L14.47 5.71199C14.5349 5.7335 14.5916 5.77444 14.6324 5.82926C14.6733 5.88408 14.6963 5.95013 14.6983 6.01846C14.7003 6.08679 14.6813 6.1541 14.6438 6.21125C14.6063 6.26841 14.5521 6.31265 14.4887 6.33799L8.66665 8.66666L5.71665 14.5667C5.68663 14.6267 5.63917 14.6763 5.58047 14.709C5.52177 14.7416 5.45459 14.7558 5.38771 14.7496C5.32084 14.7434 5.25739 14.7171 5.20569 14.6743C5.154 14.6314 5.11645 14.5739 5.09799 14.5093L1.50665 1.94066C1.49002 1.88227 1.48965 1.82044 1.50558 1.76186C1.52151 1.70327 1.55314 1.65015 1.59705 1.60822C1.64097 1.5663 1.6955 1.53716 1.75476 1.52396C1.81402 1.51076 1.87576 1.514 1.93332 1.53332V1.53332Z" fill="#001018"/>
</svg>
