<svg width="24" height="24" viewBox="0 0 24 24" fill="none" xmlns="http://www.w3.org/2000/svg">
<path d="M2.89998 2.29999L21.705 8.56799C21.8023 8.60025 21.8874 8.66166 21.9486 8.74389C22.0099 8.82612 22.0444 8.9252 22.0474 9.02769C22.0505 9.13019 22.022 9.23114 21.9657 9.31688C21.9095 9.40262 21.8282 9.46898 21.733 9.50699L13 13L8.57498 21.85C8.52995 21.9401 8.45875 22.0145 8.37071 22.0635C8.28266 22.1124 8.18188 22.1337 8.08157 22.1244C7.98126 22.1151 7.88609 22.0757 7.80854 22.0114C7.73099 21.9471 7.67468 21.8608 7.64698 21.764L2.25998 2.91099C2.23503 2.8234 2.23447 2.73066 2.25837 2.64278C2.28226 2.55491 2.32971 2.47522 2.39558 2.41233C2.46145 2.34945 2.54325 2.30575 2.63214 2.28595C2.72103 2.26615 2.81364 2.271 2.89998 2.29999Z" fill="#001018"/>
</svg>
