<svg width="16" height="16" viewBox="0 0 16 16" fill="none" xmlns="http://www.w3.org/2000/svg">
<path d="M3.31005 3.39732L5.67405 11.6707L7.70071 7.61732L11.4587 6.11399L3.31005 3.39732ZM1.93271 1.53332L14.47 5.71199C14.5349 5.7335 14.5916 5.77444 14.6325 5.82926C14.6733 5.88408 14.6963 5.95013 14.6984 6.01846C14.7004 6.08679 14.6814 6.1541 14.6439 6.21125C14.6064 6.26841 14.5522 6.31265 14.4887 6.33799L8.66671 8.66666L5.71671 14.5667C5.68669 14.6267 5.63923 14.6763 5.58053 14.709C5.52183 14.7416 5.45465 14.7558 5.38777 14.7496C5.3209 14.7434 5.25745 14.7171 5.20576 14.6743C5.15406 14.6314 5.11651 14.5739 5.09805 14.5093L1.50671 1.94066C1.49008 1.88227 1.48971 1.82044 1.50564 1.76186C1.52157 1.70327 1.5532 1.65015 1.59711 1.60822C1.64103 1.5663 1.69556 1.53716 1.75482 1.52396C1.81408 1.51076 1.87582 1.514 1.93338 1.53332H1.93271Z" fill="#001018"/>
</svg>
