<svg width="16" height="16" viewBox="0 0 16 16" fill="none" xmlns="http://www.w3.org/2000/svg">
<path fill-rule="evenodd" clip-rule="evenodd" d="M2.66667 2H13.3333L14.6667 4.66667V13.3333C14.6667 13.7015 14.3682 14 14 14H2C1.63181 14 1.33333 13.7015 1.33333 13.3333V4.66933L2.66667 2ZM5.33333 4.66667L6.00313 3.33333H3.49139L2.82473 4.66667H5.33333ZM6.66667 4.66667H9.33331L8.66563 3.33333H7.33646L6.66667 4.66667ZM9.99896 3.33333L10.6666 4.66667H13.1761L12.5094 3.33333H9.99896ZM6.66667 6V8.75667L8.00019 7.86859L9.33133 8.75467L9.3313 6H10.6646V11.2449L8 9.47067L5.33333 11.2442V6H6.66667Z" fill="#001018"/>
</svg>
