<svg width="16" height="16" viewBox="0 0 16 16" fill="none" xmlns="http://www.w3.org/2000/svg">
<path fill-rule="evenodd" clip-rule="evenodd" d="M1.33334 8C1.33334 11.682 4.318 14.6667 8 14.6667C11.682 14.6667 14.6667 11.682 14.6667 8C14.6667 4.318 11.682 1.33333 8 1.33333C4.318 1.33333 1.33334 4.318 1.33334 8ZM13.3333 8C13.3333 10.9455 10.9455 13.3333 8 13.3333C5.05448 13.3333 2.66667 10.9455 2.66667 8C2.66667 5.05448 5.05448 2.66667 8 2.66667C10.9455 2.66667 13.3333 5.05448 13.3333 8ZM6 6H7.33334V10H6V6ZM10 6H8.66667V10H10V6Z" fill="#001018"/>
</svg>
