<svg width="24" height="24" xmlns="http://www.w3.org/2000/svg"><path fill-rule="evenodd" clip-rule="evenodd" d="M6.194 18.877a8.96 8.96 0 0 0 5.056 2.092v-1.506a7.465 7.465 0 0 1-3.978-1.64l-1.078 1.054zm-1.062-1.06 1.076-1.052a7.466 7.466 0 0 1-1.671-4.016l-.037.001H3.03a8.96 8.96 0 0 0 2.102 5.067zm12.68 1.055-1.066-1.065a7.466 7.466 0 0 1-3.996 1.656v1.506a8.961 8.961 0 0 0 5.062-2.097zm1.06-1.06a8.96 8.96 0 0 0 2.097-5.062h-1.506a7.465 7.465 0 0 1-1.656 3.997l1.065 1.065zM6.194 5.122l1.08 1.054a7.465 7.465 0 0 1 3.976-1.639V3.031a8.96 8.96 0 0 0-5.056 2.092zm-1.062 1.06a8.96 8.96 0 0 0-2.101 5.068h1.506A7.466 7.466 0 0 1 6.21 7.234l-1.078-1.05zm9.12.255a6 6 0 1 0 3.31 3.307.75.75 0 0 1-.076.089l-4.956 4.949a.75.75 0 0 1-.53.22H9.75a.75.75 0 0 1-.75-.75V12a.75.75 0 0 1 .22-.53l5.032-5.033zM15.6 7.2a.752.752 0 0 1-.07.08l-5.03 5.03v1.191h1.19l4.736-4.73a.747.747 0 0 1 .486-.218A6.035 6.035 0 0 0 15.6 7.2zm2.213-2.072a8.96 8.96 0 0 0-5.063-2.097v1.506c1.51.15 2.888.748 4 1.658l1.063-1.067zm1.06 1.061L17.81 7.257a7.465 7.465 0 0 1 1.653 3.994l.037-.001h1.47a8.96 8.96 0 0 0-2.097-5.06zM12 22.5C6.201 22.5 1.5 17.799 1.5 12S6.201 1.5 12 1.5 22.5 6.201 22.5 12 17.799 22.5 12 22.5z"/></svg>