<svg width="16" height="16" fill="none" xmlns="http://www.w3.org/2000/svg"><path d="M6.244 7.121a7.037 7.037 0 0 0 2.635 2.635l.589-.825a.667.667 0 0 1 .863-.198 7.614 7.614 0 0 0 3.055.91.667.667 0 0 1 .614.664v2.975a.667.667 0 0 1-.599.663 10.28 10.28 0 0 1-1.068.055C6.627 14 2 9.373 2 3.667c0-.359.018-.715.055-1.068A.667.667 0 0 1 2.718 2h2.975a.667.667 0 0 1 .664.614 7.615 7.615 0 0 0 .91 3.055.667.667 0 0 1-.198.863l-.825.59zm-1.681-.438 1.266-.904a8.94 8.94 0 0 1-.731-2.446H3.34a8.999 8.999 0 0 0 9.327 9.327v-1.758a8.945 8.945 0 0 1-2.446-.731l-.904 1.266a8.29 8.29 0 0 1-1.059-.5l-.039-.022a8.37 8.37 0 0 1-3.134-3.134l-.022-.039a8.293 8.293 0 0 1-.5-1.059z" fill="#001018"/></svg>