<svg width="16" height="16" viewBox="0 0 16 16" fill="none" xmlns="http://www.w3.org/2000/svg">
<path d="M8.00004 14.6667C4.31804 14.6667 1.33337 11.682 1.33337 8C1.33337 5.01467 3.29537 2.488 6.00004 1.63867V3.05467C4.85399 3.52003 3.90524 4.36914 3.31608 5.45675C2.72692 6.54435 2.53396 7.80287 2.77021 9.01703C3.00646 10.2312 3.65723 11.3255 4.61122 12.1129C5.5652 12.9002 6.76311 13.3316 8.00004 13.3333C9.06256 13.3333 10.1009 13.016 10.9819 12.4222C11.863 11.8283 12.5467 10.9849 12.9454 10H14.3614C13.512 12.7047 10.9854 14.6667 8.00004 14.6667V14.6667ZM14.6334 8.66667H7.33337V1.36667C7.55271 1.34467 7.77537 1.33334 8.00004 1.33334C11.682 1.33334 14.6667 4.318 14.6667 8C14.6667 8.22467 14.6554 8.44734 14.6334 8.66667ZM8.66671 2.708V7.33334H13.292C13.1437 6.15841 12.6086 5.06623 11.7712 4.22883C10.9338 3.39143 9.84164 2.85639 8.66671 2.708Z" fill="#001018"/>
</svg>
