<svg width="16" height="16" viewBox="0 0 16 16" fill="none" xmlns="http://www.w3.org/2000/svg"><path d="M8 14.6666C4.318 14.6666 1.33334 11.6819 1.33334 7.99992C1.33334 5.01459 3.29534 2.48792 6 1.63859V3.05459C4.85395 3.51995 3.9052 4.36906 3.31604 5.45666C2.72688 6.54427 2.53392 7.80279 2.77017 9.01695C3.00642 10.2311 3.6572 11.3255 4.61118 12.1128C5.56516 12.9001 6.76307 13.3316 8 13.3333C9.06252 13.3332 10.1008 13.0159 10.9819 12.4221C11.863 11.8282 12.5466 10.9848 12.9453 9.99992H14.3613C13.512 12.7046 10.9853 14.6666 8 14.6666V14.6666ZM14.6333 8.66659H7.33334V1.36659C7.55267 1.34459 7.77534 1.33325 8 1.33325C11.682 1.33325 14.6667 4.31792 14.6667 7.99992C14.6667 8.22459 14.6553 8.44725 14.6333 8.66659ZM8.66667 2.70792V7.33325H13.292C13.1436 6.15832 12.6086 5.06614 11.7712 4.22874C10.9338 3.39134 9.8416 2.85631 8.66667 2.70792Z" fill="#001018"/></svg>
