<svg width="24" height="24" viewBox="0 0 24 24" fill="none" xmlns="http://www.w3.org/2000/svg">
<path fill-rule="evenodd" clip-rule="evenodd" d="M2 12C2 17.523 6.477 22 12 22C17.523 22 22 17.523 22 12C22 6.477 17.523 2 12 2C6.477 2 2 6.477 2 12ZM8.634 18.19C8.562 18.52 8.514 18.855 8.49 19.191V19.192C4.67312 17.3293 2.97712 12.8086 4.62691 8.89492C6.2767 4.98127 10.6972 3.03897 14.6957 4.47081C18.6942 5.90265 20.8769 10.2095 19.6674 14.2808C18.4579 18.3521 14.2777 20.7686 10.146 19.785C10.306 19.448 10.44 19.1 10.546 18.745C10.586 18.588 10.688 18.171 10.834 17.571L10.836 17.564L11.086 16.535C11.5772 17.1612 12.3365 17.5171 13.132 17.494C15.89 17.494 17.822 14.922 17.822 11.39C17.822 8.579 15.476 6.25 12.341 6.25C8.64 6.25 6.149 8.849 6.149 11.834C6.149 13.496 6.785 14.795 7.945 15.274C8.05672 15.3307 8.18893 15.3299 8.3 15.272C8.41479 15.2126 8.49484 15.1025 8.516 14.975C8.552 14.847 8.651 14.463 8.692 14.295C8.767 14.088 8.698 13.845 8.517 13.705C8.16111 13.2328 7.98014 12.6518 8.005 12.061C7.99025 10.9537 8.4208 9.88687 9.2 9.1C9.9635 8.32933 11.0149 7.9137 12.099 7.954C14.241 7.954 15.531 9.258 15.531 11.228C15.531 13.791 14.423 15.776 12.931 15.776C12.5415 15.7965 12.1663 15.6265 11.925 15.32C11.68 15.011 11.592 14.6 11.688 14.214C11.725 14.05 11.769 13.88 11.82 13.692C11.866 13.525 11.915 13.359 11.986 13.121C12.354 11.884 12.439 11.539 12.439 11.086C12.485 10.734 12.375 10.365 12.137 10.09C11.899 9.814 11.555 9.658 11.195 9.664C10.215 9.664 9.459 10.7 9.459 12.037C9.45202 12.5261 9.54882 13.0111 9.743 13.46C9.70266 13.5466 9.64296 13.8035 9.5658 14.1356L9.175 15.82L9.168 15.85C8.888 17.06 8.697 17.895 8.634 18.19Z" fill="#001018"/>
</svg>
