<svg width="16" height="16" fill="none" xmlns="http://www.w3.org/2000/svg"><path fill-rule="evenodd" clip-rule="evenodd" d="M1.333 8a6.667 6.667 0 1 0 13.333 0A6.667 6.667 0 0 0 1.333 8zm4.423 4.127a4.7 4.7 0 0 0-.096.667 5.333 5.333 0 0 1 4.137-9.813A5.333 5.333 0 0 1 6.764 13.19c.107-.225.196-.457.267-.693l.192-.783.001-.005.167-.686a1.67 1.67 0 0 0 1.364.64c1.838 0 3.126-1.715 3.126-4.07 0-1.874-1.564-3.426-3.654-3.426C5.76 4.167 4.1 5.899 4.1 7.889c0 1.108.424 1.974 1.198 2.294a.258.258 0 0 0 .236-.002.273.273 0 0 0 .144-.198c.024-.085.09-.341.118-.453a.351.351 0 0 0-.117-.393 1.702 1.702 0 0 1-.341-1.096c-.01-.739.277-1.45.796-1.974a2.585 2.585 0 0 1 1.933-.764c1.428 0 2.288.869 2.288 2.182 0 1.709-.739 3.032-1.733 3.032a.8.8 0 0 1-.671-.304.857.857 0 0 1-.158-.737c.025-.11.054-.223.088-.348.03-.111.063-.222.11-.38.246-.825.303-1.055.303-1.357a.855.855 0 0 0-.202-.664.812.812 0 0 0-.628-.284c-.653 0-1.157.69-1.157 1.582-.005.326.06.649.19.948-.028.058-.067.23-.119.45l-.26 1.124-.005.02a145.75 145.75 0 0 0-.356 1.56z" fill="#001018"/></svg>