<svg width="16" height="16" xmlns="http://www.w3.org/2000/svg"><path d="M8.913 1.396a6.669 6.669 0 0 0-3.578 12.717 5.17 5.17 0 0 1 .108-1.528c.124-.56.864-3.642.864-3.642a2.493 2.493 0 0 1-.216-1.052c0-.99.572-1.728 1.282-1.728a.89.89 0 0 1 .895 1.005c0 .6-.385 1.508-.587 2.36a1.03 1.03 0 0 0 1.05 1.282c1.266 0 2.114-1.62 2.114-3.534 0-1.467-.972-2.565-2.762-2.565a3.164 3.164 0 0 0-3.287 3.196c-.02.475.134.942.432 1.313a.32.32 0 0 1 .108.37c-.03.122-.108.415-.139.522a.236.236 0 0 1-.34.17C3.935 9.911 3.5 8.896 3.5 7.736c0-1.898 1.59-4.17 4.77-4.17 2.53 0 4.213 1.852 4.213 3.832 0 2.606-1.452 4.565-3.596 4.565a1.907 1.907 0 0 1-1.636-.83s-.386 1.543-.462 1.835a5.351 5.351 0 0 1-.68 1.421 6.44 6.44 0 0 0 1.898.277A6.659 6.659 0 0 0 14.671 8a6.668 6.668 0 0 0-5.756-6.602l-.002-.001z"/></svg>