<svg width="16" height="16" viewBox="0 0 16 16" fill="none" xmlns="http://www.w3.org/2000/svg">
<path fill-rule="evenodd" clip-rule="evenodd" d="M1.33333 7.99998C1.33333 11.682 4.318 14.6666 8 14.6666C11.682 14.6666 14.6667 11.682 14.6667 7.99998C14.6667 4.31798 11.682 1.33331 8 1.33331C4.318 1.33331 1.33333 4.31798 1.33333 7.99998ZM6.80776 5.59654C6.89446 5.55027 6.99958 5.55542 7.08133 5.60997H7.08067L10.334 7.77797C10.4083 7.82741 10.4529 7.91073 10.4529 7.99997C10.4529 8.0892 10.4083 8.17253 10.334 8.22197L7.08133 10.39C6.99958 10.4445 6.89446 10.4497 6.80776 10.4034C6.72107 10.3571 6.66685 10.2669 6.66667 10.1686V5.8313C6.66685 5.73303 6.72107 5.64282 6.80776 5.59654Z" fill="#001018"/>
</svg>
