<svg width="24" height="24" viewBox="0 0 24 24" fill="none" xmlns="http://www.w3.org/2000/svg">
<path fill-rule="evenodd" clip-rule="evenodd" d="M12 22C6.477 22 2 17.523 2 12C2 6.477 6.477 2 12 2C17.523 2 22 6.477 22 12C22 17.523 17.523 22 12 22ZM12 20C16.4183 20 20 16.4183 20 12C20 7.58172 16.4183 4 12 4C7.58172 4 4 7.58172 4 12C4 16.4183 7.58172 20 12 20ZM15.501 11.667L10.622 8.415C10.4994 8.33319 10.3417 8.32545 10.2116 8.39486C10.0816 8.46427 10.0003 8.59959 10 8.747V15.253C10.0005 15.4001 10.0817 15.535 10.2114 15.6043C10.3411 15.6737 10.4984 15.6663 10.621 15.585L15.501 12.333C15.6124 12.2588 15.6794 12.1339 15.6794 12C15.6794 11.8661 15.6124 11.7412 15.501 11.667Z" fill="#001018"/>
</svg>
