<svg width="16" height="16" viewBox="0 0 16 16" xmlns="http://www.w3.org/2000/svg"><path fill-rule="evenodd" clip-rule="evenodd" d="M8.00004 14.6666C4.31804 14.6666 1.33337 11.682 1.33337 7.99998C1.33337 4.31798 4.31804 1.33331 8.00004 1.33331C11.682 1.33331 14.6667 4.31798 14.6667 7.99998C14.6667 11.682 11.682 14.6666 8.00004 14.6666ZM8.00004 13.3333C10.9456 13.3333 13.3334 10.9455 13.3334 7.99998C13.3334 5.05446 10.9456 2.66665 8.00004 2.66665C5.05452 2.66665 2.66671 5.05446 2.66671 7.99998C2.66671 10.9455 5.05452 13.3333 8.00004 13.3333ZM10.334 7.77797L7.08137 5.60997C6.99962 5.55542 6.8945 5.55027 6.8078 5.59654C6.72111 5.64282 6.66689 5.73303 6.66671 5.8313V10.1686C6.66705 10.2667 6.72118 10.3566 6.80765 10.4029C6.89412 10.4491 6.99898 10.4441 7.08071 10.39L10.334 8.22197C10.4083 8.17253 10.453 8.0892 10.453 7.99997C10.453 7.91073 10.4083 7.82741 10.334 7.77797Z"/></svg>