<svg width="24" height="24" viewBox="0 0 24 24" fill="none" xmlns="http://www.w3.org/2000/svg">
<path fill-rule="evenodd" clip-rule="evenodd" d="M2 12C2 17.523 6.477 22 12 22C17.523 22 22 17.523 22 12C22 6.477 17.523 2 12 2C6.477 2 2 6.477 2 12ZM10.2116 8.39486C10.3417 8.32545 10.4994 8.33319 10.622 8.415L15.501 11.667C15.6124 11.7412 15.6794 11.8661 15.6794 12C15.6794 12.1339 15.6124 12.2588 15.501 12.333L10.622 15.585C10.4994 15.6668 10.3417 15.6746 10.2116 15.6051C10.0816 15.5357 10.0003 15.4004 10 15.253V8.747C10.0003 8.59959 10.0816 8.46427 10.2116 8.39486Z" fill="#001018"/>
</svg>
