<svg width="16" height="16" viewBox="0 0 16 16" fill="none" xmlns="http://www.w3.org/2000/svg">
<path fill-rule="evenodd" clip-rule="evenodd" d="M8 14.6667C4.318 14.6667 1.33333 11.682 1.33333 8C1.33333 4.318 4.318 1.33333 8 1.33333C11.682 1.33333 14.6667 4.318 14.6667 8C14.6667 11.682 11.682 14.6667 8 14.6667ZM8 13.3333C10.9455 13.3333 13.3333 10.9455 13.3333 8C13.3333 5.05448 10.9455 2.66667 8 2.66667C5.05448 2.66667 2.66667 5.05448 2.66667 8C2.66667 10.9455 5.05448 13.3333 8 13.3333ZM10.334 7.77799L7.08133 5.60999C6.99958 5.55545 6.89446 5.55029 6.80776 5.59656C6.72107 5.64284 6.66685 5.73305 6.66667 5.83132V10.1687C6.66701 10.2667 6.72113 10.3567 6.8076 10.4029C6.89407 10.4491 6.99894 10.4442 7.08067 10.39L10.334 8.22199C10.4083 8.17255 10.4529 8.08923 10.4529 7.99999C10.4529 7.91075 10.4083 7.82743 10.334 7.77799Z" fill="#001018"/>
</svg>
