<svg width="16" height="16" viewBox="0 0 16 16" xmlns="http://www.w3.org/2000/svg"><path fill-rule="evenodd" clip-rule="evenodd" d="M1.33325 7.99998C1.33325 11.682 4.31792 14.6666 7.99992 14.6666C11.6819 14.6666 14.6666 11.682 14.6666 7.99998C14.6666 4.31798 11.6819 1.33331 7.99992 1.33331C4.31792 1.33331 1.33325 4.31798 1.33325 7.99998ZM6.80768 5.59654C6.89438 5.55027 6.9995 5.55542 7.08125 5.60997L10.3339 7.77797C10.4082 7.82741 10.4528 7.91073 10.4528 7.99997C10.4528 8.0892 10.4082 8.17253 10.3339 8.22197L7.08125 10.39C6.9995 10.4445 6.89438 10.4497 6.80768 10.4034C6.72099 10.3571 6.66677 10.2669 6.66658 10.1686V5.8313C6.66677 5.73303 6.72099 5.64282 6.80768 5.59654Z"/></svg>