<svg width="16" height="16" viewBox="0 0 16 16" xmlns="http://www.w3.org/2000/svg"><path d="M7.26661 1.39999L13.8659 2.34333L14.8086 8.94333L8.68061 15.0713C8.55559 15.1963 8.38605 15.2665 8.20927 15.2665C8.0325 15.2665 7.86296 15.1963 7.73794 15.0713L1.13794 8.47133C1.01296 8.34631 0.942749 8.17677 0.942749 7.99999C0.942749 7.82322 1.01296 7.65368 1.13794 7.52866L7.26661 1.39999ZM7.73794 2.81466L2.55194 7.99999L8.20927 13.6567L13.3946 8.47133L12.6879 3.52133L7.73794 2.81466ZM9.15127 7.05733C8.90117 6.80714 8.7607 6.46785 8.76077 6.11409C8.7608 5.93893 8.79533 5.76549 8.86239 5.60367C8.92945 5.44186 9.02773 5.29483 9.15161 5.17099C9.27549 5.04716 9.42255 4.94893 9.58439 4.88193C9.74623 4.81493 9.91968 4.78046 10.0948 4.78049C10.4486 4.78055 10.7878 4.92114 11.0379 5.17133C11.288 5.42152 11.4285 5.76081 11.4284 6.11456C11.4284 6.46832 11.2878 6.80756 11.0376 7.05766C10.7874 7.30776 10.4481 7.44823 10.0944 7.44817C9.74061 7.4481 9.40137 7.30752 9.15127 7.05733Z"/></svg>