<svg width="24" height="24" viewBox="0 0 24 24" fill="none" xmlns="http://www.w3.org/2000/svg">
<path d="M10.9001 2.10001L20.7991 3.51501L22.2131 13.415L13.0211 22.607C12.8336 22.7945 12.5793 22.8998 12.3141 22.8998C12.0489 22.8998 11.7946 22.7945 11.6071 22.607L1.70709 12.707C1.51962 12.5195 1.41431 12.2652 1.41431 12C1.41431 11.7348 1.51962 11.4805 1.70709 11.293L10.9001 2.10001ZM13.7281 10.586C13.9138 10.7717 14.1344 10.919 14.377 11.0194C14.6197 11.1199 14.8798 11.1716 15.1424 11.1716C15.4051 11.1715 15.6652 11.1197 15.9078 11.0192C16.1504 10.9186 16.3709 10.7713 16.5566 10.5855C16.7423 10.3998 16.8896 10.1792 16.99 9.93657C17.0905 9.69389 17.1422 9.4338 17.1421 9.17115C17.1421 8.9085 17.0903 8.64843 16.9898 8.40579C16.8892 8.16315 16.7418 7.9427 16.5561 7.75701C16.3703 7.57132 16.1498 7.42403 15.9072 7.32356C15.6645 7.22309 15.4044 7.17141 15.1417 7.17145C14.6113 7.17155 14.1026 7.38236 13.7276 7.75751C13.3526 8.13266 13.1419 8.64141 13.142 9.17186C13.1421 9.70231 13.3529 10.211 13.7281 10.586Z" fill="#001018"/>
</svg>
