<svg width="16" height="16" viewBox="0 0 16 16" xmlns="http://www.w3.org/2000/svg"><path d="M7.26667 1.3999L13.866 2.34324L14.8087 8.94324L8.68067 15.0712C8.55565 15.1962 8.38611 15.2664 8.20933 15.2664C8.03256 15.2664 7.86302 15.1962 7.738 15.0712L1.138 8.47124C1.01302 8.34622 0.94281 8.17668 0.94281 7.9999C0.94281 7.82313 1.01302 7.65359 1.138 7.52857L7.26667 1.3999ZM7.738 2.81457L2.552 7.9999L8.20933 13.6566L13.3947 8.47124L12.688 3.52124L7.738 2.81457V2.81457ZM9.15133 7.05724C8.90124 6.80705 8.76077 6.46776 8.76083 6.114C8.76086 5.93884 8.79539 5.7654 8.86245 5.60358C8.92951 5.44176 9.02779 5.29474 9.15167 5.1709C9.27555 5.04707 9.42261 4.94884 9.58445 4.88184C9.74629 4.81484 9.91974 4.78037 10.0949 4.7804C10.4487 4.78046 10.7879 4.92105 11.038 5.17124C11.2881 5.42142 11.4286 5.76072 11.4285 6.11447C11.4284 6.46823 11.2879 6.80747 11.0377 7.05757C10.7875 7.30767 10.4482 7.44814 10.0944 7.44808C9.74068 7.44801 9.40143 7.30742 9.15133 7.05724V7.05724Z"/></svg>