<svg width="16" height="16" viewBox="0 0 16 16" xmlns="http://www.w3.org/2000/svg"><path d="M7.26673 1.39999L13.8661 2.34333L14.8087 8.94333L8.68073 15.0713C8.55571 15.1963 8.38617 15.2665 8.2094 15.2665C8.03262 15.2665 7.86308 15.1963 7.73806 15.0713L1.13806 8.47133C1.01308 8.34631 0.942871 8.17677 0.942871 7.99999C0.942871 7.82322 1.01308 7.65368 1.13806 7.52866L7.26673 1.39999ZM9.15206 7.05733C9.2759 7.18112 9.4229 7.27931 9.58469 7.34629C9.74647 7.41327 9.91986 7.44773 10.095 7.4477C10.2701 7.44767 10.4434 7.41315 10.6052 7.34611C10.767 7.27907 10.9139 7.18083 11.0377 7.05699C11.1615 6.93316 11.2597 6.78615 11.3267 6.62437C11.3937 6.46258 11.4281 6.28919 11.4281 6.11409C11.4281 5.93899 11.3935 5.76561 11.3265 5.60385C11.2595 5.44209 11.1612 5.29512 11.0374 5.17133C10.9136 5.04753 10.7666 4.94935 10.6048 4.88237C10.443 4.81539 10.2696 4.78093 10.0945 4.78096C9.74086 4.78102 9.40174 4.92156 9.15173 5.17166C8.90172 5.42176 8.7613 5.76093 8.76136 6.11456C8.76142 6.46819 8.90196 6.80732 9.15206 7.05733Z"/></svg>