<svg width="16" height="16" viewBox="0 0 16 16" xmlns="http://www.w3.org/2000/svg"><path d="M7.26667 1.3999L13.866 2.34324L14.8087 8.94324L8.68067 15.0712C8.55565 15.1962 8.38611 15.2664 8.20933 15.2664C8.03256 15.2664 7.86302 15.1962 7.738 15.0712L1.138 8.47124C1.01302 8.34622 0.94281 8.17668 0.94281 7.9999C0.94281 7.82313 1.01302 7.65359 1.138 7.52857L7.26667 1.3999ZM9.152 7.05724C9.27584 7.18103 9.42284 7.27922 9.58463 7.3462C9.74641 7.41318 9.9198 7.44764 10.0949 7.4476C10.27 7.44757 10.4434 7.41305 10.6051 7.34602C10.7669 7.27898 10.9139 7.18074 11.0377 7.0569C11.1615 6.93307 11.2596 6.78606 11.3266 6.62428C11.3936 6.46249 11.4281 6.2891 11.428 6.114C11.428 5.9389 11.3935 5.76552 11.3264 5.60376C11.2594 5.442 11.1612 5.29503 11.0373 5.17124C10.9135 5.04744 10.7665 4.94925 10.6047 4.88227C10.4429 4.8153 10.2695 4.78084 10.0944 4.78087C9.7408 4.78093 9.40168 4.92147 9.15167 5.17157C8.90166 5.42167 8.76124 5.76084 8.7613 6.11447C8.76136 6.4681 8.9019 6.80723 9.152 7.05724Z"/></svg>