<svg width="24" height="24" viewBox="0 0 24 24" fill="none" xmlns="http://www.w3.org/2000/svg">
<path d="M10.9 2.10001L20.799 3.51501L22.213 13.415L13.021 22.607C12.8334 22.7945 12.5791 22.8998 12.314 22.8998C12.0488 22.8998 11.7945 22.7945 11.607 22.607L1.70697 12.707C1.5195 12.5195 1.41418 12.2652 1.41418 12C1.41418 11.7348 1.5195 11.4805 1.70697 11.293L10.9 2.10001ZM11.607 4.22201L3.82797 12L12.314 20.485L20.092 12.707L19.032 5.28201L11.607 4.22201ZM13.727 10.586C13.3518 10.2107 13.1411 9.70179 13.1412 9.17115C13.1413 8.90841 13.1931 8.64825 13.2936 8.40552C13.3942 8.1628 13.5417 7.94226 13.7275 7.75651C13.9133 7.57075 14.1339 7.42342 14.3766 7.32291C14.6194 7.22241 14.8796 7.1707 15.1423 7.17075C15.673 7.17084 16.1818 7.38172 16.557 7.75701C16.9321 8.13229 17.1428 8.64123 17.1427 9.17186C17.1426 9.70249 16.9318 10.2114 16.5565 10.5865C16.1812 10.9617 15.6723 11.1724 15.1416 11.1723C14.611 11.1722 14.1021 10.9613 13.727 10.586Z" fill="#001018"/>
</svg>
