<svg width="16" height="16" fill="none" xmlns="http://www.w3.org/2000/svg"><path fill-rule="evenodd" clip-rule="evenodd" d="M4 12.667H2A.667.667 0 0 1 1.333 12V5.333c0-.368.299-.666.667-.666h2V2c0-.368.298-.667.667-.667h6.666c.368 0 .667.299.667.667v2.667h2c.368 0 .667.298.667.666V12a.667.667 0 0 1-.667.667h-2V14a.667.667 0 0 1-.667.667H4.667A.667.667 0 0 1 4 14v-1.333zm0-1.334v-.666c0-.368.298-.667.667-.667h6.666c.368 0 .667.299.667.667v.666h1.333V6H2.667v5.333H4zm1.333-6.666v-2h5.334v2H5.333zm0 6.666v2h5.334v-2H5.333zm0-4.666h-2V8h2V6.667z" fill="#001018"/></svg>