<svg viewBox="0 0 24 24" xmlns="http://www.w3.org/2000/svg"><path d="M7 17H17V22H7V17ZM19 20V15H5V20H3C2.73478 20 2.48043 19.8946 2.29289 19.7071C2.10536 19.5196 2 19.2652 2 19V9C2 8.73478 2.10536 8.48043 2.29289 8.29289C2.48043 8.10536 2.73478 8 3 8H21C21.2652 8 21.5196 8.10536 21.7071 8.29289C21.8946 8.48043 22 8.73478 22 9V19C22 19.2652 21.8946 19.5196 21.7071 19.7071C21.5196 19.8946 21.2652 20 21 20H19ZM5 10V12H8V10H5ZM7 2H17C17.2652 2 17.5196 2.10536 17.7071 2.29289C17.8946 2.48043 18 2.73478 18 3V6H6V3C6 2.73478 6.10536 2.48043 6.29289 2.29289C6.48043 2.10536 6.73478 2 7 2Z"/></svg>