<svg width="16" height="16" viewBox="0 0 16 16" fill="none" xmlns="http://www.w3.org/2000/svg">
<path fill-rule="evenodd" clip-rule="evenodd" d="M4 12.6667H2C1.63181 12.6667 1.33333 12.3682 1.33333 12V5.33333C1.33333 4.96514 1.63181 4.66666 2 4.66666H4V1.99999C4 1.63181 4.29848 1.33333 4.66667 1.33333H11.3333C11.7015 1.33333 12 1.63181 12 1.99999V4.66666H14C14.3682 4.66666 14.6667 4.96514 14.6667 5.33333V12C14.6667 12.3682 14.3682 12.6667 14 12.6667H12V14C12 14.3682 11.7015 14.6667 11.3333 14.6667H4.66667C4.29848 14.6667 4 14.3682 4 14V12.6667ZM4 11.3333V10.6667C4 10.2985 4.29848 9.99999 4.66667 9.99999H11.3333C11.7015 9.99999 12 10.2985 12 10.6667V11.3333H13.3333V5.99999H2.66667V11.3333H4ZM5.33333 4.66666V2.66666H10.6667V4.66666H5.33333ZM5.33333 11.3333V13.3333H10.6667V11.3333H5.33333ZM5.33333 6.66666H3.33333V7.99999H5.33333V6.66666Z" fill="#001018"/>
</svg>
