<svg width="24" height="24" fill="none" xmlns="http://www.w3.org/2000/svg"><path fill-rule="evenodd" clip-rule="evenodd" d="M16.502 6h2.248a.75.75 0 0 1 .75.75v7.5a.75.75 0 0 1-1.5 0V7.5H6v13.29l5.068-1.268a.75.75 0 0 1 .364 1.456l-6 1.5a.75.75 0 0 1-.932-.728v-15A.75.75 0 0 1 5.25 6h2.252a4.5 4.5 0 0 1 9 0zm-1.5 0a3 3 0 0 0-6 0h6zm1.499 14.561-1.719 1.72a.75.75 0 0 1-1.227-.252l-3-7.5a.75.75 0 0 1 .975-.975l7.5 3c.5.2.633.846.252 1.226l-1.72 1.72 1.718 1.72a.75.75 0 1 1-1.06 1.06l-1.72-1.719zm-3.903-4.965 1.928 4.82 2.891-2.892-4.819-1.928z" fill="#001018"/></svg>