<svg width="16" height="16" viewBox="0 0 16 16" fill="none" xmlns="http://www.w3.org/2000/svg">
<path d="M7.99508 14.66C4.314 14.66 1.33008 11.6761 1.33008 7.99502C1.33008 4.31394 4.314 1.33002 7.99508 1.33002C11.6762 1.33002 14.6601 4.31394 14.6601 7.99502C14.6601 11.6761 11.6762 14.66 7.99508 14.66ZM7.32858 9.99452V11.3275H8.66158V9.99452H7.32858ZM8.66158 8.89812C9.19722 8.73668 9.65707 8.38822 9.95736 7.9162C10.2577 7.44418 10.3784 6.88 10.2977 6.32641C10.2169 5.77283 9.94 5.26666 9.51737 4.9001C9.09475 4.53353 8.55452 4.33096 7.99508 4.32927C7.45578 4.32923 6.93312 4.51599 6.51598 4.8578C6.09883 5.1996 5.81296 5.67535 5.70698 6.20413L7.01466 6.46607C7.05177 6.2804 7.14084 6.10909 7.2715 5.97207C7.40217 5.83504 7.56906 5.73794 7.75276 5.69206C7.93645 5.64618 8.1294 5.65341 8.30915 5.7129C8.4889 5.77239 8.64806 5.8817 8.76811 6.02812C8.88816 6.17453 8.96417 6.35202 8.98728 6.53994C9.0104 6.72786 8.97968 6.91849 8.8987 7.08963C8.81772 7.26078 8.6898 7.40541 8.52983 7.50669C8.36986 7.60798 8.18442 7.66176 7.99508 7.66177C7.81831 7.66177 7.64878 7.73199 7.52379 7.85698C7.3988 7.98197 7.32858 8.1515 7.32858 8.32827V9.32802H8.66158V8.89812Z" fill="#001018"/>
</svg>
