<svg width="24" height="24" viewBox="0 0 24 24" fill="none" xmlns="http://www.w3.org/2000/svg">
<path fill-rule="evenodd" clip-rule="evenodd" d="M2 12C2 17.523 6.477 22 12 22C17.523 22 22 17.523 22 12C22 6.477 17.523 2 12 2C6.477 2 2 6.477 2 12ZM20 12C20 16.4183 16.4183 20 12 20C7.58172 20 4 16.4183 4 12C4 7.58172 7.58172 4 12 4C16.4183 4 20 7.58172 20 12ZM13 15V17H11V15H13ZM13 14V13.355C14.6436 12.8651 15.6904 11.2566 15.4726 9.55541C15.2549 7.8542 13.8368 6.56119 12.1228 6.50102C10.4087 6.44085 8.90349 7.63124 8.567 9.313L10.529 9.706C10.6839 8.93117 11.4133 8.40935 12.1966 8.51295C12.9799 8.61655 13.5486 9.31006 13.4967 10.0985C13.4448 10.887 12.7902 11.5 12 11.5C11.4477 11.5 11 11.9477 11 12.5V14H13Z" fill="#001018"/>
</svg>
