<svg width="16" height="16" viewBox="0 0 16 16" xmlns="http://www.w3.org/2000/svg"><path d="M10.6666 12V10.6667H11.3333C11.7474 10.6665 12.1557 10.5698 12.526 10.3844C12.8962 10.199 13.2182 9.9299 13.4664 9.59846C13.7146 9.26702 13.8822 8.88233 13.9559 8.47488C14.0296 8.06743 14.0075 7.6484 13.8911 7.251C13.7748 6.8536 13.5676 6.48875 13.2858 6.18534C13.004 5.88194 12.6555 5.64832 12.2677 5.503C11.88 5.35768 11.4637 5.30464 11.052 5.3481C10.6402 5.39156 10.2442 5.53032 9.89532 5.75337C9.72999 5.04912 9.37678 4.40288 8.87328 3.88346C8.36979 3.36404 7.73486 2.99089 7.03609 2.80372C6.33732 2.61656 5.60088 2.62239 4.90517 2.82061C4.20945 3.01882 3.58051 3.40199 3.08531 3.92932C2.59011 4.45666 2.24718 5.10841 2.09304 5.8152C1.9389 6.52198 1.97931 7.25734 2.20997 7.94298C2.44064 8.62861 2.85292 9.23886 3.40293 9.70876C3.95293 10.1786 4.62007 10.4906 5.33332 10.6114V11.9594C3.98739 11.7895 2.75677 11.1131 1.8919 10.0679C1.02703 9.02277 0.592887 7.68733 0.677833 6.33338C0.762779 4.97943 1.36042 3.70873 2.34915 2.77985C3.33787 1.85097 4.64337 1.33373 5.99998 1.33337C6.94778 1.33296 7.87856 1.5852 8.69647 2.06411C9.51438 2.54302 10.1898 3.23129 10.6533 4.05804C11.1992 3.96405 11.7587 3.98447 12.2963 4.11801C12.8339 4.25155 13.3379 4.4953 13.7764 4.83381C14.2149 5.17232 14.5783 5.59821 14.8435 6.0845C15.1088 6.5708 15.2702 7.10689 15.3174 7.65881C15.3647 8.21073 15.2968 8.76645 15.118 9.29076C14.9393 9.81507 14.6536 10.2965 14.2791 10.7047C13.9045 11.1128 13.4493 11.4387 12.9422 11.6616C12.4351 11.8846 11.8873 11.9999 11.3333 12H10.6666ZM6.82132 12.488L7.99998 11.3094L9.17865 12.488C9.41169 12.7211 9.57038 13.0181 9.63466 13.3414C9.69893 13.6647 9.6659 13.9998 9.53974 14.3043C9.41358 14.6088 9.19996 14.8691 8.92589 15.0522C8.65182 15.2353 8.3296 15.3331 7.99998 15.3331C7.67037 15.3331 7.34815 15.2353 7.07408 15.0522C6.80001 14.8691 6.58638 14.6088 6.46023 14.3043C6.33407 13.9998 6.30104 13.6647 6.36531 13.3414C6.42958 13.0181 6.58827 12.7211 6.82132 12.488Z"/></svg>