<svg width="24" height="24" viewBox="0 0 24 24" fill="none" xmlns="http://www.w3.org/2000/svg">
<path d="M16 18V16H17C17.6211 15.9997 18.2336 15.8547 18.789 15.5766C19.3443 15.2984 19.8273 14.8948 20.1996 14.3976C20.5719 13.9005 20.8233 13.3234 20.9339 12.7123C21.0445 12.1011 21.0112 11.4725 20.8368 10.8764C20.6623 10.2803 20.3514 9.73306 19.9288 9.27795C19.5061 8.82284 18.9832 8.47242 18.4016 8.25444C17.8201 8.03645 17.1957 7.95691 16.578 8.02209C15.9603 8.08728 15.3663 8.29541 14.843 8.63C14.5951 7.57362 14.0652 6.60426 13.31 5.82513C12.5547 5.046 11.6023 4.48627 10.5542 4.20552C9.50605 3.92478 8.40138 3.93353 7.35781 4.23085C6.31424 4.52817 5.37083 5.10293 4.62803 5.89392C3.88522 6.68492 3.37083 7.66256 3.13962 8.72273C2.9084 9.78291 2.96902 10.8859 3.31502 11.9144C3.66102 12.9429 4.27944 13.8582 5.10445 14.5631C5.92946 15.2679 6.93017 15.7358 8.00004 15.917V17.939C5.98115 17.6841 4.13522 16.6696 2.83791 15.1018C1.5406 13.5341 0.889392 11.5309 1.01681 9.50001C1.14423 7.46909 2.0407 5.56303 3.52378 4.16971C5.00687 2.7764 6.96512 2.00053 9.00004 2C10.4217 1.99939 11.8179 2.37774 13.0448 3.0961C14.2716 3.81447 15.2848 4.84687 15.98 6.087C16.7989 5.94602 17.6381 5.97665 18.4445 6.17696C19.2509 6.37727 20.0069 6.74289 20.6647 7.25065C21.3224 7.75842 21.8674 8.39726 22.2654 9.1267C22.6633 9.85613 22.9053 10.6603 22.9762 11.4881C23.0471 12.316 22.9453 13.1496 22.6771 13.9361C22.409 14.7225 21.9805 15.4447 21.4186 16.0569C20.8568 16.6691 20.174 17.1579 19.4134 17.4924C18.6527 17.8269 17.8309 17.9997 17 18H16ZM10.232 18.732L12 16.964L13.768 18.732C14.1176 19.0817 14.3556 19.5271 14.452 20.0121C14.5485 20.497 14.4989 20.9996 14.3097 21.4564C14.1204 21.9132 13.8 22.3036 13.3889 22.5783C12.9778 22.8529 12.4945 22.9995 12 22.9995C11.5056 22.9995 11.0223 22.8529 10.6112 22.5783C10.2001 22.3036 9.87964 21.9132 9.6904 21.4564C9.50116 20.9996 9.45162 20.497 9.54803 20.0121C9.64443 19.5271 9.88247 19.0817 10.232 18.732Z" fill="#001018"/>
</svg>
