<svg width="16" height="16" viewBox="0 0 16 16" fill="none" xmlns="http://www.w3.org/2000/svg">
<path d="M10.5733 11.9999L8.47131 9.89795C8.34629 9.77297 8.17676 9.70276 7.99998 9.70276C7.8232 9.70276 7.65366 9.77297 7.52865 9.89795L5.45331 11.9733C4.5423 11.8792 3.67086 11.5521 2.92292 11.0236C2.17497 10.495 1.57572 9.7828 1.18287 8.95548C0.790017 8.12816 0.616807 7.21362 0.679916 6.29994C0.743026 5.38626 1.04033 4.50423 1.5432 3.73877C2.04606 2.97332 2.73755 2.35024 3.55106 1.92954C4.36457 1.50885 5.27271 1.3047 6.188 1.33677C7.10329 1.36883 7.99491 1.63603 8.77699 2.11263C9.55906 2.58924 10.2052 3.25918 10.6533 4.05795C11.1992 3.96396 11.7587 3.98438 12.2963 4.11792C12.8339 4.25146 13.3379 4.49521 13.7764 4.83371C14.2149 5.17222 14.5783 5.59812 14.8435 6.08441C15.1088 6.5707 15.2702 7.10679 15.3174 7.65871C15.3647 8.21063 15.2968 8.76635 15.118 9.29066C14.9393 9.81497 14.6536 10.2964 14.2791 10.7046C13.9045 11.1127 13.4493 11.4386 12.9422 11.6615C12.4351 11.8845 11.8873 11.9998 11.3333 11.9999H10.574H10.5733ZM6.82131 12.4879L7.99998 11.3093L9.17865 12.4879C9.41169 12.7211 9.57038 13.018 9.63465 13.3413C9.69893 13.6646 9.6659 13.9997 9.53974 14.3042C9.41358 14.6087 9.19996 14.869 8.92588 15.0521C8.65181 15.2352 8.3296 15.333 7.99998 15.333C7.67036 15.333 7.34815 15.2352 7.07407 15.0521C6.8 14.869 6.58638 14.6087 6.46022 14.3042C6.33406 13.9997 6.30103 13.6646 6.36531 13.3413C6.42958 13.018 6.58827 12.7211 6.82131 12.4879V12.4879Z" fill="#001018"/>
</svg>
