<svg width="16" height="16" viewBox="0 0 16 16" fill="none" xmlns="http://www.w3.org/2000/svg">
<path d="M13.0414 8.06533L14.062 9.83333C14.2668 10.188 14.3746 10.5903 14.3746 10.9998C14.3747 11.4093 14.2669 11.8117 14.0622 12.1663C13.8575 12.521 13.5631 12.8156 13.2085 13.0204C12.8538 13.2253 12.4516 13.3332 12.042 13.3333H10.6667V14.6667L7.33337 12.3333L10.6667 9.99999V11.3333H12.0414C12.0949 11.3336 12.1477 11.321 12.1953 11.2965C12.2429 11.272 12.2838 11.2364 12.3147 11.1926C12.3455 11.1489 12.3653 11.0984 12.3724 11.0453C12.3795 10.9923 12.3736 10.9383 12.3554 10.888L12.33 10.8333L11.3094 9.06533L13.0414 8.06533V8.06533ZM5.15804 6.25599L5.51137 10.3093L4.35804 9.64266L3.67004 10.8333C3.64299 10.8795 3.62752 10.9316 3.62493 10.985C3.62234 11.0385 3.63272 11.0918 3.65518 11.1404C3.67764 11.189 3.71152 11.2314 3.75392 11.2641C3.79632 11.2967 3.846 11.3187 3.8987 11.328L3.9587 11.3333H6.00004V13.3333H3.9587C3.54912 13.3333 3.14676 13.2255 2.79206 13.0207C2.43735 12.8159 2.14281 12.5213 1.93802 12.1666C1.73324 11.8119 1.62543 11.4096 1.62543 11C1.62543 10.5904 1.73325 10.188 1.93804 9.83333L2.62537 8.64266L1.4707 7.97599L5.15737 6.25599H5.15804ZM9.1667 1.97933C9.52137 2.18399 9.81604 2.47866 10.0207 2.83333L10.7074 4.02399L11.8627 3.35733L11.5094 7.41066L7.82137 5.69066L8.97604 5.02399L8.2887 3.83333C8.26216 3.78686 8.22478 3.7475 8.17975 3.7186C8.13472 3.6897 8.08337 3.67211 8.03008 3.66733C7.97678 3.66255 7.92312 3.67072 7.87366 3.69115C7.82421 3.71158 7.78042 3.74366 7.74604 3.78466L7.71137 3.83333L6.69137 5.60133L4.9587 4.60133L5.9787 2.83333C6.13192 2.56789 6.33592 2.33523 6.57907 2.14865C6.82222 1.96207 7.09974 1.82522 7.39579 1.74591C7.69184 1.66661 8.00061 1.6464 8.30447 1.68645C8.60833 1.7265 8.90132 1.82602 9.1667 1.97933V1.97933Z" fill="#001018"/>
</svg>
