<svg width="24" height="24" viewBox="0 0 24 24" fill="none" xmlns="http://www.w3.org/2000/svg">
<path d="M19.5621 12.098L21.0931 14.75C21.4002 15.282 21.5619 15.8855 21.562 16.4998C21.562 17.114 21.4004 17.7175 21.0933 18.2496C20.7863 18.7816 20.3446 19.2234 19.8127 19.5307C19.2808 19.838 18.6773 19.9998 18.0631 20H16.0001V22L11.0001 18.5L16.0001 15V17H18.0621C18.1423 17.0005 18.2215 16.9815 18.2929 16.9448C18.3643 16.9081 18.4257 16.8546 18.472 16.789C18.5182 16.7234 18.5479 16.6476 18.5586 16.568C18.5692 16.4884 18.5605 16.4075 18.5331 16.332L18.4951 16.25L16.9641 13.598L19.5621 12.098ZM7.73705 9.38402L8.26705 15.464L6.53706 14.464L5.50505 16.25C5.46449 16.3193 5.44128 16.3974 5.4374 16.4776C5.43352 16.5578 5.44909 16.6377 5.48278 16.7106C5.51647 16.7835 5.56728 16.8471 5.63088 16.8961C5.69448 16.9451 5.76899 16.978 5.84805 16.992L5.93805 17H9.00005V20H5.93805C5.32368 20 4.72014 19.8383 4.18809 19.5311C3.65603 19.2239 3.21421 18.782 2.90703 18.25C2.59985 17.7179 2.43814 17.1144 2.43814 16.5C2.43815 15.8856 2.59987 15.2821 2.90705 14.75L3.93805 12.964L2.20605 11.964L7.73605 9.38402H7.73705ZM13.7501 2.96902C14.2821 3.27602 14.7241 3.71802 15.0311 4.25002L16.0611 6.03602L17.7941 5.03602L17.2641 11.116L11.7321 8.53602L13.4641 7.53602L12.4331 5.75002C12.3932 5.68033 12.3372 5.62129 12.2696 5.57793C12.2021 5.53458 12.1251 5.50819 12.0451 5.50102C11.9652 5.49385 11.8847 5.50611 11.8105 5.53676C11.7363 5.5674 11.6706 5.61552 11.6191 5.67702L11.5671 5.75002L10.0371 8.40202L7.43806 6.90202L8.96805 4.25002C9.19788 3.85186 9.50389 3.50288 9.86861 3.223C10.2333 2.94313 10.6496 2.73785 11.0937 2.6189C11.5378 2.49994 12.0009 2.46963 12.4567 2.52971C12.9125 2.58978 13.352 2.73906 13.7501 2.96902Z" fill="#001018"/>
</svg>
