<svg width="24" height="24" viewBox="0 0 24 24" fill="none" xmlns="http://www.w3.org/2000/svg">
<path d="M19.5619 12.097L21.0929 14.75C21.4001 15.282 21.5618 15.8855 21.5619 16.4998C21.5619 17.114 21.4003 17.7175 21.0932 18.2496C20.7862 18.7816 20.3445 19.2234 19.8126 19.5307C19.2807 19.838 18.6772 19.9998 18.0629 20H15.9999V22.5L10.9999 19L15.9999 15.5V18H18.0619C18.3253 18.0002 18.5841 17.931 18.8123 17.7994C19.0404 17.6678 19.2299 17.4785 19.3617 17.2504C19.4935 17.0224 19.5629 16.7637 19.5629 16.5003C19.563 16.2369 19.4936 15.9781 19.3619 15.75L17.8299 13.097L19.5619 12.097ZM7.30395 9.13403L7.83395 15.214L5.66995 13.964L4.63895 15.75C4.5073 15.9781 4.43799 16.2367 4.43799 16.5C4.43799 16.7633 4.50729 17.022 4.63894 17.25C4.77059 17.478 4.95994 17.6674 5.18796 17.7991C5.41599 17.9307 5.67465 18 5.93795 18H8.99995V20H5.93795C5.32358 20 4.72004 19.8383 4.18798 19.5311C3.65593 19.2239 3.21411 18.7821 2.90693 18.25C2.59975 17.7179 2.43803 17.1144 2.43804 16.5C2.43804 15.8856 2.59976 15.2821 2.90695 14.75L3.93695 12.963L1.77295 11.714L7.30295 9.13403H7.30395ZM13.7499 2.96903C14.2819 3.27603 14.7239 3.71803 15.0309 4.25003L16.061 6.03503L18.2269 4.78503L17.6969 10.866L12.1649 8.28603L14.3299 7.03603L13.2989 5.25003C13.1673 5.02201 12.9779 4.83267 12.7499 4.70103C12.5219 4.56939 12.2632 4.50009 11.9999 4.50009C11.7367 4.50009 11.478 4.56939 11.25 4.70103C11.022 4.83267 10.8326 5.02201 10.7009 5.25003L9.16895 7.90303L7.43695 6.90303L8.96995 4.25003C9.43409 3.44617 10.1985 2.85961 11.0952 2.61938C11.9918 2.37915 12.9471 2.50492 13.7509 2.96903H13.7499Z" fill="#001018"/>
</svg>
