<svg width="16" height="16" viewBox="0 0 16 16" fill="none" xmlns="http://www.w3.org/2000/svg">
<path d="M13.0415 8.06468L14.0621 9.83335C14.2669 10.188 14.3747 10.5903 14.3747 10.9998C14.3748 11.4094 14.267 11.8117 14.0623 12.1664C13.8576 12.5211 13.5632 12.8156 13.2085 13.0205C12.8539 13.2253 12.4517 13.3332 12.0421 13.3334H10.6668V15L7.33346 12.6667L10.6668 10.3334V12H12.0415C12.2171 12.0001 12.3896 11.954 12.5417 11.8663C12.6938 11.7786 12.8201 11.6523 12.908 11.5003C12.9958 11.3483 13.0421 11.1758 13.0421 11.0002C13.0421 10.8246 12.9959 10.6521 12.9081 10.5L11.8868 8.73135L13.0415 8.06468ZM4.86946 6.08935L5.2228 10.1427L3.78013 9.30935L3.0928 10.5C3.00503 10.652 2.95882 10.8245 2.95882 11C2.95882 11.1755 3.00502 11.348 3.09279 11.5C3.18055 11.652 3.30679 11.7783 3.4588 11.866C3.61082 11.9538 3.78326 12 3.9588 12H6.00013V13.3334H3.9588C3.54922 13.3333 3.14685 13.2255 2.79215 13.0207C2.43745 12.8159 2.1429 12.5214 1.93811 12.1667C1.73333 11.8119 1.62552 11.4096 1.62552 11C1.62552 10.5904 1.73334 10.1881 1.93813 9.83335L2.6248 8.64202L1.18213 7.80935L4.8688 6.08935H4.86946ZM9.1668 1.97935C9.52146 2.18402 9.81613 2.47868 10.0208 2.83335L10.7075 4.02335L12.1515 3.19002L11.7981 7.24402L8.11013 5.52402L9.55346 4.69068L8.86613 3.50002C8.77836 3.34801 8.65212 3.22178 8.50011 3.13402C8.34809 3.04626 8.17566 3.00006 8.00013 3.00006C7.8246 3.00006 7.65217 3.04626 7.50015 3.13402C7.34814 3.22178 7.2219 3.34801 7.13413 3.50002L6.1128 5.26868L4.95813 4.60202L5.98013 2.83335C6.28956 2.29745 6.7992 1.90641 7.39693 1.74625C7.99467 1.5861 8.63155 1.66995 9.16746 1.97935H9.1668Z" fill="#001018"/>
</svg>
