<svg width="16" height="16" viewBox="0 0 16 16" fill="none" xmlns="http://www.w3.org/2000/svg">
<path d="M4.47247 4.94477C5.32813 3.95767 6.59119 3.33333 8.00008 3.33333C10.5774 3.33333 12.6667 5.42267 12.6667 8L11.3334 8L13.3334 12L15.3334 8L14.0001 8C14.0001 4.68629 11.3138 2 8.00008 2C6.38424 2 4.91758 2.63874 3.83883 3.67749L4.47247 4.94477Z" fill="#001018"/>
<path d="M8.00008 12.6667C9.40897 12.6667 10.672 12.0423 11.5277 11.0552L12.1613 12.3225C11.0826 13.3613 9.61592 14 8.00008 14C4.68637 14 2.00008 11.3137 2.00008 8L0.666748 8L2.66675 4L4.66675 8L3.33341 8C3.33341 10.5773 5.42275 12.6667 8.00008 12.6667Z" fill="#001018"/>
</svg>
