<svg width="16" height="16" xmlns="http://www.w3.org/2000/svg"><path d="m6.857 3.525-2.47 2.47 2.47 2.471.943-.942-.862-.862h1.723c.523 0 1.025.176 1.388.502.35.316.612.807.612 1.532 0 .723-.26 1.191-.603 1.488-.358.31-.86.477-1.397.477H5.33v1.333h3.332c.797 0 1.628-.246 2.27-.802.656-.568 1.063-1.415 1.063-2.496 0-1.08-.405-1.94-1.054-2.523-.637-.573-1.469-.844-2.279-.844H6.938l.862-.862-.943-.942z"/><path d="M1.33 1.996c0-.368.298-.666.666-.666h11.997c.369 0 .667.298.667.666v11.997a.666.666 0 0 1-.667.667H1.996a.666.666 0 0 1-.666-.667V1.996zm1.333.667v10.664h10.664V2.663H2.663z"/></svg>