<svg width="16" height="16" xmlns="http://www.w3.org/2000/svg"><path d="M1.997 1.33a.666.666 0 0 0-.667.667v11.996c0 .369.298.667.667.667h11.997a.666.666 0 0 0 .666-.667V1.997a.666.666 0 0 0-.666-.667H1.997zM7.8 4.467l-.862.862h1.724c.81 0 1.641.271 2.278.844.649.584 1.054 1.443 1.054 2.523 0 1.081-.407 1.928-1.063 2.497-.642.555-1.473.801-2.27.801H5.33v-1.333h3.333c.536 0 1.038-.167 1.396-.477.344-.296.603-.765.603-1.488 0-.725-.261-1.216-.612-1.532-.363-.326-.864-.502-1.387-.502H6.938l.862.862-.943.942-2.47-2.47 2.47-2.471.943.942z"/></svg>