<svg width="16" height="16" fill="none" xmlns="http://www.w3.org/2000/svg"><path fill-rule="evenodd" clip-rule="evenodd" d="M1.997 1.33a.666.666 0 0 0-.667.667v11.996c0 .369.298.667.667.667h11.997a.666.666 0 0 0 .666-.667V1.997a.666.666 0 0 0-.666-.667H1.997zM7.8 4.467l-.943-.942-2.47 2.47 2.47 2.471.943-.942-.862-.862h1.724c.523 0 1.024.176 1.387.502.35.316.612.807.612 1.532 0 .723-.26 1.191-.603 1.488-.358.31-.86.477-1.396.477H5.329v1.333h3.333c.796 0 1.627-.246 2.268-.801.657-.569 1.064-1.416 1.064-2.497 0-1.08-.405-1.94-1.054-2.523-.637-.573-1.468-.844-2.278-.844H6.938l.862-.862z" fill="#001018"/></svg>