<svg width="16" height="16" xmlns="http://www.w3.org/2000/svg"><path fill-rule="evenodd" clip-rule="evenodd" d="m6.857 3.525.943.942-.862.862h1.723c.81 0 1.642.271 2.279.844.649.584 1.054 1.443 1.054 2.523 0 1.081-.407 1.928-1.064 2.496-.641.556-1.472.802-2.269.802H5.33v-1.333h3.332c.537 0 1.04-.167 1.397-.477.343-.297.603-.765.603-1.488 0-.725-.261-1.216-.612-1.532-.363-.326-.865-.502-1.388-.502H6.938l.862.862-.943.942-2.47-2.47 2.47-2.471z"/><path fill-rule="evenodd" clip-rule="evenodd" d="M1.33 1.996c0-.368.298-.666.666-.666h11.997c.369 0 .667.298.667.666v11.997a.666.666 0 0 1-.667.667H1.996a.666.666 0 0 1-.666-.667V1.996zm1.333.667h10.664v10.664H2.663V2.663z"/></svg>