<svg width="24" height="24" viewBox="0 0 24 24" fill="none" xmlns="http://www.w3.org/2000/svg">
<path d="M5.5 21C4.90905 21 4.32389 20.8836 3.77792 20.6575C3.23196 20.4313 2.73588 20.0998 2.31802 19.682C1.90016 19.2641 1.56869 18.768 1.34254 18.2221C1.1164 17.6761 1 17.0909 1 16.5C1 15.9091 1.1164 15.3239 1.34254 14.7779C1.56869 14.232 1.90016 13.7359 2.31802 13.318C2.73588 12.9002 3.23196 12.5687 3.77792 12.3425C4.32389 12.1164 4.90905 12 5.5 12C6.69347 12 7.83807 12.4741 8.68198 13.318C9.52589 14.1619 10 15.3065 10 16.5C10 17.6935 9.52589 18.8381 8.68198 19.682C7.83807 20.5259 6.69347 21 5.5 21ZM5.5 19C6.16304 19 6.79893 18.7366 7.26777 18.2678C7.73661 17.7989 8 17.163 8 16.5C8 15.837 7.73661 15.2011 7.26777 14.7322C6.79893 14.2634 6.16304 14 5.5 14C4.83696 14 4.20107 14.2634 3.73223 14.7322C3.26339 15.2011 3 15.837 3 16.5C3 17.163 3.26339 17.7989 3.73223 18.2678C4.20107 18.7366 4.83696 19 5.5 19ZM18.5 21C17.9091 21 17.3239 20.8836 16.7779 20.6575C16.232 20.4313 15.7359 20.0998 15.318 19.682C14.9002 19.2641 14.5687 18.768 14.3425 18.2221C14.1164 17.6761 14 17.0909 14 16.5C14 15.9091 14.1164 15.3239 14.3425 14.7779C14.5687 14.232 14.9002 13.7359 15.318 13.318C15.7359 12.9002 16.232 12.5687 16.7779 12.3425C17.3239 12.1164 17.9091 12 18.5 12C19.6935 12 20.8381 12.4741 21.682 13.318C22.5259 14.1619 23 15.3065 23 16.5C23 17.6935 22.5259 18.8381 21.682 19.682C20.8381 20.5259 19.6935 21 18.5 21ZM18.5 19C19.163 19 19.7989 18.7366 20.2678 18.2678C20.7366 17.7989 21 17.163 21 16.5C21 15.837 20.7366 15.2011 20.2678 14.7322C19.7989 14.2634 19.163 14 18.5 14C17.837 14 17.2011 14.2634 16.7322 14.7322C16.2634 15.2011 16 15.837 16 16.5C16 17.163 16.2634 17.7989 16.7322 18.2678C17.2011 18.7366 17.837 19 18.5 19ZM11.023 10.305L13 12V18H11V13L8.281 10.734C8.03904 10.5677 7.83666 10.3502 7.68822 10.0969C7.53977 9.84363 7.44892 9.56076 7.4221 9.26841C7.39528 8.97605 7.43315 8.68137 7.53303 8.4053C7.6329 8.12923 7.79233 7.87853 8 7.671L10.828 4.843C11.0137 4.6572 11.2342 4.50981 11.4769 4.40925C11.7197 4.30869 11.9798 4.25693 12.2425 4.25693C12.5052 4.25693 12.7653 4.30869 13.0081 4.40925C13.2508 4.50981 13.4713 4.6572 13.657 4.843L15.071 6.257C16.13 7.31982 17.5038 8.01248 18.988 8.232L18.978 10.247C16.9642 10.0152 15.0884 9.10742 13.657 7.672L11.023 10.305ZM16 5C15.4696 5 14.9609 4.78929 14.5858 4.41421C14.2107 4.03914 14 3.53043 14 3C14 2.46957 14.2107 1.96086 14.5858 1.58579C14.9609 1.21071 15.4696 1 16 1C16.5304 1 17.0391 1.21071 17.4142 1.58579C17.7893 1.96086 18 2.46957 18 3C18 3.53043 17.7893 4.03914 17.4142 4.41421C17.0391 4.78929 16.5304 5 16 5Z" fill="#001018"/>
</svg>
