<svg viewBox="0 0 24 24" xmlns="http://www.w3.org/2000/svg"><path d="M5.5 21C4.90905 21 4.32389 20.8836 3.77792 20.6575C3.23196 20.4313 2.73588 20.0998 2.31802 19.682C1.90016 19.2641 1.56869 18.768 1.34254 18.2221C1.1164 17.6761 1 17.0909 1 16.5C1 15.9091 1.1164 15.3239 1.34254 14.7779C1.56869 14.232 1.90016 13.7359 2.31802 13.318C2.73588 12.9002 3.23196 12.5687 3.77792 12.3425C4.32389 12.1164 4.90905 12 5.5 12C6.69347 12 7.83807 12.4741 8.68198 13.318C9.52589 14.1619 10 15.3065 10 16.5C10 17.6935 9.52589 18.8381 8.68198 19.682C7.83807 20.5259 6.69347 21 5.5 21ZM5.5 18C5.89782 18 6.27936 17.842 6.56066 17.5607C6.84196 17.2794 7 16.8978 7 16.5C7 16.1022 6.84196 15.7206 6.56066 15.4393C6.27936 15.158 5.89782 15 5.5 15C5.10218 15 4.72064 15.158 4.43934 15.4393C4.15804 15.7206 4 16.1022 4 16.5C4 16.8978 4.15804 17.2794 4.43934 17.5607C4.72064 17.842 5.10218 18 5.5 18ZM18.5 21C17.9091 21 17.3239 20.8836 16.7779 20.6575C16.232 20.4313 15.7359 20.0998 15.318 19.682C14.9002 19.2641 14.5687 18.768 14.3425 18.2221C14.1164 17.6761 14 17.0909 14 16.5C14 15.9091 14.1164 15.3239 14.3425 14.7779C14.5687 14.232 14.9002 13.7359 15.318 13.318C15.7359 12.9002 16.232 12.5687 16.7779 12.3425C17.3239 12.1164 17.9091 12 18.5 12C19.6935 12 20.8381 12.4741 21.682 13.318C22.5259 14.1619 23 15.3065 23 16.5C23 17.6935 22.5259 18.8381 21.682 19.682C20.8381 20.5259 19.6935 21 18.5 21ZM18.5 18C18.8978 18 19.2794 17.842 19.5607 17.5607C19.842 17.2794 20 16.8978 20 16.5C20 16.1022 19.842 15.7206 19.5607 15.4393C19.2794 15.158 18.8978 15 18.5 15C18.1022 15 17.7206 15.158 17.4393 15.4393C17.158 15.7206 17 16.1022 17 16.5C17 16.8978 17.158 17.2794 17.4393 17.5607C17.7206 17.842 18.1022 18 18.5 18ZM11.531 9.797L13 12V18H11V13L8.281 10.734C8.03904 10.5677 7.83666 10.3502 7.68822 10.0969C7.53977 9.84363 7.44892 9.56076 7.4221 9.26841C7.39528 8.97605 7.43315 8.68137 7.53303 8.4053C7.6329 8.12923 7.79233 7.87853 8 7.671L10.828 4.843C11.0137 4.6572 11.2342 4.50981 11.4769 4.40925C11.7197 4.30869 11.9798 4.25693 12.2425 4.25693C12.5052 4.25693 12.7653 4.30869 13.0081 4.40925C13.2508 4.50981 13.4713 4.6572 13.657 4.843L15.071 6.257C16.13 7.31982 17.5038 8.01248 18.988 8.232L18.978 10.247C16.9642 10.0152 15.0884 9.10742 13.657 7.672L11.53 9.797H11.531ZM16 5C15.4696 5 14.9609 4.78929 14.5858 4.41421C14.2107 4.03914 14 3.53043 14 3C14 2.46957 14.2107 1.96086 14.5858 1.58579C14.9609 1.21071 15.4696 1 16 1C16.5304 1 17.0391 1.21071 17.4142 1.58579C17.7893 1.96086 18 2.46957 18 3C18 3.53043 17.7893 4.03914 17.4142 4.41421C17.0391 4.78929 16.5304 5 16 5Z"/></svg>