<svg width="16" height="16" viewBox="0 0 16 16" fill="none" xmlns="http://www.w3.org/2000/svg">
<path d="M3.6665 14C3.27254 14 2.88243 13.9224 2.51845 13.7717C2.15448 13.6209 1.82376 13.3999 1.54518 13.1213C1.26661 12.8428 1.04563 12.512 0.894865 12.1481C0.744101 11.7841 0.666504 11.394 0.666504 11C0.666504 10.6061 0.744101 10.2159 0.894865 9.85197C1.04563 9.48799 1.26661 9.15728 1.54518 8.8787C1.82376 8.60012 2.15448 8.37915 2.51845 8.22838C2.88243 8.07762 3.27254 8.00002 3.6665 8.00002C4.46215 8.00002 5.22521 8.31609 5.78782 8.8787C6.35043 9.44131 6.6665 10.2044 6.6665 11C6.6665 11.7957 6.35043 12.5587 5.78782 13.1213C5.22521 13.6839 4.46215 14 3.6665 14ZM3.6665 12.6667C4.10853 12.6667 4.53245 12.4911 4.84502 12.1785C5.15758 11.866 5.33317 11.442 5.33317 11C5.33317 10.558 5.15758 10.1341 4.84502 9.82151C4.53245 9.50895 4.10853 9.33335 3.6665 9.33335C3.22448 9.33335 2.80055 9.50895 2.48799 9.82151C2.17543 10.1341 1.99984 10.558 1.99984 11C1.99984 11.442 2.17543 11.866 2.48799 12.1785C2.80055 12.4911 3.22448 12.6667 3.6665 12.6667ZM12.3332 14C11.9392 14 11.5491 13.9224 11.1851 13.7717C10.8211 13.6209 10.4904 13.3999 10.2119 13.1213C9.93328 12.8428 9.7123 12.512 9.56153 12.1481C9.41077 11.7841 9.33317 11.394 9.33317 11C9.33317 10.6061 9.41077 10.2159 9.56153 9.85197C9.7123 9.48799 9.93328 9.15728 10.2119 8.8787C10.4904 8.60012 10.8211 8.37915 11.1851 8.22838C11.5491 8.07762 11.9392 8.00002 12.3332 8.00002C13.1288 8.00002 13.8919 8.31609 14.4545 8.8787C15.0171 9.44131 15.3332 10.2044 15.3332 11C15.3332 11.7957 15.0171 12.5587 14.4545 13.1213C13.8919 13.6839 13.1288 14 12.3332 14ZM12.3332 12.6667C12.7752 12.6667 13.1991 12.4911 13.5117 12.1785C13.8242 11.866 13.9998 11.442 13.9998 11C13.9998 10.558 13.8242 10.1341 13.5117 9.82151C13.1991 9.50895 12.7752 9.33335 12.3332 9.33335C11.8911 9.33335 11.4672 9.50895 11.1547 9.82151C10.8421 10.1341 10.6665 10.558 10.6665 11C10.6665 11.442 10.8421 11.866 11.1547 12.1785C11.4672 12.4911 11.8911 12.6667 12.3332 12.6667ZM7.3485 6.87002L8.6665 8.00002V12H7.33317V8.66669L5.5205 7.15602C5.3592 7.04517 5.22427 6.90017 5.12531 6.7313C5.02635 6.56244 4.96578 6.37386 4.9479 6.17896C4.93002 5.98405 4.95527 5.7876 5.02185 5.60355C5.08844 5.4195 5.19473 5.25237 5.33317 5.11402L7.2185 3.22869C7.34232 3.10482 7.48933 3.00656 7.65113 2.93952C7.81294 2.87248 7.98636 2.83797 8.1615 2.83797C8.33665 2.83797 8.51007 2.87248 8.67187 2.93952C8.83368 3.00656 8.98069 3.10482 9.1045 3.22869L10.0472 4.17135C10.7532 4.8799 11.669 5.34167 12.6585 5.48802L12.6518 6.83135C11.3093 6.67679 10.0588 6.07163 9.1045 5.11469L7.3485 6.87002ZM10.6665 3.33335C10.3129 3.33335 9.97374 3.19288 9.7237 2.94283C9.47365 2.69278 9.33317 2.35364 9.33317 2.00002C9.33317 1.6464 9.47365 1.30726 9.7237 1.05721C9.97374 0.807163 10.3129 0.666687 10.6665 0.666687C11.0201 0.666687 11.3593 0.807163 11.6093 1.05721C11.8594 1.30726 11.9998 1.6464 11.9998 2.00002C11.9998 2.35364 11.8594 2.69278 11.6093 2.94283C11.3593 3.19288 11.0201 3.33335 10.6665 3.33335Z" fill="#001018"/>
</svg>
