<svg width="16" height="16" viewBox="0 0 16 16" fill="none" xmlns="http://www.w3.org/2000/svg">
<path d="M3.24883 9.39704L6.55054 12.6988C5.49277 13.1328 4.3066 13.1328 3.24883 12.6988C2.81478 11.641 2.81478 10.4548 3.24883 9.39704ZM10.1771 11.4274L10.0507 13.4393L9.14233 14.3477L1.59985 6.80525L2.50825 5.89686L4.5202 5.77052L7.25671 3.03402C8.89861 1.39212 11.4762 1.17527 13.6419 2.3057C14.7723 4.47133 14.5555 7.04897 12.9136 8.69087L10.1771 11.4274ZM9.14233 6.80525C9.39237 7.0553 9.73151 7.19578 10.0851 7.19578C10.4388 7.19578 10.7779 7.0553 11.0279 6.80525C11.278 6.5552 11.4185 6.21607 11.4185 5.86244C11.4185 5.50882 11.278 5.16968 11.0279 4.91964C10.7779 4.66959 10.4388 4.52911 10.0851 4.52911C9.73151 4.52911 9.39237 4.66959 9.14233 4.91964C8.89228 5.16968 8.7518 5.50882 8.7518 5.86244C8.7518 6.21607 8.89228 6.5552 9.14233 6.80525Z" fill="#001018"/>
</svg>
