<svg viewBox="0 0 24 24" xmlns="http://www.w3.org/2000/svg"><path d="M4.87336 14.0956L9.82594 19.0482C8.23927 19.6993 6.46003 19.6993 4.87336 19.0482C4.22229 17.4615 4.22229 15.6823 4.87336 14.0956ZM15.2657 17.1411L15.0762 20.1591L13.7136 21.5216L2.3999 10.2079L3.7625 8.84535L6.78043 8.65584L10.8852 4.55109C13.348 2.08823 17.2145 1.76296 20.4629 3.45861C22.1586 6.70706 21.8333 10.5735 19.3705 13.0364L15.2657 17.1411ZM13.7136 10.2079C14.0887 10.583 14.5974 10.7937 15.1278 10.7937C15.6583 10.7937 16.167 10.583 16.542 10.2079C16.9171 9.83287 17.1278 9.32416 17.1278 8.79373C17.1278 8.26329 16.9171 7.75459 16.542 7.37951C16.167 7.00444 15.6583 6.79373 15.1278 6.79373C14.5974 6.79373 14.0887 7.00444 13.7136 7.37951C13.3385 7.75459 13.1278 8.26329 13.1278 8.79373C13.1278 9.32416 13.3385 9.83287 13.7136 10.2079Z"/></svg>