<svg width="16" height="16" viewBox="0 0 16 16" fill="none" xmlns="http://www.w3.org/2000/svg">
<path d="M6.55067 12.6988C5.49289 13.1328 4.30673 13.1328 3.24895 12.6988C2.8149 11.641 2.8149 10.4548 3.24895 9.39704L4.31432 10.4624C4.23748 10.8466 4.23654 11.2445 4.31385 11.6339C4.70276 11.7116 5.1011 11.7102 5.48576 11.6339L6.55067 12.6988ZM10.1772 11.4274L10.0508 13.4393L9.14245 14.3477L1.59998 6.80525L2.50837 5.89686L4.52033 5.77052L7.25683 3.03402C8.89873 1.39212 11.4764 1.17527 13.642 2.3057C14.7724 4.47133 14.5556 7.04897 12.9137 8.69087L10.1772 11.4274ZM8.79832 12.118L8.87846 10.8405L11.9709 7.74806C13.0636 6.65535 13.3191 4.91964 12.6403 3.30743C11.0281 2.62861 9.29283 2.88364 8.19964 3.97683L5.10723 7.06924L3.82972 7.14938L8.79832 12.118ZM9.14245 6.80525C8.8924 6.5552 8.75192 6.21607 8.75192 5.86244C8.75192 5.50882 8.8924 5.16968 9.14245 4.91964C9.3925 4.66959 9.73164 4.52911 10.0853 4.52911C10.4389 4.52911 10.778 4.66959 11.0281 4.91964C11.2781 5.16968 11.4186 5.50882 11.4186 5.86244C11.4186 6.21607 11.2781 6.5552 11.0281 6.80525C10.778 7.0553 10.4389 7.19578 10.0853 7.19578C9.73164 7.19578 9.3925 7.0553 9.14245 6.80525Z" fill="#001018"/>
</svg>
