<svg width="24" height="24" viewBox="0 0 24 24" fill="none" xmlns="http://www.w3.org/2000/svg">
<path d="M4.92901 13.207L7.05001 15.328L8.46401 13.914L6.34401 11.793L8.46401 9.672L11.293 12.5L12.707 11.086L9.88001 8.257L12 6.136L14.121 8.257L15.536 6.843L13.414 4.722L16.243 1.893C16.6335 1.50262 17.2665 1.50262 17.657 1.893L22.607 6.843C22.9974 7.2335 22.9974 7.8665 22.607 8.257L7.75701 23.107C7.36651 23.4974 6.73351 23.4974 6.34301 23.107L1.39301 18.157C1.00262 17.7665 1.00262 17.1335 1.39301 16.743L4.92901 13.207Z" fill="#001018"/>
</svg>
