<svg viewBox="0 0 24 24" xmlns="http://www.w3.org/2000/svg"><path fill-rule="evenodd" clip-rule="evenodd" d="M22.607 6.843L17.657 1.893C17.2665 1.50262 16.6335 1.50262 16.243 1.893L1.39301 16.743C1.00262 17.1335 1.00262 17.7665 1.39301 18.157L6.34301 23.107C6.73351 23.4974 7.36651 23.4974 7.75701 23.107L22.607 8.257C22.9974 7.8665 22.9974 7.2335 22.607 6.843ZM3.51501 17.45L6.34301 14.621V14.622L7.75701 16.037L9.17201 14.622L7.75701 13.208L9.87901 11.087L12 13.208L13.414 11.792L11.293 9.672L13.414 7.55L14.828 8.964L16.243 7.55L14.828 6.136L16.95 4.015L20.485 7.55L7.05001 20.985L3.51501 17.45Z"/></svg>