<svg width="16" height="16" viewBox="0 0 16 16" fill="none" xmlns="http://www.w3.org/2000/svg">
<g clip-path="url(#clip0_8413_1589)">
<path d="M6.55342 5.86L5.33342 6.304V8.66667H4.00009V5.36667H4.01009L7.52209 4.088C7.68475 4.026 7.86209 3.99467 8.04342 4.00067C8.40576 4.0097 8.75628 4.1314 9.04625 4.34886C9.33623 4.56631 9.55125 4.8687 9.66142 5.214C9.78542 5.60267 9.89875 5.86533 10.0014 6.002C10.3117 6.41575 10.7141 6.75149 11.1768 6.98258C11.6394 7.21368 12.1496 7.33377 12.6668 7.33333V8.66667C11.9783 8.66742 11.2982 8.51552 10.6755 8.22191C10.0528 7.9283 9.50288 7.50028 9.06542 6.96867L8.60075 9.606L10.0001 10.78V15.3333H8.66675V11.4013L7.15342 10.132L6.66875 12.8833L2.07275 12.0733L2.30475 10.76L5.58742 11.3387L6.55342 5.86ZM9.00009 3.66667C8.64647 3.66667 8.30733 3.52619 8.05728 3.27614C7.80723 3.02609 7.66675 2.68696 7.66675 2.33333C7.66675 1.97971 7.80723 1.64057 8.05728 1.39052C8.30733 1.14048 8.64647 1 9.00009 1C9.35371 1 9.69285 1.14048 9.9429 1.39052C10.1929 1.64057 10.3334 1.97971 10.3334 2.33333C10.3334 2.68696 10.1929 3.02609 9.9429 3.27614C9.69285 3.52619 9.35371 3.66667 9.00009 3.66667Z" fill="#001018"/>
</g>
<defs>
<clipPath id="clip0_8413_1589">
<rect width="16" height="16" fill="white"/>
</clipPath>
</defs>
</svg>
