<svg width="16" height="16" viewBox="0 0 16 16" fill="none" xmlns="http://www.w3.org/2000/svg">
<g clip-path="url(#clip0_8413_1586)">
<path d="M6.5533 5.86L5.3333 6.304V8.66667H3.99997V5.36667H4.00997L7.52197 4.088C7.68463 4.026 7.86196 3.99467 8.0433 4.00067C8.40564 4.0097 8.75616 4.1314 9.04613 4.34886C9.3361 4.56631 9.55112 4.8687 9.6613 5.214C9.7853 5.60267 9.89863 5.86533 10.0013 6.002C10.3116 6.41575 10.714 6.75149 11.1767 6.98258C11.6393 7.21368 12.1495 7.33377 12.6666 7.33333V8.66667C11.9782 8.66742 11.2981 8.51552 10.6754 8.22191C10.0526 7.9283 9.50276 7.50028 9.0653 6.96867L8.67797 9.16667L9.99997 10.4467V15.3333H8.66663V11.3427L7.29997 10.018L6.66863 12.8833L2.07263 12.0733L2.30463 10.76L5.5873 11.3387L6.5533 5.86ZM8.99997 3.66667C8.64634 3.66667 8.3072 3.52619 8.05716 3.27614C7.80711 3.02609 7.66663 2.68696 7.66663 2.33333C7.66663 1.97971 7.80711 1.64057 8.05716 1.39052C8.3072 1.14048 8.64634 1 8.99997 1C9.35359 1 9.69273 1.14048 9.94277 1.39052C10.1928 1.64057 10.3333 1.97971 10.3333 2.33333C10.3333 2.68696 10.1928 3.02609 9.94277 3.27614C9.69273 3.52619 9.35359 3.66667 8.99997 3.66667Z" fill="#001018"/>
</g>
<defs>
<clipPath id="clip0_8413_1586">
<rect width="16" height="16" fill="white"/>
</clipPath>
</defs>
</svg>
