<svg width="16" height="16" fill="none" xmlns="http://www.w3.org/2000/svg"><path fill-rule="evenodd" clip-rule="evenodd" d="M1.333 8a6.667 6.667 0 1 0 13.333 0A6.667 6.667 0 0 0 1.333 8zm10.332-3.875a5.316 5.316 0 0 0-2.998-1.417V4H7.333V2.708a5.295 5.295 0 0 0-2.604 1.079l.914.913-.943.943-.913-.914a5.307 5.307 0 0 0-1.079 2.604H4v1.334H2.708a5.316 5.316 0 0 0 1.417 2.998l2.932-4.608 4.608-2.932zm.21.21L8.943 8.943l-4.608 2.932a5.315 5.315 0 0 0 2.998 1.417V12h1.334v1.292a5.307 5.307 0 0 0 2.604-1.079l-.914-.913.943-.943.913.914a5.306 5.306 0 0 0 1.079-2.604H12V7.333h1.292a5.315 5.315 0 0 0-1.417-2.998z" fill="#001018"/></svg>