<svg width="16" height="16" xmlns="http://www.w3.org/2000/svg"><path d="M11.133 4.533 7.057 7.057l-2.524 4.076-.07-.069-.942.943.472.472.942-.944-.068-.068 4.076-2.524 2.524-4.076.069.069.943-.943-.472-.472-.942.944.069.069zM8 14.667A6.667 6.667 0 1 1 8 1.334a6.667 6.667 0 0 1 0 13.333zM7.667 2v1.333h.666V2h-.666zm0 10.667V14h.666v-1.333h-.666zM5.396 2.584l.51 1.232.616-.255-.51-1.232-.616.255zm4.082 9.855.51 1.232.616-.255-.51-1.232-.616.255zm.51-10.11-.51 1.232.616.255.51-1.232-.616-.255zm-4.081 9.855-.51 1.232.616.255.51-1.232-.616-.255zM14 7.667h-1.333v.666H14v-.666zm-10.667 0H2v.666h1.333v-.666zm10.306 2.41-1.224-.53-.264.612 1.223.53.265-.612zM3.849 5.84l-1.222-.53-.265.612 1.223.53.265-.612zm9.567-.445-1.232.51.255.616 1.232-.51-.255-.616zM3.56 9.478l-1.232.51.255.616 1.232-.51-.255-.616zm8.918 2.529-.944-.943-.471.471.943.944.472-.472zM4.936 4.465l-.943-.944-.472.472.944.943.47-.471zM7.54 7.54l2.408-1.49-1.49 2.407-.918-.917z"/></svg>