<svg width="24" height="24" viewBox="0 0 24 24" fill="none" xmlns="http://www.w3.org/2000/svg">
<path d="M17.812 6.503L13.414 13.414L6.503 17.812C7.73692 18.9821 9.31264 19.727 11 19.938V18H13V19.938C14.424 19.7606 15.7737 19.2016 16.906 18.32L15.536 16.95L16.95 15.536L18.32 16.906C19.2016 15.7737 19.7606 14.424 19.938 13H18V11H19.938C19.727 9.31264 18.9821 7.73692 17.812 6.503ZM17.497 6.188C16.2631 5.0179 14.6874 4.27297 13 4.062V6H11V4.062C9.57595 4.23938 8.22635 4.79843 7.094 5.68L8.464 7.05L7.05 8.464L5.68 7.094C4.79843 8.22635 4.23938 9.57595 4.062 11H6V13H4.062C4.27297 14.6874 5.0179 16.2631 6.188 17.497L10.586 10.586L17.497 6.188ZM12 22C6.477 22 2 17.523 2 12C2 6.477 6.477 2 12 2C17.523 2 22 6.477 22 12C22 17.523 17.523 22 12 22Z" fill="#001018"/>
</svg>
