<svg width="16" height="16" xmlns="http://www.w3.org/2000/svg"><path d="M8.667 1.333v.852L12 3.297l2.421-.806.422 1.264-2.021.674 2.064 5.674A3.99 3.99 0 0 1 12 11.333a3.99 3.99 0 0 1-2.886-1.23l2.063-5.674-2.51-.838v9.076h2.666V14H4.667v-1.333h2.666V3.59l-2.512.838 2.064 5.674A3.988 3.988 0 0 1 4 11.333a3.99 3.99 0 0 1-2.886-1.23L3.177 4.43l-2.02-.674.422-1.265L4 3.297l3.333-1.112v-.852h1.334zM12 6.07l-1.305 3.59c.391.221.838.341 1.305.341.467 0 .913-.12 1.305-.34L12 6.068zm-8 0L2.695 9.66c.391.22.838.34 1.305.34.467 0 .913-.12 1.305-.34L4 6.068z"/></svg>