<svg width="24" height="24" viewBox="0 0 24 24" fill="none" xmlns="http://www.w3.org/2000/svg">
<path fill-rule="evenodd" clip-rule="evenodd" d="M22.314 20.899L18.031 16.617C19.3082 15.0237 20.0029 13.042 20 11C20 6.032 15.968 2 11 2C6.032 2 2 6.032 2 11C2 15.968 6.032 20 11 20C13.042 20.0029 15.0237 19.3082 16.617 18.031L20.899 22.314L22.314 20.899ZM18 11C18.0029 12.8204 17.2941 14.5699 16.025 15.875L15.875 16.025C14.5699 17.2941 12.8204 18.0029 11 18C7.132 18 4 14.867 4 11C4 7.132 7.132 4 11 4C14.867 4 18 7.132 18 11Z" fill="#001018"/>
</svg>
