<svg width="16" height="16" viewBox="0 0 16 16" fill="none" xmlns="http://www.w3.org/2000/svg">
<path fill-rule="evenodd" clip-rule="evenodd" d="M12.0153 11.0728L14.8701 13.9269L13.9269 14.87L11.0728 12.0152C10.0109 12.8666 8.68996 13.3296 7.3289 13.3277C4.01755 13.3277 1.33008 10.6402 1.33008 7.32884C1.33008 4.01749 4.01755 1.33002 7.3289 1.33002C10.6402 1.33002 13.3277 4.01749 13.3277 7.32884C13.3297 8.6899 12.8666 10.0108 12.0153 11.0728ZM10.6782 10.5782C11.5241 9.70829 11.9966 8.54222 11.9946 7.32884C11.9946 4.75068 9.90639 2.66309 7.3289 2.66309C4.75074 2.66309 2.66315 4.75068 2.66315 7.32884C2.66315 9.90633 4.75074 11.9946 7.3289 11.9946C8.54228 11.9965 9.70835 11.5241 10.5783 10.6782L10.6782 10.5782ZM7.3289 10.6615C9.16948 10.6615 10.6616 9.16942 10.6616 7.32884C10.6616 5.48825 9.16948 3.99616 7.3289 3.99616C5.48831 3.99616 3.99622 5.48825 3.99622 7.32884C3.99622 9.16942 5.48831 10.6615 7.3289 10.6615Z" fill="#001018"/>
</svg>
