<svg width="16" height="16" viewBox="0 0 16 16" fill="none" xmlns="http://www.w3.org/2000/svg">
<path fill-rule="evenodd" clip-rule="evenodd" d="M14.876 13.9326L12.0207 11.078C12.8722 10.0158 13.3353 8.69465 13.3334 7.33331C13.3334 4.02131 10.6454 1.33331 7.33337 1.33331C4.02137 1.33331 1.33337 4.02131 1.33337 7.33331C1.33337 10.6453 4.02137 13.3333 7.33337 13.3333C8.69471 13.3352 10.0159 12.8721 11.078 12.0206L13.9327 14.876L14.876 13.9326ZM12 7.33331C12.002 8.54693 11.5294 9.71324 10.6834 10.5833L10.5834 10.6833C9.7133 11.5294 8.54699 12.0019 7.33337 12C4.75471 12 2.66671 9.91131 2.66671 7.33331C2.66671 4.75465 4.75471 2.66665 7.33337 2.66665C9.91137 2.66665 12 4.75465 12 7.33331Z" fill="#001018"/>
</svg>
