<svg width="16" height="16" viewBox="0 0 16 16" fill="none" xmlns="http://www.w3.org/2000/svg">
<path fill-rule="evenodd" clip-rule="evenodd" d="M14.876 13.9327L12.0207 11.078C12.8721 10.0158 13.3353 8.69467 13.3333 7.33333C13.3333 4.02133 10.6453 1.33333 7.33333 1.33333C4.02133 1.33333 1.33333 4.02133 1.33333 7.33333C1.33333 10.6453 4.02133 13.3333 7.33333 13.3333C8.69467 13.3353 10.0158 12.8721 11.078 12.0207L13.9327 14.876L14.876 13.9327ZM12 7.33333C12.0019 8.54695 11.5294 9.71326 10.6833 10.5833L10.5833 10.6833C9.71326 11.5294 8.54695 12.0019 7.33333 12C4.75467 12 2.66667 9.91133 2.66667 7.33333C2.66667 4.75467 4.75467 2.66667 7.33333 2.66667C9.91133 2.66667 12 4.75467 12 7.33333Z" fill="#001018"/>
</svg>
