<svg width="16" height="16" viewBox="0 0 16 16" fill="none" xmlns="http://www.w3.org/2000/svg">
<path d="M7.33333 1.33334L12.1987 2.85334C12.4772 2.94029 12.6668 3.19824 12.6667 3.49001V4.66668H14C14.3682 4.66668 14.6667 4.96515 14.6667 5.33334V6.66668H6V5.33334C6 4.96515 6.29848 4.66668 6.66667 4.66668H11.3333V3.98001L7.33333 2.72934L3.33333 3.98001V8.91601C3.33314 9.74321 3.71684 10.5237 4.372 11.0287L4.498 11.1193L7.33333 13.0533L9.85467 11.3333H6.66667C6.29848 11.3333 6 11.0349 6 10.6667V8.00001H14.6667V10.6667C14.6667 11.0349 14.3682 11.3333 14 11.3333L11.8533 11.334C11.5953 11.674 11.282 11.974 10.92 12.2207L7.33333 14.6667L3.74667 12.2213C2.65372 11.4762 1.99986 10.2388 2 8.91601V3.49001C2.00016 3.19849 2.18972 2.94088 2.468 2.85401L7.33333 1.33334Z" fill="#001018"/>
</svg>
