<svg width="16" height="16" fill="none" xmlns="http://www.w3.org/2000/svg"><path d="m7.333 1.333 4.866 1.52a.667.667 0 0 1 .468.637v1.177H14a.667.667 0 0 1 .667.666v5.334a.667.667 0 0 1-.667.666l-2.147.001c-.258.34-.571.64-.933.887l-3.587 2.446-3.586-2.446A4 4 0 0 1 2 8.916V3.49a.667.667 0 0 1 .468-.636l4.865-1.52zm0 1.396-4 1.251v4.936a2.667 2.667 0 0 0 1.039 2.113l.126.09 2.835 1.934 2.522-1.72H6.667A.667.667 0 0 1 6 10.667V5.333a.667.667 0 0 1 .667-.666h4.666V3.98l-4-1.25zm0 5.271v2h6V8h-6zm0-1.333h6V6h-6v.667z" fill="#001018"/></svg>