<svg width="16" height="16" viewBox="0 0 16 16" fill="none" xmlns="http://www.w3.org/2000/svg">
<g clip-path="url(#clip0_8803_1567)">
<path d="M4.4 2.46628C6.494 2.46628 8.2298 4.02706 8.5478 6.06878C9.2528 5.35317 10.226 4.91073 11.3 4.91073H14V6.43851C14 8.63239 12.254 10.4107 10.1 10.4107H8.6V13.4663H7.4V8.57739H6.2C3.8804 8.57739 2 6.66217 2 4.29962V2.46628H4.4ZM12.8 6.13295H11.3C9.809 6.13295 8.6 7.36434 8.6 8.88295V9.18851H10.1C11.591 9.18851 12.8 7.95712 12.8 6.43851V6.13295ZM4.4 3.68851H3.2V4.29962C3.2 5.98689 4.5434 7.35517 6.2 7.35517H7.4V6.74406C7.4 5.05678 6.0566 3.68851 4.4 3.68851Z" fill="#001018"/>
<path d="M10.0193 3.77165C9.72457 4.18187 9.15307 4.27546 8.74286 3.98069C8.33264 3.68593 8.23905 3.11443 8.53381 2.70422C8.82858 2.294 9.43071 2.08353 10.1661 2C10.2919 2.51692 10.3141 3.36144 10.0193 3.77165Z" fill="#001018"/>
</g>
<defs>
<clipPath id="clip0_8803_1567">
<rect width="16" height="16" fill="white"/>
</clipPath>
</defs>
</svg>
