<svg width="16" height="16" viewBox="0 0 16 16" fill="none" xmlns="http://www.w3.org/2000/svg">
<g clip-path="url(#clip0_8803_1564)">
<path d="M4.4 3C6.494 3 8.2298 4.56078 8.5478 6.6025C9.2528 5.88689 10.226 5.44444 11.3 5.44444H14V6.97222C14 9.16611 12.254 10.9444 10.1 10.9444H8.6V14H7.4V9.11111H6.2C3.8804 9.11111 2 7.19589 2 4.83333V3H4.4ZM12.8 6.66667H11.3C9.809 6.66667 8.6 7.89806 8.6 9.41667V9.72222H10.1C11.591 9.72222 12.8 8.49083 12.8 6.97222V6.66667ZM4.4 4.22222H3.2V4.83333C3.2 6.52061 4.5434 7.88889 6.2 7.88889H7.4V7.27778C7.4 5.5905 6.0566 4.22222 4.4 4.22222Z" fill="#001018"/>
</g>
<defs>
<clipPath id="clip0_8803_1564">
<rect width="16" height="16" fill="white"/>
</clipPath>
</defs>
</svg>
