<svg width="16" height="16" viewBox="0 0 16 16" fill="none" xmlns="http://www.w3.org/2000/svg">
<g clip-path="url(#clip0_8803_1576)">
<path d="M14 4.91073V6.43851C14 8.63239 12.254 10.4107 10.1 10.4107H8.6V13.4663H7.4V9.18851L7.4114 8.57739C7.5644 6.52651 9.2474 4.91073 11.3 4.91073H14ZM4.4 2.46628C6.2552 2.46628 7.8296 3.69156 8.3858 5.39106C7.4858 6.17023 6.8918 7.30262 6.8096 8.57739H6.2C3.8804 8.57739 2 6.66217 2 4.29962V2.46628H4.4Z" fill="#001018"/>
<path d="M10.0193 3.77165C9.72457 4.18187 9.15307 4.27546 8.74286 3.98069C8.33264 3.68593 8.23905 3.11443 8.53381 2.70422C8.82858 2.294 9.43071 2.08353 10.1661 2C10.2919 2.51692 10.3141 3.36144 10.0193 3.77165Z" fill="#001018"/>
</g>
<defs>
<clipPath id="clip0_8803_1576">
<rect width="16" height="16" fill="white"/>
</clipPath>
</defs>
</svg>
