<svg width="24" height="24" viewBox="0 0 24 24" fill="none" xmlns="http://www.w3.org/2000/svg">
<path d="M6 4.00001C9.49 4.00001 12.383 6.55401 12.913 9.89501C14.088 8.72401 15.71 8.00001 17.5 8.00001H22V10.5C22 14.09 19.09 17 15.5 17H13V22H11V14H9C5.134 14 2 10.866 2 7.00001V4.00001H6ZM20 10H17.5C15.015 10 13 12.015 13 14.5V15H15.5C17.985 15 20 12.985 20 10.5V10ZM6 6.00001H4V7.00001C4 9.76101 6.239 12 9 12H11V11C11 8.23901 8.761 6.00001 6 6.00001Z" fill="#001018"/>
<path d="M15.6729 6.29206C15.1252 7.05432 14.0632 7.22823 13.301 6.68051C12.5387 6.13278 12.3648 5.07083 12.9125 4.30857C13.4602 3.54631 14.5791 3.15521 15.9456 3C16.1794 3.96054 16.2206 5.52981 15.6729 6.29206Z" fill="#001018"/>
</svg>
