<svg width="16" height="16" viewBox="0 0 16 16" xmlns="http://www.w3.org/2000/svg"><path d="M7.3565 13.3333C4.40202 13.3333 2.00695 10.9455 2.00695 7.99998C2.00695 5.05446 4.40202 2.66665 7.3565 2.66665C10.311 2.66665 12.7061 5.05446 12.7061 7.99998C12.7061 8.70498 12.5689 9.37803 12.3196 9.99404H13.7392C13.9369 9.36441 14.0435 8.6946 14.0435 7.99998C14.0435 4.31808 11.0496 1.33331 7.3565 1.33331C3.6634 1.33331 0.669556 4.31808 0.669556 7.99998C0.669556 11.6819 3.6634 14.6666 7.3565 14.6666C7.97221 14.6666 8.56848 14.5837 9.13468 14.4284V13.0316C8.57836 13.227 7.97988 13.3333 7.3565 13.3333Z"/><path d="M14.3185 10.7009L15.3362 11.6552L12.1455 14.6492L9.95798 12.5966L10.9752 11.6421L12.1455 12.7401L14.3185 10.7009Z"/><path d="M5.5615 5.66665C6.35854 5.66665 6.91562 5.76466 7.43833 6.22412C7.81374 6.55322 8.05111 6.99958 8.13626 7.5467L8.136 5.66665H10.8672V6.69328L9.36463 6.69494V7.45736L10.6657 7.45623V8.45979L9.36463 8.46108V9.30691H10.8672V10.3302H8.136L8.13636 8.46975C8.05241 8.98013 7.81944 9.41161 7.4439 9.75575C6.90846 10.2406 6.43561 10.3333 5.72968 10.3333H3.84586V5.66665H5.5615ZM5.5615 6.67015H5.07399V9.30843H5.56707C6.50672 9.30843 6.95082 8.90241 6.95082 7.98408C6.95082 7.14379 6.46332 6.67015 5.5615 6.67015Z"/></svg>