<svg width="16" height="16" xmlns="http://www.w3.org/2000/svg"><path d="M7.357 13.333c-2.955 0-5.35-2.388-5.35-5.333 0-2.946 2.395-5.333 5.35-5.333 2.954 0 5.35 2.387 5.35 5.333a5.31 5.31 0 0 1-.387 1.994h1.42a6.672 6.672 0 0 0-6.383-8.661C3.663 1.333.67 4.318.67 8s2.993 6.667 6.687 6.667c.615 0 1.212-.083 1.778-.239v-1.396a5.356 5.356 0 0 1-1.778.301z"/><path d="m14.319 10.7 1.017.955-3.19 2.994-2.188-2.052 1.017-.955 1.17 1.098 2.174-2.04zM5.562 5.667c.797 0 1.354.098 1.876.557.376.33.613.776.698 1.323v-1.88h2.731v1.026l-1.502.002v.762h1.3V8.46l-1.3.001v.846h1.502v1.023h-2.73V8.47c-.085.51-.318.942-.693 1.286-.535.485-1.008.577-1.714.577H3.846V5.667h1.716zm0 1.003h-.488v2.638h.493c.94 0 1.384-.406 1.384-1.324 0-.84-.488-1.314-1.39-1.314z"/></svg>