<svg width="16" height="16" viewBox="0 0 16 16" fill="none" xmlns="http://www.w3.org/2000/svg">
<path d="M2 8.66667H6V7.33333H2V1.23067C2.00001 1.17274 2.01511 1.11582 2.04382 1.06552C2.07253 1.01521 2.11385 0.973247 2.16372 0.943773C2.21358 0.914299 2.27027 0.898327 2.32818 0.897432C2.3861 0.896537 2.44325 0.910749 2.494 0.938669L14.802 7.708C14.8543 7.73678 14.8978 7.77905 14.9282 7.83041C14.9586 7.88177 14.9746 7.94034 14.9746 8C14.9746 8.05966 14.9586 8.11823 14.9282 8.16959C14.8978 8.22095 14.8543 8.26323 14.802 8.292L2.494 15.0613C2.44325 15.0893 2.3861 15.1035 2.32818 15.1026C2.27027 15.1017 2.21358 15.0857 2.16372 15.0562C2.11385 15.0268 2.07253 14.9848 2.04382 14.9345C2.01511 14.8842 2.00001 14.8273 2 14.7693V8.66667Z" fill="#001018"/>
</svg>
