<svg width="24" height="24" viewBox="0 0 24 24" fill="none" xmlns="http://www.w3.org/2000/svg">
<path d="M3.741 1.408L22.203 11.562C22.2814 11.6052 22.3468 11.6686 22.3923 11.7456C22.4378 11.8227 22.4618 11.9105 22.4618 12C22.4618 12.0895 22.4378 12.1773 22.3923 12.2544C22.3468 12.3314 22.2814 12.3948 22.203 12.438L3.741 22.592C3.66487 22.6339 3.57915 22.6552 3.49227 22.6539C3.4054 22.6525 3.32037 22.6286 3.24558 22.5843C3.17078 22.5401 3.1088 22.4772 3.06573 22.4017C3.02267 22.3263 3.00001 22.2409 3 22.154V1.846C3.00001 1.75911 3.02267 1.67373 3.06573 1.59827C3.1088 1.52281 3.17078 1.45987 3.24558 1.41566C3.32037 1.37144 3.4054 1.34749 3.49227 1.34614C3.57915 1.3448 3.66487 1.36612 3.741 1.408ZM5 13V19.617L18.85 12L5 4.383V11H10V13H5Z" fill="#001018"/>
</svg>
