<svg width="16" height="16" viewBox="0 0 16 16" fill="none" xmlns="http://www.w3.org/2000/svg">
<path d="M2.22179 11.3307C1.93999 10.8434 1.72093 10.3224 1.56982 9.7801C1.89868 9.61284 2.17486 9.35787 2.3678 9.0434C2.56075 8.72893 2.66294 8.36721 2.66308 7.99826C2.66322 7.62932 2.5613 7.26753 2.36858 6.95291C2.17587 6.63829 1.89989 6.38312 1.57116 6.21561C1.8725 5.12599 2.44626 4.13102 3.2384 3.32443C3.54778 3.52557 3.90678 3.63719 4.27567 3.64693C4.64456 3.65668 5.00895 3.56417 5.32852 3.37965C5.64808 3.19513 5.91037 2.92578 6.08634 2.60143C6.26231 2.27707 6.34511 1.91036 6.32558 1.54186C7.42026 1.25895 8.56895 1.25941 9.6634 1.54319C9.64404 1.91168 9.727 2.27834 9.90311 2.60261C10.0792 2.92687 10.3416 3.19609 10.6612 3.38047C10.9809 3.56485 11.3453 3.65721 11.7141 3.64732C12.083 3.63742 12.442 3.52567 12.7512 3.32443C13.1372 3.71774 13.4799 4.16505 13.7679 4.66436C14.0565 5.16367 14.2725 5.68431 14.4198 6.21495C14.091 6.38221 13.8148 6.63717 13.6218 6.95165C13.4289 7.26612 13.3267 7.62783 13.3266 7.99678C13.3264 8.36572 13.4284 8.72752 13.6211 9.04213C13.8138 9.35675 14.0898 9.61192 14.4185 9.77943C14.1171 10.869 13.5434 11.864 12.7512 12.6706C12.4419 12.4695 12.0829 12.3579 11.714 12.3481C11.3451 12.3384 10.9807 12.4309 10.6611 12.6154C10.3416 12.7999 10.0793 13.0693 9.90331 13.3936C9.72733 13.718 9.64453 14.0847 9.66407 14.4532C8.56939 14.7361 7.4207 14.7356 6.32624 14.4519C6.34561 14.0834 6.26265 13.7167 6.08654 13.3924C5.91043 13.0682 5.64804 12.799 5.32841 12.6146C5.00878 12.4302 4.64437 12.3378 4.2755 12.3477C3.90663 12.3576 3.5477 12.4694 3.2384 12.6706C2.84442 12.2686 2.50284 11.8184 2.22179 11.3307V11.3307ZM5.99493 11.4613C6.70531 11.8711 7.23943 12.5286 7.49485 13.3079C7.8275 13.3392 8.16148 13.3399 8.49413 13.3086C8.74972 12.5292 9.28409 11.8716 9.99472 11.462C10.7048 11.0512 11.5417 10.917 12.3446 11.0854C12.5379 10.8134 12.7046 10.5234 12.8432 10.2201C12.2962 9.60906 11.994 8.81762 11.9946 7.99752C11.9946 7.15757 12.3079 6.37294 12.8432 5.77497C12.7036 5.47175 12.5362 5.18209 12.3433 4.90968C11.5408 5.07788 10.7045 4.944 9.99472 4.5337C9.28434 4.12397 8.75022 3.46641 8.4948 2.68713C8.16215 2.6558 7.82817 2.65513 7.49552 2.68646C7.23993 3.46585 6.70556 4.12343 5.99493 4.53303C5.28482 4.94389 4.44799 5.07802 3.64505 4.90968C3.4521 5.18186 3.28516 5.47156 3.14641 5.77497C3.69343 6.38598 3.99562 7.17742 3.99503 7.99752C3.99503 8.83748 3.68171 9.6221 3.14641 10.2201C3.28605 10.5233 3.45342 10.813 3.64638 11.0854C4.44882 10.9172 5.2851 11.051 5.99493 11.4613ZM7.99482 9.99742C7.46442 9.99742 6.95574 9.78672 6.58068 9.41166C6.20563 9.03661 5.99493 8.52793 5.99493 7.99752C5.99493 7.46712 6.20563 6.95843 6.58068 6.58338C6.95574 6.20833 7.46442 5.99763 7.99482 5.99763C8.52523 5.99763 9.03391 6.20833 9.40896 6.58338C9.78402 6.95843 9.99472 7.46712 9.99472 7.99752C9.99472 8.52793 9.78402 9.03661 9.40896 9.41166C9.03391 9.78672 8.52523 9.99742 7.99482 9.99742ZM7.99482 8.66415C8.17163 8.66415 8.34119 8.59392 8.4662 8.4689C8.59122 8.34388 8.66146 8.17432 8.66146 7.99752C8.66146 7.82072 8.59122 7.65116 8.4662 7.52614C8.34119 7.40112 8.17163 7.33089 7.99482 7.33089C7.81802 7.33089 7.64846 7.40112 7.52344 7.52614C7.39843 7.65116 7.32819 7.82072 7.32819 7.99752C7.32819 8.17432 7.39843 8.34388 7.52344 8.4689C7.64846 8.59392 7.81802 8.66415 7.99482 8.66415V8.66415Z" fill="#001018"/>
</svg>
