<svg width="16" height="16" fill="none" xmlns="http://www.w3.org/2000/svg"><path d="M2.222 11.33a6.68 6.68 0 0 1-.652-1.55 2 2 0 0 0 .001-3.564 6.66 6.66 0 0 1 1.667-2.892 2 2 0 0 0 3.088-1.782 6.66 6.66 0 0 1 3.337.001 2 2 0 0 0 3.088 1.781 6.69 6.69 0 0 1 1.669 2.89 2 2 0 0 0-.002 3.565 6.66 6.66 0 0 1-1.667 2.892 2 2 0 0 0-3.087 1.782 6.66 6.66 0 0 1-3.338-.001 2 2 0 0 0-3.088-1.781 6.678 6.678 0 0 1-1.016-1.34zm3.773.131a3.329 3.329 0 0 1 1.5 1.847c.332.031.666.032 1 0a3.33 3.33 0 0 1 1.5-1.846 3.328 3.328 0 0 1 2.35-.377c.193-.272.36-.562.498-.865a3.329 3.329 0 0 1-.848-2.223c0-.84.313-1.624.848-2.222a5.419 5.419 0 0 0-.5-.865 3.328 3.328 0 0 1-3.848-2.223 5.324 5.324 0 0 0-1 0 3.329 3.329 0 0 1-1.5 1.846c-.71.41-1.547.545-2.35.377a5.35 5.35 0 0 0-.499.865c.547.611.85 1.402.849 2.222 0 .84-.313 1.625-.849 2.223.14.303.307.593.5.865a3.328 3.328 0 0 1 2.349.376zm2-1.464a2 2 0 1 1 0-4 2 2 0 0 1 0 4zm0-1.333a.667.667 0 1 0 0-1.333.667.667 0 0 0 0 1.333z" fill="#001018"/></svg>