<svg width="16" height="16" fill="none" xmlns="http://www.w3.org/2000/svg"><path fill-rule="evenodd" clip-rule="evenodd" d="M1.575 9.783c.15.542.37 1.063.652 1.55.28.488.622.938 1.016 1.34a2 2 0 0 1 3.088 1.782 6.66 6.66 0 0 0 3.338.001 2 2 0 0 1 3.088-1.783 6.66 6.66 0 0 0 1.667-2.891 2 2 0 0 1 .001-3.565 6.645 6.645 0 0 0-.652-1.55 6.66 6.66 0 0 0-1.016-1.34 2 2 0 0 1-3.088-1.782 6.66 6.66 0 0 0-3.338-.001 2 2 0 0 1-3.088 1.783 6.66 6.66 0 0 0-1.667 2.891 2 2 0 0 1-.001 3.565zM7.5 13.31a3.328 3.328 0 0 0-3.849-2.223 5.417 5.417 0 0 1-.5-.865A3.327 3.327 0 0 0 4 8c0-.82-.302-1.612-.849-2.223.14-.303.306-.593.499-.865A3.33 3.33 0 0 0 6 4.535 3.329 3.329 0 0 0 7.5 2.69a5.303 5.303 0 0 1 1 0 3.329 3.329 0 0 0 3.849 2.223c.193.272.36.562.5.865A3.327 3.327 0 0 0 12 8c0 .82.302 1.612.849 2.223a5.295 5.295 0 0 1-.499.865 3.328 3.328 0 0 0-2.35.377 3.329 3.329 0 0 0-1.5 1.846 5.303 5.303 0 0 1-1 0zM8 10a2 2 0 1 1 0-4 2 2 0 0 1 0 4zm.667-2a.667.667 0 1 1-1.334 0 .667.667 0 0 1 1.334 0z" fill="#001018"/></svg>