<svg width="16" height="16" viewBox="0 0 16 16" fill="none" xmlns="http://www.w3.org/2000/svg">
<path d="M8.7466 11.3487L5.94727 9.82199C5.5818 10.2127 5.10726 10.4844 4.58532 10.6019C4.06337 10.7194 3.51817 10.6771 3.02055 10.4807C2.52293 10.2842 2.09591 9.94263 1.79498 9.50029C1.49405 9.05795 1.33313 8.53532 1.33313 8.00033C1.33313 7.46533 1.49405 6.9427 1.79498 6.50036C2.09591 6.05802 2.52293 5.71643 3.02055 5.51997C3.51817 5.32351 4.06337 5.28127 4.58532 5.39874C5.10726 5.5162 5.5818 5.78795 5.94727 6.17866L8.74727 4.65199C8.5883 4.02271 8.6643 3.35705 8.96102 2.77979C9.25774 2.20254 9.75481 1.75331 10.359 1.51633C10.9633 1.27934 11.6332 1.27086 12.2433 1.49248C12.8533 1.7141 13.3616 2.1506 13.6728 2.72017C13.984 3.28973 14.0769 3.95325 13.9339 4.58636C13.7909 5.21946 13.4219 5.77868 12.8961 6.1592C12.3703 6.53972 11.7237 6.7154 11.0777 6.65332C10.4316 6.59124 9.83034 6.29567 9.3866 5.82199L6.5866 7.34866C6.69407 7.77623 6.69407 8.22375 6.5866 8.65133L9.38593 10.178C9.82967 9.70432 10.4309 9.40874 11.077 9.34666C11.7231 9.28459 12.3696 9.46027 12.8954 9.84079C13.4212 10.2213 13.7902 10.7805 13.9332 11.4136C14.0762 12.0467 13.9834 12.7103 13.6721 13.2798C13.3609 13.8494 12.8526 14.2859 12.2426 14.5075C11.6325 14.7291 10.9626 14.7206 10.3584 14.4837C9.75414 14.2467 9.25707 13.7974 8.96036 13.2202C8.66364 12.6429 8.58764 11.9773 8.7466 11.348V11.3487ZM3.99993 9.33333C4.35356 9.33333 4.69269 9.19285 4.94274 8.9428C5.19279 8.69275 5.33327 8.35361 5.33327 7.99999C5.33327 7.64637 5.19279 7.30723 4.94274 7.05718C4.69269 6.80714 4.35356 6.66666 3.99993 6.66666C3.64631 6.66666 3.30717 6.80714 3.05712 7.05718C2.80708 7.30723 2.6666 7.64637 2.6666 7.99999C2.6666 8.35361 2.80708 8.69275 3.05712 8.9428C3.30717 9.19285 3.64631 9.33333 3.99993 9.33333V9.33333ZM11.3333 5.33333C11.6869 5.33333 12.026 5.19285 12.2761 4.9428C12.5261 4.69275 12.6666 4.35362 12.6666 3.99999C12.6666 3.64637 12.5261 3.30723 12.2761 3.05718C12.026 2.80714 11.6869 2.66666 11.3333 2.66666C10.9796 2.66666 10.6405 2.80714 10.3905 3.05718C10.1404 3.30723 9.99993 3.64637 9.99993 3.99999C9.99993 4.35362 10.1404 4.69275 10.3905 4.9428C10.6405 5.19285 10.9796 5.33333 11.3333 5.33333V5.33333ZM11.3333 13.3333C11.6869 13.3333 12.026 13.1929 12.2761 12.9428C12.5261 12.6928 12.6666 12.3536 12.6666 12C12.6666 11.6464 12.5261 11.3072 12.2761 11.0572C12.026 10.8071 11.6869 10.6667 11.3333 10.6667C10.9796 10.6667 10.6405 10.8071 10.3905 11.0572C10.1404 11.3072 9.99993 11.6464 9.99993 12C9.99993 12.3536 10.1404 12.6928 10.3905 12.9428C10.6405 13.1929 10.9796 13.3333 11.3333 13.3333V13.3333Z" fill="#001018"/>
</svg>
