<svg width="16" height="16" viewBox="0 0 16 16" fill="none" xmlns="http://www.w3.org/2000/svg">
<path d="M8 10.1073C8.34225 10.1073 8.61245 9.82872 8.61245 9.50173V3.48875L8.56441 2.59256L8.91266 3.04671L9.69924 3.89446C9.80731 4.01557 9.95742 4.07612 10.1075 4.07612C10.4017 4.07612 10.6479 3.85813 10.6479 3.54931C10.6479 3.39187 10.5879 3.27076 10.4798 3.16176L8.47435 1.21799C8.31223 1.06055 8.16212 1 8 1C7.83788 1 7.68177 1.06055 7.52566 1.21799L5.5202 3.16176C5.40611 3.27076 5.34607 3.39187 5.34607 3.54931C5.34607 3.85813 5.59225 4.07612 5.88646 4.07612C6.03657 4.07612 6.19269 4.01557 6.29476 3.89446L7.08734 3.04671L7.43559 2.59256L7.38155 3.48875V9.50173C7.38155 9.82872 7.65775 10.1073 8 10.1073ZM4.53548 15H11.4645C12.7975 15 13.5 14.2915 13.5 12.9654V7.06747C13.5 5.74135 12.7975 5.03287 11.4645 5.03287H9.87336V6.38322H11.3504C11.8728 6.38322 12.161 6.65571 12.161 7.20675V12.8261C12.161 13.3832 11.8728 13.6497 11.3504 13.6497H4.64956C4.12118 13.6497 3.83897 13.3832 3.83897 12.8261V7.20675C3.83897 6.65571 4.12118 6.38322 4.64956 6.38322H6.14465V5.03287H4.53548C3.20852 5.03287 2.5 5.74135 2.5 7.06747V12.9654C2.5 14.2976 3.20852 15 4.53548 15Z" fill="#001018"/>
</svg>
