<svg width="16" height="16" viewBox="0 0 16 16" fill="none" xmlns="http://www.w3.org/2000/svg">
<path d="M9.0508 11.514L5.64413 9.65599C5.31713 9.98059 4.90134 10.2011 4.44919 10.2897C3.99704 10.3784 3.52877 10.3312 3.10342 10.1541C2.67806 9.97695 2.31466 9.67787 2.05903 9.29453C1.80341 8.91119 1.66699 8.46075 1.66699 7.99999C1.66699 7.53924 1.80341 7.0888 2.05903 6.70545C2.31466 6.32211 2.67806 6.02304 3.10342 5.84593C3.52877 5.66882 3.99704 5.6216 4.44919 5.71024C4.90134 5.79888 5.31713 6.01939 5.64413 6.34399L9.0508 4.48599C8.93396 3.93782 9.01835 3.3659 9.28853 2.87483C9.55871 2.38376 9.99663 2.00635 10.5222 1.81161C11.0478 1.61688 11.6259 1.61784 12.1508 1.81432C12.6757 2.01079 13.1124 2.38965 13.3809 2.88162C13.6495 3.37358 13.732 3.94578 13.6133 4.49356C13.4947 5.04135 13.1828 5.52812 12.7347 5.86486C12.2867 6.2016 11.7324 6.36581 11.1732 6.32746C10.614 6.28911 10.0874 6.05075 9.68947 5.65599L6.2828 7.51399C6.35076 7.83443 6.35076 8.16556 6.2828 8.48599L9.68947 10.344C10.0874 9.94923 10.614 9.71088 11.1732 9.67253C11.7324 9.63418 12.2867 9.79838 12.7347 10.1351C13.1828 10.4719 13.4947 10.9586 13.6133 11.5064C13.732 12.0542 13.6495 12.6264 13.3809 13.1184C13.1124 13.6103 12.6757 13.9892 12.1508 14.1857C11.6259 14.3821 11.0478 14.3831 10.5222 14.1884C9.99663 13.9936 9.55871 13.6162 9.28853 13.1252C9.01835 12.6341 8.93396 12.0622 9.0508 11.514V11.514Z" fill="#001018"/>
</svg>
