<svg viewBox="0 0 24 24" xmlns="http://www.w3.org/2000/svg"><path d="M12 15.0104C12.4978 15.0104 12.8908 14.6125 12.8908 14.1453V5.55536L12.821 4.27509L13.3275 4.92388L14.4716 6.13495C14.6288 6.30796 14.8472 6.39446 15.0655 6.39446C15.4935 6.39446 15.8515 6.08305 15.8515 5.64187C15.8515 5.41696 15.7642 5.24394 15.607 5.08824L12.69 2.31142C12.4541 2.08651 12.2358 2 12 2C11.7642 2 11.5371 2.08651 11.31 2.31142L8.39301 5.08824C8.22707 5.24394 8.13974 5.41696 8.13974 5.64187C8.13974 6.08305 8.49782 6.39446 8.92576 6.39446C9.1441 6.39446 9.37118 6.30796 9.51965 6.13495L10.6725 4.92388L11.179 4.27509L11.1004 5.55536V14.1453C11.1004 14.6125 11.5022 15.0104 12 15.0104ZM6.9607 22H17.0393C18.9782 22 20 20.9879 20 19.0934V10.6678C20 8.77336 18.9782 7.76125 17.0393 7.76125H14.7249V9.69031H16.8734C17.6332 9.69031 18.0524 10.0796 18.0524 10.8668V18.8945C18.0524 19.6903 17.6332 20.0709 16.8734 20.0709H7.12664C6.35808 20.0709 5.9476 19.6903 5.9476 18.8945V10.8668C5.9476 10.0796 6.35808 9.69031 7.12664 9.69031H9.30131V7.76125H6.9607C5.03057 7.76125 4 8.77336 4 10.6678V19.0934C4 20.9965 5.03057 22 6.9607 22Z"/></svg>