<svg viewBox="0 0 24 24" xmlns="http://www.w3.org/2000/svg"><path d="M13.576 17.271L8.46596 14.484C7.97545 14.9709 7.35177 15.3017 6.67355 15.4346C5.99532 15.5676 5.29292 15.4968 4.65488 15.2311C4.01685 14.9654 3.47175 14.5168 3.08831 13.9418C2.70486 13.3668 2.50024 12.6911 2.50024 12C2.50024 11.3089 2.70486 10.6332 3.08831 10.0582C3.47175 9.48317 4.01685 9.03455 4.65488 8.76889C5.29292 8.50322 5.99532 8.43241 6.67355 8.56536C7.35177 8.69832 7.97545 9.02909 8.46596 9.51599L13.576 6.72899C13.4007 5.90672 13.5273 5.04885 13.9326 4.31224C14.3378 3.57563 14.9947 3.00952 15.7831 2.71742C16.5714 2.42532 17.4386 2.42676 18.226 2.72147C19.0134 3.01619 19.6683 3.58448 20.0712 4.32243C20.474 5.06037 20.5977 5.91866 20.4197 6.74034C20.2418 7.56202 19.7739 8.29218 19.1019 8.79729C18.4298 9.3024 17.5983 9.54871 16.7596 9.49119C15.9208 9.43366 15.1308 9.07613 14.534 8.48399L9.42396 11.271C9.52589 11.7516 9.52589 12.2483 9.42396 12.729L14.534 15.516C15.1308 14.9238 15.9208 14.5663 16.7596 14.5088C17.5983 14.4513 18.4298 14.6976 19.1019 15.2027C19.7739 15.7078 20.2418 16.438 20.4197 17.2596C20.5977 18.0813 20.474 18.9396 20.0712 19.6776C19.6683 20.4155 19.0134 20.9838 18.226 21.2785C17.4386 21.5732 16.5714 21.5747 15.7831 21.2826C14.9947 20.9905 14.3378 20.4243 13.9326 19.6877C13.5273 18.9511 13.4007 18.0933 13.576 17.271Z"/></svg>