<svg width="16" height="16" viewBox="0 0 16 16" fill="none" xmlns="http://www.w3.org/2000/svg">
<path fill-rule="evenodd" clip-rule="evenodd" d="M8 0.666668L13.478 1.884C13.7827 1.952 14 2.222 14 2.53467V9.19267C14 10.53 13.3313 11.7793 12.2187 12.5207L8 15.3333L3.78133 12.5207C2.668 11.7787 2 10.53 2 9.19333V2.53467C2 2.222 2.21733 1.952 2.522 1.884L8 0.666668ZM8 2.03264L3.33333 3.06931V9.19264C3.33333 10.084 3.77867 10.9166 4.52067 11.4113L8 13.7313L11.4793 11.4113C12.2213 10.9166 12.6667 10.0846 12.6667 9.19331V3.06931L8 2.03331V2.03264ZM11.9114 6.42402L10.9681 5.48135V5.48069L7.66808 8.78069L5.78275 6.89535L4.84008 7.83802L7.66875 10.6667L11.9114 6.42402Z" fill="#001018"/>
</svg>
