<svg width="16" height="16" viewBox="0 0 16 16" fill="none" xmlns="http://www.w3.org/2000/svg">
<path fill-rule="evenodd" clip-rule="evenodd" d="M8 0.666687L13.478 1.88402C13.7827 1.95202 14 2.22202 14 2.53469V9.19269C14 10.53 13.3313 11.7794 12.2187 12.5207L8 15.3334L3.78133 12.5207C2.668 11.7787 2 10.53 2 9.19335V2.53469C2 2.22202 2.21733 1.95202 2.522 1.88402L8 0.666687ZM8 2.03266L3.33333 3.06933V9.19266C3.33333 10.084 3.77867 10.9167 4.52067 11.4113L8 13.7313L11.4793 11.4113C12.2213 10.9167 12.6667 10.0847 12.6667 9.19333V3.06933L8 2.03333V2.03266ZM11.9114 6.42404L10.9681 5.48137V5.4807L7.66808 8.7807L5.78275 6.89537L4.84008 7.83804L7.66875 10.6667L11.9114 6.42404Z" fill="#001018"/>
</svg>
