<svg width="16" height="16" fill="none" xmlns="http://www.w3.org/2000/svg"><path fill-rule="evenodd" clip-rule="evenodd" d="M2.667 1.333c.304 0 .566.206.643.494l.016.073.318 2.098H14c.4 0 .703.347.664.733l-.013.078-1.33 6.002a.667.667 0 0 1-.574.518l-.077.004H3.98a.667.667 0 0 1-.644-.493l-.015-.074-1.227-8.1H.667V1.334h2zM4 14a1.333 1.333 0 1 0 2.667 0A1.333 1.333 0 0 0 4 14zm6 0a1.333 1.333 0 1 0 2.667 0A1.333 1.333 0 0 0 10 14zM3.846 5.331h9.324L12.135 10H4.553l-.707-4.669z" fill="#001018"/></svg>