<svg width="24" height="24" viewBox="0 0 24 24" fill="none" xmlns="http://www.w3.org/2000/svg">
<path d="M12 2C12.6566 2 13.3068 2.12933 13.9134 2.3806C14.52 2.63188 15.0712 3.00017 15.5355 3.46447C15.9998 3.92876 16.3681 4.47995 16.6194 5.08658C16.8707 5.69321 17 6.34339 17 7V9H20C20.2652 9 20.5196 9.10536 20.7071 9.29289C20.8946 9.48043 21 9.73478 21 10V22C21 22.2652 20.8946 22.5196 20.7071 22.7071C20.5196 22.8946 20.2652 23 20 23H4C3.73478 23 3.48043 22.8946 3.29289 22.7071C3.10536 22.5196 3 22.2652 3 22V10C3 9.73478 3.10536 9.48043 3.29289 9.29289C3.48043 9.10536 3.73478 9 4 9H7V7C7 5.67392 7.52678 4.40215 8.46447 3.46447C9.40215 2.52678 10.6739 2 12 2ZM17 12H15V13C15.0003 13.2549 15.0979 13.5 15.2728 13.6854C15.4478 13.8707 15.687 13.9822 15.9414 13.9972C16.1958 14.0121 16.4464 13.9293 16.6418 13.7657C16.8373 13.6021 16.9629 13.3701 16.993 13.117L17 13V12ZM9 12H7V13C7.00028 13.2549 7.09788 13.5 7.27285 13.6854C7.44782 13.8707 7.68695 13.9822 7.94139 13.9972C8.19584 14.0121 8.44638 13.9293 8.64183 13.7657C8.83729 13.6021 8.9629 13.3701 8.993 13.117L9 13V12ZM12 4C11.2348 3.99996 10.4985 4.29233 9.94174 4.81728C9.38499 5.34224 9.04989 6.06011 9.005 6.824L9 7V9H15V7C15 6.23479 14.7077 5.49849 14.1827 4.94174C13.6578 4.38499 12.9399 4.04989 12.176 4.005L12 4Z" fill="#001018"/>
</svg>
