<svg viewBox="0 0 24 24" xmlns="http://www.w3.org/2000/svg"><path d="M4 2C4.4564 2 4.84956 2.30788 4.9656 2.73975L4.98871 2.85019L5.466 5.997L21 5.99683C21.5996 5.99683 22.0547 6.51717 21.9952 7.09669L21.9763 7.21324L19.9807 16.2159C19.8877 16.6356 19.5388 16.9443 19.1202 16.9928L19.0044 16.9995H5.96973C5.51333 16.9995 5.12017 16.6916 5.00413 16.2598L4.98101 16.1493L3.141 4H1V2H4ZM6 21C6 22.1046 6.89543 23 8 23C9.10457 23 10 22.1046 10 21C10 19.8954 9.10457 19 8 19C6.89543 19 6 19.8954 6 21ZM15 21C15 22.1046 15.8954 23 17 23C18.1046 23 19 22.1046 19 21C19 19.8954 18.1046 19 17 19C15.8954 19 15 19.8954 15 21ZM5.769 7.997L6.83 15H18.203L19.755 7.997H5.769Z"/></svg>