<svg width="16" height="16" viewBox="0 0 16 16" fill="none" xmlns="http://www.w3.org/2000/svg">
<g clip-path="url(#clip0_8763_1616)">
<path d="M8 1C8.43774 1 8.87119 1.08622 9.27561 1.25373C9.68003 1.42125 10.0475 1.66678 10.357 1.97631C10.6666 2.28584 10.9121 2.6533 11.0796 3.05772C11.2471 3.46214 11.3333 3.89559 11.3333 4.33333V5.66667H13.3333C13.5101 5.66667 13.6797 5.7369 13.8047 5.86193C13.9298 5.98695 14 6.15652 14 6.33333V14.3333C14 14.5101 13.9298 14.6797 13.8047 14.8047C13.6797 14.9298 13.5101 15 13.3333 15H2.66667C2.48986 15 2.32029 14.9298 2.19526 14.8047C2.07024 14.6797 2 14.5101 2 14.3333V6.33333C2 6.15652 2.07024 5.98695 2.19526 5.86193C2.32029 5.7369 2.48986 5.66667 2.66667 5.66667H4.66667V4.33333C4.66667 3.44928 5.01786 2.60143 5.64298 1.97631C6.2681 1.35119 7.11594 1 8 1ZM11.3333 7.66667H10V8.33333C10.0002 8.50325 10.0653 8.66669 10.1819 8.79025C10.2985 8.9138 10.458 8.98816 10.6276 8.99812C10.7972 9.00807 10.9643 8.95288 11.0946 8.84382C11.2249 8.73476 11.3086 8.58006 11.3287 8.41133L11.3333 8.33333V7.66667ZM6 7.66667H4.66667V8.33333C4.66686 8.50325 4.73192 8.66669 4.84857 8.79025C4.96521 8.9138 5.12464 8.98816 5.29426 8.99812C5.46389 9.00807 5.63092 8.95288 5.76122 8.84382C5.89152 8.73476 5.97526 8.58006 5.99533 8.41133L6 8.33333V7.66667ZM8 2.33333C7.48986 2.33331 6.99899 2.52822 6.62783 2.87819C6.25666 3.22816 6.03326 3.70674 6.00333 4.216L6 4.33333V5.66667H10V4.33333C10 3.82319 9.80512 3.33232 9.45514 2.96116C9.10517 2.59 8.6266 2.3666 8.11733 2.33667L8 2.33333Z" fill="#001018"/>
</g>
<defs>
<clipPath id="clip0_8763_1616">
<rect width="16" height="16" fill="white"/>
</clipPath>
</defs>
</svg>
