<svg width="16" height="16" viewBox="0 0 16 16" fill="none" xmlns="http://www.w3.org/2000/svg">
<g clip-path="url(#clip0_8763_1613)">
<path d="M4.66667 5.66667V4.33333C4.66667 3.44928 5.01786 2.60143 5.64298 1.97631C6.2681 1.35119 7.11595 1 8 1C8.88406 1 9.7319 1.35119 10.357 1.97631C10.9821 2.60143 11.3333 3.44928 11.3333 4.33333V5.66667H13.3333C13.5101 5.66667 13.6797 5.7369 13.8047 5.86193C13.9298 5.98695 14 6.15652 14 6.33333V14.3333C14 14.5101 13.9298 14.6797 13.8047 14.8047C13.6797 14.9298 13.5101 15 13.3333 15H2.66667C2.48986 15 2.32029 14.9298 2.19526 14.8047C2.07024 14.6797 2 14.5101 2 14.3333V6.33333C2 6.15652 2.07024 5.98695 2.19526 5.86193C2.32029 5.7369 2.48986 5.66667 2.66667 5.66667H4.66667ZM4.66667 7H3.33333V13.6667H12.6667V7H11.3333V8.33333H10V7H6V8.33333H4.66667V7ZM6 5.66667H10V4.33333C10 3.8029 9.78929 3.29419 9.41421 2.91912C9.03914 2.54405 8.53043 2.33333 8 2.33333C7.46957 2.33333 6.96086 2.54405 6.58579 2.91912C6.21071 3.29419 6 3.8029 6 4.33333V5.66667Z" fill="#001018"/>
</g>
<defs>
<clipPath id="clip0_8763_1613">
<rect width="16" height="16" fill="white"/>
</clipPath>
</defs>
</svg>
