<svg viewBox="0 0 24 24" xmlns="http://www.w3.org/2000/svg"><path d="M5 16.93C3.89339 16.2902 2.95619 15.3945 2.26692 14.318C1.57764 13.2416 1.15635 12.0156 1.03832 10.7428C0.920304 9.47 1.10899 8.18746 1.58858 7.0026C2.06817 5.81773 2.8247 4.76503 3.79481 3.93268C4.76492 3.10033 5.92035 2.51255 7.16434 2.21858C8.40832 1.92461 9.70464 1.93301 10.9447 2.24308C12.1848 2.55314 13.3325 3.15585 14.2917 4.0007C15.251 4.84556 15.9938 5.90797 16.458 7.09895C17.8533 6.82314 19.3012 7.09857 20.4978 7.86745C21.6944 8.63633 22.5466 9.83886 22.8755 11.2226C23.2044 12.6064 22.9845 14.0637 22.2619 15.2888C21.5393 16.5139 20.3702 17.4114 19 17.793V15.663C19.4622 15.4436 19.8707 15.1257 20.1967 14.7315C20.5227 14.3372 20.7584 13.8763 20.8871 13.3812C21.0157 12.8861 21.0343 12.3688 20.9415 11.8657C20.8486 11.3626 20.6466 10.886 20.3497 10.4694C20.0528 10.0528 19.6681 9.70641 19.2229 9.45453C18.7776 9.20265 18.2825 9.05143 17.7725 9.01154C17.2625 8.97164 16.7499 9.04403 16.2709 9.22362C15.7919 9.4032 15.3581 9.68561 15 10.051V9.99995C15 8.99911 14.7497 8.01416 14.2718 7.13479C13.7939 6.25542 13.1036 5.50957 12.2638 4.96515C11.4239 4.42073 10.4613 4.09504 9.46341 4.01774C8.46556 3.94044 7.46422 4.11398 6.55057 4.52256C5.63693 4.93115 4.84 5.56179 4.23236 6.35707C3.62472 7.15234 3.22568 8.08699 3.07156 9.0759C2.91744 10.0648 3.01315 11.0766 3.34997 12.019C3.68679 12.9615 4.25401 13.8047 5 14.472V16.93ZM7 16H9V20H7V16ZM15 16H17V20H15V16ZM11 19H13V23H11V19Z"/></svg>