<svg width="16" height="16" viewBox="0 0 16 16" fill="none" xmlns="http://www.w3.org/2000/svg">
<path d="M10 12.0001H6.00002V14.0001H4.66669V11.8321C3.7825 11.6033 2.97188 11.1512 2.31249 10.5193C1.65311 9.88733 1.16705 9.09664 0.900907 8.22296C0.634759 7.34928 0.597433 6.4219 0.792505 5.52966C0.987577 4.63742 1.40851 3.81022 2.01497 3.12732C2.62144 2.44443 3.39311 1.92871 4.25605 1.62959C5.119 1.33047 6.0443 1.25797 6.9433 1.41904C7.8423 1.5801 8.68488 1.96933 9.39031 2.54944C10.0957 3.12954 10.6404 3.88108 10.972 4.73205C11.4734 4.63612 11.9893 4.64594 12.4866 4.76086C12.984 4.87579 13.4518 5.09329 13.8603 5.39946C14.2687 5.70562 14.6088 6.09369 14.8586 6.53884C15.1084 6.98398 15.2626 7.47638 15.3111 7.98452C15.3597 8.49267 15.3016 9.00535 15.1406 9.48976C14.9797 9.97417 14.7193 10.4196 14.3762 10.7976C14.0332 11.1756 13.615 11.4778 13.1484 11.6849C12.6818 11.8919 12.1771 11.9993 11.6667 12.0001L11.3334 12.0007V14.0007H10V12.0007V12.0001ZM7.33336 13.3334H8.66669V15.3334H7.33336V13.3334Z" fill="#001018"/>
</svg>
