<svg width="16" height="16" viewBox="0 0 16 16" fill="none" xmlns="http://www.w3.org/2000/svg">
<path d="M3.33333 11.2867C2.59559 10.8602 1.9708 10.2631 1.51128 9.54544C1.05176 8.82779 0.770897 8.01047 0.692216 7.16194C0.613536 6.31342 0.739327 5.45839 1.05905 4.66848C1.37878 3.87857 1.88314 3.17677 2.52987 2.62187C3.17661 2.06696 3.9469 1.67511 4.77623 1.47914C5.60555 1.28316 6.46976 1.28876 7.29648 1.49547C8.12319 1.70218 8.88834 2.10398 9.52783 2.66722C10.1673 3.23045 10.6625 3.93873 10.972 4.73272C11.9022 4.54884 12.8675 4.73246 13.6652 5.24505C14.4629 5.75764 15.031 6.55932 15.2503 7.48183C15.4696 8.40433 15.323 9.37591 14.8413 10.1926C14.3595 11.0093 13.5801 11.6077 12.6667 11.8621V10.4421C12.9748 10.2958 13.2471 10.0839 13.4645 9.82106C13.6818 9.55824 13.8389 9.25098 13.9247 8.92089C14.0105 8.59081 14.0229 8.24593 13.961 7.91055C13.8991 7.57516 13.7644 7.25742 13.5665 6.9797C13.3685 6.70198 13.1121 6.47102 12.8152 6.3031C12.5184 6.13518 12.1884 6.03437 11.8483 6.00777C11.5083 5.98118 11.1666 6.02944 10.8473 6.14916C10.5279 6.26888 10.2387 6.45715 10 6.70072V6.66672C10 5.99949 9.83312 5.34285 9.51452 4.75661C9.19591 4.17036 8.73572 3.67313 8.17584 3.31018C7.61596 2.94723 6.97418 2.73011 6.30894 2.67858C5.64371 2.62704 4.97615 2.74274 4.36705 3.01512C3.75795 3.28751 3.22667 3.70794 2.82157 4.23813C2.41648 4.76831 2.15045 5.39141 2.04771 6.05068C1.94496 6.70995 2.00877 7.38445 2.23331 8.01276C2.45786 8.64107 2.83601 9.20323 3.33333 9.64805V11.2867ZM4.66667 10.6667H6V13.3334H4.66667V10.6667ZM10 10.6667H11.3333V13.3334H10V10.6667ZM7.33333 12.6667H8.66667V15.3334H7.33333V12.6667Z" fill="#001018"/>
</svg>
