<svg width="16" height="16" viewBox="0 0 16 16" xmlns="http://www.w3.org/2000/svg"><path fill-rule="evenodd" clip-rule="evenodd" d="M7.33332 1.33334V8H8.66665V1.33334H7.33332ZM4.94131 3.63067L4.17665 2.538C2.39338 3.78475 1.33175 5.82413 1.33331 8C1.33331 11.682 4.31798 14.6667 7.99998 14.6667C11.682 14.6667 14.6666 11.682 14.6666 8C14.6682 5.82413 13.6066 3.78475 11.8233 2.538L11.0586 3.63067C12.9656 4.96566 13.7864 7.3832 13.0865 9.60329C12.3867 11.8234 10.3278 13.3331 7.99998 13.3331C5.67219 13.3331 3.61329 11.8234 2.91342 9.60329C2.21354 7.3832 3.03437 4.96566 4.94131 3.63067Z"/></svg>