<svg width="16" height="16" viewBox="0 0 16 16" fill="none" xmlns="http://www.w3.org/2000/svg">
<path fill-rule="evenodd" clip-rule="evenodd" d="M7.33333 1.33333V7.99999H8.66666V1.33333H7.33333ZM4.94133 3.63066L4.17666 2.53799C2.3934 3.78474 1.33176 5.82412 1.33333 7.99999C1.33333 11.682 4.318 14.6667 8 14.6667C11.682 14.6667 14.6667 11.682 14.6667 7.99999C14.6682 5.82412 13.6066 3.78474 11.8233 2.53799L11.0587 3.63066C12.9656 4.96565 13.7864 7.38319 13.0866 9.60328C12.3867 11.8234 10.3278 13.3331 8 13.3331C5.6722 13.3331 3.61331 11.8234 2.91343 9.60328C2.21355 7.38319 3.03439 4.96565 4.94133 3.63066Z" fill="#001018"/>
</svg>
