<svg width="24" height="24" viewBox="0 0 24 24" fill="none" xmlns="http://www.w3.org/2000/svg">
<path fill-rule="evenodd" clip-rule="evenodd" d="M11 2V12H13V2H11ZM7.412 5.446L6.265 3.807C3.5901 5.67712 1.99765 8.73619 2 12C2 17.523 6.477 22 12 22C17.523 22 22 17.523 22 12C22.0024 8.73619 20.4099 5.67712 17.735 3.807L16.588 5.446C19.4484 7.44849 20.6797 11.0748 19.6299 14.4049C18.58 17.7351 15.4917 19.9996 12 19.9996C8.50831 19.9996 5.41997 17.7351 4.37015 14.4049C3.32034 11.0748 4.55159 7.44849 7.412 5.446Z" fill="#001018"/>
</svg>
