<svg width="24" height="24" viewBox="0 0 24 24" fill="none" xmlns="http://www.w3.org/2000/svg">
<path fill-rule="evenodd" clip-rule="evenodd" d="M16 4.5C16 3.67157 15.3284 3 14.5 3C13.6716 3 13 3.67157 13 4.5V9.5C13 10.3284 13.6716 11 14.5 11C15.3284 11 16 10.3284 16 9.5V4.5ZM6 13H4.5C3.67157 13 3 13.6716 3 14.5C3 15.3284 3.67157 16 4.5 16C5.32843 16 6 15.3284 6 14.5V13ZM13 18H14.5C15.3284 18 16 18.6716 16 19.5C16 20.3284 15.3284 21 14.5 21C13.6716 21 13 20.3284 13 19.5V18ZM19.5 13H14.5C13.6716 13 13 13.6716 13 14.5C13 15.3284 13.6716 16 14.5 16H19.5C20.3284 16 21 15.3284 21 14.5C21 13.6716 20.3284 13 19.5 13ZM19.5 8C20.3284 8 21 8.67157 21 9.5C21 10.3284 20.3284 11 19.5 11H18V9.5C18 8.67157 18.6716 8 19.5 8ZM9.5 8H4.5C3.67157 8 3 8.67157 3 9.5C3 10.3284 3.67157 11 4.5 11H9.5C10.3284 11 11 10.3284 11 9.5C11 8.67157 10.3284 8 9.5 8ZM9.5 3C10.3284 3 11 3.67157 11 4.5V6H9.5C8.67157 6 8 5.32843 8 4.5C8 3.67157 8.67157 3 9.5 3ZM11 14.5C11 13.6716 10.3284 13 9.5 13C8.67157 13 8 13.6716 8 14.5V19.5C8 20.3284 8.67157 21 9.5 21C10.3284 21 11 20.3284 11 19.5V14.5Z" fill="#001018"/>
</svg>
