<svg width="16" height="16" fill="none" xmlns="http://www.w3.org/2000/svg"><path fill-rule="evenodd" clip-rule="evenodd" d="M6.324 4.351a1.315 1.315 0 0 1-1.31-1.311c0-.722.589-1.311 1.31-1.311.723 0 1.313.589 1.313 1.311v1.312H6.324zM3.04 10.987a1.315 1.315 0 0 0 1.311-1.311l.001-1.313H3.04c-.722 0-1.311.59-1.311 1.312.002.724.588 1.31 1.311 1.312zm3.284-2.623c-.722 0-1.311.59-1.311 1.312v3.285a1.315 1.315 0 0 0 1.311 1.311 1.315 1.315 0 0 0 1.312-1.311V9.676c0-.722-.59-1.312-1.312-1.312zm1.312-2.04c0-.722-.59-1.311-1.312-1.311H3.04c-.722 0-1.311.589-1.311 1.311.002.724.587 1.31 1.311 1.312h3.284a1.315 1.315 0 0 0 1.312-1.312zm4.013 0c0-.722.59-1.311 1.312-1.311.722 0 1.311.589 1.311 1.311a1.315 1.315 0 0 1-1.311 1.312h-1.312V6.324zM9.676 7.636a1.315 1.315 0 0 0 1.311-1.312V3.04c0-.722-.589-1.311-1.31-1.311-.723 0-1.313.589-1.313 1.311v3.284c.002.724.588 1.31 1.312 1.312zm0 4.013c.722 0 1.311.59 1.311 1.312a1.315 1.315 0 0 1-1.31 1.311 1.315 1.315 0 0 1-1.313-1.311v-1.312h1.312zM8.364 9.676c.002.723.589 1.31 1.312 1.311h3.285a1.315 1.315 0 0 0 1.311-1.311c0-.722-.59-1.312-1.311-1.312H9.676c-.722 0-1.312.59-1.312 1.312z" fill="#001018"/></svg>