<svg viewBox="0 0 24 24" xmlns="http://www.w3.org/2000/svg"><path fill-rule="evenodd" clip-rule="evenodd" d="M9.48602 6.52699C8.40143 6.52314 7.52331 5.64457 7.52002 4.55999C7.52002 3.47699 8.40402 2.59299 9.48702 2.59299C10.57 2.59299 11.455 3.47699 11.455 4.55999V6.52799L9.48602 6.52699ZM4.56002 16.48C5.64461 16.4767 6.52317 15.5986 6.52702 14.514L6.52802 14.513V12.545H4.56002C3.47702 12.545 2.59302 13.43 2.59302 14.513C2.59631 15.598 3.47504 16.4767 4.56002 16.48ZM9.48602 12.546C8.40302 12.546 7.51902 13.431 7.51902 14.514V19.441C7.52231 20.526 8.40104 21.4047 9.48602 21.408C10.5714 21.4052 11.4507 20.5264 11.454 19.441V14.514C11.454 13.431 10.569 12.546 9.48602 12.546ZM11.454 9.48599C11.454 8.40299 10.569 7.51899 9.48602 7.51899H4.56002C3.47702 7.51899 2.59302 8.40299 2.59302 9.48599C2.59576 10.5714 3.47465 11.4507 4.56002 11.454H9.48602C10.5718 11.4512 11.4513 10.5717 11.454 9.48599ZM17.473 9.48599C17.473 8.40299 18.358 7.51899 19.441 7.51899C20.524 7.51899 21.408 8.40299 21.408 9.48599C21.4053 10.5714 20.5264 11.4507 19.441 11.454H17.473V9.48599ZM14.514 11.454C15.5994 11.4507 16.4783 10.5714 16.481 9.48599V4.55999C16.481 3.47699 15.597 2.59299 14.514 2.59299C13.431 2.59299 12.546 3.47699 12.546 4.55999V9.48599C12.5488 10.5717 13.4283 11.4512 14.514 11.454ZM14.514 17.473C15.597 17.473 16.481 18.358 16.481 19.441C16.4777 20.526 15.599 21.4047 14.514 21.408C13.4287 21.4052 12.5493 20.5264 12.546 19.441V17.473H14.514ZM12.546 14.514C12.5493 15.5994 13.4287 16.4782 14.514 16.481H19.441C20.526 16.4777 21.4047 15.599 21.408 14.514C21.408 13.431 20.524 12.546 19.441 12.546H14.514C13.431 12.546 12.546 13.431 12.546 14.514Z"/></svg>