<svg width="16" height="16" viewBox="0 0 16 16" fill="none" xmlns="http://www.w3.org/2000/svg">
<path fill-rule="evenodd" clip-rule="evenodd" d="M3.70997 7.07222C3.60709 7.02676 3.51334 6.98533 3.38725 6.98533C3.28113 6.98747 3.1762 7.00823 3.07725 7.04667C2.82592 7.15133 2.68925 7.37333 2.68925 7.53333C2.68925 8.00555 3.4331 8.23304 3.56484 8.27333C3.57148 8.27536 3.57656 8.27691 3.57992 8.278C3.59134 8.28178 3.60304 8.28562 3.61498 8.28955C3.86005 8.37011 4.20435 8.48328 4.29525 8.70133C4.34192 8.82067 4.32259 8.97 4.23459 9.154C4.23158 9.16027 4.22803 9.16776 4.22394 9.17641C4.08647 9.46678 3.33161 11.0613 1.61992 11.374C1.46459 11.402 1.35925 11.5387 1.35925 11.6953C1.35925 11.9193 1.59992 12.1047 1.84325 12.2147C2.13925 12.348 2.57392 12.4667 3.14459 12.5567C3.16483 12.5967 3.21747 12.813 3.25801 12.9795C3.2762 13.0543 3.29196 13.119 3.30125 13.1533C3.38772 13.4739 3.69267 13.4186 3.87675 13.3852C3.91124 13.3789 3.94148 13.3734 3.96525 13.3713C3.99465 13.3686 4.03549 13.3613 4.08668 13.3521C4.29664 13.3146 4.68058 13.246 5.16192 13.3333C5.48925 13.3927 5.77125 13.5853 6.09259 13.8173C6.12184 13.838 6.15109 13.8589 6.18044 13.8798C6.62786 14.1988 7.09885 14.5347 7.99725 14.5347C8.91872 14.5347 9.41774 14.1809 9.87799 13.8546C9.89557 13.8421 9.9131 13.8297 9.93059 13.8173C10.2519 13.5853 10.5393 13.3913 10.8606 13.3333C11.2584 13.2716 11.664 13.2824 12.0579 13.3653C12.0643 13.3667 12.0714 13.3682 12.0793 13.37C12.2283 13.4026 12.6331 13.4912 12.7186 13.148C12.736 13.0789 12.7529 13.0096 12.7689 12.9438C12.8151 12.7546 12.854 12.5953 12.8753 12.5567C13.4493 12.4667 13.8813 12.3533 14.1766 12.22C14.4139 12.11 14.6606 11.92 14.6606 11.6987C14.6606 11.5373 14.5566 11.4 14.3999 11.3767C12.6199 11.0813 11.7819 9.16467 11.7799 9.15933C11.6899 8.974 11.6693 8.82333 11.7186 8.70733C11.8133 8.48112 12.1791 8.36517 12.4252 8.2872L12.4353 8.284C12.7666 8.178 13.3219 7.94733 13.3219 7.53333C13.3219 7.36467 13.1233 6.98467 12.6666 6.98467C12.4271 6.98467 12.3105 7.03909 12.197 7.09208C12.0893 7.14235 11.9844 7.19133 11.7799 7.19133C11.7153 7.19239 11.6514 7.17751 11.5939 7.148C11.5944 7.14093 11.5954 7.12925 11.5968 7.11312C11.6109 6.94369 11.6659 6.28392 11.6659 5.33733C11.6659 4.272 11.2226 3.53533 10.6319 2.98533C10.0413 2.43533 9.21059 2 7.99725 2C6.78325 2 5.92859 2.43333 5.37992 2.98267C4.83125 3.532 4.35125 4.2 4.35125 5.32533C4.35125 5.82067 4.41125 7.04067 4.41725 7.14467C4.37325 7.16533 4.30459 7.18867 4.19992 7.18867C3.97352 7.18867 3.83501 7.12747 3.70997 7.07222ZM10.2773 6.88733L10.2639 7.05333C10.2392 7.40082 10.3514 7.74354 10.5766 8.00933C10.5453 8.06667 10.5153 8.128 10.4886 8.19333C10.2666 8.714 10.3379 9.24133 10.5799 9.74067C10.832 10.2638 11.1567 10.7486 11.5446 11.1807C11.6743 11.3246 11.8114 11.4616 11.9553 11.5913C11.841 11.6999 11.7468 11.8279 11.6773 11.9693C11.3301 11.945 10.9812 11.9616 10.6379 12.0187C10.0886 12.1173 9.7346 12.3147 9.1506 12.736L9.0126 12.8333C8.60393 13.1207 8.40326 13.2013 7.99726 13.2013C7.59993 13.2013 7.42793 13.1307 7.01526 12.8373L6.87326 12.736L6.8626 12.7287C6.2826 12.3107 5.93993 12.1187 5.39993 12.0213C5.05155 11.9573 4.6961 11.9407 4.34326 11.972C4.27455 11.8313 4.18157 11.7038 4.0686 11.5953C4.2193 11.4607 4.3622 11.3176 4.4966 11.1667C4.94927 10.6593 5.17526 10.276 5.4366 9.73067C5.66993 9.24533 5.73793 8.73067 5.53793 8.21667C5.50593 8.14133 5.4726 8.07067 5.43593 8.00533C5.6557 7.74515 5.76758 7.41072 5.7486 7.07067C5.72527 6.65467 5.6846 5.67267 5.6846 5.32533C5.6846 4.73733 5.85926 4.38867 6.32326 3.92533C6.69126 3.55667 7.2386 3.33333 7.9966 3.33333C8.7506 3.33333 9.28326 3.552 9.72326 3.96133C10.1366 4.346 10.3326 4.75667 10.3326 5.33667C10.3327 5.85405 10.3143 6.37127 10.2773 6.88733Z" fill="#001018"/>
</svg>
