<svg width="16" height="16" fill="none" xmlns="http://www.w3.org/2000/svg"><path fill-rule="evenodd" clip-rule="evenodd" d="M3.71 7.072a.755.755 0 0 0-.323-.087.907.907 0 0 0-.31.062c-.251.104-.388.326-.388.486 0 .473.744.7.876.74l.015.005.035.012c.245.08.59.193.68.411.047.12.028.269-.06.453a4.422 4.422 0 0 0-.011.022c-.137.29-.892 1.885-2.604 2.198a.32.32 0 0 0-.26.321c0 .224.24.41.483.52.296.133.731.252 1.302.342.02.04.073.256.113.422l.043.174c.087.32.392.266.576.232.034-.006.065-.012.088-.014.03-.002.07-.01.122-.019.21-.037.594-.106 1.075-.019.327.06.61.252.93.484l.089.063c.447.319.918.655 1.816.655.922 0 1.42-.354 1.881-.68l.053-.038c.321-.232.608-.426.93-.484.397-.061.803-.05 1.197.032l.021.005c.15.033.554.121.64-.222l.05-.204c.046-.19.085-.349.106-.387.574-.09 1.006-.204 1.302-.337.237-.11.484-.3.484-.521 0-.162-.104-.299-.261-.322-1.78-.296-2.618-2.212-2.62-2.218-.09-.185-.11-.336-.061-.452.094-.226.46-.342.706-.42l.01-.003c.332-.106.887-.337.887-.75 0-.17-.199-.55-.655-.55a.957.957 0 0 0-.47.108c-.108.05-.212.1-.417.1a.393.393 0 0 1-.186-.044l.003-.035c.014-.17.069-.83.069-1.776 0-1.065-.443-1.802-1.034-2.352C10.042 2.435 9.211 2 7.997 2c-1.214 0-2.068.433-2.617.983-.549.549-1.029 1.217-1.029 2.342 0 .496.06 1.716.066 1.82a.496.496 0 0 1-.217.044c-.226 0-.365-.062-.49-.117zm6.567-.185-.013.166c-.025.348.088.69.313.956a1.784 1.784 0 0 0-.088.184c-.222.521-.151 1.048.091 1.548.252.523.577 1.008.965 1.44.13.144.266.28.41.41a1.334 1.334 0 0 0-.278.378 4.443 4.443 0 0 0-1.039.05c-.55.098-.903.296-1.487.717l-.138.097c-.409.288-.61.368-1.016.368-.397 0-.569-.07-.982-.364l-.142-.101-.01-.007c-.58-.418-.923-.61-1.463-.708a3.927 3.927 0 0 0-1.057-.049 1.334 1.334 0 0 0-.274-.377 5.31 5.31 0 0 0 .428-.428c.452-.508.678-.891.94-1.436.233-.486.301-1 .101-1.514a2.147 2.147 0 0 0-.102-.212c.22-.26.332-.594.313-.934a48.847 48.847 0 0 1-.064-1.746c0-.588.174-.936.638-1.4.368-.368.916-.592 1.674-.592.754 0 1.286.219 1.726.628.414.385.61.796.61 1.376 0 .517-.019 1.034-.056 1.55z" fill="#001018"/></svg>