<svg width="16" height="16" fill="none" xmlns="http://www.w3.org/2000/svg"><path d="M7.914 14.51c-.793 0-1.323-.375-1.795-.705-.336-.238-.651-.464-1.022-.526a3.04 3.04 0 0 0-.536-.044c-.314 0-.564.047-.742.083-.114.02-.208.039-.283.039-.077 0-.175-.022-.213-.152-.034-.107-.054-.208-.075-.306-.053-.247-.098-.398-.19-.414-.993-.151-1.587-.38-1.703-.65-.01-.03-.021-.06-.021-.084-.007-.083.053-.151.137-.166.787-.131 1.494-.55 2.092-1.239.464-.535.69-1.053.71-1.109 0-.006.006-.006.006-.006.114-.234.137-.434.068-.597-.127-.307-.55-.437-.838-.527-.074-.02-.136-.044-.19-.062-.246-.098-.657-.306-.603-.594.039-.208.315-.357.54-.357a.33.33 0 0 1 .16.033c.254.116.483.175.679.175.244 0 .36-.092.389-.121a16.62 16.62 0 0 0-.023-.396c-.06-.91-.128-2.039.16-2.686.865-1.938 2.702-2.094 3.246-2.094L8.104 2h.033c.544 0 2.38.151 3.246 2.093.291.647.22 1.78.16 2.686l-.006.045c-.006.121-.015.237-.021.357.03.023.137.112.357.115.19-.005.398-.068.636-.175a.536.536 0 0 1 .208-.044c.083 0 .166.02.238.044h.006c.199.074.33.214.33.36.006.136-.102.344-.61.55-.053.02-.116.044-.19.062-.282.086-.704.223-.838.526-.074.16-.044.366.068.597 0 .007.006.007.006.007.033.082.892 2.032 2.803 2.35.08.014.14.085.137.167 0 .03-.006.06-.021.086-.116.273-.705.496-1.703.65-.092.015-.137.167-.19.414a4.592 4.592 0 0 1-.075.306c-.03.098-.092.151-.199.151h-.015c-.068 0-.16-.008-.282-.032a3.523 3.523 0 0 0-.743-.078 3.35 3.35 0 0 0-.535.045c-.369.06-.687.289-1.023.527-.478.326-1.01.7-1.798.7h-.169z" fill="#001018"/></svg>