<svg width="24" height="24" viewBox="0 0 24 24" fill="none" xmlns="http://www.w3.org/2000/svg">
<path fill-rule="evenodd" clip-rule="evenodd" d="M19 2L18.1897 4.18973L16 5L18.1897 5.81027L19 8L19.8103 5.81027L22 5L19.8103 4.18973L19 2ZM12.7958 9.20423L10.5 3L8.20423 9.20423L2 11.5L8.20423 13.7958L10.5 20L12.7958 13.7958L19 11.5L12.7958 9.20423ZM13.2369 11.5L11.2392 10.7608L10.5 8.76308L9.76078 10.7608L7.76308 11.5L9.76078 12.2392L10.5 14.2369L11.2392 12.2392L13.2369 11.5ZM18 14L19.0804 16.9196L22 18L19.0804 19.0804L18 22L16.9196 19.0804L14 18L16.9196 16.9196L18 14Z" fill="#001018"/>
</svg>
