<svg width="16" height="16" viewBox="0 0 16 16" fill="none" xmlns="http://www.w3.org/2000/svg">
<g clip-path="url(#clip0_8439_1620)">
<path fill-rule="evenodd" clip-rule="evenodd" d="M12.6665 1.33331L12.1263 2.79313L10.6665 3.33331L12.1263 3.8735L12.6665 5.33331L13.2067 3.8735L14.6665 3.33331L13.2067 2.79313L12.6665 1.33331ZM8.53019 6.13615L6.99968 2L5.46916 6.13615L1.33301 7.66667L5.46916 9.19718L6.99968 13.3333L8.53019 9.19718L12.6663 7.66667L8.53019 6.13615ZM8.82429 7.66667L7.49249 7.17386L6.99968 5.84206L6.50687 7.17386L5.17507 7.66667L6.50687 8.15948L6.99968 9.49128L7.49249 8.15948L8.82429 7.66667ZM11.9997 9.33331L12.7199 11.2797L14.6663 12L12.7199 12.7202L11.9997 14.6666L11.2794 12.7202L9.33301 12L11.2794 11.2797L11.9997 9.33331Z" fill="#001018"/>
</g>
<defs>
<clipPath id="clip0_8439_1620">
<rect width="16" height="16" fill="white"/>
</clipPath>
</defs>
</svg>
