<svg width="16" height="16" viewBox="0 0 16 16" xmlns="http://www.w3.org/2000/svg"><path d="M10 2C10.368 2 10.6667 2.29867 10.6667 2.66667V4H14C14.368 4 14.6667 4.29867 14.6667 4.66667V13.3333C14.6667 13.7013 14.368 14 14 14H2.00004C1.63204 14 1.33337 13.7013 1.33337 13.3333V4.66667C1.33337 4.29867 1.63204 4 2.00004 4H5.33337V2.66667C5.33337 2.29867 5.63204 2 6.00004 2H10ZM5.33337 5.33333H4.00004V12.6667H5.33337V5.33333ZM12 5.33333H10.6667V12.6667H12V5.33333ZM9.33337 3.33333H6.66671V4H9.33337V3.33333Z"/></svg>