<svg width="16" height="16" viewBox="0 0 16 16" fill="none" xmlns="http://www.w3.org/2000/svg">
<path d="M9.99458 2C10.3625 2 10.6611 2.29859 10.6611 2.6665V3.9995H13.9936C14.3615 3.9995 14.6601 4.29809 14.6601 4.666V13.3305C14.6601 13.6984 14.3615 13.997 13.9936 13.997H1.99658C1.62867 13.997 1.33008 13.6984 1.33008 13.3305V4.666C1.33008 4.29809 1.62867 3.9995 1.99658 3.9995H5.32908V2.6665C5.32908 2.29859 5.62767 2 5.99558 2H9.99458ZM10.6611 5.3325H5.32908V12.664H10.6611V5.3325ZM2.66308 5.3325V12.664H3.99608V5.3325H2.66308ZM9.32808 3.333H6.66208V3.9995H9.32808V3.333ZM11.9941 5.3325V12.664H13.3271V5.3325H11.9941Z" fill="#001018"/>
</svg>
