<svg width="24" height="24" viewBox="0 0 24 24" fill="none" xmlns="http://www.w3.org/2000/svg">
<path d="M9.98404 5.06001C10.3897 4.28744 10.9468 3.60445 11.622 3.05176C12.2973 2.49908 13.0769 2.08802 13.9145 1.84309C14.752 1.59816 15.6303 1.52438 16.4969 1.62613C17.3636 1.72789 18.2009 2.00311 18.9589 2.43538C19.7169 2.86765 20.3801 3.44812 20.909 4.14218C21.4379 4.83625 21.8216 5.6297 22.0373 6.47523C22.253 7.32077 22.2962 8.20107 22.1644 9.06366C22.0325 9.92626 21.7284 10.7535 21.27 11.496C22.0722 12.2514 22.6289 13.2302 22.8681 14.3058C23.1074 15.3813 23.0181 16.5038 22.6118 17.528C22.2056 18.5522 21.5011 19.4307 20.5896 20.0498C19.6782 20.6688 18.6018 20.9999 17.5 21L9.00004 20.999C7.90846 20.9982 6.8286 20.774 5.82691 20.3402C4.82523 19.9064 3.92291 19.2722 3.17551 18.4766C2.4281 17.681 1.85142 16.7409 1.48094 15.7141C1.11047 14.6874 0.954047 13.5956 1.0213 12.5061C1.08856 11.4166 1.37807 10.3524 1.87202 9.37895C2.36597 8.40552 3.05391 7.54348 3.89349 6.84587C4.73307 6.14827 5.70654 5.62986 6.75397 5.32257C7.80141 5.01527 8.90065 4.92558 9.98404 5.05901V5.06001ZM12.055 5.60401C13.0539 6.01804 13.9588 6.62962 14.7154 7.40205C15.472 8.17448 16.0648 9.09182 16.458 10.099C17.5059 9.89818 18.5894 10.0048 19.578 10.406C20.0416 9.41677 20.1295 8.29268 19.8252 7.24343C19.521 6.19417 18.8455 5.29142 17.9247 4.70357C17.0038 4.11572 15.9006 3.88292 14.8208 4.04861C13.741 4.21429 12.7583 4.76714 12.056 5.60401H12.055ZM17.5 19C18.0771 18.9999 18.6451 18.8572 19.1537 18.5845C19.6622 18.3118 20.0954 17.9175 20.4147 17.4369C20.7341 16.9563 20.9296 16.4042 20.984 15.8297C21.0383 15.2552 20.9498 14.6762 20.7263 14.1442C20.5028 13.6123 20.1512 13.1438 19.7028 12.7805C19.2545 12.4173 18.7233 12.1705 18.1565 12.0622C17.5897 11.9539 17.0049 11.9874 16.4542 12.1598C15.9035 12.3321 15.404 12.6379 15 13.05V13C15 11.8133 14.6481 10.6533 13.9889 9.66659C13.3296 8.6799 12.3925 7.91086 11.2961 7.45674C10.1998 7.00261 8.99339 6.88379 7.8295 7.1153C6.66561 7.34681 5.59652 7.91826 4.7574 8.75737C3.91829 9.59649 3.34684 10.6656 3.11533 11.8295C2.88382 12.9934 3.00264 14.1998 3.45677 15.2961C3.91089 16.3925 4.67993 17.3295 5.66662 17.9888C6.65332 18.6481 7.81335 19 9.00004 19H17.5Z" fill="#001018"/>
</svg>
