<svg width="16" height="16" viewBox="0 0 16 16" fill="none" xmlns="http://www.w3.org/2000/svg">
<path d="M6.65595 3.37338C6.92639 2.85833 7.29777 2.403 7.74795 2.03455C8.19813 1.66609 8.71789 1.39206 9.27624 1.22877C9.83459 1.06548 10.4201 1.01629 10.9979 1.08413C11.5756 1.15197 12.1338 1.33545 12.6392 1.62363C13.1445 1.9118 13.5867 2.29878 13.9393 2.7615C14.2918 3.22421 14.5477 3.75317 14.6914 4.31686C14.8352 4.88055 14.864 5.46742 14.7762 6.04248C14.6883 6.61755 14.4855 7.16903 14.1799 7.66405C14.7147 8.16763 15.0859 8.8202 15.2453 9.53721C15.4048 10.2542 15.3453 11.0026 15.0745 11.6854C14.8036 12.3682 14.334 12.9538 13.7263 13.3666C13.1187 13.7793 12.4011 14 11.6666 14.0001L5.99995 13.9994C5.27223 13.9988 4.55232 13.8494 3.88453 13.5602C3.21674 13.271 2.61519 12.8482 2.11692 12.3178C1.61865 11.7874 1.2342 11.1607 0.987213 10.4761C0.740231 9.79161 0.63595 9.06378 0.680788 8.33744C0.725626 7.6111 0.918634 6.90163 1.24793 6.25267C1.57723 5.60372 2.03586 5.02903 2.59558 4.56396C3.1553 4.09889 3.80428 3.75328 4.50257 3.54842C5.20086 3.34355 5.93368 3.28376 6.65595 3.37272V3.37338ZM8.03661 3.73605C8.70251 4.01207 9.30577 4.41979 9.81018 4.93474C10.3146 5.44969 10.7098 6.06125 10.9719 6.73272C11.6705 6.59883 12.3929 6.66991 13.0519 6.93738C13.361 6.27789 13.4196 5.52849 13.2167 4.82899C13.0139 4.12949 12.5636 3.52765 11.9497 3.13575C11.3358 2.74385 10.6003 2.58866 9.88044 2.69911C9.16055 2.80957 8.50543 3.17813 8.03728 3.73605H8.03661Z" fill="#001018"/>
</svg>
