<svg width="16" height="16" viewBox="0 0 16 16" xmlns="http://www.w3.org/2000/svg"><path d="M7.99996 12C6.93909 12 5.92168 11.5785 5.17153 10.8284C4.42139 10.0782 3.99996 9.06082 3.99996 7.99996C3.99996 6.93909 4.42139 5.92168 5.17153 5.17153C5.92168 4.42139 6.93909 3.99996 7.99996 3.99996C9.06082 3.99996 10.0782 4.42139 10.8284 5.17153C11.5785 5.92168 12 6.93909 12 7.99996C12 9.06082 11.5785 10.0782 10.8284 10.8284C10.0782 11.5785 9.06082 12 7.99996 12ZM7.33329 0.666626H8.66663V2.66663H7.33329V0.666626ZM7.33329 13.3333H8.66663V15.3333H7.33329V13.3333ZM2.34329 3.28596L3.28596 2.34329L4.69996 3.75729L3.75729 4.69996L2.34329 3.28663V3.28596ZM11.3 12.2426L12.2426 11.3L13.6566 12.714L12.714 13.6566L11.3 12.2426ZM12.714 2.34263L13.6566 3.28596L12.2426 4.69996L11.3 3.75729L12.714 2.34329V2.34263ZM3.75729 11.3L4.69996 12.2426L3.28596 13.6566L2.34329 12.714L3.75729 11.3ZM15.3333 7.33329V8.66663H13.3333V7.33329H15.3333ZM2.66663 7.33329V8.66663H0.666626V7.33329H2.66663Z"/><path d="M0 0V-1H-1V0H0ZM16 0H17V-1H16V0ZM16 16V17H17V16H16ZM0 16H-1V17H0V16ZM0 1H16V-1H0V1ZM15 0V16H17V0H15ZM16 15H0V17H16V15ZM1 16V0H-1V16H1Z"/></svg>