<svg width="16" height="16" viewBox="0 0 16 16" xmlns="http://www.w3.org/2000/svg"><path d="M8.00002 12C6.93915 12 5.92174 11.5785 5.17159 10.8284C4.42145 10.0782 4.00002 9.06082 4.00002 7.99996C4.00002 6.93909 4.42145 5.92168 5.17159 5.17153C5.92174 4.42139 6.93915 3.99996 8.00002 3.99996C9.06089 3.99996 10.0783 4.42139 10.8284 5.17153C11.5786 5.92168 12 6.93909 12 7.99996C12 9.06082 11.5786 10.0782 10.8284 10.8284C10.0783 11.5785 9.06089 12 8.00002 12ZM8.00002 10.6666C8.70726 10.6666 9.38554 10.3857 9.88564 9.88558C10.3857 9.38548 10.6667 8.7072 10.6667 7.99996C10.6667 7.29272 10.3857 6.61444 9.88564 6.11434C9.38554 5.61424 8.70726 5.33329 8.00002 5.33329C7.29278 5.33329 6.6145 5.61424 6.1144 6.11434C5.61431 6.61444 5.33335 7.29272 5.33335 7.99996C5.33335 8.7072 5.61431 9.38548 6.1144 9.88558C6.6145 10.3857 7.29278 10.6666 8.00002 10.6666ZM7.33335 0.666626H8.66669V2.66663H7.33335V0.666626ZM7.33335 13.3333H8.66669V15.3333H7.33335V13.3333ZM2.34335 3.28596L3.28602 2.34329L4.70002 3.75729L3.75735 4.69996L2.34335 3.28663V3.28596ZM11.3 12.2426L12.2427 11.3L13.6567 12.714L12.714 13.6566L11.3 12.2426ZM12.714 2.34263L13.6567 3.28596L12.2427 4.69996L11.3 3.75729L12.714 2.34329V2.34263ZM3.75735 11.3L4.70002 12.2426L3.28602 13.6566L2.34335 12.714L3.75735 11.3ZM15.3334 7.33329V8.66663H13.3334V7.33329H15.3334ZM2.66669 7.33329V8.66663H0.666687V7.33329H2.66669Z"/></svg>