<svg width="16" height="16" viewBox="0 0 16 16" fill="none" xmlns="http://www.w3.org/2000/svg">
<path fill-rule="evenodd" clip-rule="evenodd" d="M7.99998 4C6.89541 4 5.99998 3.10457 5.99998 2H1.99998C1.63179 2 1.33331 2.29848 1.33331 2.66667V7.33333C1.33331 7.70152 1.63179 8 1.99998 8L3.33265 7.99933L3.33331 13.3333C3.33331 13.7015 3.63179 14 3.99998 14H12C12.3682 14 12.6666 13.7015 12.6666 13.3333L12.666 8H14C14.3682 8 14.6666 7.70152 14.6666 7.33333V2.66667C14.6666 2.29848 14.3682 2 14 2H9.99998C9.99998 3.10457 9.10455 4 7.99998 4ZM11.0553 3.33266H13.3333V6.66599L11.3326 6.66666L11.3333 12.6667H4.66598V6.66599L2.66665 6.66666V3.33333H4.94398L4.95598 3.35999C5.49267 4.56054 6.68493 5.33344 7.99998 5.33333L8.14398 5.32999C9.40569 5.27544 10.5283 4.51282 11.044 3.35999L11.0553 3.33266Z" fill="#001018"/>
</svg>
