<svg viewBox="0 0 24 24" xmlns="http://www.w3.org/2000/svg"><path fill-rule="evenodd" clip-rule="evenodd" d="M12 6C10.3431 6 9 4.65685 9 3H3C2.44772 3 2 3.44772 2 4V11C2 11.5523 2.44772 12 3 12L4.999 11.999L5 20C5 20.5523 5.44772 21 6 21H18C18.5523 21 19 20.5523 19 20L18.999 12H21C21.5523 12 22 11.5523 22 11V4C22 3.44772 21.5523 3 21 3H15C15 4.65685 13.6569 6 12 6ZM16.583 4.999H20V9.999L16.999 10L17 19H6.999V9.999L4 10V5H7.416L7.434 5.04C8.23904 6.84082 10.0274 8.00017 12 8L12.216 7.995C14.1086 7.91318 15.7925 6.76924 16.566 5.04L16.583 4.999Z"/></svg>