<svg width="16" height="16" viewBox="0 0 16 16" fill="none" xmlns="http://www.w3.org/2000/svg">
<path fill-rule="evenodd" clip-rule="evenodd" d="M8 4C6.89543 4 6 3.10457 6 2H2C1.63181 2 1.33334 2.29848 1.33334 2.66667V7.33333C1.33334 7.70152 1.63181 8 2 8L3.33267 7.99933L3.33334 13.3333C3.33334 13.7015 3.63181 14 4 14H12C12.3682 14 12.6667 13.7015 12.6667 13.3333L12.666 8H14C14.3682 8 14.6667 7.70152 14.6667 7.33333V2.66667C14.6667 2.29848 14.3682 2 14 2H10C10 3.10457 9.10457 4 8 4ZM11.0553 3.33266H13.3333V6.66599L11.3327 6.66666L11.3333 12.6667H4.666V6.66599L2.66667 6.66666V3.33333H4.944L4.956 3.35999C5.4927 4.56054 6.68496 5.33344 8 5.33333L8.144 5.32999C9.40572 5.27544 10.5284 4.51282 11.044 3.35999L11.0553 3.33266Z" fill="#001018"/>
</svg>
