<svg width="16" height="16" viewBox="0 0 16 16" fill="none" xmlns="http://www.w3.org/2000/svg">
<g clip-path="url(#clip0_8413_1597)">
<path d="M3.33329 1.33334H12.6666C12.8434 1.33334 13.013 1.40357 13.138 1.5286C13.2631 1.65362 13.3333 1.82319 13.3333 2V14C13.3333 14.1768 13.2631 14.3464 13.138 14.4714C13.013 14.5964 12.8434 14.6667 12.6666 14.6667H3.33329C3.15648 14.6667 2.98691 14.5964 2.86189 14.4714C2.73686 14.3464 2.66663 14.1768 2.66663 14V2C2.66663 1.82319 2.73686 1.65362 2.86189 1.5286C2.98691 1.40357 3.15648 1.33334 3.33329 1.33334ZM7.99996 11.3333C7.82315 11.3333 7.65358 11.4036 7.52856 11.5286C7.40353 11.6536 7.33329 11.8232 7.33329 12C7.33329 12.1768 7.40353 12.3464 7.52856 12.4714C7.65358 12.5964 7.82315 12.6667 7.99996 12.6667C8.17677 12.6667 8.34634 12.5964 8.47136 12.4714C8.59639 12.3464 8.66663 12.1768 8.66663 12C8.66663 11.8232 8.59639 11.6536 8.47136 11.5286C8.34634 11.4036 8.17677 11.3333 7.99996 11.3333Z" fill="#001018"/>
</g>
<defs>
<clipPath id="clip0_8413_1597">
<rect width="16" height="16" fill="white"/>
</clipPath>
</defs>
</svg>
