<svg width="16" height="16" viewBox="0 0 16 16" fill="none" xmlns="http://www.w3.org/2000/svg">
<path d="M5.33331 3.33329C5.33331 2.62605 5.61426 1.94777 6.11436 1.44767C6.61446 0.947578 7.29274 0.666626 7.99998 0.666626C8.70722 0.666626 9.3855 0.947578 9.8856 1.44767C10.3857 1.94777 10.6666 2.62605 10.6666 3.33329V6.83663C11.482 7.40434 12.0948 8.21745 12.416 9.1576C12.7372 10.0978 12.75 11.1159 12.4525 12.0638C12.155 13.0117 11.5627 13.8399 10.7619 14.4279C9.96107 15.0159 8.99349 15.333 7.99998 15.333C7.00647 15.333 6.03889 15.0159 5.23807 14.4279C4.43725 13.8399 3.84498 13.0117 3.54747 12.0638C3.24995 11.1159 3.26273 10.0978 3.58393 9.1576C3.90513 8.21745 4.51799 7.40434 5.33331 6.83663V3.33329ZM6.09598 7.92996C5.51343 8.33536 5.07548 8.91611 4.84588 9.58767C4.61629 10.2592 4.60704 10.9866 4.81947 11.6637C5.03191 12.3409 5.45495 12.9326 6.027 13.3527C6.59905 13.7728 7.29025 13.9993 7.99998 13.9993C8.70971 13.9993 9.40091 13.7728 9.97296 13.3527C10.545 12.9326 10.968 12.3409 11.1805 11.6637C11.3929 10.9866 11.3837 10.2592 11.1541 9.58767C10.9245 8.91611 10.4865 8.33536 9.90398 7.92996L9.33331 7.53196V3.33329C9.33331 2.97967 9.19284 2.64053 8.94279 2.39048C8.69274 2.14043 8.3536 1.99996 7.99998 1.99996C7.64636 1.99996 7.30722 2.14043 7.05717 2.39048C6.80712 2.64053 6.66665 2.97967 6.66665 3.33329V7.53196L6.09598 7.92996ZM7.33331 8.08396V3.33329H8.66665V8.08396C9.29364 8.24778 9.83957 8.6342 10.2025 9.17107C10.5655 9.70795 10.7206 10.3586 10.6389 11.0014C10.5573 11.6443 10.2445 12.2355 9.75883 12.6646C9.27322 13.0937 8.64802 13.3314 7.99998 13.3333C7.35047 13.3339 6.72305 13.0975 6.2355 12.6684C5.74794 12.2392 5.43376 11.6469 5.35193 11.0026C5.2701 10.3583 5.42624 9.70621 5.79105 9.16883C6.15586 8.63145 6.70426 8.24569 7.33331 8.08396ZM7.99998 12C8.3536 12 8.69274 11.8595 8.94279 11.6094C9.19284 11.3594 9.33331 11.0202 9.33331 10.6666C9.33331 10.313 9.19284 9.97387 8.94279 9.72382C8.69274 9.47377 8.3536 9.33329 7.99998 9.33329C7.64636 9.33329 7.30722 9.47377 7.05717 9.72382C6.80712 9.97387 6.66665 10.313 6.66665 10.6666C6.66665 11.0202 6.80712 11.3594 7.05717 11.6094C7.30722 11.8595 7.64636 12 7.99998 12Z" fill="#001018"/>
</svg>
