<svg width="16" height="16" viewBox="0 0 16 16" fill="none" xmlns="http://www.w3.org/2000/svg">
<path d="M5.33337 3.33329C5.33337 2.62605 5.61433 1.94777 6.11442 1.44767C6.61452 0.947578 7.2928 0.666626 8.00004 0.666626C8.70728 0.666626 9.38556 0.947578 9.88566 1.44767C10.3858 1.94777 10.6667 2.62605 10.6667 3.33329V6.83663C11.482 7.40434 12.0949 8.21745 12.4161 9.1576C12.7373 10.0978 12.7501 11.1159 12.4526 12.0638C12.155 13.0117 11.5628 13.8399 10.762 14.4279C9.96113 15.0159 8.99355 15.333 8.00004 15.333C7.00653 15.333 6.03895 15.0159 5.23813 14.4279C4.43731 13.8399 3.84504 13.0117 3.54753 12.0638C3.25002 11.1159 3.26279 10.0978 3.58399 9.1576C3.90519 8.21745 4.51805 7.40434 5.33337 6.83663V3.33329ZM6.09604 7.92996C5.51349 8.33536 5.07554 8.91611 4.84594 9.58767C4.61635 10.2592 4.6071 10.9866 4.81953 11.6637C5.03197 12.3409 5.45501 12.9326 6.02706 13.3527C6.59911 13.7728 7.29031 13.9993 8.00004 13.9993C8.70977 13.9993 9.40097 13.7728 9.97302 13.3527C10.5451 12.9326 10.9681 12.3409 11.1805 11.6637C11.393 10.9866 11.3837 10.2592 11.1541 9.58767C10.9245 8.91611 10.4866 8.33536 9.90404 7.92996L9.33337 7.53196V3.33329C9.33337 2.97967 9.1929 2.64053 8.94285 2.39048C8.6928 2.14043 8.35366 1.99996 8.00004 1.99996C7.64642 1.99996 7.30728 2.14043 7.05723 2.39048C6.80718 2.64053 6.66671 2.97967 6.66671 3.33329V7.53196L6.09604 7.92996ZM5.33337 10.6666H10.6667C10.6667 11.3739 10.3858 12.0521 9.88566 12.5522C9.38556 13.0523 8.70728 13.3333 8.00004 13.3333C7.2928 13.3333 6.61452 13.0523 6.11442 12.5522C5.61433 12.0521 5.33337 11.3739 5.33337 10.6666V10.6666Z" fill="#001018"/>
</svg>
