<svg width="16" height="16" viewBox="0 0 16 16" fill="none" xmlns="http://www.w3.org/2000/svg">
<path d="M5.33325 6.83663V3.33329C5.33325 2.62605 5.6142 1.94777 6.1143 1.44767C6.6144 0.947578 7.29267 0.666626 7.99992 0.666626C8.70716 0.666626 9.38544 0.947578 9.88554 1.44767C10.3856 1.94777 10.6666 2.62605 10.6666 3.33329V6.83663C11.4819 7.40434 12.0948 8.21745 12.416 9.1576C12.7372 10.0978 12.7499 11.1159 12.4524 12.0638C12.1549 13.0117 11.5627 13.8399 10.7618 14.4279C9.96101 15.0159 8.99343 15.333 7.99992 15.333C7.00641 15.333 6.03883 15.0159 5.23801 14.4279C4.43719 13.8399 3.84492 13.0117 3.54741 12.0638C3.24989 11.1159 3.26267 10.0978 3.58387 9.1576C3.90507 8.21745 4.51793 7.40434 5.33325 6.83663ZM5.33325 10.6666C5.33325 11.3739 5.6142 12.0521 6.1143 12.5522C6.6144 13.0523 7.29267 13.3333 7.99992 13.3333C8.70716 13.3333 9.38544 13.0523 9.88554 12.5522C10.3856 12.0521 10.6666 11.3739 10.6666 10.6666H5.33325Z" fill="#001018"/>
</svg>
