<svg width="24" height="24" viewBox="0 0 24 24" fill="none" xmlns="http://www.w3.org/2000/svg">
<path d="M8 5C8 3.93913 8.42143 2.92172 9.17157 2.17157C9.92172 1.42143 10.9391 1 12 1C13.0609 1 14.0783 1.42143 14.8284 2.17157C15.5786 2.92172 16 3.93913 16 5V10.255C17.223 11.1066 18.1423 12.3262 18.6241 13.7365C19.1059 15.1467 19.125 16.6739 18.6788 18.0958C18.2325 19.5176 17.3441 20.76 16.1429 21.642C14.9416 22.524 13.4903 22.9996 12 22.9996C10.5097 22.9996 9.05837 22.524 7.85714 21.642C6.6559 20.76 5.7675 19.5176 5.32123 18.0958C4.87496 16.6739 4.89412 15.1467 5.37592 13.7365C5.85772 12.3262 6.77702 11.1066 8 10.255V5ZM9.144 11.895C8.27017 12.5031 7.61325 13.3742 7.26885 14.3816C6.92446 15.3889 6.91058 16.4799 7.22924 17.4957C7.5479 18.5115 8.18245 19.399 9.04053 20.0291C9.89861 20.6593 10.9354 20.9991 12 20.9991C13.0646 20.9991 14.1014 20.6593 14.9595 20.0291C15.8175 19.399 16.4521 18.5115 16.7708 17.4957C17.0894 16.4799 17.0755 15.3889 16.7311 14.3816C16.3868 13.3742 15.7298 12.5031 14.856 11.895L14 11.298V5C14 4.46957 13.7893 3.96086 13.4142 3.58579C13.0391 3.21071 12.5304 3 12 3C11.4696 3 10.9609 3.21071 10.5858 3.58579C10.2107 3.96086 10 4.46957 10 5V11.298L9.144 11.895ZM8 16H16C16 17.0609 15.5786 18.0783 14.8284 18.8284C14.0783 19.5786 13.0609 20 12 20C10.9391 20 9.92172 19.5786 9.17157 18.8284C8.42143 18.0783 8 17.0609 8 16Z" fill="#001018"/>
</svg>
