<svg width="16" height="16" viewBox="0 0 16 16" xmlns="http://www.w3.org/2000/svg"><path d="M5.33337 6.83663V3.33329C5.33337 2.62605 5.61433 1.94777 6.11442 1.44767C6.61452 0.947578 7.2928 0.666626 8.00004 0.666626C8.70728 0.666626 9.38556 0.947578 9.88566 1.44767C10.3858 1.94777 10.6667 2.62605 10.6667 3.33329V6.83663C11.482 7.40434 12.0949 8.21745 12.4161 9.1576C12.7373 10.0978 12.7501 11.1159 12.4526 12.0638C12.155 13.0117 11.5628 13.8399 10.762 14.4279C9.96113 15.0159 8.99355 15.333 8.00004 15.333C7.00653 15.333 6.03895 15.0159 5.23813 14.4279C4.43731 13.8399 3.84504 13.0117 3.54753 12.0638C3.25002 11.1159 3.26279 10.0978 3.58399 9.1576C3.90519 8.21745 4.51805 7.40434 5.33337 6.83663ZM7.33337 8.08396C6.70638 8.24778 6.16045 8.6342 5.79751 9.17107C5.43457 9.70795 5.27944 10.3586 5.36108 11.0014C5.44273 11.6443 5.75557 12.2355 6.24119 12.6646C6.72681 13.0937 7.352 13.3314 8.00004 13.3333C8.64955 13.3339 9.27697 13.0975 9.76453 12.6684C10.2521 12.2392 10.5663 11.6469 10.6481 11.0026C10.7299 10.3583 10.5738 9.70621 10.209 9.16883C9.84416 8.63145 9.29576 8.24569 8.66671 8.08396V3.33329H7.33337V8.08396Z"/></svg>