<svg width="16" height="16" fill="none" xmlns="http://www.w3.org/2000/svg"><path fill-rule="evenodd" clip-rule="evenodd" d="M9.733 5.333H14c.736 0 1.333.597 1.333 1.334v1.402c0 .175-.034.347-.1.508l-2.063 5.01a.667.667 0 0 1-.617.413H1.333a.667.667 0 0 1-.666-.667V6.667c0-.369.298-.667.666-.667h2.322c.216 0 .42-.105.544-.282L7.835.567A.333.333 0 0 1 8.256.46l1.21.604a1.667 1.667 0 0 1 .87 1.902l-.603 2.366zM4.667 7.06v5.608h7.44L14 8.069V6.667H9.733a1.333 1.333 0 0 1-1.292-1.662l.602-2.366a.333.333 0 0 0-.174-.38l-.44-.22-3.14 4.448a2.01 2.01 0 0 1-.622.572zM2 7.333h1.333v5.334H2V7.333z" fill="#001018"/></svg>