<svg width="16" height="16" xmlns="http://www.w3.org/2000/svg"><path d="M6.271 10.669H2.004A1.334 1.334 0 0 1 .67 9.335V7.932c0-.174.034-.347.1-.508l2.064-5.01A.667.667 0 0 1 3.451 2h11.222a.667.667 0 0 1 .667.667v6.668a.667.667 0 0 1-.667.667h-2.322a.667.667 0 0 0-.545.282L8.17 15.436a.333.333 0 0 1-.421.106l-1.21-.606a1.667 1.667 0 0 1-.87-1.902l.602-2.365zm5.068-1.726v-5.61H3.897l-1.893 4.6v1.403H6.27a1.334 1.334 0 0 1 1.292 1.662l-.602 2.366a.333.333 0 0 0 .174.381l.441.22 3.14-4.449c.168-.236.381-.43.623-.572zm1.334-.275h1.333V3.334h-1.333v5.334z"/></svg>