<svg width="16" height="16" fill="none" xmlns="http://www.w3.org/2000/svg"><path d="M9.739 5.339h4.267a1.334 1.334 0 0 1 1.334 1.334v1.403c0 .174-.034.346-.1.508l-2.064 5.01a.667.667 0 0 1-.617.414H1.337a.667.667 0 0 1-.667-.667V6.673a.667.667 0 0 1 .667-.667h2.322a.667.667 0 0 0 .544-.282L7.84.57a.333.333 0 0 1 .42-.105l1.21.605a1.668 1.668 0 0 1 .87 1.902L9.739 5.34zM4.67 7.065v5.609h7.442l1.893-4.598V6.673H9.74A1.334 1.334 0 0 1 8.446 5.01l.602-2.366a.333.333 0 0 0-.174-.38l-.44-.22-3.141 4.449c-.167.236-.38.429-.622.572zm-1.334.274H2.004v5.335h1.333V7.339z" fill="#001018"/></svg>