<svg viewBox="0 0 24 24" xmlns="http://www.w3.org/2000/svg"><path fill-rule="evenodd" clip-rule="evenodd" d="M13.693 1.30699L7.293 7.70699C7.10545 7.89449 7.00006 8.1488 7 8.41399V20C7 20.5523 7.44772 21 8 21H18.83C19.2353 21.0002 19.6006 20.7557 19.755 20.381L22.85 12.866C22.9493 12.6242 23.0003 12.3654 23 12.104V9.99999C23 8.89542 22.1046 7.99999 21 7.99999H14.6L15.753 3.46999C15.9026 2.88301 15.6844 2.26366 15.2 1.89999L14.347 1.25999C14.1477 1.11058 13.8689 1.13062 13.693 1.30699ZM5 8.99999H2C1.44772 8.99999 1 9.44771 1 9.99999V20C1 20.5523 1.44772 21 2 21H5V8.99999Z"/></svg>