<svg width="16" height="16" viewBox="0 0 16 16" fill="none" xmlns="http://www.w3.org/2000/svg">
<path fill-rule="evenodd" clip-rule="evenodd" d="M9.73334 5.33335H14C14.7364 5.33335 15.3333 5.93031 15.3333 6.66668V8.06935C15.3335 8.24359 15.2995 8.41618 15.2333 8.57735L13.17 13.5874C13.0671 13.8372 12.8235 14.0001 12.5533 14H1.33333C0.965145 14 0.666668 13.7015 0.666668 13.3334V6.66668C0.666668 6.29849 0.965145 6.00002 1.33333 6.00002H3.65467C3.87125 6.00007 4.07437 5.89491 4.19933 5.71802L7.83467 0.566685C7.92963 0.432107 8.10866 0.387068 8.256 0.460685L9.46533 1.06535C10.1666 1.41584 10.5287 2.20764 10.3353 2.96735L9.73334 5.33335ZM4.66667 7.05871V12.6667H12.1067L14 8.06938V6.66671H9.73333C9.32183 6.66666 8.93341 6.47659 8.68085 6.15171C8.42829 5.82682 8.3399 5.40352 8.44133 5.00471L9.04333 2.63938C9.08216 2.48736 9.0097 2.32884 8.86933 2.25871L8.42867 2.03871L5.28867 6.48671C5.122 6.72271 4.90867 6.91605 4.66667 7.05871ZM2 7.33334H3.33333V12.6667H2V7.33334Z" fill="#001018"/>
</svg>
