<svg width="24" height="24" viewBox="0 0 24 24" fill="none" xmlns="http://www.w3.org/2000/svg">
<path d="M14.6 8.00173H21C21.5304 8.00173 22.0391 8.21245 22.4142 8.58752C22.7893 8.96259 23 9.4713 23 10.0017V12.1057C23.0003 12.3671 22.9493 12.626 22.85 12.8677L19.755 20.3827C19.6795 20.566 19.5513 20.7226 19.3866 20.8328C19.2219 20.943 19.0282 21.0018 18.83 21.0017H2C1.73478 21.0017 1.48043 20.8964 1.29289 20.7088C1.10536 20.5213 1 20.267 1 20.0017V10.0017C1 9.73652 1.10536 9.48216 1.29289 9.29463C1.48043 9.10709 1.73478 9.00173 2 9.00173H5.482C5.6421 9.00178 5.79986 8.96338 5.94203 8.88977C6.0842 8.81616 6.20662 8.70949 6.299 8.57873L11.752 0.851735C11.8209 0.754048 11.9226 0.684295 12.0385 0.655125C12.1545 0.625955 12.277 0.639298 12.384 0.692735L14.198 1.59973C14.7085 1.8549 15.1163 2.27705 15.3537 2.79605C15.5911 3.31505 15.6438 3.89966 15.503 4.45273L14.6 8.00173ZM7 10.5897V19.0017H18.16L21 12.1057V10.0017H14.6C14.2954 10.0017 13.9948 9.93207 13.7212 9.79819C13.4476 9.66431 13.2082 9.46971 13.0213 9.22922C12.8343 8.98874 12.7048 8.70873 12.6425 8.41056C12.5803 8.11239 12.5869 7.80394 12.662 7.50873L13.565 3.96073C13.5933 3.85006 13.5828 3.73305 13.5353 3.62916C13.4878 3.52528 13.4062 3.44078 13.304 3.38973L12.643 3.05973L7.933 9.73173C7.683 10.0857 7.363 10.3757 7 10.5897ZM5 11.0017H3V19.0017H5V11.0017Z" fill="#001018"/>
</svg>
