<svg width="16" height="16" viewBox="0 0 16 16" fill="none" xmlns="http://www.w3.org/2000/svg">
<path fill-rule="evenodd" clip-rule="evenodd" d="M6.87142 15.1287L11.1381 10.862C11.2631 10.737 11.3334 10.5675 11.3334 10.3907V2.66667C11.3334 2.29848 11.0349 2 10.6668 2H3.44675C3.17664 2.00027 2.93339 2.16349 2.83075 2.41333L0.766751 7.42267C0.700544 7.58384 0.666571 7.75643 0.666749 7.93067V9.33333C0.666749 10.0697 1.2637 10.6667 2.00008 10.6667H6.26675L5.49808 13.6867C5.39836 14.078 5.5438 14.4909 5.86675 14.7333L6.43542 15.16C6.56827 15.2596 6.75417 15.2462 6.87142 15.1287ZM12.6668 10H14.6668C15.0349 10 15.3334 9.70152 15.3334 9.33333V2.66667C15.3334 2.29848 15.0349 2 14.6668 2H12.6668V10Z" fill="#001018"/>
</svg>
