<svg width="16" height="16" viewBox="0 0 16 16" fill="none" xmlns="http://www.w3.org/2000/svg">
<path fill-rule="evenodd" clip-rule="evenodd" d="M9.12867 0.871289L4.862 5.13796C4.73697 5.26295 4.66671 5.43249 4.66667 5.60929V13.3333C4.66667 13.7015 4.96514 14 5.33333 14H12.5533C12.8235 14.0001 13.0671 13.8371 13.17 13.5873L15.2333 8.57729C15.2995 8.41612 15.3335 8.24353 15.3333 8.06929V6.66662C15.3333 5.93024 14.7364 5.33329 14 5.33329H9.73333L10.502 2.31329C10.6017 1.92196 10.4563 1.50907 10.1333 1.26662L9.56467 0.839955C9.43182 0.740348 9.24591 0.753708 9.12867 0.871289ZM3.33333 5.99999H1.33333C0.965145 5.99999 0.666668 6.29847 0.666668 6.66666V13.3333C0.666668 13.7015 0.965145 14 1.33333 14H3.33333V5.99999Z" fill="#001018"/>
</svg>
