<svg width="24" height="24" viewBox="0 0 24 24" fill="none" xmlns="http://www.w3.org/2000/svg">
<path d="M16.9879 18L18.2039 16.42C18.3748 16.198 18.4802 15.9325 18.5079 15.6537C18.5357 15.3749 18.4848 15.0938 18.3611 14.8424C18.2373 14.5911 18.0456 14.3794 17.8077 14.2313C17.5697 14.0833 17.2951 14.0049 17.0149 14.005H14.9999V10.029C15.0001 9.71552 14.902 9.40986 14.7196 9.15497C14.5371 8.90009 14.2793 8.70878 13.9825 8.60793C13.6857 8.50707 13.3647 8.50175 13.0647 8.5927C12.7647 8.68365 12.5008 8.8663 12.3099 9.115L5.94492 17.396C4.23441 16.6882 2.8222 15.4093 1.94889 13.777C1.07558 12.1448 0.795185 10.2603 1.15548 8.44454C1.51578 6.62878 2.49448 4.9941 3.92485 3.81899C5.35521 2.64388 7.14875 2.00105 8.99992 2C10.612 1.99991 12.1865 2.48665 13.5172 3.39648C14.848 4.30631 15.873 5.59682 16.4579 7.099C17.2103 6.95429 17.9845 6.96836 18.7311 7.14031C19.4777 7.31225 20.1801 7.63827 20.7934 8.09749C21.4067 8.5567 21.9172 9.13897 22.2923 9.80698C22.6675 10.475 22.8989 11.214 22.9718 11.9767C23.0447 12.7393 22.9575 13.5088 22.7157 14.2358C22.4739 14.9627 22.0829 15.6312 21.5677 16.1983C21.0526 16.7653 20.4246 17.2185 19.7241 17.5288C19.0236 17.8391 18.2661 17.9996 17.4999 18H16.9879ZM12.9999 16.005H15.9999L10.9999 22.505V18.005H7.99992L12.9999 11.5V16.005Z" fill="#001018"/>
</svg>
