<svg width="16" height="16" viewBox="0 0 16 16" fill="none" xmlns="http://www.w3.org/2000/svg">
<path d="M11.3334 12.0001V10.6667H11.6667C12.0514 10.6667 12.4301 10.5715 12.7691 10.3897C13.1081 10.2079 13.3969 9.94507 13.6098 9.62465C13.8227 9.30424 13.9531 8.93616 13.9893 8.55318C14.0256 8.17019 13.9665 7.78419 13.8175 7.42954C13.6685 7.07488 13.4341 6.76257 13.1352 6.5204C12.8363 6.27823 12.4822 6.11373 12.1043 6.04152C11.7265 5.96932 11.3366 5.99166 10.9695 6.10655C10.6023 6.22144 10.2693 6.42533 10 6.70005V6.66672C9.99976 5.93345 9.79794 5.21436 9.41662 4.58804C9.03531 3.96172 8.48916 3.45227 7.83787 3.11536C7.18659 2.77845 6.45522 2.62705 5.72371 2.67771C4.99219 2.72836 4.28867 2.97912 3.69004 3.40258C3.0914 3.82604 2.62069 4.4059 2.32933 5.0788C2.03798 5.7517 1.9372 6.49174 2.038 7.21805C2.13881 7.94435 2.43732 8.62897 2.90092 9.19709C3.36452 9.76521 3.97536 10.195 4.66669 10.4394V11.8321C3.7825 11.6033 2.97188 11.1512 2.31249 10.5193C1.65311 9.88733 1.16705 9.09664 0.900907 8.22296C0.634759 7.34928 0.597433 6.4219 0.792505 5.52966C0.987577 4.63742 1.40851 3.81022 2.01497 3.12732C2.62144 2.44443 3.39311 1.92871 4.25605 1.62959C5.119 1.33047 6.0443 1.25797 6.9433 1.41904C7.8423 1.5801 8.68488 1.96933 9.39031 2.54944C10.0957 3.12954 10.6404 3.88108 10.972 4.73205C11.4734 4.63612 11.9893 4.64594 12.4866 4.76086C12.984 4.87579 13.4518 5.09329 13.8603 5.39946C14.2687 5.70562 14.6088 6.09369 14.8586 6.53884C15.1084 6.98398 15.2626 7.47638 15.3111 7.98452C15.3597 8.49267 15.3016 9.00535 15.1406 9.48976C14.9797 9.97417 14.7193 10.4196 14.3762 10.7976C14.0332 11.1756 13.615 11.4778 13.1484 11.6849C12.6818 11.8919 12.1771 11.9993 11.6667 12.0001L11.3334 12.0007V12.0001ZM8.66669 10.6701H10.6667L7.33336 15.0034V12.0034H5.33336L8.66669 7.66672V10.6701Z" fill="#001018"/>
</svg>
