<svg width="16" height="16" viewBox="0 0 16 16" fill="none" xmlns="http://www.w3.org/2000/svg">
<path d="M11.3254 12L12.1361 10.9467C12.2501 10.7987 12.3203 10.6217 12.3388 10.4358C12.3573 10.2499 12.3234 10.0626 12.2409 9.895C12.1584 9.72741 12.0306 9.58628 11.8719 9.48761C11.7133 9.38893 11.5302 9.33666 11.3434 9.33671H10.0001V6.68604C10.0002 6.47705 9.93486 6.27328 9.8132 6.10336C9.69154 5.93343 9.5197 5.80589 9.32182 5.73866C9.12395 5.67142 8.90998 5.66787 8.70998 5.72851C8.50998 5.78914 8.33401 5.91091 8.20678 6.07671L3.96344 11.5974C2.8231 11.1255 1.88163 10.2729 1.29942 9.18474C0.717213 8.09659 0.530286 6.84025 0.770485 5.62974C1.01068 4.41923 1.66315 3.32944 2.61673 2.54603C3.5703 1.76263 4.766 1.33407 6.00011 1.33337C7.07481 1.33331 8.12448 1.65781 9.01165 2.26436C9.89882 2.87092 10.5821 3.73126 10.9721 4.73271C11.4737 4.63624 11.9899 4.64562 12.4876 4.76024C12.9853 4.87487 13.4536 5.09222 13.8624 5.39836C14.2713 5.70451 14.6116 6.09268 14.8617 6.53802C15.1118 6.98336 15.2661 7.47604 15.3147 7.98448C15.3633 8.49292 15.3051 9.0059 15.1439 9.49055C14.9828 9.9752 14.7221 10.4208 14.3787 10.7989C14.0352 11.1769 13.6166 11.4791 13.1496 11.6859C12.6826 11.8928 12.1775 11.9997 11.6668 12H11.3254ZM8.66678 10.67H10.6668L7.33344 15.0034V12.0034H5.33344L8.66678 7.66671V10.67Z" fill="#001018"/>
</svg>
