<svg width="24" height="24" viewBox="0 0 24 24" fill="none" xmlns="http://www.w3.org/2000/svg">
<path d="M18.1171 6.27878C17.9902 6.20903 17.8667 6.13257 17.747 6.04968C17.399 5.80495 17.0799 5.51657 16.7966 5.19077C16.0878 4.32812 15.8231 3.45296 15.7256 2.84023H15.7295C15.6481 2.33163 15.6817 2.00256 15.6868 2.00256H12.4585V15.2811C12.4585 15.4594 12.4585 15.6356 12.4514 15.8097C12.4514 15.8313 12.4495 15.8513 12.4483 15.8747C12.4483 15.8842 12.4483 15.8942 12.4463 15.9042C12.4463 15.9067 12.4463 15.9092 12.4463 15.9117C12.4123 16.3882 12.2687 16.8484 12.0282 17.2519C11.7877 17.6555 11.4577 17.99 11.0671 18.226C10.66 18.4724 10.1997 18.6016 9.73135 18.6009C8.22721 18.6009 7.00815 17.2963 7.00815 15.6851C7.00815 14.0739 8.22721 12.7693 9.73135 12.7693C10.0161 12.7691 10.299 12.8167 10.5698 12.9105L10.5737 9.41409C9.75185 9.30117 8.91694 9.37064 8.12162 9.61813C7.3263 9.86561 6.58782 10.2857 5.95279 10.852C5.39635 11.3663 4.92855 11.9799 4.57043 12.6652C4.43416 12.9151 3.91998 13.9194 3.85772 15.5493C3.81856 16.4745 4.07976 17.4329 4.20429 17.8291V17.8374C4.28261 18.0707 4.5861 18.8667 5.08069 19.5377C5.47951 20.076 5.95071 20.5489 6.4791 20.941V20.9327L6.48693 20.941C8.04981 22.0707 9.78265 21.9966 9.78265 21.9966C10.0826 21.9837 11.0875 21.9966 12.2286 21.4213C13.4942 20.7836 14.2148 19.8335 14.2148 19.8335C14.6751 19.2657 15.0411 18.6188 15.2972 17.9203C15.5893 17.1034 15.6868 16.1237 15.6868 15.7322V8.68764C15.726 8.71263 16.2476 9.07961 16.2476 9.07961C16.2476 9.07961 16.9991 9.59195 18.1715 9.9256C19.0127 10.163 20.146 10.213 20.146 10.213V6.80404C19.7489 6.84986 18.9426 6.71657 18.1171 6.27878Z" fill="#001018"/>
</svg>
