<svg width="16" height="16" viewBox="0 0 16 16" fill="none" xmlns="http://www.w3.org/2000/svg">
<path d="M12.078 4.18583C11.9934 4.13933 11.9111 4.08836 11.8313 4.0331C11.5993 3.86994 11.3865 3.67769 11.1977 3.4605C10.7251 2.88539 10.5486 2.30195 10.4836 1.89347H10.4863C10.432 1.5544 10.4544 1.33502 10.4578 1.33502H8.30556V10.1874C8.30556 10.3062 8.30556 10.4237 8.30086 10.5398C8.30086 10.5542 8.29955 10.5675 8.29877 10.5831C8.29877 10.5895 8.29877 10.5961 8.29746 10.6028C8.29746 10.6045 8.29746 10.6061 8.29746 10.6078C8.27478 10.9254 8.17906 11.2322 8.01873 11.5013C7.85839 11.7703 7.63836 11.9933 7.37799 12.1507C7.10662 12.3149 6.79969 12.401 6.48748 12.4006C5.48472 12.4006 4.67202 11.5309 4.67202 10.4567C4.67202 9.38261 5.48472 8.51287 6.48748 8.51287C6.6773 8.51268 6.86595 8.54445 7.04643 8.60701L7.04904 6.27604C6.50115 6.20076 5.94455 6.24708 5.41433 6.41206C4.88412 6.57705 4.3918 6.85714 3.96844 7.23464C3.59748 7.57748 3.28562 7.98655 3.04687 8.44344C2.95602 8.61006 2.61324 9.27958 2.57173 10.3662C2.54562 10.983 2.71976 11.6219 2.80278 11.886V11.8916C2.85499 12.0471 3.05732 12.5778 3.38705 13.0251C3.65293 13.384 3.96706 13.6992 4.31932 13.9607V13.9551L4.32454 13.9607C5.36646 14.7138 6.52168 14.6644 6.52168 14.6644C6.72166 14.6557 7.39156 14.6644 8.15231 14.2809C8.99608 13.8557 9.47645 13.2223 9.47645 13.2223C9.78333 12.8438 10.0273 12.4125 10.198 11.9468C10.3928 11.4023 10.4578 10.7491 10.4578 10.4881V5.79174C10.4839 5.8084 10.8316 6.05305 10.8316 6.05305C10.8316 6.05305 11.3326 6.39461 12.1143 6.61705C12.675 6.77533 13.4306 6.80866 13.4306 6.80866V4.53601C13.1659 4.56655 12.6283 4.47769 12.078 4.18583Z" fill="#001018"/>
</svg>
