<svg width="16" height="16" viewBox="0 0 16 16" fill="none" xmlns="http://www.w3.org/2000/svg">
<path d="M3.93999 7.79333C3.5982 8.1084 3.31395 8.48064 3.09999 8.89333C2.82584 9.44025 2.67777 10.0417 2.66666 10.6533C2.6648 11.1261 2.73678 11.5962 2.87999 12.0467V12.0867C3.00983 12.4354 3.18225 12.7668 3.39333 13.0733L3.63333 13.3667V13.3067L4.29999 13.9733C4.86408 14.358 5.53056 14.5647 6.21333 14.5667C6.73406 14.5677 7.24779 14.4467 7.71333 14.2133C8.17025 13.9776 8.57585 13.6536 8.90666 13.26C9.19107 12.9076 9.41623 12.5114 9.57333 12.0867C9.71335 11.6554 9.7919 11.2065 9.80666 10.7533V5.36667L10.38 5.74L10.7667 6.01333C11.1297 6.23645 11.5225 6.40703 11.9333 6.52C12.2047 6.59029 12.481 6.63933 12.76 6.66667V5.18C12.3594 5.11772 11.9719 4.9893 11.6133 4.8C11.5171 4.74709 11.4236 4.68923 11.3333 4.62667C11.0719 4.4463 10.8345 4.23349 10.6267 3.99333C10.2082 3.48828 9.93202 2.88072 9.82666 2.23333L9.78666 2H8.37999V10.8733C8.35989 11.2616 8.24548 11.6392 8.04666 11.9733C7.8563 12.2925 7.59082 12.5602 7.27333 12.7533C6.94852 12.9533 6.57473 13.0594 6.19333 13.06C5.59268 13.0408 5.02405 12.7846 4.61179 12.3474C4.19952 11.9101 3.97716 11.3274 3.99333 10.7267C3.98745 10.415 4.04574 10.1055 4.16456 9.81726C4.28339 9.52908 4.46021 9.2684 4.68404 9.05145C4.90788 8.83449 5.17394 8.66589 5.46569 8.55611C5.75745 8.44634 6.06866 8.39774 6.37999 8.41333V6.9C5.99398 6.88466 5.60824 6.93655 5.23999 7.05333C4.75806 7.20265 4.31444 7.45517 3.93999 7.79333Z" fill="#001018"/>
</svg>
