<svg width="16" height="16" viewBox="0 0 16 16" fill="none" xmlns="http://www.w3.org/2000/svg">
<path d="M12.078 4.18586C11.9934 4.13936 11.9111 4.08839 11.8313 4.03313C11.5993 3.86997 11.3865 3.67772 11.1977 3.46053C10.7251 2.88542 10.5486 2.30198 10.4836 1.8935H10.4863C10.432 1.55443 10.4544 1.33505 10.4578 1.33505H8.30556V10.1874C8.30556 10.3062 8.30556 10.4237 8.30086 10.5398C8.30086 10.5542 8.29955 10.5676 8.29877 10.5831C8.29877 10.5895 8.29877 10.5962 8.29746 10.6028C8.29746 10.6045 8.29746 10.6062 8.29746 10.6078C8.27478 10.9254 8.17906 11.2323 8.01873 11.5013C7.85839 11.7703 7.63836 11.9933 7.37799 12.1507C7.10662 12.3149 6.79969 12.4011 6.48748 12.4006C5.48472 12.4006 4.67202 11.5309 4.67202 10.4568C4.67202 9.38264 5.48472 8.5129 6.48748 8.5129C6.6773 8.51271 6.86595 8.54448 7.04643 8.60704L7.04904 6.27607C6.50115 6.20079 5.94455 6.24711 5.41433 6.4121C4.88412 6.57708 4.3918 6.85717 3.96844 7.23467C3.59748 7.57751 3.28562 7.98658 3.04687 8.44348C2.95602 8.61009 2.61324 9.27961 2.57173 10.3662C2.54562 10.983 2.71976 11.622 2.80278 11.8861V11.8916C2.85499 12.0471 3.05732 12.5778 3.38705 13.0252C3.65293 13.384 3.96706 13.6992 4.31932 13.9607V13.9552L4.32454 13.9607C5.36646 14.7138 6.52168 14.6644 6.52168 14.6644C6.72166 14.6558 7.39156 14.6644 8.15231 14.2809C8.99608 13.8557 9.47645 13.2223 9.47645 13.2223C9.78333 12.8438 10.0273 12.4125 10.198 11.9469C10.3928 11.4023 10.4578 10.7492 10.4578 10.4881V5.79177C10.4839 5.80843 10.8316 6.05308 10.8316 6.05308C10.8316 6.05308 11.3326 6.39465 12.1143 6.61708C12.675 6.77536 13.4306 6.80869 13.4306 6.80869V4.53604C13.1659 4.56658 12.6283 4.47772 12.078 4.18586Z" fill="#001018"/>
</svg>
