<svg width="16" height="16" viewBox="0 0 16 16" fill="none" xmlns="http://www.w3.org/2000/svg">
<path d="M3.94012 7.79333C3.59833 8.1084 3.31407 8.48064 3.10012 8.89333C2.82596 9.44025 2.67789 10.0417 2.66678 10.6533C2.66492 11.1261 2.7369 11.5962 2.88012 12.0467V12.0867C3.00996 12.4354 3.18237 12.7668 3.39345 13.0733L3.63345 13.3667V13.3067L4.30012 13.9733C4.8642 14.358 5.53068 14.5647 6.21345 14.5667C6.73419 14.5677 7.24791 14.4467 7.71345 14.2133C8.17037 13.9776 8.57598 13.6536 8.90678 13.26C9.19119 12.9076 9.41635 12.5114 9.57345 12.0867C9.71347 11.6554 9.79202 11.2065 9.80678 10.7533V5.36667L10.3801 5.74L10.7668 6.01333C11.1298 6.23645 11.5226 6.40703 11.9335 6.52C12.2048 6.59029 12.4812 6.63933 12.7601 6.66667V5.18C12.3595 5.11772 11.972 4.9893 11.6135 4.8C11.5172 4.74709 11.4237 4.68923 11.3335 4.62667C11.072 4.4463 10.8346 4.23349 10.6268 3.99333C10.2083 3.48828 9.93214 2.88072 9.82678 2.23333L9.78678 2H8.38012V10.8733C8.36001 11.2616 8.2456 11.6392 8.04678 11.9733C7.85642 12.2925 7.59094 12.5602 7.27345 12.7533C6.94864 12.9533 6.57485 13.0594 6.19345 13.06C5.5928 13.0408 5.02417 12.7846 4.61191 12.3474C4.19964 11.9101 3.97728 11.3274 3.99345 10.7267C3.98757 10.415 4.04586 10.1055 4.16468 9.81726C4.28351 9.52908 4.46033 9.2684 4.68416 9.05145C4.908 8.83449 5.17406 8.66589 5.46581 8.55611C5.75757 8.44634 6.06878 8.39774 6.38012 8.41333V6.9C5.9941 6.88466 5.60836 6.93655 5.24012 7.05333C4.75818 7.20265 4.31456 7.45517 3.94012 7.79333Z" fill="#001018"/>
</svg>
