<svg viewBox="0 0 24 24" xmlns="http://www.w3.org/2000/svg"><path fill-rule="evenodd" clip-rule="evenodd" d="M15.9996 2H7.99959V4H15.9996V2ZM19.0706 5.515L17.6176 6.968C13.8861 3.98692 8.47592 4.43969 5.29187 7.99951C2.10781 11.5593 2.25889 16.9864 5.63606 20.3635C9.01322 23.7407 14.4403 23.8918 18.0001 20.7077C21.5599 17.5237 22.0127 12.1134 19.0316 8.382L20.4846 6.929L19.0706 5.515ZM18.0618 17.5C16.8113 19.6658 14.5004 21 11.9996 21C8.13359 21 4.99959 17.866 4.99959 14C4.99959 10.134 8.13359 7 11.9996 7C14.5004 7 16.8113 8.33419 18.0618 10.5C19.3122 12.6658 19.3122 15.3342 18.0618 17.5ZM12.9996 9V15H10.9996V9H12.9996Z"/></svg>