<svg width="16" height="16" viewBox="0 0 16 16" fill="none" xmlns="http://www.w3.org/2000/svg">
<path fill-rule="evenodd" clip-rule="evenodd" d="M8 14.6667C4.318 14.6667 1.33334 11.682 1.33334 8C1.33334 4.318 4.318 1.33334 8 1.33334C11.682 1.33334 14.6667 4.318 14.6667 8C14.6667 11.682 11.682 14.6667 8 14.6667ZM8 13.3333C10.9455 13.3333 13.3333 10.9455 13.3333 8C13.3333 5.05448 10.9455 2.66667 8 2.66667C5.05448 2.66667 2.66667 5.05448 2.66667 8C2.66667 10.9455 5.05448 13.3333 8 13.3333ZM11.3333 8H8.66667V4.66667H7.33334V9.33334H11.3333V8Z" fill="#001018"/>
</svg>
