<svg width="16" height="16" viewBox="0 0 16 16" fill="none" xmlns="http://www.w3.org/2000/svg">
<path d="M3.55068 2.13566C3.96671 1.98724 4.41632 1.95996 4.84725 2.05699C5.27817 2.15402 5.6727 2.37138 5.98497 2.68379C6.29724 2.9962 6.51442 3.39082 6.61126 3.82179C6.70809 4.25276 6.68061 4.70236 6.53201 5.11833L13.762 12.3483L12.3473 13.7623L5.11734 6.53299C4.70131 6.68141 4.2517 6.70869 3.82077 6.61166C3.38985 6.51463 2.99532 6.29727 2.68305 5.98486C2.37078 5.67246 2.1536 5.27783 2.05676 4.84686C1.95993 4.41589 1.98741 3.96629 2.13601 3.55033L3.62668 5.04166C3.71892 5.13717 3.82927 5.21335 3.95127 5.26576C4.07328 5.31817 4.2045 5.34576 4.33728 5.34691C4.47005 5.34806 4.60173 5.32276 4.72463 5.27248C4.84753 5.2222 4.95918 5.14795 5.05307 5.05405C5.14696 4.96016 5.22122 4.84851 5.2715 4.72561C5.32178 4.60272 5.34708 4.47104 5.34593 4.33826C5.34477 4.20548 5.31719 4.07426 5.26478 3.95225C5.21237 3.83025 5.13619 3.71991 5.04068 3.62766L3.55001 2.13499L3.55068 2.13566ZM10.462 3.39166L12.5833 2.21299L13.526 3.15566L12.3473 5.27699L11.1687 5.51299L9.75534 6.92699L8.81201 5.98433L10.226 4.57033L10.462 3.39166V3.39166ZM5.74801 8.57699L7.16201 9.99166L3.86201 13.2917C3.68003 13.4719 3.43582 13.5755 3.17973 13.581C2.92364 13.5865 2.6752 13.4935 2.48565 13.3213C2.29609 13.149 2.17987 12.9105 2.16096 12.6551C2.14205 12.3996 2.22189 12.1466 2.38401 11.9483L2.44868 11.877L5.74868 8.57699H5.74801Z" fill="#001018"/>
</svg>
