<svg width="24" height="24" viewBox="0 0 24 24" fill="none" xmlns="http://www.w3.org/2000/svg">
<path d="M5.33003 3.27096C5.99706 3.03294 6.72061 3.00288 7.40509 3.18476C8.08957 3.36664 8.70277 3.75189 9.16368 4.28961C9.62459 4.82734 9.91152 5.49225 9.98657 6.19649C10.0616 6.90073 9.92126 7.61117 9.58403 8.23396L20.293 18.944L18.879 20.358L8.16903 9.64796C7.5461 9.98386 6.83602 10.1231 6.13236 10.0475C5.4287 9.97177 4.76448 9.68466 4.22724 9.22397C3.69 8.76327 3.30494 8.15061 3.12282 7.46673C2.9407 6.78284 2.97006 6.05982 3.20703 5.39296L5.44403 7.62996C5.5824 7.77322 5.74791 7.8875 5.93092 7.96611C6.11393 8.04472 6.31076 8.0861 6.50993 8.08783C6.70909 8.08956 6.90661 8.05161 7.09096 7.97619C7.2753 7.90077 7.44278 7.78939 7.58362 7.64855C7.72446 7.50771 7.83584 7.34023 7.91126 7.15589C7.98668 6.97154 8.02463 6.77402 8.0229 6.57485C8.02117 6.37569 7.97979 6.17886 7.90118 5.99585C7.82257 5.81284 7.70829 5.64733 7.56503 5.50896L5.32903 3.26996L5.33003 3.27096ZM15.697 5.15496L18.879 3.38696L20.293 4.80096L18.525 7.98296L16.757 8.33696L14.637 10.458L13.222 9.04396L15.343 6.92296L15.697 5.15496ZM8.97903 13.287L10.393 14.701L5.09003 20.004C4.90973 20.1848 4.66709 20.2898 4.41186 20.2974C4.15663 20.305 3.90814 20.2148 3.71734 20.0451C3.52655 19.8754 3.40789 19.6391 3.38571 19.3847C3.36352 19.1304 3.43949 18.8771 3.59803 18.677L3.67603 18.59L8.97903 13.287Z" fill="#001018"/>
</svg>
