<svg width="16" height="16" viewBox="0 0 16 16" fill="none" xmlns="http://www.w3.org/2000/svg">
<path d="M3.55333 2.18064C3.99802 2.02196 4.48039 2.00192 4.93671 2.12317C5.39303 2.24442 5.80182 2.50126 6.1091 2.85974C6.41637 3.21823 6.60766 3.6615 6.65769 4.13099C6.70773 4.60049 6.61415 5.07411 6.38933 5.4893L13.5287 12.6293L12.586 13.572L5.446 6.43197C5.03071 6.65591 4.55733 6.74876 4.08822 6.6983C3.61911 6.64785 3.1763 6.45644 2.81814 6.14931C2.45998 5.84218 2.20328 5.43374 2.08186 4.97782C1.96045 4.5219 1.98002 4.03988 2.138 3.5953L3.62933 5.08664C3.72158 5.18215 3.83192 5.25833 3.95393 5.31074C4.07593 5.36315 4.20715 5.39073 4.33993 5.39189C4.47271 5.39304 4.60439 5.36774 4.72729 5.31746C4.85018 5.26718 4.96183 5.19293 5.05573 5.09903C5.14962 5.00514 5.22387 4.89349 5.27415 4.77059C5.32443 4.6477 5.34974 4.51602 5.34858 4.38324C5.34743 4.25046 5.31984 4.11924 5.26743 3.99723C5.21502 3.87523 5.13884 3.76488 5.04333 3.67264L3.55266 2.17997L3.55333 2.18064ZM10.4647 3.43664L12.586 2.25797L13.5287 3.20064L12.35 5.32197L11.1713 5.55797L9.758 6.97197L8.81467 6.0293L10.2287 4.6153L10.4647 3.43664V3.43664ZM5.986 8.85797L6.92866 9.80064L3.39333 13.336C3.27313 13.4565 3.11137 13.5265 2.94122 13.5316C2.77106 13.5367 2.60541 13.4765 2.47821 13.3634C2.35101 13.2502 2.27191 13.0927 2.25712 12.9232C2.24233 12.7536 2.29297 12.5847 2.39866 12.4513L2.45066 12.3933L5.986 8.85797Z" fill="#001018"/>
</svg>
