<svg width="16" height="16" viewBox="0 0 16 16" fill="none" xmlns="http://www.w3.org/2000/svg">
<path d="M5.9765 12C5.89725 12.5562 5.61998 13.0651 5.19562 13.4333C4.77127 13.8015 4.22832 14.0042 3.6665 14.0042C3.10469 14.0042 2.56174 13.8015 2.13738 13.4333C1.71303 13.0651 1.43576 12.5562 1.3565 12H0.666504V3.99998C0.666504 3.82317 0.736742 3.6536 0.861766 3.52858C0.98679 3.40355 1.15636 3.33331 1.33317 3.33331H10.6665C10.8433 3.33331 11.0129 3.40355 11.1379 3.52858C11.2629 3.6536 11.3332 3.82317 11.3332 3.99998V5.33331H13.3332L15.3332 8.03731V12H13.9765C13.8973 12.5562 13.62 13.0651 13.1956 13.4333C12.7713 13.8015 12.2283 14.0042 11.6665 14.0042C11.1047 14.0042 10.5617 13.8015 10.1374 13.4333C9.71303 13.0651 9.43576 12.5562 9.3565 12H5.9765ZM9.99984 4.66665H1.99984V10.0333C2.26288 9.76478 2.5869 9.56377 2.94434 9.44739C3.30177 9.33101 3.68203 9.30272 4.05276 9.36491C4.42348 9.4271 4.77369 9.57794 5.07358 9.80458C5.37347 10.0312 5.61416 10.327 5.77517 10.6666H9.55784C9.66984 10.4313 9.81984 10.2173 9.99984 10.0333V4.66665ZM11.3332 8.66665H13.9998V8.47665L12.6612 6.66665H11.3332V8.66665ZM11.6665 12.6666C11.9318 12.6666 12.1862 12.5613 12.3738 12.3737C12.5614 12.1861 12.6668 11.9316 12.6668 11.6663C12.6668 11.401 12.5614 11.1466 12.3738 10.959C12.1862 10.7714 11.9318 10.666 11.6665 10.666C11.4012 10.666 11.1468 10.7714 10.9592 10.959C10.7716 11.1466 10.6662 11.401 10.6662 11.6663C10.6662 11.9316 10.7716 12.1861 10.9592 12.3737C11.1468 12.5613 11.4012 12.6666 11.6665 12.6666ZM4.6665 11.6666C4.6665 11.5353 4.64064 11.4053 4.59038 11.284C4.54013 11.1626 4.46647 11.0524 4.37361 10.9595C4.28075 10.8667 4.17051 10.793 4.04919 10.7428C3.92786 10.6925 3.79783 10.6666 3.6665 10.6666C3.53518 10.6666 3.40515 10.6925 3.28382 10.7428C3.16249 10.793 3.05226 10.8667 2.9594 10.9595C2.86654 11.0524 2.79288 11.1626 2.74262 11.284C2.69237 11.4053 2.6665 11.5353 2.6665 11.6666C2.6665 11.9319 2.77186 12.1862 2.9594 12.3738C3.14693 12.5613 3.40129 12.6666 3.6665 12.6666C3.93172 12.6666 4.18607 12.5613 4.37361 12.3738C4.56115 12.1862 4.6665 11.9319 4.6665 11.6666Z" fill="#001018"/>
</svg>
