<svg width="16" height="16" viewBox="0 0 16 16" fill="none" xmlns="http://www.w3.org/2000/svg">
<path d="M11.3332 5.33331H13.3332L15.3332 8.03731V12H13.9765C13.8973 12.5562 13.62 13.0651 13.1956 13.4333C12.7713 13.8015 12.2283 14.0042 11.6665 14.0042C11.1047 14.0042 10.5617 13.8015 10.1374 13.4333C9.71303 13.0651 9.43576 12.5562 9.3565 12H5.9765C5.89725 12.5562 5.61998 13.0651 5.19562 13.4333C4.77127 13.8015 4.22832 14.0042 3.6665 14.0042C3.10469 14.0042 2.56174 13.8015 2.13738 13.4333C1.71303 13.0651 1.43576 12.5562 1.3565 12H0.666504V3.99998C0.666504 3.82317 0.736742 3.6536 0.861766 3.52858C0.98679 3.40355 1.15636 3.33331 1.33317 3.33331H10.6665C10.8433 3.33331 11.0129 3.40355 11.1379 3.52858C11.2629 3.6536 11.3332 3.82317 11.3332 3.99998V5.33331ZM11.3332 6.66665V8.66665H13.9998V8.47665L12.6612 6.66665H11.3332Z" fill="#001018"/>
</svg>
