<svg width="16" height="16" fill="none" xmlns="http://www.w3.org/2000/svg"><path fill-rule="evenodd" clip-rule="evenodd" d="M8.986 2.6a3.267 3.267 0 0 0-2.053 2.973l-.122-.015c-.286-.036-.514-.065-1.192-.343-1.16-.476-2.305-1.373-3.434-2.691-2.331 5.614 1.039 7.809 2.083 8.49.033.02.063.04.091.059-1.086.795-2.966.997-3.429 1.033.908.948 4.076 1.662 6.255 1.227 3.177-.634 6.308-3.111 6.308-8.206.476-.652.586-1.127.81-2.22-.762.461-1.168.448-1.562.434-.072-.002-.144-.005-.218-.004A3.267 3.267 0 0 0 8.986 2.6zm-.72 2.998A1.933 1.933 0 0 1 10.2 3.7c1.285 0 1.96 1.109 1.96 1.427 0 3.904-2.091 6.271-5.237 6.899-.497.099-1.096.127-1.728.087l1.062-.775a.4.4 0 0 0-.023-.662l-1.165-.732c-1.875-1.18-2.654-2.708-2.255-4.915 1.259 1.049 2.57 1.68 3.94 1.866l1.04.142a.4.4 0 0 0 .454-.389l.019-1.05z" fill="#001018"/></svg>