<svg width="24" height="24" viewBox="0 0 24 24" fill="none" xmlns="http://www.w3.org/2000/svg">
<path fill-rule="evenodd" clip-rule="evenodd" d="M13.4789 3.89935C11.6489 4.6316 10.4357 6.38917 10.4 8.35999L10.401 8.36099C10.3364 8.3521 10.2755 8.34445 10.2161 8.337C9.78797 8.28324 9.44512 8.24019 8.42802 7.82299C6.68802 7.10899 4.97102 5.76299 3.27802 3.78599C-0.219549 12.2065 4.83533 15.499 6.40253 16.5198C6.45156 16.5517 6.49718 16.5814 6.53902 16.609C4.90902 17.802 2.08902 18.105 1.39502 18.159C2.75702 19.581 7.50902 20.652 10.777 20C15.543 19.049 20.24 15.333 20.24 7.69099C20.954 6.71199 21.119 5.99999 21.454 4.35999C20.3112 5.0526 19.702 5.03178 19.1119 5.01161C19.0034 5.0079 18.8955 5.00421 18.785 5.00499C17.3997 3.60274 15.309 3.1671 13.4789 3.89935ZM12.4 8.39699C12.4289 6.8161 13.7189 5.54972 15.3 5.54999C17.228 5.54999 18.24 7.21299 18.24 7.69099C18.24 13.547 15.103 17.097 10.385 18.039C9.63902 18.187 8.74002 18.229 7.79302 18.17L9.38502 17.007C9.54592 16.8898 9.63823 16.7004 9.63141 16.5015C9.6246 16.3025 9.51956 16.1199 9.35102 16.014L7.60402 14.916C4.79102 13.147 3.62302 10.854 4.22102 7.54399C6.10902 9.11699 8.07702 10.063 10.131 10.343L11.692 10.555C11.8616 10.5778 12.0328 10.5272 12.1627 10.4159C12.2925 10.3045 12.3687 10.143 12.372 9.97199L12.4 8.39699Z" fill="#001018"/>
</svg>
