<svg width="16" height="16" xmlns="http://www.w3.org/2000/svg"><path d="M14.775 3.77a5.59 5.59 0 0 1-1.602.44A2.797 2.797 0 0 0 14.4 2.666a5.572 5.572 0 0 1-1.77.676 2.788 2.788 0 0 0-4.751 2.543 7.916 7.916 0 0 1-5.747-2.913 2.788 2.788 0 0 0 .863 3.723 2.779 2.779 0 0 1-1.263-.35v.035a2.79 2.79 0 0 0 2.237 2.734 2.794 2.794 0 0 1-1.26.048A2.79 2.79 0 0 0 5.313 11.1a5.597 5.597 0 0 1-4.127 1.155 7.887 7.887 0 0 0 4.273 1.253c5.129 0 7.934-4.249 7.934-7.933 0-.12-.004-.242-.009-.36a5.665 5.665 0 0 0 1.39-1.444z"/></svg>