<svg width="16" height="16" viewBox="0 0 16 16" xmlns="http://www.w3.org/2000/svg"><path d="M11.3334 11.3333H14.6667V12.6667H12.6667V14.6667H11.3334V11.3333ZM4.66671 4.66666H1.33337V3.33333H3.33337V1.33333H4.66671V4.66666ZM12.2427 10.3573L11.3 9.41333L12.2427 8.47066C12.5545 8.16163 12.8021 7.79406 12.9714 7.38906C13.1407 6.98406 13.2284 6.54961 13.2294 6.11064C13.2303 5.67167 13.1446 5.23684 12.977 4.8311C12.8095 4.42536 12.5635 4.05671 12.2531 3.74632C11.9427 3.43592 11.574 3.18989 11.1683 3.02235C10.7625 2.8548 10.3277 2.76905 9.88873 2.77001C9.44976 2.77098 9.01531 2.85863 8.61031 3.02795C8.20531 3.19726 7.83774 3.44491 7.52871 3.75666L6.58604 4.7L5.64271 3.75733L6.58671 2.81466C7.46192 1.93945 8.64897 1.44776 9.88671 1.44776C11.1244 1.44776 12.3115 1.93945 13.1867 2.81466C14.0619 3.68988 14.5536 4.87692 14.5536 6.11466C14.5536 7.3524 14.0619 8.53945 13.1867 9.41466L12.2434 10.3573H12.2427ZM10.3574 12.2427L9.41404 13.1853C8.53883 14.0605 7.35178 14.5522 6.11404 14.5522C4.8763 14.5522 3.68926 14.0605 2.81404 13.1853C1.93883 12.3101 1.44714 11.1231 1.44714 9.88533C1.44714 8.64759 1.93883 7.46054 2.81404 6.58533L3.75737 5.64266L4.70004 6.58666L3.75737 7.52933C3.44562 7.83836 3.19798 8.20593 3.02866 8.61093C2.85934 9.01593 2.77169 9.45039 2.77073 9.88935C2.76977 10.3283 2.85552 10.7632 3.02306 11.1689C3.1906 11.5746 3.43663 11.9433 3.74703 12.2537C4.05743 12.5641 4.42608 12.8101 4.83181 12.9776C5.23755 13.1452 5.67238 13.2309 6.11135 13.23C6.55032 13.229 6.98477 13.1414 7.38977 12.972C7.79477 12.8027 8.16234 12.5551 8.47137 12.2433L9.41404 11.3007L10.3574 12.2433V12.2427ZM9.88537 5.17133L10.8287 6.11466L6.11471 10.828L5.17137 9.88533L9.88537 5.17199V5.17133Z"/></svg>