<svg width="16" height="16" viewBox="0 0 16 16" fill="none" xmlns="http://www.w3.org/2000/svg">
<path fill-rule="evenodd" clip-rule="evenodd" d="M8.00001 9.33333C5.79 9.33333 4.00001 7.54333 4.00001 5.33333C4.00001 3.12333 5.79 1.33333 8.00001 1.33333C10.21 1.33333 12 3.12333 12 5.33333C12 7.54333 10.21 9.33333 8.00001 9.33333ZM2.66667 15.3333C2.66667 12.3878 5.05449 10 8 10C10.9455 10 13.3333 12.3878 13.3333 15.3333H12C12 13.1242 10.2091 11.3333 8 11.3333C5.79087 11.3333 4.00001 13.1242 4.00001 15.3333H2.66667ZM10.6667 5.33333C10.6667 6.80667 9.47334 8 8.00001 8C6.52667 8 5.33334 6.80667 5.33334 5.33333C5.33334 3.86 6.52667 2.66667 8.00001 2.66667C9.47334 2.66667 10.6667 3.86 10.6667 5.33333Z" fill="#001018"/>
</svg>
