<svg width="16" height="16" viewBox="0 0 16 16" fill="none" xmlns="http://www.w3.org/2000/svg">
<path d="M2.66992 15.3343C2.66992 13.9194 3.232 12.5624 4.23251 11.5619C5.23301 10.5614 6.58999 9.99933 8.00492 9.99933C9.41985 9.99933 10.7768 10.5614 11.7773 11.5619C12.7778 12.5624 13.3399 13.9194 13.3399 15.3343H12.0062C12.0062 14.2731 11.5846 13.2554 10.8342 12.505C10.0839 11.7546 9.06612 11.3331 8.00492 11.3331C6.94372 11.3331 5.92599 11.7546 5.17561 12.505C4.42523 13.2554 4.00367 14.2731 4.00367 15.3343H2.66992ZM8.00492 9.33246C5.79423 9.33246 4.00367 7.5419 4.00367 5.33121C4.00367 3.12052 5.79423 1.32996 8.00492 1.32996C10.2156 1.32996 12.0062 3.12052 12.0062 5.33121C12.0062 7.5419 10.2156 9.33246 8.00492 9.33246ZM8.00492 7.99871C9.47872 7.99871 10.6724 6.805 10.6724 5.33121C10.6724 3.85741 9.47872 2.66371 8.00492 2.66371C6.53113 2.66371 5.33742 3.85741 5.33742 5.33121C5.33742 6.805 6.53113 7.99871 8.00492 7.99871Z" fill="#001018"/>
</svg>
