<svg width="16" height="16" xmlns="http://www.w3.org/2000/svg"><path fill-rule="evenodd" clip-rule="evenodd" d="M3.334 1.84C4.604.967 6.298.78 8 .78c1.702 0 3.396.187 4.666 1.06 1.325.91 2.054 2.46 2.054 4.848 0 2.386-.729 3.938-2.054 4.848-1.27.872-2.964 1.06-4.666 1.06h-.918L5.656 14.02l-.027.022-.008.007a1.324 1.324 0 0 0-.081.072 16.558 16.558 0 0 0-.298.277l-.045.041-1.073 1.018v-3.471c-.781-.349-1.462-.873-1.963-1.655-.582-.908-.881-2.104-.881-3.643 0-2.387.729-3.938 2.054-4.848zM7.45 5.55c0-.192.156-.348.348-.348.72 0 1.282.562 1.282 1.282a.348.348 0 0 1-.696 0 .571.571 0 0 0-.586-.586.348.348 0 0 1-.348-.348zm.348-2.867a.348.348 0 1 0 0 .697 3.102 3.102 0 0 1 3.105 3.104.348.348 0 0 0 .696 0c0-2.101-1.7-3.8-3.801-3.8zM7.45 4.291c0-.192.156-.348.348-.348a2.533 2.533 0 0 1 2.542 2.541.348.348 0 0 1-.697 0A1.836 1.836 0 0 0 7.797 4.64a.348.348 0 0 1-.348-.348zm2.948 4.143c.04.082.04.366-.082.731-.121.366-.609.65-1.015.772-.244.04-.61.082-1.787-.406C6.2 8.964 5.292 7.717 5.027 7.354a1.213 1.213 0 0 0-.074-.098c-.08-.081-.609-.812-.609-1.543 0-.732.366-1.097.528-1.26.122-.162.325-.203.528-.203.04 0 .122 0 .163.04.162 0 .244 0 .325.204.06.142.162.396.254.625.091.228.172.431.193.472.04.081.08.203.04.284a.518.518 0 0 1-.162.244l-.244.244c-.081.08-.163.162-.081.325.025.033.058.082.097.14.15.222.402.594.756.916a4.1 4.1 0 0 0 1.107.68 2.6 2.6 0 0 1 .111.05c.122.082.285.042.366-.04.072-.072.144-.172.224-.283.056-.078.116-.161.182-.245.082-.162.244-.162.366-.122.122.041.853.407 1.015.488.055.027.1.045.137.06.075.03.12.048.148.102z"/></svg>