<svg width="16" height="16" xmlns="http://www.w3.org/2000/svg"><path d="M10.316 9.166c.122-.366.122-.65.08-.732-.026-.054-.071-.072-.147-.102-.037-.015-.082-.033-.136-.06-.163-.081-.894-.447-1.016-.488-.122-.04-.284-.04-.366.122a5.79 5.79 0 0 0-.182.245c-.08.111-.152.212-.224.283-.081.082-.244.122-.366.041-.028-.014-.065-.03-.111-.05-.222-.097-.637-.278-1.107-.681-.354-.322-.606-.694-.756-.916a3.975 3.975 0 0 0-.097-.14c-.082-.163 0-.244.08-.325l.245-.244c.08-.081.121-.122.162-.244.04-.081 0-.203-.04-.284a16.83 16.83 0 0 1-.194-.473 41.719 41.719 0 0 0-.253-.624c-.082-.203-.163-.203-.325-.203-.041-.041-.122-.041-.163-.041-.203 0-.406.04-.528.203-.163.163-.528.528-.528 1.26 0 .73.528 1.462.61 1.543.01.01.034.045.073.098.265.363 1.174 1.61 2.486 2.177 1.178.488 1.543.447 1.787.407.406-.122.894-.407 1.016-.772z"/><path d="M7.797 5.202a.348.348 0 0 0 0 .696.57.57 0 0 1 .586.586.348.348 0 0 0 .697 0c0-.72-.563-1.282-1.283-1.282zm-.348-2.171c0-.192.156-.348.348-.348 2.102 0 3.801 1.7 3.801 3.801a.348.348 0 0 1-.696 0A3.102 3.102 0 0 0 7.797 3.38a.348.348 0 0 1-.348-.348z"/><path d="M7.797 3.942a.348.348 0 0 0 0 .697c1.026 0 1.845.819 1.845 1.845a.348.348 0 1 0 .697 0 2.533 2.533 0 0 0-2.542-2.542z"/><path d="M3.334 1.84C4.604.966 6.298.78 8 .78c1.703 0 3.396.187 4.666 1.06 1.326.91 2.055 2.46 2.055 4.848 0 2.386-.73 3.938-2.055 4.848-1.27.872-2.963 1.06-4.666 1.06h-.918L5.656 14.02l-.027.022-.002.001-.006.005-.02.018a16.73 16.73 0 0 0-.36.331l-.044.042-1.074 1.017v-3.47c-.78-.35-1.462-.874-1.962-1.656-.582-.908-.881-2.104-.881-3.643 0-2.387.729-3.939 2.054-4.849zm.71 1.033c-.879.603-1.51 1.692-1.51 3.815 0 1.385.269 2.322.682 2.967.408.636.993 1.049 1.745 1.317l.416.149v1.406l1.185-1.185H8c1.67 0 3.023-.199 3.957-.84.878-.603 1.51-1.692 1.51-3.814 0-2.123-.632-3.212-1.51-3.815-.934-.641-2.288-.84-3.957-.84-1.67 0-3.023.199-3.956.84z"/></svg>