<svg width="16" height="16" xmlns="http://www.w3.org/2000/svg"><path d="M3.334 1.84C4.604.967 6.298.78 8 .78c1.702 0 3.396.187 4.666 1.06 1.325.91 2.054 2.46 2.054 4.848 0 2.386-.729 3.938-2.054 4.848-1.27.872-2.964 1.06-4.666 1.06h-.918L5.656 14.02l-.027.022-.008.007a1.324 1.324 0 0 0-.081.072 16.558 16.558 0 0 0-.298.277l-.045.041-1.073 1.018v-3.471c-.781-.349-1.462-.873-1.963-1.655-.582-.908-.881-2.104-.881-3.643 0-2.387.729-3.938 2.054-4.848zM7.45 5.55c0 .192.156.348.348.348a.57.57 0 0 1 .586.586.348.348 0 0 0 .696 0c0-.72-.562-1.282-1.282-1.282a.348.348 0 0 0-.348.348zm.348-2.867a.348.348 0 1 0 0 .697 3.102 3.102 0 0 1 3.105 3.104.348.348 0 0 0 .696 0c0-2.101-1.7-3.8-3.801-3.8zM7.45 4.291c0 .192.156.348.348.348 1.026 0 1.845.82 1.845 1.845a.348.348 0 1 0 .697 0 2.533 2.533 0 0 0-2.542-2.541.348.348 0 0 0-.348.348zm2.948 4.143c-.027-.054-.072-.072-.148-.102a1.7 1.7 0 0 1-.137-.06c-.162-.081-.893-.447-1.015-.488-.122-.04-.284-.04-.366.122a6.974 6.974 0 0 0-.182.245c-.08.111-.152.211-.224.283-.081.082-.244.122-.366.04a2.6 2.6 0 0 0-.111-.05 4.1 4.1 0 0 1-1.107-.68c-.354-.322-.606-.694-.756-.916-.04-.058-.072-.107-.097-.14-.082-.163 0-.244.081-.325l.244-.244a.518.518 0 0 0 .162-.244c.04-.081 0-.203-.04-.284-.02-.04-.102-.244-.193-.472-.092-.229-.193-.483-.254-.625-.082-.203-.163-.203-.325-.203-.04-.04-.122-.04-.163-.04-.203 0-.406.04-.528.202a1.651 1.651 0 0 0-.528 1.26c0 .73.528 1.462.61 1.543.01.01.035.045.073.098.265.363 1.174 1.61 2.486 2.177 1.178.487 1.543.447 1.787.406.406-.122.894-.406 1.015-.772.122-.365.122-.65.082-.73z"/></svg>