<svg viewBox="0 0 24 24" xmlns="http://www.w3.org/2000/svg"><path d="M5.53916 4.1619C7.29809 2.95416 9.64267 2.69464 11.9999 2.69464C14.3572 2.69464 16.7018 2.95416 18.4607 4.1619C20.296 5.42205 21.3053 7.57004 21.3053 10.875C21.3053 14.18 20.296 16.3279 18.4607 17.5881C16.7018 18.7958 14.3572 19.0554 11.9999 19.0554H10.7282L8.75462 21.0289L8.71708 21.0589L8.70613 21.0681C8.69879 21.0743 8.68936 21.0825 8.67775 21.0927C8.65441 21.1131 8.62573 21.1388 8.5928 21.1686C8.52702 21.2282 8.45019 21.2991 8.37587 21.3682C8.30188 21.437 8.23196 21.5026 8.18044 21.5511L8.11913 21.6089L6.63208 23.0176V18.2117C5.55108 17.7287 4.60776 17.0029 3.91445 15.9204C3.10855 14.6622 2.69458 13.0067 2.69458 10.875C2.69458 7.57004 3.70391 5.42205 5.53916 4.1619ZM11.2366 9.30001C11.2366 9.56629 11.4524 9.78216 11.7187 9.78216C12.1837 9.78216 12.5303 10.1288 12.5303 10.5938C12.5303 10.86 12.7462 11.0759 13.0125 11.0759C13.2787 11.0759 13.4946 10.86 13.4946 10.5938C13.4946 9.59623 12.7162 8.81787 11.7187 8.81787C11.4524 8.81787 11.2366 9.03373 11.2366 9.30001ZM11.7187 5.33035C11.4524 5.33035 11.2366 5.54622 11.2366 5.8125C11.2366 6.07878 11.4524 6.29464 11.7187 6.29464C14.0962 6.29464 16.0178 8.21628 16.0178 10.5937C16.0178 10.86 16.2337 11.0759 16.5 11.0759C16.7662 11.0759 16.9821 10.86 16.9821 10.5937C16.9821 7.68372 14.6287 5.33035 11.7187 5.33035ZM11.2366 7.55624C11.2366 7.82252 11.4524 8.03838 11.7187 8.03838C13.1399 8.03838 14.2741 9.17252 14.2741 10.5937C14.2741 10.86 14.4899 11.0759 14.7562 11.0759C15.0225 11.0759 15.2384 10.86 15.2384 10.5937C15.2384 8.63996 13.6725 7.0741 11.7187 7.0741C11.4524 7.0741 11.2366 7.28996 11.2366 7.55624ZM15.3187 13.2937C15.2812 13.2187 15.2187 13.1937 15.1146 13.1521C15.0625 13.1312 15 13.1062 14.925 13.0687C14.7 12.9562 13.6875 12.45 13.5188 12.3937C13.35 12.3375 13.125 12.3375 13.0125 12.5625C12.9201 12.678 12.8372 12.7934 12.7599 12.9011C12.6489 13.0557 12.5495 13.1943 12.45 13.2937C12.3375 13.4062 12.1125 13.4625 11.9437 13.35C11.9049 13.3306 11.8527 13.3078 11.7888 13.28C11.4824 13.1464 10.9078 12.896 10.2562 12.3375C9.76659 11.8924 9.41784 11.3768 9.21 11.0695C9.15521 10.9885 9.11021 10.9219 9.075 10.875C8.9625 10.65 9.075 10.5375 9.1875 10.425L9.525 10.0875C9.6375 9.975 9.69375 9.91875 9.75 9.75C9.80625 9.6375 9.75 9.46875 9.69375 9.35625C9.66563 9.3 9.55313 9.01876 9.42657 8.70236C9.3 8.38595 9.15938 8.03438 9.075 7.8375C8.9625 7.55625 8.85 7.55625 8.625 7.55625C8.56875 7.5 8.45625 7.5 8.4 7.5C8.11875 7.5 7.8375 7.55625 7.66875 7.78125C7.44375 8.00625 6.9375 8.5125 6.9375 9.525C6.9375 10.5375 7.66875 11.55 7.78125 11.6625C7.7956 11.6769 7.8301 11.7242 7.88369 11.7977C8.25013 12.3003 9.50929 14.0273 11.325 14.8125C12.9563 15.4875 13.4625 15.4312 13.8 15.375C14.3625 15.2062 15.0375 14.8125 15.2063 14.3062C15.375 13.8 15.375 13.4062 15.3187 13.2937Z"/></svg>