<svg width="16" height="16" xmlns="http://www.w3.org/2000/svg"><path fill-rule="evenodd" clip-rule="evenodd" d="M11.668 5.643a3.566 3.566 0 0 0-1.148-.23c-1.311 0-2.234.654-2.245 1.629-.01.756.677 1.136 1.173 1.41l.01.005c.495.273.631.383.629.604-.004.312-.383.49-.825.49-.483 0-.722-.075-1.287-.312l-.234 1.084c.554.196.8.254 1.48.264 1.49 0 2.197-.826 2.206-1.664.008-.403-.076-.774-.716-1.188-.16-.103-.319-.191-.464-.272-.362-.2-.64-.353-.64-.59 0-.204.314-.416.82-.425.35-.005.764.132 1.016.233l.225-1.038zm-5.61-.137-1.351-.001-1.354 3.389-.13-.69c-.21-1.12-.344-1.835-.404-2.146-.07-.37-.288-.551-.661-.551H0v.136c.528.164.905.284 1.13.362.255.087.387.272.453.536.336 1.324.675 2.648 1.019 3.97l1.367.002 2.088-5.007zm8.757 5.006-.15-.75h-1.676l-.267.745-1.343.002c.64-1.538 1.28-3.075 1.922-4.612.11-.26.304-.393.59-.392.218.002.575.002 1.07.001L16 10.51l-1.185.002zm-1.449-1.777h1.08l-.403-1.88-.677 1.88zM7.913 5.506l-1.068 5.005-1.285-.001 1.067-5.005 1.286.001z"/></svg>