<svg width="16" height="16" viewBox="0 0 16 16" fill="none" xmlns="http://www.w3.org/2000/svg">
<path fill-rule="evenodd" clip-rule="evenodd" d="M11.6681 5.64333C11.3894 5.53333 10.9047 5.41333 10.5201 5.41333C9.20872 5.41333 8.28605 6.06733 8.27472 7.042C8.26545 7.79829 8.95221 8.17763 9.44752 8.45121L9.45739 8.45666C9.95339 8.73 10.0894 8.84 10.0867 9.06133C10.0834 9.37266 9.70405 9.55133 9.26205 9.55133C8.77939 9.55133 8.54005 9.476 7.97539 9.23933L7.74072 10.3227C8.29539 10.5193 8.54072 10.5767 9.22072 10.5867C10.7114 10.5867 11.4181 9.76066 11.4267 8.92333C11.4347 8.52 11.3507 8.14866 10.7114 7.73533C10.5511 7.63153 10.3921 7.54374 10.2469 7.4635C9.88456 7.26339 9.60739 7.11031 9.60739 6.87333C9.60739 6.66933 9.92072 6.45666 10.4274 6.448C10.7761 6.44333 11.1907 6.58 11.4427 6.68133L11.6681 5.64333ZM6.05733 5.506L4.70667 5.50467L3.35267 8.894L3.22298 8.20337C3.01288 7.08454 2.8786 6.36942 2.81933 6.058C2.74933 5.68733 2.53133 5.50667 2.158 5.50667H0V5.64333C0.528 5.80667 0.904667 5.92667 1.13067 6.00467C1.38467 6.092 1.51667 6.27667 1.58333 6.54067C1.91861 7.86532 2.25817 9.18888 2.602 10.5113L3.96933 10.5127L6.05733 5.506ZM14.8147 10.512L14.6647 9.762H12.9887L12.722 10.5067L11.3787 10.5093C12.0182 8.97142 12.6591 7.43409 13.3014 5.89733C13.4107 5.63666 13.6047 5.504 13.8907 5.50533C14.1094 5.50733 14.466 5.50733 14.9614 5.506L16 10.51L14.8147 10.512ZM13.3661 8.73466H14.4461L14.0427 6.85466L13.3661 8.73466ZM7.91339 5.506L6.84539 10.5113L5.56005 10.51L6.62672 5.50467L7.91339 5.506Z" fill="#001018"/>
</svg>
