<svg width="16" height="16" fill="none" xmlns="http://www.w3.org/2000/svg"><path d="M.667 2.667h14.666V4H.667V2.667zm0 9.333h14.666v1.333H.667V12zM13.08 9.943l-.116-.58h-1.299l-.207.575-1.041.002 1.49-3.565a.455.455 0 0 1 .457-.304c.17.002.446.002.83 0L14 9.941l-.919.002zm-1.12-1.375h.837l-.313-1.453-.524 1.453zM5.248 6.071l1.047.001-1.618 3.87h-1.06a521.97 521.97 0 0 1-.79-3.07c-.051-.205-.153-.347-.35-.415a35.05 35.05 0 0 0-.877-.279v-.107h1.673c.289 0 .458.14.512.427L4.2 8.691l1.049-2.62zm2.485.001-.827 3.87-.997-.001.827-3.87.997.001zM9.754 6c.297 0 .673.092.89.178l-.175.803c-.196-.079-.517-.185-.787-.18-.393.006-.636.17-.636.328 0 .256.421.386.856.666.495.32.56.607.554.919-.007.647-.554 1.286-1.71 1.286-.527-.008-.717-.052-1.146-.204l.181-.837c.438.182.624.24.997.24.343 0 .637-.138.64-.378.001-.172-.103-.256-.488-.468-.385-.212-.923-.504-.917-1.094C8.022 6.506 8.738 6 9.753 6h.001z" fill="#001018"/></svg>