<svg width="16" height="16" fill="none" xmlns="http://www.w3.org/2000/svg"><path fill-rule="evenodd" clip-rule="evenodd" d="M.667 2.667h14.666V4H.667V2.667zm0 9.333h14.666v1.333H.667V12zm12.298-2.637.116.58.919-.002-.805-3.87c-.384.002-.66.002-.83 0a.455.455 0 0 0-.456.304c-.301.716-.75 1.792-1.349 3.225l-.002.004-.14.336 1.041-.002.207-.575h1.3zm-1.006-.795h.837l-.313-1.453-.524 1.453zM6.295 6.072l-1.047-.001-1.05 2.62-.413-2.193c-.054-.287-.223-.427-.512-.427H1.6v.107c.41.126.701.22.877.28.197.067.299.21.35.414.168.666.432 1.69.79 3.07h1.06l1.618-3.87zm1.438 0-.827 3.87-.997-.001.827-3.87.997.001zm2.91.106A2.746 2.746 0 0 0 9.754 6c-1.016 0-1.732.506-1.74 1.26-.007.585.526.878.91 1.09l.006.003c.385.212.49.296.488.468-.003.24-.297.378-.64.378-.373 0-.56-.058-.997-.24l-.181.837c.43.152.62.196 1.147.204 1.155 0 1.702-.639 1.709-1.286.006-.312-.059-.599-.554-.919a5.888 5.888 0 0 0-.36-.21c-.281-.155-.496-.273-.496-.456 0-.158.243-.322.636-.328.27-.005.591.101.787.18l.174-.803z" fill="#001018"/></svg>