<svg width="16" height="16" viewBox="0 0 16 16" fill="none" xmlns="http://www.w3.org/2000/svg">
<path fill-rule="evenodd" clip-rule="evenodd" d="M0.666672 2.66669H15.3333V4.00002H0.666672V2.66669ZM0.666672 12H15.3333V13.3334H0.666672V12ZM12.9654 9.36269L13.0814 9.94269V9.94335L14 9.94135L13.1954 6.07135C12.8114 6.07269 12.5347 6.07269 12.3654 6.07135C12.144 6.07002 11.9934 6.17269 11.9087 6.37469C11.608 7.09111 11.1586 8.16694 10.56 9.60005L10.5585 9.60371L10.5584 9.60396L10.418 9.94002L11.4594 9.93802L11.666 9.36269H12.9654ZM11.9587 8.56802H12.796L12.4827 7.11469L11.9587 8.56802ZM6.2947 6.07202L5.24804 6.07069L4.1987 8.69069L3.78537 6.49802C3.7307 6.21135 3.56204 6.07135 3.2727 6.07135H1.60004V6.17802C2.00937 6.30402 2.30137 6.39735 2.4767 6.45735C2.67404 6.52469 2.77604 6.66735 2.82737 6.87202C2.99537 7.53802 3.2587 8.56202 3.6167 9.94202L4.6767 9.94269L6.2947 6.07202ZM7.73275 6.07202L6.90608 9.94202L5.90942 9.94069L6.73608 6.07069L7.73275 6.07202ZM10.6434 6.17802C10.4274 6.09202 10.0514 6.00002 9.75404 6.00002H9.75337C8.73804 6.00002 8.02204 6.50602 8.01337 7.25935C8.00674 7.84548 8.53952 8.13816 8.92374 8.34923L8.93004 8.35269C9.3147 8.56469 9.41937 8.64935 9.41804 8.82069C9.41537 9.06135 9.12137 9.19935 8.77804 9.19935C8.4047 9.19935 8.2187 9.14135 7.78137 8.95869L7.60004 9.79602C8.02937 9.94802 8.21937 9.99202 8.7467 10C9.90204 10 10.4494 9.36135 10.456 8.71402C10.462 8.40202 10.3974 8.11535 9.90204 7.79535C9.77754 7.71497 9.65415 7.647 9.54143 7.58491C9.26058 7.43021 9.04604 7.31203 9.04604 7.12935C9.04604 6.97135 9.2887 6.80669 9.68204 6.80069C9.95204 6.79602 10.2734 6.90202 10.4687 6.98069L10.6434 6.17802Z" fill="#001018"/>
</svg>
