<svg width="24" height="24" viewBox="0 0 24 24" fill="none" xmlns="http://www.w3.org/2000/svg">
<path fill-rule="evenodd" clip-rule="evenodd" d="M5.889 16H2C1.44772 16 1 15.5523 1 15V8.99997C1 8.44768 1.44772 7.99997 2 7.99997H5.889L11.183 3.66797C11.3325 3.54539 11.5393 3.52 11.714 3.60276C11.8888 3.68553 12.0001 3.86162 12 4.05497V19.945C12.0001 20.1383 11.8888 20.3144 11.714 20.3972C11.5393 20.4799 11.3325 20.4545 11.183 20.332L5.889 16ZM16 7H18V13H16V7ZM16 15H18V17H16V15Z" fill="#001018"/>
</svg>
