<svg width="16" height="16" viewBox="0 0 16 16" fill="none" xmlns="http://www.w3.org/2000/svg">
<path fill-rule="evenodd" clip-rule="evenodd" d="M3.92611 10.6666H1.33342C0.965227 10.6666 0.666748 10.3682 0.666748 9.99998V5.99998C0.666748 5.63179 0.965227 5.33331 1.33342 5.33331H3.92611L7.45546 2.44531C7.55514 2.36359 7.69301 2.34666 7.8095 2.40184C7.92598 2.45702 8.00022 2.57441 8.00013 2.70331V13.2966C8.00022 13.4255 7.92598 13.5429 7.8095 13.5981C7.69301 13.6533 7.55514 13.6364 7.45546 13.5546L3.92611 10.6666ZM10.6667 4.66667H12.0001V8.66667H10.6667V4.66667ZM10.6667 10H12.0001V11.3333H10.6667V10Z" fill="#001018"/>
</svg>
