<svg viewBox="0 0 24 24" xmlns="http://www.w3.org/2000/svg"><path fill-rule="evenodd" clip-rule="evenodd" d="M5.889 16H2C1.44772 16 1 15.5523 1 15V9.00003C1 8.44774 1.44772 8.00003 2 8.00003H5.889L11.183 3.66803C11.3325 3.54545 11.5393 3.52006 11.714 3.60282C11.8888 3.68559 12.0001 3.86168 12 4.05503V19.945C12.0001 20.1384 11.8888 20.3145 11.714 20.3972C11.5393 20.48 11.3325 20.4546 11.183 20.332L5.889 16ZM10 7.22003L6.603 10H3V14H6.603L10 16.78V7.22003ZM23.95 15.536L20.414 12L23.95 8.46403L22.536 7.05003L19 10.586L15.464 7.05003L14.05 8.46403L17.586 12L14.05 15.536L15.464 16.95L19 13.414L22.536 16.95L23.95 15.536Z"/></svg>