<svg width="24" height="24" viewBox="0 0 24 24" fill="none" xmlns="http://www.w3.org/2000/svg">
<path fill-rule="evenodd" clip-rule="evenodd" d="M8.889 16H5C4.44772 16 4 15.5523 4 15V9.00003C4 8.44774 4.44772 8.00003 5 8.00003H8.889L14.183 3.66803C14.3325 3.54545 14.5393 3.52006 14.714 3.60282C14.8888 3.68559 15.0001 3.86168 15 4.05503V19.945C15.0001 20.1384 14.8888 20.3145 14.714 20.3972C14.5393 20.48 14.3325 20.4546 14.183 20.332L8.889 16ZM13 7.22003L9.603 10H6V14H9.603L13 16.78V7.22003ZM17.441 15.169L18.863 16.591C20.17 15.49 21 13.842 21 12C21.0016 10.093 20.0952 8.29907 18.559 7.16903L17.12 8.60803C18.25 9.31503 19 10.57 19 12C19.0011 13.2413 18.425 14.4124 17.441 15.169Z" fill="#001018"/>
</svg>
