<svg width="16" height="16" fill="none" xmlns="http://www.w3.org/2000/svg"><path fill-rule="evenodd" clip-rule="evenodd" d="M1.333 10.667h2.593l3.53 2.888A.333.333 0 0 0 8 13.297V2.703a.333.333 0 0 0-.545-.258L3.926 5.333H1.333A.667.667 0 0 0 .667 6v4c0 .368.298.667.666.667zm3.069-4 2.265-1.854v6.374L4.402 9.333H2V6.667h2.402zm8.535 6.756-.944-.944A5.985 5.985 0 0 0 14 8a5.988 5.988 0 0 0-2.203-4.645l.947-.947A7.317 7.317 0 0 1 15.334 8a7.315 7.315 0 0 1-2.397 5.423zm-3.31-3.31.948.948A3.991 3.991 0 0 0 12 8a3.994 3.994 0 0 0-1.627-3.22l-.96.959A2.663 2.663 0 0 1 10.667 8c0 .827-.384 1.608-1.04 2.113z" fill="#001018"/></svg>