<svg viewBox="0 0 24 24" xmlns="http://www.w3.org/2000/svg"><path fill-rule="evenodd" clip-rule="evenodd" d="M5.889 16H2C1.44772 16 1 15.5523 1 15V9.00003C1 8.44774 1.44772 8.00003 2 8.00003H5.889L11.183 3.66803C11.3325 3.54545 11.5393 3.52006 11.714 3.60282C11.8888 3.68559 12.0001 3.86168 12 4.05503V19.945C12.0001 20.1384 11.8888 20.3145 11.714 20.3972C11.5393 20.48 11.3325 20.4546 11.183 20.332L5.889 16ZM19.406 20.134L17.99 18.718C19.9075 17.0119 21.0031 14.5667 21 12C21.0025 9.29869 19.7891 6.73968 17.696 5.03203L19.116 3.61203C21.5823 5.69997 23.0032 8.76861 23 12C23 15.223 21.614 18.122 19.406 20.134ZM14.441 15.169L15.863 16.591C17.17 15.49 18 13.842 18 12C18.0016 10.093 17.0952 8.29907 15.559 7.16903L14.12 8.60803C15.25 9.31503 16 10.57 16 12C16.0011 13.2413 15.425 14.4124 14.441 15.169Z"/></svg>