<svg viewBox="0 0 24 24" xmlns="http://www.w3.org/2000/svg"><path fill-rule="evenodd" clip-rule="evenodd" d="M2 16H5.889L11.183 20.332C11.3325 20.4546 11.5393 20.48 11.714 20.3972C11.8888 20.3145 12.0001 20.1384 12 19.945V4.05503C12.0001 3.86168 11.8888 3.68559 11.714 3.60282C11.5393 3.52006 11.3325 3.54545 11.183 3.66803L5.889 8.00003H2C1.44772 8.00003 1 8.44774 1 9.00003V15C1 15.5523 1.44772 16 2 16ZM23.95 15.536L20.414 12L23.95 8.46403L22.536 7.05003L19 10.586L15.464 7.05003L14.05 8.46403L17.586 12L14.05 15.536L15.464 16.95L19 13.414L22.536 16.95L23.95 15.536Z"/></svg>