<svg width="16" height="16" viewBox="0 0 16 16" fill="none" xmlns="http://www.w3.org/2000/svg">
<path d="M5.07818 5.808L7.21485 4.256C7.4547 4.08047 7.74644 3.99034 8.04351 4C8.40585 4.00903 8.75637 4.13074 9.04634 4.34819C9.33632 4.56564 9.55134 4.86803 9.66151 5.21333C9.78551 5.602 9.89885 5.86466 10.0015 6.00133C10.3117 6.4152 10.7141 6.75107 11.1768 6.98228C11.6394 7.2135 12.1496 7.33369 12.6668 7.33333V8.66666C11.9784 8.66741 11.2983 8.51552 10.6756 8.22191C10.0529 7.9283 9.50297 7.50028 9.06551 6.96866L8.60085 9.60533L9.97485 10.7587L11.4568 14.8307L10.2035 15.2867L8.84351 11.5507L6.58351 9.654C6.39805 9.50423 6.25612 9.30748 6.17252 9.08424C6.08892 8.86099 6.0667 8.61941 6.10818 8.38466L6.44751 6.46133L5.99618 6.78933L4.57818 8.74133L3.49951 7.95733L5.06685 5.8L5.07818 5.808ZM9.00018 3.66667C8.64656 3.66667 8.30742 3.52619 8.05737 3.27614C7.80732 3.02609 7.66685 2.68695 7.66685 2.33333C7.66685 1.97971 7.80732 1.64057 8.05737 1.39052C8.30742 1.14048 8.64656 1 9.00018 1C9.3538 1 9.69294 1.14048 9.94299 1.39052C10.193 1.64057 10.3335 1.97971 10.3335 2.33333C10.3335 2.68695 10.193 3.02609 9.94299 3.27614C9.69294 3.52619 9.3538 3.66667 9.00018 3.66667ZM7.01885 12.454L4.87618 15.0073L3.85485 14.1507L5.83885 11.7867L6.33618 10.3333L7.53018 11.3333L7.01885 12.454Z" fill="#001018"/>
</svg>
