<svg width="24" height="24" xmlns="http://www.w3.org/2000/svg"><path fill-rule="evenodd" clip-rule="evenodd" d="M21.75 5.25A.75.75 0 0 0 21 4.5c-3.563 0-6.296-.607-8.47-2.78a.75.75 0 0 0-1.061 0C9.296 3.893 6.563 4.5 3 4.5a.75.75 0 0 0-.75.75c0 2.317.606 6.01 1.733 9.07 1.64 4.454 4.214 7.432 7.865 8.165h.004c.049.01.095.007.142.003l.043-.003c.015 0 .03 0 .045.002a.238.238 0 0 0 .065-.002h.002l.004-.001c3.651-.733 6.223-3.71 7.863-8.162 1.127-3.059 1.733-6.752 1.733-9.072zm-1.52.742c-.11 2.16-.672 5.237-1.621 7.812-1.455 3.95-3.645 6.513-6.61 7.175-2.964-.662-5.154-3.226-6.609-7.176-.948-2.576-1.51-5.652-1.62-7.81 1.18-.027 2.158-.125 3.33-.386C8.973 5.191 10.636 4.44 12 3.27c1.364 1.17 3.026 1.922 4.9 2.338 1.171.26 2.15.359 3.33.385zm-4.29 1.76a.75.75 0 0 1 1.12.996l-6 6.75a.75.75 0 0 1-1.09.032l-3-3a.75.75 0 1 1 1.06-1.06l2.438 2.437 5.471-6.155z"/></svg>