<svg width="16" height="16" xmlns="http://www.w3.org/2000/svg"><path fill-rule="evenodd" clip-rule="evenodd" d="m2.237 11.355-.901 3.312 3.31-.904a6.667 6.667 0 1 0-2.41-2.409zm3.11-6.416a.64.64 0 0 1 .247-.067 2.197 2.197 0 0 1 .377.007c.106.013.222.077.262.166.198.451.392.905.578 1.361.042.1.017.23-.062.357a2.917 2.917 0 0 1-.175.249c-.075.096-.237.273-.237.273s-.066.079-.041.177c.017.048.04.094.068.137l.04.063a4.197 4.197 0 0 0 .744.908c.058.057.116.114.177.168.312.275.666.5 1.047.667l.003.001a9.555 9.555 0 0 1 .168.073.945.945 0 0 0 .128.044.233.233 0 0 0 .245-.087c.482-.584.527-.622.53-.622v.001a.321.321 0 0 1 .252-.084c.04.001.08.01.118.027.354.161.934.414.934.414l.388.174c.065.031.124.105.127.177v.007a1.856 1.856 0 0 1-.135.73.765.765 0 0 1-.14.201c-.075.078-.13.126-.22.192-.055.042-.083.06-.083.06a3.201 3.201 0 0 1-.256.147 1.327 1.327 0 0 1-.62.157c-.102.006-.204.011-.306.006l-.38-.058A6.299 6.299 0 0 1 6.567 9.6a8.208 8.208 0 0 1-.432-.418c-.593-.59-1.041-1.226-1.314-1.828a2.332 2.332 0 0 1-.22-.942A1.82 1.82 0 0 1 5 5.265a1.17 1.17 0 0 1 .152-.175.862.862 0 0 1 .196-.152z"/></svg>