<svg viewBox="0 0 24 24" xmlns="http://www.w3.org/2000/svg"><path fill-rule="evenodd" clip-rule="evenodd" d="M2.00401 22L3.35601 17.032C2.46515 15.5049 1.99711 13.768 2.00001 12C2.00001 6.477 6.47701 2 12 2C17.523 2 22 6.477 22 12C22 17.523 17.523 22 12 22C10.2328 22.0029 8.49667 21.5352 6.97001 20.645L2.00401 22ZM7.25301 18.494L7.97701 18.917C9.19795 19.6291 10.5866 20.0029 12 20C16.4183 20 20 16.4183 20 12C20 7.58172 16.4183 4 12 4C7.58174 4 4.00001 7.58172 4.00001 12C4.00001 13.436 4.37701 14.813 5.08401 16.024L5.50601 16.748L4.85301 19.149L7.25301 18.494ZM8.79401 7.304C8.66001 7.298 8.52501 7.298 8.39101 7.308L8.39001 7.307C8.26088 7.31502 8.13469 7.34903 8.01901 7.407C7.93201 7.451 7.85201 7.515 7.72501 7.635C7.62444 7.7305 7.55959 7.81528 7.49784 7.896C7.48653 7.91079 7.47532 7.92544 7.46401 7.94C7.09436 8.42167 6.89589 9.01285 6.90001 9.62C6.90938 10.1094 7.02218 10.5913 7.23101 11.034C7.63901 11.936 8.31101 12.891 9.20101 13.776C9.2348 13.8096 9.26846 13.8433 9.30208 13.8769C9.48143 14.0562 9.65969 14.2344 9.85001 14.402C10.9534 15.3735 12.2683 16.074 13.69 16.448C13.69 16.448 14.25 16.535 14.258 16.535C14.4175 16.5436 14.5762 16.5345 14.7349 16.5254C14.7613 16.5239 14.7876 16.5224 14.814 16.521C15.1052 16.5063 15.3895 16.4278 15.647 16.291C15.7778 16.2233 15.9056 16.1499 16.03 16.071C16.0723 16.0419 16.114 16.0119 16.155 15.981C16.2736 15.8954 16.3841 15.7989 16.485 15.693C16.5707 15.6042 16.6416 15.5022 16.695 15.391C16.773 15.228 16.851 14.917 16.883 14.658C16.906 14.46 16.9 14.352 16.896 14.285C16.893 14.178 16.804 14.067 16.706 14.02L16.124 13.759C16.124 13.759 15.255 13.38 14.724 13.137C14.668 13.112 14.607 13.101 14.547 13.097C14.4086 13.0828 14.2708 13.1291 14.169 13.224V13.222C14.163 13.222 14.097 13.279 13.373 14.156C13.2883 14.2697 13.1434 14.321 13.006 14.286C12.941 14.269 12.877 14.246 12.815 14.22C12.7355 14.186 12.6892 14.1656 12.6439 14.1455C12.6185 14.1343 12.5935 14.1233 12.563 14.11L12.558 14.108C11.986 13.858 11.456 13.521 10.988 13.108C10.8949 13.026 10.8067 12.9396 10.7186 12.8532C10.6874 12.8227 10.6563 12.7923 10.625 12.762C10.205 12.354 9.86101 11.921 9.60501 11.494L9.54601 11.399C9.50401 11.331 9.45801 11.25 9.44401 11.194C9.40601 11.047 9.50501 10.929 9.50501 10.929C9.50501 10.929 9.74801 10.663 9.86101 10.518C9.95507 10.3986 10.0429 10.2745 10.124 10.146C10.242 9.956 10.279 9.761 10.217 9.609C9.93701 8.926 9.64701 8.245 9.34901 7.569C9.29001 7.435 9.11501 7.338 8.95601 7.32C8.90201 7.314 8.84801 7.308 8.79401 7.304Z"/></svg>