<svg viewBox="0 0 24 24" xmlns="http://www.w3.org/2000/svg"><path fill-rule="evenodd" clip-rule="evenodd" d="M3.35601 17.032L2.00401 22L6.97001 20.645C8.49667 21.5352 10.2328 22.0029 12 22C17.523 22 22 17.523 22 12C22 6.477 17.523 2 12 2C6.47701 2 2.00001 6.477 2.00001 12C1.99711 13.768 2.46515 15.5049 3.35601 17.032ZM8.02001 7.408C8.13569 7.35003 8.26188 7.31602 8.39101 7.308C8.52515 7.29866 8.65972 7.29633 8.79401 7.303C8.84801 7.307 8.90201 7.313 8.95601 7.319C9.11501 7.338 9.29001 7.434 9.34901 7.568C9.64701 8.244 9.93701 8.925 10.217 9.609C10.279 9.76 10.242 9.955 10.124 10.145C10.0429 10.2738 9.9551 10.3983 9.86101 10.518C9.74801 10.662 9.50501 10.928 9.50501 10.928C9.50501 10.928 9.40601 11.046 9.44401 11.193C9.46937 11.2653 9.50364 11.3342 9.54601 11.398L9.60501 11.493C9.88873 11.958 10.2316 12.3842 10.625 12.761C10.6573 12.7922 10.6894 12.8238 10.7216 12.8553C10.8087 12.9409 10.896 13.0266 10.988 13.107C11.4562 13.5198 11.9859 13.8572 12.558 14.107L12.563 14.109C12.5876 14.1197 12.6087 14.129 12.6293 14.1381C12.6797 14.1603 12.7269 14.1811 12.815 14.218C12.877 14.2445 12.9409 14.2666 13.006 14.284C13.1437 14.3194 13.2891 14.2681 13.374 14.154C14.097 13.278 14.164 13.221 14.169 13.221V13.223C14.2708 13.1281 14.4086 13.0818 14.547 13.096C14.608 13.0987 14.668 13.1126 14.724 13.137C15.255 13.379 16.125 13.758 16.125 13.758L16.707 14.019C16.804 14.066 16.893 14.177 16.897 14.284C16.8972 14.2878 16.8974 14.2916 16.8975 14.2957C16.9007 14.3634 16.9057 14.4701 16.883 14.657C16.851 14.916 16.773 15.227 16.695 15.39C16.64 15.505 16.568 15.606 16.485 15.692C16.373 15.809 16.29 15.88 16.155 15.98C16.073 16.042 16.03 16.07 16.03 16.07C15.891 16.158 15.813 16.202 15.647 16.29C15.3896 16.4271 15.1053 16.506 14.814 16.521C14.7817 16.5226 14.7494 16.5243 14.7171 16.526C14.5637 16.5341 14.4108 16.5423 14.258 16.534L13.689 16.447C12.2673 16.073 10.9524 15.3725 9.84901 14.401C9.6605 14.2343 9.48322 14.057 9.30481 13.8786C9.27029 13.8441 9.23571 13.8095 9.20101 13.775C8.31201 12.89 7.63901 11.935 7.23001 11.033C7.03001 10.587 6.90201 10.11 6.90001 9.62C6.89662 9.01342 7.09542 8.423 7.46501 7.942C7.47609 7.92759 7.48705 7.9131 7.4981 7.89851C7.55985 7.81692 7.62422 7.73185 7.72601 7.636C7.81251 7.54622 7.91153 7.46943 8.02001 7.408Z"/></svg>