<svg width="16" height="16" xmlns="http://www.w3.org/2000/svg"><path fill-rule="evenodd" clip-rule="evenodd" d="m1.336 14.667.901-3.312a6.667 6.667 0 1 1 2.41 2.409l-3.311.903zm3.5-2.338.482.282a5.333 5.333 0 1 0-1.929-1.929l.282.483-.436 1.601 1.6-.437zm1.027-7.46a2.26 2.26 0 0 0-.27.003.643.643 0 0 0-.247.066.849.849 0 0 0-.196.152c-.067.064-.11.12-.152.174l-.022.03a1.82 1.82 0 0 0-.376 1.12c.006.326.081.647.22.942.273.601.72 1.238 1.314 1.828l.067.067a6.298 6.298 0 0 0 2.925 1.714l.38.058c.106.006.211 0 .317-.006l.053-.003c.194-.01.384-.062.555-.153.088-.046.173-.094.256-.147l.083-.06c.079-.057.153-.121.22-.192a.769.769 0 0 0 .14-.201 1.86 1.86 0 0 0 .125-.489c.016-.132.012-.204.009-.249-.002-.071-.061-.145-.127-.176l-.388-.174s-.58-.253-.933-.415a.345.345 0 0 0-.118-.027.321.321 0 0 0-.252.085v-.001c-.004 0-.048.038-.53.622a.233.233 0 0 1-.245.087.956.956 0 0 1-.128-.044l-.114-.05a10.251 10.251 0 0 0-.054-.023l-.003-.002a4.007 4.007 0 0 1-1.047-.666c-.062-.055-.12-.113-.18-.17l-.062-.061a4.19 4.19 0 0 1-.68-.845l-.04-.064a.59.59 0 0 1-.067-.136c-.025-.098.04-.177.04-.177s.163-.177.238-.274a2.92 2.92 0 0 0 .175-.248c.079-.127.104-.257.062-.358-.186-.455-.38-.91-.578-1.36-.04-.09-.156-.154-.262-.166-.036-.004-.072-.008-.108-.01z"/></svg>