<svg width="16" height="16" viewBox="0 0 16 16" xmlns="http://www.w3.org/2000/svg"><path d="M7.00004 11.3333H2.66671V9.99994H7.00004C7.42587 10.0001 7.84354 10.1168 8.2078 10.3373C8.57206 10.5579 8.86901 10.8739 9.06648 11.2512C9.26395 11.6285 9.35442 12.0526 9.32807 12.4776C9.30172 12.9027 9.15957 13.3124 8.91701 13.6624C8.67446 14.0124 8.34075 14.2893 7.95204 14.4632C7.56333 14.6371 7.13444 14.7013 6.71185 14.6488C6.28926 14.5964 5.88908 14.4293 5.55467 14.1657C5.22025 13.9021 4.96436 13.5519 4.81471 13.1533L6.06337 12.6846C6.12749 12.8555 6.23715 13.0055 6.38046 13.1185C6.52377 13.2315 6.69527 13.3032 6.87638 13.3256C7.05749 13.3481 7.2413 13.3206 7.4079 13.2461C7.5745 13.1716 7.71753 13.0529 7.8215 12.9029C7.92546 12.753 7.9864 12.5774 7.9977 12.3952C8.00901 12.2131 7.97025 12.0313 7.88563 11.8696C7.80101 11.7079 7.67375 11.5724 7.51765 11.4779C7.36154 11.3834 7.18254 11.3333 7.00004 11.3333ZM3.33337 7.33327H12.3334C12.7592 7.33342 13.1769 7.4501 13.5411 7.67067C13.9054 7.89124 14.2023 8.20728 14.3998 8.58456C14.5973 8.96183 14.6878 9.38595 14.6614 9.81097C14.6351 10.236 14.4929 10.6457 14.2503 10.9957C14.0078 11.3457 13.6741 11.6226 13.2854 11.7965C12.8967 11.9704 12.4678 12.0346 12.0452 11.9822C11.6226 11.9297 11.2224 11.7626 10.888 11.499C10.5536 11.2354 10.2977 10.8853 10.148 10.4866L11.3967 10.0179C11.4608 10.1888 11.5705 10.3389 11.7138 10.4519C11.8571 10.5649 12.0286 10.6365 12.2097 10.659C12.3908 10.6815 12.5746 10.654 12.7412 10.5795C12.9078 10.505 13.0509 10.3863 13.1548 10.2363C13.2588 10.0863 13.3197 9.9107 13.331 9.72855C13.3423 9.5464 13.3036 9.36463 13.219 9.20293C13.1343 9.04123 13.0071 8.90578 12.851 8.81124C12.6949 8.7167 12.5159 8.66668 12.3334 8.6666H3.33337C2.80294 8.6666 2.29423 8.45589 1.91916 8.08082C1.54409 7.70574 1.33337 7.19704 1.33337 6.6666C1.33337 6.13617 1.54409 5.62746 1.91916 5.25239C2.29423 4.87732 2.80294 4.6666 3.33337 4.6666H9.00004C9.18254 4.66653 9.36154 4.61651 9.51765 4.52197C9.67375 4.42743 9.80101 4.29197 9.88563 4.13028C9.97025 3.96858 10.009 3.78681 9.9977 3.60466C9.9864 3.42251 9.92546 3.24692 9.8215 3.09693C9.71753 2.94694 9.5745 2.82826 9.4079 2.75374C9.2413 2.67923 9.05749 2.65173 8.87638 2.67423C8.69527 2.69672 8.52377 2.76834 8.38046 2.88134C8.23715 2.99434 8.12749 3.1444 8.06337 3.31527L6.81471 2.84727C7.00702 2.33581 7.37269 1.90803 7.848 1.63848C8.32331 1.36892 8.87813 1.27468 9.41579 1.37217C9.95345 1.46966 10.4399 1.7527 10.7903 2.17197C11.1407 2.59125 11.3329 3.12018 11.3334 3.6666C11.3334 4.28544 11.0875 4.87893 10.65 5.31652C10.2124 5.7541 9.61888 5.99994 9.00004 5.99994H3.33337C3.15656 5.99994 2.98699 6.07017 2.86197 6.1952C2.73695 6.32022 2.66671 6.48979 2.66671 6.6666C2.66671 6.84341 2.73695 7.01298 2.86197 7.13801C2.98699 7.26303 3.15656 7.33327 3.33337 7.33327Z"/></svg>