<svg width="16" height="16" viewBox="0 0 16 16" fill="none" xmlns="http://www.w3.org/2000/svg">
<path fill-rule="evenodd" clip-rule="evenodd" d="M14.362 4.332C14.6667 5.52 14.6667 8 14.6667 8C14.6667 8 14.6667 10.48 14.362 11.668C14.1927 12.3247 13.6973 12.8413 13.07 13.016C11.9307 13.3333 8.00001 13.3333 8.00001 13.3333C8.00001 13.3333 4.07134 13.3333 2.93001 13.016C2.30001 12.8387 1.80534 12.3227 1.63801 11.668C1.33334 10.48 1.33334 8 1.33334 8C1.33334 8 1.33334 5.52 1.63801 4.332C1.80734 3.67533 2.30268 3.15867 2.93001 2.984C4.07134 2.66667 8.00001 2.66667 8.00001 2.66667C8.00001 2.66667 11.9307 2.66667 13.07 2.984C13.7 3.16133 14.1947 3.67733 14.362 4.332ZM13.0707 4.66333C13.02 4.46467 12.876 4.31467 12.7113 4.26867C12.42 4.18667 11 4 8.00001 4C5.00001 4 3.58134 4.18667 3.28734 4.26867C3.12468 4.314 2.98068 4.464 2.92934 4.66333C2.85668 4.946 2.66668 6.13067 2.66668 8C2.66668 9.86933 2.85668 11.0533 2.92934 11.3373C2.98001 11.5353 3.12401 11.6853 3.28801 11.7307C3.58134 11.8133 5.00001 12 8.00001 12C11 12 12.4193 11.8133 12.7127 11.7313C12.8753 11.686 13.0193 11.536 13.0707 11.3367C13.1433 11.054 13.3333 9.86667 13.3333 8C13.3333 6.13333 13.1433 4.94667 13.0707 4.66333ZM6.66668 5.66667V10.3333L10.6667 8L6.66668 5.66667Z" fill="#001018"/>
</svg>
