<svg width="24" height="24" viewBox="0 0 24 24" fill="none" xmlns="http://www.w3.org/2000/svg">
<path fill-rule="evenodd" clip-rule="evenodd" d="M22 12C22 12 22 8.28 21.543 6.498C21.292 5.516 20.55 4.742 19.605 4.476C17.896 4 12 4 12 4C12 4 6.107 4 4.395 4.476C3.454 4.738 2.711 5.513 2.457 6.498C2 8.28 2 12 2 12C2 12 2 15.72 2.457 17.502C2.708 18.484 3.45 19.258 4.395 19.524C6.107 20 12 20 12 20C12 20 17.896 20 19.605 19.524C20.546 19.262 21.289 18.487 21.543 17.502C22 15.72 22 12 22 12ZM16 12L10 15.5V8.5L16 12Z" fill="#001018"/>
</svg>
