<svg width="24" height="24" viewBox="0 0 24 24" fill="none" xmlns="http://www.w3.org/2000/svg">
<path fill-rule="evenodd" clip-rule="evenodd" d="M21.543 6.498C22 8.28 22 12 22 12C22 12 22 15.72 21.543 17.502C21.289 18.487 20.546 19.262 19.605 19.524C17.896 20 12 20 12 20C12 20 6.107 20 4.395 19.524C3.45 19.258 2.708 18.484 2.457 17.502C2 15.72 2 12 2 12C2 12 2 8.28 2.457 6.498C2.711 5.513 3.454 4.738 4.395 4.476C6.107 4 12 4 12 4C12 4 17.896 4 19.605 4.476C20.55 4.742 21.292 5.516 21.543 6.498ZM19.606 6.995C19.53 6.697 19.314 6.472 19.067 6.403C18.63 6.28 16.5 6 12 6C7.5 6 5.372 6.28 4.931 6.403C4.687 6.471 4.471 6.696 4.394 6.995C4.285 7.419 4 9.196 4 12C4 14.804 4.285 16.58 4.394 17.006C4.47 17.303 4.686 17.528 4.932 17.596C5.372 17.72 7.5 18 12 18C16.5 18 18.629 17.72 19.069 17.597C19.313 17.529 19.529 17.304 19.606 17.005C19.715 16.581 20 14.8 20 12C20 9.2 19.715 7.42 19.606 6.995ZM10 8.5V15.5L16 12L10 8.5Z" fill="#001018"/>
</svg>
