<svg width="16" height="16" viewBox="0 0 16 16" fill="none" xmlns="http://www.w3.org/2000/svg">
<path fill-rule="evenodd" clip-rule="evenodd" d="M14.6667 7.99999C14.6667 7.99999 14.6667 5.51999 14.362 4.33199C14.1947 3.67732 13.7 3.16132 13.07 2.98399C11.9307 2.66666 8.00001 2.66666 8.00001 2.66666C8.00001 2.66666 4.07134 2.66666 2.93001 2.98399C2.30268 3.15866 1.80734 3.67532 1.63801 4.33199C1.33334 5.51999 1.33334 7.99999 1.33334 7.99999C1.33334 7.99999 1.33334 10.48 1.63801 11.668C1.80534 12.3227 2.30001 12.8387 2.93001 13.016C4.07134 13.3333 8.00001 13.3333 8.00001 13.3333C8.00001 13.3333 11.9307 13.3333 13.07 13.016C13.6973 12.8413 14.1927 12.3247 14.362 11.668C14.6667 10.48 14.6667 7.99999 14.6667 7.99999ZM10.6667 7.99999L6.66668 10.3333V5.66666L10.6667 7.99999Z" fill="#001018"/>
</svg>
