<svg width="16" height="16" fill="none" xmlns="http://www.w3.org/2000/svg"><path fill-rule="evenodd" clip-rule="evenodd" d="M14.362 4.332C14.667 5.52 14.667 8 14.667 8s0 2.48-.305 3.668a1.874 1.874 0 0 1-1.292 1.348c-1.14.317-5.07.317-5.07.317s-3.929 0-5.07-.317a1.874 1.874 0 0 1-1.292-1.348C1.333 10.48 1.333 8 1.333 8s0-2.48.305-3.668A1.874 1.874 0 0 1 2.93 2.984C4.071 2.667 8 2.667 8 2.667s3.93 0 5.07.317c.63.177 1.125.693 1.292 1.348zm-1.291.331a.542.542 0 0 0-.36-.394C12.42 4.187 11 4 8 4s-4.419.187-4.713.269a.543.543 0 0 0-.358.394c-.072.283-.262 1.468-.262 3.337 0 1.87.19 3.053.262 3.337a.54.54 0 0 0 .359.394C3.581 11.813 5 12 8 12s4.42-.187 4.713-.269a.543.543 0 0 0 .358-.394c.072-.283.262-1.47.262-3.337 0-1.867-.19-3.053-.262-3.337zM6.667 5.667v4.666l4-2.333-4-2.333z" fill="#001018"/></svg>