<svg width="16" height="16" viewBox="0 0 16 16" fill="none" xmlns="http://www.w3.org/2000/svg">
<path d="M12.0207 11.078L14.876 13.9326L13.9327 14.876L11.078 12.0206C10.0159 12.8721 8.69471 13.3352 7.33337 13.3333C4.02137 13.3333 1.33337 10.6453 1.33337 7.33331C1.33337 4.02131 4.02137 1.33331 7.33337 1.33331C10.6454 1.33331 13.3334 4.02131 13.3334 7.33331C13.3353 8.69465 12.8722 10.0158 12.0207 11.078ZM10.6834 10.5833C11.5294 9.71324 12.002 8.54693 12 7.33331C12 4.75465 9.91137 2.66665 7.33337 2.66665C4.75471 2.66665 2.66671 4.75465 2.66671 7.33331C2.66671 9.91131 4.75471 12 7.33337 12C8.54699 12.0019 9.7133 11.5294 10.5834 10.6833L10.6834 10.5833ZM6.66671 6.66665V4.66665H8.00004V6.66665H10V7.99998H8.00004V9.99998H6.66671V7.99998H4.66671V6.66665H6.66671Z" fill="#001018"/>
</svg>
