<svg width="16" height="16" viewBox="0 0 16 16" fill="none" xmlns="http://www.w3.org/2000/svg">
<path d="M12.0207 11.078L14.876 13.9327L13.9327 14.876L11.078 12.0207C10.0159 12.8722 8.6947 13.3353 7.33337 13.3334C4.02137 13.3334 1.33337 10.6454 1.33337 7.33337C1.33337 4.02137 4.02137 1.33337 7.33337 1.33337C10.6454 1.33337 13.3334 4.02137 13.3334 7.33337C13.3353 8.6947 12.8722 10.0159 12.0207 11.078ZM10.6834 10.5834C11.5294 9.71329 12.0019 8.54699 12 7.33337C12 4.7547 9.91137 2.66671 7.33337 2.66671C4.7547 2.66671 2.66671 4.7547 2.66671 7.33337C2.66671 9.91137 4.7547 12 7.33337 12C8.54699 12.0019 9.71329 11.5294 10.5834 10.6834L10.6834 10.5834V10.5834ZM4.6667 6.6667H10V8.00003H4.6667V6.6667Z" fill="#001018"/>
</svg>
