<svg fill="none" xmlns="http://www.w3.org/2000/svg" viewBox="0 0 24 24"><path d="M20.9963 18.2492C20.9519 19.4674 20.1265 20.5083 18.9679 20.8063C14.356 21.636 9.63664 21.636 5.02468 20.8063C3.86613 20.5046 3.04442 19.4636 3 18.2492V5.75073C3.04442 4.53633 3.86983 3.49541 5.02838 3.1937C9.64035 2.36398 14.3597 2.36398 18.9716 3.1937C20.1302 3.49164 20.9556 4.53255 21 5.75073L20.9963 18.2492Z" fill="#AC0047"/><path d="M13.1577 7.66815C12.0128 7.46269 11.2467 8.09619 11.2467 9.0807V12.3852L9.44632 11.3065V9.0807C9.44632 7.07745 10.8253 5.65634 13.1577 5.96453V7.66815ZM4.76457 19.2767H5.57324V17.1793C5.56898 16.9781 5.64134 16.7855 5.78179 16.64C5.93076 16.503 6.13079 16.426 6.33509 16.4345C6.4798 16.4388 6.62025 16.4516 6.7607 16.4773V15.664C6.59471 15.6383 6.42872 15.6255 6.25848 15.6212C5.46684 15.587 4.79862 16.2076 4.76457 17.0038C4.76032 17.0595 4.76457 17.1194 4.76883 17.175L4.76457 19.2767ZM7.5566 18.9557C7.3523 18.7203 7.24164 18.4121 7.25867 18.0996V16.8155C7.24164 16.503 7.3523 16.1948 7.5566 15.9594C7.78217 15.7368 8.09287 15.6169 8.40783 15.6298H9.70595V16.4302H8.42911C8.32696 16.4174 8.22056 16.4474 8.13969 16.5116C8.07585 16.5929 8.04605 16.6999 8.05882 16.8026V17.068H9.4676V17.8299H8.05031V18.0953C8.03754 18.2023 8.06734 18.3051 8.13118 18.3907C8.21204 18.4549 8.31845 18.4849 8.42059 18.472H9.69744V19.2767H8.42485C8.1099 19.2896 7.7992 19.1697 7.57362 18.9471L7.5566 18.9557ZM10.7232 18.9643C10.5146 18.7288 10.4082 18.4206 10.4252 18.1082V15.6469H11.2296V18.1039C11.2169 18.2109 11.2467 18.3179 11.3105 18.4035C11.3914 18.472 11.4935 18.502 11.5957 18.4891H12.715L12.4384 19.2767H11.5872C11.2722 19.2896 10.9658 19.174 10.7359 18.9557L10.7232 18.9643ZM17.4138 19.2767V17.8899L16.1966 15.6426H17.1074L17.8139 17.0509L18.5247 15.6426H19.4355L18.2225 17.8899V19.2767H17.4138ZM15.439 16.1563C15.2645 15.6426 15.0133 15.6426 14.8772 15.6426H14.6516C14.5196 15.6426 14.2685 15.6426 14.0898 16.1563C13.8301 16.9396 13.013 19.2767 13.013 19.2767H13.8642L14.0983 18.5747H15.4347L15.673 19.2767H16.5243L15.439 16.1563ZM14.3536 17.8214L14.7793 16.5886L15.2049 17.8214H14.3536ZM16.9882 13.7507C16.9244 13.5623 16.8307 13.5623 16.7839 13.5623H16.703C16.6562 13.5623 16.5626 13.5623 16.4987 13.7507L16.1029 14.8978H16.4179L16.503 14.641H16.9882L17.0733 14.8978H17.3883L16.9882 13.7507ZM16.5626 14.3628L16.7158 13.909L16.869 14.3628H16.5626ZM6.12228 14.8978V14.0161C6.12654 13.9133 6.04141 13.8277 5.93927 13.8234C5.93501 13.8234 5.93076 13.8234 5.9265 13.8234C5.82435 13.8192 5.73923 13.8962 5.73497 13.9989C5.73497 14.0032 5.73497 14.0118 5.73497 14.0161V14.8978H5.43704V14.0161C5.4413 13.9133 5.36469 13.8277 5.26254 13.8234C5.25829 13.8234 5.24977 13.8234 5.24552 13.8234C5.14337 13.8192 5.05399 13.9005 5.04974 14.0032C5.04974 14.0075 5.04974 14.0118 5.04974 14.0161H5.07102V14.8978H4.76032V14.0203C4.75606 13.755 4.96461 13.5366 5.22849 13.5324C5.23701 13.5324 5.24126 13.5324 5.24977 13.5324C5.37746 13.5324 5.50514 13.5837 5.59026 13.6822C5.67539 13.5837 5.80307 13.5324 5.93076 13.5324C6.19464 13.5238 6.4117 13.7335 6.42021 13.9989C6.42021 14.0075 6.42021 14.0118 6.42021 14.0203V14.8978H6.12228ZM7.59916 14.2215C7.58214 13.8534 7.86304 13.5452 8.22907 13.5281C8.23758 13.5281 8.24184 13.5281 8.25035 13.5281C8.61638 13.5324 8.90579 13.832 8.90154 14.2001C8.90154 14.2087 8.90154 14.213 8.90154 14.2215C8.91856 14.5896 8.63766 14.8978 8.27163 14.915C8.26312 14.915 8.25886 14.915 8.25035 14.915C7.88432 14.9107 7.5949 14.611 7.59916 14.2429C7.59916 14.2344 7.59916 14.2301 7.59916 14.2215ZM7.89709 14.2215C7.87581 14.4355 8.02903 14.6282 8.24184 14.6496C8.24609 14.6496 8.24609 14.6496 8.25035 14.6496C8.46316 14.6324 8.62063 14.4441 8.60361 14.2301C8.60361 14.2258 8.60361 14.2258 8.60361 14.2215C8.62914 14.0118 8.47592 13.8192 8.26737 13.7935C8.26312 13.7935 8.25461 13.7935 8.25035 13.7935C8.03754 13.8106 7.88007 13.9947 7.89709 14.2044C7.89283 14.2087 7.89709 14.2172 7.89709 14.2215ZM10.9402 13.6693C11.0296 13.7635 11.0807 13.8919 11.0764 14.0203V14.8764H10.7827V14.0161C10.7913 13.9176 10.7232 13.832 10.6295 13.8234C10.6168 13.8234 10.604 13.8234 10.587 13.8234C10.4891 13.8149 10.404 13.8834 10.3954 13.9818C10.3954 13.9947 10.3954 14.0075 10.3954 14.0161V14.8978H10.1018V14.0417C10.0975 13.9133 10.1486 13.7849 10.238 13.6907C10.3316 13.6009 10.4593 13.5495 10.5912 13.5538C10.7232 13.5495 10.8508 13.6009 10.9445 13.6907L10.9402 13.6693ZM12.864 14.8978H12.366V13.5623H12.864C13.0257 13.5581 13.179 13.6265 13.2896 13.7421C13.4003 13.8791 13.4599 14.0546 13.4513 14.2301C13.4599 14.4056 13.4003 14.5768 13.2896 14.7138C13.179 14.8336 13.0257 14.8978 12.864 14.8978ZM12.864 13.8406H12.6597V14.6153H12.864C13.1321 14.6153 13.1662 14.3799 13.1704 14.2258C13.1704 14.0375 13.1194 13.8406 12.864 13.8406ZM14.6048 14.8978V13.5623H14.8984V14.8978H14.6048ZM18.8439 14.8978C18.7247 14.9064 18.6098 14.8593 18.5247 14.778C18.448 14.6924 18.4097 14.5811 18.414 14.4655V13.5623H18.7077V14.4612C18.7077 14.5725 18.7332 14.5982 18.8396 14.6025H19.2652V14.8978H18.8439Z" fill="white"/><path d="M13.562 5.9646H15.2644V7.67678H13.562V5.9646ZM11.4977 3.15662C12.0681 3.15662 12.532 3.62319 12.532 4.19677C12.532 4.77035 12.0681 5.23692 11.4977 5.23692C10.9274 5.23692 10.4635 4.77035 10.4635 4.19677C10.4635 3.62319 10.9232 3.15662 11.4977 3.15662Z" fill="#CCC7BE"/></svg>