<svg fill="none" xmlns="http://www.w3.org/2000/svg" viewBox="0 0 28 20"><g clip-path="url(#clip0_503_3798)"><path d="M1.01328e-05 0C9.33334 0 18.6667 -9.54841e-05 28 1.01328e-05V20C18.6667 19.9999 9.33333 19.9999 0 20C0 13.3333 -6.53079e-05 6.66667 1.01328e-05 0Z" fill="#FFFFFF"/><path d="M16 20H12V12H0V8H12V0H16V8H28V12H16V20Z" fill="#FF2B37"/><path d="M21.6 4.4L20 4.66667V3.33333L21.6 3.6L21.3333 2H22.6667L22.4 3.6L24 3.33333V4.66667L22.4 4.4L22.6667 6H21.3333L21.6 4.4Z" fill="#FD0D1B"/><path d="M5.6 4.4L4 4.66667V3.33333L5.6 3.6L5.33333 2H6.66667L6.4 3.6L8 3.33333V4.66667L6.4 4.4L6.66667 6H5.33333L5.6 4.4Z" fill="#FD0D1B"/><path d="M5.6 16.4L4 16.6667V15.3333L5.6 15.6L5.33333 14H6.66667L6.4 15.6L8 15.3333V16.6667L6.4 16.4L6.66667 18H5.33333L5.6 16.4Z" fill="#FD0D1B"/><path d="M21.6 16.4L20 16.6667V15.3333L21.6 15.6L21.3333 14H22.6667L22.4 15.6L24 15.3333V16.6667L22.4 16.4L22.6667 18H21.3333L21.6 16.4Z" fill="#FD0D1B"/></g><defs><clipPath id="clip0_503_3798"><rect width="28" height="20" fill="#FFFFFF"/></clipPath></defs></svg>