<svg fill="none" xmlns="http://www.w3.org/2000/svg" viewBox="0 0 28 20"><g clip-path="url(#clip0_503_3869)"><path d="M0 0C9.33333 6.98936e-05 18.6667 -0.000185105 28 2.70605e-05V20C18.6667 20 9.33333 20 0 20V0Z" fill="#FFFFFF"/><path d="M0 0L28 2.70605e-05V20H0V0Z" fill="#E2243B"/><path fill-rule="evenodd" clip-rule="evenodd" d="M0 0L28 2.70605e-05L14 20L0 0Z" fill="#262626"/><path d="M18.6667 13.3334L14 20L9.33337 13.3334H18.6667Z" fill="#FFFFFF"/><path d="M9.33337 13.3334L5.6 8.00001H22.4L18.6667 13.3334H9.33337Z" fill="#1984D8"/><path fill-rule="evenodd" clip-rule="evenodd" d="M14.5 8.00001H14H13H12H11L8 5.33334L11.8787 6.00001L11.3333 2.00001L14 5.33334L16.6667 2.00001L16.1213 6.00001L20 5.33334L17 8.00001H15H14.5Z" fill="#FFCF3C"/></g><defs><clipPath id="clip0_503_3869"><rect width="28" height="20" fill="#FFFFFF"/></clipPath></defs></svg>