<svg fill="none" xmlns="http://www.w3.org/2000/svg" viewBox="0 0 28 20"><g clip-path="url(#clip0_503_2608)"><path d="M0 2C0 0.895431 0.895431 0 2 0H26C27.1046 0 28 0.895431 28 2V18C28 19.1046 27.1046 20 26 20H2C0.895431 20 0 19.1046 0 18V2Z" fill="#FFFFFF"/><path fill-rule="evenodd" clip-rule="evenodd" d="M0 13.3333H28V6.66667H0V13.3333Z" fill="#063191"/><path fill-rule="evenodd" clip-rule="evenodd" d="M0 20H28V13.3333H0V20Z" fill="#E2213B"/><path d="M14 9.33333C14.3682 9.33333 14.6667 9.03486 14.6667 8.66667C14.6667 8.29848 14.3682 8 14 8C13.6318 8 13.3333 8.29848 13.3333 8.66667C13.3333 9.03486 13.6318 9.33333 14 9.33333Z" fill="#FFFFFF"/><path d="M11.3333 10C11.7015 10 12 9.70152 12 9.33333C12 8.96514 11.7015 8.66667 11.3333 8.66667C10.9651 8.66667 10.6667 8.96514 10.6667 9.33333C10.6667 9.70152 10.9651 10 11.3333 10Z" fill="#FFFFFF"/><path d="M17.3333 9.33333C17.3333 9.70152 17.0349 10 16.6667 10C16.2985 10 16 9.70152 16 9.33333C16 8.96514 16.2985 8.66667 16.6667 8.66667C17.0349 8.66667 17.3333 8.96514 17.3333 9.33333Z" fill="#FFFFFF"/><path d="M10 12C10.3682 12 10.6667 11.7015 10.6667 11.3333C10.6667 10.9651 10.3682 10.6667 10 10.6667C9.63181 10.6667 9.33333 10.9651 9.33333 11.3333C9.33333 11.7015 9.63181 12 10 12Z" fill="#FFFFFF"/><path d="M18.6667 11.3333C18.6667 11.7015 18.3682 12 18 12C17.6318 12 17.3333 11.7015 17.3333 11.3333C17.3333 10.9651 17.6318 10.6667 18 10.6667C18.3682 10.6667 18.6667 10.9651 18.6667 11.3333Z" fill="#FFFFFF"/><path fill-rule="evenodd" clip-rule="evenodd" d="M0 6.66667H28V0H0V6.66667Z" fill="#FFD044"/></g><defs><clipPath id="clip0_503_2608"><rect width="28" height="20" fill="#FFFFFF"/></clipPath></defs></svg>