<svg fill="none" xmlns="http://www.w3.org/2000/svg" viewBox="0 0 28 20"><g clip-path="url(#clip0_503_4051)"><path d="M-5.43296e-05 0L28 1.14739e-05C28 6.66668 28 13.3333 28 20H-6.10352e-05C0.000167284 13.3333 -4.54552e-05 6.66667 -5.43296e-05 0Z" fill="#FFFFFF"/><path fill-rule="evenodd" clip-rule="evenodd" d="M-3.03686e-05 4.00001H28V1.14739e-05L-5.43296e-05 0C-1.8651e-05 1.33334 -3.03686e-05 2.66667 -3.03686e-05 4.00001Z" fill="#0E46D4"/><path fill-rule="evenodd" clip-rule="evenodd" d="M-6.10352e-05 20H28V16H-3.03686e-05L-6.10352e-05 20Z" fill="#0E46D4"/><path fill-rule="evenodd" clip-rule="evenodd" d="M11.0151 10L9.5336 12.6667H12.4966L13.9999 15.3728L15.5033 12.6667H18.4663L16.9848 10L18.4663 7.33335H15.5033L13.9999 4.62724L12.4966 7.33335L9.5336 7.33335L11.0151 10ZM11.3964 10.6864L10.6666 12H12.1262L11.3964 10.6864ZM12.8888 12L11.7777 10L12.8888 8.00002H15.1111L16.2222 10L15.1111 12H12.8888ZM13.2592 12.6667L13.9999 14L14.7407 12.6667L13.2592 12.6667ZM16.6035 10.6864L15.8737 12H17.3333L16.6035 10.6864ZM16.6035 9.31363L17.3333 8.00002H15.8737L16.6035 9.31363ZM14.7407 7.33335L13.9999 5.99999L13.2592 7.33335H14.7407ZM12.1262 8.00002L11.3964 9.31363L10.6666 8.00002H12.1262Z" fill="#093EC5"/></g><defs><clipPath id="clip0_503_4051"><rect width="28" height="20" fill="#FFFFFF"/></clipPath></defs></svg>