<svg fill="none" xmlns="http://www.w3.org/2000/svg" viewBox="0 0 28 20"><g clip-path="url(#clip0_503_2778)"><path d="M0 0C9.33335 0 18.6667 -4.57763e-05 28 4.85778e-06V20C18.6667 20 9.33337 20 3.93987e-05 20C3.93987e-05 13.3333 0.000293331 6.66667 0 0Z" fill="#FFFFFF"/><path d="M28 9.33333H13.3334V0L28 4.85778e-06V9.33333Z" fill="#E52448"/><path d="M13.3334 20H3.93987e-05V9.33333H13.3334V20Z" fill="#1367AE"/><path fill-rule="evenodd" clip-rule="evenodd" d="M6.66671 5.76L5.09928 6.82405L5.62688 5.00453L4.13056 3.84262L6.02406 3.78214L6.66671 2L7.30935 3.78214L9.20286 3.84262L7.70653 5.00453L8.23413 6.82405L6.66671 5.76Z" fill="#1367AE"/><path fill-rule="evenodd" clip-rule="evenodd" d="M20.6667 15.76L19.0993 16.824L19.6269 15.0045L18.1306 13.8426L20.0241 13.7821L20.6667 12L21.3094 13.7821L23.2029 13.8426L21.7065 15.0045L22.2341 16.824L20.6667 15.76Z" fill="#E52448"/></g><defs><clipPath id="clip0_503_2778"><rect width="28" height="20" fill="#FFFFFF"/></clipPath></defs></svg>