<svg fill="none" xmlns="http://www.w3.org/2000/svg" viewBox="0 0 28 20"><g clip-path="url(#clip0_503_4768)"><path d="M-2.40744e-05 0H27.9999C28.0004 6.66667 27.9999 13.3333 27.9999 20C18.6666 20 9.33328 20 -5.13733e-05 20C-5.13733e-05 13.3333 -0.00022732 6.66667 -2.40744e-05 0Z" fill="#FFFFFF"/><path d="M27.9999 0H7.99995L9.99995 1.33333L7.99995 2.66667L9.99995 4L7.99995 5.33333L9.99995 6.66667L7.99995 8L9.99995 9.33333L7.99995 10.6667L9.99995 12L7.99995 13.3333L9.99995 14.6667L7.99995 16L9.99995 17.3333L7.99995 18.6667L9.99995 20H27.9999L27.9999 0Z" fill="#E7243B"/><path d="M0.499878 0.5L0.499877 19.5L9.25181 19.5L10.0026 20H-5.13733e-05L-2.40744e-05 0H7.99995L8.75067 0.5L0.499878 0.5Z" fill="#8996A2"/></g><defs><clipPath id="clip0_503_4768"><rect width="28" height="20" fill="#FFFFFF"/></clipPath></defs></svg>