<svg fill="none" xmlns="http://www.w3.org/2000/svg" viewBox="0 0 28 20"><g clip-path="url(#clip0_503_2952)"><path d="M-6.77109e-05 2.00003C-6.77109e-05 0.895462 -6.77109e-05 3.06815e-05 -6.77109e-05 3.06815e-05H27.9999C27.9999 6.6667 27.9999 13.3334 27.9999 20H-6.77109e-05C-6.77109e-05 14 -6.77109e-05 8.00003 -6.77109e-05 2.00003Z" fill="#FFFFFF"/><path d="M-6.77109e-05 3.06815e-05H27.9999V20H-6.77109e-05V3.06815e-05Z" fill="#0A17A7"/><path d="M1.49992 3.40194e-05L10.6666 6.14338V-0.0130005H17.3333V6.14338L26.2788 -0.00171061L27.9999 3.06815e-05L28.0031 2.16773L21.3262 6.6667H27.9999V13.3334H21.3262L27.9946 17.8462L27.9999 20L26.4314 20.0029L17.3333 13.8567V20.0009H10.6666V13.8567L1.61806 20.0032L-6.77109e-05 20L-0.000376701 17.8527L6.67367 13.3334H-6.77109e-05V6.6667H6.67367L-6.77109e-05 2.00003V3.06815e-05L1.49992 3.40194e-05Z" fill="#FFFFFF"/><path fill-rule="evenodd" clip-rule="evenodd" d="M27.9999 3.06815e-05L28.0031 0.555987L18.8511 6.6107C18.6973 6.71188 18.4906 6.66922 18.3894 6.51542C18.2882 6.36163 18.3309 6.15493 18.4847 6.05375L27.7012 -0.00172408L27.9999 3.06815e-05Z" fill="#DB1F35"/><path fill-rule="evenodd" clip-rule="evenodd" d="M28.001 18.6693L20.199 13.4211C20.0464 13.3182 19.8392 13.3586 19.7363 13.5112C19.6334 13.6639 19.6737 13.8711 19.8264 13.9739L28.001 19.4797V18.6693Z" fill="#DB1F35"/><path fill-rule="evenodd" clip-rule="evenodd" d="M-8.34465e-05 0.500034L8.19175 6.03407C8.34442 6.13696 8.38477 6.34412 8.28188 6.49678C8.179 6.64945 7.97184 6.6898 7.81918 6.58691L-8.34465e-05 1.30863V0.500034Z" fill="#DB1F35"/><path fill-rule="evenodd" clip-rule="evenodd" d="M-6.77109e-05 20L0.332207 20.0032L9.47419 13.8827C9.62762 13.781 9.66951 13.5741 9.56777 13.4207C9.46603 13.2673 9.25917 13.2254 9.10575 13.3271L-0.0078125 19.3234L-6.77109e-05 20Z" fill="#DB1F35"/><path fill-rule="evenodd" clip-rule="evenodd" d="M-6.77109e-05 12H11.9999V20H15.9999V12H27.9999V8.00003H15.9999V3.06815e-05H11.9999V8.00003H-6.77109e-05V12Z" fill="#E6273E"/></g><defs><clipPath id="clip0_503_2952"><rect width="28" height="20" fill="#FFFFFF"/></clipPath></defs></svg>