<svg fill="none" xmlns="http://www.w3.org/2000/svg" viewBox="0 0 28 20"><g clip-path="url(#clip0_503_3965)"><path d="M0 0H28C28 6.66667 28 13.3333 28 20C18.6667 20 9.33336 20 2.35736e-05 20C2.35736e-05 13.3333 0.000175511 6.66667 0 0Z" fill="#FFFFFF"/><path fill-rule="evenodd" clip-rule="evenodd" d="M2.35736e-05 6.66667H28V0H0L2.35736e-05 6.66667Z" fill="#20AA46"/><path fill-rule="evenodd" clip-rule="evenodd" d="M2.35736e-05 20H28V13.3333H2.35736e-05V20Z" fill="#E92F3B"/><path fill-rule="evenodd" clip-rule="evenodd" d="M2.35736e-05 13.3333H28V6.66667H2.35736e-05V13.3333Z" fill="#FADF50"/><path fill-rule="evenodd" clip-rule="evenodd" d="M14 14.6667C16.5774 14.6667 18.6667 12.5773 18.6667 10C18.6667 7.42267 16.5774 5.33333 14 5.33333C11.4227 5.33333 9.33336 7.42267 9.33336 10C9.33336 12.5773 11.4227 14.6667 14 14.6667Z" fill="#205CCA"/><path fill-rule="evenodd" clip-rule="evenodd" d="M14 10.4813L14.7254 10.9984L14.4577 10.1487L15.1737 9.61866L14.2829 9.61064L14 8.76595L13.7171 9.61064L12.8264 9.61866L13.5423 10.1487L13.2747 10.9984L14 10.4813ZM12.0407 12.6967L12.7637 10.4017L10.8298 8.96994L13.2359 8.94828L14 6.66667L14.7641 8.94828L17.1702 8.96994L15.2364 10.4017L15.9593 12.6967L14 11.3L12.0407 12.6967Z" fill="#FFDB3D"/></g><defs><clipPath id="clip0_503_3965"><rect width="28" height="20" fill="#FFFFFF"/></clipPath></defs></svg>