<svg fill="none" xmlns="http://www.w3.org/2000/svg" viewBox="0 0 28 20"><g clip-path="url(#clip0_503_4735)"><path d="M0.000282006 0.0028075H28.0002C28.0002 6.66947 28.0002 13.3361 28.0002 20.0028C18.6669 20.0028 9.33354 20.0028 0.000203447 20.0028C0.000203447 13.3361 -0.000302881 6.66947 0.000282006 0.0028075Z" fill="#FFFFFF"/><path d="M0.000282006 0.0028075H28.0002V20.0028H0.000203447L0.000282006 0.0028075Z" fill="#0A17A7"/><path fill-rule="evenodd" clip-rule="evenodd" d="M17.3337 10.0028C17.3337 8.00283 17.3337 6.66949 17.3337 6.66949L18.667 7.33616L20.0004 6.66949L21.3337 7.33616L22.667 6.66949C22.667 6.66949 22.667 8.00283 22.667 10.0028C22.667 12.0028 20.0004 13.3362 20.0004 13.3362C20.0004 13.3362 17.3337 12.0028 17.3337 10.0028Z" fill="#FFFFFF"/><path d="M18.2376 12.0028H21.7631C21.2037 12.5928 20.8295 12.8914 20.0004 13.3362C19.0956 12.8255 18.7465 12.5316 18.2376 12.0028Z" fill="#9ACCFF"/><path d="M20.0004 9.33614C20.3686 9.33614 20.667 9.03767 20.667 8.66948C20.667 8.30129 20.3686 8.00281 20.0004 8.00281C19.6322 8.00281 19.3337 8.30129 19.3337 8.66948C19.3337 9.03767 19.6322 9.33614 20.0004 9.33614Z" fill="#FFA51B"/><path d="M18.6669 10.6695C19.0351 10.6695 19.3335 10.371 19.3335 10.0028C19.3335 9.63462 19.0351 9.33614 18.6669 9.33614C18.2987 9.33614 18.0002 9.63462 18.0002 10.0028C18.0002 10.371 18.2987 10.6695 18.6669 10.6695Z" fill="#FFA51B"/><path d="M22 10.0028C22 10.371 21.7016 10.6695 21.3334 10.6695C20.9652 10.6695 20.6667 10.371 20.6667 10.0028C20.6667 9.6346 20.9652 9.33612 21.3334 9.33612C21.7016 9.33612 22 9.6346 22 10.0028Z" fill="#FFA51B"/><path d="M14.0008 0.944885L11.4316 3.09973H14.0008V6.66742H11.4321L14.0008 8.82123V10H10.8046L8.78658 8.3103V10H5.21517V8.30878L3.19344 10H0.000203447V8.81104L2.56368 6.66742H0.000203447V3.09973H2.56734L0.000203447 0.949463V0H3.47371L5.21517 1.45758V0H8.78658V1.46045L10.5354 0H14.0008V0.944885Z" fill="#FFFFFF"/><path d="M8.68244 4.10227L13.5706 0.00258202L12.0939 0L7.78598 3.60098V0.00445557L6.21457 0.00445554V3.60113L1.92767 0.0131366L0.42575 0.00453328L5.31786 4.10227H0.000203447V5.66998H5.31784L0.138634 10.0008L1.63867 9.9989L6.21457 6.17104V10.0004H7.78598V6.17126L12.3596 10.0008L13.8499 10.0028L8.68254 5.66998H14.0002V4.10227H8.68244Z" fill="#DC1F37"/></g><defs><clipPath id="clip0_503_4735"><rect width="28" height="20" fill="#FFFFFF"/></clipPath></defs></svg>