<svg fill="none" xmlns="http://www.w3.org/2000/svg" viewBox="0 0 28 20"><g clip-path="url(#clip0_503_4907)"><path d="M0 0C9.33335 0 18.6667 -8.36891e-05 28 8.88109e-06V20C18.6667 20 9.33337 20 3.93987e-05 20C3.93987e-05 13.3333 0.000293331 6.66667 0 0Z" fill="#FFFFFF"/><path fill-rule="evenodd" clip-rule="evenodd" d="M3.93987e-05 20H28V10H3.93987e-05V20Z" fill="#00B051"/><path fill-rule="evenodd" clip-rule="evenodd" d="M3.93987e-05 10H28V8.88109e-06L0 0L3.93987e-05 10Z" fill="#FA494B"/><path fill-rule="evenodd" clip-rule="evenodd" d="M14 12.2267L11.6489 13.9027L12.5164 11.1487L10.1958 9.4306L13.0831 9.4046L14 6.66667L14.917 9.4046L17.8043 9.4306L15.4837 11.1487L16.3512 13.9027L14 12.2267Z" fill="#FDD216"/></g><defs><clipPath id="clip0_503_4907"><rect width="28" height="20" fill="#FFFFFF"/></clipPath></defs></svg>