<svg fill="none" xmlns="http://www.w3.org/2000/svg" viewBox="0 0 28 20"><g clip-path="url(#clip0_1310_7981)"><path d="M27.9998 0H-0.000244141V20H27.9998V0Z" fill="#FFFFFF"/><path fill-rule="evenodd" clip-rule="evenodd" d="M-0.000244141 0H27.9998V1.33333H-0.000244141V0ZM-0.000244141 2.66667H27.9998V4H-0.000244141V2.66667ZM-0.000244141 5.33333H27.9998V6.66667H-0.000244141V5.33333ZM-0.000244141 8H27.9998V9.33333H-0.000244141V8ZM-0.000244141 10.6667H27.9998V12H-0.000244141V10.6667ZM-0.000244141 13.3333H27.9998V14.6667H-0.000244141V13.3333ZM-0.000244141 16H27.9998V17.3333H-0.000244141V16ZM-0.000244141 18.6667H27.9998V20H-0.000244141V18.6667Z" fill="#D02F44"/><path d="M11.9998 0H-0.000244141V9.33333L11.9998 9.33333V0Z" fill="#46467F"/><path fill-rule="evenodd" clip-rule="evenodd" d="M1.99992 2.66667C1.63173 2.66667 1.33325 2.36819 1.33325 2C1.33325 1.63181 1.63173 1.33333 1.99992 1.33333C2.36811 1.33333 2.66659 1.63181 2.66659 2C2.66659 2.36819 2.36811 2.66667 1.99992 2.66667ZM4.66658 2.66667C4.2984 2.66667 3.99992 2.36819 3.99992 2C3.99992 1.63181 4.2984 1.33333 4.66658 1.33333C5.03477 1.33333 5.33325 1.63181 5.33325 2C5.33325 2.36819 5.03477 2.66667 4.66658 2.66667ZM7.33325 2.66667C6.96506 2.66667 6.66658 2.36819 6.66658 2C6.66658 1.63181 6.96506 1.33333 7.33325 1.33333C7.70144 1.33333 7.99992 1.63181 7.99992 2C7.99992 2.36819 7.70144 2.66667 7.33325 2.66667ZM9.99992 2.66667C9.63173 2.66667 9.33325 2.36819 9.33325 2C9.33325 1.63181 9.63173 1.33333 9.99992 1.33333C10.3681 1.33333 10.6666 1.63181 10.6666 2C10.6666 2.36819 10.3681 2.66667 9.99992 2.66667ZM3.33325 4C2.96506 4 2.66659 3.70152 2.66659 3.33333C2.66659 2.96514 2.96506 2.66667 3.33325 2.66667C3.70144 2.66667 3.99992 2.96514 3.99992 3.33333C3.99992 3.70152 3.70144 4 3.33325 4ZM5.99992 4C5.63173 4 5.33325 3.70152 5.33325 3.33333C5.33325 2.96514 5.63173 2.66667 5.99992 2.66667C6.36811 2.66667 6.66658 2.96514 6.66658 3.33333C6.66658 3.70152 6.36811 4 5.99992 4ZM8.66658 4C8.2984 4 7.99992 3.70152 7.99992 3.33333C7.99992 2.96514 8.2984 2.66667 8.66658 2.66667C9.03477 2.66667 9.33325 2.96514 9.33325 3.33333C9.33325 3.70152 9.03477 4 8.66658 4ZM9.99992 5.33333C9.63173 5.33333 9.33325 5.03486 9.33325 4.66667C9.33325 4.29848 9.63173 4 9.99992 4C10.3681 4 10.6666 4.29848 10.6666 4.66667C10.6666 5.03486 10.3681 5.33333 9.99992 5.33333ZM7.33325 5.33333C6.96506 5.33333 6.66658 5.03486 6.66658 4.66667C6.66658 4.29848 6.96506 4 7.33325 4C7.70144 4 7.99992 4.29848 7.99992 4.66667C7.99992 5.03486 7.70144 5.33333 7.33325 5.33333ZM4.66658 5.33333C4.2984 5.33333 3.99992 5.03486 3.99992 4.66667C3.99992 4.29848 4.2984 4 4.66658 4C5.03477 4 5.33325 4.29848 5.33325 4.66667C5.33325 5.03486 5.03477 5.33333 4.66658 5.33333ZM1.99992 5.33333C1.63173 5.33333 1.33325 5.03486 1.33325 4.66667C1.33325 4.29848 1.63173 4 1.99992 4C2.36811 4 2.66659 4.29848 2.66659 4.66667C2.66659 5.03486 2.36811 5.33333 1.99992 5.33333ZM3.33325 6.66667C2.96506 6.66667 2.66659 6.36819 2.66659 6C2.66659 5.63181 2.96506 5.33333 3.33325 5.33333C3.70144 5.33333 3.99992 5.63181 3.99992 6C3.99992 6.36819 3.70144 6.66667 3.33325 6.66667ZM5.99992 6.66667C5.63173 6.66667 5.33325 6.36819 5.33325 6C5.33325 5.63181 5.63173 5.33333 5.99992 5.33333C6.36811 5.33333 6.66658 5.63181 6.66658 6C6.66658 6.36819 6.36811 6.66667 5.99992 6.66667ZM8.66658 6.66667C8.2984 6.66667 7.99992 6.36819 7.99992 6C7.99992 5.63181 8.2984 5.33333 8.66658 5.33333C9.03477 5.33333 9.33325 5.63181 9.33325 6C9.33325 6.36819 9.03477 6.66667 8.66658 6.66667ZM9.99992 8C9.63173 8 9.33325 7.70152 9.33325 7.33333C9.33325 6.96514 9.63173 6.66667 9.99992 6.66667C10.3681 6.66667 10.6666 6.96514 10.6666 7.33333C10.6666 7.70152 10.3681 8 9.99992 8ZM7.33325 8C6.96506 8 6.66658 7.70152 6.66658 7.33333C6.66658 6.96514 6.96506 6.66667 7.33325 6.66667C7.70144 6.66667 7.99992 6.96514 7.99992 7.33333C7.99992 7.70152 7.70144 8 7.33325 8ZM4.66658 8C4.2984 8 3.99992 7.70152 3.99992 7.33333C3.99992 6.96514 4.2984 6.66667 4.66658 6.66667C5.03477 6.66667 5.33325 6.96514 5.33325 7.33333C5.33325 7.70152 5.03477 8 4.66658 8ZM1.99992 8C1.63173 8 1.33325 7.70152 1.33325 7.33333C1.33325 6.96514 1.63173 6.66667 1.99992 6.66667C2.36811 6.66667 2.66659 6.96514 2.66659 7.33333C2.66659 7.70152 2.36811 8 1.99992 8Z" fill="#FFFFFF"/></g><defs><clipPath id="clip0_1310_7981"><rect width="28" height="20" fill="#FFFFFF"/></clipPath></defs></svg>