<svg fill="none" xmlns="http://www.w3.org/2000/svg" viewBox="0 0 28 20"><g clip-path="url(#clip0_503_3756)"><path d="M2.72989e-05 0H28C28 6.66667 28 13.3333 28 20C18.6667 20 9.33333 20 0 20C0 13.3333 -0.000175947 6.66667 2.72989e-05 0Z" fill="#FFFFFF"/><path fill-rule="evenodd" clip-rule="evenodd" d="M0 20H28V9.33333H0V20Z" fill="#EA3B2E"/><path d="M2.72989e-05 0H9.33333V9.33333H0L2.72989e-05 0Z" fill="#0B48C2"/><path fill-rule="evenodd" clip-rule="evenodd" d="M4.66667 5.70667L3.09924 6.82405L3.67757 4.98804L2.13052 3.84262L4.05537 3.82529L4.66667 2L5.27796 3.82529L7.20282 3.84262L5.65577 4.98804L6.23409 6.82405L4.66667 5.70667Z" fill="#FFFFFF"/></g><defs><clipPath id="clip0_503_3756"><rect width="28" height="20" fill="#FFFFFF"/></clipPath></defs></svg>