<svg fill="none" xmlns="http://www.w3.org/2000/svg" viewBox="0 0 28 20"><g clip-path="url(#clip0_503_3879)"><path d="M8.11815e-05 0C9.33341 0 18.6667 -4.57762e-05 28.0001 4.85778e-06V20C18.6667 20 9.33335 20 0 20C0.000427794 13.3333 -9.54384e-05 6.66667 8.11815e-05 0Z" fill="#FFFFFF"/><path d="M8.11815e-05 0L28.0001 4.85778e-06V20H0L8.11815e-05 0Z" fill="#FFD44D"/><path d="M12.0001 0L28.0001 4.85778e-06V4H12.0001V0Z" fill="#159A74"/><path d="M12.0001 8H28.0001V12H12.0001V8Z" fill="#159A74"/><path d="M28.0001 16H5.74589e-05L0 20H28.0001V16Z" fill="#159A74"/><path d="M8.11815e-05 0H12.0001V12H5.74589e-05L8.11815e-05 0Z" fill="#ED1F45"/><path fill-rule="evenodd" clip-rule="evenodd" d="M6.00006 7.56L3.64892 9.23607L4.51641 6.48207L2.19583 4.76393L5.08311 4.73793L6.00006 2L6.917 4.73793L9.80429 4.76393L7.48371 6.48207L8.3512 9.23607L6.00006 7.56Z" fill="#FFFFFF"/></g><defs><clipPath id="clip0_503_3879"><rect width="28" height="20" fill="#FFFFFF"/></clipPath></defs></svg>