<svg fill="none" xmlns="http://www.w3.org/2000/svg" viewBox="0 0 28 20"><g clip-path="url(#clip0_503_4949)"><path d="M0 0H28C28 0 28 0.895431 28 2V20C28 20 27.1046 20 26 20H2C0.895432 20 0 20 0 20C0 13.3333 0 6.66667 0 0Z" fill="#FFFFFF"/><path d="M0 0H28V20H0V0Z" fill="#07319C"/><path fill-rule="evenodd" clip-rule="evenodd" d="M17.3335 9.99998C17.3335 8.90624 17.3335 7.61312 17.3335 6.6658C17.3335 5.92942 17.9305 5.33331 18.6668 5.33331H22.6668C23.4032 5.33331 24.0002 5.92942 24.0002 6.6658C24.0002 7.61313 24.0002 8.90624 24.0002 9.99998C24.0002 13.3333 20.6668 14.6666 20.6668 14.6666C20.6668 14.6666 17.3335 13.3333 17.3335 9.99998Z" fill="#A63D09"/><path d="M17.3335 6.6658V9.99998C17.3335 10.7709 17.5118 11.4348 17.7859 12H23.5478C23.8219 11.4348 24.0002 10.7709 24.0002 9.99998V6.6658C24.0002 5.92942 23.4032 5.33331 22.6668 5.33331H18.6668C17.9305 5.33331 17.3335 5.92942 17.3335 6.6658Z" fill="#08B9D6"/><path d="M21.3338 6.66663H20.0005V7.99996H18.667V9.33329H20.0005V12H21.3338V9.33329H22.667V7.99996H21.3338V6.66663Z" fill="#262626"/><path d="M14.0006 0.947449L11.4314 3.10229H14.0006V6.66998H11.4319L14.0006 8.82379V10.0026H10.8044L8.78638 8.31287V10.0026H5.21497V8.31134L3.19324 10.0026H0V8.8136L2.56348 6.66998H0V3.10229H2.56714L0 0.952026V0.00256348H3.47351L5.21497 1.46014V0.00256348H8.78638V1.46301L10.5352 0.00256348H14.0006V0.947449Z" fill="#FFFFFF"/><path d="M8.68285 4.10227L13.571 0.00258202L12.0943 0L7.78639 3.60098V0.00445557L6.21498 0.00445554V3.60113L1.92808 0.0131366L0.426157 0.00453328L5.31826 4.10227H0.000610352V5.66998H5.31825L0.139041 10.0008L1.63907 9.9989L6.21498 6.17104V10.0004H7.78639V6.17126L12.36 10.0008L13.8503 10.0028L8.68294 5.66998H14.0006V4.10227H8.68285Z" fill="#DC1F37"/></g><defs><clipPath id="clip0_503_4949"><rect width="28" height="20" fill="#FFFFFF"/></clipPath></defs></svg>