<svg fill="none" xmlns="http://www.w3.org/2000/svg" viewBox="0 0 28 20"><g clip-path="url(#clip0_503_3995)"><path d="M0 -3.05176e-05C9.33333 0.000121695 18.6667 -1.59144e-05 28 -1.59144e-05C28 6.66665 28 13.3333 28 20C18.6667 20 9.33333 20 0 20V-3.05176e-05Z" fill="#FFFFFF"/><path fill-rule="evenodd" clip-rule="evenodd" d="M0 5.33332H28V-1.59144e-05L0 -3.05176e-05V5.33332Z" fill="#0F3EB6"/><path fill-rule="evenodd" clip-rule="evenodd" d="M0 20H28V14.6667H0V20Z" fill="#0F3EB6"/><path fill-rule="evenodd" clip-rule="evenodd" d="M0 14.6667H28V5.33332H0V14.6667Z" fill="#ED1A3C"/><path d="M12 8.7272H13.3333V7.99998C13.3333 7.63179 13.6318 7.33332 14 7.33332C14.3682 7.33332 14.6667 7.63179 14.6667 7.99998V8.7272H16V9.99998H12V8.7272Z" fill="#FFFFFF"/><path d="M17.3333 7.99998C16.9651 7.99998 16.6667 8.29846 16.6667 8.66665V9.99998H18V8.66665C18 8.29846 17.7015 7.99998 17.3333 7.99998Z" fill="#FFFFFF"/><path d="M11.3333 13.3333V10.6667H10L8.66667 13.3333H11.3333Z" fill="#FFFFFF"/><path d="M16 10.6667H12V13.3333H16V10.6667Z" fill="#FFFFFF"/><path d="M16.6667 10.6667H18L19.3333 13.3333H16.6667V10.6667Z" fill="#FFFFFF"/><path d="M10.6667 7.99998C10.2985 7.99998 10 8.29846 10 8.66665V9.99998H11.3333V8.66665C11.3333 8.29846 11.0349 7.99998 10.6667 7.99998Z" fill="#FFFFFF"/></g><defs><clipPath id="clip0_503_3995"><rect width="28" height="20" fill="#FFFFFF"/></clipPath></defs></svg>