<svg fill="none" xmlns="http://www.w3.org/2000/svg" viewBox="0 0 28 20"><g clip-path="url(#clip0_503_4112)"><path d="M0 8.88109e-06C9.33333 -8.36891e-05 18.6667 -8.3689e-05 28 8.88109e-06V20C18.6667 20 9.33333 20 0 20L0 8.88109e-06Z" fill="#FFFFFF"/><path d="M5.33333 0L0 8.88109e-06L0 5.33333H5.33333V0Z" fill="#1C6DC1"/><path d="M13.3333 0H8V5.33333H13.3333V0Z" fill="#1C6DC1"/><path d="M13.3333 0L28 8.88109e-06L28.0002 2.66667H13.3335L13.3333 0Z" fill="#1C6DC1"/><path d="M28.0002 5.33331L13.3333 5.33333L13.3335 7.99998H28.0002V5.33331Z" fill="#1C6DC1"/><path d="M13.3335 10.6667H28.0002V13.3334H13.3335V10.6667Z" fill="#1C6DC1"/><path d="M28 16H0V18.6667H28V16Z" fill="#1C6DC1"/><path d="M8 8L13.3335 7.99998V13.3334L8 13.3333V8Z" fill="#1C6DC1"/><path d="M5.33333 8H0V13.3333H5.33333V8Z" fill="#1C6DC1"/></g><defs><clipPath id="clip0_503_4112"><rect width="28" height="20" fill="#FFFFFF"/></clipPath></defs></svg>