<svg fill="none" xmlns="http://www.w3.org/2000/svg" viewBox="0 0 28 20"><g clip-path="url(#clip0_1310_7988)"><path d="M28.0002 0H0.000183105V20H28.0002V0Z" fill="#FFFFFF"/><path d="M28.0002 16H0.000183105V20H28.0002V16Z" fill="#E7413D"/><path d="M28.0002 0H0.000183105V16H28.0002V0Z" fill="#FFFFFF"/><path fill-rule="evenodd" clip-rule="evenodd" d="M4.44418 14.1387H4.44552C4.47574 14.1529 4.49929 14.1734 4.51618 14.2C4.53307 14.2267 4.54152 14.256 4.54152 14.288C4.54152 14.32 4.53174 14.3511 4.51218 14.3814C4.39129 14.5538 4.2233 14.64 4.00818 14.64C3.85707 14.64 3.73085 14.5982 3.62952 14.5147C3.52818 14.4311 3.45352 14.3187 3.40552 14.1774C3.35752 14.036 3.33352 13.8791 3.33352 13.7067C3.33352 13.536 3.35752 13.38 3.40552 13.2387C3.45352 13.0974 3.52818 12.9845 3.62952 12.9C3.73085 12.8156 3.85707 12.7734 4.00818 12.7734C4.21085 12.7734 4.37174 12.8516 4.49085 13.008C4.51396 13.0365 4.52552 13.0694 4.52552 13.1067C4.52552 13.1369 4.51841 13.1645 4.50418 13.1894C4.48996 13.2142 4.46952 13.2347 4.44285 13.2507L4.43752 13.2534C4.41441 13.2676 4.38685 13.2747 4.35485 13.2747C4.30152 13.2747 4.25885 13.2542 4.22685 13.2134C4.16641 13.1369 4.09352 13.0987 4.00818 13.0987C3.90507 13.0987 3.82285 13.1534 3.76152 13.2627C3.70018 13.372 3.66952 13.52 3.66952 13.7067C3.66952 13.8969 3.70018 14.0462 3.76152 14.1547C3.82285 14.2631 3.90507 14.3174 4.00818 14.3174C4.10063 14.3174 4.17707 14.2756 4.23752 14.192C4.25352 14.1689 4.27352 14.1511 4.29752 14.1387C4.32152 14.1262 4.34685 14.12 4.37352 14.12C4.39841 14.12 4.42152 14.1254 4.44285 14.136L4.44418 14.1387ZM5.60018 14.64C5.69263 14.64 5.73885 14.6 5.73885 14.52C5.73885 14.5005 5.73618 14.4791 5.73085 14.456L5.36018 12.9067C5.35129 12.8711 5.33174 12.84 5.30152 12.8134C5.27129 12.7867 5.23752 12.7734 5.20018 12.7734H5.06418C5.02863 12.7734 4.99574 12.7867 4.96552 12.8134C4.93529 12.84 4.91574 12.8711 4.90685 12.9067L4.53885 14.4507C4.53174 14.4774 4.52818 14.5022 4.52818 14.5254C4.52818 14.5716 4.54063 14.6022 4.56552 14.6174C4.59041 14.6325 4.62241 14.64 4.66152 14.64H4.71752C4.75841 14.64 4.79129 14.6311 4.81618 14.6134C4.84107 14.5956 4.86063 14.5627 4.87485 14.5147L4.91485 14.368C4.91663 14.3609 4.92196 14.3422 4.93085 14.312C4.93974 14.2818 4.95352 14.2591 4.97218 14.244C4.99085 14.2289 5.01529 14.2214 5.04552 14.2214H5.21352C5.25796 14.2214 5.28774 14.2334 5.30285 14.2574C5.31796 14.2814 5.33085 14.3182 5.34152 14.368L5.38152 14.5147C5.39574 14.5627 5.41529 14.5956 5.44018 14.6134C5.46507 14.6311 5.49885 14.64 5.54152 14.64H5.60018ZM5.22685 13.7574C5.23396 13.7929 5.23752 13.8196 5.23752 13.8374C5.23752 13.8889 5.20996 13.9147 5.15485 13.9147H5.11218C5.05529 13.9147 5.02685 13.8854 5.02685 13.8267C5.02685 13.8018 5.02952 13.7778 5.03485 13.7547L5.06952 13.5627L5.10952 13.3654C5.11129 13.3582 5.11441 13.352 5.11885 13.3467C5.12329 13.3414 5.12729 13.3387 5.13085 13.3387C5.14329 13.3387 5.15041 13.3494 5.15218 13.3707L5.18952 13.5627L5.22685 13.7574ZM6.74152 14.64C6.78063 14.64 6.81307 14.6271 6.83885 14.6014C6.86463 14.5756 6.87752 14.544 6.87752 14.5067V14.4427C6.87752 14.4036 6.86463 14.3716 6.83885 14.3467C6.81307 14.3218 6.78063 14.3094 6.74152 14.3094H6.36285C6.32374 14.3094 6.29129 14.296 6.26552 14.2694C6.23974 14.2427 6.22685 14.2107 6.22685 14.1734V12.9067C6.22685 12.8694 6.21396 12.8378 6.18818 12.812C6.16241 12.7862 6.13085 12.7734 6.09352 12.7734H6.01085C5.97529 12.7734 5.94418 12.7862 5.91752 12.812C5.89085 12.8378 5.87752 12.8694 5.87752 12.9067V14.5067C5.87752 14.544 5.89085 14.5756 5.91752 14.6014C5.94418 14.6271 5.97529 14.64 6.01085 14.64H6.74152ZM7.23485 14.64C7.27218 14.64 7.30418 14.6271 7.33085 14.6014C7.35752 14.5756 7.37085 14.544 7.37085 14.5067V12.904C7.37085 12.8685 7.35752 12.8378 7.33085 12.812C7.30418 12.7862 7.27218 12.7734 7.23485 12.7734H7.15485C7.11929 12.7734 7.08818 12.7862 7.06152 12.812C7.03485 12.8378 7.02152 12.8685 7.02152 12.904V14.5067C7.02152 14.544 7.03485 14.5756 7.06152 14.6014C7.08818 14.6271 7.11929 14.64 7.15485 14.64H7.23485ZM7.88818 14.64C7.92552 14.64 7.95752 14.6271 7.98418 14.6014C8.01085 14.5756 8.02418 14.544 8.02418 14.5067V13.9707C8.02418 13.9334 8.03707 13.9014 8.06285 13.8747C8.08863 13.848 8.12018 13.8347 8.15752 13.8347H8.43218C8.46774 13.8347 8.49841 13.8218 8.52418 13.796C8.54996 13.7702 8.56285 13.7396 8.56285 13.704V13.6347C8.56285 13.5991 8.54996 13.568 8.52418 13.5414C8.49841 13.5147 8.46774 13.5014 8.43218 13.5014H8.15752C8.1184 13.5014 8.08641 13.4885 8.06152 13.4627C8.03663 13.4369 8.02418 13.4054 8.02418 13.368V13.24C8.02418 13.2027 8.03663 13.1711 8.06152 13.1454C8.08641 13.1196 8.1184 13.1067 8.15752 13.1067H8.53352C8.57085 13.1067 8.60285 13.0938 8.62952 13.068C8.65618 13.0422 8.66952 13.0107 8.66952 12.9734V12.9067C8.66952 12.8711 8.65618 12.84 8.62952 12.8134C8.60285 12.7867 8.57085 12.7734 8.53352 12.7734H7.80818C7.77263 12.7734 7.74152 12.7867 7.71485 12.8134C7.68818 12.84 7.67485 12.8711 7.67485 12.9067V14.5067C7.67485 14.544 7.68774 14.5756 7.71352 14.6014C7.73929 14.6271 7.77085 14.64 7.80818 14.64H7.88818ZM8.75218 14.1774C8.80018 14.3187 8.87485 14.4311 8.97618 14.5147C9.07752 14.5982 9.20374 14.64 9.35485 14.64C9.50596 14.64 9.63263 14.5982 9.73485 14.5147C9.83707 14.4311 9.91263 14.3187 9.96152 14.1774C10.0104 14.036 10.0349 13.8791 10.0349 13.7067C10.0349 13.536 10.0104 13.38 9.96152 13.2387C9.91263 13.0974 9.83707 12.9845 9.73485 12.9C9.63263 12.8156 9.50596 12.7734 9.35485 12.7734C9.20374 12.7734 9.07752 12.8156 8.97618 12.9C8.87485 12.9845 8.80018 13.0974 8.75218 13.2387C8.70418 13.38 8.68018 13.536 8.68018 13.7067C8.68018 13.8791 8.70418 14.036 8.75218 14.1774ZM9.60685 14.1547C9.54374 14.2631 9.45974 14.3174 9.35485 14.3174C9.25174 14.3174 9.16952 14.2631 9.10818 14.1547C9.04685 14.0462 9.01618 13.8969 9.01618 13.7067C9.01618 13.52 9.04685 13.372 9.10818 13.2627C9.16952 13.1534 9.25174 13.0987 9.35485 13.0987C9.45974 13.0987 9.54374 13.1534 9.60685 13.2627C9.66996 13.372 9.70152 13.52 9.70152 13.7067C9.70152 13.8969 9.66996 14.0462 9.60685 14.1547ZM11.3388 14.4107C11.3495 14.4302 11.3548 14.4498 11.3548 14.4694C11.3548 14.4925 11.3469 14.5147 11.3308 14.536L11.2909 14.584C11.2446 14.6356 11.1984 14.6614 11.1522 14.6614C11.1255 14.6614 11.1015 14.6507 11.0802 14.6294C10.9913 14.5529 10.9242 14.4698 10.8788 14.38C10.8335 14.2902 10.8011 14.2071 10.7815 14.1307C10.7744 14.1005 10.7602 14.0778 10.7388 14.0627C10.7175 14.0476 10.6917 14.04 10.6615 14.04C10.5673 14.04 10.5202 14.08 10.5202 14.16V14.5307C10.5202 14.5627 10.5104 14.5902 10.4908 14.6134C10.4713 14.6365 10.4411 14.648 10.4002 14.648H10.3175C10.2748 14.648 10.2397 14.636 10.2122 14.612C10.1846 14.588 10.1708 14.5609 10.1708 14.5307V12.888C10.1708 12.8578 10.1846 12.8311 10.2122 12.808C10.2397 12.7849 10.2748 12.7734 10.3175 12.7734H10.7175C10.8455 12.7734 10.9531 12.8027 11.0402 12.8614C11.1273 12.92 11.1917 12.9956 11.2335 13.088C11.2753 13.1805 11.2962 13.2774 11.2962 13.3787C11.2962 13.5582 11.2286 13.7218 11.0935 13.8694C11.0828 13.8818 11.0757 13.8934 11.0722 13.904C11.0686 13.9147 11.0668 13.9218 11.0668 13.9254C11.0651 13.9431 11.0722 13.9782 11.0882 14.0307C11.1042 14.0831 11.13 14.1396 11.1655 14.2C11.2011 14.2605 11.2446 14.3129 11.2962 14.3574C11.314 14.3734 11.3282 14.3911 11.3388 14.4107ZM10.8749 13.6C10.9229 13.536 10.9468 13.4622 10.9468 13.3787C10.9468 13.3005 10.9229 13.2329 10.8749 13.176C10.8268 13.1191 10.7557 13.0907 10.6615 13.0907C10.6206 13.0907 10.5869 13.1022 10.5602 13.1254C10.5335 13.1485 10.5202 13.1751 10.5202 13.2054V13.5814C10.5202 13.6222 10.5322 13.6516 10.5562 13.6694C10.5802 13.6871 10.6153 13.696 10.6615 13.696C10.7557 13.696 10.8268 13.664 10.8749 13.6ZM12.4215 14.616C12.4482 14.632 12.4722 14.64 12.4935 14.64H12.5709C12.6046 14.64 12.6344 14.6262 12.6602 14.5987C12.686 14.5711 12.6988 14.5387 12.6988 14.5014V12.9147C12.6988 12.8738 12.686 12.84 12.6602 12.8134C12.6344 12.7867 12.6046 12.7734 12.5709 12.7734H12.5282C12.4873 12.7734 12.4535 12.7867 12.4268 12.8134C12.4002 12.84 12.3868 12.8738 12.3868 12.9147V13.784C12.3868 13.8267 12.3824 13.848 12.3735 13.848C12.3682 13.848 12.3566 13.8311 12.3388 13.7974L11.8668 12.864C11.8544 12.8374 11.8344 12.8156 11.8068 12.7987C11.7793 12.7818 11.7477 12.7734 11.7122 12.7734H11.6348C11.594 12.7734 11.5602 12.7867 11.5335 12.8134C11.5068 12.84 11.4935 12.8738 11.4935 12.9147V14.5014C11.4935 14.5405 11.5073 14.5734 11.5349 14.6C11.5624 14.6267 11.5957 14.64 11.6348 14.64H11.6642C11.7015 14.64 11.7335 14.6267 11.7602 14.6C11.7868 14.5734 11.8002 14.5405 11.8002 14.5014V13.5947C11.8002 13.5822 11.8024 13.5725 11.8068 13.5654C11.8113 13.5582 11.8162 13.5547 11.8215 13.5547C11.8322 13.5547 11.842 13.5636 11.8508 13.5814L12.3682 14.5627C12.3771 14.5822 12.3948 14.6 12.4215 14.616ZM13.1095 14.64C13.1468 14.64 13.1789 14.6271 13.2055 14.6014C13.2322 14.5756 13.2455 14.544 13.2455 14.5067V12.904C13.2455 12.8685 13.2322 12.8378 13.2055 12.812C13.1789 12.7862 13.1468 12.7734 13.1095 12.7734H13.0295C12.994 12.7734 12.9628 12.7862 12.9362 12.812C12.9095 12.8378 12.8962 12.8685 12.8962 12.904V14.5067C12.8962 14.544 12.9095 14.5756 12.9362 14.6014C12.9628 14.6271 12.994 14.64 13.0295 14.64H13.1095ZM14.4535 14.64C14.546 14.64 14.5922 14.6 14.5922 14.52C14.5922 14.5005 14.5895 14.4791 14.5842 14.456L14.2135 12.9067C14.2046 12.8711 14.1851 12.84 14.1549 12.8134C14.1246 12.7867 14.0908 12.7734 14.0535 12.7734H13.9175C13.882 12.7734 13.8491 12.7867 13.8189 12.8134C13.7886 12.84 13.7691 12.8711 13.7602 12.9067L13.3922 14.4507C13.3851 14.4774 13.3815 14.5022 13.3815 14.5254C13.3815 14.5716 13.394 14.6022 13.4188 14.6174C13.4437 14.6325 13.4757 14.64 13.5148 14.64H13.5709C13.6117 14.64 13.6446 14.6311 13.6695 14.6134C13.6944 14.5956 13.714 14.5627 13.7282 14.5147L13.7682 14.368C13.77 14.3609 13.7753 14.3422 13.7842 14.312C13.7931 14.2818 13.8069 14.2591 13.8255 14.244C13.8442 14.2289 13.8686 14.2214 13.8988 14.2214H14.0668C14.1113 14.2214 14.1411 14.2334 14.1562 14.2574C14.1713 14.2814 14.1842 14.3182 14.1948 14.368L14.2348 14.5147C14.2491 14.5627 14.2686 14.5956 14.2935 14.6134C14.3184 14.6311 14.3522 14.64 14.3948 14.64H14.4535ZM14.0802 13.7574C14.0873 13.7929 14.0908 13.8196 14.0908 13.8374C14.0908 13.8889 14.0633 13.9147 14.0082 13.9147H13.9655C13.9086 13.9147 13.8802 13.8854 13.8802 13.8267C13.8802 13.8018 13.8829 13.7778 13.8882 13.7547L13.9229 13.5627L13.9628 13.3654C13.9646 13.3582 13.9677 13.352 13.9722 13.3467C13.9766 13.3414 13.9806 13.3387 13.9842 13.3387C13.9966 13.3387 14.0037 13.3494 14.0055 13.3707L14.0428 13.5627L14.0802 13.7574ZM16.2962 14.4107C16.3069 14.4302 16.3122 14.4498 16.3122 14.4694C16.3122 14.4925 16.3042 14.5147 16.2882 14.536L16.2482 14.584C16.202 14.6356 16.1557 14.6614 16.1095 14.6614C16.0828 14.6614 16.0588 14.6507 16.0375 14.6294C15.9486 14.5529 15.8815 14.4698 15.8362 14.38C15.7908 14.2902 15.7584 14.2071 15.7388 14.1307C15.7317 14.1005 15.7175 14.0778 15.6962 14.0627C15.6749 14.0476 15.6491 14.04 15.6188 14.04C15.5246 14.04 15.4775 14.08 15.4775 14.16V14.5307C15.4775 14.5627 15.4677 14.5902 15.4482 14.6134C15.4286 14.6365 15.3984 14.648 15.3575 14.648H15.2748C15.2322 14.648 15.1971 14.636 15.1695 14.612C15.142 14.588 15.1282 14.5609 15.1282 14.5307V12.888C15.1282 12.8578 15.142 12.8311 15.1695 12.808C15.1971 12.7849 15.2322 12.7734 15.2748 12.7734H15.6748C15.8028 12.7734 15.9104 12.8027 15.9975 12.8614C16.0846 12.92 16.1491 12.9956 16.1908 13.088C16.2326 13.1805 16.2535 13.2774 16.2535 13.3787C16.2535 13.5582 16.186 13.7218 16.0508 13.8694C16.0402 13.8818 16.0331 13.8934 16.0295 13.904C16.026 13.9147 16.0242 13.9218 16.0242 13.9254C16.0224 13.9431 16.0295 13.9782 16.0455 14.0307C16.0615 14.0831 16.0873 14.1396 16.1229 14.2C16.1584 14.2605 16.202 14.3129 16.2535 14.3574C16.2713 14.3734 16.2855 14.3911 16.2962 14.4107ZM15.8322 13.6C15.8802 13.536 15.9042 13.4622 15.9042 13.3787C15.9042 13.3005 15.8802 13.2329 15.8322 13.176C15.7842 13.1191 15.7131 13.0907 15.6188 13.0907C15.578 13.0907 15.5442 13.1022 15.5175 13.1254C15.4908 13.1485 15.4775 13.1751 15.4775 13.2054V13.5814C15.4775 13.6222 15.4895 13.6516 15.5135 13.6694C15.5375 13.6871 15.5726 13.696 15.6188 13.696C15.7131 13.696 15.7842 13.664 15.8322 13.6ZM17.3095 14.64C17.3469 14.64 17.3784 14.6271 17.4042 14.6014C17.43 14.5756 17.4429 14.5431 17.4429 14.504V14.44C17.4429 14.4045 17.43 14.3734 17.4042 14.3467C17.3784 14.32 17.3469 14.3067 17.3095 14.3067H16.9282C16.8944 14.3067 16.8642 14.2934 16.8375 14.2667C16.8109 14.24 16.7975 14.2098 16.7975 14.176V13.968C16.7975 13.9307 16.8104 13.8991 16.8362 13.8734C16.862 13.8476 16.8926 13.8347 16.9282 13.8347H17.1575C17.1949 13.8347 17.2264 13.8218 17.2522 13.796C17.278 13.7702 17.2909 13.7396 17.2909 13.704V13.632C17.2909 13.5965 17.278 13.5654 17.2522 13.5387C17.2264 13.512 17.1949 13.4987 17.1575 13.4987H16.9282C16.8944 13.4987 16.8642 13.4854 16.8375 13.4587C16.8109 13.432 16.7975 13.4018 16.7975 13.368V13.24C16.7975 13.2045 16.8109 13.1729 16.8375 13.1454C16.8642 13.1178 16.8944 13.104 16.9282 13.104H17.3095C17.3469 13.104 17.3784 13.0916 17.4042 13.0667C17.43 13.0418 17.4429 13.0116 17.4429 12.976V12.904C17.4429 12.8685 17.43 12.8378 17.4042 12.812C17.3784 12.7862 17.3469 12.7734 17.3095 12.7734H16.5868C16.5477 12.7734 16.5153 12.7858 16.4895 12.8107C16.4637 12.8356 16.4509 12.8667 16.4509 12.904V14.504C16.4509 14.5431 16.4637 14.5756 16.4895 14.6014C16.5153 14.6271 16.5477 14.64 16.5868 14.64H17.3095ZM17.7282 14.6054C17.7513 14.6285 17.7789 14.64 17.8109 14.64H17.9202C17.954 14.64 17.9824 14.6285 18.0055 14.6054C18.0286 14.5822 18.0402 14.5538 18.0402 14.52V14.1627C18.0402 14.1289 18.0517 14.1 18.0749 14.076C18.098 14.052 18.1255 14.04 18.1575 14.04C18.3033 14.04 18.43 14.0089 18.5375 13.9467C18.6451 13.8845 18.7269 13.8036 18.7829 13.704C18.8389 13.6045 18.8668 13.4987 18.8668 13.3867C18.8668 13.2676 18.8415 13.1618 18.7909 13.0694C18.7402 12.9769 18.666 12.9045 18.5682 12.852C18.4704 12.7996 18.3522 12.7734 18.2135 12.7734H17.8109C17.7789 12.7734 17.7513 12.7849 17.7282 12.808C17.7051 12.8311 17.6935 12.8596 17.6935 12.8934V14.52C17.6935 14.5538 17.7051 14.5822 17.7282 14.6054ZM18.1575 13.7067C18.1255 13.7067 18.098 13.6951 18.0749 13.672C18.0517 13.6489 18.0402 13.6205 18.0402 13.5867V13.2187C18.0402 13.1849 18.0517 13.156 18.0749 13.132C18.098 13.108 18.1255 13.096 18.1575 13.096H18.1735C18.2784 13.096 18.3624 13.1196 18.4255 13.1667C18.4886 13.2138 18.5202 13.288 18.5202 13.3894C18.5202 13.4818 18.4873 13.5578 18.4215 13.6174C18.3557 13.6769 18.2731 13.7067 18.1735 13.7067H18.1575ZM19.8002 12.8067C19.7771 12.8289 19.7655 12.8569 19.7655 12.8907V14.008C19.7655 14.1058 19.7464 14.18 19.7082 14.2307C19.67 14.2814 19.6055 14.3067 19.5149 14.3067C19.426 14.3067 19.362 14.2818 19.3228 14.232C19.2837 14.1822 19.2642 14.1102 19.2642 14.016V12.8907C19.2642 12.8587 19.2517 12.8311 19.2269 12.808C19.202 12.7849 19.1726 12.7734 19.1389 12.7734H19.0482C19.0108 12.7734 18.9811 12.7845 18.9589 12.8067C18.9366 12.8289 18.9255 12.8569 18.9255 12.8907V13.9947C18.9255 14.2098 18.9793 14.3711 19.0868 14.4787C19.1944 14.5862 19.3389 14.64 19.5202 14.64C19.6997 14.64 19.8424 14.5862 19.9482 14.4787C20.054 14.3711 20.1069 14.2098 20.1069 13.9947V12.8907C20.1069 12.8587 20.094 12.8311 20.0682 12.808C20.0424 12.7849 20.0126 12.7734 19.9789 12.7734H19.8882C19.8526 12.7734 19.8233 12.7845 19.8002 12.8067ZM20.2322 14.6094C20.2535 14.6298 20.2793 14.64 20.3095 14.64H20.7362C20.9549 14.64 21.1175 14.5871 21.2242 14.4814C21.3309 14.3756 21.3842 14.2374 21.3842 14.0667V13.976C21.3824 13.896 21.3597 13.8262 21.3162 13.7667C21.2726 13.7071 21.2135 13.6596 21.1389 13.624C21.1353 13.624 21.1335 13.6214 21.1335 13.616L21.1362 13.6134C21.1984 13.576 21.2451 13.5209 21.2762 13.448C21.3073 13.3751 21.3229 13.2951 21.3229 13.208C21.3229 13.08 21.2709 12.9756 21.1669 12.8947C21.0629 12.8138 20.9157 12.7734 20.7255 12.7734H20.3095C20.2793 12.7734 20.2535 12.7836 20.2322 12.804C20.2108 12.8245 20.2002 12.8498 20.2002 12.88V14.5334C20.2002 14.5636 20.2108 14.5889 20.2322 14.6094ZM20.6615 13.4854C20.6153 13.4854 20.5851 13.4782 20.5709 13.464C20.5566 13.4498 20.5495 13.4205 20.5495 13.376V13.2134C20.5495 13.1707 20.5562 13.1418 20.5695 13.1267C20.5829 13.1116 20.6135 13.104 20.6615 13.104H20.6829C20.786 13.104 20.8602 13.1196 20.9055 13.1507C20.9509 13.1818 20.9735 13.2222 20.9735 13.272C20.9735 13.3307 20.9513 13.3809 20.9069 13.4227C20.8624 13.4645 20.7886 13.4854 20.6855 13.4854H20.6615ZM20.6615 14.3094C20.6189 14.3094 20.5895 14.3018 20.5735 14.2867C20.5575 14.2716 20.5495 14.2427 20.5495 14.2V13.9014C20.5495 13.8551 20.5575 13.8254 20.5735 13.812C20.5895 13.7987 20.6189 13.792 20.6615 13.792H20.7602C20.8455 13.792 20.9153 13.8142 20.9695 13.8587C21.0237 13.9031 21.0509 13.9618 21.0509 14.0347V14.0667C21.0509 14.2285 20.9549 14.3094 20.7628 14.3094H20.6615ZM22.4402 14.64C22.4793 14.64 22.5117 14.6271 22.5375 14.6014C22.5633 14.5756 22.5762 14.544 22.5762 14.5067V14.4427C22.5762 14.4036 22.5633 14.3716 22.5375 14.3467C22.5117 14.3218 22.4793 14.3094 22.4402 14.3094H22.0615C22.0224 14.3094 21.99 14.296 21.9642 14.2694C21.9384 14.2427 21.9255 14.2107 21.9255 14.1734V12.9067C21.9255 12.8694 21.9126 12.8378 21.8869 12.812C21.8611 12.7862 21.8295 12.7734 21.7922 12.7734H21.7095C21.674 12.7734 21.6429 12.7862 21.6162 12.812C21.5895 12.8378 21.5762 12.8694 21.5762 12.9067V14.5067C21.5762 14.544 21.5895 14.5756 21.6162 14.6014C21.6429 14.6271 21.674 14.64 21.7095 14.64H22.4402ZM22.9335 14.64C22.9709 14.64 23.0028 14.6271 23.0295 14.6014C23.0562 14.5756 23.0695 14.544 23.0695 14.5067V12.904C23.0695 12.8685 23.0562 12.8378 23.0295 12.812C23.0028 12.7862 22.9709 12.7734 22.9335 12.7734H22.8535C22.818 12.7734 22.7868 12.7862 22.7602 12.812C22.7335 12.8378 22.7202 12.8685 22.7202 12.904V14.5067C22.7202 14.544 22.7335 14.5756 22.7602 14.6014C22.7868 14.6271 22.818 14.64 22.8535 14.64H22.9335ZM24.3882 14.1387H24.3895C24.4197 14.1529 24.4433 14.1734 24.4602 14.2C24.4771 14.2267 24.4855 14.256 24.4855 14.288C24.4855 14.32 24.4757 14.3511 24.4562 14.3814C24.3353 14.5538 24.1673 14.64 23.9522 14.64C23.8011 14.64 23.6749 14.5982 23.5735 14.5147C23.4722 14.4311 23.3975 14.3187 23.3495 14.1774C23.3015 14.036 23.2775 13.8791 23.2775 13.7067C23.2775 13.536 23.3015 13.38 23.3495 13.2387C23.3975 13.0974 23.4722 12.9845 23.5735 12.9C23.6749 12.8156 23.8011 12.7734 23.9522 12.7734C24.1549 12.7734 24.3157 12.8516 24.4349 13.008C24.458 13.0365 24.4695 13.0694 24.4695 13.1067C24.4695 13.1369 24.4624 13.1645 24.4482 13.1894C24.434 13.2142 24.4135 13.2347 24.3869 13.2507L24.3815 13.2534C24.3584 13.2676 24.3309 13.2747 24.2989 13.2747C24.2455 13.2747 24.2029 13.2542 24.1709 13.2134C24.1104 13.1369 24.0375 13.0987 23.9522 13.0987C23.8491 13.0987 23.7668 13.1534 23.7055 13.2627C23.6442 13.372 23.6135 13.52 23.6135 13.7067C23.6135 13.8969 23.6442 14.0462 23.7055 14.1547C23.7668 14.2631 23.8491 14.3174 23.9522 14.3174C24.0446 14.3174 24.1211 14.2756 24.1815 14.192C24.1975 14.1689 24.2175 14.1511 24.2415 14.1387C24.2655 14.1262 24.2909 14.12 24.3175 14.12C24.3424 14.12 24.3655 14.1254 24.3869 14.136L24.3882 14.1387Z" fill="#414B52"/><path fill-rule="evenodd" clip-rule="evenodd" d="M8.36494 11.5142C7.27796 11.4861 7.25502 11.3069 8.33039 11.1221C8.33039 11.1221 11.9613 10.4032 14.5775 10.4032C17.2947 10.4032 20.7476 11.1133 20.7476 11.1133C21.8154 11.3066 21.7966 11.4872 20.7086 11.5164L14.7017 11.6779L8.36494 11.5142Z" fill="#319400"/><path d="M9.74891 8.80024C9.54845 8.61413 9.55782 8.96761 9.10763 8.9075C8.98779 8.8915 8.84135 8.61917 8.84135 8.61917C8.84135 8.61917 8.08995 8.57048 8.04936 8.22105C8.00877 7.87163 8.51592 7.707 8.7048 7.44363C8.85346 7.23633 8.72878 7.06169 8.84135 6.83328C8.95393 6.60486 9.28744 6.53245 9.32133 6.41507C9.34237 6.3422 9.144 6.06261 9.42395 5.9678C9.69464 5.87613 9.9456 6.10712 9.9456 6.10712C9.9456 6.10712 9.94693 5.78401 10.1663 5.74596C10.4842 5.69082 10.69 5.9678 10.69 5.9678C10.69 5.9678 12.3108 4.6256 13.2227 4.61575C14.0067 4.60728 14.3642 5.09952 15.1164 5.18069C16.3415 5.31288 16.8854 4.61575 18.1309 5.18069C19.7245 5.90351 19.8247 9.16995 19.8247 9.16995C19.8247 9.16995 20.2254 9.70592 20.2885 10C20.3481 10.2786 20.2885 10.4741 20.0153 10.6948C19.7422 10.9155 18.8108 11.1921 18.6364 10.888C18.4619 10.584 19.4502 10.3563 19.2838 10.2835C18.6364 10 18.1309 9.16995 18.1309 9.16995C18.1309 9.16995 17.44 9.53865 17.0574 10C16.7428 10.3795 16.8776 10.888 16.4038 10.888C15.4968 10.888 15.0813 10.9754 15.0294 10.6948C14.9178 10.0902 16.2049 10.5373 15.9778 10.3869C15.8217 10.2835 15.8217 8.61917 15.8217 8.61917H14.8371C14.8371 8.61917 15.0478 10.5353 14.6853 10.584C13.74 10.711 14.1963 10.6965 13.4048 10.584C12.9686 10.522 14 10 14 10C14 10 13.8615 9.00859 13.4048 9.01598C12.6604 9.75645 11.499 11.1224 11.0365 11.1224C10.4747 11.1224 10.5866 11.0598 10.1663 11.0275C9.28017 10.9594 10.1663 10.2835 10.69 10.584C10.9117 10.2835 11.7005 8.07872 11.7005 8.07872C11.7005 8.07872 10.2651 9.27949 9.74891 8.80024Z" fill="#944200"/><path fill-rule="evenodd" clip-rule="evenodd" d="M10.21 6.40118C10.2319 6.40611 10.2563 6.40698 10.2804 6.40281L10.2217 6.0648L9.95498 6.0163C9.95908 5.99375 9.96636 5.96037 9.97936 5.92471M9.97936 5.92471C9.99342 5.88613 10.0116 5.85937 10.016 5.85283C10.0235 5.84183 10.0304 5.83312 10.0348 5.82784C10.0438 5.817 10.0519 5.80884 10.0577 5.80329C10.0698 5.79178 10.0815 5.78278 10.0924 5.77568C10.1149 5.76099 10.1399 5.75054 10.1663 5.74596C10.2301 5.73489 10.2941 5.73683 10.3559 5.75067L10.2913 6.03845L10.6057 6.15305C10.6083 6.14582 10.6101 6.13899 10.6101 6.13899L10.6109 6.13556L10.5488 6.47716L10.21 6.40118M9.49092 6.16513L9.27399 6.18436C9.26976 6.13659 9.27924 6.10327 9.28249 6.09275C9.28679 6.07887 9.29156 6.06935 9.29535 6.06286C9.29895 6.05667 9.30599 6.04576 9.31898 6.03235C9.32793 6.02311 9.36211 5.98874 9.42395 5.9678L9.49092 6.16513ZM9.72939 6.14399L9.93805 6.1255C9.93751 6.11941 9.93688 6.11435 9.93635 6.11066L9.93609 6.10883L9.93458 6.09987C9.93386 6.09601 9.93343 6.09429 9.93343 6.09429C9.93343 6.09429 9.93483 6.09992 9.93784 6.11022C9.9409 6.12068 9.94385 6.13078 9.94669 6.14048C9.95501 6.16888 9.96234 6.19392 9.96832 6.21491L10.1765 6.94539L9.49796 6.60406C9.50067 6.60515 9.50783 6.60765 9.51919 6.60979C9.53509 6.61277 9.58004 6.61884 9.63793 6.59923L9.54832 6.33462M9.37278 8.24641L9.47458 8.3725L9.48217 8.38154L9.48674 8.3868L9.48978 8.39034L9.49718 8.39939C9.49887 8.40154 9.50242 8.40608 9.50667 8.41201C9.50893 8.41515 9.5218 8.433 9.53383 8.45705C9.53798 8.46525 9.56047 8.50968 9.56708 8.56985C9.57058 8.60178 9.57454 8.67839 9.53056 8.76175C9.47745 8.86243 9.38538 8.91628 9.30092 8.93312C9.23148 8.94697 9.17604 8.935 9.15346 8.92925C9.12658 8.9224 9.10619 8.9136 9.09519 8.90848C9.07382 8.89855 9.05818 8.88845 9.0518 8.88423C9.06381 8.89214 9.07559 8.89789 9.08624 8.90179C9.09688 8.90569 9.10438 8.90706 9.10763 8.9075L9.1435 8.6398L8.95759 8.78991C8.95232 8.78191 8.94486 8.76981 8.93762 8.75534C8.93348 8.74715 8.91099 8.70274 8.90439 8.64259C8.90089 8.61066 8.89693 8.53405 8.94091 8.45069C8.99402 8.35002 9.08608 8.29617 9.17054 8.27933C9.17789 8.27786 9.18509 8.27669 9.19211 8.27576L9.19599 8.24669C9.20431 8.2478 9.20943 8.24829 9.21218 8.2485L9.37278 8.24641ZM8.95759 8.78991L8.95587 8.79129C8.96548 8.80319 8.97356 8.81262 8.97881 8.81866L8.98187 8.82218L8.98059 8.82066L8.97394 8.81252C8.97234 8.8105 8.96886 8.80604 8.96467 8.80019C8.96467 8.80019 8.96105 8.79517 8.95759 8.78991ZM14.8425 8.61916H15.819L15.825 8.94638C15.8281 9.11848 15.8339 9.31199 15.8433 9.50554C15.8533 9.71227 15.8627 9.8742 15.8752 10.0046L15.8967 10.2285C15.9044 10.2283 15.9121 10.2282 15.9198 10.228C16.0674 10.2246 16.1808 10.2225 16.2946 10.2217L17.2594 10.2151L16.5044 10.8159C16.4963 10.8223 16.4884 10.8287 16.4805 10.8349C16.3629 10.9286 16.271 11.0018 16.2034 11.0403C16.1611 11.0643 16.0786 11.1054 15.9707 11.0992C15.9314 11.097 15.8979 11.089 15.8714 11.0802C15.8181 11.0745 15.7547 11.0654 15.6759 11.0539C15.5938 11.0428 15.5348 11.037 15.4838 11.0347C15.4437 11.0329 15.4143 11.034 15.3973 11.0354C15.3887 11.0362 15.3867 11.0368 15.39 11.0361C15.39 11.0361 15.3971 11.0347 15.4049 11.0323C15.409 11.0311 15.4145 11.0293 15.4212 11.0268C15.4277 11.0244 15.4366 11.0207 15.4471 11.0155L15.1507 10.4184C15.1086 10.4393 15.0843 10.4644 15.076 10.4735C15.0657 10.4848 15.0598 10.4937 15.057 10.4983C15.0542 10.5029 15.0502 10.51 15.0456 10.521C15.0435 10.526 15.0389 10.5376 15.0346 10.5539C15.0324 10.5619 15.029 10.5761 15.0267 10.5943C15.0249 10.6085 15.0205 10.6467 15.0294 10.6948C15.0233 10.6616 15.0148 10.5956 15.0369 10.5185C15.0485 10.4781 15.0662 10.442 15.0882 10.4106L14.8723 10.4468L14.8924 10.0335C14.8985 9.90899 14.8996 9.76614 14.8975 9.60205C14.895 9.40412 14.8847 9.19223 14.8689 8.97696L14.8425 8.61916ZM13.3222 10.5517C13.3274 10.5559 13.3538 10.5768 13.4048 10.584L13.4391 10.3436C13.4307 10.3486 13.4239 10.3532 13.42 10.3559L13.4224 10.354C13.4243 10.3526 13.4268 10.3507 13.43 10.3482C13.4327 10.3461 13.4359 10.3436 13.4395 10.3409L13.4988 9.92397C13.6122 9.94009 13.7461 9.96229 13.8514 9.97997C13.8671 9.98261 13.8821 9.98514 13.8963 9.98753C13.9307 9.99331 13.9604 9.99832 13.9845 10.0023L14.008 10.006C14.0154 10.0053 14.0257 10.004 14.0399 10.0022L14.2394 10.627C14.1701 10.6639 14.0839 10.7124 13.9998 10.7645C13.9555 10.7919 13.9179 10.8168 13.8874 10.8384C13.8703 10.8506 13.8573 10.8606 13.8431 10.8715C13.8379 10.8756 13.8325 10.8798 13.8266 10.8842C13.8266 10.8842 13.7973 10.9074 13.7663 10.9243C13.758 10.9288 13.7309 10.9434 13.6936 10.9537C13.6748 10.9588 13.6376 10.9675 13.5899 10.9654C13.5407 10.9633 13.4595 10.9482 13.3855 10.8839C13.2344 10.7528 13.2744 10.5766 13.2784 10.5591C13.2878 10.5172 13.3034 10.4861 13.3079 10.4774C13.3048 10.4834 13.3012 10.4954 13.3019 10.5098C13.3024 10.5226 13.3059 10.5313 13.3084 10.5359C13.3105 10.5398 13.314 10.545 13.3222 10.5517ZM19.0456 10.3653C19.148 10.3423 19.2781 10.3079 19.3939 10.2675L19.7222 10.8339C19.6634 10.885 19.6028 10.921 19.5492 10.9503C19.5086 10.9726 19.3491 11.0498 19.2864 11.0801C19.2719 11.0872 19.2612 11.0924 19.2612 11.0924C19.2612 11.0924 19.2576 11.0942 19.2554 11.0953C19.2365 11.105 19.1983 11.1246 19.1619 11.1378C19.1153 11.1546 19.0147 11.1833 18.8972 11.1421C18.79 11.1045 18.7294 11.0288 18.7049 10.9961C18.6781 10.9602 18.6539 10.9186 18.6364 10.888L19.2048 10.5619C19.1858 10.5461 19.157 10.5268 19.118 10.5131C19.0516 10.4898 18.9946 10.4958 18.962 10.5031C18.9485 10.5062 18.9393 10.5094 18.9352 10.5109C18.9304 10.5126 18.9273 10.514 18.9273 10.514C18.9273 10.514 18.9283 10.5135 18.9308 10.5123C18.9363 10.5096 18.9427 10.5064 18.9539 10.5007L18.9593 10.498C18.9728 10.4911 19.0079 10.4742 19.0466 10.4554C19.0615 10.4482 19.077 10.4407 19.092 10.4334L19.0871 10.4307C19.0547 10.4129 19.0264 10.4043 19.0108 10.4003C18.9798 10.3923 18.9552 10.3908 18.9472 10.3904C18.9281 10.3895 18.9149 10.3907 18.9149 10.3907L18.9137 10.3908C18.9137 10.3908 18.9182 10.3903 18.9288 10.3886C18.9541 10.3845 18.9945 10.3767 19.0456 10.3653ZM9.83873 10.5678C9.87147 10.5046 9.92642 10.4415 10.0083 10.4013C10.0857 10.3633 10.1613 10.3584 10.2175 10.3627C10.3635 10.374 10.4732 10.3893 10.5867 10.4131L10.5884 10.4134C10.6271 10.4218 10.628 10.422 10.6602 10.4292C10.7333 10.4453 10.7897 10.4535 10.957 10.4554L11.6083 10.4625L10.8737 11.458L10.3799 11.1746C10.3753 11.1747 10.3693 11.1751 10.362 11.1761C10.3478 11.1781 10.3341 11.1818 10.3233 11.186C10.3154 11.1891 10.3119 11.1913 10.3119 11.1913L10.3141 11.1896L10.1867 11.0291C10.18 11.0285 10.1732 11.028 10.1663 11.0275C10.1717 11.0279 10.1783 11.0281 10.1859 11.0281L9.8996 10.6675C9.84096 10.714 9.81539 10.7699 9.80482 10.8027C9.79517 10.8326 9.79429 10.8544 9.79418 10.8572L9.79412 10.859C9.79412 10.859 9.79409 10.856 9.7937 10.8477C9.7937 10.8477 9.79353 10.8442 9.7934 10.8417C9.79287 10.8316 9.79196 10.814 9.79159 10.7997C9.79107 10.7798 9.79086 10.7485 9.79501 10.7135C9.79901 10.6797 9.80886 10.6254 9.83873 10.5678ZM14.691 10.5832L14.9693 10.5418L15.0314 10.7316C15.042 10.7481 15.0519 10.7666 15.0603 10.7876C15.0933 10.8698 15.0895 10.9537 15.0654 11.0222C15.0285 11.1272 14.9514 11.1787 14.9386 11.1872L14.9376 11.1878C14.8997 11.2135 14.8643 11.2253 14.8603 11.2266C14.8498 11.2302 14.841 11.2327 14.8371 11.2337C14.8289 11.2359 14.8224 11.2373 14.8201 11.2378L14.809 11.24L14.8009 11.2413L14.7898 11.243L14.5112 11.2849L14.4235 11.0173L14.4334 11.0133C14.4358 11.0206 14.4386 11.0285 14.4415 11.0358C14.4715 11.1106 14.5206 11.1558 14.5519 11.1791C14.6068 11.22 14.6604 11.2328 14.6726 11.2357C14.6926 11.2405 14.7094 11.2425 14.7173 11.2433C14.7337 11.245 14.7466 11.245 14.7511 11.245C14.7572 11.245 14.762 11.2448 14.7649 11.2447C14.7683 11.2446 14.7714 11.2444 14.7741 11.2442L14.7301 10.9167L14.4334 11.0133C14.4094 10.9384 14.4145 10.8635 14.4364 10.8012C14.4733 10.6962 14.5504 10.6447 14.5632 10.6362L14.5642 10.6356C14.6021 10.6099 14.6375 10.5982 14.6415 10.5968C14.652 10.5932 14.6607 10.5908 14.6645 10.5898C14.6727 10.5876 14.6791 10.5862 14.6812 10.5857L14.6853 10.584L14.691 10.5832Z" fill="#391800"/><path fill-rule="evenodd" clip-rule="evenodd" d="M12.5362 5.87791C12.6233 6.13297 12.6903 6.5078 12.7 6.73728C12.7064 6.88739 12.676 7.07022 12.6397 7.23648C12.6017 7.41035 12.5502 7.59648 12.4994 7.76481C12.4485 7.93385 12.3971 8.08887 12.3586 8.20144C12.3393 8.25783 12.3231 8.30382 12.3117 8.3359L12.2983 8.3732L12.2947 8.38323L12.2933 8.38696C12.2933 8.38696 12.2933 8.3871 11.9803 8.27238L12.2933 8.38696C12.23 8.55981 12.0385 8.6487 11.8656 8.58535C11.6928 8.52199 11.604 8.33053 11.6673 8.15768L11.6683 8.15516L11.6714 8.14658L11.6836 8.11243C11.6942 8.08255 11.7095 8.03911 11.7279 7.98555C11.7646 7.87823 11.8132 7.73137 11.8611 7.57241C11.9093 7.41273 11.9555 7.24474 11.9884 7.09424C12.0229 6.93613 12.0364 6.82434 12.0339 6.76548C12.0307 6.68831 12.017 6.57992 11.9967 6.46653C11.9859 6.47331 11.9747 6.4798 11.9634 6.48598C11.7977 6.57599 11.6252 6.57451 11.5004 6.55501C11.3735 6.53518 11.2617 6.49157 11.187 6.45736C11.1484 6.43963 11.1164 6.42288 11.0933 6.41013C11.0817 6.40372 11.0722 6.39823 11.0651 6.39403L11.0562 6.38868L11.0532 6.38679L11.052 6.38605C11.052 6.38605 11.051 6.38546 11.228 6.10302M11.6411 5.89905C11.6456 5.89067 11.6519 5.87564 11.6583 5.85049C11.6783 5.77174 11.7106 5.6706 11.774 5.58859C11.8081 5.54437 11.8684 5.48349 11.9626 5.45215C12.0661 5.41767 12.1659 5.43364 12.2427 5.47038C12.3649 5.52893 12.4284 5.63861 12.4526 5.68247C12.4864 5.74358 12.5139 5.81261 12.5362 5.87791M11.8686 6.00391C11.8653 5.99947 11.8638 5.99647 11.8638 5.99647C11.8638 5.99647 11.8655 5.99843 11.8686 6.00391Z" fill="#391800"/><path fill-rule="evenodd" clip-rule="evenodd" d="M17.3718 6.31852C17.5559 6.31852 17.7052 6.46776 17.7052 6.65186C17.7052 6.93079 17.5876 7.19844 17.4515 7.4208C17.3121 7.64871 17.1314 7.86411 16.9589 8.04612C16.7853 8.22939 16.6129 8.3864 16.4845 8.49724C16.42 8.55287 16.366 8.59736 16.3278 8.62826C16.3086 8.64372 16.2934 8.65581 16.2827 8.66422L16.2701 8.67404L16.2665 8.67682L16.2654 8.67766C16.2654 8.67766 16.2648 8.67814 16.062 8.41357L16.2654 8.67766C16.1193 8.78965 15.9095 8.76246 15.7975 8.61635C15.6855 8.47028 15.7131 8.26113 15.8591 8.14912M15.8591 8.14912L15.8615 8.1473L15.8708 8.14001C15.8793 8.13334 15.8922 8.12312 15.9089 8.10965C15.9422 8.08269 15.9906 8.04284 16.0489 7.9925C16.1661 7.89143 16.3211 7.7501 16.4749 7.58767C16.63 7.42398 16.7767 7.24631 16.8829 7.07285C16.9924 6.89384 17.0385 6.75182 17.0385 6.65186C17.0385 6.46776 17.1878 6.31852 17.3718 6.31852" fill="#391800"/><path fill-rule="evenodd" clip-rule="evenodd" d="M4.66654 5.68936L3.09911 6.82405L3.69391 4.98269L2.13039 3.84262L4.06542 3.83929L4.66654 2L5.26766 3.83929L7.20269 3.84262L5.63918 4.98269L6.23397 6.82405L4.66654 5.68936Z" fill="#E7413D"/><path d="M0.000183105 0H28.0002L27.489 0.5H0.499211L0.000183105 0Z" fill="#8996A2"/><path d="M0 16.0034L0.000183105 0L0.5 0.486428L0.5 16.0034H0Z" fill="#8996A2"/><path d="M27.5 16.0034V0.486428L28.0002 0L28 16.0034H27.5Z" fill="#8996A2"/></g><defs><clipPath id="clip0_1310_7988"><rect width="28" height="20" fill="#FFFFFF"/></clipPath></defs></svg>