<svg fill="none" xmlns="http://www.w3.org/2000/svg" viewBox="0 0 28 20"><g clip-path="url(#clip0_503_3685)"><path d="M0 -6.10352e-05L28 1.23531e-05C28 6.66666 28 13.3333 28 20C18.6667 20 9.33335 20 1.55568e-05 20C1.55568e-05 13.3333 0.000115822 6.66661 0 -6.10352e-05Z" fill="#FFFFFF"/><path fill-rule="evenodd" clip-rule="evenodd" d="M1.55568e-05 6.66662H28V1.23531e-05L0 -6.10352e-05L1.55568e-05 6.66662Z" fill="#FF202D"/><path d="M10.6667 5.33328L11.3333 4.66662L12 5.33328V6.66662H10.6667V5.33328Z" fill="#8B5A84"/><path d="M13.3333 5.33328L14 4.66662L14.6667 5.33328V6.66662H13.3333V5.33328Z" fill="#8B5A84"/><path d="M16.6667 4.66662L16 5.33328V6.66662H17.3334V5.33328L16.6667 4.66662Z" fill="#8B5A84"/><path d="M12.6667 4.66662L12 5.33328V6.66662H13.3333V5.33328L12.6667 4.66662Z" fill="#8C1F60"/><path d="M15.3333 4.66662L14.6667 5.33328V6.66662H16V5.33328L15.3333 4.66662Z" fill="#8C1F60"/><path fill-rule="evenodd" clip-rule="evenodd" d="M1.55568e-05 20H28V13.3333H1.55568e-05V20Z" fill="#2027AC"/><path fill-rule="evenodd" clip-rule="evenodd" d="M12 6.66662H11.3333L10.6667 7.99995H12V9.33329H10.6667V10.6666H12V12H10.6667V13.3333H12V14.6666H13.3333V13.3333H14.6667V14.6666H16V13.3333H17.3334V12H16V10.6666H17.3334V9.33329H16V7.99995H17.3334L16.6667 6.66662H16V7.99995H14.6667V6.66662H13.3333V7.99995H12V6.66662ZM13.3333 9.33329V7.99995H14.6667V9.33329H13.3333ZM13.3333 10.6666V9.33329H12V10.6666H13.3333ZM14.6667 10.6666H13.3333V12H12V13.3333H13.3333V12H14.6667V13.3333H16V12H14.6667V10.6666ZM14.6667 10.6666H16V9.33329H14.6667V10.6666Z" fill="#FF212E"/></g><defs><clipPath id="clip0_503_3685"><rect width="28" height="20" fill="#FFFFFF"/></clipPath></defs></svg>