<svg fill="none" xmlns="http://www.w3.org/2000/svg" viewBox="0 0 28 20"><g clip-path="url(#clip0_503_3405)"><path d="M6.22869e-06 0H28C27.9997 6.66667 28 13.3333 28 20C18.6667 20 9.33333 20 0 20C0 13.3333 -4.01451e-05 6.66667 6.22869e-06 0Z" fill="#FFFFFF"/><path d="M6.22869e-06 0H28L28 20H0L6.22869e-06 0Z" fill="#1537D1"/><path d="M18.6667 0H28L28 20H18.6667V0Z" fill="#EA3058"/><path fill-rule="evenodd" clip-rule="evenodd" d="M9.33333 20H18.6667V0H9.33333V20Z" fill="#FFCF3C"/><path fill-rule="evenodd" clip-rule="evenodd" d="M12.6667 8.66667H14V9.33333H12.6667V8.66667Z" fill="#FFEDB1"/><path fill-rule="evenodd" clip-rule="evenodd" d="M15.2755 8.66667H12.7245L12.8958 10.722C12.9246 11.0676 13.2135 11.3333 13.5602 11.3333H14.4398C14.7865 11.3333 15.0754 11.0676 15.1042 10.722L15.2755 8.66667ZM12.7245 8C12.3345 8 12.0278 8.33335 12.0602 8.72203L12.2314 10.7774C12.289 11.4685 12.8667 12 13.5602 12H14.4398C15.1333 12 15.711 11.4684 15.7686 10.7774L15.9398 8.72203C15.9722 8.33335 15.6655 8 15.2755 8H12.7245Z" fill="#D32E28"/><path fill-rule="evenodd" clip-rule="evenodd" d="M12.6667 9.33333L15.3333 9.33333V10H12.6667V9.33333Z" fill="#D32E28"/></g><defs><clipPath id="clip0_503_3405"><rect width="28" height="20" fill="#FFFFFF"/></clipPath></defs></svg>