<svg fill="none" xmlns="http://www.w3.org/2000/svg" viewBox="0 0 28 20"><g clip-path="url(#clip0_503_4369)"><path d="M0 0.00280793L28 0.00280793C28 6.66947 28 13.3361 28 20.0028C18.6667 20.0028 9.33333 20.0028 0 20.0028C0 13.3361 0 6.66947 0 0.00280793Z" fill="#FFFFFF"/><path d="M0 0.00280793L28 0.00280793V20.0028H0V0.00280793Z" fill="#0A17A7"/><path fill-rule="evenodd" clip-rule="evenodd" d="M6 16.3361L4.82443 16.9542L5.04894 15.6452L4.09789 14.7181L5.41222 14.5271L6 13.3361L6.58779 14.5271L7.90211 14.7181L6.95106 15.6452L7.17557 16.9542L6 16.3361Z" fill="#FFFFFF"/><path fill-rule="evenodd" clip-rule="evenodd" d="M19.9998 17.3361L19.057 17.6123L19.3332 16.6695L19.057 15.7266L19.9998 16.0028L20.9426 15.7266L20.6665 16.6695L20.9426 17.6123L19.9998 17.3361Z" fill="#FFFFFF"/><path fill-rule="evenodd" clip-rule="evenodd" d="M19.9998 4.6695L19.057 4.94564L19.3332 4.00283L19.057 3.06002L19.9998 3.33616L20.9426 3.06002L20.6665 4.00283L20.9426 4.94564L19.9998 4.6695Z" fill="#FFFFFF"/><path fill-rule="evenodd" clip-rule="evenodd" d="M23.9998 8.66949L23.057 8.94564L23.3332 8.00283L23.057 7.06002L23.9998 7.33616L24.9426 7.06002L24.6665 8.00283L24.9426 8.94564L23.9998 8.66949Z" fill="#FFFFFF"/><path fill-rule="evenodd" clip-rule="evenodd" d="M15.9998 10.0028L15.057 10.2789L15.3332 9.33614L15.057 8.39333L15.9998 8.66947L16.9426 8.39333L16.6665 9.33614L16.9426 10.2789L15.9998 10.0028Z" fill="#FFFFFF"/><path fill-rule="evenodd" clip-rule="evenodd" d="M22.0002 11.6695L21.5288 11.8076L21.6668 11.3362L21.5288 10.8648L22.0002 11.0028L22.4716 10.8648L22.3335 11.3362L22.4716 11.8076L22.0002 11.6695Z" fill="#FFFFFF"/><path d="M14.0006 0.947449L11.4314 3.10229H14.0006V6.66998H11.4319L14.0006 8.82379V10.0026H10.8044L8.78638 8.31287V10.0026H5.21497V8.31134L3.19324 10.0026H0V8.8136L2.56348 6.66998H0V3.10229H2.56714L0 0.952026V0.00280793L3.47351 0.00256348L5.21497 1.46014V0.00256348H8.78638V1.46301L10.5352 0.00256348H14.0006V0.947449Z" fill="#FFFFFF"/><path d="M8.68285 4.10227L13.571 0.00258202L12.0943 0L7.78639 3.60098V0.00445557L6.21498 0.00445554V3.60113L1.92808 0.0131366L0.426157 0.00453328L5.31826 4.10227H0.000610352V5.66998H5.31825L0.139041 10.0008L1.63907 9.9989L6.21498 6.17104V10.0004H7.78639V6.17126L12.36 10.0008L13.8503 10.0028L8.68294 5.66998H14.0006V4.10227H8.68285Z" fill="#DC1F37"/></g><defs><clipPath id="clip0_503_4369"><rect width="28" height="20" fill="#FFFFFF"/></clipPath></defs></svg>