<svg fill="none" xmlns="http://www.w3.org/2000/svg" viewBox="0 0 28 20"><g clip-path="url(#clip0_503_3612)"><path d="M-6.63863e-05 0.00280762C9.33327 0.00280762 18.6666 0.00280762 27.9999 0.00280762C27.9999 6.66947 27.9999 13.3361 27.9999 20.0028C18.6666 20.0028 9.33331 20.0028 -5.35045e-06 20.0028L-6.63863e-05 0.00280762Z" fill="#FFFFFF"/><path d="M-6.63863e-05 0.00280762H27.9999V20.0028H-5.35045e-06L-6.63863e-05 0.00280762Z" fill="#07319C"/><path fill-rule="evenodd" clip-rule="evenodd" d="M17.3333 10.0028C17.3333 8.90905 17.3333 7.61593 17.3333 6.66861C17.3333 5.93223 17.9302 5.33612 18.6666 5.33612H22.6666C23.403 5.33612 23.9999 5.93223 23.9999 6.66861C23.9999 7.61593 23.9999 8.90905 23.9999 10.0028C23.9999 13.3361 20.6666 14.6695 20.6666 14.6695C20.6666 14.6695 17.3333 13.3361 17.3333 10.0028Z" fill="#0072C4"/><path d="M17.5624 11.4533C17.4858 11.2217 17.4257 10.9763 17.3863 10.7166C17.6547 10.7894 17.9239 10.8596 18.1519 10.9136C18.2825 10.9446 18.3968 10.9696 18.488 10.9866C18.5337 10.9952 18.5714 11.0013 18.6011 11.0052C18.6159 11.0071 18.6277 11.0084 18.6367 11.0091L18.6401 11.0093C18.6517 11.0076 18.6686 11.0048 18.6913 11.0007C18.7394 10.992 18.8048 10.9794 18.8846 10.9636L19.0509 10.9305C19.1778 10.9051 19.3226 10.8762 19.4711 10.8475C19.8931 10.766 20.4078 10.673 20.6677 10.673C20.7371 10.673 20.8907 10.692 21.0514 10.7138C21.2262 10.7374 21.4466 10.77 21.6736 10.8057C22.1193 10.876 22.6173 10.9628 22.8361 11.0212L22.8346 11.0208C22.8325 11.0203 22.8315 11.0199 22.8315 11.0199C22.8315 11.0199 22.8329 11.0197 22.8358 11.0198C22.8464 11.0199 22.8775 11.0204 22.9372 11.0136C23.0187 11.0043 23.1241 10.9852 23.2489 10.9574C23.4538 10.9117 23.6943 10.8462 23.9378 10.7743C23.8943 11.0378 23.8296 11.2864 23.7479 11.5206C23.6251 11.5534 23.5056 11.5832 23.394 11.6081C23.2578 11.6384 23.1271 11.6629 23.0129 11.6759C22.9112 11.6876 22.779 11.696 22.6639 11.6653C22.4856 11.6176 22.0248 11.536 21.5698 11.4643C21.3464 11.4291 21.1309 11.3973 20.9619 11.3744C20.8773 11.3629 20.8056 11.3539 20.751 11.3477C20.6991 11.3419 20.6746 11.3402 20.6689 11.3398L20.6677 11.3397C20.4871 11.3397 20.0471 11.4152 19.5976 11.5021C19.4511 11.5304 19.3104 11.5585 19.1846 11.5836L19.0139 11.6176C18.9339 11.6334 18.8635 11.6471 18.809 11.6569C18.782 11.6617 18.7565 11.666 18.7347 11.6693C18.7199 11.6714 18.6849 11.6766 18.6507 11.6766C18.5688 11.6766 18.4644 11.6604 18.3657 11.642C18.2596 11.6222 18.1339 11.5945 17.9981 11.5623C17.8629 11.5303 17.715 11.493 17.5624 11.4533Z" fill="#FFFFFF"/><path d="M22.1999 13.4028C22.1999 13.8998 21.5284 14.3028 20.6999 14.3028C19.8715 14.3028 19.1999 13.8998 19.1999 13.4028C19.1999 12.9057 19.8715 12.5028 20.6999 12.5028C21.5284 12.5028 22.1999 12.9057 22.1999 13.4028Z" fill="#FFFFFF"/><path fill-rule="evenodd" clip-rule="evenodd" d="M18.8691 9.27047C18.1859 9.96054 19.5248 9.87302 19.5248 9.87302L20.4784 9.56769C20.4784 9.56769 20.9071 9.61956 21.1965 9.7068C21.3882 9.76459 21.9217 10.0028 21.9217 10.0028C21.9217 10.0028 23.0484 9.77785 22.6523 9.27047C22.2561 8.7631 19.5522 8.58041 18.8691 9.27047Z" fill="#005121"/><path d="M17.3332 9.36884L17.3333 10.0028C17.3333 10.0218 17.3334 10.0407 17.3336 10.0595C17.5654 10.1216 17.796 10.1811 17.9981 10.229C18.1339 10.2611 18.2596 10.2888 18.3657 10.3086C18.4644 10.327 18.5688 10.3432 18.6507 10.3432C18.6849 10.3432 18.7199 10.3381 18.7347 10.3359C18.7565 10.3327 18.782 10.3284 18.809 10.3235C18.8635 10.3137 18.9339 10.3001 19.0139 10.2843L19.1845 10.2503C19.3103 10.2252 19.4511 10.197 19.5976 10.1687C20.0471 10.0818 20.4871 10.0063 20.6677 10.0063L20.6689 10.0064C20.6746 10.0068 20.6991 10.0086 20.751 10.0144C20.8056 10.0205 20.8773 10.0296 20.9619 10.041C21.1309 10.0639 21.3464 10.0957 21.5698 10.1309C22.0248 10.2026 22.4856 10.2843 22.6639 10.3319C22.779 10.3627 22.9112 10.3542 23.0129 10.3426C23.1271 10.3296 23.2578 10.3051 23.394 10.2747C23.5806 10.2331 23.7891 10.1778 23.9986 10.1176C23.9995 10.0796 23.9999 10.0413 23.9999 10.0028L23.9999 9.42245C23.7355 9.50156 23.4712 9.57447 23.2489 9.62404C23.1241 9.65187 23.0187 9.67092 22.9372 9.68023C22.8775 9.68705 22.8464 9.68657 22.8358 9.68641C22.8329 9.68636 22.8315 9.6865 22.8315 9.6865C22.8315 9.6865 22.8325 9.68693 22.8346 9.68748L22.8361 9.68786C22.6173 9.62939 22.1193 9.54261 21.6736 9.47238C21.4466 9.43662 21.2262 9.40408 21.0514 9.3804C20.8907 9.35862 20.7371 9.33966 20.6677 9.33966C20.4078 9.33966 19.8931 9.43261 19.4711 9.51417C19.3226 9.54287 19.1778 9.57178 19.0509 9.59713L18.8846 9.63025C18.8048 9.64602 18.7394 9.65868 18.6913 9.66733C18.6686 9.67139 18.6517 9.67421 18.6401 9.67597L18.6367 9.67575C18.6277 9.67501 18.6159 9.67376 18.6011 9.67182C18.5714 9.66792 18.5337 9.66179 18.488 9.65327C18.3968 9.63623 18.2825 9.61125 18.1519 9.58027C17.9089 9.52267 17.619 9.4467 17.3332 9.36884Z" fill="#FFFFFF"/><path d="M21.8251 8.57789C21.8013 8.54881 21.7373 8.54741 21.7099 8.55363C21.7087 8.58722 21.7057 8.62718 21.7026 8.66845C21.6957 8.7601 21.6883 8.85817 21.6992 8.90703C21.7149 8.97789 21.6874 9.00316 21.6243 9.00316C21.5613 9.00316 21.5062 8.99643 21.5062 8.96938C21.5062 8.94515 21.5135 8.91259 21.5206 8.88071C21.5264 8.85477 21.5321 8.82929 21.5337 8.80912C21.5346 8.79792 21.5364 8.77973 21.5386 8.75758C21.5441 8.7014 21.5522 8.6198 21.5534 8.56252C21.538 8.56138 21.524 8.56341 21.5121 8.57281C21.4909 8.58939 21.4649 8.58488 21.4383 8.58026C21.408 8.575 21.3768 8.56958 21.3506 8.59478C21.3241 8.62013 21.2722 8.61581 21.2245 8.61185C21.1834 8.60844 21.1455 8.60529 21.13 8.6217C21.1135 8.6392 21.0859 8.63941 21.0567 8.63962C21.0268 8.63985 20.9953 8.64008 20.9724 8.6589C20.9491 8.67802 20.9189 8.67337 20.8876 8.66854C20.8582 8.66401 20.8278 8.65932 20.8011 8.67401C20.772 8.69006 20.7395 8.68349 20.7061 8.67672C20.6763 8.67069 20.6458 8.6645 20.6161 8.67401C20.5668 8.68989 20.488 8.65382 20.4388 8.6302C20.3896 8.60646 20.3205 8.58792 20.2891 8.63528C20.2576 8.68239 20.1749 8.73306 20.1158 8.75503C20.0324 8.78607 20.0509 8.8393 20.0717 8.89894C20.0814 8.92665 20.0915 8.95573 20.0921 8.98462C20.0961 9.16862 20.0961 9.20912 20.0528 9.22436C20.0094 9.23947 19.9032 9.24112 19.8992 9.22436C19.8983 9.21374 19.8969 9.20184 19.8955 9.18927C19.8908 9.1479 19.8853 9.09933 19.8912 9.06563C19.8986 9.02451 19.9006 8.95721 19.9023 8.8976C19.9024 8.89224 19.9026 8.88694 19.9027 8.88174C19.9034 8.85918 19.9041 8.83824 19.9051 8.82093C19.9075 8.7803 19.8555 8.74347 19.8008 8.71719C19.7968 8.82525 19.8007 8.99808 19.8164 9.06906C19.8323 9.13992 19.8045 9.16519 19.7417 9.16519C19.6786 9.16519 19.6235 9.15846 19.6235 9.13154C19.6235 9.1072 19.6308 9.07449 19.638 9.04254C19.6438 9.01663 19.6495 8.99122 19.6511 8.97116L19.6525 8.953C19.6582 8.88414 19.6718 8.71688 19.6647 8.66792L19.6581 8.66529C19.6225 8.65117 19.5884 8.63764 19.5269 8.64697C19.476 8.65477 19.4446 8.63802 19.4111 8.62012C19.3862 8.60685 19.3602 8.59294 19.3241 8.58792C19.2807 8.58185 19.272 8.56466 19.2629 8.54663C19.2543 8.52955 19.2453 8.5117 19.206 8.50182C19.1578 8.48977 19.1475 8.46142 19.1378 8.4348C19.1312 8.41684 19.1249 8.39966 19.1075 8.38881C19.0822 8.37302 19.0776 8.34699 19.0729 8.31989C19.0677 8.29074 19.0624 8.26038 19.0308 8.24024C18.9869 8.21243 18.9874 8.11528 19.017 8.0377C19.0344 7.99178 19.034 7.95472 19.0336 7.92019C19.0333 7.89636 19.033 7.87375 19.0386 7.85027C19.0449 7.82438 19.037 7.80292 19.0291 7.78126C19.0195 7.75501 19.0097 7.72845 19.0248 7.69332C19.0435 7.64976 19.0111 7.57344 18.9894 7.54817C18.9677 7.5229 18.95 7.49585 18.9579 7.47058C18.9742 7.41827 18.8791 7.40138 18.8121 7.43338C18.7716 7.45282 18.7404 7.4438 18.717 7.437C18.7016 7.43256 18.6896 7.42906 18.6803 7.43503C18.6229 7.47186 18.5677 7.46182 18.562 7.4283C18.558 7.40468 18.5364 7.38779 18.5226 7.37763C18.5201 7.37579 18.5165 7.37366 18.5125 7.37128C18.4947 7.36073 18.4687 7.34532 18.4912 7.32874C18.5068 7.31729 18.5054 7.29874 18.5037 7.27744C18.5024 7.26117 18.501 7.2433 18.5069 7.22576C18.5207 7.18525 18.5936 7.16163 18.6663 7.14804C18.7017 7.14152 18.7315 7.11598 18.7624 7.08946C18.7953 7.06125 18.8295 7.03192 18.8731 7.02322C18.9183 7.0142 18.9165 6.98614 18.9146 6.95909C18.9074 6.86081 18.9954 6.79871 19.0405 6.82398C19.0662 6.78182 19.1725 6.77001 19.206 6.80887C19.2217 6.77839 19.2848 6.77001 19.3163 6.80887C19.3656 6.77674 19.462 6.81725 19.4542 6.86957C19.5231 6.86792 19.5644 6.9017 19.5585 6.94385C19.596 6.93712 19.6373 6.95566 19.6411 6.98106C19.7161 6.97598 19.7494 6.98106 19.7771 7.02322C19.7903 7.0434 19.8176 7.04409 19.8443 7.04476C19.8735 7.0455 19.9021 7.04622 19.9111 7.07211C19.9247 7.11154 19.9464 7.11852 19.9674 7.12528C19.9859 7.13125 20.004 7.13705 20.0154 7.16493C20.0291 7.19871 20.045 7.20722 20.0725 7.20557L20.0774 7.20526C20.1022 7.20366 20.1192 7.20257 20.1474 7.22919C20.1847 7.26462 20.256 7.28341 20.3186 7.273C20.5019 7.24265 20.7342 7.25624 20.8325 7.2697C20.9311 7.28316 21.254 7.26284 21.4274 7.24265C21.6007 7.22233 21.8468 7.19909 21.9788 7.24938C21.9897 7.25354 22.0018 7.25794 22.0148 7.26266C22.0864 7.28863 22.1851 7.32442 22.2583 7.38449C22.345 7.45535 22.3687 7.5803 22.3411 7.62411C22.3624 7.6457 22.357 7.66484 22.3512 7.68554C22.3452 7.70695 22.3388 7.73003 22.3608 7.75922C22.3835 7.78933 22.3716 7.8157 22.3602 7.84081C22.3499 7.86356 22.34 7.88527 22.3568 7.90779C22.3746 7.93139 22.3627 7.95505 22.3504 7.97957C22.3381 8.004 22.3254 8.0293 22.3411 8.05624C22.3561 8.08208 22.346 8.09633 22.3352 8.11154C22.3234 8.12816 22.3108 8.14591 22.3293 8.18119C22.3492 8.21916 22.3305 8.24755 22.3117 8.27594C22.2971 8.29797 22.2825 8.32001 22.286 8.34652C22.2902 8.37897 22.2697 8.3999 22.2515 8.41851C22.2356 8.43478 22.2214 8.44928 22.2269 8.46817C22.2388 8.50855 22.2072 8.5356 22.1718 8.56595C22.1865 8.74556 22.2233 8.83302 22.2485 8.89302C22.2638 8.92944 22.2749 8.95575 22.2742 8.98639C22.2714 9.10284 22.1816 9.10792 22.1165 9.10957C22.0626 9.11097 22.0536 9.10284 22.0517 9.05039C22.051 9.03261 22.0526 8.98178 22.0543 8.9284C22.0545 8.92232 22.0547 8.91607 22.0549 8.90996C22.0563 8.8672 22.0576 8.82504 22.0576 8.79897C22.0576 8.7444 22.0245 8.70659 21.9912 8.66861L21.9768 8.65205C21.9583 8.6304 21.9302 8.62314 21.902 8.61585C21.8731 8.60838 21.8441 8.60089 21.8251 8.57789Z" fill="#A3A3A3"/><path fill-rule="evenodd" clip-rule="evenodd" d="M19.1567 7.52964C19.1212 7.5431 19.1331 7.58361 19.1647 7.6005C19.1962 7.61738 19.267 7.62411 19.3124 7.61573C19.3575 7.60723 19.3675 7.62081 19.338 7.6377C19.3084 7.65446 19.3832 7.65789 19.3772 7.68494C19.3715 7.71186 19.4048 7.70678 19.4364 7.70513C19.4679 7.70348 19.5092 7.68316 19.5447 7.66462C19.5801 7.64608 19.6057 7.65954 19.5722 7.69167C19.5389 7.72367 19.4266 7.76431 19.338 7.75923C19.2492 7.75415 19.202 7.77434 19.2217 7.80304C19.2414 7.83173 19.3359 7.83681 19.3851 7.82157C19.4344 7.80646 19.4266 7.83351 19.3891 7.85192C19.3516 7.87059 19.2984 7.87224 19.2532 7.87059C19.2079 7.86894 19.1685 7.9078 19.2276 7.92964C19.2867 7.95161 19.3655 7.93815 19.395 7.95669C19.4247 7.97522 19.5152 7.94653 19.5171 7.97865C19.519 8.01065 19.4915 8.02246 19.4383 8.01916C19.3851 8.01573 19.4008 8.03973 19.4404 8.05281C19.4758 8.06475 19.5389 8.06475 19.5722 8.06132C19.6057 8.05802 19.5959 8.09167 19.5624 8.10348C19.529 8.11529 19.4207 8.13218 19.3675 8.13053C19.3143 8.12888 19.3398 8.16265 19.4088 8.16265C19.6195 8.16265 19.6904 8.06297 19.7436 7.99377C19.7697 7.95986 19.8204 7.94145 19.8322 7.96176C19.8441 7.98195 19.846 7.98704 19.8224 8.00392C19.7987 8.02081 19.8045 8.03097 19.8479 8.03262C19.8912 8.03427 19.9543 8.02246 19.9918 8.01243C20.0291 8.00227 20.1393 8.06615 20.0488 8.06805C19.8892 8.07148 19.6924 8.12888 19.6275 8.1525C19.5624 8.17612 19.454 8.22056 19.3872 8.21827C19.338 8.21662 19.3181 8.23516 19.338 8.25713C19.3575 8.2791 19.4207 8.2791 19.4561 8.26894C19.4915 8.25878 19.4993 8.26894 19.4758 8.28913C19.4522 8.30945 19.3931 8.31783 19.3516 8.32469C19.3104 8.33142 19.29 8.35783 19.3221 8.3685C19.3832 8.38881 19.3281 8.40735 19.3715 8.41751C19.4147 8.42767 19.3675 8.45967 19.4147 8.46983C19.462 8.47999 19.4895 8.47491 19.525 8.45129C19.5605 8.42767 19.5801 8.41408 19.6175 8.41751C19.655 8.42094 19.6807 8.40392 19.7023 8.37865C19.7239 8.35338 19.7968 8.3078 19.8204 8.32977C19.8441 8.35173 19.8932 8.3111 19.9032 8.33307C19.913 8.35503 19.9543 8.34158 19.9642 8.37192C19.975 8.4057 20.0212 8.41243 20.0528 8.40062C20.0842 8.38881 20.1098 8.36012 20.1098 8.31783C20.1098 8.27567 20.1217 8.25878 20.1335 8.30437C20.1452 8.34996 20.1887 8.36342 20.2103 8.34158C20.2319 8.31961 20.2398 8.24367 20.2241 8.20824C20.2084 8.17269 20.2063 8.1271 20.2221 8.11872C20.2378 8.11034 20.2753 8.18792 20.291 8.2217C20.3069 8.25548 20.3481 8.24532 20.3501 8.21154C20.3521 8.17777 20.3895 8.16088 20.4171 8.18627C20.4447 8.21154 20.429 8.29599 20.4368 8.3365C20.4447 8.377 20.5214 8.32634 20.5294 8.3398C20.5372 8.35338 20.5667 8.35669 20.5786 8.32799C20.5904 8.29929 20.618 8.27402 20.6337 8.29091C20.6495 8.3078 20.6731 8.3365 20.6829 8.3685C20.6928 8.40062 20.7282 8.41751 20.7498 8.38373C20.7715 8.34996 20.7873 8.28418 20.7795 8.23846C20.7715 8.193 20.7854 8.16431 20.805 8.18792C20.8247 8.21154 20.8227 8.27567 20.8247 8.32799C20.8267 8.38031 20.8916 8.37535 20.8916 8.29764C20.8916 8.26221 20.9113 8.25548 20.9172 8.27567C20.9232 8.29599 20.9232 8.32977 20.9291 8.34488C20.9436 8.38234 20.9941 8.36177 20.9999 8.3365C21.0058 8.3111 20.9961 8.21992 20.9842 8.17954C20.9724 8.13891 20.9961 8.11034 21.0158 8.13218C21.0355 8.15415 21.0393 8.21154 21.0433 8.27567C21.0472 8.3398 21.0885 8.34323 21.1103 8.32469C21.1319 8.30602 21.1319 8.25205 21.1221 8.21319C21.1122 8.17446 21.1438 8.17447 21.1575 8.19808C21.1713 8.2217 21.195 8.20646 21.191 8.18792C21.1872 8.16938 21.2067 8.1525 21.2264 8.17777C21.2461 8.20316 21.2402 8.26056 21.2304 8.30602C21.2205 8.35173 21.2796 8.34653 21.3072 8.3078C21.3347 8.26894 21.321 8.16266 21.2974 8.12888C21.2737 8.0951 21.2758 8.05116 21.2894 8.01243C21.3033 7.97358 21.329 7.9718 21.3309 7.98881C21.3328 8.00557 21.3447 8.03427 21.3663 8.05624C21.3879 8.07821 21.3998 8.08164 21.4036 8.04773C21.4076 8.01408 21.4273 8.02246 21.4352 8.04773C21.4432 8.07313 21.4568 8.09332 21.4765 8.07148C21.4962 8.04951 21.5218 8.0664 21.5061 8.10018C21.4903 8.13396 21.4903 8.16431 21.5021 8.19808C21.514 8.23186 21.5553 8.22678 21.5593 8.18792C21.5675 8.10716 21.579 8.16088 21.5888 8.19631C21.5986 8.23186 21.6282 8.23008 21.6341 8.20989C21.6401 8.18958 21.646 8.18462 21.646 8.20646C21.646 8.22843 21.6558 8.24697 21.6814 8.24697C21.707 8.24697 21.7011 8.20316 21.7128 8.17612C21.7247 8.14907 21.7463 8.18627 21.7759 8.24862C21.8054 8.3111 21.827 8.25205 21.8961 8.39389C21.9242 8.45167 21.965 8.40227 21.963 8.38208C21.961 8.36177 21.9669 8.34831 22.0004 8.34831C22.0338 8.34831 22.0614 8.34157 22.0497 8.31961C22.0378 8.29764 22.0457 8.25713 22.0438 8.21154C22.0418 8.16596 22.0476 8.14069 22.0535 8.16596C22.0595 8.19123 22.0792 8.22678 22.1106 8.24532C22.1421 8.26386 22.1638 8.21319 22.1381 8.18119C22.1127 8.14907 22.0772 8.07313 22.0792 8.009C22.0807 7.96177 22.1027 7.97688 22.1027 8.01065C22.1027 8.04443 22.1224 8.10526 22.1521 8.11872C22.1815 8.13218 22.1934 8.0697 22.1796 8.0377C22.1658 8.00558 22.158 7.96177 22.1875 7.95326C22.217 7.94488 22.1796 7.90945 22.154 7.88405C22.1284 7.85878 22.1127 7.83351 22.158 7.83516C22.2032 7.83681 22.1658 7.80812 22.1441 7.78958C22.1224 7.77104 22.0851 7.73383 22.1441 7.73891C22.2032 7.74399 22.1836 7.71364 22.1599 7.69675C22.1362 7.67986 22.1224 7.64773 22.1638 7.64951C22.2052 7.65116 22.2307 7.63084 22.2269 7.61573C22.2118 7.55719 22.1127 7.48913 22.0516 7.43681C21.9906 7.3845 21.8921 7.33218 21.8389 7.32367C21.7857 7.31516 21.7838 7.34907 21.7975 7.36926C21.8113 7.38945 21.8389 7.40304 21.8429 7.38272C21.8467 7.36253 21.8881 7.3845 21.9078 7.41142C21.9275 7.43846 21.9944 7.47224 22.0359 7.50259C22.0772 7.53294 21.9807 7.51783 21.9334 7.47732C21.9064 7.45408 21.9097 7.48227 21.9452 7.5144C21.9807 7.54653 21.9353 7.55999 21.898 7.53294C21.8605 7.50602 21.7641 7.43008 21.703 7.38107C21.642 7.33218 21.6321 7.34399 21.6301 7.37599C21.6282 7.40811 21.6498 7.43008 21.6892 7.457C21.7287 7.48405 21.7778 7.52621 21.8153 7.55491C21.8527 7.58361 21.8212 7.60215 21.7975 7.58183C21.7738 7.56164 21.6932 7.50602 21.646 7.46716C21.5986 7.42831 21.5553 7.40977 21.5258 7.41484C21.4962 7.41992 21.4983 7.44862 21.5337 7.47897C21.5691 7.50932 21.6125 7.56672 21.6125 7.6005C21.6125 7.63427 21.581 7.65789 21.5651 7.59719C21.5494 7.53637 21.4746 7.46551 21.4195 7.41142C21.3644 7.35745 21.3091 7.34729 21.2678 7.35072C21.2264 7.35402 21.2284 7.39453 21.2284 7.42665C21.2284 7.45865 21.2008 7.44011 21.1989 7.4165C21.197 7.39288 21.1654 7.37269 21.1476 7.37434C21.13 7.37599 21.1359 7.425 21.13 7.44697C21.1241 7.46881 21.0965 7.48913 21.0965 7.43846C21.0965 7.3878 21.0315 7.36253 21.0039 7.36075C20.9764 7.3591 20.9507 7.36926 20.9645 7.39123C20.9783 7.41307 20.9724 7.47224 20.9626 7.50602C20.9527 7.53967 20.9232 7.48062 20.9172 7.41815C20.9113 7.3558 20.8189 7.31186 20.7538 7.3304C20.6888 7.34907 20.7381 7.38945 20.7263 7.42831C20.7144 7.46716 20.6967 7.43173 20.6907 7.39123C20.685 7.35072 20.6534 7.32532 20.6101 7.33548C20.5667 7.34564 20.5372 7.36583 20.5392 7.39288C20.5411 7.41992 20.5411 7.44354 20.5313 7.48735C20.5214 7.53129 20.5038 7.50932 20.5057 7.48062C20.5078 7.45192 20.4978 7.40469 20.4879 7.37764C20.4781 7.35072 20.4623 7.37599 20.4663 7.40977C20.4703 7.44354 20.4604 7.52113 20.4447 7.5685C20.429 7.61573 20.4052 7.61738 20.4171 7.55326C20.429 7.48913 20.3993 7.39453 20.3698 7.35072C20.3487 7.31935 20.301 7.30856 20.301 7.35237C20.301 7.39631 20.3147 7.4283 20.3501 7.46043C20.3855 7.49243 20.358 7.5718 20.3226 7.61408C20.287 7.65624 20.2891 7.59542 20.301 7.54983C20.3127 7.50424 20.2478 7.48913 20.2221 7.48062C20.1965 7.47224 20.2497 7.42665 20.2615 7.36583C20.2673 7.33586 20.2595 7.31694 20.2359 7.31516C20.2122 7.31351 20.1492 7.37091 20.1217 7.41307C20.1295 7.36926 20.1217 7.3304 20.098 7.3304C20.0744 7.3304 20.0488 7.37269 20.0312 7.40304C20.0134 7.43338 19.9956 7.4165 20.0134 7.3845C20.0312 7.35237 20.0586 7.26627 20.0232 7.24773C19.9878 7.22919 19.9562 7.30513 19.9189 7.29154C19.8977 7.28392 19.9267 7.23592 19.9386 7.21396C19.9503 7.19199 19.9267 7.1751 19.8735 7.21561C19.8204 7.25624 19.7968 7.32202 19.7829 7.36253C19.7692 7.40304 19.6747 7.46881 19.6235 7.50424C19.5722 7.53967 19.5506 7.52621 19.5762 7.51097C19.6018 7.49586 19.653 7.44862 19.6786 7.43008C19.7042 7.41142 19.6924 7.4005 19.6432 7.4325C19.594 7.46462 19.5044 7.52291 19.4127 7.5431C19.3589 7.55504 19.3516 7.54488 19.4048 7.52964C19.458 7.5144 19.5801 7.44177 19.6097 7.40811C19.6282 7.38691 19.5801 7.40469 19.5565 7.40977C19.533 7.41484 19.5133 7.40811 19.5605 7.39123C19.6076 7.37434 19.7574 7.241 19.789 7.19199C19.8204 7.1431 19.7928 7.12443 19.7731 7.12621C19.7534 7.12786 19.7258 7.13967 19.7318 7.11948C19.7377 7.09916 19.7239 7.07211 19.6983 7.08062C19.6727 7.089 19.6747 7.13802 19.6648 7.16494C19.655 7.19199 19.5998 7.22754 19.5644 7.22754C19.529 7.22754 19.4798 7.23427 19.4423 7.25954C19.4048 7.28481 19.3872 7.26119 19.4048 7.241C19.4226 7.22069 19.462 7.21561 19.5014 7.21396C19.5408 7.21231 19.5841 7.20723 19.6175 7.1751C19.651 7.1431 19.653 7.1177 19.6275 7.11605C19.6018 7.1144 19.5584 7.0857 19.5447 7.07389C19.4747 7.01383 19.3466 7.09751 19.2965 7.1464C19.269 7.17345 19.1744 7.25116 19.145 7.27135C19.1153 7.29154 19.1272 7.32024 19.1764 7.28151C19.2257 7.24265 19.2414 7.2697 19.1962 7.2984C19.1507 7.3271 19.1174 7.36926 19.1331 7.3845C19.1488 7.39961 19.2098 7.38107 19.2433 7.36253C19.2768 7.34399 19.2927 7.38945 19.2098 7.40469C19.1543 7.41497 19.1349 7.43453 19.1784 7.43681C19.2119 7.43846 19.263 7.425 19.3104 7.40138C19.3575 7.37764 19.395 7.39123 19.3556 7.41484C19.3162 7.43846 19.2295 7.47059 19.1863 7.47059C19.15 7.47059 19.1922 7.51618 19.1567 7.52964Z" fill="#FFFFFF"/><path fill-rule="evenodd" clip-rule="evenodd" d="M17.9999 10.0028C17.9999 11.4215 18.7022 12.4213 19.4459 13.0906C19.8182 13.4257 20.1929 13.6695 20.4744 13.829C20.5454 13.8693 20.61 13.9039 20.6666 13.933C20.7232 13.9039 20.7878 13.8693 20.8587 13.829C21.1403 13.6695 21.5149 13.4257 21.8873 13.0906C22.6309 12.4213 23.3332 11.4215 23.3332 10.0028V6.66862C23.3332 6.30098 23.0353 6.0028 22.6666 6.0028H18.6666C18.2978 6.0028 17.9999 6.30098 17.9999 6.66862V10.0028ZM17.3333 6.66861V10.0028C17.3333 13.3361 20.6666 14.6695 20.6666 14.6695C20.6666 14.6695 23.9999 13.3361 23.9999 10.0028V6.66861C23.9999 5.93223 23.403 5.33612 22.6666 5.33612H18.6666C17.9302 5.33612 17.3333 5.93223 17.3333 6.66861Z" fill="#FFFFFF"/><path d="M13.9999 0.947449L11.4307 3.10229H13.9999V6.66998H11.4312L13.9999 8.82379V10.0026H10.8037L8.78564 8.31287V10.0026H5.21423V8.31134L3.1925 10.0026H-0.000732422V8.8136L2.56274 6.66998H-0.000732422V3.10229H2.56641L-0.000732422 0.952026L-6.63863e-05 0.00280762L3.47278 0.00256348L5.21423 1.46014V0.00256348H8.78564V1.46301L10.5344 0.00256348H13.9999V0.947449Z" fill="#FFFFFF"/><path d="M8.68212 4.10227L13.5702 0.00258202L12.0935 0L7.78566 3.60098V0.00445557L6.21425 0.00445554V3.60113L1.92735 0.0131366L0.425424 0.00453328L5.31753 4.10227H-0.00012207V5.66998H5.31752L0.138309 10.0008L1.63834 9.9989L6.21425 6.17104V10.0004H7.78566V6.17126L12.3593 10.0008L13.8495 10.0028L8.68221 5.66998H13.9999V4.10227H8.68212Z" fill="#DC1F37"/></g><defs><clipPath id="clip0_503_3612"><rect width="28" height="20" fill="#FFFFFF"/></clipPath></defs></svg>