<svg fill="none" xmlns="http://www.w3.org/2000/svg" viewBox="0 0 28 20"><g clip-path="url(#clip0_503_3913)"><path d="M0 0C9.33333 2.29872e-05 18.6667 2.20537e-06 28 2.20537e-06C28 6.66667 28 13.3333 28 20C18.6667 20 9.33333 20 1.64472e-06 20L0 0Z" fill="#FFFFFF"/><path d="M0 0L28 2.20537e-06V20H1.64472e-06L0 0Z" fill="#65C6EE"/><path fill-rule="evenodd" clip-rule="evenodd" d="M12.6667 16C15.9804 16 18.6667 13.3137 18.6667 10C18.6667 6.6863 15.9804 4 12.6667 4C9.35296 4 6.66667 6.6863 6.66667 10C6.66667 13.3137 9.35296 16 12.6667 16Z" fill="#FFE044"/></g><defs><clipPath id="clip0_503_3913"><rect width="28" height="20" fill="#FFFFFF"/></clipPath></defs></svg>