<svg fill="none" xmlns="http://www.w3.org/2000/svg" viewBox="0 0 28 20"><g clip-path="url(#clip0_1310_7860)"><path d="M0 0H28V20H0V0Z" fill="#FDD650"/><path d="M0 -0.00280762H14.0006V9.99976H0V-0.00280762Z" fill="#07319C"/><path d="M14.0006 0.944641L11.4314 3.09949H14.0006V6.66718H11.4319L14.0006 8.82098V9.99976H10.8044L8.78638 8.31006V9.99976H5.21497V8.30853L3.19324 9.99976H0V8.81079L2.56348 6.66718H0V3.09949H2.56714L0 0.949219V0L3.47351 -0.000244141L5.21497 1.45734V-0.000244141H8.78638V1.46021L10.5352 -0.000244141H14.0006V0.944641Z" fill="#FFFFFF"/><path d="M8.68285 4.09947L13.571 -0.0002256L12.0943 -0.00280762L7.78639 3.59817V0.00164795L6.21498 0.00164792V3.59832L1.92808 0.010329L0.426157 0.00172566L5.31826 4.09947H0.000610352V5.66717H5.31825L0.139041 9.99804L1.63907 9.99609L6.21498 6.16823V9.9976H7.78639V6.16845L12.36 9.99804L13.8503 9.99999L8.68294 5.66717H14.0006V4.09947H8.68285Z" fill="#DC1F37"/><path d="M8.33252 4.92175C8.33252 5.65755 7.73604 6.25403 7.00024 6.25403C6.26445 6.25403 5.66797 5.65755 5.66797 4.92175C5.66797 4.18596 6.26445 3.58948 7.00024 3.58948C7.73604 3.58948 8.33252 4.18596 8.33252 4.92175Z" fill="#053C8A"/><path d="M7.80032 4.92177C7.80032 5.36359 7.44215 5.72177 7.00032 5.72177C6.55849 5.72177 6.20032 5.36359 6.20032 4.92177C6.20032 4.47994 6.55849 4.12177 7.00032 4.12177C7.44215 4.12177 7.80032 4.47994 7.80032 4.92177Z" fill="#FDD650"/><path d="M4.80273 4.92175C4.80273 5.36469 4.44367 5.72375 4.00073 5.72375C3.5578 5.72375 3.19873 5.36469 3.19873 4.92175C3.19873 4.47882 3.5578 4.11975 4.00073 4.11975C4.44367 4.11975 4.80273 4.47882 4.80273 4.92175Z" fill="#FDD650"/><path d="M10.8019 4.92175C10.8019 5.36469 10.4429 5.72375 9.99992 5.72375C9.55699 5.72375 9.19792 5.36469 9.19792 4.92175C9.19792 4.47882 9.55699 4.11975 9.99992 4.11975C10.4429 4.11975 10.8019 4.47882 10.8019 4.92175Z" fill="#FDD650"/><path d="M7.80032 2.38197C7.80032 2.8238 7.44215 3.18197 7.00032 3.18197C6.55849 3.18197 6.20032 2.8238 6.20032 2.38197C6.20032 1.94014 6.55849 1.58197 7.00032 1.58197C7.44215 1.58197 7.80032 1.94014 7.80032 2.38197Z" fill="#FDD650"/><path d="M7.80032 7.61757C7.80032 8.05939 7.44215 8.41757 7.00032 8.41757C6.55849 8.41757 6.20032 8.05939 6.20032 7.61757C6.20032 7.17574 6.55849 6.81757 7.00032 6.81757C7.44215 6.81757 7.80032 7.17574 7.80032 7.61757Z" fill="#FDD650"/></g><defs><clipPath id="clip0_1310_7860"><rect width="28" height="20" fill="#FFFFFF"/></clipPath></defs></svg>