<svg fill="none" xmlns="http://www.w3.org/2000/svg" viewBox="0 0 28 20"><g clip-path="url(#clip0_1310_7890)"><path d="M28.0002 0H0.000162721V20H28.0002V0Z" fill="#FFFFFF"/><path d="M28.0002 0H0.000162721V20H28.0002V0Z" fill="#07319C"/><path d="M17.3333 12.6667V8.67953C17.3333 8.30424 17.6198 8.00001 17.9969 8.00001H23.3364C23.7029 8.00001 24 8.30215 24 8.67953V12.6667C24 16 20.6667 17.3333 20.6667 17.3333C20.6667 17.3333 17.3333 16 17.3333 12.6667Z" fill="#1F8BDE"/><path d="M16.6667 16L20.6667 8.00001L24.6667 16V18.6667H16.6667V16Z" fill="#F7E14A"/><path d="M17.3333 16.1574V18H24V16.1574L20.6667 9.49073L17.3333 16.1574Z" fill="#4B8C36"/><path fill-rule="evenodd" clip-rule="evenodd" d="M24 12.6667C24 13.223 23.9072 13.7236 23.7525 14.1716L24.6667 16V18.6667H16.6667V16L17.5809 14.1716C18.3531 16.4079 20.6667 17.3333 20.6667 17.3333C20.6667 17.3333 24 16 24 12.6667Z" fill="#07319C"/><path d="M14.0007 0.947433L11.4315 3.10228H14.0007V6.66997H11.432L14.0007 8.82378V10.0025H10.8046L8.7865 8.31285V10.0025H5.21509V8.31133L3.19336 10.0025H0.00012207V8.81358L2.5636 6.66997H0.00012207V3.10228H2.56726L0.00012207 0.952011V0.00254822H3.47363L5.21509 1.46013V0.00254822H8.7865V1.463L10.5353 0.00254822H14.0007V0.947433Z" fill="#FFFFFF"/><path d="M8.68297 4.10226L13.5711 0.00256676L12.0944 -1.52588e-05L7.78651 3.60097V0.00444031L6.2151 0.00444028V3.60111L1.9282 0.0131213L0.426279 0.00451802L5.31839 4.10226H0.000732422V5.66996H5.31837L0.139163 10.0008L1.6392 9.99888L6.2151 6.17102V10.0004H7.78651V6.17124L12.3601 10.0008L13.8504 10.0028L8.68307 5.66996H14.0007V4.10226H8.68297Z" fill="#DC1F37"/></g><defs><clipPath id="clip0_1310_7890"><rect width="28" height="20" fill="#FFFFFF"/></clipPath></defs></svg>