<svg fill="none" xmlns="http://www.w3.org/2000/svg" viewBox="0 0 28 20"><g clip-path="url(#clip0_503_2942)"><path d="M-0.00012207 0C9.33321 0.000119906 18.6665 1.15037e-05 27.9999 1.15037e-05C27.9999 6.66668 27.9999 13.3333 27.9999 20C18.6666 20 9.33329 20 0 20L-0.00012207 0Z" fill="#FFFFFF"/><path fill-rule="evenodd" clip-rule="evenodd" d="M-0.00012207 6.66668H27.9999V1.15037e-05L-0.00012207 0V6.66668Z" fill="#0884E6"/><path fill-rule="evenodd" clip-rule="evenodd" d="M0 20H27.9999V13.3333H-0.00012207L0 20Z" fill="#0884E6"/><path fill-rule="evenodd" clip-rule="evenodd" d="M13.9999 10.6667L13.0571 10.9428L13.3332 10L13.0571 9.0572L13.9999 9.33335L14.9427 9.0572L14.6665 10L14.9427 10.9428L13.9999 10.6667Z" fill="#0E88E9"/><path fill-rule="evenodd" clip-rule="evenodd" d="M19.3332 9.33335L18.3904 9.60949L18.6665 8.66668L18.3904 7.72387L19.3332 8.00001L20.276 7.72387L19.9999 8.66668L20.276 9.60949L19.3332 9.33335Z" fill="#0E88E9"/><path fill-rule="evenodd" clip-rule="evenodd" d="M19.3332 12L18.3904 12.2762L18.6665 11.3333L18.3904 10.3905L19.3332 10.6667L20.276 10.3905L19.9999 11.3333L20.276 12.2762L19.3332 12Z" fill="#0E88E9"/><path fill-rule="evenodd" clip-rule="evenodd" d="M8.66654 12L7.72373 12.2762L7.99988 11.3333L7.72373 10.3905L8.66654 10.6667L9.60935 10.3905L9.33321 11.3333L9.60935 12.2762L8.66654 12Z" fill="#0E88E9"/><path fill-rule="evenodd" clip-rule="evenodd" d="M8.66654 9.33335L7.72373 9.60949L7.99988 8.66668L7.72373 7.72387L8.66654 8.00001L9.60935 7.72387L9.33321 8.66668L9.60935 9.60949L8.66654 9.33335Z" fill="#0E88E9"/></g><defs><clipPath id="clip0_503_2942"><rect width="28" height="20" fill="#FFFFFF"/></clipPath></defs></svg>