<svg fill="none" xmlns="http://www.w3.org/2000/svg" viewBox="0 0 28 20"><g clip-path="url(#clip0_503_2533)"><path d="M0 0H28C28 6.66667 28 13.3333 28 20C18.6667 20 9.33337 20 3.93987e-05 20C3.93987e-05 13.3333 0.000293331 6.66667 0 0Z" fill="#FFFFFF"/><path d="M9.33337 0H28V20H9.33337V0Z" fill="#1AB11F"/><path fill-rule="evenodd" clip-rule="evenodd" d="M3.93987e-05 20H9.33337V0H0L3.93987e-05 20Z" fill="#262626"/><path fill-rule="evenodd" clip-rule="evenodd" d="M9.33337 20H18.6667V0H9.33337V20Z" fill="#DC0D18"/><path fill-rule="evenodd" clip-rule="evenodd" d="M11.3334 8.66667C11.7016 8.66667 12 8.96514 12 9.33333C12 10.0718 12.4 10.7177 12.9982 11.0648C13.3167 11.2496 13.4251 11.6576 13.2403 11.9761C13.0555 12.2945 12.6475 12.4029 12.3291 12.2181C11.3366 11.6422 10.6667 10.5664 10.6667 9.33333C10.6667 8.96514 10.9652 8.66667 11.3334 8.66667ZM16.6667 8.66667C17.0349 8.66667 17.3334 8.96514 17.3334 9.33333C17.3334 10.5147 16.7183 11.552 15.7941 12.1431C15.4839 12.3415 15.0716 12.2508 14.8733 11.9407C14.6749 11.6305 14.7655 11.2182 15.0757 11.0198C15.633 10.6634 16 10.041 16 9.33333C16 8.96514 16.2985 8.66667 16.6667 8.66667Z" fill="#F8ABAF"/><path fill-rule="evenodd" clip-rule="evenodd" d="M14 10.6667C14.7364 10.6667 15.3334 9.77124 15.3334 8.66667C15.3334 7.5621 14.7364 6.66667 14 6.66667C13.2637 6.66667 12.6667 7.5621 12.6667 8.66667C12.6667 9.77124 13.2637 10.6667 14 10.6667Z" fill="#FFFFFF" fill-opacity="0.5"/></g><defs><clipPath id="clip0_503_2533"><rect width="28" height="20" fill="#FFFFFF"/></clipPath></defs></svg>