<svg fill="none" xmlns="http://www.w3.org/2000/svg" viewBox="0 0 28 20"><g clip-path="url(#clip0_1310_7551)"><path d="M28.0001 0.002828H0.00012207V20.0028H28.0001V0.002828Z" fill="#FFFFFF"/><path d="M28.0001 0.002828H0.00012207V20.0028H28.0001V0.002828Z" fill="#0A17A7"/><path fill-rule="evenodd" clip-rule="evenodd" d="M20.6668 6.6695C20.2986 6.6695 20.0001 6.37102 20.0001 6.00283C20.0001 5.63464 20.2986 5.33616 20.6668 5.33616C21.035 5.33616 21.3335 5.63464 21.3335 6.00283C21.3335 6.37102 21.035 6.6695 20.6668 6.6695ZM20.6668 14.6695C20.2986 14.6695 20.0001 14.371 20.0001 14.0028C20.0001 13.6346 20.2986 13.3362 20.6668 13.3362C21.035 13.3362 21.3335 13.6346 21.3335 14.0028C21.3335 14.371 21.035 14.6695 20.6668 14.6695ZM17.3335 10.0028C17.3335 10.371 17.035 10.6695 16.6668 10.6695C16.2986 10.6695 16.0001 10.371 16.0001 10.0028C16.0001 9.63464 16.2986 9.33616 16.6668 9.33616C17.035 9.33616 17.3335 9.63464 17.3335 10.0028ZM25.3335 10.0028C25.3335 10.371 25.035 10.6695 24.6668 10.6695C24.2986 10.6695 24.0001 10.371 24.0001 10.0028C24.0001 9.63464 24.2986 9.33616 24.6668 9.33616C25.035 9.33616 25.3335 9.63464 25.3335 10.0028ZM18.3098 12.3598C18.5701 12.6202 18.5701 13.0423 18.3098 13.3027C18.0494 13.563 17.6273 13.563 17.367 13.3027C17.1066 13.0423 17.1066 12.6202 17.367 12.3598C17.6273 12.0995 18.0494 12.0995 18.3098 12.3598ZM23.9666 6.703C24.227 6.96335 24.227 7.38546 23.9666 7.64581C23.7063 7.90616 23.2842 7.90616 23.0238 7.64581C22.7635 7.38546 22.7635 6.96335 23.0238 6.703C23.2842 6.44265 23.7063 6.44265 23.9666 6.703ZM23.0238 12.3598C23.2842 12.0995 23.7063 12.0995 23.9666 12.3598C24.227 12.6202 24.227 13.0423 23.9666 13.3027C23.7063 13.563 23.2842 13.563 23.0238 13.3027C22.7635 13.0423 22.7635 12.6202 23.0238 12.3598ZM17.367 6.703C17.6273 6.44265 18.0494 6.44265 18.3098 6.703C18.5701 6.96335 18.5701 7.38546 18.3098 7.64581C18.0494 7.90616 17.6273 7.90616 17.367 7.64581C17.1066 7.38546 17.1066 6.96335 17.367 6.703Z" fill="#FFFFFF"/><path d="M14.0006 0.947449L11.4314 3.10229H14.0006V6.66998H11.4319L14.0006 8.82379V10.0026H10.8044L8.78638 8.31287V10.0026H5.21497V8.31134L3.19324 10.0026H0V8.8136L2.56348 6.66998H0V3.10229H2.56714L0 0.952026L0.00012207 0.002828L3.47351 0.00256348L5.21497 1.46014V0.00256348H8.78638V1.46301L10.5352 0.00256348H14.0006V0.947449Z" fill="#FFFFFF"/><path d="M8.68285 4.10227L13.571 0.00258202L12.0943 0L7.78639 3.60098V0.00445557L6.21498 0.00445554V3.60113L1.92808 0.0131366L0.426157 0.00453328L5.31826 4.10227H0.000610352V5.66998H5.31825L0.139041 10.0008L1.63907 9.9989L6.21498 6.17104V10.0004H7.78639V6.17126L12.36 10.0008L13.8503 10.0028L8.68294 5.66998H14.0006V4.10227H8.68285Z" fill="#DC1F37"/></g><defs><clipPath id="clip0_1310_7551"><rect width="28" height="20" fill="#FFFFFF"/></clipPath></defs></svg>