<svg fill="none" xmlns="http://www.w3.org/2000/svg" viewBox="0 0 28 20"><g clip-path="url(#clip0_1310_7675)"><path d="M28 1.01328e-05H2.03848e-05V20H28V1.01328e-05Z" fill="#FFFFFF"/><path d="M28 1.01328e-05H2.03848e-05V20H28V1.01328e-05Z" fill="#07319C"/><path d="M24.6667 14.6667C25.4031 14.6667 26.0001 13.7712 26.0001 12.6667C26.0001 11.5621 25.4031 10.6667 24.6667 10.6667C23.9303 10.6667 23.3334 11.5621 23.3334 12.6667C23.3334 13.7712 23.9303 14.6667 24.6667 14.6667Z" fill="#1E1E1E"/><path d="M24.0001 15.3333C24.7365 15.3333 25.3334 14.4379 25.3334 13.3333C25.3334 12.2287 24.7365 11.3333 24.0001 11.3333C23.2637 11.3333 22.6667 12.2287 22.6667 13.3333C22.6667 14.4379 23.2637 15.3333 24.0001 15.3333Z" fill="#FFFFFF"/><path d="M19.3334 14.6667C20.0698 14.6667 20.6667 13.7712 20.6667 12.6667C20.6667 11.5621 20.0698 10.6667 19.3334 10.6667C18.597 10.6667 18.0001 11.5621 18.0001 12.6667C18.0001 13.7712 18.597 14.6667 19.3334 14.6667Z" fill="#A2ADB0"/><path d="M20.0001 15.3333C20.7364 15.3333 21.3334 14.4379 21.3334 13.3333C21.3334 12.2287 20.7364 11.3333 20.0001 11.3333C19.2637 11.3333 18.6667 12.2287 18.6667 13.3333C18.6667 14.4379 19.2637 15.3333 20.0001 15.3333Z" fill="#4F4F4F"/><path fill-rule="evenodd" clip-rule="evenodd" d="M22 16.6667C23.1046 17.3333 24 17.0349 24 16.6667C24 16.2985 23.1046 16 22 16C20.8954 16 20 16.2985 20 16.6667C20 17.0349 20.8954 17.3333 22 16.6667Z" fill="#FEC241"/><path d="M24.6667 8.66668C25.4031 8.66668 26 8.06972 26 7.33334C26 6.59696 25.4031 6.00001 24.6667 6.00001C23.9303 6.00001 23.3333 6.59696 23.3333 7.33334C23.3333 8.06972 23.9303 8.66668 24.6667 8.66668Z" fill="#FFFFFF"/><path d="M22 7.33334C22.7364 7.33334 23.3333 6.73639 23.3333 6.00001C23.3333 5.26363 22.7364 4.66668 22 4.66668C21.2636 4.66668 20.6667 5.26363 20.6667 6.00001C20.6667 6.73639 21.2636 7.33334 22 7.33334Z" fill="#A84B14"/><path d="M22 6.33334C22.7364 6.33334 23.3333 5.73639 23.3333 5.00001C23.3333 4.26363 22.7364 3.66668 22 3.66668C21.2636 3.66668 20.6667 4.26363 20.6667 5.00001C20.6667 5.73639 21.2636 6.33334 22 6.33334Z" fill="#CFB063"/><path d="M22 16.6667C22.7364 16.6667 23.3333 16.0697 23.3333 15.3333C23.3333 14.597 22.7364 14 22 14C21.2636 14 20.6667 14.597 20.6667 15.3333C20.6667 16.0697 21.2636 16.6667 22 16.6667Z" fill="#FFFFFF"/><path d="M19.3333 8.66668C20.0697 8.66668 20.6667 8.06972 20.6667 7.33334C20.6667 6.59696 20.0697 6.00001 19.3333 6.00001C18.597 6.00001 18 6.59696 18 7.33334C18 8.06972 18.597 8.66668 19.3333 8.66668Z" fill="#FFFFFF"/><path d="M20 10C20.7364 10 21.3333 9.40306 21.3333 8.66668C21.3333 7.9303 20.7364 7.33334 20 7.33334C19.2636 7.33334 18.6667 7.9303 18.6667 8.66668C18.6667 9.40306 19.2636 10 20 10Z" fill="#2D42FF"/><path d="M24 10C24.7364 10 25.3333 9.40306 25.3333 8.66668C25.3333 7.9303 24.7364 7.33334 24 7.33334C23.2636 7.33334 22.6667 7.9303 22.6667 8.66668C22.6667 9.40306 23.2636 10 24 10Z" fill="#2D42FF"/><path d="M25.3333 12C26.0697 12 26.6667 11.4031 26.6667 10.6667C26.6667 9.9303 26.0697 9.33334 25.3333 9.33334C24.597 9.33334 24 9.9303 24 10.6667C24 11.4031 24.597 12 25.3333 12Z" fill="#E3DC3D"/><path fill-rule="evenodd" clip-rule="evenodd" d="M21.3333 10L20.6667 10.6667H23.3333L22.6667 10L23.3333 8.00001C23.3333 8.00001 22.7364 6.66668 22 6.66668C21.2636 6.66668 20.6667 8.00001 20.6667 8.00001L21.3333 10Z" fill="#7F7D7D"/><path fill-rule="evenodd" clip-rule="evenodd" d="M22 8.66668C22 8.66668 22.6667 8.51744 22.6667 8.16001C22.6667 8.14925 22 8.00001 22 8.00001C22 8.00001 21.3333 8.14925 21.3333 8.16001C21.3333 8.51744 22 8.66668 22 8.66668Z" fill="#5D0543"/><path d="M20.0092 11.3412C20.0042 10.9687 20.2878 10.6667 20.6607 10.6667H23.3396C23.7044 10.6667 24.0043 10.9743 24.0092 11.3412L24.0406 13.6682C24.0431 13.8514 23.9124 14.0875 23.7639 14.1854L22.3038 15.1479C22.1485 15.2503 21.8929 15.2458 21.7476 15.1479L20.32 14.1854C20.1682 14.083 20.0431 13.8568 20.0406 13.6682L20.0092 11.3412Z" fill="#FFFFFF"/><path d="M23.3333 15.3333C24.0697 15.3333 24.6667 14.7364 24.6667 14C24.6667 13.2636 24.0698 12.6667 23.3334 12.6667C22.597 12.6667 22 13.2636 22 14C22 14.7364 22.597 15.3333 23.3333 15.3333Z" fill="#225DA4"/><path d="M20.6667 14C21.4031 14 22.0001 13.403 22.0001 12.6666C22.0001 11.9303 21.4031 11.3333 20.6667 11.3333C19.9304 11.3333 19.3334 11.9303 19.3334 12.6666C19.3334 13.403 19.9304 14 20.6667 14Z" fill="#225DA4"/><path fill-rule="evenodd" clip-rule="evenodd" d="M20.0001 10.6666L24 10.6667L22.0001 14.6666L20.0001 10.6666Z" fill="#0F8012"/><path d="M22 14C22.7364 14 23.3334 13.403 23.3334 12.6667C23.3334 11.9303 22.7365 11.3333 22.0001 11.3333C21.2637 11.3333 20.6667 11.9303 20.6667 12.6667C20.6667 13.403 21.2636 14 22 14Z" fill="#FFCF44"/><path d="M14.0006 0.947449L11.4314 3.10229H14.0006V6.66998H11.4319L14.0006 8.82379V10.0026H10.8044L8.78638 8.31287V10.0026H5.21497V8.31134L3.19324 10.0026H0V8.8136L2.56348 6.66998H0V3.10229H2.56714L0 0.952026V0.00256348H3.47351L5.21497 1.46014V0.00256348H8.78638V1.46301L10.5352 0.00256348H14.0006V0.947449Z" fill="#FFFFFF"/><path d="M8.68285 4.10227L13.571 0.00258202L12.0943 0L7.78639 3.60098V0.00445557L6.21498 0.00445554V3.60113L1.92808 0.0131366L0.426157 0.00453328L5.31826 4.10227H0.000610352V5.66998H5.31825L0.139041 10.0008L1.63907 9.9989L6.21498 6.17104V10.0004H7.78639V6.17126L12.36 10.0008L13.8503 10.0028L8.68294 5.66998H14.0006V4.10227H8.68285Z" fill="#DC1F37"/></g><defs><clipPath id="clip0_1310_7675"><rect width="28" height="20" fill="#FFFFFF"/></clipPath></defs></svg>