<svg fill="none" xmlns="http://www.w3.org/2000/svg" viewBox="0 0 28 20"><g clip-path="url(#clip0_503_3391)"><path d="M0 7.27177e-06C9.33333 -2.87623e-05 18.6667 3.97617e-05 28 0V20C18.6667 20 9.33333 20 0 20V7.27177e-06Z" fill="#FFFFFF"/><path fill-rule="evenodd" clip-rule="evenodd" d="M0 6.66667H28V0L0 7.27177e-06V6.66667Z" fill="#1B57C4"/><path fill-rule="evenodd" clip-rule="evenodd" d="M0 20H28V13.3333H0V20Z" fill="#1B57C4"/><path d="M12.4 7.86651C11.7523 8.35303 11.3333 9.12759 11.3333 10C11.3333 11.4728 12.5272 12.6667 14 12.6667C15.4728 12.6667 16.6667 11.4728 16.6667 10C16.6667 9.12759 16.2477 8.35303 15.6001 7.86651L14.6667 10.6667H13.3333L12.4 7.86651Z" fill="#3C7839"/><path fill-rule="evenodd" clip-rule="evenodd" d="M14 7.33334L14.6667 10.6667H13.3333L14 7.33334Z" fill="#F9C92E"/></g><defs><clipPath id="clip0_503_3391"><rect width="28" height="20" fill="#FFFFFF"/></clipPath></defs></svg>