<svg fill="none" xmlns="http://www.w3.org/2000/svg" viewBox="0 0 28 20"><g clip-path="url(#clip0_503_2926)"><path d="M0 0H28C28 6.66667 28 13.3333 28 20C18.6667 20 9.33335 20 1.39773e-05 20C1.39773e-05 13.3333 0.000104064 6.66667 0 0Z" fill="#FFFFFF"/><path d="M0 0H28V20H1.39773e-05L0 0Z" fill="#19BFBF"/><path fill-rule="evenodd" clip-rule="evenodd" d="M12.7588 13.5176C12.7023 13.4047 12.5869 13.3333 12.4607 13.3333H12.1381C12.0497 13.3333 11.9649 13.2982 11.9024 13.2357L9.43098 10.7643C9.36847 10.7018 9.33335 10.617 9.33335 10.5286V9.47141C9.33335 9.383 9.29823 9.29821 9.23572 9.2357L8.0653 8.06529C8.02258 8.02257 7.99227 7.96904 7.97762 7.91043L7.37773 5.51085C7.35009 5.40029 7.26787 5.31151 7.15976 5.27547L5.35582 4.67416C5.34086 4.66917 5.32627 4.66313 5.31216 4.65607L4.18428 4.09213C4.07135 4.03567 4.00001 3.92025 4.00001 3.79399V3C4.00001 2.81591 4.14925 2.66667 4.33335 2.66667H5.19528C5.28368 2.66667 5.36847 2.70179 5.43098 2.7643L5.90238 3.2357C5.96489 3.29821 6.04968 3.33333 6.13808 3.33333H7.19528C7.28368 3.33333 7.36847 3.29821 7.43098 3.2357L7.90238 2.7643C7.9649 2.70179 8.04968 2.66667 8.13809 2.66667H10.588C10.6397 2.66667 10.6908 2.67871 10.7371 2.70186L11.9296 3.29814C11.9759 3.32129 12.027 3.33333 12.0787 3.33333H13.2547C13.3064 3.33333 13.3574 3.32129 13.4037 3.29814L14.5963 2.70186C14.6426 2.67872 14.6936 2.66667 14.7454 2.66667H17C17.1841 2.66667 17.3333 2.81591 17.3333 3V3.66667C17.3333 3.85076 17.1841 4 17 4H16.3333C16.1493 4 16 4.14924 16 4.33333V5.79399C16 5.92025 16.0713 6.03567 16.1843 6.09213L16.8509 6.42546C17.0726 6.53628 17.3333 6.37512 17.3333 6.12732V5C17.3333 4.8159 17.4826 4.66667 17.6667 4.66667H19C19.1841 4.66667 19.3333 4.8159 19.3333 5C19.3333 5.18409 19.4826 5.33333 19.6667 5.33333H21C21.1841 5.33333 21.3333 5.48257 21.3333 5.66667V6.61257C21.3333 6.6484 21.3276 6.68399 21.3162 6.71798L20.6916 8.59202C20.6752 8.64111 20.6476 8.68572 20.611 8.72231L18.7049 10.6284C18.6796 10.6538 18.6585 10.683 18.6425 10.715L18.0352 11.9296C18.0121 11.9759 18 12.0269 18 12.0787V13C18 13.1841 17.8508 13.3333 17.6667 13.3333H17.5394C17.4131 13.3333 17.2977 13.262 17.2412 13.1491L16.7588 12.1843C16.7023 12.0713 16.5869 12 16.4607 12H14.8727C14.7464 12 14.631 12.0713 14.5746 12.1843L14.0745 13.1843C14.0276 13.2781 14.0276 13.3886 14.0745 13.4824L14.5745 14.4824C14.631 14.5953 14.7464 14.6667 14.8727 14.6667H15.8619C15.9503 14.6667 16.0351 14.7018 16.0976 14.7643L17.2357 15.9024C17.2982 15.9649 17.3333 16.0497 17.3333 16.1381V17C17.3333 17.1841 17.1841 17.3333 17 17.3333H16.206C16.0798 17.3333 15.9643 17.262 15.9079 17.1491L15.4255 16.1843C15.369 16.0713 15.2536 16 15.1273 16H14.206C14.0798 16 13.9643 15.9287 13.9079 15.8157L12.7588 13.5176Z" fill="#FFFFFF"/></g><defs><clipPath id="clip0_503_2926"><rect width="28" height="20" fill="#FFFFFF"/></clipPath></defs></svg>