<svg fill="none" xmlns="http://www.w3.org/2000/svg" viewBox="0 0 28 20"><g clip-path="url(#clip0_1310_7730)"><path d="M28.0006 0.002828H0.000589967V20.0028H28.0006V0.002828Z" fill="#FFFFFF"/><path d="M28.0006 0.002828H0.000589967V20.0028H28.0006V0.002828Z" fill="#0A17A7"/><path fill-rule="evenodd" clip-rule="evenodd" d="M6.00068 16.3362L4.82511 16.9542L5.04963 15.6452L4.09857 14.7181L5.4129 14.5271L6.00068 13.3362L6.58847 14.5271L7.9028 14.7181L6.95174 15.6452L7.17626 16.9542L6.00068 16.3362Z" fill="#FFFFFF"/><path fill-rule="evenodd" clip-rule="evenodd" d="M20.0007 17.3362L19.0579 17.6123L19.334 16.6695L19.0579 15.7267L20.0007 16.0028L20.9435 15.7267L20.6674 16.6695L20.9435 17.6123L20.0007 17.3362Z" fill="#FFFFFF"/><path fill-rule="evenodd" clip-rule="evenodd" d="M20.0007 4.66951L19.0579 4.94566L19.334 4.00285L19.0579 3.06004L20.0007 3.33618L20.9435 3.06004L20.6674 4.00285L20.9435 4.94566L20.0007 4.66951Z" fill="#FFFFFF"/><path fill-rule="evenodd" clip-rule="evenodd" d="M24.0007 8.66951L23.0579 8.94565L23.334 8.00285L23.0579 7.06004L24.0007 7.33618L24.9435 7.06004L24.6674 8.00285L24.9435 8.94565L24.0007 8.66951Z" fill="#FFFFFF"/><path fill-rule="evenodd" clip-rule="evenodd" d="M16.0007 10.0028L15.0579 10.279L15.334 9.33618L15.0579 8.39337L16.0007 8.66951L16.9435 8.39337L16.6674 9.33618L16.9435 10.279L16.0007 10.0028Z" fill="#FFFFFF"/><path fill-rule="evenodd" clip-rule="evenodd" d="M22.0006 11.6695L21.5292 11.8076L21.6673 11.3362L21.5292 10.8648L22.0006 11.0029L22.472 10.8648L22.334 11.3362L22.472 11.8076L22.0006 11.6695Z" fill="#FFFFFF"/><path d="M14.0006 0.947449L11.4314 3.10229H14.0006V6.66998H11.4319L14.0006 8.82379V10.0026H10.8044L8.78638 8.31287V10.0026H5.21497V8.31134L3.19324 10.0026H0V8.8136L2.56348 6.66998H0V3.10229H2.56714L0 0.952026L0.000589967 0.002828L3.47351 0.00256348L5.21497 1.46014V0.00256348H8.78638V1.46301L10.5352 0.00256348H14.0006V0.947449Z" fill="#FFFFFF"/><path d="M8.68285 4.10227L13.571 0.00258202L12.0943 0L7.78639 3.60098V0.00445557L6.21498 0.00445554V3.60113L1.92808 0.0131366L0.426157 0.00453328L5.31826 4.10227H0.000610352V5.66998H5.31825L0.139041 10.0008L1.63907 9.9989L6.21498 6.17104V10.0004H7.78639V6.17126L12.36 10.0008L13.8503 10.0028L8.68294 5.66998H14.0006V4.10227H8.68285Z" fill="#DC1F37"/></g><defs><clipPath id="clip0_1310_7730"><rect width="28" height="20" fill="#FFFFFF"/></clipPath></defs></svg>