<svg fill="none" xmlns="http://www.w3.org/2000/svg" viewBox="0 0 28 20"><g clip-path="url(#clip0_1310_8519)"><path d="M28.0002 2.52724e-05H0.000217319V20H28.0002V2.52724e-05Z" fill="#FFFFFF"/><path d="M28.0002 -0.0035553H0.000217319V19.9964H28.0002V-0.0035553Z" fill="#1DBE4F"/><path fill-rule="evenodd" clip-rule="evenodd" d="M0.000217319 -0.0035553H28.0002L0.000217319 19.9964V-0.0035553Z" fill="#0660D4"/><path fill-rule="evenodd" clip-rule="evenodd" d="M28.0002 -0.0035553L0.000217319 19.9964H28.0002V-0.0035553Z" fill="#2C7442"/><path d="M27.207 -0.00390625L-0.0177612 17.3196L0.000217319 19.9964L0.829354 20.0006L28 2.65625L28.0002 -0.0035553L27.207 -0.00390625Z" fill="#FFD646"/><path fill-rule="evenodd" clip-rule="evenodd" d="M3.00003 3.82978L2.02038 4.34481L2.20748 3.25396L1.41493 2.48142L2.5102 2.32226L3.00003 1.32978L3.48985 2.32226L4.58512 2.48142L3.79257 3.25396L3.97967 4.34481L3.00003 3.82978ZM9.66669 3.82978L8.68705 4.34481L8.87415 3.25396L8.0816 2.48142L9.17687 2.32226L9.66669 1.32978L10.1565 2.32226L11.2518 2.48142L10.4592 3.25396L10.6463 4.34481L9.66669 3.82978ZM9.66669 7.82978L8.68705 8.34481L8.87415 7.25396L8.0816 6.48142L9.17687 6.32226L9.66669 5.32978L10.1565 6.32226L11.2518 6.48142L10.4592 7.25396L10.6463 8.34481L9.66669 7.82978ZM3.00003 7.82978L2.02038 8.34481L2.20748 7.25396L1.41493 6.48142L2.5102 6.32226L3.00003 5.32978L3.48985 6.32226L4.58512 6.48142L3.79257 7.25396L3.97967 8.34481L3.00003 7.82978ZM6.33336 5.82978L5.35372 6.34481L5.54081 5.25396L4.74826 4.48142L5.84354 4.32226L6.33336 3.32978L6.82318 4.32226L7.91845 4.48142L7.12591 5.25396L7.313 6.34481L6.33336 5.82978Z" fill="#FFFFFF"/></g><defs><clipPath id="clip0_1310_8519"><rect width="28" height="20" fill="#FFFFFF"/></clipPath></defs></svg>