<svg fill="none" xmlns="http://www.w3.org/2000/svg" viewBox="0 0 28 20"><g clip-path="url(#clip0_503_3026)"><path d="M8.55401e-05 6.4075e-06C9.33342 -6.03797e-05 18.6668 0 28.0001 0C28.0001 6.66667 28.0001 13.3333 28.0001 20C18.6667 20 9.33336 20 0 20L8.55401e-05 6.4075e-06Z" fill="#FFFFFF"/><path fill-rule="evenodd" clip-rule="evenodd" d="M0 20H28.0001V14.6667H8.55401e-05L0 20Z" fill="#2D754D"/><path fill-rule="evenodd" clip-rule="evenodd" d="M8.55401e-05 9.33333H28.0001V0L8.55401e-05 6.4075e-06V9.33333Z" fill="#25B1EB"/><path fill-rule="evenodd" clip-rule="evenodd" d="M8.55401e-05 14.6667H28.0001V9.33333H8.55401e-05V14.6667Z" fill="#FECB2F"/><path fill-rule="evenodd" clip-rule="evenodd" d="M21.3334 6L20.3129 7.13035L20.3906 5.60948L18.8697 5.68716L20.0001 4.66667L18.8697 3.64618L20.3906 3.72386L20.3129 2.20299L21.3334 3.33333L22.3539 2.20299L22.2762 3.72386L23.7971 3.64618L22.6668 4.66667L23.7971 5.68716L22.2762 5.60948L22.3539 7.13035L21.3334 6Z" fill="#FECB2F"/></g><defs><clipPath id="clip0_503_3026"><rect width="28" height="20" fill="#FFFFFF"/></clipPath></defs></svg>