<svg fill="none" xmlns="http://www.w3.org/2000/svg" viewBox="0 0 28 20"><g clip-path="url(#clip0_503_2842)"><path d="M0 3.46971e-05C9.33335 3.46971e-05 18.6667 -4.89921e-05 28 4.35782e-05V20C18.6667 20 9.33337 20 3.93987e-05 20C3.93987e-05 13.3334 0.000293331 6.6667 0 3.46971e-05Z" fill="#FFFFFF"/><path fill-rule="evenodd" clip-rule="evenodd" d="M3.93987e-05 6.6667H28V4.35782e-05L0 3.46971e-05L3.93987e-05 6.6667Z" fill="#E41D33"/><path fill-rule="evenodd" clip-rule="evenodd" d="M3.93987e-05 20H28V13.3334H3.93987e-05V20Z" fill="#262626"/><path fill-rule="evenodd" clip-rule="evenodd" d="M12.3072 10.1051L11.588 8.6667H11.3334L11.3334 10.7544L12.3072 10.1051ZM12.6667 10.6667L11.7032 11.3091C11.2601 11.6044 10.6667 11.2868 10.6667 10.7544V8.6667C10.6667 8.29851 10.9652 8.00003 11.3334 8.00003H11.794C11.9203 8.00003 12.0357 8.07137 12.0922 8.1843L12.6667 9.33337C12.6667 9.33337 12.8415 9.01525 13.0903 8.68979C13.3508 8.34894 13.6927 8.00003 14 8.00003C14.3346 8.00003 14.6692 8.33585 14.9195 8.67042C15.1679 9.00251 15.3334 9.33337 15.3334 9.33337L15.9079 8.1843C15.9644 8.07137 16.0798 8.00003 16.2061 8.00003H16.6667C17.0349 8.00003 17.3334 8.29851 17.3334 8.6667V10.7544C17.3334 11.2868 16.7399 11.6044 16.2969 11.3091L15.3334 10.6667H14.6667V11.3334C14.6667 11.7016 14.3682 12 14 12C13.6319 12 13.3334 11.7016 13.3334 11.3334V10.6667H12.6667ZM14.9214 10H13.0611C13.1324 9.87037 13.2013 9.73912 13.2757 9.61121C13.2938 9.57996 13.3212 9.53393 13.356 9.47814C13.4265 9.36531 13.5239 9.2185 13.6351 9.07497C13.7493 8.92751 13.8618 8.80474 13.9597 8.72486C13.9809 8.70762 13.9984 8.69475 14.0124 8.68523C14.0279 8.69494 14.0481 8.70893 14.0732 8.72895C14.1682 8.80497 14.2755 8.92286 14.3834 9.0667C14.4884 9.20668 14.5784 9.35028 14.6429 9.46095C14.6748 9.51559 14.6995 9.56055 14.7158 9.59089C14.7878 9.72534 14.8531 9.86363 14.9214 10ZM15.6929 10.1051L16.6667 10.7544L16.6667 8.6667H16.4121L15.6929 10.1051Z" fill="#C6A846"/></g><defs><clipPath id="clip0_503_2842"><rect width="28" height="20" fill="#FFFFFF"/></clipPath></defs></svg>