<svg fill="none" xmlns="http://www.w3.org/2000/svg" viewBox="0 0 28 20"><g clip-path="url(#clip0_503_3560)"><path d="M8.88109e-06 0C9.33334 0 18.6667 -8.36891e-05 28 8.88109e-06V20C18.6667 19.9999 9.33333 19.9999 0 20C0 13.3333 -5.72405e-05 6.66667 8.88109e-06 0Z" fill="#FFFFFF"/><path fill-rule="evenodd" clip-rule="evenodd" d="M0 6.66667H28V8.88109e-06L8.88109e-06 0L0 6.66667Z" fill="#262626"/><path fill-rule="evenodd" clip-rule="evenodd" d="M0 13.3333H28V6.66667H0V13.3333Z" fill="#E42038"/><path fill-rule="evenodd" clip-rule="evenodd" d="M0 20H28V13.3333H0V20Z" fill="#47B849"/><path fill-rule="evenodd" clip-rule="evenodd" d="M14 12C16.5773 12 18.6667 9.91065 18.6667 7.33332C18.6667 4.75599 16.5773 2.66666 14 2.66666C11.4227 2.66666 9.33334 4.75599 9.33334 7.33332C9.33334 9.91065 11.4227 12 14 12Z" fill="#E42038"/></g><defs><clipPath id="clip0_503_3560"><rect width="28" height="20" fill="#FFFFFF"/></clipPath></defs></svg>