<svg fill="none" xmlns="http://www.w3.org/2000/svg" viewBox="0 0 28 20"><g clip-path="url(#clip0_503_3005)"><path d="M0 0C9.33334 4.06932e-05 18.6667 3.9041e-06 28 3.9041e-06C28 6.66667 28 13.3333 28 20C18.6667 20 9.33334 20 8.24779e-06 20L0 0Z" fill="#FFFFFF"/><path fill-rule="evenodd" clip-rule="evenodd" d="M8.24779e-06 6.66667H28V3.9041e-06L0 0L8.24779e-06 6.66667Z" fill="#E33F39"/><path fill-rule="evenodd" clip-rule="evenodd" d="M8.24779e-06 20H28V13.3333H8.24779e-06V20Z" fill="#124BBA"/><path fill-rule="evenodd" clip-rule="evenodd" d="M16.6667 10C16.6667 11.4728 15.4728 12.6667 14 12.6667C12.5272 12.6667 11.3333 11.4728 11.3333 10C11.3333 8.52725 12.5272 7.33334 14 7.33334C15.4728 7.33334 16.6667 8.52725 16.6667 10ZM16 10C16 11.1046 15.1046 12 14 12C12.8954 12 12 11.1046 12 10C12 8.89544 12.8954 8 14 8C15.1046 8 16 8.89544 16 10Z" fill="#398153"/><path fill-rule="evenodd" clip-rule="evenodd" d="M14 10.6667C14.3682 10.6667 14.6667 10.3682 14.6667 10C14.6667 9.63181 14.3682 9.33334 14 9.33334C13.6318 9.33334 13.3333 9.63181 13.3333 10C13.3333 10.3682 13.6318 10.6667 14 10.6667Z" fill="#E5CF58"/></g><defs><clipPath id="clip0_503_3005"><rect width="28" height="20" fill="#FFFFFF"/></clipPath></defs></svg>