<svg fill="none" xmlns="http://www.w3.org/2000/svg" viewBox="0 0 28 20"><g clip-path="url(#clip0_503_2645)"><path d="M5.66244e-07 0H28C28 6.66667 28 13.3333 28 20C18.6667 20 9.33333 20 0 20C0 13.3333 -3.64956e-06 6.66667 5.66244e-07 0Z" fill="#E2273E"/><path fill-rule="evenodd" clip-rule="evenodd" d="M0 14.6667H28V5.33333H0V14.6667Z" fill="#073A88"/><path fill-rule="evenodd" clip-rule="evenodd" d="M0 20H28V14.6667H0V20Z" fill="#E2273E"/><path fill-rule="evenodd" clip-rule="evenodd" d="M14 13.3333C15.8409 13.3333 17.3333 11.8409 17.3333 10C17.3333 8.15905 15.8409 6.66667 14 6.66667C12.1591 6.66667 10.6667 8.15905 10.6667 10C10.6667 11.8409 12.1591 13.3333 14 13.3333Z" fill="#E2273E"/><path fill-rule="evenodd" clip-rule="evenodd" d="M14 13.3333C15.841 13.3333 17.3333 11.8409 17.3333 9.99999C17.3333 8.15904 15.841 6.66666 14 6.66666C12.1591 6.66666 10.6667 8.15904 10.6667 9.99999C10.6667 11.8409 12.1591 13.3333 14 13.3333Z" fill="#FFFFFF"/></g><defs><clipPath id="clip0_503_2645"><rect width="28" height="20" fill="#FFFFFF"/></clipPath></defs></svg>