<svg fill="none" xmlns="http://www.w3.org/2000/svg" viewBox="0 0 28 20"><g clip-path="url(#clip0_503_2524)"><path d="M0 4.91738e-06C0 4.91738e-06 0.895431 0 2 0H28C28 6 28 12 28 18C28 19.1046 27.1046 20 26 20H2C0.895431 20 0 20 0 20V4.91738e-06Z" fill="#06A86E"/><path fill-rule="evenodd" clip-rule="evenodd" d="M0 2.66667L9.33333 10L0 17.3333V2.66667Z" fill="#FFBF2E"/><path fill-rule="evenodd" clip-rule="evenodd" d="M0 4L7.66667 10L0 16L0 4Z" fill="#262626"/><path fill-rule="evenodd" clip-rule="evenodd" d="M12 8L2.66667 0H28V8H12Z" fill="#FFFFFF"/><path fill-rule="evenodd" clip-rule="evenodd" d="M12.3333 6.66667L4.33333 0H28L28 6.66667H12.3333Z" fill="#F44E46"/><path fill-rule="evenodd" clip-rule="evenodd" d="M2.66667 20H28V12H12L2.66667 20Z" fill="#FFFFFF"/><path fill-rule="evenodd" clip-rule="evenodd" d="M4.33333 20H28L28 13.3333H12.3333L4.33333 20Z" fill="#072CB4"/></g><defs><clipPath id="clip0_503_2524"><rect width="28" height="20" fill="#FFFFFF"/></clipPath></defs></svg>