<svg fill="none" xmlns="http://www.w3.org/2000/svg" viewBox="0 0 28 20"><g clip-path="url(#clip0_1310_7872)"><path d="M27.9999 2.14577e-06H-8.13007e-05V20H27.9999V2.14577e-06Z" fill="#FFFFFF"/><path d="M27.9998 13.3333H-0.000244141L-8.13007e-05 20H27.9999L27.9998 13.3333Z" fill="url(#paint0_linear_1310_7872)"/><path fill-rule="evenodd" clip-rule="evenodd" d="M-8.13007e-05 20H27.9999V2.14577e-06L9.33336 -1.71661e-05L-8.13007e-05 2.14577e-06V20Z" fill="#26A7DC"/><path d="M9.33336 -1.71661e-05L-8.13007e-05 2.14577e-06L-1.26697e-05 6.66665H9.33332L9.33336 -1.71661e-05Z" fill="#F03633"/><path fill-rule="evenodd" clip-rule="evenodd" d="M4.66675 2.39051L2.24949 -0.0176392L0.381823 -0.00543912L3.72394 3.33332L0.406295 6.67179H2.17631L4.66675 4.27612L7.12014 6.68399H9.02443L5.60956 3.33332L9.01217 0.00676795L7.07126 -0.00543272L4.66675 2.39051Z" fill="#2AA854"/><path fill-rule="evenodd" clip-rule="evenodd" d="M5.33316 2.66665V-0.0176392H3.99982V2.66665H-0.00017551V3.99998H3.99982V6.67179H5.33316V3.99998H9.33316V2.66665H5.33316Z" fill="#FFFFFF"/><path fill-rule="evenodd" clip-rule="evenodd" d="M23.1005 8.57154C24.4705 8.23498 25.3332 8.14562 25.3332 9.3333C25.3332 11.5424 22.3484 13.3333 18.6665 13.3333C14.9846 13.3333 11.9998 11.5424 11.9998 9.3333C11.9998 8.14562 12.8625 8.23498 14.2325 8.57154C14.1456 8.33485 14.0729 8.08399 14.0172 7.82197C13.6344 6.02125 14.2 4.3753 15.2804 4.14565C16.3608 3.916 17.547 5.1896 17.9298 6.99032C18.1102 7.83916 18.0799 8.65361 17.8843 9.30153C18.1408 9.32189 18.4019 9.3333 18.6665 9.3333C18.9311 9.3333 19.1922 9.32189 19.4487 9.30153C19.2531 8.65361 19.2228 7.83916 19.4032 6.99032C19.786 5.1896 20.9721 3.916 22.0526 4.14565C23.133 4.3753 23.6986 6.02125 23.3158 7.82197C23.2601 8.08399 23.1874 8.33485 23.1005 8.57154Z" fill="#FBCD3F"/><path d="M21.0352 17.2629C21.2229 17.3568 21.4438 17.3568 21.6314 17.2629L24.2981 15.9296C24.6274 15.7649 24.7609 15.3645 24.5963 15.0352C24.4316 14.7058 24.0312 14.5724 23.7018 14.737L21.3333 15.9213L18.9648 14.737C18.7771 14.6432 18.5562 14.6432 18.3685 14.737L16 15.9213L13.6315 14.737C13.3021 14.5724 12.9017 14.7058 12.737 15.0352C12.5724 15.3645 12.7058 15.7649 13.0352 15.9296L15.7018 17.2629C15.8895 17.3568 16.1104 17.3568 16.2981 17.2629L18.6666 16.0787L21.0352 17.2629Z" fill="#FFFFFF"/><path d="M9.33332 6.66665H-1.26697e-05L-0.000244141 13.3333L9.33316 13.3333L9.33332 6.66665Z" fill="#FFFFFF"/><path fill-rule="evenodd" clip-rule="evenodd" d="M1.99979 9.33333C1.6316 9.33333 1.33313 9.03485 1.33313 8.66666C1.33313 8.29847 1.6316 7.99999 1.99979 7.99999C2.36798 7.99999 2.66646 8.29847 2.66646 8.66666C2.66646 9.03485 2.36798 9.33333 1.99979 9.33333ZM4.66646 9.33333C4.29827 9.33333 3.99979 9.03485 3.99979 8.66666C3.99979 8.29847 4.29827 7.99999 4.66646 7.99999C5.03465 7.99999 5.33313 8.29847 5.33313 8.66666C5.33313 9.03485 5.03465 9.33333 4.66646 9.33333ZM7.33313 9.33333C6.96494 9.33333 6.66646 9.03485 6.66646 8.66666C6.66646 8.29847 6.96494 7.99999 7.33313 7.99999C7.70131 7.99999 7.99979 8.29847 7.99979 8.66666C7.99979 9.03485 7.70131 9.33333 7.33313 9.33333ZM5.99979 12C5.6316 12 5.33313 11.7015 5.33313 11.3333C5.33313 10.9651 5.6316 10.6667 5.99979 10.6667C6.36798 10.6667 6.66646 10.9651 6.66646 11.3333C6.66646 11.7015 6.36798 12 5.99979 12ZM3.33313 12C2.96494 12 2.66646 11.7015 2.66646 11.3333C2.66646 10.9651 2.96494 10.6667 3.33313 10.6667C3.70132 10.6667 3.99979 10.9651 3.99979 11.3333C3.99979 11.7015 3.70132 12 3.33313 12Z" fill="#262626"/><path d="M9.33316 13.3333L-0.000244141 13.3333L-8.13007e-05 20L9.33313 20L9.33316 13.3333Z" fill="#D7181D"/><path fill-rule="evenodd" clip-rule="evenodd" d="M4.66646 16C2.82551 16 1.33313 15.7015 1.33313 15.3333C1.33313 14.9651 2.82551 14.6667 4.66646 14.6667C6.50741 14.6667 7.99979 14.9651 7.99979 15.3333C7.99979 15.7015 6.50741 16 4.66646 16ZM4.66646 18.6667C2.82551 18.6667 1.33313 18.3682 1.33313 18C1.33313 17.6318 2.82551 17.3333 4.66646 17.3333C6.50741 17.3333 7.99979 17.6318 7.99979 18C7.99979 18.3682 6.50741 18.6667 4.66646 18.6667Z" fill="#FBCD3F"/></g><defs><linearGradient id="paint0_linear_1310_7872" x1="13.9998" y1="-0.0176392" x2="13.9998" y2="20" gradientUnits="userSpaceOnUse"><stop stop-color="#138E16"/><stop offset="1" stop-color="#0F7F12"/></linearGradient><clipPath id="clip0_1310_7872"><rect width="28" height="20" fill="#FFFFFF"/></clipPath></defs></svg>