<svg fill="none" xmlns="http://www.w3.org/2000/svg" viewBox="0 0 28 20"><g clip-path="url(#clip0_503_4019)"><path d="M0 2.25V0.0178833L28 0C28 0 28 1.14543 28 2.25L28 20.0179C28 20.0179 27.1046 20.0179 26 20.0179H2C0.895429 20.0179 0 20.0179 0 20.0179V2.25Z" fill="#FFFFFF"/><path d="M0 0.0178833L28 0L28 20.0179H0V0.0178833Z" fill="#ED233C"/><path fill-rule="evenodd" clip-rule="evenodd" d="M15.9636 20.0072L0.00432245 1.06057L0 0.0178833L12.0859 0.0217891L28 19.0023L28 20.0179L15.9636 20.0072Z" fill="#FFFFFF"/><path fill-rule="evenodd" clip-rule="evenodd" d="M17.9933 20.009L1 0H10L26.7615 20.0179L17.9933 20.009Z" fill="#262626"/></g><defs><clipPath id="clip0_503_4019"><rect width="28" height="20" fill="#FFFFFF"/></clipPath></defs></svg>