<svg fill="none" xmlns="http://www.w3.org/2000/svg" viewBox="0 0 28 20"><g clip-path="url(#clip0_503_3476)"><path d="M0 2C0 0.895431 0.895431 0 2 0H26C27.1046 0 28 0.895431 28 2V18C28 19.1046 27.1046 20 26 20H2C0.895431 20 0 19.1046 0 18V2Z" fill="#FFFFFF"/><path d="M13.3333 0H28V20H13.3333V0Z" fill="#08C47A"/><path fill-rule="evenodd" clip-rule="evenodd" d="M0 20H9.33333V0H0V20Z" fill="#0C87E1"/><path fill-rule="evenodd" clip-rule="evenodd" d="M8 20H20V0H8V20Z" fill="#FECB2F"/><path d="M9.33333 8L11.3333 4L13.3333 8L11.3333 12L9.33333 8Z" fill="#08C47A"/><path d="M14.6667 8L16.6667 4L18.6667 8L16.6667 12L14.6667 8Z" fill="#08C47A"/><path d="M14 9.33333L12 13.3333L14 17.3333L16 13.3333L14 9.33333Z" fill="#08C47A"/></g><defs><clipPath id="clip0_503_3476"><rect width="28" height="20" fill="#FFFFFF"/></clipPath></defs></svg>