<svg fill="none" xmlns="http://www.w3.org/2000/svg" viewBox="0 0 28 20"><g clip-path="url(#clip0_503_2795)"><path d="M0 0C9.33334 1.24254e-05 18.6667 1.19209e-06 28 1.19209e-06C28 6.66667 28 13.3333 28 20C18.6667 20 9.33335 20 1.28895e-05 20L0 0Z" fill="#FFFFFF"/><path d="M0 0L28 1.19209e-06V20H1.28895e-05L0 0Z" fill="#EA403F"/><path fill-rule="evenodd" clip-rule="evenodd" d="M14 12.34L10.4733 14.8541L11.7745 10.7231L8.29367 8.1459L12.6246 8.1069L14 4L15.3754 8.1069L19.7064 8.1459L16.2255 10.7231L17.5267 14.8541L14 12.34Z" fill="#FFFE4E"/></g><defs><clipPath id="clip0_503_2795"><rect width="28" height="20" fill="#FFFFFF"/></clipPath></defs></svg>