<svg fill="none" xmlns="http://www.w3.org/2000/svg" viewBox="0 0 28 20"><g clip-path="url(#clip0_503_3567)"><path d="M2.98023e-06 1.0401e-05C9.33333 1.0401e-05 18.6667 0.000108413 28 0V20C18.6667 20 9.33333 20 0 20C0 13.3333 -1.92082e-05 6.66668 2.98023e-06 1.0401e-05Z" fill="#FFFFFF"/><path fill-rule="evenodd" clip-rule="evenodd" d="M0 6.66668H28V0L2.98023e-06 1.0401e-05L0 6.66668Z" fill="#F0642F"/><path fill-rule="evenodd" clip-rule="evenodd" d="M0 20H28V13.3333H0V20Z" fill="#2DCC45"/><path fill-rule="evenodd" clip-rule="evenodd" d="M14 12.6667C15.4728 12.6667 16.6667 11.4728 16.6667 10C16.6667 8.52725 15.4728 7.33334 14 7.33334C12.5272 7.33334 11.3333 8.52725 11.3333 10C11.3333 11.4728 12.5272 12.6667 14 12.6667Z" fill="#E85C27"/></g><defs><clipPath id="clip0_503_3567"><rect width="28" height="20" fill="#FFFFFF"/></clipPath></defs></svg>