<svg fill="none" xmlns="http://www.w3.org/2000/svg" viewBox="0 0 28 20"><g clip-path="url(#clip0_503_3377)"><path d="M3.8147e-06 1.21593e-05H28V20H3.8147e-06V1.21593e-05Z" fill="#FFFFFF"/><path d="M15.7408 2.66668H13.5926L13.6799 2.61548L12.693 2.04564L13.9689 2.1881L13.7895 1.33335L14.6667 2.04564L15.5438 1.33335L15.3645 2.1881L16.6403 2.04564L15.6535 2.61548L15.7408 2.66668Z" fill="#FAEF32"/><path fill-rule="evenodd" clip-rule="evenodd" d="M12.6667 5.16668C12.6667 4.79587 12.6667 4.38229 12.6667 3.99996C12.6667 3.26358 13.2636 2.66668 14 2.66668H15.3333C16.0697 2.66668 16.6667 3.26358 16.6667 3.99996C16.6667 4.38229 16.6667 4.79587 16.6667 5.16668C16.6667 6.95239 14.6667 7.66668 14.6667 7.66668C14.6667 7.66668 12.6667 6.95239 12.6667 5.16668Z" fill="#E3243B"/><path d="M14.3333 7.00001C14.3333 6.81592 14.4826 6.66668 14.6667 6.66668C14.8508 6.66668 15 6.81592 15 7.00001C15 7.18411 14.8508 7.33335 14.6667 7.33335C14.4826 7.33335 14.3333 7.18411 14.3333 7.00001Z" fill="#FAEF32"/><path d="M13.3333 5.66668C13.3333 5.48258 13.4826 5.33335 13.6667 5.33335H15.6667C15.8508 5.33335 16 5.48258 16 5.66668C16 5.85077 15.8508 6.00001 15.6667 6.00001H13.6667C13.4826 6.00001 13.3333 5.85077 13.3333 5.66668Z" fill="#FAEF32"/><path d="M13.3333 4.33335C13.3333 4.14925 13.4826 4.00001 13.6667 4.00001H15.6667C15.8508 4.00001 16 4.14925 16 4.33335C16 4.51744 15.8508 4.66668 15.6667 4.66668H13.6667C13.4826 4.66668 13.3333 4.51744 13.3333 4.33335Z" fill="#FAEF32"/><path d="M27 0L28 1.21593e-05V2.5L16.9836 10.4732L28 18L28 20H26L14.659 12.1009L3.5 20L3.8147e-06 20L0 19L12.3344 10.4732L3.8147e-06 2.00001V1.21593e-05H2L14.659 8.84547L27 0Z" fill="#E3243B"/></g><defs><clipPath id="clip0_503_3377"><rect width="28" height="20" fill="#FFFFFF"/></clipPath></defs></svg>