<svg fill="none" xmlns="http://www.w3.org/2000/svg" viewBox="0 0 28 20"><g clip-path="url(#clip0_503_4039)"><path d="M6.82846e-05 1.22488e-05C9.3334 1.22488e-05 18.6667 0.000127672 28.0001 0V20C18.6667 20 9.33335 20 0 20C2.1041e-05 13.3333 -1.71409e-05 6.66668 6.82846e-05 1.22488e-05Z" fill="#FFFFFF"/><path fill-rule="evenodd" clip-rule="evenodd" d="M5.68107e-05 6.66668H28.0001V0L6.82846e-05 1.22488e-05L5.68107e-05 6.66668Z" fill="#88BBE8"/><path fill-rule="evenodd" clip-rule="evenodd" d="M0 20H28.0001V13.3333H5.68107e-05L0 20Z" fill="#88BBE8"/><path fill-rule="evenodd" clip-rule="evenodd" d="M14.0001 12C15.1046 12 16.0001 11.1046 16.0001 10C16.0001 8.89544 15.1046 8.00001 14.0001 8.00001C12.8955 8.00001 12.0001 8.89544 12.0001 10C12.0001 11.1046 12.8955 12 14.0001 12Z" fill="#F4B32E"/><path fill-rule="evenodd" clip-rule="evenodd" d="M16.6667 10C16.6667 11.4728 15.4728 12.6667 14.0001 12.6667C12.5273 12.6667 11.3334 11.4728 11.3334 10C11.3334 8.52725 12.5273 7.33335 14.0001 7.33335C15.4728 7.33335 16.6667 8.52725 16.6667 10ZM16.0001 10C16.0001 11.1046 15.1046 12 14.0001 12C12.8955 12 12.0001 11.1046 12.0001 10C12.0001 8.89544 12.8955 8.00001 14.0001 8.00001C15.1046 8.00001 16.0001 8.89544 16.0001 10Z" fill="#DB7A2C"/></g><defs><clipPath id="clip0_503_4039"><rect width="28" height="20" fill="#FFFFFF"/></clipPath></defs></svg>