<svg fill="none" xmlns="http://www.w3.org/2000/svg" viewBox="0 0 28 20"><g clip-path="url(#clip0_503_3578)"><path d="M1.95801e-05 0H28C28 6.66667 28 13.3333 28 20C18.6667 20 9.33333 20 0 20C0 13.3333 -0.000126198 6.66667 1.95801e-05 0Z" fill="#FFFFFF"/><path fill-rule="evenodd" clip-rule="evenodd" d="M0 20H28V9.33333H0V20Z" fill="#1AB558"/><path fill-rule="evenodd" clip-rule="evenodd" d="M0 9.33333H28V0H1.95801e-05L0 9.33333Z" fill="#FFD952"/><path fill-rule="evenodd" clip-rule="evenodd" d="M0 20H10.6667V0H1.95801e-05L0 20Z" fill="#E72B42"/><path fill-rule="evenodd" clip-rule="evenodd" d="M5.33333 11.2784L3.37405 12.6967L4.11754 10.395L2.16314 8.96994L4.58193 8.96578L5.33333 6.66667L6.08473 8.96578L8.50352 8.96994L6.54913 10.395L7.29262 12.6967L5.33333 11.2784Z" fill="#262626"/></g><defs><clipPath id="clip0_503_3578"><rect width="28" height="20" fill="#FFFFFF"/></clipPath></defs></svg>