<svg fill="none" xmlns="http://www.w3.org/2000/svg" viewBox="0 0 28 20"><g clip-path="url(#clip0_1310_8012)"><path d="M27.9997 0H-0.000335693V20H27.9997V0Z" fill="#F2F2F2"/><path d="M21.7987 8.67267L17.7044 16.5123C17.6192 16.6755 17.6824 16.8769 17.8456 16.9621C18.0088 17.0473 18.2101 16.9841 18.2954 16.821L22.3896 8.98128C22.4748 8.8181 22.4116 8.61673 22.2484 8.53151C22.0853 8.44628 21.8839 8.50948 21.7987 8.67267Z" fill="#1583C4"/><path d="M22.3744 10.4176L17.7354 16.4638C17.6233 16.6098 17.6509 16.8191 17.7969 16.9311C17.943 17.0432 18.1522 17.0156 18.2643 16.8696L22.9033 10.8234C23.0154 10.6773 22.9878 10.4681 22.8418 10.356C22.6957 10.2439 22.4864 10.2715 22.3744 10.4176Z" fill="#1583C4"/><path d="M20.2969 9.87859L17.6895 16.5453C17.6224 16.7167 17.7071 16.9101 17.8785 16.9771C18.0499 17.0442 18.2433 16.9595 18.3104 16.7881L20.9178 10.1214C20.9848 9.94998 20.9002 9.75663 20.7288 9.68957C20.5573 9.62252 20.364 9.70714 20.2969 9.87859Z" fill="#1583C4"/><path d="M5.68097 8.76355C5.71888 8.88835 5.7875 9.10473 5.88052 9.38237C6.03555 9.84512 6.20223 10.308 6.37448 10.7412C6.57224 11.2385 6.76493 11.6651 6.94981 12.0013C6.98262 12.061 7.01515 12.1177 7.04742 12.1715C7.26064 12.5269 7.59897 12.9904 8.03719 13.54C8.11995 13.6438 8.20579 13.7501 8.29442 13.8585C8.61356 14.2488 8.95506 14.6505 9.2965 15.0416C9.50139 15.2762 9.66095 15.4554 9.75262 15.5568C9.87606 15.6934 10.0868 15.7041 10.2234 15.5806C10.36 15.4572 10.3707 15.2464 10.2472 15.1098C10.1579 15.0111 10.0009 14.8347 9.79868 14.6031C9.46163 14.2171 9.12464 13.8206 8.81053 13.4365C8.72358 13.3301 8.63945 13.226 8.55845 13.1244C8.13715 12.596 7.81369 12.1529 7.61908 11.8285C7.59126 11.7821 7.56288 11.7326 7.53399 11.6801C7.36453 11.3719 7.18239 10.9687 6.99397 10.4949C6.82675 10.0743 6.66407 9.62255 6.51265 9.17059C6.42179 8.8994 6.35504 8.68892 6.31886 8.5698C6.26536 8.39365 6.07919 8.29423 5.90304 8.34773C5.72689 8.40123 5.62747 8.5874 5.68097 8.76355Z" fill="#409347"/><path d="M25.3332 8.66667V12C25.3332 12.3682 25.6316 12.6667 25.9998 12.6667C26.368 12.6667 26.6665 12.3682 26.6665 12V8.66667C26.6665 8.29848 26.368 8 25.9998 8C25.6316 8 25.3332 8.29848 25.3332 8.66667Z" fill="#1583C4"/><path d="M3.33334 10.205L2.61899 8.41909C2.48225 8.07723 2.09427 7.91095 1.75241 8.0477C1.41056 8.18444 1.24428 8.57242 1.38102 8.91427L2.71435 12.2476C2.93786 12.8064 3.72882 12.8064 3.95232 12.2476L5.28566 8.91427C5.4224 8.57242 5.25612 8.18444 4.91427 8.0477C4.57241 7.91095 4.18443 8.07723 4.04769 8.41909L3.33334 10.205Z" fill="#1583C4"/><path d="M19.9994 8.66665C19.9994 8.66665 20.0469 9.55267 18.9286 9.99998C17.8104 10.4473 16.666 9.99998 16.666 9.99998C16.666 9.99998 17.4895 10.4836 17.9994 11.3333C18.5092 12.183 18.2424 12.6443 18.666 13.0679C19.0896 13.4915 19.8545 13.2026 20.1572 13.5657C20.46 13.9287 20.4362 14.3441 19.9994 14.6667C19.5625 14.9892 19.4238 14.8388 18.9286 14.5087C18.4335 14.1786 18.666 13.8489 18.666 13.8489C18.666 13.8489 17.8136 13.4075 17.1623 13.2169C16.666 12.2909 15.9994 12 15.9994 12V12.6666C15.9994 12.6666 17.3327 13.3504 17.3327 14C17.3327 14.2839 16.7164 15.2219 15.9994 15.8892C15.0761 16.7484 13.9994 16.9858 13.9994 16.9858V7.33332L17.9994 6.66665C17.9994 6.66665 16.1576 5.21759 20.3327 4.20433C24.5078 3.19106 25.3723 2.9809 25.3723 2.9809C26.0868 2.80735 26.3603 3.16921 25.9623 3.78855C25.9623 3.78855 25.93 3.92003 25.3327 4.66665C24.7354 5.41327 24.6041 5.54643 23.9994 5.99998C23.3946 6.45354 23.3946 6.1202 22.666 6.66665C21.9374 7.2131 21.9106 7.71103 21.3327 7.99998C20.7548 8.28893 19.9994 7.99998 19.9994 7.99998V8.66665ZM7.99904 8.66665V7.99998C7.99904 7.99998 7.24361 8.28893 6.66571 7.99998C6.08781 7.71103 6.06097 7.2131 5.33238 6.66665C4.60378 6.1202 4.60378 6.45354 3.99904 5.99998C3.39431 5.54643 3.26301 5.41327 2.66571 4.66665C2.06841 3.92003 2.0361 3.78855 2.0361 3.78855C1.63815 3.16921 1.91161 2.80735 2.62613 2.9809C2.62613 2.9809 3.49058 3.19106 7.66571 4.20433C11.8408 5.21759 9.99904 6.66665 9.99904 6.66665L13.9994 7.33332V16.9858C13.9994 16.9858 12.9223 16.7484 11.999 15.8892C11.282 15.2219 10.6657 14.2839 10.6657 14C10.6657 13.3504 11.999 12.6666 11.999 12.6666V12C11.999 12 11.3324 12.2909 10.8361 13.2169C10.1848 13.4075 9.33238 13.8489 9.33238 13.8489C9.33238 13.8489 9.56491 14.1786 9.06976 14.5087C8.57462 14.8388 8.43591 14.9892 7.99904 14.6667C7.56217 14.3441 7.53838 13.9287 7.84116 13.5657C8.14395 13.2026 8.90879 13.4915 9.33238 13.0679C9.75596 12.6443 9.48923 12.183 9.99904 11.3333C10.5089 10.4836 11.3324 9.99998 11.3324 9.99998C11.3324 9.99998 10.188 10.4473 9.06976 9.99998C7.95148 9.55267 7.99904 8.66665 7.99904 8.66665ZM12.3304 6.30182C12.3028 6.11622 11.9058 5.96771 12.0828 5.92218C12.4129 5.83722 12.5786 5.73217 12.7409 5.45221C12.8122 5.32917 12.4913 5.4098 12.5959 5.28856C13.1446 4.65229 13.2588 4.1581 12.9069 3.99217C12.1461 3.63337 12.0521 4.56066 12.0828 4.17868C12.1047 3.90613 12.1322 3.68729 12.1669 3.57697C12.32 3.08989 13.0969 3.1192 13.1446 3.02375C13.3398 2.6333 13.5639 2.5965 13.9994 2.66665C14.4348 2.7368 14.633 2.945 14.8062 3.29141C14.9374 3.55379 14.8997 3.9617 15.0431 4.35098C15.1358 4.60293 15.271 4.74247 15.3726 4.99453C15.4317 5.14137 14.9877 4.85103 15.0431 4.99453C15.1942 5.38641 15.5719 5.36954 15.7977 5.72386C15.8903 5.86916 15.4568 5.69769 15.4852 5.92218C15.5044 6.07379 15.9994 6.66665 15.9994 6.66665H11.9994C11.9994 6.66665 12.3544 6.46258 12.3304 6.30182Z" fill="#F8CE61"/><path fill-rule="evenodd" clip-rule="evenodd" d="M13.7538 2.63661C13.8285 2.64048 13.912 2.65258 13.9994 2.66665C14.1748 2.69491 14.3412 2.74714 14.4887 2.86495C14.631 2.97857 14.7251 3.12931 14.8062 3.29141C14.8666 3.41235 14.8911 3.55862 14.9178 3.75457C14.9538 4.01852 14.9667 4.09199 15.0011 4.21786C15.0138 4.26441 15.0274 4.30857 15.0431 4.35098C15.0684 4.41992 15.0931 4.47346 15.1288 4.5398L15.2639 4.79019L15.0378 4.96291C15.0372 4.96342 15.0367 4.96385 15.0363 4.96419C15.0363 4.96482 15.0363 4.96564 15.0363 4.96669C15.0366 4.97066 15.0374 4.97983 15.0431 4.99453C15.0787 5.08686 15.1156 5.14415 15.1596 5.19227C15.207 5.24415 15.2745 5.29806 15.3902 5.37156L15.6764 5.55344L15.4896 5.8365C15.4895 5.83669 15.489 5.83743 15.4883 5.83915C15.4876 5.84092 15.4864 5.84444 15.4852 5.8503C15.483 5.86209 15.4805 5.88491 15.4852 5.92218C15.4887 5.94967 15.5042 6.00275 15.6016 6.14588L15.9556 6.66664H13.5382L14.0902 7.31823L17.9994 6.66665C17.9434 6.62261 17.8681 6.54645 17.7974 6.45213C17.6417 6.24448 17.5198 5.96946 17.6287 5.65518C17.7253 5.37636 17.9787 5.1542 18.3049 4.95374C18.7652 4.67085 19.4405 4.42087 20.3327 4.20433L25.3723 2.9809C25.48 2.95474 25.5859 2.93212 25.6751 2.92524C25.7194 2.92182 25.7796 2.92046 25.8429 2.9339C25.9073 2.94757 26.0064 2.9837 26.08 3.08095C26.1552 3.18013 26.1625 3.2879 26.1558 3.35805C26.1494 3.42508 26.1284 3.48335 26.1111 3.52416C26.0788 3.60025 26.029 3.68438 25.9756 3.76835C25.9375 3.84789 25.8759 3.94575 25.7896 4.06834C25.6891 4.2111 25.5426 4.40427 25.3327 4.66665C25.0422 5.02974 24.8576 5.25449 24.6695 5.44284C24.4783 5.63433 24.2891 5.78264 23.9994 5.99998C23.8954 6.07792 23.8054 6.13878 23.7107 6.18598C23.6127 6.23479 23.5223 6.26283 23.4257 6.28699L23.4075 6.29152C23.1459 6.35638 22.992 6.42214 22.666 6.66665C22.4895 6.79906 22.41 6.86385 22.32 6.96068C22.2223 7.06572 22.1107 7.21046 21.8824 7.51104C21.7085 7.73996 21.5643 7.88419 21.3327 7.99998C21.2251 8.05379 21.1097 8.08852 20.9903 8.10812C20.7356 8.14993 20.4649 8.1239 20.217 8.06419C20.1227 8.04148 20.0459 8.01779 19.9994 7.99998L19.9997 8.66218L20.0001 8.67557C20.005 8.90231 19.9179 9.19053 19.7005 9.45934C19.516 9.68745 19.2583 9.86812 18.9286 9.99998L18.9274 10.0006L18.8917 10.0146L18.8559 10.0279L18.8543 10.0285C18.2466 10.2502 17.598 10.2392 17.0045 10.0994C16.9907 10.0961 16.9772 10.0929 16.9641 10.0896L16.924 10.1722C17.1074 10.3078 17.3198 10.4909 17.5301 10.7162C17.7089 10.9077 17.8676 11.1138 17.9994 11.3333C18.2208 11.7024 18.2849 11.9232 18.3741 12.4083C18.4091 12.5987 18.442 12.719 18.4839 12.8128C18.523 12.9005 18.5751 12.977 18.666 13.0679C18.6997 13.1016 18.7338 13.1299 18.7683 13.1542C18.8413 13.1898 18.9071 13.2229 18.9638 13.2521C19.0596 13.2852 19.1765 13.3092 19.3282 13.3265C19.3728 13.3312 19.394 13.3335 19.4153 13.3355C19.4353 13.3375 19.4553 13.3393 19.4946 13.3429C19.6442 13.3567 19.7646 13.3718 19.8576 13.3946C19.9477 13.4166 20.0675 13.458 20.1572 13.5657C20.2811 13.7141 20.3894 13.9138 20.3536 14.1505C20.3187 14.3804 20.1619 14.5466 19.9994 14.6667C19.9272 14.7199 19.8603 14.7642 19.7969 14.7945C19.7356 14.8237 19.6399 14.8586 19.5265 14.8407L19.5247 14.8405C19.5066 14.8376 19.4667 14.8314 19.4184 14.8127C19.376 14.7964 19.3376 14.7747 19.3037 14.7543C19.2379 14.7146 19.1296 14.6424 18.9376 14.5144L18.9286 14.5087C18.8419 14.4509 18.7524 14.3839 18.6921 14.3012C18.6574 14.2537 18.6234 14.1889 18.6124 14.1077C18.6013 14.0246 18.6186 13.956 18.636 13.9102L18.6509 13.8707L18.6645 13.8516C18.5855 13.8193 18.5097 13.7807 18.4368 13.7343C18.2839 13.6603 18.0992 13.5751 17.8995 13.4898C17.7786 13.4382 17.6619 13.3909 17.5504 13.3487C17.457 13.3133 17.3686 13.282 17.2853 13.2549L17.1644 13.2155L17.1005 13.1056C17.0213 12.9695 16.9359 12.8436 16.8454 12.7274C16.5186 12.3078 16.1984 12.0868 15.9994 12V12.6666C16.1663 12.7523 16.418 12.9019 16.6664 13.0897C16.8333 13.216 16.9776 13.3462 17.0877 13.4732C17.1898 13.5911 17.2935 13.7412 17.3243 13.907C17.3296 13.936 17.3327 13.9672 17.3327 14C17.3327 14.0943 17.2993 14.1812 17.2794 14.2288C17.2543 14.2886 17.2209 14.3534 17.1835 14.4191C17.1082 14.5514 17.0047 14.7088 16.8847 14.8741C16.6452 15.2039 16.3241 15.587 15.9994 15.8892C15.8876 15.9932 15.771 16.0909 15.6494 16.1825C15.2881 16.4547 14.9009 16.6637 14.5152 16.8172C14.4939 16.8257 14.4729 16.8339 14.4525 16.8417L14.3091 16.8968L13.3327 17.6813V16.0456L13.7855 16.2193C13.8689 16.2513 13.9409 16.2762 13.9997 16.2948V8.00922L13.3327 7.89806V6.66664H12.3208L12.332 6.32246C12.3322 6.316 12.3315 6.3092 12.3304 6.30182C12.326 6.27229 12.3191 6.25352 12.3102 6.23772L12.1521 5.95437L12.4311 5.78867C12.5472 5.71969 12.6415 5.62371 12.7409 5.45221C12.7564 5.42543 12.7508 5.40931 12.7495 5.40667L12.6581 5.22447L12.7787 5.06014C13.0127 4.74119 13.1123 4.48287 13.1186 4.30794C13.1215 4.22713 13.1046 4.17122 13.0788 4.12953C13.0527 4.08743 13.0034 4.03769 12.9069 3.99217C12.7719 3.92849 12.6595 3.90616 12.569 3.90701L11.5383 3.91677L12.3682 3.30533C12.45 3.24502 12.5463 3.20244 12.6442 3.16973C12.706 3.14908 12.831 3.11867 12.9155 3.09868C12.9617 3.08778 13.0037 3.07817 13.0311 3.07206C13.0416 3.06974 13.0532 3.06719 13.0623 3.06535C13.0914 3.05771 13.1107 3.05195 13.1248 3.04691C13.1287 3.04552 13.1318 3.04432 13.1342 3.04335C13.1367 3.03929 13.14 3.033 13.1446 3.02375L13.1465 3.02063C13.1961 2.92154 13.286 2.74159 13.4941 2.66817C13.5876 2.63517 13.6794 2.63276 13.7538 2.63661ZM13.0443 3.07001L13.1169 3.35597L13.0443 3.07001ZM13.1169 3.35597C13.0219 3.31636 12.9268 3.28655 12.832 3.26713L13.1169 3.35597ZM13.5023 3.60062C13.6153 3.52747 13.6873 3.42975 13.7413 3.32188C13.7444 3.31569 13.7472 3.31 13.7499 3.30476C13.7836 3.30808 13.8292 3.31444 13.8937 3.32482C14.0069 3.34306 14.0483 3.36637 14.0727 3.38589C14.1024 3.4096 14.1444 3.45798 14.2102 3.58954C14.2094 3.58781 14.2147 3.59716 14.2237 3.63795C14.233 3.68026 14.2434 3.74319 14.2573 3.84463C14.2939 4.113 14.3114 4.22282 14.3579 4.39326C14.3753 4.45699 14.3951 4.51956 14.4178 4.58131C14.4271 4.60644 14.4364 4.63047 14.4459 4.65385C14.3584 4.81996 14.3407 5.02534 14.4214 5.23447C14.4819 5.39128 14.5589 5.52316 14.6674 5.64194C14.715 5.6941 14.7666 5.74127 14.8214 5.78532C14.8136 5.85516 14.8146 5.92713 14.8234 5.99998H13.1761C13.2267 5.93421 13.2736 5.86313 13.318 5.78652C13.3995 5.64596 13.4346 5.48062 13.4114 5.3185C13.6266 4.99537 13.7731 4.65631 13.7848 4.33205C13.7918 4.14034 13.7514 3.9494 13.6455 3.77846C13.605 3.71309 13.5569 3.65387 13.5023 3.60062ZM14.6664 8.12033V16.016C14.8659 15.9123 15.0616 15.7907 15.2483 15.65C15.3521 15.5718 15.4513 15.4889 15.5455 15.4012C15.8308 15.1357 16.1236 14.7875 16.3452 14.4824C16.4557 14.3302 16.5445 14.1941 16.604 14.0895C16.6246 14.0533 16.6403 14.0233 16.6517 13.9995C16.6392 13.9793 16.6182 13.9494 16.5838 13.9097C16.5124 13.8273 16.4054 13.7282 16.2642 13.6214C16.0487 13.4584 15.8305 13.3291 15.6955 13.2599L15.333 13.074V10.9817L16.2664 11.389C16.5856 11.5283 16.9897 11.8277 17.3714 12.3177C17.4556 12.4259 17.5356 12.5404 17.611 12.6613C17.6586 12.6779 17.707 12.6954 17.7562 12.7138C17.7425 12.6543 17.7302 12.5928 17.7184 12.5289C17.6374 12.0882 17.5937 11.9524 17.428 11.6763C17.3233 11.5018 17.1937 11.3328 17.0428 11.1711C16.7642 10.8727 16.4897 10.6693 16.3288 10.5748L16.0632 10.4189L16.6223 9.26695L16.9091 9.37906C16.9397 9.39104 17.0252 9.41935 17.1574 9.45048C17.6576 9.56833 18.1684 9.56882 18.6248 9.4026C18.6252 9.40248 18.6255 9.40236 18.6258 9.40223L18.6536 9.39185L18.6814 9.38099C18.6817 9.38086 18.6821 9.38072 18.6824 9.38059C18.9272 9.28253 19.0828 9.16298 19.1821 9.04016C19.3116 8.88001 19.3349 8.74182 19.3334 8.68907L19.3329 8.66664L19.333 7.12028L14.6664 7.89806V7.99844L14.7866 8.14037L14.6664 8.12033ZM19.4952 7.09325L20.2379 7.3773C20.25 7.38194 20.2973 7.39781 20.373 7.41605C20.563 7.4618 20.7403 7.47356 20.8823 7.45026C20.9458 7.43984 20.9958 7.42326 21.0349 7.40369C21.1402 7.35105 21.2104 7.29361 21.3515 7.10782C21.5719 6.81766 21.7063 6.64169 21.8318 6.5067C21.965 6.36349 22.0855 6.26894 22.2664 6.13331C22.6526 5.84363 22.8859 5.734 23.2466 5.64456L23.264 5.64023C23.3352 5.62242 23.3748 5.60849 23.4135 5.58922C23.4554 5.56836 23.5085 5.53505 23.5997 5.46664C23.8872 5.25104 24.0428 5.12696 24.1978 4.97178C24.3559 4.81345 24.5188 4.61724 24.8125 4.25018C25.0095 4.00394 25.1434 3.82711 25.233 3.70086L20.4903 4.85218C19.6258 5.06199 19.0278 5.29197 18.6539 5.52173C18.3547 5.70558 18.2757 5.82432 18.2586 5.87348C18.2536 5.88795 18.2389 5.9297 18.3308 6.0522C18.3504 6.07842 18.3698 6.10063 18.3859 6.11748C18.401 6.13324 18.4103 6.14125 18.4118 6.14255C18.4118 6.14259 18.4119 6.14271 18.4118 6.14255L19.5983 7.07607L19.4952 7.09325ZM25.4992 3.25914C25.4992 3.25913 25.499 3.25969 25.4986 3.26084L25.4992 3.25914ZM19.3731 14.0035C19.4718 14.0692 19.5385 14.1135 19.5852 14.1438C19.5911 14.1396 19.5972 14.1351 19.6037 14.1303C19.6508 14.0956 19.6759 14.0695 19.6884 14.0535C19.6861 14.0492 19.6831 14.044 19.6792 14.0377C19.6345 14.0287 19.5596 14.0184 19.4339 14.0068C19.4338 14.0068 19.434 14.0068 19.4339 14.0068M19.6945 14.0687C19.6944 14.0687 19.6942 14.0679 19.694 14.0664L19.6945 14.0687ZM19.3731 14.0035L19.3746 14.0014L19.3731 14.0035ZM10.5073 12.621C10.5554 12.6053 10.6028 12.5906 10.6492 12.577L10.9529 13.1558L10.7527 13.3182L10.2489 12.9019C10.2728 12.8573 10.2973 12.8134 10.3224 12.7703L10.3864 12.6604L10.5073 12.621ZM9.02623 13.2568C9.09054 13.2235 9.16693 13.1852 9.25268 13.1435L9.58226 13.7213C9.50332 13.7736 9.42089 13.8164 9.33469 13.8515L9.33995 13.8595C9.33995 13.8595 9.33995 13.8595 9.33995 13.8595C9.33818 13.8565 9.33617 13.854 9.33469 13.8515C9.33026 13.8534 9.32565 13.8552 9.3212 13.857L9.12137 13.9979L9.15596 13.984M8.74064 14.1489C8.74029 14.148 8.73994 14.1471 8.73958 14.1461C8.73694 14.1393 8.73316 14.1288 8.72953 14.1158C8.72767 14.1091 8.72553 14.1007 8.72357 14.0907C8.72165 14.081 8.71952 14.0679 8.7183 14.0524C8.71711 14.0373 8.71643 14.0156 8.71928 13.9898C8.72207 13.9644 8.72906 13.9276 8.74789 13.8867C8.76754 13.8441 8.80036 13.7969 8.85181 13.7587C8.85212 13.7585 8.85243 13.7583 8.85275 13.7581C8.8247 13.7788 8.80135 13.8028 8.7827 13.828C8.753 13.8681 8.73786 13.9074 8.72987 13.9356C8.72182 13.9641 8.719 13.9886 8.71794 14.0057C8.7159 14.0385 8.71925 14.0645 8.7212 14.0772C8.72344 14.0917 8.72623 14.1033 8.72816 14.1107C8.73021 14.1185 8.73221 14.125 8.73375 14.1297C8.73625 14.1374 8.73894 14.1445 8.74064 14.1489C8.74029 14.148 8.73994 14.1471 8.73958 14.1461L8.74126 14.1504L9.05058 14.0263M8.74064 14.1489L8.75473 14.186L8.78791 14.2331C8.79203 14.2383 8.7991 14.2453 8.80715 14.254C8.81211 14.2593 8.8197 14.267 8.82957 14.2758C8.83463 14.2803 8.8411 14.2857 8.84888 14.2916C8.85651 14.2974 8.86684 14.3048 8.87963 14.3124C8.89208 14.3199 8.91011 14.3296 8.93299 14.3382C8.9554 14.3466 8.98897 14.3566 9.03084 14.359C9.07417 14.3616 9.12856 14.3562 9.18512 14.3313C9.18545 14.3311 9.18578 14.331 9.18611 14.3308C9.20743 14.3213 9.22875 14.3092 9.24941 14.2938C9.25331 14.2909 9.25711 14.288 9.2608 14.285M8.78877 14.2325L9.14012 13.9947L9.36308 13.9102C9.36556 13.9169 9.36867 13.9259 9.37169 13.9367C9.3749 13.9482 9.38062 13.9709 9.38292 14.0001C9.3841 14.0153 9.38478 14.0369 9.38194 14.0628C9.37914 14.0881 9.37215 14.125 9.35333 14.1658C9.34436 14.1853 9.33266 14.2056 9.31769 14.2257C9.30516 14.2413 9.27851 14.2694 9.2627 14.2834C9.26238 14.2837 9.26207 14.284 9.26176 14.2842M9.2627 14.2834C9.28461 14.2654 9.30277 14.2457 9.31769 14.2257C9.31799 14.2253 9.31828 14.225 9.31856 14.2246C9.34827 14.1845 9.36341 14.1452 9.3714 14.117C9.37944 14.0885 9.38227 14.064 9.38333 14.0469C9.38441 14.0294 9.38394 14.0145 9.38319 14.0036C9.38243 13.9924 9.38121 13.9829 9.38006 13.9754C9.37782 13.9609 9.37504 13.9493 9.3731 13.9419C9.37105 13.9341 9.36905 13.9276 9.36751 13.9229C9.36594 13.9181 9.36441 13.9138 9.36308 13.9102L9.36232 13.9081C9.36142 13.9058 9.36063 13.9038 9.35999 13.9022C9.3554 13.8907 9.3511 13.8819 9.34855 13.8768C9.34535 13.8704 9.34276 13.8644 9.33995 13.8595L9.15596 13.984M8.78877 14.2325L8.79064 14.2349C8.79268 14.2374 8.79708 14.2428 8.80301 14.2494C8.80598 14.2527 8.81105 14.2582 8.81768 14.2647C8.82108 14.268 8.8258 14.2725 8.83161 14.2776C8.83712 14.2824 8.84583 14.2896 8.85713 14.2977C8.86705 14.3048 8.88734 14.3185 8.91552 14.331C8.93012 14.3375 8.9516 14.3457 8.97859 14.3517C9.00518 14.3576 9.04467 14.3629 9.09193 14.357C9.12179 14.3533 9.15395 14.3451 9.18611 14.3308C9.20626 14.3209 9.24278 14.2985 9.2608 14.285M8.93027 13.7155C8.90955 13.7244 8.87164 13.7452 8.85275 13.7581C8.87173 13.744 8.89286 13.7316 8.91614 13.7213C8.92087 13.7192 8.92558 13.7173 8.93027 13.7155ZM8.93254 13.7146C8.95858 13.7047 8.98396 13.6988 9.0078 13.6957C8.98861 13.6989 8.95212 13.7079 8.93254 13.7146ZM8.93254 13.7146C8.93178 13.7149 8.93103 13.7152 8.93027 13.7155C8.93064 13.7153 8.931 13.7151 8.93136 13.715C8.93174 13.7149 8.93214 13.7147 8.93254 13.7146ZM9.28133 13.8663L9.05942 14.0227L9.28133 13.8663ZM9.22727 13.7436L9.01525 13.2625L9.02623 13.2568M9.22727 13.7436C9.22549 13.7425 9.22365 13.7414 9.22174 13.7402C9.21289 13.7349 9.20072 13.7282 9.1857 13.7215C9.1711 13.7151 9.14961 13.7068 9.12262 13.7008C9.09604 13.6949 9.05655 13.6896 9.00928 13.6955C9.0088 13.6956 9.00831 13.6957 9.0078 13.6957C9.0303 13.6928 9.05143 13.6924 9.07043 13.6936C9.11229 13.696 9.14586 13.706 9.16827 13.7144C9.19115 13.723 9.20929 13.7328 9.22174 13.7402C9.22365 13.7414 9.22549 13.7425 9.22727 13.7436L9.28133 13.8663L9.22727 13.7436Z" fill="#EEC55B"/><path d="M10.6665 8.66668V5.33335C10.6665 5.33335 11.3311 5.98537 12.2169 5.98537C13.1028 5.98537 13.9998 5.33335 13.9998 5.33335C13.9998 5.33335 14.8353 5.98537 15.6679 5.98537C16.5006 5.98537 17.3331 5.33335 17.3331 5.33335V8.66668C17.3331 12 13.9998 13.3334 13.9998 13.3334C13.9998 13.3334 10.6665 12 10.6665 8.66668Z" fill="#F2F2F2"/><path d="M17.3331 5.33335H10.6665V8.00002H17.3331V5.33335Z" fill="#1E357F"/><path fill-rule="evenodd" clip-rule="evenodd" d="M10.6665 8.00002L11.9997 8.00002V13.3334H10.6663L10.6665 8.00002ZM13.333 8.00002H14.6663V13.3334H13.333V8.00002ZM15.9997 8.00002L17.3331 8.00002L17.333 13.3334H15.9997V8.00002Z" fill="#BC1443"/></g><defs><clipPath id="clip0_1310_8012"><rect width="28" height="20" fill="#FFFFFF"/></clipPath></defs></svg>