<svg fill="none" xmlns="http://www.w3.org/2000/svg" viewBox="0 0 28 20"><g clip-path="url(#clip0_503_2709)"><path d="M3.28831e-05 0H28C28 6.66667 28 13.3333 28 20C18.6667 20 9.33334 20 0 20C1.0148e-05 13.3333 -7.94359e-06 6.66667 3.28831e-05 0Z" fill="#FFFFFF"/><path fill-rule="evenodd" clip-rule="evenodd" d="M2.73995e-05 6.66667H28V0H3.28831e-05L2.73995e-05 6.66667Z" fill="#FFA44A"/><path fill-rule="evenodd" clip-rule="evenodd" d="M0 20H28V13.3333H2.73995e-05L0 20Z" fill="#1A9F0B"/><path fill-rule="evenodd" clip-rule="evenodd" d="M14 12C15.1046 12 16 11.1046 16 10C16 8.89543 15.1046 8 14 8C12.8955 8 12 8.89543 12 10C12 11.1046 12.8955 12 14 12Z" fill="#181A93" fill-opacity="0.15"/><path fill-rule="evenodd" clip-rule="evenodd" d="M16.6667 10C16.6667 11.4728 15.4728 12.6667 14 12.6667C12.5273 12.6667 11.3334 11.4728 11.3334 10C11.3334 8.52724 12.5273 7.33333 14 7.33333C15.4728 7.33333 16.6667 8.52724 16.6667 10ZM16 10C16 11.1046 15.1046 12 14 12C12.8955 12 12 11.1046 12 10C12 8.89543 12.8955 8 14 8C15.1046 8 16 8.89543 16 10Z" fill="#181A93"/><path fill-rule="evenodd" clip-rule="evenodd" d="M14 10.6667C14.3682 10.6667 14.6667 10.3682 14.6667 10C14.6667 9.63181 14.3682 9.33333 14 9.33333C13.6318 9.33333 13.3334 9.63181 13.3334 10C13.3334 10.3682 13.6318 10.6667 14 10.6667Z" fill="#181A93"/></g><defs><clipPath id="clip0_503_2709"><rect width="28" height="20" fill="#FFFFFF"/></clipPath></defs></svg>