<svg fill="none" xmlns="http://www.w3.org/2000/svg" viewBox="0 0 28 20"><g clip-path="url(#clip0_503_2652)"><path d="M-7.93673e-05 3.80911e-06C-7.93673e-05 3.80911e-06 0.89535 3.80911e-06 1.99992 3.80911e-06H25.9999C27.1045 3.80911e-06 27.9999 3.80911e-06 27.9999 3.80911e-06V20C27.9999 20 27.1045 20 25.9999 20H1.99992C0.895351 20 -7.93673e-05 20 -7.93673e-05 20V3.80911e-06Z" fill="#FFFFFF"/><path fill-rule="evenodd" clip-rule="evenodd" d="M-7.93673e-05 13.3333L27.9999 3.80911e-06H-7.93673e-05V13.3333Z" fill="#33CC4D"/><path fill-rule="evenodd" clip-rule="evenodd" d="M-7.93673e-05 20H27.9999V6.66667L-7.93673e-05 20Z" fill="#2DAFE4"/><path fill-rule="evenodd" clip-rule="evenodd" d="M7.36539 20.0078L28.012 7.06561L27.9999 3.80911e-06L20.7164 -0.021553L-0.016474 12.9531L-7.93673e-05 20L7.36539 20.0078Z" fill="#FFD84F"/><path fill-rule="evenodd" clip-rule="evenodd" d="M4.3123 19.992L28.012 5.12546L27.9999 3.80911e-06L23.779 -0.00551209L-0.0209351 14.8212L-7.93673e-05 20L4.3123 19.992Z" fill="#262626"/></g><defs><clipPath id="clip0_503_2652"><rect width="28" height="20" fill="#FFFFFF"/></clipPath></defs></svg>