<svg fill="none" xmlns="http://www.w3.org/2000/svg" viewBox="0 0 28 20"><g clip-path="url(#clip0_503_2600)"><path d="M0 0H28C28 6.66667 28 13.3333 28 20C18.6667 20 9.33336 20 2.35736e-05 20C2.35736e-05 13.3333 0.000175511 6.66667 0 0Z" fill="#FFFFFF"/><path fill-rule="evenodd" clip-rule="evenodd" d="M2.35736e-05 5.33333H28V0H0L2.35736e-05 5.33333Z" fill="#083D96"/><path fill-rule="evenodd" clip-rule="evenodd" d="M2.35736e-05 14.6667H28V9.33333H2.35736e-05V14.6667Z" fill="#37AE39"/><path fill-rule="evenodd" clip-rule="evenodd" d="M2.35736e-05 20H28V14.6667H2.35736e-05V20Z" fill="#FFD13F"/><path fill-rule="evenodd" clip-rule="evenodd" d="M10.6667 20H17.3334V0H10.6667V20Z" fill="#E42346"/><path fill-rule="evenodd" clip-rule="evenodd" d="M4.66669 3.44667L3.49112 4.2847L3.92487 2.9077L2.76458 2.04863L4.20822 2.03563L4.66669 0.666667L5.12516 2.03563L6.5688 2.04863L5.40851 2.9077L5.84226 4.2847L4.66669 3.44667Z" fill="#FFD03B"/></g><defs><clipPath id="clip0_503_2600"><rect width="28" height="20" fill="#FFFFFF"/></clipPath></defs></svg>