<svg fill="none" xmlns="http://www.w3.org/2000/svg" viewBox="0 0 28 20"><g clip-path="url(#clip0_503_4429)"><path d="M2.51234e-05 0H28C28 6.66667 28 13.3333 28 20C18.6667 20 9.33333 20 0 20C0 13.3333 -0.000161925 6.66667 2.51234e-05 0Z" fill="#FFFFFF"/><path d="M2.51234e-05 0H28V4H0L2.51234e-05 0Z" fill="#FA2222"/><path d="M0 8H28V12H0V8Z" fill="#FA2222"/><path d="M0 16V20H28V16H0Z" fill="#FA2222"/><path fill-rule="evenodd" clip-rule="evenodd" d="M2.51234e-05 0L13.3333 10L0 20L2.51234e-05 0Z" fill="#1D63F9"/><path fill-rule="evenodd" clip-rule="evenodd" d="M4.66683 11.2741L2.70755 12.6967L3.45511 10.3937L1.49664 8.96997L3.91794 8.96927L4.66683 6.66669L5.41572 8.96927L7.83702 8.96997L5.87855 10.3937L6.62611 12.6967L4.66683 11.2741Z" fill="#FBFBFB"/></g><defs><clipPath id="clip0_503_4429"><rect width="28" height="20" fill="#FFFFFF"/></clipPath></defs></svg>