<svg fill="none" xmlns="http://www.w3.org/2000/svg" viewBox="0 0 28 20"><g clip-path="url(#clip0_503_2988)"><path d="M1.01328e-06 0H28C28 6.66667 28 13.3333 28 20C18.6667 20 9.33333 20 0 20C0 13.3333 -6.53079e-06 6.66667 1.01328e-06 0Z" fill="#FFFFFF"/><path fill-rule="evenodd" clip-rule="evenodd" d="M0 8H28V0H1.01328e-06L0 8Z" fill="#108753"/><path fill-rule="evenodd" clip-rule="evenodd" d="M0 20H28V12H0V20Z" fill="#108753"/><path fill-rule="evenodd" clip-rule="evenodd" d="M16 20H12V12H0V8H12V0H16V8H28V12H16V20Z" fill="#FFFFFF"/><path fill-rule="evenodd" clip-rule="evenodd" d="M14.6667 20H13.3333V10.6667H0V9.33333H13.3333V0H14.6667V9.33333H28V10.6667H14.6667V20Z" fill="#262626"/><path fill-rule="evenodd" clip-rule="evenodd" d="M13.3333 20H12V9.33333H0V8H12V0H13.3333V8H28V9.33333H13.3333V20Z" fill="#FCD449"/><path fill-rule="evenodd" clip-rule="evenodd" d="M14 14.6667C16.5773 14.6667 18.6667 12.5773 18.6667 10C18.6667 7.42267 16.5773 5.33333 14 5.33333C11.4227 5.33333 9.33333 7.42267 9.33333 10C9.33333 12.5773 11.4227 14.6667 14 14.6667Z" fill="#E02C42"/><path fill-rule="evenodd" clip-rule="evenodd" d="M14 7.33333C13.9291 7.33333 13.8591 7.33608 13.7898 7.34146C13.4228 7.36998 13.1021 7.09552 13.0735 6.72843C13.045 6.36135 13.3195 6.04065 13.6866 6.01213C13.7901 6.00409 13.8946 6 14 6C14.1054 6 14.2099 6.00409 14.3134 6.01213C14.6805 6.04065 14.955 6.36135 14.9265 6.72843C14.8979 7.09552 14.5772 7.36998 14.2102 7.34146C14.1409 7.33608 14.0709 7.33333 14 7.33333ZM12.3419 7.03205C12.5811 7.31191 12.5482 7.73274 12.2683 7.97199C12.162 8.06289 12.0629 8.16201 11.972 8.26835C11.7327 8.54821 11.3119 8.58114 11.0321 8.34189C10.7522 8.10264 10.7193 7.68181 10.9585 7.40195C11.0945 7.24283 11.2428 7.09454 11.4019 6.95851C11.6818 6.71926 12.1026 6.75219 12.3419 7.03205ZM15.6581 7.03205C15.8974 6.75219 16.3182 6.71927 16.5981 6.95852C16.7572 7.09454 16.9055 7.24283 17.0415 7.40195C17.2807 7.68181 17.2478 8.10264 16.968 8.34189C16.6881 8.58114 16.2673 8.54821 16.028 8.26835C15.9371 8.16201 15.838 8.06289 15.7317 7.97199C15.4518 7.73274 15.4189 7.31191 15.6581 7.03205ZM10.7284 9.07355C11.0955 9.10207 11.37 9.42277 11.3415 9.78985C11.3361 9.85907 11.3333 9.92915 11.3333 10C11.3333 10.0709 11.3361 10.1409 11.3415 10.2102C11.37 10.5772 11.0955 10.8979 10.7284 10.9265C10.3613 10.955 10.0406 10.6805 10.0121 10.3134C10.0041 10.2099 10 10.1054 10 10C10 9.89465 10.0041 9.79012 10.0121 9.68658C10.0406 9.31949 10.3613 9.04503 10.7284 9.07355ZM17.2716 9.07355C17.6387 9.04503 17.9594 9.31949 17.9879 9.68658C17.9959 9.79012 18 9.89465 18 10C18 10.1054 17.9959 10.2099 17.9879 10.3134C17.9594 10.6805 17.6387 10.955 17.2716 10.9265C16.9045 10.8979 16.63 10.5772 16.6585 10.2102C16.6639 10.1409 16.6667 10.0709 16.6667 10C16.6667 9.92915 16.6639 9.85907 16.6585 9.78985C16.63 9.42277 16.9045 9.10207 17.2716 9.07355ZM11.0321 11.6581C11.3119 11.4189 11.7327 11.4518 11.972 11.7317C12.0629 11.838 12.162 11.9371 12.2683 12.028C12.5482 12.2673 12.5811 12.6881 12.3419 12.9679C12.1026 13.2478 11.6818 13.2807 11.4019 13.0415C11.2428 12.9055 11.0945 12.7572 10.9585 12.5981C10.7193 12.3182 10.7522 11.8974 11.0321 11.6581ZM16.968 11.6581C17.2478 11.8974 17.2807 12.3182 17.0415 12.5981C16.9055 12.7572 16.7572 12.9055 16.5981 13.0415C16.3182 13.2807 15.8974 13.2478 15.6581 12.968C15.4189 12.6881 15.4518 12.2673 15.7317 12.028C15.838 11.9371 15.9371 11.838 16.028 11.7317C16.2673 11.4518 16.6881 11.4189 16.968 11.6581ZM13.0735 13.2716C13.1021 12.9045 13.4228 12.63 13.7898 12.6585C13.8591 12.6639 13.9291 12.6667 14 12.6667C14.0709 12.6667 14.1409 12.6639 14.2102 12.6585C14.5772 12.63 14.8979 12.9045 14.9265 13.2716C14.955 13.6387 14.6805 13.9594 14.3134 13.9879C14.2099 13.9959 14.1054 14 14 14C13.8946 14 13.7901 13.9959 13.6866 13.9879C13.3195 13.9594 13.045 13.6387 13.0735 13.2716Z" fill="#0E673F"/><path fill-rule="evenodd" clip-rule="evenodd" d="M14 11.3333C14.7364 11.3333 14.6667 10.7364 14.6667 10C14.6667 9.26362 14.7364 8.66667 14 8.66667C13.2636 8.66667 13.3333 9.26362 13.3333 10C13.3333 10.7364 13.2636 11.3333 14 11.3333Z" fill="#0E673F"/></g><defs><clipPath id="clip0_503_2988"><rect width="28" height="20" fill="#FFFFFF"/></clipPath></defs></svg>