<svg fill="none" xmlns="http://www.w3.org/2000/svg" viewBox="0 0 28 20"><g clip-path="url(#clip0_1310_7960)"><path d="M28.0001 0H0.00012207V20H28.0001V0Z" fill="#FFFFFF"/><path d="M28.0001 0H0.00012207V20H28.0001V0Z" fill="#0637C5"/><path fill-rule="evenodd" clip-rule="evenodd" d="M5.33362 16H25.3336V17.3333H4.00028L5.33362 16ZM15.3336 8C19.3336 5.33333 24.0003 2.66667 24.0003 2.66667C24.0003 2.66667 21.8101 6.76459 22.0003 8.66667C22.2545 11.209 25.3336 14.6667 25.3336 14.6667H6.66695C6.66695 14.6667 11.3336 10.6667 15.3336 8Z" fill="#FDD33F"/><path fill-rule="evenodd" clip-rule="evenodd" d="M5.33372 12L4.39091 12.2762L4.66705 11.3334L4.39091 10.3905L5.33372 10.6667L6.27653 10.3905L6.00039 11.3334L6.27653 12.2762L5.33372 12Z" fill="#FFFFFF"/><path fill-rule="evenodd" clip-rule="evenodd" d="M6.66705 3.33335L5.72424 3.6095L6.00039 2.66669L5.72424 1.72388L6.66705 2.00002L7.60986 1.72388L7.33372 2.66669L7.60986 3.6095L6.66705 3.33335Z" fill="#FFFFFF"/><path fill-rule="evenodd" clip-rule="evenodd" d="M9.33372 7.33335L8.39091 7.60949L8.66705 6.66669L8.39091 5.72388L9.33372 6.00002L10.2765 5.72388L10.0004 6.66669L10.2765 7.60949L9.33372 7.33335Z" fill="#FFFFFF"/><path fill-rule="evenodd" clip-rule="evenodd" d="M2.66705 7.33335L1.72424 7.60949L2.00039 6.66669L1.72424 5.72388L2.66705 6.00002L3.60986 5.72388L3.33372 6.66669L3.60986 7.60949L2.66705 7.33335Z" fill="#FFFFFF"/></g><defs><clipPath id="clip0_1310_7960"><rect width="28" height="20" fill="#FFFFFF"/></clipPath></defs></svg>