<svg width="16" height="16" fill="none" xmlns="http://www.w3.org/2000/svg"><path fill-rule="evenodd" clip-rule="evenodd" d="M9.27 5.663v-.2c.003-.575.004-.938-.203-1.254-.204-.288-.555-.462-1.045-.434-.532.029-1.103.378-1.25 1.017-.027.147-.113.29-.29.322l-1.624-.207c-.116-.026-.292-.115-.235-.347C4.972 2.725 6.54 2.086 8.022 2h.349c.813 0 1.858.233 2.526.843.74.69.734 1.597.727 2.59l-.001.29V8.34c0 .734.278 1.086.576 1.464l.062.078c.087.146.116.318-.03.437-.32.29-.929.813-1.278 1.103-.116.088-.325.098-.406.03-.425-.356-.584-.581-.807-.896a18.614 18.614 0 0 0-.15-.21c-.553.581-1.017.902-1.57 1.076a4.694 4.694 0 0 1-1.19.144c-1.393 0-2.497-.869-2.497-2.587 0-1.366.727-2.295 1.8-2.734 1.074-.44 2.634-.58 3.136-.583h.001zm4.518 8.421c.606-.513.876-1.446.876-1.93v-.001c0-.202-.029-.281-.053-.309-.127-.147-1.013-.285-1.78-.055a2.072 2.072 0 0 0-.58.285c-.136.093-.108.213.027.202.096-.02.21-.032.336-.045.069-.008.141-.015.216-.025.473-.04 1.026-.053 1.16.121.19.23-.216 1.23-.392 1.662-.054.136.068.188.19.095zm-.958-.701c.192-.11.377-.232.553-.367.243-.174.028-.446-.217-.336-.056.02-.117.046-.177.07-.054.023-.108.046-.158.065-1.552.608-3.18.89-4.69.89-2.401 0-4.72-.661-6.593-1.754-.174-.096-.297.08-.149.202 1.739 1.58 4.03 2.525 6.592 2.525 1.592 0 3.424-.445 4.839-1.295zM9.27 7.227c.001.91.002 1.359-.319 1.897-.204.409-.482.633-.93.757a.842.842 0 0 1-.232.03c-.638 0-1.016-.495-1.016-1.222 0-.929.552-1.368 1.249-1.57a5.637 5.637 0 0 1 1.247-.118v.226z" fill="#001018"/></svg>