<svg width="16" height="16" fill="none" xmlns="http://www.w3.org/2000/svg"><path fill-rule="evenodd" clip-rule="evenodd" d="M14 2.667h-2.667V1.333H10v1.334H6V1.333H4.667v1.334H2a.667.667 0 0 0-.667.666V14c0 .368.299.667.667.667h12a.667.667 0 0 0 .667-.667V3.333A.667.667 0 0 0 14 2.667zm-8.667 6V7.333H4v1.334h1.333zm0 1.333v1.333H4V10h1.333zm3.334-2.667H7.333v1.334h1.334V7.333zM7.333 10h1.334v1.333H7.333V10zM12 8.667V7.333h-1.333v1.334H12zM12 10v1.333h-1.333V10H12zM2.667 5.333h10.666v8H2.667v-8z" fill="#001018"/></svg>