<svg width="16" height="16" fill="none" xmlns="http://www.w3.org/2000/svg"><path fill-rule="evenodd" clip-rule="evenodd" d="M1.333 8a6.667 6.667 0 1 0 13.333 0A6.667 6.667 0 0 0 1.333 8zm2.69-3.555v.001zm0 0A5.32 5.32 0 0 1 8 2.668 5.328 5.328 0 0 1 12.41 5H8a3 3 0 0 0-2.69 1.672L4.023 4.446zm2.887 8.777 1.287-2.228a3 3 0 0 1-2.823-1.543L3.196 5.68a5.335 5.335 0 0 0 3.713 7.542h.001zm1.483.097a5.333 5.333 0 0 0 4.675-6.986h-2.573a2.998 2.998 0 0 1 .077 3.212L8.393 13.32zm1.05-4.486-.014.026a1.666 1.666 0 0 1-2.872-.026l-.016-.028a1.667 1.667 0 1 1 2.902.028z" fill="#001018"/></svg>