<svg width="16" height="16" fill="none" xmlns="http://www.w3.org/2000/svg"><path fill-rule="evenodd" clip-rule="evenodd" d="M14.667 8A6.667 6.667 0 0 0 8 1.333c-1.393 0-2.83.532-3.553 1.254.518-.306 1.145-.519 1.882-.637 1.668-.243 3.422.293 4.655 1.47.276.262.52.558.723.88.816 1.323.738 2.987.103 3.968-.926 1.425-2.993 1.915-4.275.668a2.263 2.263 0 0 1-.686-1.587 1.98 1.98 0 0 1 .167-.833c.045-.103.352-.69.49-.66-.351-.075-1.009.07-1.47.757-.413.616-.39 1.565-.135 2.238a3.563 3.563 0 0 1-.326-1.054C5.247 5.578 6.74 3.684 8.111 3.213c-.739-.645-2.594-.6-3.971.413-.803.591-1.377 1.43-1.68 2.43.045-.563.258-1.4.693-2.256-.411.213-.922.837-1.233 1.463A6.667 6.667 0 1 0 14.667 8zM4.583 5.137v-.001zm0 0c-1.502.52-2.334 2.113-1.719 4.306a5.336 5.336 0 0 0 4.97 3.888l.166.002a5.333 5.333 0 0 0 5.323-5.002l.006-.142c-.086.233-.188.45-.308.654l-.094.151c-1.402 2.16-4.454 2.717-6.32.899a3.595 3.595 0 0 1-.64-.838l-.072-.134C4.738 8.663 4.173 8.037 4.2 7.043c.018-.66.153-1.306.383-1.906z" fill="#001018"/></svg>