<svg width="16" height="16" fill="none" xmlns="http://www.w3.org/2000/svg"><path fill-rule="evenodd" clip-rule="evenodd" d="M11.64 2.42A2.333 2.333 0 0 0 8 2.033a2.333 2.333 0 0 0-3.775 2.633H2a.667.667 0 0 0-.667.666v2c0 .369.299.667.667.667h12a.667.667 0 0 0 .667-.667v-2A.667.667 0 0 0 14 4.667h-2.225a2.333 2.333 0 0 0-.136-2.248zm1.693 10.913V8.667H2.667v4.666c0 .368.298.667.666.667h9.334a.667.667 0 0 0 .666-.667zm-7-10.666a1 1 0 0 0-.096 1.995l.096.005h1v-1a1 1 0 0 0-.904-.996l-.096-.004zm3.238.004.096-.004.096.004a1 1 0 0 1 0 1.991l-.096.005h-1v-1l.004-.096a1 1 0 0 1 .9-.9z" fill="#001018"/></svg>