<svg width="16" height="16" fill="none" xmlns="http://www.w3.org/2000/svg"><path fill-rule="evenodd" clip-rule="evenodd" d="M1.46 13.74c.873.873 2.452.667 4.281-.327a6.002 6.002 0 0 0 8.238-3.375h-3.187c-.417.79-1.375 1.331-2.375 1.331-1.416 0-2.583-1.164-2.624-2.496V8.75h7.864l.094-.002h.536a5.975 5.975 0 0 0-.639-3.533l.007-.016a.458.458 0 0 1 .012-.027c.624-1.498.666-2.746-.084-3.494-.812-.811-2.731-.595-4.794.34A6.003 6.003 0 0 0 2.477 6.69c.249-.296 1.391-1.62 2.691-2.35.034 0 .26-.138.344-.19-.135.106-.649.62-.76.731a15.47 15.47 0 0 0-2.417 3.278C1.041 10.506.564 12.847 1.46 13.74zm1.229-3.702a6.02 6.02 0 0 0 2.648 3.161l-.002.002c-1.334.706-2.417.832-2.959.29-.66-.66-.461-1.932.313-3.453zm10.759-5.177.01-.022c.5-1.082.542-1.996.083-2.538-.579-.578-1.693-.5-3.014.112a6.021 6.021 0 0 1 2.921 2.448zm-2.406 2.266v.041H5.835v-.04c.083-1.29 1.29-2.414 2.707-2.414 1.333 0 2.417 1.04 2.5 2.413z" fill="#001018"/></svg>