<svg width="16" height="16" fill="none" xmlns="http://www.w3.org/2000/svg"><path fill-rule="evenodd" clip-rule="evenodd" d="M1.815 11.138A4.867 4.867 0 0 0 8 12.196a4.867 4.867 0 1 0 0-8.392 4.867 4.867 0 0 0-6.185 7.334zm11.458-.993a3.533 3.533 0 0 1-4.138 1.128A4.85 4.85 0 0 0 10.4 8a4.849 4.849 0 0 0-1.265-3.273 3.533 3.533 0 0 1 4.138 5.418zM6.865 4.727a3.533 3.533 0 1 0 0 6.546A4.849 4.849 0 0 1 5.6 8c0-1.26.48-2.41 1.265-3.273zM6.933 8A3.523 3.523 0 0 1 8 5.47 3.523 3.523 0 0 1 9.067 8 3.523 3.523 0 0 1 8 10.53 3.523 3.523 0 0 1 6.933 8z" fill="#001018"/></svg>