<svg width="24" height="24" fill="none" xmlns="http://www.w3.org/2000/svg"><path fill-rule="evenodd" clip-rule="evenodd" d="M12 21c-.972 0-1.905-.16-2.784-.445l1.475-1.474c.43.08.869.119 1.309.119 3.97 0 7.2-3.23 7.2-7.2 0-.896-.163-1.771-.484-2.601a.9.9 0 0 0-1.476-.312l-4.077 4.075c-.088.088-.181.18-.264.26-.083-.08-.175-.172-.264-.26l-1.799-1.798c-.088-.089-.18-.181-.26-.264.079-.082.17-.173.257-.26l4.08-4.08a.9.9 0 0 0-.311-1.476A7.178 7.178 0 0 0 12 4.8c-3.97 0-7.2 3.23-7.2 7.2 0 .926.18 1.849.526 2.702l-1.351 1.35A8.937 8.937 0 0 1 3 12c0-4.963 4.037-9 9-9s9 4.037 9 9-4.037 9-9 9zm-4.757-6.593a5.15 5.15 0 0 1-.592-2.411c0-2.893 2.377-5.246 5.3-5.246.165 0 .33.008.495.023l-2.89 2.86c-.554.548-.92.909-.919 1.49.002.58.368.943.922 1.491l1.768 1.75c1.225 1.21 1.788 1.21 3.014-.002l2.887-2.857c.014.163.022.326.022.49 0 2.894-2.377 5.247-5.3 5.247-.455 0-.907-.057-1.343-.17a.886.886 0 0 0-.847.227L7.534 19.5 5.25 17.242l1.833-1.815a.866.866 0 0 0 .16-1.02zM12 1.5C6.201 1.5 1.5 6.201 1.5 12S6.201 22.5 12 22.5 22.5 17.799 22.5 12 17.799 1.5 12 1.5z" fill="#001018"/></svg>