<svg width="16" height="16" fill="none" xmlns="http://www.w3.org/2000/svg"><path fill-rule="evenodd" clip-rule="evenodd" d="M8 14.667A6.666 6.666 0 1 1 8 1.334a6.666 6.666 0 0 1 0 13.333zm3.133-10.134L7.057 7.057l-2.524 4.076-.069-.069-.943.943.472.472.942-.944-.068-.068 4.076-2.524 2.524-4.076.07.069.942-.943-.472-.472-.942.944.068.068zm-3.466-1.2V2h.666v1.333h-.666zm0 9.334V14h.666v-1.333h-.666zM5.906 3.816l-.51-1.232.616-.255.51 1.232-.616.255zm3.572 8.623.51 1.232.616-.255-.51-1.232-.616.255zm0-8.878.51-1.232.616.255-.51 1.232-.616-.255zm-3.571 8.623-.51 1.232.616.255.51-1.232-.616-.255zm6.76-4.517H14v.666h-1.333v-.666zm-9.334 0H2v.666h1.333v-.666zm9.082 1.88 1.224.53-.265.612-1.223-.53.264-.612zM3.85 5.841l-1.222-.53-.265.612 1.223.53.265-.612zm8.335.065 1.232-.51.255.616-1.232.51-.255-.616zM3.561 9.478l-1.232.51.255.616 1.232-.51-.255-.616zm7.974 1.586.944.943-.472.472-.943-.944.471-.471zm-6.6-6.6-.942-.943-.472.472.944.943.47-.471zM9.95 6.052 7.54 7.541l.918.917 1.49-2.407z" fill="#001018"/></svg>