<svg width="16" height="16" fill="none" xmlns="http://www.w3.org/2000/svg"><path fill-rule="evenodd" clip-rule="evenodd" d="m12.199 2.853-4.866-1.52-4.865 1.521A.667.667 0 0 0 2 3.49v5.426a4 4 0 0 0 1.747 3.305l3.586 2.446 3.587-2.446c.362-.247.675-.547.933-.887H14a.667.667 0 0 0 .667-.667V5.333A.667.667 0 0 0 14 4.667h-1.333V3.49c0-.292-.19-.55-.468-.637zM3.333 3.98l4-1.25 4 1.25v.687H6.667A.667.667 0 0 0 6 5.333v5.334c0 .368.298.666.667.666h3.188l-2.522 1.72-2.835-1.934-.126-.09a2.667 2.667 0 0 1-1.039-2.113V3.98zm4 4.02v2h6V8h-6zm6-1.333h-6V6h6v.667z" fill="#001018"/></svg>