<svg width="16" height="16" fill="none" xmlns="http://www.w3.org/2000/svg"><path fill-rule="evenodd" clip-rule="evenodd" d="M6.267 10.667H2A1.333 1.333 0 0 1 .667 9.333V7.931c0-.175.033-.347.1-.508l2.064-5.01A.667.667 0 0 1 3.447 2h11.22c.368 0 .666.298.666.667v6.666a.667.667 0 0 1-.666.667h-2.322a.666.666 0 0 0-.544.282l-3.636 5.15a.333.333 0 0 1-.421.107l-1.21-.606a1.667 1.667 0 0 1-.87-1.902l.603-2.364zm5.066-1.726V3.333h-7.44L2 7.931v1.402h4.267a1.333 1.333 0 0 1 1.292 1.662l-.602 2.366a.333.333 0 0 0 .174.38l.44.22 3.14-4.448c.167-.236.38-.429.622-.572zM14 8.667h-1.333V3.333H14v5.334z" fill="#001018"/></svg>