<svg fill="none" xmlns="http://www.w3.org/2000/svg" viewBox="0 0 24 24"><path d="M15.3366 10.9409C15.2565 10.9874 15.1291 10.9828 15.0513 10.9362L14.5868 10.6639C14.549 10.6406 14.5137 10.6034 14.4877 10.5592C14.4854 10.5568 14.4854 10.5545 14.483 10.5522C14.4524 10.5056 14.4359 10.4544 14.4359 10.4079L14.4241 9.87486C14.4217 9.78409 14.4807 9.67469 14.5608 9.62814L20.1352 6.42314L12.3136 2.21265C12.2264 2.1661 12.1132 2.14282 12 2.14282C11.8868 2.14282 11.7713 2.1661 11.6864 2.21265L3.86247 6.42081L12.6273 11.4576C12.7074 11.5018 12.7711 11.6065 12.7711 11.6996V19.0476C12.7711 19.1407 12.7051 19.2455 12.6225 19.2897L12.1509 19.5481C12.1108 19.569 12.0613 19.5806 12.0094 19.5806C12.0071 19.5806 12.0024 19.5806 12 19.5806C11.9434 19.583 11.8915 19.5713 11.8491 19.5481L11.3751 19.2874C11.295 19.2455 11.2289 19.1384 11.2289 19.0453V12.4957C11.2242 12.4468 11.1889 12.3886 11.1511 12.3676L3.42859 7.93138V16.6224C3.42859 16.8179 3.56771 17.0576 3.73749 17.1554L11.6911 21.7848C11.776 21.8337 11.8892 21.8593 12 21.857C12.1108 21.857 12.224 21.8337 12.3089 21.7848L20.2625 17.1554C20.4323 17.0553 20.5714 16.8179 20.5714 16.6224V7.93138L15.3366 10.9409Z" fill="#EC8308"/></svg>