<svg fill="none" xmlns="http://www.w3.org/2000/svg" viewBox="0 0 28 20"><g clip-path="url(#clip0_503_4867)"><path d="M0.00395461 0.000856986H28.0039C28.0039 0.000856986 28.0039 0.896287 28.0039 2.00086V20.0009C28.0039 20.0009 27.1085 20.0009 26.0039 20.0009H2.00394C0.899372 20.0009 0.00394114 20.0009 0.00394114 20.0009C0.00394114 13.3342 0.00385431 6.66752 0.00395461 0.000856986Z" fill="#FFFFFF"/><path d="M0.00395461 0.000856986H28.0039V20.0009L0.00394114 20.0009L0.00395461 0.000856986Z" fill="#07319C"/><path fill-rule="evenodd" clip-rule="evenodd" d="M17.3374 10.0008C17.3374 8.9071 17.3374 7.61398 17.3374 6.66665C17.3374 5.93027 17.9344 5.33417 18.6708 5.33417H22.6708C23.4072 5.33417 24.0041 5.93028 24.0041 6.66666C24.0041 7.61398 24.0041 8.9071 24.0041 10.0008C24.0041 13.3342 20.6708 14.6675 20.6708 14.6675C20.6708 14.6675 17.3374 13.3342 17.3374 10.0008Z" fill="#8FC5FF"/><path fill-rule="evenodd" clip-rule="evenodd" d="M20.0941 11.8844C20.0941 11.8844 20.7614 11.0203 21.1539 11.0203C21.5464 11.0203 21.6185 11.5941 22.2221 11.5941C22.8257 11.5941 23.144 10.6796 23.7253 10.6796C24.3067 10.6796 22.5039 13.0009 22.5039 13.0009L21.0039 14.0009L19.0039 13.5009L20.0941 11.8844Z" fill="#366CC9"/><path fill-rule="evenodd" clip-rule="evenodd" d="M18.1301 10.5521L18.7186 10.0009L19.2969 11.4166L20.0732 10.0009L20.7408 14.0362L19.6306 13.8104L18.0039 11.8844L18.1301 10.5521Z" fill="#CF6200"/><path d="M18.0039 6.00086H23.5039L24.0041 9.33417H17.3374L18.0039 6.00086Z" fill="#FFFF00"/><path fill-rule="evenodd" clip-rule="evenodd" d="M18.0041 10.0008C18.0041 11.4195 18.7064 12.4193 19.4501 13.0886C19.8224 13.4238 20.197 13.6675 20.4786 13.8271C20.5496 13.8673 20.6142 13.9019 20.6708 13.931C20.7274 13.9019 20.792 13.8673 20.8629 13.8271C21.1445 13.6675 21.5191 13.4238 21.8915 13.0886C22.6351 12.4193 23.3374 11.4195 23.3374 10.0008V6.66666C23.3374 6.29902 23.0395 6.00084 22.6708 6.00084H18.6708C18.302 6.00084 18.0041 6.29902 18.0041 6.66665V10.0008ZM17.3374 6.66665V10.0008C17.3374 13.3342 20.6708 14.6675 20.6708 14.6675C20.6708 14.6675 24.0041 13.3342 24.0041 10.0008V6.66666C24.0041 5.93028 23.4072 5.33417 22.6708 5.33417H18.6708C17.9344 5.33417 17.3374 5.93027 17.3374 6.66665Z" fill="#FFFFFF"/><path d="M14.0046 0.948303L11.4354 3.10315H14.0046V6.67084H11.4358L14.0046 8.82465V10.0034H10.8084L8.79033 8.31372V10.0034H5.21892V8.31219L3.19719 10.0034H0.00395461V8.81445L2.56743 6.67084H0.00395461V3.10315H2.57109L0.00395461 0.952881V0.00341797H3.47747L5.21892 1.461V0.00341797H8.79033V1.46387L10.5391 0.00341797H14.0046V0.948303Z" fill="#FFFFFF"/><path d="M8.6868 4.10313L13.5749 0.00343651L12.0982 0.000854492L7.79035 3.60183V0.00531006L6.21893 0.00531003V3.60198L1.93204 0.0139911L0.430111 0.00538777L5.32222 4.10313H0.00456496V5.67083H5.32221L0.142996 10.0017L1.64303 9.99975L6.21893 6.17189V10.0013H7.79035V6.17211L12.364 10.0017L13.8542 10.0037L8.6869 5.67083H14.0046V4.10313H8.6868Z" fill="#DC1F37"/></g><defs><clipPath id="clip0_503_4867"><rect width="28" height="20" fill="#FFFFFF"/></clipPath></defs></svg>