<svg fill="none" xmlns="http://www.w3.org/2000/svg" viewBox="0 0 28 20">
  <g clip-path="url(#clip0_503_4932)">
    <path d="M0 2.98023e-07H28V20H0V2.98023e-07Z" fill="#DC1F37" />
    <path fill-rule="evenodd" clip-rule="evenodd"
      d="M17.3335 10C17.3335 8.00001 17.3335 6.66668 17.3335 6.66668H22.6668C22.6668 6.66668 22.6668 8.00001 22.6668 10C22.6668 12 20.0002 13.3333 20.0002 13.3333C20.0002 13.3333 17.3335 12 17.3335 10Z"
      fill="#FFFFFF" />
    <path fill-rule="evenodd" clip-rule="evenodd"
      d="M20.0003 12C20.7367 12 21.3337 11.4031 21.3337 10.6667C21.3337 9.93032 20.7367 9.33337 20.0003 9.33337C19.2639 9.33337 18.667 9.93032 18.667 10.6667C18.667 11.4031 19.2639 12 20.0003 12Z"
      fill="#65B5D2" />
    <path
      d="M20.0003 9.33337C20.3685 9.33337 20.6668 9.03485 20.6668 8.66666C20.6668 8.29847 20.3684 7.99999 20.0002 7.99999C19.632 7.99999 19.3335 8.29847 19.3335 8.66666C19.3335 9.03485 19.6321 9.33337 20.0003 9.33337Z"
      fill="#E20B0C" />
    <path
      d="M18.667 10.6667C19.0352 10.6667 19.3333 10.3682 19.3333 9.99999C19.3333 9.6318 19.0349 9.33333 18.6667 9.33333C18.2985 9.33333 18 9.6318 18 9.99999C18 10.3682 18.2988 10.6667 18.667 10.6667Z"
      fill="#E20B0C" />
    <path
      d="M21.9998 9.99997C21.9998 10.3682 21.7019 10.6667 21.3337 10.6667C20.9655 10.6667 20.6665 10.3682 20.6665 9.99997C20.6665 9.63178 20.965 9.3333 21.3332 9.3333C21.7014 9.3333 21.9998 9.63178 21.9998 9.99997Z"
      fill="#E20B0C" />
    <path
      d="M21.7629 12C20.9895 12.8387 20.0002 13.3333 20.0002 13.3333C20.0002 13.3333 19.0109 12.8387 18.2374 12H21.7629Z"
      fill="#2F8F22" />
    <path d="M0.00842285 0.00457793H14.0084V10.0046H0.00842285V0.00457793Z" fill="#042C90" />
    <path
      d="M14.0084 0.949219L11.4392 3.10406H14.0084V6.67175H11.4397L14.0084 8.82556V10.0046L10.8123 10.0043L8.79419 8.31464V10.0043H5.22278V8.31311L3.20105 10.0043L0.00842285 10.0046L0.0078125 8.81537L2.57129 6.67175H0.0078125V3.10406H2.57495L0.0078125 0.953796L0.00842285 0.00457793L3.48132 0.00433379L5.22278 1.46191V0.00433379H8.79419V1.46478L10.543 0.00433379L14.0084 0.00457793V0.949219Z"
      fill="#FFFFFF" />
    <path
      d="M8.69066 4.10403L13.5788 0.00433379L12.0898 0.00390655L7.7942 3.60273V0.0078125L6.22279 0.00781247V3.60288L1.93589 0.0148883L0.433969 0.00628506L5.32608 4.10403H0.00842285V5.67173H5.32606L0.146854 10.0026L1.64689 10.0006L6.22279 6.17279V10.0022H7.7942V6.17301L12.3678 10.0026L13.8581 10.0046L8.69076 5.67173H14.0084V4.10403H8.69066Z"
      fill="#DC1F37" />
  </g>
  <defs>
    <clipPath id="clip0_503_4932">
      <rect width="28" height="20" fill="#FFFFFF" />
    </clipPath>
  </defs>
</svg>