<svg fill="none" xmlns="http://www.w3.org/2000/svg" viewBox="0 0 28 20"><g clip-path="url(#clip0_1310_7756)"><path d="M28.0085 0.0030117H14.0085H0.00847123V20.003H28.0085V0.0030117Z" fill="#FFFFFF"/><path d="M28.0134 0H0.013354V20H28.0134V0Z" fill="#07319C"/><path d="M0 9.97051L0.012059 10.9614L2.26601 10.1742C2.46953 10.1063 2.88905 10.1057 3.09438 10.1742L5.84438 11.0908C6.32094 11.2497 7.03636 11.2507 7.51601 11.0908L10.266 10.1742C10.4695 10.1063 10.8891 10.1057 11.0944 10.1742L13.8444 11.0908C14.3209 11.2497 15.0364 11.2507 15.516 11.0908L18.266 10.1742C18.4695 10.1063 18.8891 10.1057 19.0944 10.1742L21.8444 11.0908C22.3209 11.2497 23.0364 11.2507 23.516 11.0908L26.266 10.1742C26.4695 10.1063 26.8891 10.1057 27.0944 10.1742L28.0137 10.5204V9.08799L27.516 8.90924C27.0364 8.74936 26.3209 8.75039 25.8444 8.90924L23.0944 9.82591C22.8891 9.89435 22.4695 9.89375 22.266 9.82591L19.516 8.90924C19.0364 8.74936 18.3209 8.75039 17.8444 8.90924L15.0944 9.82591C14.8891 9.89435 14.4695 9.89375 14.266 9.82591L14.0137 9.7509V10.0092L0 9.97051ZM13.9985 7.79543C14.4751 7.95429 15.0364 7.91738 15.516 7.75749L18.266 6.84082C18.4695 6.77298 18.8891 6.77238 19.0944 6.84082L21.8444 7.75749C22.3209 7.91635 23.0364 7.91738 23.516 7.75749L26.266 6.84082C26.4695 6.77298 26.8891 6.77238 27.0944 6.84082L28.0084 7.21394L28.0123 5.753L27.516 5.57591C27.0364 5.41602 26.3209 5.41705 25.8444 5.57591L23.0944 6.49258C22.8891 6.56102 22.4695 6.56042 22.266 6.49258L19.516 5.57591C19.0364 5.41602 18.3209 5.41705 17.8444 5.57591L15.0944 6.49258C14.8891 6.56102 14.4695 6.56042 14.266 6.49258L13.9985 6.40639V7.79543ZM14.011 4.46124C14.4876 4.6201 15.0364 4.58404 15.516 4.42415L18.266 3.50749C18.4695 3.43965 18.8891 3.43904 19.0944 3.50749L21.8444 4.42415C22.3209 4.58301 23.0364 4.58404 23.516 4.42415L26.266 3.50749C26.4695 3.43965 26.8891 3.43904 27.0944 3.50749L28.0044 3.90343L28.016 2.44526L27.516 2.24257C27.0364 2.08269 26.3209 2.08372 25.8444 2.24257L23.0944 3.15924C22.8891 3.22768 22.4695 3.22708 22.266 3.15924L19.516 2.24257C19.0364 2.08269 18.3209 2.08372 17.8444 2.24257L15.0944 3.15924C14.8891 3.22768 14.4695 3.22708 14.266 3.15924L14.0071 3.06281L14.011 4.46124ZM14.0106 1.13705C14.4763 1.24731 15.0893 1.23304 15.516 1.09082L18.266 0.174152C18.4695 0.106314 18.8891 0.105711 19.0944 0.174152L21.8444 1.09082C22.3209 1.24967 23.0364 1.2507 23.516 1.09082L26.266 0.174152C26.4695 0.106314 26.8891 0.105711 27.0944 0.174152L28.0164 0.531506L28.0085 0.0030117L14.0193 0.00300026L14.0085 0.0030117L0.013354 0L14.0034 3.05176e-05C14.0034 0.846479 14.0106 1.13705 14.0106 1.13705ZM28.0047 19.1103L28.0134 20C28.0085 20.003 0.013354 20 0.013354 20L0.0122764 19.5577L1.84438 18.9092C2.32095 18.7504 3.03636 18.7494 3.51601 18.9092L6.26601 19.8259C6.46953 19.8937 6.88905 19.8943 7.09438 19.8259L9.84438 18.9092C10.3209 18.7504 11.0364 18.7494 11.516 18.9092L14.266 19.8259C14.4695 19.8937 14.8891 19.8943 15.0944 19.8259L17.8444 18.9092C18.3209 18.7504 19.0364 18.7494 19.516 18.9092L22.266 19.8259C22.4695 19.8937 22.8891 19.8943 23.0944 19.8259L25.8444 18.9092C26.3209 18.7504 27.0364 18.7494 27.516 18.9092L28.0047 19.1103ZM28.0171 15.7775V17.1828L27.0944 16.8408C26.8891 16.7724 26.4695 16.773 26.266 16.8408L23.516 17.7575C23.0364 17.9174 22.3209 17.9163 21.8444 17.7575L19.0944 16.8408C18.8891 16.7724 18.4695 16.773 18.266 16.8408L15.516 17.7575C15.0364 17.9174 14.3209 17.9163 13.8444 17.7575L11.0944 16.8408C10.8891 16.7724 10.4695 16.773 10.266 16.8408L7.51601 17.7575C7.03636 17.9174 6.32094 17.9163 5.84438 17.7575L3.09438 16.8408C2.88905 16.7724 2.46953 16.773 2.26601 16.8408L0.00403092 17.6085L0.00804589 16.1394L1.84438 15.5759C2.32095 15.417 3.03636 15.416 3.51601 15.5759L6.26601 16.4926C6.46953 16.5604 6.88905 16.561 7.09438 16.4926L9.84438 15.5759C10.3209 15.417 11.0364 15.416 11.516 15.5759L14.266 16.4926C14.4695 16.5604 14.8891 16.561 15.0944 16.4926L17.8444 15.5759C18.3209 15.417 19.0364 15.416 19.516 15.5759L22.266 16.4926C22.4695 16.5604 22.8891 16.561 23.0944 16.4926L25.8444 15.5759C26.3209 15.417 27.0364 15.416 27.516 15.5759L28.0171 15.7775ZM28.0171 12.4509V13.8375L27.0944 13.5075C26.8891 13.439 26.4695 13.4397 26.266 13.5075L23.516 14.4241C23.0364 14.584 22.3209 14.583 21.8444 14.4241L19.0944 13.5075C18.8891 13.439 18.4695 13.4397 18.266 13.5075L15.516 14.4241C15.0364 14.584 14.3209 14.583 13.8444 14.4241L11.0944 13.5075C10.8891 13.439 10.4695 13.4397 10.266 13.5075L7.51601 14.4241C7.03636 14.584 6.32094 14.583 5.84438 14.4241L3.09438 13.5075C2.88905 13.439 2.46953 13.4397 2.26601 13.5075L0.00804589 14.2408L1.786e-05 12.8479L1.84438 12.2426C2.32095 12.0837 3.03636 12.0827 3.51601 12.2426L6.26601 13.1592C6.46953 13.2271 6.88905 13.2277 7.09438 13.1592L9.84438 12.2426C10.3209 12.0837 11.0364 12.0827 11.516 12.2426L14.266 13.1592C14.4695 13.2271 14.8891 13.2277 15.0944 13.1592L17.8444 12.2426C18.3209 12.0837 19.0364 12.0827 19.516 12.2426L22.266 13.1592C22.4695 13.2271 22.8891 13.2277 23.0944 13.1592L25.8444 12.2426C26.3209 12.0837 27.0364 12.0827 27.516 12.2426L28.0171 12.4509Z" fill="#FFFFFF"/><path d="M14.0006 0.947467L11.4314 3.10231H14.0006V6.67H11.4319L14.0006 8.82381V10.0026H10.8044L8.78638 8.31288V10.0026H5.21497V8.31136L3.19324 10.0026H0V8.81362L2.56348 6.67H0V3.10231H2.56714L0 0.952045V0.00258202H3.47351L5.21497 1.46016V0.00258202H8.78638V1.46303L10.5352 0.00258202H14.0006V0.947467Z" fill="#FFFFFF"/><path d="M8.68285 4.10227L13.571 0.00258202L12.0943 0L7.78639 3.60098V0.00445557L6.21498 0.00445554V3.60113L1.92808 0.0131366L0.426157 0.00453328L5.31826 4.10227H0.000610352V5.66998H5.31825L0.139041 10.0008L1.63907 9.9989L6.21498 6.17104V10.0004H7.78639V6.17126L12.36 10.0008L13.8503 10.0028L8.68294 5.66998H14.0006V4.10227H8.68285Z" fill="#DC1F37"/></g><defs><clipPath id="clip0_1310_7756"><rect width="28" height="20" fill="#FFFFFF"/></clipPath></defs></svg>