<svg fill="none" xmlns="http://www.w3.org/2000/svg" viewBox="0 0 28 20"><g clip-path="url(#clip0_503_4382)"><path d="M1.63317e-05 0L28 5.41657e-06C28 6.66667 28 13.3333 28 20H0C1.55319e-05 13.3333 -8.97284e-05 6.66667 1.63317e-05 0Z" fill="#FFFFFF"/><path fill-rule="evenodd" clip-rule="evenodd" d="M2.08616e-06 4.00001H28V5.41657e-06L1.63317e-05 0L2.08616e-06 4.00001Z" fill="#43924C"/><path fill-rule="evenodd" clip-rule="evenodd" d="M0 20H28V16H2.08616e-06L0 20Z" fill="#43924C"/><path fill-rule="evenodd" clip-rule="evenodd" d="M2.08616e-06 13.3333H28V6.66667H2.08616e-06V13.3333Z" fill="#CD153A"/><path fill-rule="evenodd" clip-rule="evenodd" d="M13.9998 11.7L12.0406 13.0301L12.7001 10.7557L10.8296 9.30328L13.1965 9.22768L13.9998 7.00001L14.8031 9.22768L17.17 9.30328L15.2996 10.7557L15.9591 13.0301L13.9998 11.7Z" fill="#F5D24B"/></g><defs><clipPath id="clip0_503_4382"><rect width="28" height="20" fill="#FFFFFF"/></clipPath></defs></svg>