<svg fill="none" xmlns="http://www.w3.org/2000/svg" viewBox="0 0 28 20"><g clip-path="url(#clip0_503_3648)"><path d="M1.20848e-05 0C9.33335 4.47319e-05 18.6667 -3.53063e-05 28 8.49366e-06V20C18.6667 20 9.33334 20 0 20L1.20848e-05 0Z" fill="#FFFFFF"/><path d="M1.20848e-05 0L28 8.49366e-06V20H0L1.20848e-05 0Z" fill="#128C4B"/><path fill-rule="evenodd" clip-rule="evenodd" d="M6.66668 12H17.3333V11.0787C17.3333 10.5831 17.8549 10.2608 18.2982 10.4824L18.6667 10.6667V12H20.6667C21.0349 12 21.3333 12.2985 21.3333 12.6667V13.3333C21.3333 14.0697 20.7364 14.6667 20 14.6667H18C17.6318 14.6667 17.3333 14.3682 17.3333 14V13.3333H8.27615C8.09934 13.3333 7.92977 13.2631 7.80475 13.1381L6.66668 12Z" fill="#FFFFFF"/><path fill-rule="evenodd" clip-rule="evenodd" d="M6.66668 8.13808C6.66668 8.04967 6.7018 7.96489 6.76431 7.90237L7.09764 7.56904C7.22782 7.43886 7.22782 7.22781 7.09764 7.09764L6.76431 6.7643C6.7018 6.70179 6.66668 6.61701 6.66668 6.5286V5.66667C6.66668 5.48258 6.81592 5.33334 7.00001 5.33334H7.74537C7.886 5.33334 8.00001 5.44735 8.00001 5.58798C8.00001 5.85669 8.36225 5.9422 8.48242 5.70186L8.5818 5.5031C8.63382 5.39906 8.74016 5.33334 8.85648 5.33334H10.3333C10.5174 5.33334 10.6667 5.48258 10.6667 5.66667C10.6667 5.85077 10.5174 6 10.3333 6H9.66668C9.48258 6 9.33334 6.14924 9.33334 6.33334C9.33334 6.51743 9.48258 6.66667 9.66668 6.66667H10.3333C10.5174 6.66667 10.6667 6.81591 10.6667 7V9.00001C10.6667 9.1841 10.5174 9.33334 10.3333 9.33334H9.66668C9.48258 9.33334 9.33334 9.1841 9.33334 9.00001V8.33334C9.33334 8.14924 9.48258 8.00001 9.66668 8.00001C9.85077 8.00001 10 7.85077 10 7.66667C10 7.48258 9.85077 7.33334 9.66668 7.33334H9.00001C8.81592 7.33334 8.66668 7.48258 8.66668 7.66667V9.00001C8.66668 9.1841 8.51744 9.33334 8.33334 9.33334C8.14925 9.33334 8.00001 9.1841 8.00001 9.00001V8.33334C8.00001 8.14924 7.85077 8.00001 7.66668 8.00001C7.48258 8.00001 7.33334 8.14924 7.33334 8.33334V9.00001C7.33334 9.1841 7.18411 9.33334 7.00001 9.33334C6.81592 9.33334 6.66668 9.1841 6.66668 9.00001V8.13808Z" fill="#FFFFFF"/><path fill-rule="evenodd" clip-rule="evenodd" d="M17.3333 8.13808C17.3333 8.04967 17.3685 7.96489 17.431 7.90237L17.7643 7.56904C17.8945 7.43886 17.8945 7.22781 17.7643 7.09764L17.431 6.7643C17.3685 6.70179 17.3333 6.61701 17.3333 6.5286V5.66667C17.3333 5.48258 17.4826 5.33334 17.6667 5.33334H18.412C18.5527 5.33334 18.6667 5.44735 18.6667 5.58798C18.6667 5.85669 19.0289 5.9422 19.1491 5.70186L19.2485 5.5031C19.3005 5.39906 19.4068 5.33334 19.5231 5.33334H21C21.1841 5.33334 21.3333 5.48258 21.3333 5.66667C21.3333 5.85077 21.1841 6 21 6H20.3333C20.1493 6 20 6.14924 20 6.33334C20 6.51743 20.1493 6.66667 20.3333 6.66667H21C21.1841 6.66667 21.3333 6.81591 21.3333 7V9.00001C21.3333 9.1841 21.1841 9.33334 21 9.33334H20.3333C20.1493 9.33334 20 9.1841 20 9.00001V8.33334C20 8.14924 20.1493 8.00001 20.3333 8.00001C20.5174 8.00001 20.6667 7.85077 20.6667 7.66667C20.6667 7.48258 20.5174 7.33334 20.3333 7.33334H19.6667C19.4826 7.33334 19.3333 7.48258 19.3333 7.66667V9.00001C19.3333 9.1841 19.1841 9.33334 19 9.33334C18.8159 9.33334 18.6667 9.1841 18.6667 9.00001V8.33334C18.6667 8.14924 18.5174 8.00001 18.3333 8.00001C18.1493 8.00001 18 8.14924 18 8.33334V9.00001C18 9.1841 17.8508 9.33334 17.6667 9.33334C17.4826 9.33334 17.3333 9.1841 17.3333 9.00001V8.13808Z" fill="#FFFFFF"/><path fill-rule="evenodd" clip-rule="evenodd" d="M16 6.33021C16 6.51603 15.8958 6.77084 15.7593 6.90735L15.574 7.09266C15.4411 7.22558 15.4375 7.4375 15.574 7.57402L15.7593 7.75932C15.8923 7.89225 16 8.1427 16 8.33646V8.99688C16 9.1827 15.8573 9.33334 15.6636 9.33334H15.0031C14.8173 9.33334 14.6667 9.19065 14.6667 8.99688V8.33646C14.6667 8.15064 14.6052 8.12305 14.5121 8.30925L14.1546 9.02409C14.0692 9.19489 13.8431 9.33334 13.6698 9.33334H12.3303C12.1479 9.33334 12 9.17872 12 9.00001C12 8.81591 12.1427 8.66667 12.3365 8.66667H12.9969C13.1827 8.66667 13.3333 8.51205 13.3333 8.33334C13.3333 8.14924 13.1907 8.00001 12.9969 8.00001H12.3365C12.1506 8.00001 12 7.85663 12 7.67302V5.66032C12 5.47973 12.1427 5.33334 12.3365 5.33334H12.9969C13.1827 5.33334 13.3333 5.47603 13.3333 5.66979V6.33021C13.3333 6.51603 13.1787 6.66667 13 6.66667C12.8159 6.66667 12.6667 6.82129 12.6667 7C12.6667 7.1841 12.8094 7.33334 13.0031 7.33334H13.6636C13.8494 7.33334 14 7.1764 14 7.00308V5.6636C14 5.4812 14.1546 5.33334 14.3333 5.33334C14.5174 5.33334 14.6667 5.47603 14.6667 5.66979V6.33021C14.6667 6.51603 14.8213 6.66667 15 6.66667C15.1841 6.66667 15.3333 6.52398 15.3333 6.33021V5.66979C15.3333 5.48397 15.488 5.33334 15.6667 5.33334C15.8508 5.33334 16 5.47603 16 5.66979V6.33021Z" fill="#FFFFFF"/></g><defs><clipPath id="clip0_503_3648"><rect width="28" height="20" fill="#FFFFFF"/></clipPath></defs></svg>