<svg fill="none" xmlns="http://www.w3.org/2000/svg" viewBox="0 0 28 20"><g clip-path="url(#clip0_503_4483)"><path d="M-0.00701904 0H28C28 6.66667 28 13.3333 28 20C18.6667 20 9.33335 20 1.81198e-05 20C1.81198e-05 13.3338 0.045369 6.66602 -0.00701904 0Z" fill="#FFFFFF"/><path fill-rule="evenodd" clip-rule="evenodd" d="M1.81198e-05 20H28V0H-0.00701904L1.81198e-05 20Z" fill="#FE3030"/><path fill-rule="evenodd" clip-rule="evenodd" d="M0 10.6666H14.6665V0H-0.00701904L0 10.6666Z" fill="#0909B6"/><path fill-rule="evenodd" clip-rule="evenodd" d="M7.33335 7L6.05774 8.41293L6.15484 6.51184L4.25375 6.60894L5.66668 5.33333L4.25375 4.05772L6.15484 4.15482L6.05774 2.25373L7.33335 3.66667L8.60896 2.25373L8.51186 4.15482L10.4129 4.05772L9.00002 5.33333L10.4129 6.60894L8.51186 6.51184L8.60896 8.41293L7.33335 7Z" fill="#FFFFFF"/></g><defs><clipPath id="clip0_503_4483"><rect width="28" height="20" fill="#FFFFFF"/></clipPath></defs></svg>