<svg fill="none" xmlns="http://www.w3.org/2000/svg" viewBox="0 0 28 20"><g clip-path="url(#clip0_503_4223)"><rect width="28" height="20" fill="#D01129"/><path fill-rule="evenodd" clip-rule="evenodd" d="M22 4.00002H19.3334L17.3334 8.66669L15.3334 7.33335C15.3334 7.33335 13.8814 3.88143 13.3334 3.33335C12.7853 2.78528 12.2296 3.29228 10.494 3.79836C8.75844 4.30444 8.69112 4.88495 8.01225 4.88495C7.73756 4.88495 6.86361 3.87233 6.37634 3.56985C5.65936 3.12476 5.40092 3.33335 5.57377 4.00002C5.64849 4.28818 6.21778 4.64381 6.57849 5.16099C7.05231 5.84034 7.33338 6.66669 7.33338 6.66669C7.33338 6.66669 7.98343 6.05911 8.33321 5.95917C8.86401 5.80751 9.46186 6.06772 10.1622 5.95917C11.0526 5.82113 12 5.33335 12 5.33335L12.2318 7.876C12.2318 7.876 9.06026 10.8232 9.33338 12C9.60649 13.1768 12.6253 14.6219 13.3334 15.653C14.0415 16.6841 12.9125 17.0685 12.9125 17.5637C12.9125 18.0589 12.7948 18.7187 13.3334 18.5205C13.872 18.3224 13.9372 17.4638 14.4312 16.6841C14.771 16.1477 15.0447 15.865 15.0917 15.653C15.207 15.1328 13.7215 13.7673 12.9125 12.7993C12.5271 12.3382 11.7504 11.7127 11.7504 11.7127L14.0415 10C14.0415 10 17.9963 11.6335 18.8884 11.0892C19.7805 10.5449 20 5.33335 20 5.33335L22.7496 4.66669L22 4.00002Z" fill="url(#paint0_linear_503_4223)"/><path fill-rule="evenodd" clip-rule="evenodd" d="M15.3332 15.3333C14.965 15.3333 14.6666 15.0348 14.6666 14.6666C14.6666 14.2985 14.965 14 15.3332 14C15.7014 14 15.9999 14.2985 15.9999 14.6666C15.9999 15.0348 15.7014 15.3333 15.3332 15.3333ZM17.9999 4.66665C17.6317 4.66665 17.3332 4.36817 17.3332 3.99998C17.3332 3.63179 17.6317 3.33331 17.9999 3.33331C18.3681 3.33331 18.6666 3.63179 18.6666 3.99998C18.6666 4.36817 18.3681 4.66665 17.9999 4.66665ZM17.9999 9.99998C17.6317 9.99998 17.3332 9.7015 17.3332 9.33331C17.3332 8.96512 17.6317 8.66665 17.9999 8.66665C18.3681 8.66665 18.6666 8.96512 18.6666 9.33331C18.6666 9.7015 18.3681 9.99998 17.9999 9.99998ZM9.9999 12.6666C9.63171 12.6666 9.33323 12.3682 9.33323 12C9.33323 11.6318 9.63171 11.3333 9.9999 11.3333C10.3681 11.3333 10.6666 11.6318 10.6666 12C10.6666 12.3682 10.3681 12.6666 9.9999 12.6666ZM12.6666 4.66665C12.2984 4.66665 11.9999 4.36817 11.9999 3.99998C11.9999 3.63179 12.2984 3.33331 12.6666 3.33331C13.0348 3.33331 13.3332 3.63179 13.3332 3.99998C13.3332 4.36817 13.0348 4.66665 12.6666 4.66665ZM13.9999 9.99998C13.6317 9.99998 13.3332 9.40303 13.3332 8.66665C13.3332 7.93027 13.6317 7.33331 13.9999 7.33331C14.3681 7.33331 14.6666 7.93027 14.6666 8.66665C14.6666 9.40303 14.3681 9.99998 13.9999 9.99998ZM7.33323 7.33331C6.96504 7.33331 6.66656 7.03484 6.66656 6.66665C6.66656 6.29846 6.96504 5.99998 7.33323 5.99998C7.70142 5.99998 7.9999 6.29846 7.9999 6.66665C7.9999 7.03484 7.70142 7.33331 7.33323 7.33331Z" fill="url(#paint1_linear_503_4223)"/></g><defs><linearGradient id="paint0_linear_503_4223" x1="14.1358" y1="3.09634" x2="14.1358" y2="18.5566" gradientUnits="userSpaceOnUse"><stop stop-color="#FFFFFF"/><stop offset="1" stop-color="#F0F0F0"/></linearGradient><linearGradient id="paint1_linear_503_4223" x1="12.6666" y1="3.33331" x2="12.6666" y2="15.3333" gradientUnits="userSpaceOnUse"><stop stop-color="#F8DD4E"/><stop offset="1" stop-color="#F9DA38"/></linearGradient><clipPath id="clip0_503_4223"><rect width="28" height="20" fill="#FFFFFF"/></clipPath></defs></svg>