<svg fill="none" xmlns="http://www.w3.org/2000/svg" viewBox="0 0 28 20"><g clip-path="url(#clip0_503_4695)"><path d="M8.88109e-06 0H28C28 6.66667 28 13.3333 28 20C18.6667 20 9.33333 20 0 20C0 13.3333 -5.72404e-05 6.66667 8.88109e-06 0Z" fill="#FFFFFF"/><path d="M17.3332 0H10.6665V6.66666H0V13.3333H10.6665V20H17.3332V13.3333H28V6.66666H17.3332V0Z" fill="#E8112D"/><path d="M13.333 3.33319L12.6665 2.66669H15.3332L14.6663 3.33352V9.33335H20.6667L21.3333 8.66671V11.3334L20.6666 10.6667H14.6663V16.6665L15.3332 17.3334H12.6665L13.333 16.6668V10.6667H7.33335L6.66667 11.3334V8.66671L7.33331 9.33335H13.333V3.33319Z" fill="#F9DD16"/></g><defs><clipPath id="clip0_503_4695"><rect width="28" height="20" fill="#FFFFFF"/></clipPath></defs></svg>