<svg fill="none" xmlns="http://www.w3.org/2000/svg" viewBox="0 0 28 20"><g clip-path="url(#clip0_503_3734)"><path d="M0 0C9.33333 0 18.6667 0 28 0V20C18.6666 20.0006 9.33337 19.9515 0 19.9515C0 13.301 0 6.65049 0 0Z" fill="#FFFFFF"/><path d="M0 0H28V19.9515H0V0Z" fill="#07319C"/><path fill-rule="evenodd" clip-rule="evenodd" d="M17.3333 9.97573C17.3333 8.88465 17.3333 7.59467 17.3333 6.64964C17.3333 5.91505 17.9303 5.32039 18.6667 5.32039H22.6667C23.403 5.32039 24 5.91505 24 6.64964C24 7.59467 24 8.88465 24 9.97573C24 13.301 20.6667 14.6311 20.6667 14.6311C20.6667 14.6311 17.3333 13.301 17.3333 9.97573Z" fill="#008339"/><path d="M19.3333 7.98059C19.7015 7.98059 20 7.68284 20 7.31554C20 6.94825 19.7015 6.6505 19.3333 6.6505C18.9651 6.6505 18.6667 6.94825 18.6667 7.31554C18.6667 7.68284 18.9651 7.98059 19.3333 7.98059Z" fill="#FFD033"/><path d="M19.3333 9.31069C19.7015 9.31069 20 9.01294 20 8.64564C20 8.27835 19.7015 7.98059 19.3333 7.98059C18.9651 7.98059 18.6667 8.27835 18.6667 8.64564C18.6667 9.01294 18.9651 9.31069 19.3333 9.31069Z" fill="#FFD033"/><path d="M19.3333 10.6408C18.9651 10.6408 18.6667 10.343 18.6667 9.97574C18.6667 9.60844 18.9651 9.31069 19.3333 9.31069C19.7015 9.31069 20 9.60844 20 9.97574C20 10.343 19.7015 10.6408 19.3333 10.6408Z" fill="#FFD033"/><path d="M19.3333 10.6408C19.7015 10.6408 20 10.9385 20 11.3058C20 11.6731 19.7015 11.9709 19.3333 11.9709C18.9651 11.9709 18.6667 11.6731 18.6667 11.3058C18.6667 10.9385 18.9651 10.6408 19.3333 10.6408Z" fill="#FFD033"/><path d="M22.6667 11.3058C22.6667 11.6731 22.3682 11.9709 22 11.9709C21.6318 11.9709 21.3333 11.6731 21.3333 11.3058C21.3333 10.9385 21.6318 10.6408 22 10.6408C22.3682 10.6408 22.6667 10.9385 22.6667 11.3058Z" fill="#FFD033"/><path d="M22 9.31069C22.3682 9.31069 22.6667 9.60844 22.6667 9.97574C22.6667 10.343 22.3682 10.6408 22 10.6408C21.6318 10.6408 21.3333 10.343 21.3333 9.97574C21.3333 9.60844 21.6318 9.31069 22 9.31069Z" fill="#FFD033"/><path d="M22 7.98059C21.6318 7.98059 21.3333 8.27835 21.3333 8.64564C21.3333 9.01294 21.6318 9.31069 22 9.31069C22.3682 9.31069 22.6667 9.01294 22.6667 8.64564C22.6667 8.27835 22.3682 7.98059 22 7.98059Z" fill="#FFD033"/><path d="M22 7.98059C21.6318 7.98059 21.3333 7.68284 21.3333 7.31554C21.3333 6.94825 21.6318 6.6505 22 6.6505C22.3682 6.6505 22.6667 6.94825 22.6667 7.31554C22.6667 7.68284 22.3682 7.98059 22 7.98059Z" fill="#FFD033"/><path fill-rule="evenodd" clip-rule="evenodd" d="M20.6667 11.3058C21.0349 11.3058 21.3333 10.4126 21.3333 9.31069C21.3333 8.2088 21.0349 7.31554 20.6667 7.31554C20.2985 7.31554 20 8.2088 20 9.31069C20 10.4126 20.2985 11.3058 20.6667 11.3058Z" fill="#FFFFFF"/><path d="M16.6667 13.301C16.6667 14.5694 18.4879 15.2961 20.6667 15.2961C22.8455 15.2961 24.6667 14.5694 24.6667 13.301C24.6667 12.9337 24.3682 12.6359 24 12.6359C23.6318 12.6359 23.3333 12.9337 23.3333 13.301C23.3333 13.3137 23.1717 13.4661 22.7761 13.624C22.239 13.8383 21.4824 13.966 20.6667 13.966C19.8509 13.966 19.0943 13.8383 18.5572 13.624C18.1616 13.4661 18 13.3137 18 13.301C18 12.9337 17.7015 12.6359 17.3333 12.6359C16.9651 12.6359 16.6667 12.9337 16.6667 13.301Z" fill="#FFD033"/><path d="M14.0006 0.966612L11.4314 3.11623H14.0006V6.67526H11.4319L14.0006 8.82384V9.99975H10.8044L8.78638 8.31416V9.99975H5.21497V8.31264L3.19324 9.99975H0V8.81367L2.56348 6.67526H0V3.11623H2.56714L0 0.971179V0.0240199H3.47351L5.21497 1.47806V0.0240199H8.78638V1.48093L10.5352 0.0240199H14.0006V0.966612Z" fill="#FFFFFF"/><path d="M8.68285 4.11378L13.571 0.0240384L12.0943 0.0214627L7.78639 3.6137V0.0259074L6.21498 0.0259074V3.61385L1.92808 0.0345674L0.426157 0.025985L5.31826 4.11378H0.000610352V5.67768H5.31825L0.139041 9.99804L1.63907 9.9961L6.21498 6.17753V9.9976H7.78639V6.17775L12.36 9.99804L13.8503 9.99999L8.68294 5.67768H14.0006V4.11378H8.68285Z" fill="#DC1F37"/></g><defs><clipPath id="clip0_503_3734"><rect width="28" height="20" fill="#FFFFFF"/></clipPath></defs></svg>