<svg fill="none" xmlns="http://www.w3.org/2000/svg" viewBox="0 0 28 20"><g clip-path="url(#clip0_503_4750)"><path d="M1.78814e-06 0C9.33333 0 18.6667 0 28 0V20C18.6667 20 9.33333 20 0 20C6.62274e-07 13.3333 1.78814e-06 6.66667 1.78814e-06 0Z" fill="#FFFFFF"/><path d="M1.78814e-06 0H28V20H0L1.78814e-06 0Z" fill="#07319C"/><path fill-rule="evenodd" clip-rule="evenodd" d="M17.3335 9.99998C17.3335 8.90624 17.3335 7.61312 17.3335 6.6658C17.3335 5.92942 17.9305 5.33331 18.6668 5.33331H22.6668C23.4032 5.33331 24.0002 5.92942 24.0002 6.6658C24.0002 7.61313 24.0002 8.90624 24.0002 9.99998C24.0002 13.3333 20.6668 14.6666 20.6668 14.6666C20.6668 14.6666 17.3335 13.3333 17.3335 9.99998Z" fill="#FFD033"/><path fill-rule="evenodd" clip-rule="evenodd" d="M18.0002 9.99998C18.0002 11.4187 18.7025 12.4185 19.4461 13.0878C19.8185 13.4229 20.1931 13.6667 20.4747 13.8262C20.5457 13.8664 20.6103 13.901 20.6668 13.9302C20.7234 13.901 20.788 13.8664 20.859 13.8262C21.1406 13.6667 21.5152 13.4229 21.8875 13.0878C22.6312 12.4185 23.3335 11.4187 23.3335 9.99998V6.6658C23.3335 6.29816 23.0356 5.99998 22.6668 5.99998H18.6668C18.2981 5.99998 18.0002 6.29816 18.0002 6.6658V9.99998ZM17.3335 6.6658V9.99998C17.3335 13.3333 20.6668 14.6666 20.6668 14.6666C20.6668 14.6666 24.0002 13.3333 24.0002 9.99998V6.6658C24.0002 5.92942 23.4032 5.33331 22.6668 5.33331H18.6668C17.9305 5.33331 17.3335 5.92942 17.3335 6.6658Z" fill="#FFFFFF"/><path fill-rule="evenodd" clip-rule="evenodd" d="M22.0002 9.33331C22.3684 9.33331 22.6668 8.73636 22.6668 7.99998C22.6668 7.2636 22.3684 6.66665 22.0002 6.66665C21.632 6.66665 21.3335 7.2636 21.3335 7.99998C21.3335 8.73636 21.632 9.33331 22.0002 9.33331Z" fill="#BA5B1F"/><path fill-rule="evenodd" clip-rule="evenodd" d="M19.5385 9.29309C19.8845 9.16716 19.9608 8.50413 19.709 7.81216C19.4571 7.12018 18.9724 6.66132 18.6265 6.78725C18.2805 6.91317 18.2042 7.57621 18.456 8.26818C18.7079 8.96015 19.1925 9.41902 19.5385 9.29309Z" fill="#FF9F3E"/><path fill-rule="evenodd" clip-rule="evenodd" d="M19.0519 9.27083C19.3856 9.42644 19.9084 9.01155 20.2196 8.34417C20.5308 7.67678 20.5126 7.00961 20.1789 6.85401C19.8452 6.69841 19.3224 7.11329 19.0112 7.78068C18.7 8.44806 18.7182 9.11523 19.0519 9.27083Z" fill="#FF937F"/><path fill-rule="evenodd" clip-rule="evenodd" d="M20 10.6666L20.6667 9.33331L21.3333 10.6666V12H20V10.6666Z" fill="#01A827"/><path d="M14.0006 0.944885L11.4314 3.09973H14.0006V6.66742H11.4319L14.0006 8.82123V10H10.8044L8.78638 8.3103V10H5.21497V8.30878L3.19324 10H1.78814e-06V8.81104L2.56348 6.66742H1.78814e-06V3.09973H2.56714L1.78814e-06 0.949463V0H3.47351L5.21497 1.45758V0H8.78638V1.46045L10.5352 0H14.0006V0.944885Z" fill="#FFFFFF"/><path d="M8.68224 4.10227L13.5704 0.00258202L12.0937 0L7.78578 3.60098V0.00445557L6.21437 0.00445554V3.60113L1.92747 0.0131366L0.425548 0.00453328L5.31766 4.10227H1.78814e-06V5.66998H5.31764L0.138433 10.0008L1.63847 9.9989L6.21437 6.17104V10.0004H7.78578V6.17126L12.3594 10.0008L13.8497 10.0028L8.68233 5.66998H14V4.10227H8.68224Z" fill="#DC1F37"/></g><defs><clipPath id="clip0_503_4750"><rect width="28" height="20" fill="#FFFFFF"/></clipPath></defs></svg>