<svg fill="none" xmlns="http://www.w3.org/2000/svg" viewBox="0 0 28 20"><g clip-path="url(#clip0_503_4143)"><path d="M0 0H28C28 6.66667 28 13.3333 28 20C18.6667 20 9.33337 20 3.93987e-05 20C3.93987e-05 13.3333 0.000293331 6.66667 0 0Z" fill="#FFFFFF"/><path d="M0 0H28V20H3.93987e-05L0 0Z" fill="#0B36B2"/><path fill-rule="evenodd" clip-rule="evenodd" d="M22.6665 20V0H8.66654L22.6665 20Z" fill="#FFD045"/><path fill-rule="evenodd" clip-rule="evenodd" d="M17.3334 18.6667L16.3906 18.9428L16.6667 18L16.3906 17.0572L17.3334 17.3333L18.2762 17.0572L18 18L18.2762 18.9428L17.3334 18.6667Z" fill="#FFFFFF"/><path fill-rule="evenodd" clip-rule="evenodd" d="M14.6669 14.6667L13.7241 14.9428L14.0002 14L13.7241 13.0572L14.6669 13.3334L15.6097 13.0572L15.3335 14L15.6097 14.9428L14.6669 14.6667Z" fill="#FFFFFF"/><path fill-rule="evenodd" clip-rule="evenodd" d="M11.9999 10.6667L11.0571 10.9428L11.3332 10L11.0571 9.05721L11.9999 9.33335L12.9427 9.05721L12.6665 10L12.9427 10.9428L11.9999 10.6667Z" fill="#FFFFFF"/><path fill-rule="evenodd" clip-rule="evenodd" d="M9.33337 6.66667L8.39056 6.94281L8.66671 6L8.39056 5.05719L9.33337 5.33333L10.2762 5.05719L10 6L10.2762 6.94281L9.33337 6.66667Z" fill="#FFFFFF"/><path fill-rule="evenodd" clip-rule="evenodd" d="M6.66687 2.66669L5.72406 2.94283L6.0002 2.00002L5.72406 1.05721L6.66687 1.33335L7.60968 1.05721L7.33354 2.00002L7.60968 2.94283L6.66687 2.66669Z" fill="#FFFFFF"/></g><defs><clipPath id="clip0_503_4143"><rect width="28" height="20" fill="#FFFFFF"/></clipPath></defs></svg>