<svg fill="none" xmlns="http://www.w3.org/2000/svg" viewBox="0 0 28 20"><g clip-path="url(#clip0_1310_7927)"><path d="M28 0H0V20H28V0Z" fill="#FFFFFF"/><path d="M28 0H0V5.33333H28V0Z" fill="#262626"/><path d="M28.0002 6.66667H0.00016276V13.3333H28.0002V6.66667Z" fill="#E22A32"/><path d="M28 5.33333H0L0.00016276 6.66667H28.0002L28 5.33333Z" fill="#FFFFFF"/><path d="M28.0002 14.6667H0.00016276L0 20H28L28.0002 14.6667Z" fill="#2CA244"/><path d="M28.0002 13.3333H0.00016276V14.6667H28.0002V13.3333Z" fill="#FFFFFF"/><path fill-rule="evenodd" clip-rule="evenodd" d="M0 0L13.3333 10L0 20V0Z" fill="#185AC6"/><path fill-rule="evenodd" clip-rule="evenodd" d="M5.11524 10.6493L4.20386 12.3563L3.93126 10.4405L2.0262 10.1012L3.76394 9.24999L3.49793 7.33333L4.84451 8.72297L6.58516 7.8777L5.67965 9.58779L7.02145 10.982L5.11524 10.6493Z" fill="#FDE14A"/></g><defs><clipPath id="clip0_1310_7927"><rect width="28" height="20" fill="#FFFFFF"/></clipPath></defs></svg>