<svg fill="none" xmlns="http://www.w3.org/2000/svg" viewBox="0 0 28 20"><g clip-path="url(#clip0_503_3445)"><path d="M2.35355e-05 0H28C28 6.66667 28 13.3333 28 20C18.6667 20 9.33334 20 0 20C8.71683e-06 13.3333 2.35355e-05 6.66667 2.35355e-05 0Z" fill="#FFFFFF"/><path d="M2.35355e-05 0H28V20H0L2.35355e-05 0Z" fill="#79CFF6"/><path fill-rule="evenodd" clip-rule="evenodd" d="M17.3334 10C17.3334 8 17.3334 5.33333 17.3334 5.33333H24C24 5.33333 24 8 24 10C24 13.3333 20.6667 14.6667 20.6667 14.6667C20.6667 14.6667 17.3334 13.3333 17.3334 10Z" fill="#FFFFFF"/><path d="M19.3334 7.99999C19.3334 8.36818 19.0349 8.66666 18.6667 8.66666C18.2985 8.66666 18 8.36818 18 7.99999C18 7.6318 18.2985 7.33332 18.6667 7.33332C19.0349 7.33332 19.3334 7.6318 19.3334 7.99999Z" fill="#2A915C"/><path d="M23.3334 7.99999C23.3334 8.36818 23.0349 8.66666 22.6667 8.66666C22.2985 8.66666 22 8.36818 22 7.99999C22 7.6318 22.2985 7.33332 22.6667 7.33332C23.0349 7.33332 23.3334 7.6318 23.3334 7.99999Z" fill="#2A915C"/><path fill-rule="evenodd" clip-rule="evenodd" d="M17.3334 5.33333H24V6.66667H21.3334V9.33333H24V10.6667H21.3334V14.6667H20V10.6667H17.3334V9.33333H20V6.66667H17.3334V5.33333Z" fill="#EB1D43"/><path d="M0.0221206 0.0286826H14.0221V10.0287H0.0221206V0.0286826Z" fill="#042C90"/><path d="M14.0221 0.973324L11.4529 3.12817H14.0221V6.69586H11.4534L14.0221 8.84967V10.0287L10.826 10.0284L8.80789 8.33874V10.0284H5.23648V8.33722L3.21475 10.0284L0.0221206 10.0287L0.0215103 8.83947L2.58499 6.69586H0.0215103V3.12817H2.58865L0.0215103 0.977901L0.0221206 0.0286826L3.49502 0.0284385L5.23648 1.48602V0.0284385H8.80789V1.48889L10.5567 0.0284385L14.0221 0.0286826V0.973324Z" fill="#FFFFFF"/><path d="M8.70436 4.12815L13.5925 0.028457L12.1158 0.025875L7.8079 3.62686V0.0303306L6.23649 0.0303305V3.627L1.93753 0.0211753L0.447667 0.0304083L5.33977 4.12815H0.0221206V5.69585H5.33976L0.160551 10.0267L1.66058 10.0248L6.23649 6.19692V10.0263H7.8079V6.19713L12.3815 10.0267L13.8718 10.0287L8.70445 5.69585H14.0221V4.12815H8.70436Z" fill="#DC1F37"/></g><defs><clipPath id="clip0_503_3445"><rect width="28" height="20" fill="#FFFFFF"/></clipPath></defs></svg>