<svg fill="none" xmlns="http://www.w3.org/2000/svg" viewBox="0 0 28 20"><g clip-path="url(#clip0_503_3486)"><path d="M0 2C0 0.895431 0.895431 0 2 0H26C27.1046 0 28 0.895431 28 2V18C28 19.1046 27.1046 20 26 20H2C0.895431 20 0 19.1046 0 18V2Z" fill="#FFFFFF"/><path d="M28 0H0V1.33333H28V0Z" fill="#D02F44"/><path d="M28 2.66667H0V4H28V2.66667Z" fill="#D02F44"/><path d="M0 5.33333H28V6.66667H0V5.33333Z" fill="#D02F44"/><path d="M28 8H0V9.33333H28V8Z" fill="#D02F44"/><path d="M0 10.6667H28V12H0V10.6667Z" fill="#D02F44"/><path d="M28 13.3333H0V14.6667H28V13.3333Z" fill="#D02F44"/><path d="M0 16H28V17.3333H0V16Z" fill="#D02F44"/><path d="M28 18.6667H0V20H28V18.6667Z" fill="#D02F44"/><path d="M0 0H12V9.33333H0V0Z" fill="#46467F"/><path d="M2.66667 2C2.66667 2.36819 2.36819 2.66667 2 2.66667C1.63181 2.66667 1.33333 2.36819 1.33333 2C1.33333 1.63181 1.63181 1.33333 2 1.33333C2.36819 1.33333 2.66667 1.63181 2.66667 2Z" fill="#FBFBFB"/><path d="M5.33333 2C5.33333 2.36819 5.03486 2.66667 4.66667 2.66667C4.29848 2.66667 4 2.36819 4 2C4 1.63181 4.29848 1.33333 4.66667 1.33333C5.03486 1.33333 5.33333 1.63181 5.33333 2Z" fill="#FBFBFB"/><path d="M7.33333 2.66667C7.70152 2.66667 8 2.36819 8 2C8 1.63181 7.70152 1.33333 7.33333 1.33333C6.96514 1.33333 6.66667 1.63181 6.66667 2C6.66667 2.36819 6.96514 2.66667 7.33333 2.66667Z" fill="#FBFBFB"/><path d="M10.6667 2C10.6667 2.36819 10.3682 2.66667 10 2.66667C9.63181 2.66667 9.33333 2.36819 9.33333 2C9.33333 1.63181 9.63181 1.33333 10 1.33333C10.3682 1.33333 10.6667 1.63181 10.6667 2Z" fill="#FBFBFB"/><path d="M3.33333 4C3.70152 4 4 3.70152 4 3.33333C4 2.96514 3.70152 2.66667 3.33333 2.66667C2.96514 2.66667 2.66667 2.96514 2.66667 3.33333C2.66667 3.70152 2.96514 4 3.33333 4Z" fill="#FBFBFB"/><path d="M6.66667 3.33333C6.66667 3.70152 6.36819 4 6 4C5.63181 4 5.33333 3.70152 5.33333 3.33333C5.33333 2.96514 5.63181 2.66667 6 2.66667C6.36819 2.66667 6.66667 2.96514 6.66667 3.33333Z" fill="#FBFBFB"/><path d="M8.66667 4C9.03486 4 9.33333 3.70152 9.33333 3.33333C9.33333 2.96514 9.03486 2.66667 8.66667 2.66667C8.29848 2.66667 8 2.96514 8 3.33333C8 3.70152 8.29848 4 8.66667 4Z" fill="#FBFBFB"/><path d="M10.6667 4.66667C10.6667 5.03486 10.3682 5.33333 10 5.33333C9.63181 5.33333 9.33333 5.03486 9.33333 4.66667C9.33333 4.29848 9.63181 4 10 4C10.3682 4 10.6667 4.29848 10.6667 4.66667Z" fill="#FBFBFB"/><path d="M7.33333 5.33333C7.70152 5.33333 8 5.03486 8 4.66667C8 4.29848 7.70152 4 7.33333 4C6.96514 4 6.66667 4.29848 6.66667 4.66667C6.66667 5.03486 6.96514 5.33333 7.33333 5.33333Z" fill="#FBFBFB"/><path d="M5.33333 4.66667C5.33333 5.03486 5.03486 5.33333 4.66667 5.33333C4.29848 5.33333 4 5.03486 4 4.66667C4 4.29848 4.29848 4 4.66667 4C5.03486 4 5.33333 4.29848 5.33333 4.66667Z" fill="#FBFBFB"/><path d="M2 5.33333C2.36819 5.33333 2.66667 5.03486 2.66667 4.66667C2.66667 4.29848 2.36819 4 2 4C1.63181 4 1.33333 4.29848 1.33333 4.66667C1.33333 5.03486 1.63181 5.33333 2 5.33333Z" fill="#FBFBFB"/><path d="M4 6C4 6.36819 3.70152 6.66667 3.33333 6.66667C2.96514 6.66667 2.66667 6.36819 2.66667 6C2.66667 5.63181 2.96514 5.33333 3.33333 5.33333C3.70152 5.33333 4 5.63181 4 6Z" fill="#FBFBFB"/><path d="M6 6.66667C6.36819 6.66667 6.66667 6.36819 6.66667 6C6.66667 5.63181 6.36819 5.33333 6 5.33333C5.63181 5.33333 5.33333 5.63181 5.33333 6C5.33333 6.36819 5.63181 6.66667 6 6.66667Z" fill="#FBFBFB"/><path d="M9.33333 6C9.33333 6.36819 9.03486 6.66667 8.66667 6.66667C8.29848 6.66667 8 6.36819 8 6C8 5.63181 8.29848 5.33333 8.66667 5.33333C9.03486 5.33333 9.33333 5.63181 9.33333 6Z" fill="#FBFBFB"/><path d="M10 8C10.3682 8 10.6667 7.70152 10.6667 7.33333C10.6667 6.96514 10.3682 6.66667 10 6.66667C9.63181 6.66667 9.33333 6.96514 9.33333 7.33333C9.33333 7.70152 9.63181 8 10 8Z" fill="#FBFBFB"/><path d="M8 7.33333C8 7.70152 7.70152 8 7.33333 8C6.96514 8 6.66667 7.70152 6.66667 7.33333C6.66667 6.96514 6.96514 6.66667 7.33333 6.66667C7.70152 6.66667 8 6.96514 8 7.33333Z" fill="#FBFBFB"/><path d="M4.66667 8C5.03486 8 5.33333 7.70152 5.33333 7.33333C5.33333 6.96514 5.03486 6.66667 4.66667 6.66667C4.29848 6.66667 4 6.96514 4 7.33333C4 7.70152 4.29848 8 4.66667 8Z" fill="#FBFBFB"/><path d="M2.66667 7.33333C2.66667 7.70152 2.36819 8 2 8C1.63181 8 1.33333 7.70152 1.33333 7.33333C1.33333 6.96514 1.63181 6.66667 2 6.66667C2.36819 6.66667 2.66667 6.96514 2.66667 7.33333Z" fill="#FBFBFB"/></g><defs><clipPath id="clip0_503_3486"><rect width="28" height="20" fill="#FFFFFF"/></clipPath></defs></svg>