<svg fill="none" xmlns="http://www.w3.org/2000/svg" viewBox="0 0 28 20"><g clip-path="url(#clip0_503_4588)"><path d="M0 0H28C28 6.66667 28 13.3333 28 20C18.6667 20 9.33337 20 3.93987e-05 20C3.93987e-05 13.3333 0.000293331 6.66667 0 0Z" fill="#FFFFFF"/><path d="M0 0H28V20H3.93987e-05L0 0Z" fill="#FFBF19"/><path fill-rule="evenodd" clip-rule="evenodd" d="M10.6665 1.33331H25.3332C26.0696 1.33331 26.6665 1.93027 26.6665 2.66665V17.3333C26.6665 18.0697 26.0696 18.6666 25.3332 18.6666H10.6665V1.33331Z" fill="#A52531"/><path d="M1.33354 2.66665C1.33354 1.93027 1.93049 1.33331 2.66687 1.33331H5.33354V18.6666H2.66687C1.93049 18.6666 1.33354 18.0697 1.33354 17.3333V2.66665Z" fill="#03664F"/><path d="M5.33354 1.99998C5.33354 1.63179 5.63201 1.33331 6.0002 1.33331H8.66687C9.03506 1.33331 9.33354 1.63179 9.33354 1.99998V18C9.33354 18.3682 9.03506 18.6666 8.66687 18.6666H6.0002C5.63201 18.6666 5.33354 18.3682 5.33354 18V1.99998Z" fill="#FF6816"/><path d="M13.3334 3.33333C13.3334 3.70152 13.0349 4 12.6667 4C12.2985 4 12 3.70152 12 3.33333V2.66667H12.6667C13.0349 2.66667 13.3334 2.96514 13.3334 3.33333Z" fill="#FFBF18"/><path d="M24.0002 3.33333C24.0002 3.70152 24.2987 4 24.6669 4C25.0351 4 25.3335 3.70152 25.3335 3.33333V2.66667H24.6669C24.2987 2.66667 24.0002 2.96514 24.0002 3.33333Z" fill="#FFBF18"/><path d="M24.6669 16C24.2987 16 24.0002 16.2985 24.0002 16.6667C24.0002 17.0349 24.2987 17.3334 24.6669 17.3334H25.3335V16.6667C25.3335 16.2985 25.0351 16 24.6669 16Z" fill="#FFBF18"/><path d="M13.3334 16.6667C13.3334 16.2985 13.0349 16 12.6667 16C12.2985 16 12 16.2985 12 16.6667V17.3333H12.6667C13.0349 17.3333 13.3334 17.0349 13.3334 16.6667Z" fill="#FFBF18"/><path fill-rule="evenodd" clip-rule="evenodd" d="M15.9999 12.5736C15.9999 12.2568 15.7431 12 15.4263 12C15.3647 12 15.3036 11.9902 15.2455 11.9694C14.8598 11.8316 13.3332 11.2491 13.3332 10.6667C13.3332 10.3018 13.5329 9.937 13.7137 9.68143C13.8711 9.4589 13.9297 9.16973 13.8331 8.91484C13.6065 8.31687 13.2396 7.22836 13.3332 6.66669C13.3831 6.36754 13.5823 6.1056 13.8121 5.8949C14.1677 5.56881 14.6666 5.87699 14.6666 6.35951V8.92133C14.6666 9.17384 14.8092 9.40469 15.0351 9.51761L15.7116 9.85587C15.8838 9.94195 16.0917 9.90821 16.2278 9.77209C16.4437 9.55625 16.3846 9.19238 16.1116 9.05587L15.3332 8.66669V8.00002C15.6654 8.00002 15.7711 7.55227 15.474 7.40373L15.3332 7.33335V6.66669H16.3904C16.5672 6.66669 16.7368 6.59645 16.8618 6.47142L17.138 6.19528C17.263 6.07026 17.4326 6.00002 17.6094 6.00002H18.2545C18.5071 6.00002 18.7379 6.14269 18.8508 6.36854L19.2097 7.08636C19.2888 7.24451 19.3018 7.42759 19.2459 7.59532L18.9591 8.45587C18.8152 8.88755 19.1365 9.33335 19.5915 9.33335H21.7831C21.9219 9.33335 22.055 9.27822 22.1532 9.18008C22.4057 8.92751 22.3366 8.50173 22.0172 8.34199L21.474 8.0704C21.3814 8.02411 21.2794 8.00002 21.1759 8.00002H20.6666C20.2984 8.00002 19.9999 7.70154 19.9999 7.33335V6.94283C19.9999 6.76602 20.0701 6.59645 20.1952 6.47142L20.6666 6.00002V6.66669C20.6666 7.03487 20.965 7.33335 21.3332 7.33335H22.2545C22.5071 7.33335 22.7379 7.47602 22.8508 7.70188L23.2798 8.55975C23.3151 8.63048 23.3377 8.70659 23.3449 8.78533C23.3755 9.12089 23.4486 10.0897 23.3332 10.6667C23.2397 11.1342 22.9779 11.5669 22.8116 11.8061C22.7222 11.9347 22.6666 12.0858 22.6666 12.2424V14.1574C22.6666 14.4387 22.4386 14.6667 22.1573 14.6667C21.7787 14.6667 21.5324 14.2683 21.7018 13.9296L21.9295 13.4741C21.9738 13.3855 21.9738 13.2812 21.9295 13.1926L21.898 13.1296C21.7574 12.8482 21.3332 12.9484 21.3332 13.263C21.3332 13.3093 21.3225 13.3549 21.3018 13.3963L20.8314 14.3371C20.7304 14.5391 20.5239 14.6667 20.298 14.6667C19.8548 14.6667 19.5665 14.2002 19.7647 13.8037L19.9295 13.4741C19.9758 13.3815 19.9999 13.2795 19.9999 13.176V12.6667C19.9999 12.2985 19.7014 12 19.3332 12H17.9999C17.6317 12 17.3332 12.2985 17.3332 12.6667V13.176C17.3332 13.2795 17.3091 13.3815 17.2629 13.4741L16.8314 14.3371C16.7304 14.5391 16.5239 14.6667 16.298 14.6667C15.8548 14.6667 15.5665 14.2002 15.7647 13.8037L15.9295 13.4741C15.9758 13.3815 15.9999 13.2795 15.9999 13.176V12.5736Z" fill="#FFBF18"/></g><defs><clipPath id="clip0_503_4588"><rect width="28" height="20" fill="#FFFFFF"/></clipPath></defs></svg>