<svg fill="none" xmlns="http://www.w3.org/2000/svg" viewBox="0 0 28 20"><g clip-path="url(#clip0_503_4098)"><path d="M0 0C9.33334 0 18.6667 -0.000168782 28 1.79112e-05V20C18.6667 20 9.33334 20 1.0401e-05 20C1.0401e-05 13.3333 7.74377e-05 6.66667 0 0Z" fill="#FFFFFF"/><path d="M0 0L28 1.79112e-05V20H1.0401e-05L0 0Z" fill="#19BFBF"/><path d="M13.4443 3.33335C13.3721 3.33335 13.302 3.35675 13.2443 3.40002L10.7203 5.29297C10.6848 5.31962 10.6443 5.3389 10.6012 5.34968L8.03531 5.99115C8.01171 5.99704 7.98883 6.00551 7.96708 6.01638L5.43252 7.28366C5.36801 7.31592 5.3157 7.36823 5.28345 7.43273L4.08632 9.827C4.03282 9.93399 4.04076 10.0614 4.10711 10.161L5.27716 11.916C5.31366 11.9708 5.33314 12.0351 5.33314 12.1009V13.8619C5.33314 13.9504 5.36826 14.0351 5.43077 14.0977L6.49659 15.1635C6.59804 15.2649 6.75303 15.2901 6.88136 15.2259L10.5961 13.3685C10.6424 13.3454 10.6934 13.3334 10.7452 13.3334H13.2125C13.2904 13.3334 13.3659 13.3607 13.4259 13.4106L17.2404 16.5894C17.3003 16.6394 17.3758 16.6667 17.4538 16.6667H19.8214C19.9329 16.6667 20.0369 16.611 20.0988 16.5183L22.6105 12.7507C22.647 12.6959 22.6665 12.6316 22.6665 12.5658V10.1009C22.6665 10.0351 22.647 9.9708 22.6105 9.91605L19.9998 6.00002L18.0969 2.82852C18.0367 2.72812 17.9282 2.66669 17.8111 2.66669H17.3925C17.1246 2.66669 16.9904 2.99063 17.1799 3.18008C17.2714 3.27161 17.2941 3.41145 17.2362 3.52723L16.7586 4.48242C16.7021 4.59535 16.5867 4.66669 16.4605 4.66669H14.8725C14.7462 4.66669 14.6308 4.59535 14.5743 4.48242L14.0919 3.51762C14.0355 3.40469 13.9201 3.33335 13.7938 3.33335H13.4443Z" fill="#FFFFFF"/><path d="M19.3332 17.3333H17.9998L18.4308 17.7643C18.561 17.8945 18.772 17.8945 18.9022 17.7643L19.3332 17.3333Z" fill="#FFFFFF"/></g><defs><clipPath id="clip0_503_4098"><rect width="28" height="20" fill="#FFFFFF"/></clipPath></defs></svg>