<svg fill="none" xmlns="http://www.w3.org/2000/svg" viewBox="0 0 28 20"><g clip-path="url(#clip0_503_2501)"><path d="M9.79959e-05 0H28C28.0005 6.66667 28.0001 13.3333 28.0001 20C18.6667 20 9.3334 20 7.0697e-05 20C7.0697e-05 13.3333 -0.00010525 6.66667 9.79959e-05 0Z" fill="#FFFFFF"/><path d="M28 0H8.00007L10.0001 1.33333L8.00007 2.66667L10.0001 4L8.00007 5.33333L10.0001 6.66667L8.00007 8L10.0001 9.33333L8.00007 10.6667L10.0001 12L8.00007 13.3333L10.0001 14.6667L8.00007 16L10.0001 17.3333L8.00007 18.6667L10.0001 20H28.0001L28 0Z" fill="#A6264C"/><path d="M0.5 0.5L0.499999 19.5L9.25193 19.5L10.0027 20H7.0697e-05L9.79959e-05 0H8.00007L8.75079 0.5L0.5 0.5Z" fill="#8996A2"/></g><defs><clipPath id="clip0_503_2501"><rect width="28" height="20" fill="#FFFFFF"/></clipPath></defs></svg>