<svg fill="none" xmlns="http://www.w3.org/2000/svg" viewBox="0 0 28 20"><g clip-path="url(#clip0_503_3460)"><path d="M0 0H28V20H0V0Z" fill="#FFFFFF"/><path fill-rule="evenodd" clip-rule="evenodd" d="M14 14.6667C16.5773 14.6667 18.6667 12.5773 18.6667 10C18.6667 7.42267 16.5773 5.33333 14 5.33333C11.4227 5.33333 9.33333 7.42267 9.33333 10C9.33333 12.5773 11.4227 14.6667 14 14.6667Z" fill="#0E4B9C"/><path d="M9.38814 10.7174C10.721 11.9366 12.6848 12.6395 14 10.6667C15.3114 8.69951 17.9128 8.66722 18.6322 10.5698C18.655 10.383 18.6667 10.1929 18.6667 10C18.6667 7.42267 16.5773 5.33333 14 5.33333C11.4227 5.33333 9.33333 7.42267 9.33333 10C9.33333 10.244 9.35205 10.4836 9.38814 10.7174Z" fill="#E01B41"/><path d="M6.17308 3.55662C6.26513 3.39719 6.46899 3.34257 6.62842 3.43462L7.20577 3.76795C7.3652 3.86 7.41983 4.06386 7.32778 4.22329L5.66111 7.11004C5.56907 7.26947 5.3652 7.3241 5.20577 7.23205L4.62842 6.89872C4.46899 6.80667 4.41436 6.60281 4.50641 6.44338L6.17308 3.55662Z" fill="#262626"/><path d="M20.7942 3.76795C20.6348 3.86 20.5802 4.06386 20.6722 4.22329L22.3389 7.11004C22.4309 7.26947 22.6348 7.3241 22.7942 7.23205L23.3716 6.89872C23.531 6.80667 23.5856 6.60281 23.4936 6.44338L21.8269 3.55662C21.7349 3.39719 21.531 3.34257 21.3716 3.43462L20.7942 3.76795Z" fill="#262626"/><path d="M19.0622 4.76795C18.9027 4.86 18.8481 5.06386 18.9402 5.22329L20.6068 8.11004C20.6989 8.26947 20.9027 8.3241 21.0622 8.23205L21.6395 7.89872C21.799 7.80667 21.8536 7.60281 21.7615 7.44338L20.0949 4.55662C20.0028 4.39719 19.799 4.34257 19.6395 4.43462L19.0622 4.76795Z" fill="#262626"/><path d="M4.50641 13.5566C4.41436 13.3972 4.46899 13.1933 4.62842 13.1013L5.20577 12.7679C5.3652 12.6759 5.56907 12.7305 5.66111 12.89L7.32778 15.7767C7.41983 15.9361 7.3652 16.14 7.20577 16.232L6.62842 16.5654C6.46899 16.6574 6.26513 16.6028 6.17308 16.4434L4.50641 13.5566Z" fill="#262626"/><path d="M6.36047 12.1013C6.20104 12.1933 6.14642 12.3972 6.23846 12.5566L7.90513 15.4434C7.99718 15.6028 8.20104 15.6574 8.36047 15.5654L8.93782 15.2321C9.09725 15.14 9.15188 14.9361 9.05983 14.7767L7.39316 11.89C7.30112 11.7305 7.09725 11.6759 6.93782 11.7679L6.36047 12.1013Z" fill="#262626"/><path d="M20.6068 11.89C20.6989 11.7305 20.9027 11.6759 21.0622 11.768L21.6395 12.1013C21.799 12.1933 21.8536 12.3972 21.7615 12.5566L20.0949 15.4434C20.0028 15.6028 19.799 15.6574 19.6395 15.5654L19.0622 15.2321C18.9027 15.14 18.8481 14.9361 18.9402 14.7767L20.6068 11.89Z" fill="#262626"/><path d="M22.7942 12.768C22.6348 12.6759 22.4309 12.7305 22.3389 12.89L20.6722 15.7767C20.5802 15.9361 20.6348 16.14 20.7942 16.2321L21.3716 16.5654C21.531 16.6574 21.7349 16.6028 21.8269 16.4434L23.4936 13.5566C23.5856 13.3972 23.531 13.1933 23.3716 13.1013L22.7942 12.768Z" fill="#262626"/><path d="M8.36047 4.43462C8.20104 4.34257 7.99718 4.39719 7.90513 4.55662L6.23846 7.44338C6.14642 7.60281 6.20104 7.80667 6.36047 7.89872L6.93782 8.23205C7.09725 8.3241 7.30112 8.26947 7.39316 8.11004L9.05983 5.22329C9.15188 5.06386 9.09725 4.86 8.93782 4.76795L8.36047 4.43462Z" fill="#262626"/><path fill-rule="evenodd" clip-rule="evenodd" d="M0 0V20H28V0H0ZM27.5 0.5H0.5L0.5 19.5001H27.5V0.5Z" fill="#8996A2"/></g><defs><clipPath id="clip0_503_3460"><rect width="28" height="20" fill="#FFFFFF"/></clipPath></defs></svg>