<svg fill="none" xmlns="http://www.w3.org/2000/svg" viewBox="0 0 28 20"><g clip-path="url(#clip0_503_3542)"><path d="M-0.0276521 0H28V20H-0.0276521V0Z" fill="#FFFFFF"/><path fill-rule="evenodd" clip-rule="evenodd" d="M-3.17022e-06 13.3333H28L28 6.66667H9.24397V5.33333C9.24397 5.33333 8.30367 4.66667 7.33333 4.66667C6.36299 4.66667 5.33333 5.33333 5.33333 5.33333V6.66667H-0.0334473L-3.17022e-06 13.3333ZM8.66666 8C8.66666 8.73638 8.06971 9.33333 7.33333 9.33333C6.59695 9.33333 6 8.73638 6 8C6 7.26362 6.59695 6.66667 7.33333 6.66667C8.06971 6.66667 8.66666 7.26362 8.66666 8Z" fill="#0C47B7"/><path fill-rule="evenodd" clip-rule="evenodd" d="M-3.17022e-06 20H28V13.3333H-3.17022e-06V20Z" fill="#E53B35"/><path d="M28 0L28 6.65284H27.5V0.5H0.5L0.5 6.65284H0L2.72989e-05 0H28Z" fill="#8996A2"/></g><defs><clipPath id="clip0_503_3542"><rect width="28" height="20" fill="#FFFFFF"/></clipPath></defs></svg>