<svg fill="none" xmlns="http://www.w3.org/2000/svg" viewBox="0 0 28 20"><g clip-path="url(#clip0_503_4413)"><path d="M0 0H28C28 6.66667 28 13.3333 28 20C18.6667 20 9.33333 20 0 20V0Z" fill="#FFFFFF"/><path d="M0 0H28V20H0V0Z" fill="#07319C"/><path fill-rule="evenodd" clip-rule="evenodd" d="M20.6665 6.66667C21.7711 6.66667 22.6665 6.06971 22.6665 5.33333C22.6665 4.59695 21.7711 4 20.6665 4C19.5619 4 18.6665 4.59695 18.6665 5.33333C18.6665 6.06971 19.5619 6.66667 20.6665 6.66667Z" fill="#FAD051"/><path fill-rule="evenodd" clip-rule="evenodd" d="M17.3335 9.99998C17.3335 7.99998 17.3335 5.33331 17.3335 5.33331H24.0002C24.0002 5.33331 24.0002 7.99998 24.0002 9.99998C24.0002 13.3333 20.6668 14.6666 20.6668 14.6666C20.6668 14.6666 17.3335 13.3333 17.3335 9.99998Z" fill="#FBFBFB"/><path fill-rule="evenodd" clip-rule="evenodd" d="M17.3335 5.33331H24.0002V6.66665H17.3335V5.33331Z" fill="#CF142C"/><path d="M17.7859 12C17.5942 11.6047 17.4494 11.1612 17.3796 10.6666H23.954C23.8843 11.1612 23.7395 11.6047 23.5478 12H17.7859Z" fill="#125FBA"/><path d="M20.6668 14.6666C20.6612 14.6644 19.6469 14.2571 18.7387 13.3333H22.5949C21.6868 14.2571 20.6725 14.6644 20.6668 14.6666Z" fill="#125FBA"/><path d="M24.0002 9.3333V7.99997H17.3335V9.3333H24.0002Z" fill="#125FBA"/><path d="M14.0006 0.947449L11.4314 3.10229H14.0006V6.66998H11.4319L14.0006 8.82379V10.0026H10.8044L8.78638 8.31287V10.0026H5.21497V8.31134L3.19324 10.0026H0V8.8136L2.56348 6.66998H0V3.10229H2.56714L0 0.952026V0.00256348H3.47351L5.21497 1.46014V0.00256348H8.78638V1.46301L10.5352 0.00256348H14.0006V0.947449Z" fill="#FFFFFF"/><path d="M8.68285 4.10227L13.571 0.00258202L12.0943 0L7.78639 3.60098V0.00445557L6.21498 0.00445554V3.60113L1.92808 0.0131366L0.426157 0.00453328L5.31826 4.10227H0.000610352V5.66998H5.31825L0.139041 10.0008L1.63907 9.9989L6.21498 6.17104V10.0004H7.78639V6.17126L12.36 10.0008L13.8503 10.0028L8.68294 5.66998H14.0006V4.10227H8.68285Z" fill="#DC1F37"/></g><defs><clipPath id="clip0_503_4413"><rect width="28" height="20" fill="#FFFFFF"/></clipPath></defs></svg>