<svg fill="none" xmlns="http://www.w3.org/2000/svg" viewBox="0 0 28 20"><g clip-path="url(#clip0_1310_7816)"><path d="M28 0H0V20H28V0Z" fill="#FFFFFF"/><path d="M28 0H0V20H28V0Z" fill="#345CB3"/><path fill-rule="evenodd" clip-rule="evenodd" d="M12 8H0V12H12V20H16V12H28V8H16V0H12V8Z" fill="#FFFFFF"/><path fill-rule="evenodd" clip-rule="evenodd" d="M6.38354 2.14754C6.1795 2.13189 5.95883 2.13035 5.7564 2.13724C5.69705 2.13959 5.68741 2.13997 5.67786 2.1405L5.67201 2.14084C5.48822 2.15148 5.33061 2.01111 5.31997 1.82732C5.30933 1.64354 5.4497 1.48592 5.63348 1.47529C5.6541 1.4741 5.65411 1.4741 5.73366 1.47097C5.95859 1.4633 6.20216 1.465 6.43454 1.48283C7.03024 1.52853 7.38817 1.64029 7.48298 2.00463C7.55048 2.26397 7.42273 2.45296 7.19246 2.62119C7.13233 2.66513 7.06448 2.70811 6.97723 2.7591C6.92973 2.78686 6.86759 2.82204 6.76063 2.8826L6.75849 2.88381C6.44521 3.06306 6.34858 3.16012 6.35427 3.18045C6.36015 3.20143 6.53191 3.26549 6.93347 3.32845L7.02538 3.34272C7.37214 3.39643 7.52607 3.42893 7.6859 3.49974C7.98397 3.63179 8.14484 3.88811 8.0481 4.21345C7.95456 4.52803 7.75755 4.66323 7.29548 4.78158C7.40776 4.79052 7.51213 4.80442 7.60819 4.82363C8.12697 4.92738 8.45446 5.20983 8.40288 5.68123C8.32173 6.42288 7.52798 6.72451 6.61476 6.60445C5.87166 6.50676 5.25423 6.16025 5.10869 5.65176C4.86879 5.69755 4.6729 5.74024 4.54443 5.77104C4.36541 5.81397 4.18549 5.70364 4.14257 5.52462C4.09964 5.3456 4.20997 5.16568 4.38899 5.12275C4.56176 5.08132 4.84121 5.02135 5.18234 4.96014C5.36949 4.59039 5.80031 4.41144 6.5084 4.26702C6.60866 4.24692 6.62436 4.24377 6.69555 4.22983C6.70346 4.22828 6.71205 4.22659 6.72153 4.22474C6.72784 4.2235 6.73454 4.22219 6.74169 4.22079C7.03524 4.16299 7.21867 4.11273 7.31731 4.07549C7.23383 4.05288 7.11437 4.03112 6.92334 4.00153L6.83022 3.98707C6.12558 3.8766 5.82552 3.76469 5.71229 3.36015C5.58307 2.89854 5.83816 2.64232 6.42741 2.30517L6.64783 2.17907C6.57492 2.16842 6.48469 2.1553 6.38354 2.14754ZM5.78896 5.53643C5.90768 5.7089 6.2492 5.88399 6.70166 5.94347C7.29378 6.02132 7.71243 5.86223 7.74017 5.60872C7.74538 5.56117 7.69974 5.52181 7.47745 5.47735C7.20443 5.42275 6.79885 5.42346 6.30349 5.4727C6.13777 5.48917 5.96554 5.51067 5.78896 5.53643Z" fill="#FFFFFF"/><path fill-rule="evenodd" clip-rule="evenodd" d="M21.8503 2.14754C21.6463 2.13189 21.4256 2.13035 21.2232 2.13724C21.1524 2.14004 21.1524 2.14004 21.1388 2.14084C20.955 2.15148 20.7974 2.01111 20.7868 1.82732C20.7761 1.64354 20.9165 1.48592 21.1003 1.47529C21.1209 1.4741 21.1209 1.4741 21.2005 1.47096C21.4254 1.4633 21.669 1.465 21.9013 1.48283C22.497 1.52853 22.855 1.64029 22.9498 2.00463C23.0173 2.26397 22.8895 2.45296 22.6593 2.62119C22.5991 2.66513 22.5313 2.70811 22.444 2.7591C22.3966 2.78682 22.3346 2.82193 22.2279 2.88232L22.2253 2.88381C21.912 3.06306 21.8154 3.16012 21.8211 3.18045C21.8269 3.20143 21.9987 3.26549 22.4003 3.32845L22.4922 3.34272C22.8389 3.39643 22.9929 3.42893 23.1527 3.49974C23.4508 3.63179 23.6116 3.88811 23.5149 4.21345C23.4214 4.52803 23.2243 4.66323 22.7623 4.78158C22.8745 4.79052 22.9789 4.80442 23.075 4.82363C23.5938 4.92738 23.9213 5.20983 23.8697 5.68123C23.7885 6.42288 22.9948 6.72451 22.0816 6.60445C21.3385 6.50676 20.721 6.16025 20.5755 5.65176C20.3356 5.69755 20.1397 5.74024 20.0112 5.77104C19.8322 5.81397 19.6523 5.70364 19.6094 5.52462C19.5664 5.3456 19.6768 5.16568 19.8558 5.12275C20.0286 5.08132 20.308 5.02135 20.6491 4.96014C20.8363 4.59039 21.2671 4.41144 21.9752 4.26702C21.99 4.26405 22.0035 4.26134 22.015 4.25903C22.0959 4.24283 22.1085 4.24035 22.2086 4.22076C22.5022 4.16296 22.6855 4.11273 22.7841 4.07549C22.7006 4.05288 22.5812 4.03112 22.3901 4.00153L22.297 3.98707C21.5924 3.8766 21.2923 3.76469 21.1791 3.36015C21.0499 2.89854 21.305 2.64232 21.8942 2.30517L22.1146 2.17907C22.0417 2.16842 21.9515 2.1553 21.8503 2.14754ZM21.2558 5.53643C21.3745 5.7089 21.716 5.88399 22.1685 5.94347C22.7606 6.02132 23.1792 5.86223 23.207 5.60872C23.2122 5.56117 23.1665 5.52181 22.9443 5.47735C22.6712 5.42275 22.2656 5.42346 21.7703 5.4727C21.6046 5.48917 21.4323 5.51067 21.2558 5.53643Z" fill="#FFFFFF"/><path fill-rule="evenodd" clip-rule="evenodd" d="M21.2232 14.1372C21.4256 14.1303 21.6463 14.1319 21.8503 14.1475C21.9515 14.1553 22.0417 14.1684 22.1146 14.1791L21.8942 14.3052C21.305 14.6423 21.0499 14.8985 21.1791 15.3602C21.2923 15.7647 21.5924 15.8766 22.297 15.9871L22.3901 16.0015C22.5812 16.0311 22.7006 16.0529 22.7841 16.0755C22.6855 16.1127 22.5022 16.163 22.2086 16.2208C22.0942 16.2432 22.0941 16.2432 21.9757 16.2669C21.2676 16.4113 20.8363 16.5904 20.6491 16.9601C20.308 17.0213 20.0286 17.0813 19.8558 17.1228C19.6768 17.1657 19.5664 17.3456 19.6094 17.5246C19.6523 17.7036 19.8322 17.814 20.0112 17.771C20.1397 17.7402 20.3356 17.6975 20.5755 17.6518C20.721 18.1602 21.3385 18.5068 22.0816 18.6045C22.9948 18.7245 23.7885 18.4229 23.8697 17.6812C23.9213 17.2098 23.5938 16.9274 23.075 16.8236C22.9789 16.8044 22.8745 16.7905 22.7623 16.7816C23.2243 16.6632 23.4214 16.528 23.5149 16.2135C23.6116 15.8881 23.4508 15.6318 23.1527 15.4997C22.9929 15.4289 22.8389 15.3964 22.4922 15.3427L22.4003 15.3284C21.9987 15.2655 21.8269 15.2014 21.8211 15.1804C21.8154 15.1601 21.912 15.0631 22.2253 14.8838L22.2279 14.8823C22.3344 14.822 22.3966 14.7868 22.444 14.7591C22.5313 14.7081 22.5991 14.6651 22.6593 14.6212C22.8895 14.453 23.0173 14.264 22.9498 14.0046C22.855 13.6403 22.497 13.5285 21.9013 13.4828C21.669 13.465 21.4254 13.4633 21.2005 13.471C21.1209 13.4741 21.1209 13.4741 21.1003 13.4753C20.9165 13.4859 20.7761 13.6435 20.7868 13.8273C20.7974 14.0111 20.955 14.1515 21.1388 14.1408C21.1523 14.14 21.1524 14.14 21.2232 14.1372ZM22.1685 17.9435C21.716 17.884 21.3745 17.7089 21.2558 17.5364C21.4323 17.5107 21.6046 17.4892 21.7703 17.4727C22.2656 17.4235 22.6712 17.4228 22.9443 17.4774C23.1665 17.5218 23.2122 17.5612 23.207 17.6087C23.1792 17.8622 22.7606 18.0213 22.1685 17.9435Z" fill="#FFFFFF"/><path fill-rule="evenodd" clip-rule="evenodd" d="M6.38354 14.1475C6.1795 14.1319 5.95883 14.1303 5.7564 14.1372C5.74313 14.1378 5.73234 14.1382 5.72349 14.1385C5.68514 14.1401 5.68304 14.1402 5.67204 14.1408C5.48825 14.1515 5.33061 14.0111 5.31997 13.8273C5.30933 13.6435 5.4497 13.4859 5.63348 13.4753C5.65409 13.4741 5.65411 13.4741 5.73352 13.471C5.95845 13.4633 6.20216 13.465 6.43454 13.4828C7.03024 13.5285 7.38817 13.6403 7.48298 14.0046C7.55048 14.264 7.42273 14.453 7.19246 14.6212C7.13233 14.6651 7.06448 14.7081 6.97723 14.7591C6.92975 14.7868 6.86764 14.822 6.76077 14.8825L6.75849 14.8838C6.44521 15.0631 6.34858 15.1601 6.35427 15.1804C6.36015 15.2014 6.53191 15.2655 6.93347 15.3284L7.02538 15.3427C7.37214 15.3964 7.52607 15.4289 7.6859 15.4997C7.98397 15.6318 8.14484 15.8881 8.0481 16.2135C7.95456 16.528 7.75755 16.6632 7.29548 16.7816C7.40776 16.7905 7.51213 16.8044 7.60819 16.8236C8.12697 16.9274 8.45446 17.2098 8.40288 17.6812C8.32173 18.4229 7.52798 18.7245 6.61476 18.6045C5.87166 18.5068 5.25423 18.1602 5.10869 17.6518C4.86879 17.6975 4.6729 17.7402 4.54443 17.771C4.36541 17.814 4.18549 17.7036 4.14257 17.5246C4.09964 17.3456 4.20997 17.1657 4.38899 17.1228C4.56176 17.0813 4.84121 17.0213 5.18234 16.9601C5.36949 16.5904 5.80031 16.4114 6.5084 16.267C6.52325 16.264 6.53628 16.2614 6.54788 16.2591C6.62907 16.2428 6.64161 16.2404 6.74185 16.2208C7.0354 16.163 7.21866 16.1127 7.3173 16.0755C7.23383 16.0529 7.11437 16.0311 6.92334 16.0015L6.83022 15.9871C6.12558 15.8766 5.82552 15.7647 5.71229 15.3602C5.58307 14.8985 5.83816 14.6423 6.42741 14.3052L6.64783 14.1791C6.57492 14.1684 6.48469 14.1553 6.38354 14.1475ZM5.78896 17.5364C5.90768 17.7089 6.24919 17.884 6.70166 17.9435C7.29378 18.0213 7.71243 17.8622 7.74017 17.6087C7.74538 17.5612 7.69974 17.5218 7.47745 17.4774C7.20443 17.4228 6.79885 17.4235 6.30349 17.4727C6.13777 17.4892 5.96554 17.5107 5.78896 17.5364Z" fill="#FFFFFF"/></g><defs><clipPath id="clip0_1310_7816"><rect width="28" height="20" fill="#FFFFFF"/></clipPath></defs></svg>