<svg fill="none" xmlns="http://www.w3.org/2000/svg" viewBox="0 0 28 20"><g clip-path="url(#clip0_503_4839)"><path d="M0 0C9.33335 0 18.6667 -8.36893e-05 28.0001 8.88109e-06V20C18.6667 20 9.33339 20 5.74589e-05 20C5.74589e-05 13.3333 0.000427793 6.66667 0 0Z" fill="#FFFFFF"/><path d="M0 0L28.0001 8.88109e-06V20H5.74589e-05L0 0Z" fill="#4189DD"/><path fill-rule="evenodd" clip-rule="evenodd" d="M4.64938 3.9809L5.33515 2.66667L6.02092 3.9809L7.33515 4.66667L6.02092 5.35243L5.33515 6.66667L4.64938 5.35243L3.33515 4.66667L4.64938 3.9809Z" fill="#D21034"/><path fill-rule="evenodd" clip-rule="evenodd" d="M4.64938 3.9809L5.33515 2.66667L6.02092 3.9809L7.33515 4.66667L6.02092 5.35243L5.33515 6.66667L4.64938 5.35243L3.33515 4.66667L4.64938 3.9809ZM4.15525 5.84656L5.33515 8.10777L6.51505 5.84656L8.77626 4.66667L6.51505 3.48677L5.33515 1.22556L4.15525 3.48677L1.89405 4.66667L4.15525 5.84656Z" fill="#FFFFFF"/><path d="M5.74589e-05 14.6667H28.0001V16H5.74589e-05V14.6667Z" fill="#F9D616"/><path d="M5.74589e-05 12H28.0001V13.3333H5.74589e-05V12Z" fill="#F9D616"/></g><defs><clipPath id="clip0_503_4839"><rect width="28" height="20" fill="#FFFFFF"/></clipPath></defs></svg>