<svg fill="none" xmlns="http://www.w3.org/2000/svg" viewBox="0 0 28 20"><g clip-path="url(#clip0_503_3532)"><path d="M6.22869e-06 0H28C28 6.66667 28 13.3333 28 20C18.6667 20 9.33333 20 0 20C0 13.3333 -4.01451e-05 6.66667 6.22869e-06 0Z" fill="#FFFFFF"/><path d="M28 0H13.3333V2.66667H28V0Z" fill="#E1244A"/><path d="M28 5.33333H13.3333V8H28V5.33333Z" fill="#E1244A"/><path d="M13.3333 10.6667H28V13.3333H13.3333V10.6667Z" fill="#E1244A"/><path d="M28 16H0V18.6667H28V16Z" fill="#E1244A"/><path d="M6.22869e-06 0H13.3333V13.3333L0 13.3333L6.22869e-06 0Z" fill="#0C3F8E"/><path fill-rule="evenodd" clip-rule="evenodd" d="M6.66667 8.22667L4.31553 9.90273L5.18302 7.14873L2.86244 5.4306L5.74972 5.4046L6.66667 2.66667L7.58361 5.4046L10.4709 5.4306L8.15032 7.14873L9.01781 9.90273L6.66667 8.22667Z" fill="#FFFFFF"/></g><defs><clipPath id="clip0_503_3532"><rect width="28" height="20" fill="#FFFFFF"/></clipPath></defs></svg>