<svg fill="none" xmlns="http://www.w3.org/2000/svg" viewBox="0 0 28 20"><g clip-path="url(#clip0_503_4774)"><path d="M9.38773e-06 0H28C28 6.66667 28 13.3333 28 20C18.6667 20 9.33333 20 0 20C0 13.3333 -6.05058e-05 6.66667 9.38773e-06 0Z" fill="#FFFFFF"/><path fill-rule="evenodd" clip-rule="evenodd" d="M0 4H28V0H9.38773e-06L0 4Z" fill="#0B389F"/><path fill-rule="evenodd" clip-rule="evenodd" d="M0 12H28V8H0V12Z" fill="#0B389F"/><path fill-rule="evenodd" clip-rule="evenodd" d="M0 20H28V16H0V20Z" fill="#0B389F"/><path fill-rule="evenodd" clip-rule="evenodd" d="M9.38773e-06 0L13.3333 10L0 20L9.38773e-06 0Z" fill="#E12A43"/><path fill-rule="evenodd" clip-rule="evenodd" d="M4.66667 11.0227L3.09924 12.1574L3.69403 10.316L2.13052 9.17595L4.06555 9.17263L4.66667 7.33333L5.26779 9.17263L7.20282 9.17595L5.6393 10.316L6.23409 12.1574L4.66667 11.0227Z" fill="#FFFFFF"/></g><defs><clipPath id="clip0_503_4774"><rect width="28" height="20" fill="#FFFFFF"/></clipPath></defs></svg>