<svg fill="none" xmlns="http://www.w3.org/2000/svg" viewBox="0 0 28 20"><g clip-path="url(#clip0_503_3830)"><path d="M0 8.88109e-06C9.33333 -8.36891e-05 18.6667 0 28 0C28 6.66667 28 13.3333 28 20C18.6667 20 9.33333 20 0 20L0 8.88109e-06Z" fill="#FFFFFF"/><path d="M0 8.88109e-06L28 0V20H0L0 8.88109e-06Z" fill="#19BFBF"/><path d="M17.0976 17.7643L16.0556 16.7223C16.0191 16.6857 15.9915 16.6411 15.9751 16.592L15.4093 14.8944C15.3639 14.7584 15.2366 14.6667 15.0933 14.6667C14.8766 14.6667 14.7176 14.8703 14.7701 15.0805L15.2876 17.1502C15.316 17.2638 15.2827 17.384 15.1999 17.4668L14.9024 17.7643C14.7722 17.8945 14.5611 17.8945 14.431 17.7643L14.0976 17.431C14.0351 17.3685 14 17.2837 14 17.1953V16.0787C14 16.0269 13.988 15.9759 13.9648 15.9296L13.4255 14.8509C13.369 14.738 13.2536 14.6667 13.1273 14.6667H11.412C11.3603 14.6667 11.3092 14.6787 11.263 14.7019L10.1235 15.2716C10.0444 15.3111 9.98429 15.3805 9.95634 15.4643L9.377 17.2023C9.34904 17.2862 9.28891 17.3555 9.20984 17.3951L8.14907 17.9255C8.05523 17.9724 7.94477 17.9724 7.85093 17.9255L6.85093 17.4255C6.738 17.369 6.66667 17.2536 6.66667 17.1273V15C6.66667 14.8159 6.81591 14.6667 7 14.6667H8.33333C8.51743 14.6667 8.66667 14.5174 8.66667 14.3333V13.3874C8.66667 13.3516 8.67244 13.316 8.68377 13.282L9.25736 11.5613C9.30273 11.4251 9.43011 11.3333 9.57359 11.3333H10.588C10.6397 11.3333 10.6908 11.3213 10.737 11.2981L11.9296 10.7019C11.9759 10.6787 12.0269 10.6667 12.0787 10.6667H13C13.1841 10.6667 13.3333 10.5174 13.3333 10.3333V10.1381C13.3333 10.0497 13.3685 9.96488 13.431 9.90237L13.673 9.66035C13.8339 9.49947 14.1051 9.54348 14.2068 9.74698L14.5745 10.4824C14.631 10.5953 14.7464 10.6667 14.8727 10.6667H16.4264C16.5699 10.6667 16.6973 10.5749 16.7426 10.4387L17.2574 8.89459C17.3027 8.75848 17.4301 8.66667 17.5736 8.66667H18.3333C18.5174 8.66667 18.6667 8.51743 18.6667 8.33333C18.6667 8.14924 18.5174 8 18.3333 8H17.6667C17.4826 8 17.3333 7.85076 17.3333 7.66667V6.74536C17.3333 6.69361 17.3454 6.64257 17.3685 6.59628L17.8926 5.54822C17.9567 5.41989 17.9316 5.2649 17.8301 5.16345L17.569 4.90237C17.4389 4.77219 17.2278 4.77219 17.0976 4.90237L16.0976 5.90237C16.0351 5.96488 16 6.04967 16 6.13807V7.27924C16 7.31507 15.9942 7.35066 15.9829 7.38465L15.4093 9.10541C15.3639 9.24152 15.2366 9.33333 15.0931 9.33333H14.8047C14.7163 9.33333 14.6315 9.29821 14.569 9.2357L14.0961 8.76275C14.0346 8.70123 14 8.61779 14 8.53079C14 8.28692 13.7434 8.12832 13.5253 8.23738L12.8816 8.55922C12.7532 8.62339 12.5982 8.59824 12.4968 8.49678L12.0976 8.09763C12.0351 8.03512 12 7.95033 12 7.86193V6.80474C12 6.71633 12.0351 6.63155 12.0976 6.56904L15.2777 3.38898C15.3143 3.35238 15.3589 3.32481 15.408 3.30845L17.282 2.68377C17.316 2.67244 17.3516 2.66667 17.3874 2.66667H18.4607C18.5869 2.66667 18.7023 2.738 18.7588 2.85093L19.2981 3.92962C19.3213 3.9759 19.3333 4.02694 19.3333 4.07869V5.86193C19.3333 5.95033 19.3685 6.03512 19.431 6.09763L19.8543 6.52099C19.9436 6.61027 19.9748 6.74233 19.9349 6.86211L19.4138 8.42513C19.3663 8.56774 19.4201 8.72451 19.5452 8.80789L21.3333 10L22.3289 10.4978C22.5083 10.5875 22.5684 10.814 22.4572 10.9808L21.3893 12.5827C21.3528 12.6374 21.3333 12.7018 21.3333 12.7676V14.4264C21.3333 14.5699 21.2415 14.6973 21.1054 14.7426L19.4643 15.2897C19.3805 15.3176 19.3111 15.3778 19.2716 15.4568L18.6909 16.6183C18.6748 16.6503 18.6538 16.6796 18.6284 16.7049L17.569 17.7643C17.4389 17.8945 17.2278 17.8945 17.0976 17.7643Z" fill="#FFFFFF"/><path d="M11.3333 17.3333C11.7015 17.3333 12 17.0349 12 16.6667C12 16.2985 11.7015 16 11.3333 16C10.9651 16 10.6667 16.2985 10.6667 16.6667C10.6667 17.0349 10.9651 17.3333 11.3333 17.3333Z" fill="#FFFFFF"/><path d="M9.33333 8.66667C9.33333 9.03486 9.03486 9.33333 8.66667 9.33333C8.29848 9.33333 8 9.03486 8 8.66667C8 8.29848 8.29848 8 8.66667 8C9.03486 8 9.33333 8.29848 9.33333 8.66667Z" fill="#FFFFFF"/><path fill-rule="evenodd" clip-rule="evenodd" d="M9.96481 8.73705C9.98795 8.69076 10 8.63973 10 8.58798V8.07869C10 8.02694 9.98795 7.9759 9.96481 7.92962L9.57454 7.14907C9.46372 6.92744 9.62488 6.66667 9.87268 6.66667H10.3333C10.5174 6.66667 10.6667 6.81591 10.6667 7V8.58798C10.6667 8.63973 10.6787 8.69076 10.7019 8.73705L11.0921 9.5176C11.2029 9.73923 11.0418 10 10.794 10H9.87268C9.62488 10 9.46372 9.73923 9.57454 9.5176L9.96481 8.73705Z" fill="#FFFFFF"/></g><defs><clipPath id="clip0_503_3830"><rect width="28" height="20" fill="#FFFFFF"/></clipPath></defs></svg>