<svg fill="none" xmlns="http://www.w3.org/2000/svg" viewBox="0 0 28 20"><g clip-path="url(#clip0_503_2632)"><path d="M2.83122e-06 8.88109e-06L28 0C28.0187 8.88109e-06 28.0187 8.88109e-06 28.0187 8.88109e-06V20H0H0.0186581L2.83122e-06 8.88109e-06Z" fill="#FFFFFF"/><path d="M2.83122e-06 8.88109e-06L0.0186581 8H8.01866V0L2.83122e-06 8.88109e-06Z" fill="#EF264D"/><path d="M12.0187 0V8H28.0187V8.88109e-06C28.0187 8.88109e-06 28.0187 8.88109e-06 28 0H12.0187Z" fill="#EF264D"/><path d="M28.0187 12H12.0187V20H28.0187V12Z" fill="#EF264D"/><path d="M8.01866 20V12H0.0186581V20H0H8.01866Z" fill="#EF264D"/></g><defs><clipPath id="clip0_503_2632"><rect width="28" height="20" fill="#FFFFFF"/></clipPath></defs></svg>