<svg fill="none" xmlns="http://www.w3.org/2000/svg" viewBox="0 0 28 20"><g clip-path="url(#clip0_503_4791)"><path d="M8.41543e-06 4.91738e-06C9.33334 -1.99337e-05 18.6667 2.64042e-05 28 0V20C18.6667 20 9.33333 20 0 20L8.41543e-06 4.91738e-06Z" fill="#FFFFFF"/><path d="M28 0L8.41543e-06 4.91738e-06L0 20H28V13.3333L0 20L28 6.66667V0Z" fill="#1DBE4F"/><path fill-rule="evenodd" clip-rule="evenodd" d="M8.41543e-06 4.91738e-06L9.33334 2.5332e-06L0 20L8.41543e-06 4.91738e-06Z" fill="#0858B4"/><path fill-rule="evenodd" clip-rule="evenodd" d="M18.6667 2.5332e-06L28 0V6.66667L0 20L18.6667 2.5332e-06Z" fill="#ED3535"/><path fill-rule="evenodd" clip-rule="evenodd" d="M28 20V13.3333L0 20H28Z" fill="#08964F"/><path fill-rule="evenodd" clip-rule="evenodd" d="M9.33334 2.5332e-06H18.6667L0 20L9.33334 2.5332e-06Z" fill="#FFDD67"/></g><defs><clipPath id="clip0_503_4791"><rect width="28" height="20" fill="#FFFFFF"/></clipPath></defs></svg>