<svg fill="none" xmlns="http://www.w3.org/2000/svg" viewBox="0 0 28 20"><g clip-path="url(#clip0_503_4853)"><path d="M-5.24521e-06 2.00001C-5.24521e-06 0.895436 0.895425 5.0962e-06 1.99999 5.0962e-06H26C27.1046 5.0962e-06 28 0.895436 28 2.00001V18C28 19.1046 27.1046 20 26 20H2C0.895426 20 -5.24521e-06 19.1046 -5.24521e-06 18V2.00001Z" fill="#FFFFFF"/><path d="M-5.24521e-06 5.0962e-06H28V20H-5.24521e-06V5.0962e-06Z" fill="#F7E250"/><path fill-rule="evenodd" clip-rule="evenodd" d="M-4.1674 3.38762L32.1674 16.6124L33.5355 12.8536L-2.79932 -0.371155L-4.1674 3.38762Z" fill="#FFFFFF"/><path fill-rule="evenodd" clip-rule="evenodd" d="M-5.53548 7.14639L30.7993 20.3712L32.1674 16.6124L-4.1674 3.38762L-5.53548 7.14639Z" fill="#262626"/></g><defs><clipPath id="clip0_503_4853"><rect width="28" height="20" fill="#FFFFFF"/></clipPath></defs></svg>