<svg fill="none" xmlns="http://www.w3.org/2000/svg" viewBox="0 0 28 20"><g clip-path="url(#clip0_503_2687)"><path d="M7.56979e-06 2.86102e-06H28C28 2.86102e-06 28 0.895433 28 2C28 8 28 14 28 20H0C0 20 6.67572e-06 19.1046 6.67572e-06 18C6.67572e-06 12 1.57891e-06 6 7.56979e-06 2.86102e-06Z" fill="#FFFFFF"/><path fill-rule="evenodd" clip-rule="evenodd" d="M6.67572e-06 13.3333L28 2.86102e-06H7.56979e-06L6.67572e-06 13.3333Z" fill="#0C4799"/><path fill-rule="evenodd" clip-rule="evenodd" d="M4.66667 6L3.64618 7.13035L3.72386 5.60948L2.20299 5.68716L3.33334 4.66667L2.20299 3.64618L3.72386 3.72386L3.64618 2.20299L4.66667 3.33334L5.68716 2.20299L5.60948 3.72386L7.13035 3.64618L6.00001 4.66667L7.13035 5.68716L5.60948 5.60948L5.68716 7.13035L4.66667 6Z" fill="#FFD243"/><path fill-rule="evenodd" clip-rule="evenodd" d="M0 20H28L28 6.66667L0 20Z" fill="#1BAC55"/><path fill-rule="evenodd" clip-rule="evenodd" d="M7 20L28 7V2.86102e-06L20.5 0L0 12.5V20L7 20Z" fill="#FFFFFF"/><path fill-rule="evenodd" clip-rule="evenodd" d="M4.5 20L28 5V2.86102e-06L23.5 0L0 14.5V20L4.5 20Z" fill="#E52347"/></g><defs><clipPath id="clip0_503_2687"><rect width="28" height="20" fill="#FFFFFF"/></clipPath></defs></svg>