<svg fill="none" xmlns="http://www.w3.org/2000/svg" viewBox="0 0 28 20"><g clip-path="url(#clip0_503_2671)"><path d="M0 1.66893e-05C9.33334 -1.68593e-05 18.6667 4.83562e-06 28 0C28 6.66667 28 13.3333 28 20C18.6667 20 9.33334 20 9.31695e-06 20L0 1.66893e-05Z" fill="#FFFFFF"/><path d="M13.3333 1.34706e-05L28 0V20H13.3333V1.34706e-05Z" fill="#F13642"/><path fill-rule="evenodd" clip-rule="evenodd" d="M9.31695e-06 20H9.33334V1.34706e-05L0 1.66893e-05L9.31695e-06 20Z" fill="#17A052"/><path fill-rule="evenodd" clip-rule="evenodd" d="M9.33334 20H18.6667V1.34706e-05H9.33334V20Z" fill="#FFF166"/><path fill-rule="evenodd" clip-rule="evenodd" d="M14 11.3667L12.0407 12.6967L12.7002 10.4223L10.8298 8.96996L13.1967 8.89436L14 6.66668L14.8033 8.89436L17.1702 8.96996L15.2998 10.4223L15.9593 12.6967L14 11.3667Z" fill="#17A052"/></g><defs><clipPath id="clip0_503_2671"><rect width="28" height="20" fill="#FFFFFF"/></clipPath></defs></svg>