<svg fill="none" xmlns="http://www.w3.org/2000/svg" viewBox="0 0 28 20"><g clip-path="url(#clip0_503_4008)"><path d="M0 0C9.33333 0 18.6667 0 28 0C28 6.66667 28 13.3333 28 20C18.6667 20 9.33333 20 0 20V0Z" fill="#FFFFFF"/><path d="M0 0H28V20H0V0Z" fill="#0A17A7"/><path fill-rule="evenodd" clip-rule="evenodd" d="M20 17.3333L19.0572 17.6095L19.3333 16.6667L19.0572 15.7239L20 16L20.9428 15.7239L20.6667 16.6667L20.9428 17.6095L20 17.3333Z" fill="#CA1931"/><path fill-rule="evenodd" clip-rule="evenodd" d="M20 4.66667L19.0572 4.94281L19.3333 4L19.0572 3.05719L20 3.33333L20.9428 3.05719L20.6667 4L20.9428 4.94281L20 4.66667Z" fill="#CA1931"/><path fill-rule="evenodd" clip-rule="evenodd" d="M24 8.66667L23.0572 8.94281L23.3333 8L23.0572 7.05719L24 7.33333L24.9428 7.05719L24.6667 8L24.9428 8.94281L24 8.66667Z" fill="#CA1931"/><path fill-rule="evenodd" clip-rule="evenodd" d="M16 10L15.0572 10.2761L15.3333 9.33333L15.0572 8.39052L16 8.66667L16.9428 8.39052L16.6667 9.33333L16.9428 10.2761L16 10Z" fill="#CA1931"/><path d="M14.0006 0.944641L11.4314 3.09949H14.0006V6.66718H11.4319L14.0006 8.82098V9.99976H10.8044L8.78638 8.31006V9.99976H5.21497V8.30853L3.19324 9.99976H0V8.81079L2.56348 6.66718H0V3.09949H2.56714L0 0.949219V0L3.47351 -0.000244141L5.21497 1.45734V-0.000244141H8.78638V1.46021L10.5352 -0.000244141H14.0006V0.944641Z" fill="#FFFFFF"/><path d="M8.68285 4.09947L13.571 -0.0002256L12.0943 -0.00280762L7.78639 3.59817V0.00164795L6.21498 0.00164792V3.59832L1.92808 0.010329L0.426157 0.00172566L5.31826 4.09947H0.000610352V5.66717H5.31825L0.139041 9.99804L1.63907 9.99609L6.21498 6.16823V9.9976H7.78639V6.16845L12.36 9.99804L13.8503 9.99999L8.68294 5.66717H14.0006V4.09947H8.68285Z" fill="#DC1F37"/></g><defs><clipPath id="clip0_503_4008"><rect width="28" height="20" fill="#FFFFFF"/></clipPath></defs></svg>