<svg fill="none" xmlns="http://www.w3.org/2000/svg" viewBox="0 0 28 20"><g clip-path="url(#clip0_503_4900)"><path d="M0 8.88109e-06C9.33333 -8.36891e-05 18.6667 0 28 0C28 6.66667 28 13.3333 28 20C18.6667 20 9.33333 20 0 20V8.88109e-06Z" fill="#FFFFFF"/><path fill-rule="evenodd" clip-rule="evenodd" d="M0 20H28V13.3333H0V20Z" fill="#F13D4F"/><path fill-rule="evenodd" clip-rule="evenodd" d="M0 13.3333H28V6.66667H0V13.3333Z" fill="#4AC94B"/><path fill-rule="evenodd" clip-rule="evenodd" d="M0 6.66667H28V0L0 8.88109e-06V6.66667Z" fill="#FFD043"/><path fill-rule="evenodd" clip-rule="evenodd" d="M14 12.34L10.4733 14.8541L11.7745 10.7231L8.29366 8.1459L12.6246 8.1069L14 4L15.3754 8.1069L19.7063 8.1459L16.2255 10.7231L17.5267 14.8541L14 12.34Z" fill="#FFFFFF"/></g><defs><clipPath id="clip0_503_4900"><rect width="28" height="20" fill="#FFFFFF"/></clipPath></defs></svg>