<svg fill="none" xmlns="http://www.w3.org/2000/svg" viewBox="0 0 28 20"><g clip-path="url(#clip0_503_3400)"><path d="M0 0H28C28 6.66667 28 13.3333 28 20C18.6667 20 9.33334 20 8.28505e-06 20C8.28505e-06 13.3333 6.16839e-05 6.66667 0 0Z" fill="#FFFFFF"/><path d="M0 0H28V20H8.28505e-06L0 0Z" fill="#19BFBF"/><path fill-rule="evenodd" clip-rule="evenodd" d="M10 16.041C10 16.0138 10.0034 15.9866 10.01 15.9602L11.3098 10.7608C11.3252 10.6993 11.3227 10.6347 11.3026 10.5746L10.7103 8.79765C10.6824 8.71378 10.6223 8.64445 10.5432 8.60492L9.5176 8.09213C9.40468 8.03567 9.33334 7.92025 9.33334 7.79399V5.41202C9.33334 5.36027 9.34539 5.30924 9.36853 5.26295L10.5745 2.85093C10.631 2.738 10.7464 2.66667 10.8727 2.66667H14.3333C14.5174 2.66667 14.6667 2.81591 14.6667 3V3.66667C14.6667 3.85076 14.8159 4 15 4H15.6667C15.8508 4 16 4.14924 16 4.33333V5.12732C16 5.25358 16.0713 5.369 16.1843 5.42546L18.4824 6.57454C18.5953 6.631 18.6667 6.74642 18.6667 6.87268V7.92131C18.6667 7.97306 18.6546 8.0241 18.6315 8.07038L18.0396 9.25416C18.0137 9.30604 17.9746 9.35026 17.9264 9.38244L16.0737 10.6176C16.0254 10.6497 15.9864 10.694 15.9604 10.7458L14.7063 13.2542C14.6803 13.306 14.6413 13.3503 14.593 13.3824L12.7403 14.6176C12.6921 14.6497 12.653 14.694 12.6271 14.7458L11.4255 17.1491C11.369 17.262 11.2536 17.3333 11.1273 17.3333H10.3333C10.1492 17.3333 10 17.1841 10 17V16.041Z" fill="#FFFFFF"/></g><defs><clipPath id="clip0_503_3400"><rect width="28" height="20" fill="#FFFFFF"/></clipPath></defs></svg>