<svg fill="none" xmlns="http://www.w3.org/2000/svg" viewBox="0 0 28 20"><g clip-path="url(#clip0_503_3051)"><path d="M0 0H28V20H0V0Z" fill="#E31F37"/><path fill-rule="evenodd" clip-rule="evenodd" d="M0 10.6667H14.6667V0H0V10.6667Z" fill="#083B9A"/><path d="M6.66667 2.66667L5.72386 2.94281L6 2L5.72386 1.05719L6.66667 1.33333L7.60948 1.05719L7.33333 2L7.60948 2.94281L6.66667 2.66667Z" fill="#FFFFFF"/><path d="M6.66667 9.33333L5.72386 9.60948L6 8.66667L5.72386 7.72386L6.66667 8L7.60948 7.72386L7.33333 8.66667L7.60948 9.60948L6.66667 9.33333Z" fill="#FFFFFF"/><path d="M3.05719 6.27614L4 6L4.94281 6.27614L4.66667 5.33333L4.94281 4.39052L4 4.66667L3.05719 4.39052L3.33333 5.33333L3.05719 6.27614Z" fill="#FFFFFF"/><path d="M10 5.33333L9.05719 5.60948L9.33333 4.66667L9.05719 3.72386L10 4L10.9428 3.72386L10.6667 4.66667L10.9428 5.60948L10 5.33333Z" fill="#FFFFFF"/><path d="M8.66667 7C8.66667 7.1841 8.51743 7.33333 8.33333 7.33333C8.14924 7.33333 8 7.1841 8 7C8 6.81591 8.14924 6.66667 8.33333 6.66667C8.51743 6.66667 8.66667 6.81591 8.66667 7Z" fill="#FFFFFF"/></g><defs><clipPath id="clip0_503_3051"><rect width="28" height="20" fill="#FFFFFF"/></clipPath></defs></svg>