<svg fill="none" xmlns="http://www.w3.org/2000/svg" viewBox="0 0 28 20"><g clip-path="url(#clip0_503_4913)"><path d="M0 0C9.33333 9.07064e-05 18.6667 8.70228e-06 28 8.70228e-06C28 6.66667 28 13.3333 28 20C18.6667 20 9.33333 20.0001 0 20V0Z" fill="#FFFFFF"/><path fill-rule="evenodd" clip-rule="evenodd" d="M0 20L28 20V8.70228e-06L0 0V20Z" fill="#079D7B"/><path d="M15.8849 8.66671C15.8849 8.95857 15.8637 9.24166 15.8238 9.51145C15.9261 9.48001 16.0302 9.45003 16.1361 9.42166C17.9143 8.94519 19.5015 9.1024 19.6811 9.7728C19.8435 10.3787 18.8006 11.1964 17.2858 11.6999C17.0182 10.9062 15.6488 10.6667 13.9998 10.6667C12.349 10.6667 10.9785 10.9067 10.713 11.7025C9.21866 11.198 8.19451 10.3889 8.3555 9.78812C8.53513 9.11771 10.1223 8.9605 11.9005 9.43697C11.9939 9.46199 12.0859 9.48826 12.1765 9.51567C12.1362 9.24462 12.1148 8.96009 12.1148 8.66671C12.1148 6.82576 12.9587 5.33337 13.9998 5.33337C15.0409 5.33337 15.8849 6.82576 15.8849 8.66671Z" fill="#FFFFFF"/><path d="M11.833 12C11.6482 11.9638 11.4597 11.9204 11.2689 11.8698C11.4835 11.8761 11.748 11.8945 12.0508 11.9154C12.5989 11.9534 13.2721 12 13.9998 12C14.7275 12 15.4007 11.9534 15.9488 11.9154C16.2402 11.8953 16.4962 11.8775 16.7063 11.8705C16.5088 11.9215 16.314 11.9646 16.1235 12H19.3332C19.175 12.4747 18.9622 12.922 18.7027 13.3334H9.297C9.03748 12.922 8.82463 12.4747 8.66649 12H11.833Z" fill="#FFFFFF"/><path d="M13.9996 16C15.3463 16 16.5831 15.5006 17.5544 14.6667H10.4448C11.4161 15.5006 12.6529 16 13.9996 16Z" fill="#FFFFFF"/><path d="M14.0002 4.00002C14.3684 4.00002 14.6668 3.70154 14.6668 3.33335C14.6668 2.96516 14.3684 2.66669 14.0002 2.66669C13.632 2.66669 13.3335 2.96516 13.3335 3.33335C13.3335 3.70154 13.632 4.00002 14.0002 4.00002Z" fill="#FCD117"/><path d="M8.66667 7.33335C9.03486 7.33335 9.33333 7.03488 9.33333 6.66669C9.33333 6.2985 9.03486 6.00002 8.66667 6.00002C8.29848 6.00002 8 6.2985 8 6.66669C8 7.03488 8.29848 7.33335 8.66667 7.33335Z" fill="#FCD117"/><path d="M19.9998 6.66667C19.9998 7.03485 19.7014 7.33333 19.3332 7.33333C18.965 7.33333 18.6665 7.03485 18.6665 6.66667C18.6665 6.29848 18.965 6 19.3332 6C19.7014 6 19.9998 6.29848 19.9998 6.66667Z" fill="#FCD117"/><path d="M17.3332 5.33333C17.7014 5.33333 17.9998 5.03485 17.9998 4.66667C17.9998 4.29848 17.7014 4 17.3332 4C16.965 4 16.6665 4.29848 16.6665 4.66667C16.6665 5.03485 16.965 5.33333 17.3332 5.33333Z" fill="#FCD117"/><path d="M11.3333 4.66669C11.3333 5.03488 11.0349 5.33335 10.6667 5.33335C10.2985 5.33335 10 5.03488 10 4.66669C10 4.2985 10.2985 4.00002 10.6667 4.00002C11.0349 4.00002 11.3333 4.2985 11.3333 4.66669Z" fill="#FCD117"/></g><defs><clipPath id="clip0_503_4913"><rect width="28" height="20" fill="#FFFFFF"/></clipPath></defs></svg>