<svg fill="none" xmlns="http://www.w3.org/2000/svg" viewBox="0 0 28 20"><g clip-path="url(#clip0_503_4502)"><path d="M0 8.88109e-06C9.33333 -8.36891e-05 18.6667 0 28 0C28 6.66667 28 13.3333 28 20C18.6667 20 9.33333 20 0 20V8.88109e-06Z" fill="#FFFFFF"/><path fill-rule="evenodd" clip-rule="evenodd" d="M0 6.66667H28V0L0 8.88109e-06V6.66667Z" fill="#24AAD5"/><path fill-rule="evenodd" clip-rule="evenodd" d="M0 20H28V13.3333H0V20Z" fill="#21BF75"/><path fill-rule="evenodd" clip-rule="evenodd" d="M0 13.3333H28V6.66667H0V13.3333Z" fill="#ED1845"/><path d="M14 12C14.4113 12 14.7936 11.8759 15.1114 11.663C15.0747 11.6654 15.0376 11.6666 15.0002 11.6666C14.0797 11.6666 13.3335 10.9205 13.3335 9.99998C13.3335 9.0795 14.0797 8.33331 15.0002 8.33331C15.0375 8.33331 15.0746 8.33454 15.1114 8.33696C14.7935 8.12413 14.4113 8 14 8C12.8954 8 12 8.89543 12 10C12 11.1046 12.8954 12 14 12Z" fill="#FFFFFF"/><path d="M15.9998 9.99998C15.9998 10.3682 15.7014 10.6666 15.3332 10.6666C14.965 10.6666 14.6665 10.3682 14.6665 9.99998C14.6665 9.63179 14.965 9.33331 15.3332 9.33331C15.7014 9.33331 15.9998 9.63179 15.9998 9.99998Z" fill="#FFFFFF"/></g><defs><clipPath id="clip0_503_4502"><rect width="28" height="20" fill="#FFFFFF"/></clipPath></defs></svg>