<svg fill="none" xmlns="http://www.w3.org/2000/svg" viewBox="0 0 28 20"><g clip-path="url(#clip0_503_4607)"><path d="M0.000418056 -0.00149536H28.0002C28.0014 6.66517 28.0003 13.3318 28.0002 19.9985C18.667 19.9985 9.33339 19.9704 0.000243576 20.0015C0.000243576 13.3338 -0.00137612 6.66617 0.000418056 -0.00149536Z" fill="#FFFFFF"/><path fill-rule="evenodd" clip-rule="evenodd" d="M14.6669 19.9985H28.0002V-0.00149536H14.6669V19.9985Z" fill="#DE233C"/><path fill-rule="evenodd" clip-rule="evenodd" d="M5.33373 2.66519H4.00039V3.99852H2.66689V5.33186H4.00039V6.66519H5.33373V5.33186H6.6669V3.99852H5.33373V2.66519Z" fill="#CCCCCD"/><path fill-rule="evenodd" clip-rule="evenodd" d="M3.33372 1.99853H6.00039V3.33186H7.33356V5.99852H6.00039V7.33186H3.33372V5.99852H2.00023V3.33186H3.33372V1.99853ZM4.00039 3.99852H2.66689V5.33186H4.00039V6.66519H5.33373V5.33186H6.6669V3.99852H5.33373V2.66519H4.00039V3.99852Z" fill="#7B716A" fill-opacity="0.66"/><path fill-rule="evenodd" clip-rule="evenodd" d="M4.66706 5.33184C5.03525 5.33184 5.33373 5.03336 5.33373 4.66517C5.33373 4.29698 5.03525 3.9985 4.66706 3.9985C4.29887 3.9985 4.00039 4.29698 4.00039 4.66517C4.00039 5.03336 4.29887 5.33184 4.66706 5.33184Z" fill="#7B716A"/><path d="M2.29471e-05 19.9985L0.000418056 -0.00149536L14.6627 -0.0014936V0.498506L0.500023 0.498505L0.500023 19.4985L14.6627 19.4985V19.9985H2.29471e-05Z" fill="#8996A2"/></g><defs><clipPath id="clip0_503_4607"><rect width="28" height="20" fill="#FFFFFF"/></clipPath></defs></svg>