<svg fill="none" xmlns="http://www.w3.org/2000/svg" viewBox="0 0 28 20"><g clip-path="url(#clip0_503_3656)"><path d="M3.3509e-06 4.76837e-07C9.33334 7.93216e-06 18.6667 4.27931e-07 28 0C28 6.66667 28 13.3333 28 20C18.6667 20 9.33333 20 0 20L3.3509e-06 4.76837e-07Z" fill="#FFFFFF"/><path d="M8 1.19209e-06L3.3509e-06 4.76837e-07L3.34904e-06 8H8V1.19209e-06Z" fill="#F14247"/><path d="M12 1.19209e-06V8H28V0L12 1.19209e-06Z" fill="#F14247"/><path d="M28 12H12V20H28V12Z" fill="#F14247"/><path d="M8 20V12H3.34904e-06L0 20H8Z" fill="#F14247"/><path fill-rule="evenodd" clip-rule="evenodd" d="M3.34904e-06 10.6667H9.33334V20H10.6667V10.6667H28V9.33333H10.6667V1.19209e-06H9.33334V9.33333H3.34904e-06V10.6667Z" fill="#0A3A85"/></g><defs><clipPath id="clip0_503_3656"><rect width="28" height="20" fill="#FFFFFF"/></clipPath></defs></svg>