<svg fill="none" xmlns="http://www.w3.org/2000/svg" viewBox="0 0 28 20"><g clip-path="url(#clip0_1310_7638)"><path d="M28 0H0V20H28V0Z" fill="#FFFFFF"/><path d="M28 0H0V10.6667H28V0Z" fill="black"/><path d="M28 0H0V10.6667H28V0Z" fill="#FFFFFF"/><path fill-rule="evenodd" clip-rule="evenodd" d="M4 10.6667H0V20H28V10.6667H14.6667C14.6667 7.72115 12.2789 5.33333 9.33333 5.33333C6.38781 5.33333 4 7.72115 4 10.6667Z" fill="#E82245"/><path fill-rule="evenodd" clip-rule="evenodd" d="M4 10.6667C4 13.6122 6.38781 16 9.33333 16C12.2789 16 14.6667 13.6122 14.6667 10.6667H4Z" fill="#FFFFFF"/><path d="M28 0V10.6567H27.5V0.5H0.5L0.5 10.6567H0V0H28Z" fill="#8996A2"/></g><defs><clipPath id="clip0_1310_7638"><rect width="28" height="20" fill="#FFFFFF"/></clipPath></defs></svg>