<svg fill="none" xmlns="http://www.w3.org/2000/svg" viewBox="0 0 28 20"><g clip-path="url(#clip0_503_4130)"><path d="M0 8.82149e-06C9.33339 -8.3128e-05 18.6668 0 28.0002 0C27.9989 6.66667 28 13.3333 28 20C18.6667 20 9.33333 20 0 20V8.82149e-06Z" fill="#FFFFFF"/><path fill-rule="evenodd" clip-rule="evenodd" d="M0 20H9.33333V0L0 8.82149e-06V20Z" fill="#059170"/><path fill-rule="evenodd" clip-rule="evenodd" d="M9.33333 20H18.6668V0H9.33333V20Z" fill="#E21A30"/><path fill-rule="evenodd" clip-rule="evenodd" d="M18.6668 20H28L28.0002 0H18.6668V20Z" fill="#FFDC44"/><path fill-rule="evenodd" clip-rule="evenodd" d="M13.9998 11.3L12.0406 12.6967L12.7635 10.4017L10.8296 8.96996L13.2357 8.9483L13.9998 6.66669L14.764 8.9483L17.17 8.96996L15.2362 10.4017L15.9591 12.6967L13.9998 11.3Z" fill="#FFDC42"/></g><defs><clipPath id="clip0_503_4130"><rect width="28" height="20" fill="#FFFFFF"/></clipPath></defs></svg>