<svg fill="none" xmlns="http://www.w3.org/2000/svg" viewBox="0 0 28 20"><g clip-path="url(#clip0_503_3567)"><path d="M2.98023e-06 -4.85778e-06C9.33333 -4.85778e-06 18.6667 9.31538e-05 28 -1.52588e-05V20C18.6667 20 9.33333 20 0 20C0 13.3333 -1.92082e-05 6.66666 2.98023e-06 -4.85778e-06Z" fill="#FFFFFF"/><path fill-rule="evenodd" clip-rule="evenodd" d="M0 6.66666H28V-1.52588e-05L2.98023e-06 -4.85778e-06L0 6.66666Z" fill="#F0642F"/><path fill-rule="evenodd" clip-rule="evenodd" d="M0 20H28V13.3333H0V20Z" fill="#2DCC45"/><path fill-rule="evenodd" clip-rule="evenodd" d="M14 12.6667C15.4728 12.6667 16.6667 11.4728 16.6667 10C16.6667 8.52724 15.4728 7.33333 14 7.33333C12.5272 7.33333 11.3333 8.52724 11.3333 10C11.3333 11.4728 12.5272 12.6667 14 12.6667Z" fill="#E85C27"/></g><defs><clipPath id="clip0_503_3567"><rect width="28" height="20" fill="#FFFFFF"/></clipPath></defs></svg>