<svg fill="none" xmlns="http://www.w3.org/2000/svg" viewBox="0 0 28 20"><g clip-path="url(#clip0_1310_7970)"><path d="M28.0002 2.03848e-05H0.000162721V20H28.0002V2.03848e-05Z" fill="#FFFFFF"/><path d="M28.0002 2.03848e-05H0.000162721V20H28.0002V2.03848e-05Z" fill="#72AFC8"/><path fill-rule="evenodd" clip-rule="evenodd" d="M12.0003 17.3334L11.0575 17.6095L11.3336 16.6667L11.0575 15.7239L12.0003 16L12.9431 15.7239L12.6669 16.6667L12.9431 17.6095L12.0003 17.3334ZM16.0003 16L15.0575 16.2762L15.3336 15.3334L15.0575 14.3906L16.0003 14.6667L16.9431 14.3906L16.6669 15.3334L16.9431 16.2762L16.0003 16ZM20.0003 16L19.0575 16.2762L19.3336 15.3334L19.0575 14.3906L20.0003 14.6667L20.9431 14.3906L20.6669 15.3334L20.9431 16.2762L20.0003 16ZM22.6669 13.3334L21.7241 13.6095L22.0003 12.6667L21.7241 11.7239L22.6669 12L23.6097 11.7239L23.3336 12.6667L23.6097 13.6095L22.6669 13.3334ZM25.3336 10.6667L24.3908 10.9428L24.6669 10L24.3908 9.05723L25.3336 9.33337L26.2764 9.05723L26.0003 10L26.2764 10.9428L25.3336 10.6667ZM17.3336 12L16.3908 12.2762L16.6669 11.3334L16.3908 10.3906L17.3336 10.6667L18.2764 10.3906L18.0003 11.3334L18.2764 12.2762L17.3336 12ZM20.0003 6.66671L19.0575 6.94285L19.3336 6.00004L19.0575 5.05723L20.0003 5.33337L20.9431 5.05723L20.6669 6.00004L20.9431 6.94285L20.0003 6.66671ZM22.6669 5.33337L21.7241 5.60952L22.0003 4.66671L21.7241 3.7239L22.6669 4.00004L23.6097 3.7239L23.3336 4.66671L23.6097 5.60952L22.6669 5.33337ZM25.3336 4.00004L24.3908 4.27618L24.6669 3.33337L24.3908 2.39056L25.3336 2.66671L26.2764 2.39056L26.0003 3.33337L26.2764 4.27618L25.3336 4.00004Z" fill="#FFCD2F"/><path d="M0.000162721 2.03848e-05L14.0007 0V10.0026H0.00012207L0.000162721 2.03848e-05Z" fill="#07319C"/><path d="M14.0007 0.947449L11.4315 3.10229H14.0007V6.66998H11.432L14.0007 8.82379V10.0026H10.8046L8.7865 8.31287V10.0026H5.21509V8.31134L3.19336 10.0026H0.00012207V8.8136L2.5636 6.66998H0.00012207V3.10229H2.56726L0.00012207 0.952026V0.00256348H3.47363L5.21509 1.46014V0.00256348H8.7865V1.46301L10.5353 0.00256348H14.0007V0.947449Z" fill="#FFFFFF"/><path d="M8.68297 4.10227L13.5711 0.00258202L12.0944 0L7.78651 3.60098V0.00445557L6.2151 0.00445554V3.60113L1.9282 0.0131366L0.426279 0.00453328L5.31839 4.10227H0.000732422V5.66998H5.31837L0.139163 10.0008L1.6392 9.9989L6.2151 6.17104V10.0004H7.78651V6.17126L12.3601 10.0008L13.8504 10.0028L8.68307 5.66998H14.0007V4.10227H8.68297Z" fill="#DC1F37"/></g><defs><clipPath id="clip0_1310_7970"><rect width="28" height="20" fill="#FFFFFF"/></clipPath></defs></svg>