<svg fill="none" xmlns="http://www.w3.org/2000/svg" viewBox="0 0 28 20"><g clip-path="url(#clip0_503_4667)"><path d="M-0.00020349 2C-0.00020349 0.895435 -0.00025022 0 -0.00025022 0L27.9998 3.99724e-06C27.9998 6.66667 27.9998 13.3333 27.9998 20C19.3331 20 10.6665 20 1.9998 20C0.895228 20 -8.14199e-05 20 -8.14199e-05 20L-0.00020349 2Z" fill="#FFFFFF"/><path d="M-0.00025022 0L27.9998 3.99724e-06V20H-8.14199e-05L-0.00025022 0Z" fill="#08C55F"/><path fill-rule="evenodd" clip-rule="evenodd" d="M-8.14199e-05 20L-0.00025022 0L27.9996 9.33334V10.6667L-8.14199e-05 20Z" fill="#FFD831"/><path fill-rule="evenodd" clip-rule="evenodd" d="M-0.000366211 18.5945L25.7833 10L-0.000366211 1.40546V18.5945ZM27.9996 10.6667L-8.14199e-05 20L-0.00025022 0L27.9996 9.33334V10.6667Z" fill="#FFFFFF"/><path fill-rule="evenodd" clip-rule="evenodd" d="M-8.14199e-05 20L-0.00025022 0L15.333 10L-8.14199e-05 20Z" fill="#E92034"/><path fill-rule="evenodd" clip-rule="evenodd" d="M-0.000366211 18.4082L12.8922 10L-0.000366211 1.59183V18.4082ZM15.333 10L-8.14199e-05 20L-0.00025022 0L15.333 10Z" fill="#262626"/></g><defs><clipPath id="clip0_503_4667"><rect width="28" height="20" fill="#FFFFFF"/></clipPath></defs></svg>