<svg fill="none" xmlns="http://www.w3.org/2000/svg" viewBox="0 0 28 20"><g clip-path="url(#clip0_503_4680)"><path d="M0 8.88109e-06C9.33333 -8.36891e-05 18.6667 0 28 0C28 6.66667 28 13.3333 28 20C18.6667 20 9.33333 20 0 20V8.88109e-06Z" fill="#FFFFFF"/><path d="M0 8.88109e-06L28 0V20H0V8.88109e-06Z" fill="#157CBB"/><path fill-rule="evenodd" clip-rule="evenodd" d="M0 12H8V20H12V12H28V8H12V0H8V8H0V12Z" fill="#FFD34D"/><path fill-rule="evenodd" clip-rule="evenodd" d="M0 10.6667H9.33333V20H10.6667V10.6667H28V9.33333H10.6667V0H9.33333V9.33333H0V10.6667Z" fill="#EB363A"/></g><defs><clipPath id="clip0_503_4680"><rect width="28" height="20" fill="#FFFFFF"/></clipPath></defs></svg>