<svg fill="none" xmlns="http://www.w3.org/2000/svg" viewBox="0 0 28 20"><g clip-path="url(#clip0_503_3372)"><path d="M2.72989e-05 0H28C28 6.66667 28 13.3333 28 20C18.6667 20 9.33333 20 0 20C0 13.3333 -0.000175947 6.66667 2.72989e-05 0Z" fill="#FFFFFF"/><path d="M2.72989e-05 0H28V20H0L2.72989e-05 0Z" fill="#FF0000"/><path fill-rule="evenodd" clip-rule="evenodd" d="M12 12H8.33333C8.14924 12 8 11.8508 8 11.6667V8.33333C8 8.14924 8.14924 8 8.33333 8H12V4.33333C12 4.14924 12.1492 4 12.3333 4H15.6667C15.8508 4 16 4.14924 16 4.33333V8H19.6667C19.8508 8 20 8.14924 20 8.33333V11.6667C20 11.8508 19.8508 12 19.6667 12H16V15.6667C16 15.8508 15.8508 16 15.6667 16H12.3333C12.1492 16 12 15.8508 12 15.6667V12Z" fill="#FFFFFF"/></g><defs><clipPath id="clip0_503_3372"><rect width="28" height="20" fill="#FFFFFF"/></clipPath></defs></svg>