<svg fill="none" xmlns="http://www.w3.org/2000/svg" viewBox="0 0 28 20"><g clip-path="url(#clip0_503_3895)"><path d="M8.88109e-06 0L28 0C28 6.66667 28 13.3333 28 20C18.6667 20 9.33333 20 0 20C0 13.3333 -5.72404e-05 6.66667 8.88109e-06 0Z" fill="#FFFFFF"/><path d="M8.88109e-06 0L28 0C28 6.66667 28 13.3333 28 20C18.6667 20 9.33333 20 0 20C0 13.3333 -5.72404e-05 6.66667 8.88109e-06 0Z" fill="#5D9FE9"/><path fill-rule="evenodd" clip-rule="evenodd" d="M14 12.34L10.4733 14.8541L11.7745 10.7231L8.29366 8.1459L12.6246 8.1069L14 4L15.3754 8.1069L19.7063 8.1459L16.2255 10.7231L17.5267 14.8541L14 12.34Z" fill="#FFFFFF"/></g><defs><clipPath id="clip0_503_3895"><rect width="28" height="20" fill="#FFFFFF"/></clipPath></defs></svg>