<svg fill="none" xmlns="http://www.w3.org/2000/svg" viewBox="0 0 28 20"><g clip-path="url(#clip0_503_3669)"><path d="M0 8.88109e-06C9.33333 -8.36891e-05 18.6667 0 28 0C28 6.66667 28 13.3333 28 20C18.6667 20 9.33333 20 0 20L0 8.88109e-06Z" fill="#FFFFFF"/><path d="M9.33333 0H28V20H9.33333V0Z" fill="#EB1C43"/><path fill-rule="evenodd" clip-rule="evenodd" d="M0 20H9.33333V0L0 8.88109e-06L0 20Z" fill="#115BCB"/><path fill-rule="evenodd" clip-rule="evenodd" d="M9.33333 20H18.6667V0H9.33333V20Z" fill="#FFD953"/><path fill-rule="evenodd" clip-rule="evenodd" d="M13.3333 8H12V12L14 13.3333L16 12V8H14.6667L14 6L13.3333 8ZM14.6667 11.3333V9.33333H13.3333V11.3333H14.6667Z" fill="#AF7F59"/></g><defs><clipPath id="clip0_503_3669"><rect width="28" height="20" fill="#FFFFFF"/></clipPath></defs></svg>