<svg fill="none" xmlns="http://www.w3.org/2000/svg" viewBox="0 0 28 20"><g clip-path="url(#clip0_503_2721)"><path d="M8.91462e-05 0L28.0001 3.59863e-06V20H0L8.91462e-05 0Z" fill="#EE343C"/><path fill-rule="evenodd" clip-rule="evenodd" d="M12.0001 4L10.0001 5.33334L12.6667 6.66667V8H11.3334L8.66672 6.66667L7.33339 8L10.0001 9.33333L8.00005 10.6667L11.3334 11.3333L8.66672 13.3333H10.0001L12.6667 12.6667L11.3334 14.6667H13.3334L14.0001 16.6667L14.6667 14.6667H16.6667L15.3334 12.6667L18.0001 13.3333H19.3334L16.6667 11.3333L20.0001 10.6667L18.0001 9.33333L20.6667 8L19.3334 6.66667L16.6667 8H15.3334V6.66667C16.2223 6.22223 18.0001 5.33334 18.0001 5.33334L16.0001 4L14.0001 6L12.0001 4Z" fill="#262626"/></g><defs><clipPath id="clip0_503_2721"><rect width="28" height="20" fill="#FFFFFF"/></clipPath></defs></svg>