<svg fill="none" xmlns="http://www.w3.org/2000/svg" viewBox="0 0 28 20"><g clip-path="url(#clip0_503_3678)"><path d="M6.22869e-06 0C9.33334 0 18.6667 -5.22354e-05 28 5.54323e-06V20C18.6667 20 9.33333 20 0 20C0 13.3333 -4.01452e-05 6.66667 6.22869e-06 0Z" fill="#FFFFFF"/><path d="M6.22869e-06 0L28 5.54323e-06V20H0L6.22869e-06 0Z" fill="#FF323E"/><path fill-rule="evenodd" clip-rule="evenodd" d="M6.22869e-06 0L17.3333 10L0 20L6.22869e-06 0Z" fill="#FFCC51"/><path fill-rule="evenodd" clip-rule="evenodd" d="M6.22869e-06 0L12 10L0 20L6.22869e-06 0Z" fill="#262626"/><path fill-rule="evenodd" clip-rule="evenodd" d="M5.94392 10.8244L5.05964 12.7633L4.59781 10.6829L2.48049 10.4411L4.31639 9.35895L3.8921 7.27054L5.48858 8.68219L7.34367 7.63331L6.49445 9.58787L8.06524 11.028L5.94392 10.8244Z" fill="#FFFFFF"/></g><defs><clipPath id="clip0_503_3678"><rect width="28" height="20" fill="#FFFFFF"/></clipPath></defs></svg>