<svg fill="none" xmlns="http://www.w3.org/2000/svg" viewBox="0 0 28 20"><g clip-path="url(#clip0_503_2773)"><path d="M6.22869e-06 0H28C28 6.66667 28 13.3333 28 20C18.6667 20 9.33333 20 0 20C0 13.3333 -4.01451e-05 6.66667 6.22869e-06 0Z" fill="#FFFFFF"/><path d="M6.22869e-06 0H28V20H0L6.22869e-06 0Z" fill="#128363"/><path fill-rule="evenodd" clip-rule="evenodd" d="M12.6667 16C15.9804 16 18.6667 13.3137 18.6667 10C18.6667 6.68629 15.9804 4 12.6667 4C9.35296 4 6.66667 6.68629 6.66667 10C6.66667 13.3137 9.35296 16 12.6667 16Z" fill="#F23C53"/></g><defs><clipPath id="clip0_503_2773"><rect width="28" height="20" fill="#FFFFFF"/></clipPath></defs></svg>