<svg fill="none" xmlns="http://www.w3.org/2000/svg" viewBox="0 0 28 20"><g clip-path="url(#clip0_503_3360)"><path d="M6.31809e-06 8.58307e-06H28C28 6.66667 28 13.3333 28 20C18.6667 20.0001 9.33336 20 2.3365e-05 20C2.3365e-05 13.3333 0.000133236 6.66668 6.31809e-06 8.58307e-06Z" fill="#FFFFFF"/><path fill-rule="evenodd" clip-rule="evenodd" d="M28 0.5L28 8.58307e-06L28 20L9 20L28 0.5Z" fill="#F33630"/><path fill-rule="evenodd" clip-rule="evenodd" d="M0 19.5L2.3365e-05 20L6.31809e-06 8.58307e-06L19 0L0 19.5Z" fill="#009643"/><path fill-rule="evenodd" clip-rule="evenodd" d="M28 0.5L9 20H2.3365e-05L0 19.5L19 0L28 8.58307e-06L28 0.5Z" fill="#FCDF4A"/></g><defs><clipPath id="clip0_503_3360"><rect width="28" height="20" fill="#FFFFFF"/></clipPath></defs></svg>