<svg viewBox="0 0 24 24" xmlns="http://www.w3.org/2000/svg"><path d="M12.392 3.49996L21.918 20C22.0057 20.152 22.0519 20.3244 22.0519 20.5C22.052 20.6755 22.0057 20.8479 21.918 20.9999C21.8302 21.152 21.704 21.2782 21.552 21.366C21.4 21.4537 21.2275 21.5 21.052 21.5H1.99997C1.82444 21.5 1.652 21.4537 1.49998 21.366C1.34797 21.2782 1.22173 21.152 1.13397 20.9999C1.0462 20.8479 0.999999 20.6755 1 20.5C1 20.3244 1.04621 20.152 1.13397 20L10.66 3.49996C10.7477 3.34795 10.874 3.22172 11.026 3.13396C11.178 3.0462 11.3504 3 11.526 3C11.7015 3 11.8739 3.0462 12.026 3.13396C12.178 3.22172 12.3042 3.34795 12.392 3.49996ZM10.526 16.5V18.5H12.526V16.5H10.526ZM10.526 9.49996V14.5H12.526V9.49996H10.526Z"/></svg>