<svg viewBox="0 0 24 24" xmlns="http://www.w3.org/2000/svg"><path fill-rule="evenodd" clip-rule="evenodd" d="M11 17.004C12.897 17.004 14.518 16.239 15.625 14.62L15.626 14.621C16.054 15.694 16.284 16.091 16.807 16.743L18.367 15.492C17.969 14.996 17.839 14.771 17.483 13.879C17.163 13.078 17 10.971 17 8.32199C17 5.47799 15.103 3.29999 12.5 3.29999C10.193 3.29999 8.44199 4.60399 7.55499 7.17399L9.44499 7.82599C10.06 6.04699 11.063 5.29999 12.5 5.29999C13.932 5.29999 15 6.52599 15 8.32199V8.53699L14.862 8.54699C13.565 8.64299 13.316 8.66399 12.715 8.73699C9.34699 9.14999 7.32199 10.272 7.00699 12.88C6.72399 15.231 8.69599 17.004 11 17.004ZM20.728 20.105C20.515 20.626 20.986 20.745 21.257 20.545C22.218 19.834 22.782 17.796 22.417 17.266C22.252 17.028 20.897 16.839 19.747 17.183C19.4354 17.2769 19.1415 17.4215 18.877 17.611C18.675 17.754 18.764 18.064 18.968 18.051C19.0771 18.0438 19.1767 18.0316 19.2806 18.0187C19.4671 17.9957 19.6676 17.971 19.963 17.971C20.523 17.971 20.78 18.098 20.99 18.353C21.275 18.697 20.993 19.457 20.728 20.105ZM20.075 19.461C19.8153 19.7122 19.5379 19.9445 19.245 20.156C17.123 21.772 14.375 22.616 11.987 22.616C8.14399 22.616 4.70699 20.823 2.09899 17.821C1.87599 17.591 2.06099 17.255 2.32199 17.437C5.13199 19.514 8.60999 20.77 12.211 20.77C14.476 20.77 16.919 20.233 19.246 19.077C19.326 19.0394 19.4109 18.9951 19.4955 18.9509C19.5822 18.9056 19.6685 18.8604 19.749 18.823C20.116 18.613 20.439 19.129 20.075 19.461ZM12.958 10.722C13.514 10.654 13.752 10.635 15.01 10.541H15.022C14.517 13.776 13.039 15.004 11 15.004C9.80299 15.004 8.86699 14.163 8.99299 13.12C9.16099 11.725 10.406 11.035 12.958 10.722Z"/></svg>