<svg viewBox="0 0 24 24" xmlns="http://www.w3.org/2000/svg"><path fill-rule="evenodd" clip-rule="evenodd" d="M11.456 5.96201C12.692 6.05801 13.964 5.32601 14.744 4.39001C15.524 3.45401 16.04 2.14601 15.896 0.850006C14.78 0.898006 13.436 1.59401 12.632 2.53001C11.912 3.35801 11.288 4.69001 11.456 5.96201ZM15.884 6.21401C16.592 6.26201 18.62 6.47801 19.94 8.41001C19.832 8.47001 17.516 9.81401 17.54 12.622C17.576 15.982 20.48 17.098 20.516 17.11C20.492 17.194 20.048 18.706 18.98 20.266C18.056 21.622 17.096 22.966 15.584 22.99C14.8538 23.0077 14.3663 22.797 13.8592 22.5779C13.333 22.3505 12.7857 22.114 11.924 22.114C11.0084 22.114 10.4323 22.36 9.87748 22.5969C9.39968 22.8009 8.93761 22.9982 8.288 23.026C6.824 23.074 5.72 21.562 4.784 20.218C2.876 17.458 1.424 12.442 3.38 9.04601C4.352 7.35401 6.08 6.28601 7.964 6.26201C8.7756 6.24155 9.56395 6.55444 10.2541 6.82838C10.7783 7.03643 11.2459 7.22201 11.624 7.22201C11.9562 7.22201 12.3895 7.05171 12.9021 6.85026C13.7227 6.52775 14.7465 6.12537 15.884 6.21401ZM15.729 8.20801C15.256 8.17101 14.748 8.28401 13.97 8.58101C14.036 8.55601 13.228 8.87101 13.002 8.95101C12.5 9.12601 12.087 9.22201 11.624 9.22201C11.166 9.22201 10.744 9.13001 10.258 8.96701C10.103 8.91401 9.947 8.85701 9.753 8.78101C9.71965 8.76799 9.65023 8.74041 9.57516 8.7106C9.46566 8.6671 9.34415 8.61884 9.305 8.60401C8.657 8.35001 8.292 8.25401 7.989 8.26201C6.837 8.27701 5.746 8.94201 5.113 10.044C3.821 12.288 4.536 16.343 6.425 19.075C7.431 20.519 7.981 21.035 8.203 21.028C8.425 21.018 8.588 20.971 8.986 20.803L9.153 20.732C10.158 20.303 10.863 20.114 11.924 20.114C12.945 20.114 13.627 20.3 14.592 20.716L14.76 20.788C15.158 20.958 15.302 20.996 15.552 20.99C15.91 20.985 16.351 20.573 17.33 19.136C17.598 18.745 17.835 18.333 18.04 17.916C17.9053 17.805 17.7745 17.6893 17.648 17.569C16.359 16.341 15.562 14.685 15.54 12.639C15.5185 11.1252 16.0161 9.64962 16.95 8.45801C16.558 8.3133 16.1463 8.229 15.729 8.20801Z"/></svg>