<svg viewBox="0 0 24 24" xmlns="http://www.w3.org/2000/svg"><path d="M17 15.245V22.117C17 22.2055 16.9766 22.2924 16.932 22.3688C16.8875 22.4452 16.8235 22.5085 16.7465 22.5521C16.6696 22.5957 16.5824 22.6181 16.4939 22.6171C16.4055 22.616 16.3189 22.5915 16.243 22.546L12 20L7.757 22.546C7.68104 22.5915 7.59436 22.616 7.50581 22.6171C7.41727 22.6181 7.33004 22.5956 7.25304 22.5519C7.17605 22.5081 7.11205 22.4447 7.06759 22.3681C7.02313 22.2916 6.9998 22.2045 7 22.116V15.246C5.70615 14.2101 4.76599 12.7979 4.30946 11.2045C3.85293 9.61119 3.90256 7.91539 4.45149 6.35147C5.00043 4.78755 6.02156 3.43275 7.37378 2.47428C8.726 1.51581 10.3425 1.001 12 1.001C13.6575 1.001 15.274 1.51581 16.6262 2.47428C17.9784 3.43275 18.9996 4.78755 19.5485 6.35147C20.0974 7.91539 20.1471 9.61119 19.6905 11.2045C19.234 12.7979 18.2939 14.2101 17 15.246V15.245ZM9 16.418V19.468L12 17.668L15 19.468V16.418C14.0468 16.8035 13.0282 17.0011 12 17C10.9718 17.0011 9.95316 16.8035 9 16.418ZM12 15C13.5913 15 15.1174 14.3679 16.2426 13.2426C17.3679 12.1174 18 10.5913 18 9C18 7.4087 17.3679 5.88258 16.2426 4.75736C15.1174 3.63214 13.5913 3 12 3C10.4087 3 8.88258 3.63214 7.75736 4.75736C6.63214 5.88258 6 7.4087 6 9C6 10.5913 6.63214 12.1174 7.75736 13.2426C8.88258 14.3679 10.4087 15 12 15Z"/></svg>