<svg viewBox="0 0 24 24" xmlns="http://www.w3.org/2000/svg"><path d="M17.882 19.297C16.1232 20.4126 14.0828 21.0033 12 21C6.60803 21 2.12203 17.12 1.18103 12C1.61106 9.67072 2.78266 7.5429 4.52103 5.93401L1.39203 2.80801L2.80703 1.39301L22.606 21.193L21.191 22.607L17.881 19.297H17.882ZM5.93503 7.35001C4.57604 8.5856 3.62935 10.2088 3.22303 12C3.53532 13.3665 4.16229 14.6411 5.05403 15.7226C5.94577 16.804 7.07766 17.6624 8.35958 18.2293C9.64151 18.7962 11.0381 19.0561 12.4381 18.9881C13.8382 18.9202 15.203 18.5264 16.424 17.838L14.396 15.81C13.5327 16.3538 12.5102 16.5881 11.4963 16.4744C10.4823 16.3608 9.53707 15.9059 8.8156 15.1844C8.09413 14.463 7.63926 13.5177 7.52559 12.5038C7.41193 11.4898 7.64621 10.4673 8.19003 9.60401L5.93503 7.35001ZM12.914 14.328L9.67203 11.086C9.49409 11.5389 9.45222 12.034 9.55154 12.5104C9.65085 12.9867 9.88705 13.4238 10.2311 13.7679C10.5752 14.112 11.0123 14.3482 11.4887 14.4475C11.9651 14.5468 12.4601 14.5049 12.913 14.327L12.914 14.328ZM20.807 16.592L19.376 15.162C20.0445 14.2093 20.5204 13.1352 20.777 12C20.5053 10.8097 19.9943 9.68715 19.2752 8.7005C18.5561 7.71385 17.6438 6.88373 16.5939 6.26061C15.544 5.63749 14.3783 5.23437 13.1678 5.07577C11.9572 4.91717 10.727 5.00638 9.55203 5.33801L7.97403 3.76001C9.22103 3.27001 10.58 3.00001 12 3.00001C17.392 3.00001 21.878 6.88001 22.819 12C22.5126 13.6657 21.8239 15.2376 20.807 16.592ZM11.723 7.50801C12.3595 7.46867 12.9971 7.56507 13.5936 7.79082C14.19 8.01657 14.7316 8.36652 15.1826 8.81746C15.6335 9.2684 15.9835 9.81003 16.2092 10.4065C16.435 11.0029 16.5314 11.6405 16.492 12.277L11.722 7.50801H11.723Z"/></svg>