<svg viewBox="0 0 24 24" xmlns="http://www.w3.org/2000/svg"><path d="M16.5 3C19.538 3 22 5.5 22 9C22 16 14.5 20 12 21.5C10.023 20.314 4.917 17.563 2.869 13.001L1 13V11H2.21C2.074 10.364 2 9.698 2 9C2 5.5 4.5 3 7.5 3C9.36 3 11 4 12 5C13 4 14.64 3 16.5 3ZM16.5 5C15.424 5 14.26 5.57 13.414 6.414L12 7.828L10.586 6.414C9.74 5.57 8.576 5 7.5 5C5.56 5 4 6.656 4 9C4 9.685 4.09 10.352 4.267 11H6.434L8.5 7.556L11.5 12.556L12.434 11H17V13H13.566L11.5 16.444L8.5 11.444L7.566 13H5.108C5.898 14.374 7.093 15.668 8.645 16.903C9.39 17.495 10.185 18.048 11.066 18.603C11.365 18.792 11.661 18.973 12 19.175C12.339 18.973 12.635 18.792 12.934 18.604C13.815 18.048 14.61 17.495 15.354 16.903C18.335 14.533 20 11.943 20 9C20 6.64 18.463 5 16.5 5Z"/></svg>