<svg viewBox="0 0 24 24" xmlns="http://www.w3.org/2000/svg"><path d="M12 10C13.1046 10 14 9.10459 14 8.00002H10C10 9.10459 10.8954 10 12 10Z"/><path d="M12 16C10.8954 16 10 16.8954 10 18V19H14V18C14 16.8954 13.1046 16 12 16Z"/><path fill-rule="evenodd" clip-rule="evenodd" d="M18 2H6V4H7V8C7 9.6356 7.78534 11.0878 8.99952 12C7.78534 12.9122 7 14.3644 7 16V20H6V22H18V20H17V16C17 14.3644 16.2147 12.9122 15.0005 12C16.2147 11.0878 17 9.6356 17 8V4H18V2ZM12 11C13.6569 11 15 9.65685 15 8V4H9V8C9 9.65685 10.3431 11 12 11ZM15 16C15 14.3431 13.6569 13 12 13C10.3431 13 9 14.3431 9 16V20H15V16Z"/></svg>