<svg viewBox="0 0 24 24" xmlns="http://www.w3.org/2000/svg"><path d="M5.678 18.123C3.092 16.566 1.5 14.112 1.5 11.405C1.5 6.701 6.248 3 12 3C17.752 3 22.5 6.701 22.5 11.405C22.5 16.109 17.752 19.81 12 19.81C11.558 19.81 11.118 19.788 10.682 19.745L6.917 22.203C6.302 22.529 5.96 22.628 5.432 22.269C4.812 21.845 4.836 21.377 5.051 20.709L5.678 18.123ZM3.5 11.405C3.5 13.537 4.918 15.528 7.281 16.725L7.987 17.084L7.801 17.854L7.4 19.502L10.2 17.672L10.566 17.718C11.039 17.779 11.518 17.81 12 17.81C16.741 17.81 20.5 14.88 20.5 11.405C20.5 7.93 16.741 5 12 5C7.259 5 3.5 7.93 3.5 11.405ZM17.907 11.059L19.421 13.214C19.4567 13.2648 19.482 13.322 19.4955 13.3826C19.509 13.4431 19.5105 13.5057 19.4998 13.5668C19.4891 13.6279 19.4665 13.6863 19.4332 13.7387C19.4 13.791 19.3568 13.8363 19.306 13.872C19.2552 13.9077 19.198 13.933 19.1374 13.9465C19.0769 13.96 19.0143 13.9615 18.9532 13.9508C18.8921 13.9401 18.8337 13.9175 18.7813 13.8842C18.729 13.851 18.6837 13.8078 18.648 13.757L17.22 11.724L16.793 12.137V13.5C16.793 13.6252 16.7433 13.7452 16.6548 13.8338C16.5662 13.9223 16.4462 13.972 16.321 13.972C16.1958 13.972 16.0758 13.9223 15.9872 13.8338C15.8987 13.7452 15.849 13.6252 15.849 13.5V12.061C15.8313 11.9881 15.8313 11.9119 15.849 11.839V9.282C15.849 9.15682 15.8987 9.03676 15.9872 8.94825C16.0758 8.85973 16.1958 8.81 16.321 8.81C16.4462 8.81 16.5662 8.85973 16.6548 8.94825C16.7433 9.03676 16.793 9.15682 16.793 9.282V10.824L18.721 8.958C18.8118 8.87613 18.9309 8.83271 19.0531 8.83689C19.1753 8.84107 19.2912 8.89252 19.3762 8.98041C19.4612 9.0683 19.5088 9.18575 19.509 9.30804C19.5091 9.43033 19.4618 9.54791 19.377 9.636L17.907 11.059ZM14.949 12.984C15.0742 12.984 15.1942 13.0337 15.2828 13.1222C15.3713 13.2108 15.421 13.3308 15.421 13.456C15.421 13.5812 15.3713 13.7012 15.2828 13.7898C15.1942 13.8783 15.0742 13.928 14.949 13.928H13.017C12.892 13.9277 12.7722 13.8779 12.6839 13.7894C12.5956 13.7009 12.546 13.581 12.546 13.456V9.297C12.5431 9.23325 12.5531 9.16958 12.5755 9.10981C12.5978 9.05005 12.6321 8.99544 12.6762 8.9493C12.7202 8.90315 12.7732 8.86641 12.8319 8.84132C12.8905 8.81622 12.9537 8.80328 13.0175 8.80328C13.0813 8.80328 13.1445 8.81622 13.2031 8.84132C13.2618 8.86641 13.3148 8.90315 13.3588 8.9493C13.4029 8.99544 13.4372 9.05005 13.4595 9.10981C13.4819 9.16958 13.4919 9.23325 13.489 9.297V12.984H14.949ZM9.092 11.892H10.426L9.788 10.185L9.092 11.892ZM11.615 12.38L11.96 13.305C11.9838 13.3635 11.9957 13.4262 11.9948 13.4893C11.994 13.5525 11.9805 13.6148 11.9551 13.6727C11.9298 13.7305 11.8931 13.7827 11.8472 13.8261C11.8013 13.8694 11.7471 13.9032 11.688 13.9253C11.6288 13.9474 11.5658 13.9574 11.5027 13.9546C11.4396 13.9519 11.3777 13.9366 11.3206 13.9095C11.2635 13.8825 11.2125 13.8442 11.1705 13.7971C11.1285 13.7499 11.0963 13.6948 11.076 13.635L10.778 12.836H8.708L8.377 13.649C8.35356 13.7064 8.31904 13.7586 8.27543 13.8026C8.23181 13.8467 8.17994 13.8817 8.12279 13.9057C8.06563 13.9297 8.00431 13.9422 7.94232 13.9425C7.88033 13.9428 7.81889 13.9309 7.7615 13.9075C7.70411 13.8841 7.6519 13.8495 7.60785 13.8059C7.56381 13.7623 7.52878 13.7104 7.50478 13.6533C7.48077 13.5961 7.46826 13.5348 7.46796 13.4728C7.46765 13.4108 7.47956 13.3494 7.503 13.292L9.163 9.217C9.21363 9.08483 9.30335 8.97124 9.4202 8.89138C9.53705 8.81152 9.67547 8.76917 9.817 8.77C9.95733 8.7758 10.0926 8.8243 10.2046 8.90899C10.3166 8.99369 10.4002 9.11057 10.444 9.244L11.49 12.044C11.5714 12.1307 11.6168 12.2451 11.617 12.364L11.615 12.38ZM8.293 9.302C8.293 9.562 8.083 9.774 7.822 9.774H6.682V13.51C6.682 13.6353 6.63222 13.7555 6.54361 13.8441C6.455 13.9327 6.33481 13.9825 6.2095 13.9825C6.08419 13.9825 5.964 13.9327 5.87539 13.8441C5.78678 13.7555 5.737 13.6353 5.737 13.51V9.774H4.577C4.45182 9.774 4.33176 9.72427 4.24325 9.63575C4.15473 9.54724 4.105 9.42718 4.105 9.302C4.105 9.17682 4.15473 9.05676 4.24325 8.96825C4.33176 8.87973 4.45182 8.83 4.577 8.83H7.822C8.082 8.83 8.293 9.041 8.293 9.302Z"/></svg>