<svg viewBox="0 0 24 24" xmlns="http://www.w3.org/2000/svg"><path d="M18.663 10.268C18.6627 10.4073 18.6072 10.5409 18.5086 10.6393C18.41 10.7377 18.2763 10.793 18.137 10.793H16.675V11.731H18.137C18.2078 11.7279 18.2785 11.7392 18.3448 11.7641C18.4112 11.7891 18.4718 11.8272 18.5229 11.8763C18.5741 11.9253 18.6149 11.9841 18.6427 12.0493C18.6706 12.1145 18.6849 12.1846 18.6849 12.2555C18.6849 12.3264 18.6706 12.3965 18.6427 12.4617C18.6149 12.5269 18.5741 12.5857 18.5229 12.6347C18.4718 12.6838 18.4112 12.7219 18.3448 12.7469C18.2785 12.7718 18.2078 12.7831 18.137 12.78H16.15C16.0115 12.7789 15.8791 12.7233 15.7813 12.6252C15.6836 12.5271 15.6285 12.3945 15.628 12.256V8.28C15.628 7.993 15.863 7.755 16.153 7.755H18.141C18.2802 7.7554 18.4136 7.81109 18.5118 7.90983C18.61 8.00857 18.6649 8.14226 18.6645 8.2815C18.6641 8.42074 18.6084 8.55412 18.5097 8.65229C18.4109 8.75047 18.2772 8.8054 18.138 8.805H16.676V9.743H18.138C18.429 9.743 18.664 9.98 18.664 10.268H18.663ZM14.565 12.753C14.5113 12.77 14.4553 12.7784 14.399 12.778C14.3167 12.7798 14.2351 12.7619 14.1612 12.7257C14.0872 12.6895 14.0231 12.6361 13.974 12.57L11.938 9.806V12.256C11.928 12.388 11.8685 12.5113 11.7714 12.6013C11.6744 12.6913 11.5469 12.7413 11.4145 12.7413C11.2821 12.7413 11.1546 12.6913 11.0576 12.6013C10.9605 12.5113 10.901 12.388 10.891 12.256V8.28C10.8907 8.14173 10.9453 8.009 11.0428 7.91095C11.1403 7.8129 11.2727 7.75753 11.411 7.757C11.573 7.757 11.723 7.843 11.823 7.968L13.875 10.743V8.28C13.875 7.993 14.11 7.755 14.4 7.755C14.687 7.755 14.925 7.993 14.925 8.28V12.256C14.9249 12.3662 14.89 12.4735 14.8254 12.5627C14.7607 12.6519 14.6696 12.7185 14.565 12.753ZM9.615 12.78C9.47636 12.7792 9.34364 12.7237 9.2457 12.6256C9.14776 12.5275 9.09253 12.3946 9.092 12.256V8.28C9.092 7.993 9.328 7.755 9.617 7.755C9.906 7.755 10.141 7.993 10.141 8.28V12.256C10.1402 12.3951 10.0845 12.5282 9.98594 12.6264C9.88741 12.7245 9.75408 12.7797 9.615 12.78ZM8.085 12.78H6.098C5.95918 12.7792 5.82625 12.7238 5.72799 12.6257C5.62973 12.5276 5.57405 12.3948 5.573 12.256V8.28C5.58447 8.14867 5.64475 8.02641 5.74194 7.93735C5.83913 7.84828 5.96617 7.79887 6.098 7.79887C6.22983 7.79887 6.35687 7.84828 6.45406 7.93735C6.55125 8.02641 6.61153 8.14867 6.623 8.28V11.73H8.087C8.22624 11.73 8.35977 11.7853 8.45823 11.8838C8.55669 11.9822 8.612 12.1158 8.612 12.255C8.612 12.3942 8.55669 12.5278 8.45823 12.6262C8.35977 12.7247 8.22624 12.78 8.087 12.78H8.085ZM12 2C6.487 2 2 5.643 2 10.118C2 14.128 5.558 17.487 10.363 18.125C10.688 18.193 11.132 18.34 11.244 18.617C11.344 18.867 11.31 19.255 11.276 19.517L11.139 20.367C11.102 20.617 10.939 21.355 12.013 20.904C13.089 20.455 17.777 17.506 19.877 15.092C21.313 13.517 22 11.905 22 10.118C22 5.643 17.512 2 12 2Z"/></svg>