<svg viewBox="0 0 24 24" xmlns="http://www.w3.org/2000/svg"><path d="M12 20.9L16.95 15.95C17.9289 14.971 18.5955 13.7237 18.8656 12.3659C19.1356 11.008 18.9969 9.60058 18.4671 8.32154C17.9373 7.0425 17.04 5.94929 15.8889 5.18015C14.7378 4.41101 13.3844 4.00049 12 4.00049C10.6156 4.00049 9.26222 4.41101 8.11109 5.18015C6.95996 5.94929 6.06275 7.0425 5.53292 8.32154C5.00308 9.60058 4.86442 11.008 5.13445 12.3659C5.40449 13.7237 6.07111 14.971 7.05 15.95L12 20.9ZM12 23.728L5.636 17.364C4.37734 16.1053 3.52019 14.5017 3.17293 12.7558C2.82567 11.01 3.00391 9.20041 3.6851 7.55588C4.36629 5.91136 5.51984 4.50575 6.99988 3.51683C8.47992 2.5279 10.22 2.00006 12 2.00006C13.78 2.00006 15.5201 2.5279 17.0001 3.51683C18.4802 4.50575 19.6337 5.91136 20.3149 7.55588C20.9961 9.20041 21.1743 11.01 20.8271 12.7558C20.4798 14.5017 19.6227 16.1053 18.364 17.364L12 23.728ZM12 13C12.5304 13 13.0391 12.7893 13.4142 12.4142C13.7893 12.0391 14 11.5304 14 11C14 10.4696 13.7893 9.96084 13.4142 9.58577C13.0391 9.2107 12.5304 8.99998 12 8.99998C11.4696 8.99998 10.9609 9.2107 10.5858 9.58577C10.2107 9.96084 10 10.4696 10 11C10 11.5304 10.2107 12.0391 10.5858 12.4142C10.9609 12.7893 11.4696 13 12 13ZM12 15C10.9391 15 9.92172 14.5786 9.17158 13.8284C8.42143 13.0783 8 12.0608 8 11C8 9.93912 8.42143 8.9217 9.17158 8.17156C9.92172 7.42141 10.9391 6.99998 12 6.99998C13.0609 6.99998 14.0783 7.42141 14.8284 8.17156C15.5786 8.9217 16 9.93912 16 11C16 12.0608 15.5786 13.0783 14.8284 13.8284C14.0783 14.5786 13.0609 15 12 15Z"/></svg>