<svg viewBox="0 0 24 24" xmlns="http://www.w3.org/2000/svg"><path fill-rule="evenodd" clip-rule="evenodd" d="M12 2C17.634 2 22 6.127 22 11.7C22 17.273 17.634 21.4 12 21.4C11.0221 21.4025 10.0484 21.2733 9.105 21.016C8.9278 20.9673 8.73924 20.9811 8.571 21.055L6.587 21.931C6.34359 22.0386 6.06261 22.0181 5.8374 21.8763C5.61219 21.7345 5.47223 21.49 5.464 21.224L5.409 19.444C5.40172 19.2253 5.30481 19.0191 5.141 18.874C3.195 17.135 2 14.617 2 11.7C2 6.127 6.367 2 12 2ZM7.764 19.225C8.354 18.965 9.014 18.916 9.632 19.086C10.402 19.296 11.197 19.402 12 19.4C16.585 19.4 20 16.113 20 11.7C20 7.287 16.585 4 12 4C7.415 4 4 7.287 4 11.7C4 13.97 4.896 15.972 6.466 17.376C7.04252 17.8867 7.38325 18.6122 7.408 19.382L7.764 19.225ZM8.932 9.877L5.995 14.537V14.536C5.713 14.984 6.263 15.488 6.684 15.169L9.839 12.774C10.0529 12.6125 10.3481 12.6125 10.562 12.774L12.898 14.524C13.2332 14.7757 13.6584 14.8757 14.0707 14.7997C14.4829 14.7237 14.8446 14.4787 15.068 14.124L18.005 9.464C18.287 9.016 17.737 8.512 17.316 8.831L14.161 11.227C13.9471 11.3885 13.6519 11.3885 13.438 11.227L11.102 9.477C10.7668 9.22526 10.3416 9.12528 9.92931 9.20127C9.51705 9.27726 9.15541 9.52229 8.932 9.877Z"/></svg>