<svg viewBox="0 0 24 24" xmlns="http://www.w3.org/2000/svg"><path d="M6.63128 7.50811C7.91535 5.97497 9.84392 5 12.0002 5C15.8662 5 19.0002 8.13401 19.0002 12C19.0002 12.3119 18.9798 12.619 18.9403 12.9201L17.8002 11.4L16.2002 12.6L20.0002 17.6667L23.8002 12.6L22.2002 11.4L20.9353 13.0866C20.9781 12.7304 21.0002 12.3678 21.0002 12C21.0002 7.02944 16.9708 3 12.0002 3C9.3957 3 7.0496 4.10632 5.40619 5.87466L6.63128 7.50811Z"/><path d="M12.0002 19C14.1565 19 16.0851 18.025 17.3691 16.4919L18.5942 18.1253C16.9508 19.8937 14.6047 21 12.0002 21C7.02964 21 3.0002 16.9706 3.0002 12C3.0002 11.6322 3.02226 11.2696 3.06512 10.9134L1.8002 12.6L0.200195 11.4L4.0002 6.33334L7.8002 11.4L6.2002 12.6L5.06013 11.0799C5.0206 11.381 5.0002 11.6881 5.0002 12C5.0002 15.866 8.13421 19 12.0002 19Z"/></svg>