<svg viewBox="0 0 24 24" xmlns="http://www.w3.org/2000/svg"><path d="M3 2C2.44772 2 2 2.44772 2 3V21C2 21.5523 2.44772 22 3 22H21C21.5523 22 22 21.5523 22 21V3C22 2.44772 21.5523 2 21 2H3ZM11.7071 6.70711L10.4142 8H13C14.2153 8 15.4628 8.40725 16.4186 9.26665C17.3921 10.1419 18 11.4311 18 13.0513C18 14.6742 17.3894 15.9452 16.4042 16.7974C15.4413 17.6302 14.1956 18 13 18H8V16H13C13.8044 16 14.5587 15.7493 15.0958 15.2847C15.6106 14.8394 16 14.1361 16 13.0513C16 11.9638 15.6079 11.2273 15.0814 10.7539C14.5372 10.2645 13.7847 10 13 10H10.4142L11.7071 11.2929L10.2929 12.7071L6.58578 9L10.2929 5.29289L11.7071 6.70711Z"/></svg>