<svg viewBox="0 0 24 24" xmlns="http://www.w3.org/2000/svg"><path d="M9.82989 8.79L7.99989 9.456V13H5.99989V8.05H6.01489L11.2829 6.132C11.5269 6.039 11.7929 5.992 12.0649 6.001C12.6084 6.01455 13.1342 6.19711 13.5691 6.52328C14.0041 6.84946 14.3266 7.30305 14.4919 7.821C14.6779 8.404 14.8479 8.798 15.0019 9.003C15.4673 9.62362 16.071 10.1272 16.7649 10.4739C17.4589 10.8205 18.2241 11.0007 18.9999 11V13C17.9672 13.0011 16.9471 12.7733 16.013 12.3329C15.0789 11.8925 14.2541 11.2504 13.5979 10.453L12.9009 14.409L14.9999 16.17V23H12.9999V17.102L10.7299 15.198L10.0029 19.325L3.10889 18.11L3.45689 16.14L8.38089 17.008L9.82989 8.79ZM13.4999 5.5C12.9695 5.5 12.4607 5.28929 12.0857 4.91421C11.7106 4.53914 11.4999 4.03043 11.4999 3.5C11.4999 2.96957 11.7106 2.46086 12.0857 2.08579C12.4607 1.71071 12.9695 1.5 13.4999 1.5C14.0303 1.5 14.539 1.71071 14.9141 2.08579C15.2892 2.46086 15.4999 2.96957 15.4999 3.5C15.4999 4.03043 15.2892 4.53914 14.9141 4.91421C14.539 5.28929 14.0303 5.5 13.4999 5.5Z"/></svg>