<svg viewBox="0 0 24 24" xmlns="http://www.w3.org/2000/svg"><g clip-path="url(#clip0_8413_1586)"><path d="M9.83001 8.79L8.00001 9.456V13H6.00001V8.05H6.01501L11.283 6.132C11.527 6.039 11.793 5.992 12.065 6.001C12.6085 6.01455 13.1343 6.19711 13.5693 6.52328C14.0042 6.84946 14.3267 7.30305 14.492 7.821C14.678 8.404 14.848 8.798 15.002 9.003C15.4674 9.62362 16.0711 10.1272 16.7651 10.4739C17.459 10.8205 18.2243 11.0007 19 11V13C17.9673 13.0011 16.9472 12.7733 16.0131 12.3329C15.079 11.8925 14.2542 11.2504 13.598 10.453L13.017 13.75L15 15.67V23H13V17.014L10.95 15.027L10.003 19.325L3.10901 18.11L3.45701 16.14L8.38101 17.008L9.83001 8.79ZM13.5 5.5C12.9696 5.5 12.4609 5.28929 12.0858 4.91421C11.7107 4.53914 11.5 4.03043 11.5 3.5C11.5 2.96957 11.7107 2.46086 12.0858 2.08579C12.4609 1.71071 12.9696 1.5 13.5 1.5C14.0304 1.5 14.5391 1.71071 14.9142 2.08579C15.2893 2.46086 15.5 2.96957 15.5 3.5C15.5 4.03043 15.2893 4.53914 14.9142 4.91421C14.5391 5.28929 14.0304 5.5 13.5 5.5Z"/></g><defs><clipPath id="clip0_8413_1586"><rect width="24" height="24"/></clipPath></defs></svg>