<svg viewBox="0 0 24 24" xmlns="http://www.w3.org/2000/svg"><path d="M11 2L18.298 4.28C18.7158 4.41042 19.0002 4.79735 19 5.235V7H21C21.5523 7 22 7.44772 22 8V10H9V8C9 7.44772 9.44772 7 10 7H17V5.97L11 4.094L5 5.97V13.374C4.99971 14.6148 5.57526 15.7855 6.558 16.543L6.747 16.679L11 19.58L14.782 17H10C9.44772 17 9 16.5523 9 16V12H22V16C22 16.5523 21.5523 17 21 17L17.78 17.001C17.393 17.511 16.923 17.961 16.38 18.331L11 22L5.62 18.332C3.98058 17.2142 2.99979 15.3582 3 13.374V5.235C3.00025 4.79772 3.28459 4.41131 3.702 4.281L11 2Z"/></svg>