<svg viewBox="0 0 24 24" xmlns="http://www.w3.org/2000/svg"><path d="M22 7.02474V9.52474C22 13.1147 19.09 16.0247 15.5 16.0247H13V21.0247H11V14.0247L11.019 13.0247C11.274 9.66874 14.079 7.02474 17.5 7.02474H22ZM6 3.02474C9.092 3.02474 11.716 5.02974 12.643 7.81074C11.143 9.08574 10.153 10.9387 10.016 13.0247H9C5.134 13.0247 2 9.89074 2 6.02474V3.02474H6Z"/><path d="M15.6138 5.29365C15.0658 6.05627 14.0034 6.23027 13.2409 5.68228C12.4783 5.13429 12.3043 4.07182 12.8523 3.3092C13.4002 2.54657 14.5196 2.15529 15.8866 2C16.1205 2.961 16.1617 4.53102 15.6138 5.29365Z"/></svg>