<svg viewBox="0 0 24 24" xmlns="http://www.w3.org/2000/svg"><path d="M11.0348 20C6.6031 20 3.01048 16.4183 3.01048 12C3.01048 7.58172 6.6031 4 11.0348 4C15.4665 4 19.0592 7.58172 19.0592 12C19.0592 13.0575 18.8533 14.0671 18.4795 14.9911H20.6089C20.9054 14.0466 21.0652 13.0419 21.0652 12C21.0652 6.47715 16.5745 2 11.0348 2C5.49517 2 1.00439 6.47715 1.00439 12C1.00439 17.5228 5.49517 22 11.0348 22C11.9584 22 12.8528 21.8756 13.7021 21.6426V19.5474C12.8676 19.8405 11.9699 20 11.0348 20Z"/><path d="M21.4778 16.0514L23.0044 17.4829L18.2183 21.9738L14.937 18.8949L16.4629 17.4631L18.2183 19.1102L21.4778 16.0514Z"/><path d="M8.34231 8.5C9.53787 8.5 10.3735 8.64702 11.1576 9.33621C11.7207 9.82986 12.0767 10.4994 12.2045 11.3201L12.2041 8.5H16.3008V10.0399L14.047 10.0424V11.1861L15.9986 11.1844V12.6897L14.047 12.6917V13.9604H16.3008V15.4953H12.2041L12.2046 12.7047C12.0787 13.4702 11.7292 14.1174 11.1659 14.6337C10.3628 15.3609 9.65347 15.5 8.59459 15.5H5.76885V8.5H8.34231ZM8.34231 10.0053H7.61105V13.9627H8.35067C9.76014 13.9627 10.4263 13.3536 10.4263 11.9762C10.4263 10.7157 9.69504 10.0053 8.34231 10.0053Z"/></svg>