<svg viewBox="0 0 24 24" xmlns="http://www.w3.org/2000/svg"><path fill-rule="evenodd" clip-rule="evenodd" d="M14.045 2.20797C12.6958 1.92642 11.303 1.9271 9.95405 2.20997V2.21097C9.77163 3.41189 9.05249 4.46447 8.00005 5.07097C6.94782 5.67945 5.67573 5.77552 4.54405 5.33197C3.62616 6.36007 2.92972 7.56609 2.49805 8.87497C3.44817 9.63337 4.00104 10.7833 4.00005 11.999C4.00092 13.2136 3.44887 14.3626 2.50005 15.121C2.92905 16.4313 3.62464 17.6386 4.54305 18.667C5.67487 18.2228 6.9474 18.3185 8.00005 18.927C9.05412 19.5343 9.77383 20.589 9.95505 21.792C11.3044 22.0729 12.6973 22.0715 14.046 21.788C14.2285 20.5871 14.9476 19.5345 16 18.928C17.0523 18.3195 18.3244 18.2234 19.456 18.667C20.3739 17.6389 21.0704 16.4328 21.502 15.124C20.586 14.391 20 13.264 20 12C19.9986 10.7846 20.5507 9.63476 21.5 8.87597C21.0709 7.56601 20.3753 6.35903 19.457 5.33097C18.3251 5.77484 17.0525 5.67877 16 5.06997C14.9467 4.46327 14.2271 3.40981 14.045 2.20797ZM15 12C15 13.6568 13.6569 15 12 15C10.3432 15 9.00005 13.6568 9.00005 12C9.00005 10.3431 10.3432 8.99997 12 8.99997C13.6569 8.99997 15 10.3431 15 12Z"/></svg>