<svg viewBox="0 0 24 24" xmlns="http://www.w3.org/2000/svg"><path d="M4.9656 2.73975C4.84956 2.30788 4.4564 2 4 2H1V4H3.141L4.98101 16.1493L5.00413 16.2598C5.12017 16.6916 5.51333 16.9995 5.96973 16.9995H19.0044L19.1202 16.9928C19.5388 16.9443 19.8877 16.6356 19.9807 16.2159L21.9763 7.21324L21.9952 7.09669C22.0547 6.51717 21.5996 5.99683 21 5.99683L5.466 5.997L4.98871 2.85019L4.9656 2.73975ZM8 23C6.89543 23 6 22.1046 6 21C6 19.8954 6.89543 19 8 19C9.10457 19 10 19.8954 10 21C10 22.1046 9.10457 23 8 23ZM17 23C15.8954 23 15 22.1046 15 21C15 19.8954 15.8954 19 17 19C18.1046 19 19 19.8954 19 21C19 22.1046 18.1046 23 17 23Z"/></svg>