<svg viewBox="0 0 24 24" xmlns="http://www.w3.org/2000/svg"><path fill-rule="evenodd" clip-rule="evenodd" d="M5.56502 10.6083C5.4107 10.5401 5.27007 10.478 5.08094 10.478C4.92175 10.4812 4.76436 10.5124 4.61594 10.57C4.23894 10.727 4.03394 11.06 4.03394 11.3C4.03394 12.0083 5.14969 12.3496 5.34732 12.41C5.35728 12.413 5.3649 12.4154 5.36994 12.417C5.38707 12.4227 5.40462 12.4284 5.42252 12.4343C5.79013 12.5552 6.30658 12.7249 6.44294 13.052C6.51294 13.231 6.48394 13.455 6.35194 13.731C6.34743 13.7404 6.34211 13.7516 6.33597 13.7646C6.12977 14.2002 4.99747 16.592 2.42994 17.061C2.19694 17.103 2.03894 17.308 2.03894 17.543C2.03894 17.879 2.39994 18.157 2.76494 18.322C3.20894 18.522 3.86094 18.7 4.71694 18.835C4.74731 18.895 4.82626 19.2195 4.88707 19.4693C4.91436 19.5814 4.938 19.6786 4.95194 19.73C5.08164 20.2109 5.53907 20.1279 5.81519 20.0778C5.86692 20.0684 5.91228 20.0602 5.94794 20.057C5.99204 20.0529 6.0533 20.0419 6.13007 20.0282C6.44502 19.9719 7.02093 19.8689 7.74294 20C8.23394 20.089 8.65694 20.378 9.13894 20.726C9.18283 20.757 9.2267 20.7883 9.27072 20.8197C9.94186 21.2982 10.6483 21.802 11.9959 21.802C13.3781 21.802 14.1267 21.2713 14.817 20.7819C14.8434 20.7632 14.8697 20.7445 14.8959 20.726C15.3779 20.378 15.8089 20.087 16.2909 20C16.8876 19.9074 17.4961 19.9236 18.0869 20.048C18.0965 20.05 18.1072 20.0524 18.119 20.0549C18.3424 20.1039 18.9497 20.2368 19.0779 19.722C19.104 19.6183 19.1294 19.5144 19.1534 19.4158C19.2227 19.132 19.281 18.8929 19.3129 18.835C20.1739 18.7 20.8219 18.53 21.2649 18.33C21.6209 18.165 21.9909 17.88 21.9909 17.548C21.9909 17.306 21.8349 17.1 21.5999 17.065C18.9299 16.622 17.6729 13.747 17.6699 13.739C17.5349 13.461 17.5039 13.235 17.5779 13.061C17.72 12.7217 18.2688 12.5478 18.6378 12.4308L18.6529 12.426C19.1499 12.267 19.9829 11.921 19.9829 11.3C19.9829 11.047 19.6849 10.477 18.9999 10.477C18.6407 10.477 18.4658 10.5586 18.2956 10.6381C18.134 10.7135 17.9766 10.787 17.6699 10.787C17.573 10.7886 17.4772 10.7663 17.3909 10.722C17.3917 10.7114 17.3932 10.6939 17.3952 10.6697C17.4164 10.4155 17.4989 9.42584 17.4989 8.006C17.4989 6.408 16.8339 5.303 15.9479 4.478C15.0619 3.653 13.8159 3 11.9959 3C10.1749 3 8.89294 3.65 8.06994 4.474C7.24694 5.298 6.52694 6.3 6.52694 7.988C6.52694 8.731 6.61694 10.561 6.62594 10.717C6.55994 10.748 6.45694 10.783 6.29994 10.783C5.96034 10.783 5.75258 10.6912 5.56502 10.6083ZM15.4159 10.331L15.3959 10.58C15.3588 11.1012 15.5271 11.6153 15.8649 12.014C15.8179 12.1 15.7729 12.192 15.7329 12.29C15.3999 13.071 15.5069 13.862 15.8699 14.611C16.248 15.3956 16.7352 16.1228 17.3169 16.771C17.5115 16.9868 17.7171 17.1924 17.9329 17.387C17.7615 17.5498 17.6203 17.7418 17.5159 17.954C16.9952 17.9175 16.4719 17.9424 15.9569 18.028C15.1329 18.176 14.6019 18.472 13.7259 19.104L13.5189 19.25C12.9059 19.681 12.6049 19.802 11.9959 19.802C11.3999 19.802 11.1419 19.696 10.5229 19.256L10.3099 19.104L10.2939 19.093C9.42394 18.466 8.90994 18.178 8.09994 18.032C7.57737 17.9359 7.04419 17.911 6.51494 17.958C6.41187 17.7469 6.2724 17.5557 6.10294 17.393C6.32899 17.191 6.54334 16.9764 6.74494 16.75C7.42394 15.989 7.76294 15.414 8.15494 14.596C8.50494 13.868 8.60694 13.096 8.30694 12.325C8.25894 12.212 8.20894 12.106 8.15394 12.008C8.4836 11.6177 8.65141 11.1161 8.62294 10.606C8.58794 9.982 8.52694 8.509 8.52694 7.988C8.52694 7.106 8.78894 6.583 9.48494 5.888C10.0369 5.335 10.8579 5 11.9949 5C13.1259 5 13.9249 5.328 14.5849 5.942C15.2049 6.519 15.4989 7.135 15.4989 8.005C15.4991 8.78108 15.4715 9.55691 15.4159 10.331Z"/></svg>