<svg viewBox="0 0 24 24" xmlns="http://www.w3.org/2000/svg"><path fill-rule="evenodd" clip-rule="evenodd" d="M10.307 22.693L16.707 16.293C16.8946 16.1055 16.9999 15.8512 17 15.586V4C17 3.44772 16.5523 3 16 3H5.17C4.76484 3.0004 4.39996 3.24523 4.246 3.62L1.15 11.134C1.05069 11.3758 0.999731 11.6346 1 11.896V14C1 15.1046 1.89543 16 3 16H9.4L8.247 20.53C8.09742 21.117 8.31557 21.7363 8.8 22.1L9.653 22.74C9.85228 22.8894 10.1311 22.8694 10.307 22.693ZM19 15H22C22.5523 15 23 14.5523 23 14V4C23 3.44772 22.5523 3 22 3H19V15Z"/></svg>