<svg viewBox="0 0 24 24" xmlns="http://www.w3.org/2000/svg"><path d="M4 23C4 20.8783 4.84285 18.8434 6.34315 17.3431C7.84344 15.8429 9.87827 15 12 15C14.1217 15 16.1566 15.8429 17.6569 17.3431C19.1571 18.8434 20 20.8783 20 23H18C18 21.4087 17.3679 19.8826 16.2426 18.7574C15.1174 17.6321 13.5913 17 12 17C10.4087 17 8.88258 17.6321 7.75736 18.7574C6.63214 19.8826 6 21.4087 6 23H4ZM12 14C8.685 14 6 11.315 6 8C6 4.685 8.685 2 12 2C15.315 2 18 4.685 18 8C18 11.315 15.315 14 12 14ZM12 12C14.21 12 16 10.21 16 8C16 5.79 14.21 4 12 4C9.79 4 8 5.79 8 8C8 10.21 9.79 12 12 12Z"/></svg>