<svg viewBox="0 0 24 24" xmlns="http://www.w3.org/2000/svg"><path fill-rule="evenodd" clip-rule="evenodd" d="M17.502 8.465C17.0841 8.30003 16.3573 8.12008 15.7804 8.12C13.8137 8.12019 12.429 9.10114 12.412 10.563C12.3981 11.6974 13.4282 12.2664 14.1712 12.6768L14.186 12.685C14.93 13.095 15.134 13.26 15.13 13.592C15.125 14.059 14.556 14.327 13.893 14.327C13.169 14.327 12.81 14.214 11.963 13.859L11.611 15.484C12.443 15.779 12.811 15.865 13.831 15.88C16.067 15.88 17.127 14.641 17.14 13.385C17.152 12.78 17.026 12.223 16.067 11.603C15.8266 11.4473 15.5881 11.3156 15.3702 11.1952C14.8268 10.8951 14.411 10.6655 14.411 10.31C14.411 10.004 14.881 9.685 15.641 9.672C16.164 9.665 16.786 9.87 17.164 10.022L17.502 8.465ZM9.086 8.259L7.06 8.257L5.029 13.341L4.83454 12.3054C4.51936 10.627 4.3179 9.55416 4.229 9.087C4.124 8.531 3.797 8.26 3.237 8.26H0V8.465C0.792 8.71 1.357 8.89 1.696 9.007C2.077 9.138 2.275 9.415 2.375 9.811C2.87791 11.798 3.38725 13.7833 3.903 15.767L5.954 15.769L9.086 8.259ZM22.222 15.768L21.997 14.643H19.483L19.083 15.76L17.068 15.764C18.0273 13.4571 18.9886 11.1511 19.952 8.846C20.116 8.455 20.407 8.256 20.836 8.258C21.164 8.261 21.699 8.261 22.442 8.259L24 15.765L22.222 15.768ZM20.049 13.102H21.669L21.064 10.282L20.049 13.102ZM11.87 8.259L10.268 15.767L8.34 15.765L9.94 8.257L11.87 8.259Z"/></svg>