<svg viewBox="0 0 24 24" xmlns="http://www.w3.org/2000/svg"><path fill-rule="evenodd" clip-rule="evenodd" d="M5 16H8.889L14.183 20.332C14.3325 20.4546 14.5393 20.48 14.714 20.3972C14.8888 20.3145 15.0001 20.1384 15 19.945V4.05503C15.0001 3.86168 14.8888 3.68559 14.714 3.60282C14.5393 3.52006 14.3325 3.54545 14.183 3.66803L8.889 8.00003H5C4.44772 8.00003 4 8.44774 4 9.00003V15C4 15.5523 4.44772 16 5 16ZM17.441 15.169L18.863 16.591C20.17 15.49 21 13.842 21 12C21.0016 10.093 20.0952 8.29907 18.559 7.16903L17.12 8.60803C18.25 9.31503 19 10.57 19 12C19.0011 13.2413 18.425 14.4124 17.441 15.169Z"/></svg>