<svg fill="none" xmlns="http://www.w3.org/2000/svg" viewBox="0 0 58 40"><path d="M0 4C0 1.79086 1.79086 0 4 0H54C56.2091 0 58 1.79086 58 4V36C58 38.2091 56.2091 40 54 40H4C1.79086 40 0 38.2091 0 36V4Z" fill="#FFFFFF"/><path fill-rule="evenodd" clip-rule="evenodd" d="M54 1H4C2.34315 1 1 2.34315 1 4V36C1 37.6569 2.34314 39 4 39H54C55.6569 39 57 37.6569 57 36V4C57 2.34315 55.6569 1 54 1ZM4 0C1.79086 0 0 1.79086 0 4V36C0 38.2091 1.79086 40 4 40H54C56.2091 40 58 38.2091 58 36V4C58 1.79086 56.2091 0 54 0H4Z" fill="#F1F1F1"/><path d="M18 9H48V30H18V9Z" fill="#D7F0F4"/><path d="M29.8105 12.7591C35.3035 16.6061 37.1235 27.226 37.1235 27.226C37.1235 27.226 34.4647 25.9412 32.558 27.7232C29.9306 26.2151 27.6069 27.5968 27.6069 27.5968C27.6069 27.5968 25.6381 25.6118 23.1137 26.7376C23.1137 26.7376 23.2686 18.9009 29.8105 12.7591Z" fill="#E9F3F4"/><path fill-rule="evenodd" clip-rule="evenodd" d="M50.83 9.17H7.17V29.83H50.83V9.17ZM6 8V31H52V8H6Z" fill="#D5D5D5"/><path d="M48 9H51V30H48V9Z" fill="#73859D"/><path fill-rule="evenodd" clip-rule="evenodd" d="M21.606 18.8132L21.6098 18.007L17.9333 17.9898C18.0163 17.655 18.2152 17.3508 18.5299 17.0772C18.7062 16.9231 18.9483 16.7615 19.2563 16.5922L19.902 16.2348C20.4708 15.9181 20.8655 15.648 21.0859 15.4246C21.467 15.0406 21.6588 14.5768 21.6613 14.0329C21.6637 13.5176 21.4881 13.0488 21.1343 12.6267C20.7805 12.2045 20.2181 11.9916 19.4471 11.988C18.5194 11.9836 17.8706 12.3094 17.5008 12.9653C17.2922 13.3374 17.1818 13.8191 17.1696 14.4103L18.03 14.4143C18.0445 13.9939 18.1118 13.6654 18.232 13.4288C18.4567 12.9872 18.8589 12.7678 19.4387 12.7705C19.8305 12.7723 20.1434 12.89 20.3774 13.1235C20.6114 13.3569 20.7274 13.6713 20.7256 14.0665C20.724 14.4048 20.5941 14.7046 20.3358 14.9658C20.1721 15.1326 19.8875 15.3336 19.482 15.5688L18.5769 16.091C17.9703 16.4423 17.5618 16.834 17.3513 17.2662C17.1409 17.6983 17.0186 18.2068 16.9845 18.7916L21.606 18.8132ZM24.6375 19.0124C25.5339 19.0166 26.1816 18.5865 26.5806 17.722C26.8561 17.1194 26.996 16.3565 27.0004 15.4333C27.0049 14.4595 26.8581 13.6921 26.5598 13.1311C26.1746 12.4053 25.5463 12.0403 24.6749 12.0362C23.7065 12.0317 23.0349 12.5439 22.6602 13.5729C22.4601 14.1252 22.3583 14.7871 22.3547 15.5586C22.35 16.5545 22.5108 17.3488 22.8372 17.9416C23.2288 18.6517 23.8289 19.0086 24.6375 19.0124ZM23.4844 17.2665C23.7071 17.9093 24.0911 18.2321 24.6365 18.2346C25.0753 18.2367 25.4257 18.0423 25.6877 17.6515C25.9496 17.2606 26.0831 16.5309 26.0881 15.4623C26.0918 14.6908 26.0007 14.0557 25.815 13.5568C25.6293 13.058 25.2653 12.8073 24.7231 12.8047C24.2247 12.8024 23.8592 13.037 23.6267 13.5086C23.3941 13.9802 23.2756 14.676 23.2713 15.5961C23.2681 16.2885 23.3391 16.8453 23.4844 17.2665Z" fill="black"/><path fill-rule="evenodd" clip-rule="evenodd" d="M21.606 18.8132L21.6098 18.007L17.9333 17.9898C18.0163 17.655 18.2152 17.3508 18.5299 17.0772C18.7062 16.9231 18.9483 16.7615 19.2563 16.5922L19.902 16.2348C20.4708 15.9181 20.8655 15.648 21.0859 15.4246C21.467 15.0406 21.6588 14.5768 21.6613 14.0329C21.6637 13.5176 21.4881 13.0488 21.1343 12.6267C20.7805 12.2045 20.2181 11.9916 19.4471 11.988C18.5194 11.9836 17.8706 12.3094 17.5008 12.9653C17.2922 13.3374 17.1818 13.8191 17.1696 14.4103L18.03 14.4143C18.0445 13.9939 18.1118 13.6654 18.232 13.4288C18.4567 12.9872 18.8589 12.7678 19.4387 12.7705C19.8305 12.7723 20.1434 12.89 20.3774 13.1235C20.6114 13.3569 20.7274 13.6713 20.7256 14.0665C20.724 14.4048 20.5941 14.7046 20.3358 14.9658C20.1721 15.1326 19.8875 15.3336 19.482 15.5688L18.5769 16.091C17.9703 16.4423 17.5618 16.834 17.3513 17.2662C17.1409 17.6983 17.0186 18.2068 16.9845 18.7916L21.606 18.8132ZM24.6375 19.0124C25.5339 19.0166 26.1816 18.5865 26.5806 17.722C26.8561 17.1194 26.996 16.3565 27.0004 15.4333C27.0049 14.4595 26.8581 13.6921 26.5598 13.1311C26.1746 12.4053 25.5463 12.0403 24.6749 12.0362C23.7065 12.0317 23.0349 12.5439 22.6602 13.5729C22.4601 14.1252 22.3583 14.7871 22.3547 15.5586C22.35 16.5545 22.5108 17.3488 22.8372 17.9416C23.2288 18.6517 23.8289 19.0086 24.6375 19.0124ZM23.4844 17.2665C23.7071 17.9093 24.0911 18.2321 24.6365 18.2346C25.0753 18.2367 25.4257 18.0423 25.6877 17.6515C25.9496 17.2606 26.0831 16.5309 26.0881 15.4623C26.0918 14.6908 26.0007 14.0557 25.815 13.5568C25.6293 13.058 25.2653 12.8073 24.7231 12.8047C24.2247 12.8024 23.8592 13.037 23.6267 13.5086C23.3941 13.9802 23.2756 14.676 23.2713 15.5961C23.2681 16.2885 23.3391 16.8453 23.4844 17.2665Z" fill="#3D4C64"/><path fill-rule="evenodd" clip-rule="evenodd" d="M9.84195 28.92L9.84357 28.5745L8.37297 28.5676C8.40624 28.4241 8.48584 28.2937 8.61176 28.1764C8.68228 28.1104 8.77915 28.041 8.90235 27.9684L9.16071 27.8152C9.38828 27.6794 9.54616 27.5636 9.63437 27.4678C9.78685 27.3032 9.86363 27.1044 9.86472 26.8713C9.86576 26.6504 9.79555 26.4496 9.6541 26.2687C9.51265 26.0878 9.28772 25.9966 8.97931 25.9952C8.60821 25.9935 8.34866 26.1332 8.20065 26.4143C8.11716 26.5738 8.07294 26.7803 8.06799 27.0336L8.41213 27.0352C8.41799 26.855 8.44498 26.7142 8.49309 26.6128C8.583 26.4236 8.74392 26.3295 8.97585 26.3306C9.13257 26.3313 9.2577 26.3817 9.35126 26.4817C9.44483 26.5817 9.49121 26.7164 9.49042 26.8858C9.48974 27.0308 9.43773 27.1593 9.3344 27.2713C9.26887 27.3428 9.155 27.429 8.9928 27.5298L8.63067 27.7537C8.38799 27.9044 8.22453 28.0723 8.14029 28.2575C8.05605 28.4428 8.00707 28.6607 7.99336 28.9113L9.84195 28.92ZM11.0545 29.005C11.4131 29.0066 11.6722 28.8222 11.8319 28.4517C11.9422 28.1934 11.9983 27.8664 12.0002 27.4708C12.0021 27.0534 11.9435 26.7246 11.8242 26.4842C11.6702 26.1731 11.419 26.0168 11.0704 26.0152C10.683 26.0133 10.4143 26.233 10.2643 26.674C10.1842 26.9108 10.1434 27.1944 10.1419 27.5251C10.1399 27.9519 10.2041 28.2923 10.3345 28.5463C10.4911 28.8506 10.7311 29.0034 11.0545 29.005ZM10.5935 28.2569C10.6825 28.5323 10.8361 28.6706 11.0542 28.6716C11.2297 28.6724 11.3699 28.5891 11.4748 28.4216C11.5796 28.254 11.6331 27.9413 11.6353 27.4833C11.6368 27.1527 11.6005 26.8805 11.5263 26.6667C11.452 26.4529 11.3065 26.3455 11.0896 26.3445C10.8902 26.3436 10.744 26.4442 10.6509 26.6463C10.5578 26.8485 10.5104 27.1467 10.5085 27.541C10.5071 27.8377 10.5355 28.0764 10.5935 28.2569Z" fill="black"/><path fill-rule="evenodd" clip-rule="evenodd" d="M9.84195 28.92L9.84357 28.5745L8.37297 28.5676C8.40624 28.4241 8.48584 28.2937 8.61176 28.1764C8.68228 28.1104 8.77915 28.041 8.90235 27.9684L9.16071 27.8152C9.38828 27.6794 9.54616 27.5636 9.63437 27.4678C9.78685 27.3032 9.86363 27.1044 9.86472 26.8713C9.86576 26.6504 9.79555 26.4496 9.6541 26.2687C9.51265 26.0878 9.28772 25.9966 8.97931 25.9952C8.60821 25.9935 8.34866 26.1332 8.20065 26.4143C8.11716 26.5738 8.07294 26.7803 8.06799 27.0336L8.41213 27.0352C8.41799 26.855 8.44498 26.7142 8.49309 26.6128C8.583 26.4236 8.74392 26.3295 8.97585 26.3306C9.13257 26.3313 9.2577 26.3817 9.35126 26.4817C9.44483 26.5817 9.49121 26.7164 9.49042 26.8858C9.48974 27.0308 9.43773 27.1593 9.3344 27.2713C9.26887 27.3428 9.155 27.429 8.9928 27.5298L8.63067 27.7537C8.38799 27.9044 8.22453 28.0723 8.14029 28.2575C8.05605 28.4428 8.00707 28.6607 7.99336 28.9113L9.84195 28.92ZM11.0545 29.005C11.4131 29.0066 11.6722 28.8222 11.8319 28.4517C11.9422 28.1934 11.9983 27.8664 12.0002 27.4708C12.0021 27.0534 11.9435 26.7246 11.8242 26.4842C11.6702 26.1731 11.419 26.0168 11.0704 26.0152C10.683 26.0133 10.4143 26.233 10.2643 26.674C10.1842 26.9108 10.1434 27.1944 10.1419 27.5251C10.1399 27.9519 10.2041 28.2923 10.3345 28.5463C10.4911 28.8506 10.7311 29.0034 11.0545 29.005ZM10.5935 28.2569C10.6825 28.5323 10.8361 28.6706 11.0542 28.6716C11.2297 28.6724 11.3699 28.5891 11.4748 28.4216C11.5796 28.254 11.6331 27.9413 11.6353 27.4833C11.6368 27.1527 11.6005 26.8805 11.5263 26.6667C11.452 26.4529 11.3065 26.3455 11.0896 26.3445C10.8902 26.3436 10.744 26.4442 10.6509 26.6463C10.5578 26.8485 10.5104 27.1467 10.5085 27.541C10.5071 27.8377 10.5355 28.0764 10.5935 28.2569Z" fill="#3D4C64"/><path d="M8.02943 13.069H12.6221V10.0315H8.02943V13.069Z" fill="#6B70C0"/><path fill-rule="evenodd" clip-rule="evenodd" d="M10.257 10.5936L10.2245 10.6937L10.3095 10.6318L10.3946 10.6938L10.362 10.5936L10.4471 10.5316H10.342L10.3095 10.4314L10.2771 10.5316H10.1719L10.257 10.5936ZM10.7341 10.8381L10.7667 10.738L10.6815 10.676H10.7866L10.8191 10.5759L10.8516 10.676H10.9568L10.8717 10.738L10.9042 10.8381L10.8191 10.7763L10.7341 10.8381ZM9.75427 10.7466L9.72175 10.8467L9.80683 10.7849L9.89184 10.8467L9.85932 10.7466L9.9444 10.6846H9.83931L9.80683 10.5844L9.77438 10.6846H9.66922L9.75427 10.7466ZM9.38535 11.1025L9.35291 11.2027L9.43791 11.1407L9.52289 11.2027L9.49048 11.1025L9.57549 11.0406H9.47036L9.43791 10.9404L9.40547 11.0405H9.30031L9.38535 11.1025ZM9.2618 11.6028L9.22929 11.703L9.3144 11.6411L9.39941 11.703L9.36696 11.6028L9.45201 11.5408H9.34685L9.3144 11.4408L9.28185 11.5408H9.17672L9.2618 11.6028ZM10.2399 12.6691L10.2724 12.5691L10.1874 12.5072H10.2925L10.325 12.4069L10.3575 12.5072H10.4626L10.3775 12.5691L10.41 12.6691L10.325 12.6073L10.2399 12.6691ZM9.35973 12.1775L9.39217 12.0773L9.3072 12.0154H9.41229L9.44474 11.9152L9.47729 12.0154H9.58238L9.4973 12.0773L9.52988 12.1775L9.44474 12.1156L9.35973 12.1775ZM9.76282 12.4385L9.73034 12.5386L9.81535 12.4766L9.90046 12.5386L9.86788 12.4385L9.95302 12.3765H9.84786L9.81535 12.2764L9.78287 12.3765H9.67778L9.76282 12.4385ZM10.7409 12.5282L10.7735 12.4281L10.6883 12.3662H10.7935L10.826 12.266L10.8585 12.3662H10.9636L10.8786 12.4281L10.911 12.5282L10.826 12.4664L10.7409 12.5282ZM11.1303 12.0739L11.0978 12.174L11.1829 12.1121L11.2679 12.174L11.2355 12.0739L11.3205 12.012H11.2153L11.1829 11.9118L11.1504 12.012H11.0453L11.1303 12.0739ZM11.2523 11.6806L11.2847 11.5805L11.1997 11.5185H11.3048L11.3373 11.4183L11.3697 11.5185H11.4748L11.3898 11.5805L11.4223 11.6806L11.3373 11.6187L11.2523 11.6806ZM11.1354 11.087L11.103 11.1872L11.188 11.1253L11.2731 11.1872L11.2406 11.087L11.3256 11.0251H11.2205L11.188 10.9249L11.1555 11.0251H11.0503L11.1354 11.087Z" fill="#FCFC02"/></svg>