<svg fill="none" xmlns="http://www.w3.org/2000/svg" viewBox="0 0 58 40"><path d="M0 4C0 1.79086 1.79086 0 4 0H54C56.2091 0 58 1.79086 58 4V13H0V4Z" fill="#2F3093"/><path d="M0 26H58V36C58 37.6569 56.6569 39 55 39H3C1.34315 39 0 37.6569 0 36V26Z" fill="#006618"/><rect y="10" width="58" height="20" fill="#20A2E4"/><path d="M21.825 19.4075H29.6782C29.6082 17.71 29.2127 15.9599 28.0131 14.8358C26.5842 13.4967 24.0813 13 21.8449 13C19.5172 13 16.943 13.5448 15.5065 14.9815C14.2678 16.2192 14 18.2105 14 19.9996C14 21.8737 14.5239 24.0536 15.8677 25.3093C17.2966 26.6453 19.612 27 21.8449 27C24.0141 27 26.3638 26.5995 27.7844 25.3311C29.201 24.0641 29.6906 21.9301 29.6906 19.9996V19.9906H21.825V19.4075Z" fill="#FEFEFE"/><path d="M30.2053 19.9909V26.687H41.1298V26.6779C42.7283 26.5908 44 25.1495 44 23.3799C44 21.6095 42.7283 20.0758 41.1298 19.9879V19.9909H30.2053Z" fill="#FEFEFE"/><path d="M41.0054 13.2804C42.5634 13.2804 43.8 14.6322 43.8 16.338C43.8 17.9528 42.6643 19.2716 41.2196 19.4076H30.2051V13.2706H40.6607C40.725 13.2627 40.8 13.2683 40.8733 13.2737C40.919 13.277 40.964 13.2804 41.0054 13.2804Z" fill="#FEFEFE"/><path fill-rule="evenodd" clip-rule="evenodd" d="M54 1H4C2.34315 1 1 2.34315 1 4V36C1 37.6569 2.34314 39 4 39H54C55.6569 39 57 37.6569 57 36V4C57 2.34315 55.6569 1 54 1ZM4 0C1.79086 0 0 1.79086 0 4V36C0 38.2091 1.79086 40 4 40H54C56.2091 40 58 38.2091 58 36V4C58 1.79086 56.2091 0 54 0H4Z" fill="#F3F3F3"/></svg>