<svg fill="none" xmlns="http://www.w3.org/2000/svg" viewBox="0 0 58 40"><path d="M0 4C0 1.8 1.8 0 4 0H54C56.2 0 58 1.8 58 4V36C58 38.2 56.2 40 54 40H4C1.8 40 0 38.2 0 36V4Z" fill="#FFFFFF"/><path fill-rule="evenodd" clip-rule="evenodd" d="M54 1H4C2.3 1 1 2.3 1 4V36C1 37.7 2.3 39 4 39H54C55.7 39 57 37.7 57 36V4C57 2.3 55.7 1 54 1ZM4 0C1.8 0 0 1.8 0 4V36C0 38.2 1.8 40 4 40H54C56.2 40 58 38.2 58 36V4C58 1.8 56.2 0 54 0H4Z" fill="#F3F3F3"/><path fill-rule="evenodd" clip-rule="evenodd" d="M38.4 20.0999C39.5 20.2999 42.6 19.4999 42.6 21.3999C42.7 23.2999 39.5 22.4999 38.4 22.6999V20.0999ZM42.2 17.1999C42.6 19.1999 39.5 18.4999 38.4 18.6999V16.2999C39.3 16.4999 41.9 15.7999 42.2 17.1999ZM48 4.99991V29.1999C48 30.8999 47.1 32.4999 45.6 33.3999C45.1 33.6999 44.4 33.8999 43.8 33.9999C43.7 34.0999 36.3 33.9999 35.9 34.0999V24.1999C36.5 24.1999 44.1 24.2999 44.4 24.0999C47.7 23.3999 46.9 19.3999 43.7 19.3999V19.2999C46.7 18.9999 46.6 14.9999 43.6 14.8999C43.5 14.7999 36.3 14.8999 35.9 14.8999C36 11.5999 35 6.69991 39.1 5.29991C40.3 4.69991 46.8 5.09991 48 4.99991Z" fill="#54B230"/><path fill-rule="evenodd" clip-rule="evenodd" d="M9 21.8V9.80002C9 7.70002 10.4 5.80002 12.3 5.20002C13.3 4.70002 19.8 5.00002 21 5.00002V29.2C21 30.9 20.1 32.5 18.7 33.3C18.1 33.7 17.4 33.9 16.6 34C16.5 34 16.3 34 16.2 34C16.1 34 9.1 34 9 34V23.8C11 24.3 13 24.5 15 24.4C21.7 24.1 19.7 19.5 20 14.9H15.8C15.4 18.5 17.5 24.1 11.4 22.7C10.6 22.5 9.8 22.2 9 21.8Z" fill="#006CB9"/><path fill-rule="evenodd" clip-rule="evenodd" d="M22.6 16.1L22.5 16.2C22.7 12.6 21.3 6.3 26.1 5.2C26.8 4.9 33.6 5.1 34.5 5V29.2C34.5 30.9 33.5 32.6 32 33.4C31.4 33.7 30.8 33.9 30.1 34C30 34 29.8 34 29.7 34C29.6 34 22.6 34 22.5 34V22.9C25.1 25 30.1 24.6 33.2 23.9V21.9C30.1 23.6 24.7 23.8 25.3 18.9C26 15.3 30.7 16.1 33.2 17.4V15.4C30.1 14.5 25.2 14 22.6 16.1Z" fill="#E10238"/></svg>